G04 This is an RS-274x file exported by *
G04 gerbv version 2.3.0 *
G04 More information is available about gerbv at *
G04 http://gerbv.sourceforge.net/ *
G04 --End of header info--*
%MOIN*%
%FSLAX23Y23*%
%IPPOS*%
G04 --Define apertures--*
%ADD10R,0.0283X0.0283*%
%ADD11R,0.0340X0.0340*%
%ADD12R,0.0200X0.0200*%
%ADD13R,0.0118X0.0118*%
%ADD14R,0.0510X0.0510*%
%ADD15C,0.0394*%
%ADD16C,0.1240*%
G04 --Start main section--*
G54D10*
G01X01535Y01383D02*
G01X01535Y01373D01*
G01X01477Y01383D02*
G01X01477Y01373D01*
G54D11*
G01X00786Y01789D02*
G01X00786Y01783D01*
G01X00864Y01789D02*
G01X00864Y01783D01*
G01X00825Y01871D02*
G01X00825Y01865D01*
G01X00864Y02040D02*
G01X00864Y02034D01*
G01X00786Y02040D02*
G01X00786Y02034D01*
G01X00825Y01958D02*
G01X00825Y01952D01*
G01X00791Y01322D02*
G01X00791Y01316D01*
G01X00713Y01322D02*
G01X00713Y01316D01*
G01X00752Y01240D02*
G01X00752Y01234D01*
G54D10*
G01X01477Y00832D02*
G01X01477Y00822D01*
G01X01535Y00832D02*
G01X01535Y00822D01*
G01X00054Y02321D02*
G01X00064Y02321D01*
G01X00054Y02262D02*
G01X00064Y02262D01*
G54D12*
G01X00592Y00043D02*
G01X00657Y00043D01*
G01X00592Y00093D02*
G01X00657Y00093D01*
G01X00592Y00143D02*
G01X00657Y00143D01*
G01X00592Y00193D02*
G01X00657Y00193D01*
G01X00387Y00193D02*
G01X00452Y00193D01*
G01X00387Y00143D02*
G01X00452Y00143D01*
G01X00387Y00093D02*
G01X00452Y00093D01*
G01X00387Y00043D02*
G01X00452Y00043D01*
G36*
G01X00386Y00452D02*
G01X00441Y00452D01*
G01X00441Y00397D01*
G01X00386Y00397D01*
G01X00386Y00452D01*
G37*
G36*
G01X00386Y00370D02*
G01X00441Y00370D01*
G01X00441Y00315D01*
G01X00386Y00315D01*
G01X00386Y00370D01*
G37*
G36*
G01X00465Y00478D02*
G01X00654Y00478D01*
G01X00654Y00289D01*
G01X00465Y00289D01*
G01X00465Y00478D01*
G37*
G54D13*
G01X01065Y01970D02*
G01X01065Y01937D01*
G01X01091Y01970D02*
G01X01091Y01937D01*
G01X01117Y01970D02*
G01X01117Y01937D01*
G01X01142Y01970D02*
G01X01142Y01937D01*
G01X01168Y01970D02*
G01X01168Y01937D01*
G01X01193Y01970D02*
G01X01193Y01937D01*
G01X01219Y01970D02*
G01X01219Y01937D01*
G01X01245Y01970D02*
G01X01245Y01937D01*
G01X01270Y01970D02*
G01X01270Y01937D01*
G01X01296Y01970D02*
G01X01296Y01937D01*
G01X01321Y01970D02*
G01X01321Y01937D01*
G01X01347Y01970D02*
G01X01347Y01937D01*
G01X01372Y01970D02*
G01X01372Y01937D01*
G01X01398Y01970D02*
G01X01398Y01937D01*
G01X01424Y01970D02*
G01X01424Y01937D01*
G01X01449Y01970D02*
G01X01449Y01937D01*
G01X01475Y01970D02*
G01X01475Y01937D01*
G01X01500Y01970D02*
G01X01500Y01937D01*
G01X01526Y01970D02*
G01X01526Y01937D01*
G01X01526Y02266D02*
G01X01526Y02232D01*
G01X01500Y02266D02*
G01X01500Y02232D01*
G01X01475Y02266D02*
G01X01475Y02232D01*
G01X01449Y02266D02*
G01X01449Y02232D01*
G01X01424Y02266D02*
G01X01424Y02232D01*
G01X01398Y02266D02*
G01X01398Y02232D01*
G01X01372Y02266D02*
G01X01372Y02232D01*
G01X01347Y02266D02*
G01X01347Y02232D01*
G01X01321Y02266D02*
G01X01321Y02232D01*
G01X01296Y02266D02*
G01X01296Y02232D01*
G01X01270Y02266D02*
G01X01270Y02232D01*
G01X01245Y02266D02*
G01X01245Y02232D01*
G01X01219Y02266D02*
G01X01219Y02232D01*
G01X01193Y02266D02*
G01X01193Y02232D01*
G01X01168Y02266D02*
G01X01168Y02232D01*
G01X01142Y02266D02*
G01X01142Y02232D01*
G01X01117Y02266D02*
G01X01117Y02232D01*
G01X01091Y02266D02*
G01X01091Y02232D01*
G01X01065Y02266D02*
G01X01065Y02232D01*
G54D10*
G01X01151Y01895D02*
G01X01151Y01885D01*
G01X01093Y01895D02*
G01X01093Y01885D01*
G01X01535Y01078D02*
G01X01535Y01068D01*
G01X01477Y01078D02*
G01X01477Y01068D01*
G54D14*
G01X01496Y01289D02*
G01X01516Y01289D01*
G01X01496Y01215D02*
G01X01516Y01215D01*
G54D12*
G01X00387Y00695D02*
G01X00452Y00695D01*
G01X00387Y00645D02*
G01X00452Y00645D01*
G01X00387Y00595D02*
G01X00452Y00595D01*
G01X00387Y00545D02*
G01X00452Y00545D01*
G01X00592Y00545D02*
G01X00657Y00545D01*
G01X00592Y00595D02*
G01X00657Y00595D01*
G01X00592Y00645D02*
G01X00657Y00645D01*
G01X00592Y00695D02*
G01X00657Y00695D01*
G54D14*
G01X01496Y00982D02*
G01X01516Y00982D01*
G01X01496Y00908D02*
G01X01516Y00908D01*
G36*
G01X00732Y00464D02*
G01X00929Y00464D01*
G01X00929Y00267D01*
G01X00732Y00267D01*
G01X00732Y00464D01*
G37*
G36*
G01X01126Y00464D02*
G01X01322Y00464D01*
G01X01322Y00267D01*
G01X01126Y00267D01*
G01X01126Y00464D01*
G37*
G54D10*
G01X01535Y03981D02*
G01X01535Y03971D01*
G01X01477Y03981D02*
G01X01477Y03971D01*
G54D11*
G01X00786Y04387D02*
G01X00786Y04381D01*
G01X00864Y04387D02*
G01X00864Y04381D01*
G01X00825Y04469D02*
G01X00825Y04463D01*
G01X00864Y04638D02*
G01X00864Y04632D01*
G01X00786Y04638D02*
G01X00786Y04632D01*
G01X00825Y04556D02*
G01X00825Y04550D01*
G01X00791Y03920D02*
G01X00791Y03914D01*
G01X00713Y03920D02*
G01X00713Y03914D01*
G01X00752Y03838D02*
G01X00752Y03832D01*
G54D10*
G01X01477Y03430D02*
G01X01477Y03420D01*
G01X01535Y03430D02*
G01X01535Y03420D01*
G01X00054Y04919D02*
G01X00064Y04919D01*
G01X00054Y04860D02*
G01X00064Y04860D01*
G54D12*
G01X00592Y02641D02*
G01X00657Y02641D01*
G01X00592Y02691D02*
G01X00657Y02691D01*
G01X00592Y02741D02*
G01X00657Y02741D01*
G01X00592Y02791D02*
G01X00657Y02791D01*
G01X00387Y02791D02*
G01X00452Y02791D01*
G01X00387Y02741D02*
G01X00452Y02741D01*
G01X00387Y02691D02*
G01X00452Y02691D01*
G01X00387Y02641D02*
G01X00452Y02641D01*
G36*
G01X00386Y03051D02*
G01X00441Y03051D01*
G01X00441Y02995D01*
G01X00386Y02995D01*
G01X00386Y03051D01*
G37*
G36*
G01X00386Y02969D02*
G01X00441Y02969D01*
G01X00441Y02914D01*
G01X00386Y02914D01*
G01X00386Y02969D01*
G37*
G36*
G01X00465Y03077D02*
G01X00654Y03077D01*
G01X00654Y02888D01*
G01X00465Y02888D01*
G01X00465Y03077D01*
G37*
G54D13*
G01X01065Y04568D02*
G01X01065Y04535D01*
G01X01091Y04568D02*
G01X01091Y04535D01*
G01X01117Y04568D02*
G01X01117Y04535D01*
G01X01142Y04568D02*
G01X01142Y04535D01*
G01X01168Y04568D02*
G01X01168Y04535D01*
G01X01193Y04568D02*
G01X01193Y04535D01*
G01X01219Y04568D02*
G01X01219Y04535D01*
G01X01245Y04568D02*
G01X01245Y04535D01*
G01X01270Y04568D02*
G01X01270Y04535D01*
G01X01296Y04568D02*
G01X01296Y04535D01*
G01X01321Y04568D02*
G01X01321Y04535D01*
G01X01347Y04568D02*
G01X01347Y04535D01*
G01X01372Y04568D02*
G01X01372Y04535D01*
G01X01398Y04568D02*
G01X01398Y04535D01*
G01X01424Y04568D02*
G01X01424Y04535D01*
G01X01449Y04568D02*
G01X01449Y04535D01*
G01X01475Y04568D02*
G01X01475Y04535D01*
G01X01500Y04568D02*
G01X01500Y04535D01*
G01X01526Y04568D02*
G01X01526Y04535D01*
G01X01526Y04864D02*
G01X01526Y04830D01*
G01X01500Y04864D02*
G01X01500Y04830D01*
G01X01475Y04864D02*
G01X01475Y04830D01*
G01X01449Y04864D02*
G01X01449Y04830D01*
G01X01424Y04864D02*
G01X01424Y04830D01*
G01X01398Y04864D02*
G01X01398Y04830D01*
G01X01372Y04864D02*
G01X01372Y04830D01*
G01X01347Y04864D02*
G01X01347Y04830D01*
G01X01321Y04864D02*
G01X01321Y04830D01*
G01X01296Y04864D02*
G01X01296Y04830D01*
G01X01270Y04864D02*
G01X01270Y04830D01*
G01X01245Y04864D02*
G01X01245Y04830D01*
G01X01219Y04864D02*
G01X01219Y04830D01*
G01X01193Y04864D02*
G01X01193Y04830D01*
G01X01168Y04864D02*
G01X01168Y04830D01*
G01X01142Y04864D02*
G01X01142Y04830D01*
G01X01117Y04864D02*
G01X01117Y04830D01*
G01X01091Y04864D02*
G01X01091Y04830D01*
G01X01065Y04864D02*
G01X01065Y04830D01*
G54D10*
G01X01151Y04493D02*
G01X01151Y04483D01*
G01X01093Y04493D02*
G01X01093Y04483D01*
G01X01535Y03676D02*
G01X01535Y03666D01*
G01X01477Y03676D02*
G01X01477Y03666D01*
G54D14*
G01X01496Y03888D02*
G01X01516Y03888D01*
G01X01496Y03814D02*
G01X01516Y03814D01*
G54D12*
G01X00387Y03293D02*
G01X00452Y03293D01*
G01X00387Y03243D02*
G01X00452Y03243D01*
G01X00387Y03193D02*
G01X00452Y03193D01*
G01X00387Y03143D02*
G01X00452Y03143D01*
G01X00592Y03143D02*
G01X00657Y03143D01*
G01X00592Y03193D02*
G01X00657Y03193D01*
G01X00592Y03243D02*
G01X00657Y03243D01*
G01X00592Y03293D02*
G01X00657Y03293D01*
G54D14*
G01X01496Y03580D02*
G01X01516Y03580D01*
G01X01496Y03506D02*
G01X01516Y03506D01*
G36*
G01X00732Y03062D02*
G01X00929Y03062D01*
G01X00929Y02865D01*
G01X00732Y02865D01*
G01X00732Y03062D01*
G37*
G36*
G01X01126Y03062D02*
G01X01322Y03062D01*
G01X01322Y02865D01*
G01X01126Y02865D01*
G01X01126Y03062D01*
G37*
G54D10*
G01X03425Y01383D02*
G01X03425Y01373D01*
G01X03367Y01383D02*
G01X03367Y01373D01*
G54D11*
G01X02676Y01789D02*
G01X02676Y01783D01*
G01X02754Y01789D02*
G01X02754Y01783D01*
G01X02715Y01871D02*
G01X02715Y01865D01*
G01X02754Y02040D02*
G01X02754Y02034D01*
G01X02676Y02040D02*
G01X02676Y02034D01*
G01X02715Y01958D02*
G01X02715Y01952D01*
G01X02682Y01322D02*
G01X02682Y01316D01*
G01X02604Y01322D02*
G01X02604Y01316D01*
G01X02643Y01240D02*
G01X02643Y01234D01*
G54D10*
G01X03367Y00832D02*
G01X03367Y00822D01*
G01X03425Y00832D02*
G01X03425Y00822D01*
G01X01944Y02321D02*
G01X01954Y02321D01*
G01X01944Y02262D02*
G01X01954Y02262D01*
G54D12*
G01X02482Y00043D02*
G01X02547Y00043D01*
G01X02482Y00093D02*
G01X02547Y00093D01*
G01X02482Y00143D02*
G01X02547Y00143D01*
G01X02482Y00193D02*
G01X02547Y00193D01*
G01X02277Y00193D02*
G01X02342Y00193D01*
G01X02277Y00143D02*
G01X02342Y00143D01*
G01X02277Y00093D02*
G01X02342Y00093D01*
G01X02277Y00043D02*
G01X02342Y00043D01*
G36*
G01X02276Y00452D02*
G01X02331Y00452D01*
G01X02331Y00397D01*
G01X02276Y00397D01*
G01X02276Y00452D01*
G37*
G36*
G01X02276Y00370D02*
G01X02331Y00370D01*
G01X02331Y00315D01*
G01X02276Y00315D01*
G01X02276Y00370D01*
G37*
G36*
G01X02355Y00478D02*
G01X02544Y00478D01*
G01X02544Y00289D01*
G01X02355Y00289D01*
G01X02355Y00478D01*
G37*
G54D13*
G01X02956Y01970D02*
G01X02956Y01937D01*
G01X02981Y01970D02*
G01X02981Y01937D01*
G01X03007Y01970D02*
G01X03007Y01937D01*
G01X03032Y01970D02*
G01X03032Y01937D01*
G01X03058Y01970D02*
G01X03058Y01937D01*
G01X03084Y01970D02*
G01X03084Y01937D01*
G01X03109Y01970D02*
G01X03109Y01937D01*
G01X03135Y01970D02*
G01X03135Y01937D01*
G01X03160Y01970D02*
G01X03160Y01937D01*
G01X03186Y01970D02*
G01X03186Y01937D01*
G01X03211Y01970D02*
G01X03211Y01937D01*
G01X03237Y01970D02*
G01X03237Y01937D01*
G01X03263Y01970D02*
G01X03263Y01937D01*
G01X03288Y01970D02*
G01X03288Y01937D01*
G01X03314Y01970D02*
G01X03314Y01937D01*
G01X03339Y01970D02*
G01X03339Y01937D01*
G01X03365Y01970D02*
G01X03365Y01937D01*
G01X03391Y01970D02*
G01X03391Y01937D01*
G01X03416Y01970D02*
G01X03416Y01937D01*
G01X03416Y02266D02*
G01X03416Y02232D01*
G01X03391Y02266D02*
G01X03391Y02232D01*
G01X03365Y02266D02*
G01X03365Y02232D01*
G01X03339Y02266D02*
G01X03339Y02232D01*
G01X03314Y02266D02*
G01X03314Y02232D01*
G01X03288Y02266D02*
G01X03288Y02232D01*
G01X03263Y02266D02*
G01X03263Y02232D01*
G01X03237Y02266D02*
G01X03237Y02232D01*
G01X03211Y02266D02*
G01X03211Y02232D01*
G01X03186Y02266D02*
G01X03186Y02232D01*
G01X03160Y02266D02*
G01X03160Y02232D01*
G01X03135Y02266D02*
G01X03135Y02232D01*
G01X03109Y02266D02*
G01X03109Y02232D01*
G01X03084Y02266D02*
G01X03084Y02232D01*
G01X03058Y02266D02*
G01X03058Y02232D01*
G01X03032Y02266D02*
G01X03032Y02232D01*
G01X03007Y02266D02*
G01X03007Y02232D01*
G01X02981Y02266D02*
G01X02981Y02232D01*
G01X02956Y02266D02*
G01X02956Y02232D01*
G54D10*
G01X03041Y01895D02*
G01X03041Y01885D01*
G01X02983Y01895D02*
G01X02983Y01885D01*
G01X03425Y01078D02*
G01X03425Y01068D01*
G01X03367Y01078D02*
G01X03367Y01068D01*
G54D14*
G01X03386Y01289D02*
G01X03406Y01289D01*
G01X03386Y01215D02*
G01X03406Y01215D01*
G54D12*
G01X02277Y00695D02*
G01X02342Y00695D01*
G01X02277Y00645D02*
G01X02342Y00645D01*
G01X02277Y00595D02*
G01X02342Y00595D01*
G01X02277Y00545D02*
G01X02342Y00545D01*
G01X02482Y00545D02*
G01X02547Y00545D01*
G01X02482Y00595D02*
G01X02547Y00595D01*
G01X02482Y00645D02*
G01X02547Y00645D01*
G01X02482Y00695D02*
G01X02547Y00695D01*
G54D14*
G01X03386Y00982D02*
G01X03406Y00982D01*
G01X03386Y00908D02*
G01X03406Y00908D01*
G36*
G01X02622Y00464D02*
G01X02819Y00464D01*
G01X02819Y00267D01*
G01X02622Y00267D01*
G01X02622Y00464D01*
G37*
G36*
G01X03016Y00464D02*
G01X03213Y00464D01*
G01X03213Y00267D01*
G01X03016Y00267D01*
G01X03016Y00464D01*
G37*
G54D10*
G01X03425Y03981D02*
G01X03425Y03971D01*
G01X03367Y03981D02*
G01X03367Y03971D01*
G54D11*
G01X02676Y04387D02*
G01X02676Y04381D01*
G01X02754Y04387D02*
G01X02754Y04381D01*
G01X02715Y04469D02*
G01X02715Y04463D01*
G01X02754Y04638D02*
G01X02754Y04632D01*
G01X02676Y04638D02*
G01X02676Y04632D01*
G01X02715Y04556D02*
G01X02715Y04550D01*
G01X02682Y03920D02*
G01X02682Y03914D01*
G01X02604Y03920D02*
G01X02604Y03914D01*
G01X02643Y03838D02*
G01X02643Y03832D01*
G54D10*
G01X03367Y03430D02*
G01X03367Y03420D01*
G01X03425Y03430D02*
G01X03425Y03420D01*
G01X01944Y04919D02*
G01X01954Y04919D01*
G01X01944Y04860D02*
G01X01954Y04860D01*
G54D12*
G01X02482Y02641D02*
G01X02547Y02641D01*
G01X02482Y02691D02*
G01X02547Y02691D01*
G01X02482Y02741D02*
G01X02547Y02741D01*
G01X02482Y02791D02*
G01X02547Y02791D01*
G01X02277Y02791D02*
G01X02342Y02791D01*
G01X02277Y02741D02*
G01X02342Y02741D01*
G01X02277Y02691D02*
G01X02342Y02691D01*
G01X02277Y02641D02*
G01X02342Y02641D01*
G36*
G01X02276Y03051D02*
G01X02331Y03051D01*
G01X02331Y02995D01*
G01X02276Y02995D01*
G01X02276Y03051D01*
G37*
G36*
G01X02276Y02969D02*
G01X02331Y02969D01*
G01X02331Y02914D01*
G01X02276Y02914D01*
G01X02276Y02969D01*
G37*
G36*
G01X02355Y03077D02*
G01X02544Y03077D01*
G01X02544Y02888D01*
G01X02355Y02888D01*
G01X02355Y03077D01*
G37*
G54D13*
G01X02956Y04568D02*
G01X02956Y04535D01*
G01X02981Y04568D02*
G01X02981Y04535D01*
G01X03007Y04568D02*
G01X03007Y04535D01*
G01X03032Y04568D02*
G01X03032Y04535D01*
G01X03058Y04568D02*
G01X03058Y04535D01*
G01X03084Y04568D02*
G01X03084Y04535D01*
G01X03109Y04568D02*
G01X03109Y04535D01*
G01X03135Y04568D02*
G01X03135Y04535D01*
G01X03160Y04568D02*
G01X03160Y04535D01*
G01X03186Y04568D02*
G01X03186Y04535D01*
G01X03211Y04568D02*
G01X03211Y04535D01*
G01X03237Y04568D02*
G01X03237Y04535D01*
G01X03263Y04568D02*
G01X03263Y04535D01*
G01X03288Y04568D02*
G01X03288Y04535D01*
G01X03314Y04568D02*
G01X03314Y04535D01*
G01X03339Y04568D02*
G01X03339Y04535D01*
G01X03365Y04568D02*
G01X03365Y04535D01*
G01X03391Y04568D02*
G01X03391Y04535D01*
G01X03416Y04568D02*
G01X03416Y04535D01*
G01X03416Y04864D02*
G01X03416Y04830D01*
G01X03391Y04864D02*
G01X03391Y04830D01*
G01X03365Y04864D02*
G01X03365Y04830D01*
G01X03339Y04864D02*
G01X03339Y04830D01*
G01X03314Y04864D02*
G01X03314Y04830D01*
G01X03288Y04864D02*
G01X03288Y04830D01*
G01X03263Y04864D02*
G01X03263Y04830D01*
G01X03237Y04864D02*
G01X03237Y04830D01*
G01X03211Y04864D02*
G01X03211Y04830D01*
G01X03186Y04864D02*
G01X03186Y04830D01*
G01X03160Y04864D02*
G01X03160Y04830D01*
G01X03135Y04864D02*
G01X03135Y04830D01*
G01X03109Y04864D02*
G01X03109Y04830D01*
G01X03084Y04864D02*
G01X03084Y04830D01*
G01X03058Y04864D02*
G01X03058Y04830D01*
G01X03032Y04864D02*
G01X03032Y04830D01*
G01X03007Y04864D02*
G01X03007Y04830D01*
G01X02981Y04864D02*
G01X02981Y04830D01*
G01X02956Y04864D02*
G01X02956Y04830D01*
G54D10*
G01X03041Y04493D02*
G01X03041Y04483D01*
G01X02983Y04493D02*
G01X02983Y04483D01*
G01X03425Y03676D02*
G01X03425Y03666D01*
G01X03367Y03676D02*
G01X03367Y03666D01*
G54D14*
G01X03386Y03888D02*
G01X03406Y03888D01*
G01X03386Y03814D02*
G01X03406Y03814D01*
G54D12*
G01X02277Y03293D02*
G01X02342Y03293D01*
G01X02277Y03243D02*
G01X02342Y03243D01*
G01X02277Y03193D02*
G01X02342Y03193D01*
G01X02277Y03143D02*
G01X02342Y03143D01*
G01X02482Y03143D02*
G01X02547Y03143D01*
G01X02482Y03193D02*
G01X02547Y03193D01*
G01X02482Y03243D02*
G01X02547Y03243D01*
G01X02482Y03293D02*
G01X02547Y03293D01*
G54D14*
G01X03386Y03580D02*
G01X03406Y03580D01*
G01X03386Y03506D02*
G01X03406Y03506D01*
G36*
G01X02622Y03062D02*
G01X02819Y03062D01*
G01X02819Y02865D01*
G01X02622Y02865D01*
G01X02622Y03062D01*
G37*
G36*
G01X03016Y03062D02*
G01X03213Y03062D01*
G01X03213Y02865D01*
G01X03016Y02865D01*
G01X03016Y03062D01*
G37*
G54D10*
G01X05316Y01383D02*
G01X05316Y01373D01*
G01X05257Y01383D02*
G01X05257Y01373D01*
G54D11*
G01X04566Y01789D02*
G01X04566Y01783D01*
G01X04644Y01789D02*
G01X04644Y01783D01*
G01X04605Y01871D02*
G01X04605Y01865D01*
G01X04644Y02040D02*
G01X04644Y02034D01*
G01X04566Y02040D02*
G01X04566Y02034D01*
G01X04605Y01958D02*
G01X04605Y01952D01*
G01X04572Y01322D02*
G01X04572Y01316D01*
G01X04494Y01322D02*
G01X04494Y01316D01*
G01X04533Y01240D02*
G01X04533Y01234D01*
G54D10*
G01X05257Y00832D02*
G01X05257Y00822D01*
G01X05316Y00832D02*
G01X05316Y00822D01*
G01X03835Y02321D02*
G01X03844Y02321D01*
G01X03835Y02262D02*
G01X03844Y02262D01*
G54D12*
G01X04372Y00043D02*
G01X04437Y00043D01*
G01X04372Y00093D02*
G01X04437Y00093D01*
G01X04372Y00143D02*
G01X04437Y00143D01*
G01X04372Y00193D02*
G01X04437Y00193D01*
G01X04167Y00193D02*
G01X04232Y00193D01*
G01X04167Y00143D02*
G01X04232Y00143D01*
G01X04167Y00093D02*
G01X04232Y00093D01*
G01X04167Y00043D02*
G01X04232Y00043D01*
G36*
G01X04166Y00452D02*
G01X04221Y00452D01*
G01X04221Y00397D01*
G01X04166Y00397D01*
G01X04166Y00452D01*
G37*
G36*
G01X04166Y00370D02*
G01X04221Y00370D01*
G01X04221Y00315D01*
G01X04166Y00315D01*
G01X04166Y00370D01*
G37*
G36*
G01X04245Y00478D02*
G01X04434Y00478D01*
G01X04434Y00289D01*
G01X04245Y00289D01*
G01X04245Y00478D01*
G37*
G54D13*
G01X04846Y01970D02*
G01X04846Y01937D01*
G01X04871Y01970D02*
G01X04871Y01937D01*
G01X04897Y01970D02*
G01X04897Y01937D01*
G01X04923Y01970D02*
G01X04923Y01937D01*
G01X04948Y01970D02*
G01X04948Y01937D01*
G01X04974Y01970D02*
G01X04974Y01937D01*
G01X04999Y01970D02*
G01X04999Y01937D01*
G01X05025Y01970D02*
G01X05025Y01937D01*
G01X05051Y01970D02*
G01X05051Y01937D01*
G01X05076Y01970D02*
G01X05076Y01937D01*
G01X05102Y01970D02*
G01X05102Y01937D01*
G01X05127Y01970D02*
G01X05127Y01937D01*
G01X05153Y01970D02*
G01X05153Y01937D01*
G01X05178Y01970D02*
G01X05178Y01937D01*
G01X05204Y01970D02*
G01X05204Y01937D01*
G01X05230Y01970D02*
G01X05230Y01937D01*
G01X05255Y01970D02*
G01X05255Y01937D01*
G01X05281Y01970D02*
G01X05281Y01937D01*
G01X05306Y01970D02*
G01X05306Y01937D01*
G01X05306Y02266D02*
G01X05306Y02232D01*
G01X05281Y02266D02*
G01X05281Y02232D01*
G01X05255Y02266D02*
G01X05255Y02232D01*
G01X05230Y02266D02*
G01X05230Y02232D01*
G01X05204Y02266D02*
G01X05204Y02232D01*
G01X05178Y02266D02*
G01X05178Y02232D01*
G01X05153Y02266D02*
G01X05153Y02232D01*
G01X05127Y02266D02*
G01X05127Y02232D01*
G01X05102Y02266D02*
G01X05102Y02232D01*
G01X05076Y02266D02*
G01X05076Y02232D01*
G01X05051Y02266D02*
G01X05051Y02232D01*
G01X05025Y02266D02*
G01X05025Y02232D01*
G01X04999Y02266D02*
G01X04999Y02232D01*
G01X04974Y02266D02*
G01X04974Y02232D01*
G01X04948Y02266D02*
G01X04948Y02232D01*
G01X04923Y02266D02*
G01X04923Y02232D01*
G01X04897Y02266D02*
G01X04897Y02232D01*
G01X04871Y02266D02*
G01X04871Y02232D01*
G01X04846Y02266D02*
G01X04846Y02232D01*
G54D10*
G01X04931Y01895D02*
G01X04931Y01885D01*
G01X04873Y01895D02*
G01X04873Y01885D01*
G01X05316Y01078D02*
G01X05316Y01068D01*
G01X05257Y01078D02*
G01X05257Y01068D01*
G54D14*
G01X05276Y01289D02*
G01X05296Y01289D01*
G01X05276Y01215D02*
G01X05296Y01215D01*
G54D12*
G01X04167Y00695D02*
G01X04232Y00695D01*
G01X04167Y00645D02*
G01X04232Y00645D01*
G01X04167Y00595D02*
G01X04232Y00595D01*
G01X04167Y00545D02*
G01X04232Y00545D01*
G01X04372Y00545D02*
G01X04437Y00545D01*
G01X04372Y00595D02*
G01X04437Y00595D01*
G01X04372Y00645D02*
G01X04437Y00645D01*
G01X04372Y00695D02*
G01X04437Y00695D01*
G54D14*
G01X05276Y00982D02*
G01X05296Y00982D01*
G01X05276Y00908D02*
G01X05296Y00908D01*
G36*
G01X04512Y00464D02*
G01X04709Y00464D01*
G01X04709Y00267D01*
G01X04512Y00267D01*
G01X04512Y00464D01*
G37*
G36*
G01X04906Y00464D02*
G01X05103Y00464D01*
G01X05103Y00267D01*
G01X04906Y00267D01*
G01X04906Y00464D01*
G37*
G54D10*
G01X05316Y03981D02*
G01X05316Y03971D01*
G01X05257Y03981D02*
G01X05257Y03971D01*
G54D11*
G01X04566Y04387D02*
G01X04566Y04381D01*
G01X04644Y04387D02*
G01X04644Y04381D01*
G01X04605Y04469D02*
G01X04605Y04463D01*
G01X04644Y04638D02*
G01X04644Y04632D01*
G01X04566Y04638D02*
G01X04566Y04632D01*
G01X04605Y04556D02*
G01X04605Y04550D01*
G01X04572Y03920D02*
G01X04572Y03914D01*
G01X04494Y03920D02*
G01X04494Y03914D01*
G01X04533Y03838D02*
G01X04533Y03832D01*
G54D10*
G01X05257Y03430D02*
G01X05257Y03420D01*
G01X05316Y03430D02*
G01X05316Y03420D01*
G01X03835Y04919D02*
G01X03844Y04919D01*
G01X03835Y04860D02*
G01X03844Y04860D01*
G54D12*
G01X04372Y02641D02*
G01X04437Y02641D01*
G01X04372Y02691D02*
G01X04437Y02691D01*
G01X04372Y02741D02*
G01X04437Y02741D01*
G01X04372Y02791D02*
G01X04437Y02791D01*
G01X04167Y02791D02*
G01X04232Y02791D01*
G01X04167Y02741D02*
G01X04232Y02741D01*
G01X04167Y02691D02*
G01X04232Y02691D01*
G01X04167Y02641D02*
G01X04232Y02641D01*
G36*
G01X04166Y03051D02*
G01X04221Y03051D01*
G01X04221Y02995D01*
G01X04166Y02995D01*
G01X04166Y03051D01*
G37*
G36*
G01X04166Y02969D02*
G01X04221Y02969D01*
G01X04221Y02914D01*
G01X04166Y02914D01*
G01X04166Y02969D01*
G37*
G36*
G01X04245Y03077D02*
G01X04434Y03077D01*
G01X04434Y02888D01*
G01X04245Y02888D01*
G01X04245Y03077D01*
G37*
G54D13*
G01X04846Y04568D02*
G01X04846Y04535D01*
G01X04871Y04568D02*
G01X04871Y04535D01*
G01X04897Y04568D02*
G01X04897Y04535D01*
G01X04923Y04568D02*
G01X04923Y04535D01*
G01X04948Y04568D02*
G01X04948Y04535D01*
G01X04974Y04568D02*
G01X04974Y04535D01*
G01X04999Y04568D02*
G01X04999Y04535D01*
G01X05025Y04568D02*
G01X05025Y04535D01*
G01X05051Y04568D02*
G01X05051Y04535D01*
G01X05076Y04568D02*
G01X05076Y04535D01*
G01X05102Y04568D02*
G01X05102Y04535D01*
G01X05127Y04568D02*
G01X05127Y04535D01*
G01X05153Y04568D02*
G01X05153Y04535D01*
G01X05178Y04568D02*
G01X05178Y04535D01*
G01X05204Y04568D02*
G01X05204Y04535D01*
G01X05230Y04568D02*
G01X05230Y04535D01*
G01X05255Y04568D02*
G01X05255Y04535D01*
G01X05281Y04568D02*
G01X05281Y04535D01*
G01X05306Y04568D02*
G01X05306Y04535D01*
G01X05306Y04864D02*
G01X05306Y04830D01*
G01X05281Y04864D02*
G01X05281Y04830D01*
G01X05255Y04864D02*
G01X05255Y04830D01*
G01X05230Y04864D02*
G01X05230Y04830D01*
G01X05204Y04864D02*
G01X05204Y04830D01*
G01X05178Y04864D02*
G01X05178Y04830D01*
G01X05153Y04864D02*
G01X05153Y04830D01*
G01X05127Y04864D02*
G01X05127Y04830D01*
G01X05102Y04864D02*
G01X05102Y04830D01*
G01X05076Y04864D02*
G01X05076Y04830D01*
G01X05051Y04864D02*
G01X05051Y04830D01*
G01X05025Y04864D02*
G01X05025Y04830D01*
G01X04999Y04864D02*
G01X04999Y04830D01*
G01X04974Y04864D02*
G01X04974Y04830D01*
G01X04948Y04864D02*
G01X04948Y04830D01*
G01X04923Y04864D02*
G01X04923Y04830D01*
G01X04897Y04864D02*
G01X04897Y04830D01*
G01X04871Y04864D02*
G01X04871Y04830D01*
G01X04846Y04864D02*
G01X04846Y04830D01*
G54D10*
G01X04931Y04493D02*
G01X04931Y04483D01*
G01X04873Y04493D02*
G01X04873Y04483D01*
G01X05316Y03676D02*
G01X05316Y03666D01*
G01X05257Y03676D02*
G01X05257Y03666D01*
G54D14*
G01X05276Y03888D02*
G01X05296Y03888D01*
G01X05276Y03814D02*
G01X05296Y03814D01*
G54D12*
G01X04167Y03293D02*
G01X04232Y03293D01*
G01X04167Y03243D02*
G01X04232Y03243D01*
G01X04167Y03193D02*
G01X04232Y03193D01*
G01X04167Y03143D02*
G01X04232Y03143D01*
G01X04372Y03143D02*
G01X04437Y03143D01*
G01X04372Y03193D02*
G01X04437Y03193D01*
G01X04372Y03243D02*
G01X04437Y03243D01*
G01X04372Y03293D02*
G01X04437Y03293D01*
G54D14*
G01X05276Y03580D02*
G01X05296Y03580D01*
G01X05276Y03506D02*
G01X05296Y03506D01*
G36*
G01X04512Y03062D02*
G01X04709Y03062D01*
G01X04709Y02865D01*
G01X04512Y02865D01*
G01X04512Y03062D01*
G37*
G36*
G01X04906Y03062D02*
G01X05103Y03062D01*
G01X05103Y02865D01*
G01X04906Y02865D01*
G01X04906Y03062D01*
G37*
G54D16*
G01X-0236Y05196D03*
G01X05671Y05196D03*
G01X05671Y-0236D03*
M02*
