G04 This is an RS-274x file exported by *
G04 gerbv version 2.3.0 *
G04 More information is available about gerbv at *
G04 http://gerbv.sourceforge.net/ *
G04 --End of header info--*
%MOIN*%
%FSLAX23Y23*%
%IPPOS*%
G04 --Define apertures--*
%ADD10R,0.0689X0.0689*%
%ADD11R,0.0512X0.0512*%
%ADD12R,0.0283X0.0283*%
%ADD13R,0.0130X0.0130*%
%ADD14R,0.0340X0.0340*%
%ADD15R,0.0600X0.0600*%
%ADD16R,0.0560X0.0560*%
%ADD17R,0.1220X0.1220*%
%ADD18R,0.0530X0.0530*%
%ADD19R,0.0394X0.0394*%
%ADD20R,0.0290X0.0290*%
%ADD21R,0.0240X0.0240*%
%ADD22C,0.0394*%
%ADD23C,0.1240*%
G04 --Start main section--*
G54D10*
G01X01252Y00317D02*
G01X01252Y00281D01*
G01X01252Y00148D02*
G01X01252Y00112D01*
G54D11*
G01X01447Y00327D02*
G01X01447Y00272D01*
G01X01565Y00327D02*
G01X01565Y00272D01*
G54D12*
G01X01088Y01221D02*
G01X01097Y01221D01*
G01X01088Y01279D02*
G01X01097Y01279D01*
G01X01176Y02265D02*
G01X01186Y02265D01*
G01X01176Y02207D02*
G01X01186Y02207D01*
G01X01255Y01880D02*
G01X01265Y01880D01*
G01X01255Y01821D02*
G01X01265Y01821D01*
G01X01176Y01821D02*
G01X01186Y01821D01*
G01X01176Y01880D02*
G01X01186Y01880D01*
G01X00731Y02296D02*
G01X00731Y02286D01*
G01X00789Y02296D02*
G01X00789Y02286D01*
G01X01385Y01821D02*
G01X01395Y01821D01*
G01X01385Y01880D02*
G01X01395Y01880D01*
G54D13*
G01X01418Y02132D02*
G01X01464Y02132D01*
G01X01418Y02106D02*
G01X01464Y02106D01*
G01X01418Y02081D02*
G01X01464Y02081D01*
G01X01418Y02055D02*
G01X01464Y02055D01*
G01X01418Y02030D02*
G01X01464Y02030D01*
G01X01418Y02004D02*
G01X01464Y02004D01*
G01X01418Y01978D02*
G01X01464Y01978D01*
G01X01418Y01953D02*
G01X01464Y01953D01*
G01X01186Y01953D02*
G01X01232Y01953D01*
G01X01186Y01978D02*
G01X01232Y01978D01*
G01X01186Y02004D02*
G01X01232Y02004D01*
G01X01186Y02030D02*
G01X01232Y02030D01*
G01X01186Y02055D02*
G01X01232Y02055D01*
G01X01186Y02081D02*
G01X01232Y02081D01*
G01X01186Y02106D02*
G01X01232Y02106D01*
G01X01186Y02132D02*
G01X01232Y02132D01*
G54D12*
G01X01088Y00837D02*
G01X01097Y00837D01*
G01X01088Y00895D02*
G01X01097Y00895D01*
G01X01088Y01093D02*
G01X01097Y01093D01*
G01X01088Y01151D02*
G01X01097Y01151D01*
G01X01088Y01349D02*
G01X01097Y01349D01*
G01X01088Y01407D02*
G01X01097Y01407D01*
G01X01464Y01880D02*
G01X01473Y01880D01*
G01X01464Y01821D02*
G01X01473Y01821D01*
G01X01385Y02265D02*
G01X01395Y02265D01*
G01X01385Y02207D02*
G01X01395Y02207D01*
G54D11*
G01X00600Y01965D02*
G01X00600Y01941D01*
G01X00718Y01965D02*
G01X00718Y01941D01*
G54D12*
G01X00050Y01355D02*
G01X00050Y01346D01*
G01X00108Y01355D02*
G01X00108Y01346D01*
G01X00050Y02113D02*
G01X00060Y02113D01*
G01X00050Y02055D02*
G01X00060Y02055D01*
G01X00588Y01233D02*
G01X00597Y01233D01*
G01X00588Y01291D02*
G01X00597Y01291D01*
G01X00050Y01214D02*
G01X00050Y01204D01*
G01X00108Y01214D02*
G01X00108Y01204D01*
G01X00106Y01280D02*
G01X00106Y01271D01*
G01X00047Y01280D02*
G01X00047Y01271D01*
G01X00582Y00922D02*
G01X00582Y00912D01*
G01X00524Y00922D02*
G01X00524Y00912D01*
G01X00582Y00981D02*
G01X00582Y00972D01*
G01X00524Y00981D02*
G01X00524Y00972D01*
G01X00733Y00803D02*
G01X00743Y00803D01*
G01X00733Y00745D02*
G01X00743Y00745D01*
G01X00678Y00803D02*
G01X00688Y00803D01*
G01X00678Y00745D02*
G01X00688Y00745D01*
G01X00591Y01347D02*
G01X00591Y01338D01*
G01X00649Y01347D02*
G01X00649Y01338D01*
G01X00645Y01233D02*
G01X00654Y01233D01*
G01X00645Y01291D02*
G01X00654Y01291D01*
G01X00350Y01757D02*
G01X00350Y01747D01*
G01X00291Y01757D02*
G01X00291Y01747D01*
G54D14*
G01X00619Y00800D02*
G01X00625Y00800D01*
G01X00619Y00722D02*
G01X00625Y00722D01*
G01X00537Y00761D02*
G01X00543Y00761D01*
G54D12*
G01X01255Y02207D02*
G01X01265Y02207D01*
G01X01255Y02265D02*
G01X01265Y02265D01*
G54D15*
G01X00955Y00602D02*
G01X00955Y00560D01*
G01X01072Y00602D02*
G01X01072Y00560D01*
G54D12*
G01X01098Y00482D02*
G01X01107Y00482D01*
G01X01098Y00424D02*
G01X01107Y00424D01*
G54D11*
G01X00061Y01530D02*
G01X00069Y01530D01*
G01X00061Y01600D02*
G01X00069Y01600D01*
G54D16*
G01X00274Y01465D02*
G01X00340Y01465D01*
G01X00274Y01555D02*
G01X00340Y01555D01*
G01X00274Y01646D02*
G01X00340Y01646D01*
G54D17*
G01X00551Y01600D02*
G01X00551Y01510D01*
G54D18*
G01X00291Y00949D02*
G01X00291Y00917D01*
G01X00407Y00949D02*
G01X00407Y00917D01*
G01X00173Y01130D02*
G01X00173Y01098D01*
G01X00057Y01130D02*
G01X00057Y01098D01*
G54D19*
G01X00669Y00882D02*
G01X00689Y00882D01*
G01X00669Y00937D02*
G01X00689Y00937D01*
G01X00807Y00937D02*
G01X00827Y00937D01*
G01X00807Y00882D02*
G01X00827Y00882D01*
G54D14*
G01X00864Y01789D02*
G01X00864Y01783D01*
G01X00786Y01789D02*
G01X00786Y01783D01*
G01X00825Y01871D02*
G01X00825Y01865D01*
G54D13*
G01X00040Y01821D02*
G01X00086Y01821D01*
G01X00040Y01846D02*
G01X00086Y01846D01*
G01X00040Y01872D02*
G01X00086Y01872D01*
G01X00040Y01898D02*
G01X00086Y01898D01*
G01X00040Y01923D02*
G01X00086Y01923D01*
G01X00040Y01949D02*
G01X00086Y01949D01*
G01X00040Y01974D02*
G01X00086Y01974D01*
G01X00040Y02000D02*
G01X00086Y02000D01*
G01X00272Y02000D02*
G01X00318Y02000D01*
G01X00272Y01974D02*
G01X00318Y01974D01*
G01X00272Y01949D02*
G01X00318Y01949D01*
G01X00272Y01923D02*
G01X00318Y01923D01*
G01X00272Y01898D02*
G01X00318Y01898D01*
G01X00272Y01872D02*
G01X00318Y01872D01*
G01X00272Y01846D02*
G01X00318Y01846D01*
G01X00272Y01821D02*
G01X00318Y01821D01*
G54D12*
G01X00399Y00385D02*
G01X00408Y00385D01*
G01X00399Y00443D02*
G01X00408Y00443D01*
G01X01098Y02265D02*
G01X01107Y02265D01*
G01X01098Y02207D02*
G01X01107Y02207D01*
G54D11*
G01X00600Y01758D02*
G01X00600Y01734D01*
G01X00718Y01758D02*
G01X00718Y01734D01*
G01X00600Y02063D02*
G01X00600Y02039D01*
G01X00718Y02063D02*
G01X00718Y02039D01*
G54D12*
G01X01011Y00454D02*
G01X01021Y00454D01*
G01X01011Y00396D02*
G01X01021Y00396D01*
G01X00944Y00336D02*
G01X00954Y00336D01*
G01X00944Y00278D02*
G01X00954Y00278D01*
G01X00944Y00454D02*
G01X00954Y00454D01*
G01X00944Y00396D02*
G01X00954Y00396D01*
G54D11*
G01X00061Y00443D02*
G01X00116Y00443D01*
G01X00061Y00561D02*
G01X00116Y00561D01*
G54D20*
G01X00783Y00220D02*
G01X00789Y00220D01*
G01X00783Y00271D02*
G01X00789Y00271D01*
G01X00853Y00246D02*
G01X00859Y00246D01*
G54D12*
G01X00790Y00162D02*
G01X00790Y00153D01*
G01X00848Y00162D02*
G01X00848Y00153D01*
G01X01464Y02207D02*
G01X01473Y02207D01*
G01X01464Y02265D02*
G01X01473Y02265D01*
G01X01088Y01477D02*
G01X01097Y01477D01*
G01X01088Y01535D02*
G01X01097Y01535D01*
G54D14*
G01X00652Y01085D02*
G01X00652Y01079D01*
G01X00574Y01085D02*
G01X00574Y01079D01*
G01X00613Y01167D02*
G01X00613Y01161D01*
G54D12*
G01X00468Y00385D02*
G01X00477Y00385D01*
G01X00468Y00443D02*
G01X00477Y00443D01*
G01X00556Y00385D02*
G01X00566Y00385D01*
G01X00556Y00443D02*
G01X00566Y00443D01*
G54D13*
G01X00812Y00442D02*
G01X00858Y00442D01*
G01X00812Y00417D02*
G01X00858Y00417D01*
G01X00812Y00391D02*
G01X00858Y00391D01*
G01X00812Y00366D02*
G01X00858Y00366D01*
G01X00635Y00366D02*
G01X00681Y00366D01*
G01X00635Y00391D02*
G01X00681Y00391D01*
G01X00635Y00417D02*
G01X00681Y00417D01*
G01X00635Y00442D02*
G01X00681Y00442D01*
G54D11*
G01X00061Y00325D02*
G01X00116Y00325D01*
G01X00061Y00207D02*
G01X00116Y00207D01*
G01X01447Y00465D02*
G01X01447Y00409D01*
G01X01565Y00465D02*
G01X01565Y00409D01*
G54D12*
G01X01088Y00709D02*
G01X01097Y00709D01*
G01X01088Y00767D02*
G01X01097Y00767D01*
G01X01088Y00965D02*
G01X01097Y00965D01*
G01X01088Y01023D02*
G01X01097Y01023D01*
G01X01088Y01607D02*
G01X01097Y01607D01*
G01X01088Y01665D02*
G01X01097Y01665D01*
G54D14*
G01X00786Y02040D02*
G01X00786Y02034D01*
G01X00864Y02040D02*
G01X00864Y02034D01*
G01X00825Y01958D02*
G01X00825Y01952D01*
G54D21*
G01X00283Y01282D02*
G01X00299Y01282D01*
G01X00283Y01243D02*
G01X00299Y01243D01*
G01X00283Y01204D02*
G01X00299Y01204D01*
G01X00201Y01204D02*
G01X00217Y01204D01*
G01X00201Y01243D02*
G01X00217Y01243D01*
G01X00201Y01282D02*
G01X00217Y01282D01*
G54D14*
G01X00713Y01322D02*
G01X00713Y01316D01*
G01X00791Y01322D02*
G01X00791Y01316D01*
G01X00752Y01240D02*
G01X00752Y01234D01*
G54D11*
G01X00600Y01850D02*
G01X00600Y01827D01*
G01X00718Y01850D02*
G01X00718Y01827D01*
G54D12*
G01X00602Y02296D02*
G01X00602Y02286D01*
G01X00661Y02296D02*
G01X00661Y02286D01*
G54D10*
G01X01252Y02915D02*
G01X01252Y02880D01*
G01X01252Y02746D02*
G01X01252Y02710D01*
G54D11*
G01X01447Y02925D02*
G01X01447Y02870D01*
G01X01565Y02925D02*
G01X01565Y02870D01*
G54D12*
G01X01088Y03819D02*
G01X01097Y03819D01*
G01X01088Y03877D02*
G01X01097Y03877D01*
G01X01176Y04864D02*
G01X01186Y04864D01*
G01X01176Y04805D02*
G01X01186Y04805D01*
G01X01255Y04478D02*
G01X01265Y04478D01*
G01X01255Y04419D02*
G01X01265Y04419D01*
G01X01176Y04419D02*
G01X01186Y04419D01*
G01X01176Y04478D02*
G01X01186Y04478D01*
G01X00731Y04894D02*
G01X00731Y04885D01*
G01X00789Y04894D02*
G01X00789Y04885D01*
G01X01385Y04419D02*
G01X01395Y04419D01*
G01X01385Y04478D02*
G01X01395Y04478D01*
G54D13*
G01X01418Y04730D02*
G01X01464Y04730D01*
G01X01418Y04705D02*
G01X01464Y04705D01*
G01X01418Y04679D02*
G01X01464Y04679D01*
G01X01418Y04653D02*
G01X01464Y04653D01*
G01X01418Y04628D02*
G01X01464Y04628D01*
G01X01418Y04602D02*
G01X01464Y04602D01*
G01X01418Y04577D02*
G01X01464Y04577D01*
G01X01418Y04551D02*
G01X01464Y04551D01*
G01X01186Y04551D02*
G01X01232Y04551D01*
G01X01186Y04577D02*
G01X01232Y04577D01*
G01X01186Y04602D02*
G01X01232Y04602D01*
G01X01186Y04628D02*
G01X01232Y04628D01*
G01X01186Y04653D02*
G01X01232Y04653D01*
G01X01186Y04679D02*
G01X01232Y04679D01*
G01X01186Y04705D02*
G01X01232Y04705D01*
G01X01186Y04730D02*
G01X01232Y04730D01*
G54D12*
G01X01088Y03435D02*
G01X01097Y03435D01*
G01X01088Y03494D02*
G01X01097Y03494D01*
G01X01088Y03691D02*
G01X01097Y03691D01*
G01X01088Y03749D02*
G01X01097Y03749D01*
G01X01088Y03947D02*
G01X01097Y03947D01*
G01X01088Y04005D02*
G01X01097Y04005D01*
G01X01464Y04478D02*
G01X01473Y04478D01*
G01X01464Y04419D02*
G01X01473Y04419D01*
G01X01385Y04864D02*
G01X01395Y04864D01*
G01X01385Y04805D02*
G01X01395Y04805D01*
G54D11*
G01X00600Y04563D02*
G01X00600Y04539D01*
G01X00718Y04563D02*
G01X00718Y04539D01*
G54D12*
G01X00050Y03953D02*
G01X00050Y03944D01*
G01X00108Y03953D02*
G01X00108Y03944D01*
G01X00050Y04712D02*
G01X00060Y04712D01*
G01X00050Y04653D02*
G01X00060Y04653D01*
G01X00588Y03831D02*
G01X00597Y03831D01*
G01X00588Y03890D02*
G01X00597Y03890D01*
G01X00050Y03812D02*
G01X00050Y03802D01*
G01X00108Y03812D02*
G01X00108Y03802D01*
G01X00106Y03879D02*
G01X00106Y03869D01*
G01X00047Y03879D02*
G01X00047Y03869D01*
G01X00582Y03520D02*
G01X00582Y03511D01*
G01X00524Y03520D02*
G01X00524Y03511D01*
G01X00582Y03579D02*
G01X00582Y03570D01*
G01X00524Y03579D02*
G01X00524Y03570D01*
G01X00733Y03401D02*
G01X00743Y03401D01*
G01X00733Y03343D02*
G01X00743Y03343D01*
G01X00678Y03401D02*
G01X00688Y03401D01*
G01X00678Y03343D02*
G01X00688Y03343D01*
G01X00591Y03946D02*
G01X00591Y03936D01*
G01X00649Y03946D02*
G01X00649Y03936D01*
G01X00645Y03831D02*
G01X00654Y03831D01*
G01X00645Y03890D02*
G01X00654Y03890D01*
G01X00350Y04355D02*
G01X00350Y04345D01*
G01X00291Y04355D02*
G01X00291Y04345D01*
G54D14*
G01X00619Y03398D02*
G01X00625Y03398D01*
G01X00619Y03320D02*
G01X00625Y03320D01*
G01X00537Y03359D02*
G01X00543Y03359D01*
G54D12*
G01X01255Y04805D02*
G01X01265Y04805D01*
G01X01255Y04864D02*
G01X01265Y04864D01*
G54D15*
G01X00955Y03200D02*
G01X00955Y03158D01*
G01X01072Y03200D02*
G01X01072Y03158D01*
G54D12*
G01X01098Y03080D02*
G01X01107Y03080D01*
G01X01098Y03022D02*
G01X01107Y03022D01*
G54D11*
G01X00061Y04128D02*
G01X00069Y04128D01*
G01X00061Y04199D02*
G01X00069Y04199D01*
G54D16*
G01X00274Y04063D02*
G01X00340Y04063D01*
G01X00274Y04153D02*
G01X00340Y04153D01*
G01X00274Y04244D02*
G01X00340Y04244D01*
G54D17*
G01X00551Y04198D02*
G01X00551Y04108D01*
G54D18*
G01X00291Y03547D02*
G01X00291Y03515D01*
G01X00407Y03547D02*
G01X00407Y03515D01*
G01X00173Y03728D02*
G01X00173Y03696D01*
G01X00057Y03728D02*
G01X00057Y03696D01*
G54D19*
G01X00669Y03480D02*
G01X00689Y03480D01*
G01X00669Y03535D02*
G01X00689Y03535D01*
G01X00807Y03535D02*
G01X00827Y03535D01*
G01X00807Y03480D02*
G01X00827Y03480D01*
G54D14*
G01X00864Y04387D02*
G01X00864Y04381D01*
G01X00786Y04387D02*
G01X00786Y04381D01*
G01X00825Y04469D02*
G01X00825Y04463D01*
G54D13*
G01X00040Y04419D02*
G01X00086Y04419D01*
G01X00040Y04445D02*
G01X00086Y04445D01*
G01X00040Y04470D02*
G01X00086Y04470D01*
G01X00040Y04496D02*
G01X00086Y04496D01*
G01X00040Y04521D02*
G01X00086Y04521D01*
G01X00040Y04547D02*
G01X00086Y04547D01*
G01X00040Y04573D02*
G01X00086Y04573D01*
G01X00040Y04598D02*
G01X00086Y04598D01*
G01X00272Y04598D02*
G01X00318Y04598D01*
G01X00272Y04573D02*
G01X00318Y04573D01*
G01X00272Y04547D02*
G01X00318Y04547D01*
G01X00272Y04521D02*
G01X00318Y04521D01*
G01X00272Y04496D02*
G01X00318Y04496D01*
G01X00272Y04470D02*
G01X00318Y04470D01*
G01X00272Y04445D02*
G01X00318Y04445D01*
G01X00272Y04419D02*
G01X00318Y04419D01*
G54D12*
G01X00399Y02983D02*
G01X00408Y02983D01*
G01X00399Y03041D02*
G01X00408Y03041D01*
G01X01098Y04864D02*
G01X01107Y04864D01*
G01X01098Y04805D02*
G01X01107Y04805D01*
G54D11*
G01X00600Y04356D02*
G01X00600Y04332D01*
G01X00718Y04356D02*
G01X00718Y04332D01*
G01X00600Y04661D02*
G01X00600Y04638D01*
G01X00718Y04661D02*
G01X00718Y04638D01*
G54D12*
G01X01011Y03053D02*
G01X01021Y03053D01*
G01X01011Y02994D02*
G01X01021Y02994D01*
G01X00944Y02934D02*
G01X00954Y02934D01*
G01X00944Y02876D02*
G01X00954Y02876D01*
G01X00944Y03053D02*
G01X00954Y03053D01*
G01X00944Y02994D02*
G01X00954Y02994D01*
G54D11*
G01X00061Y03041D02*
G01X00116Y03041D01*
G01X00061Y03159D02*
G01X00116Y03159D01*
G54D20*
G01X00783Y02818D02*
G01X00789Y02818D01*
G01X00783Y02869D02*
G01X00789Y02869D01*
G01X00853Y02844D02*
G01X00859Y02844D01*
G54D12*
G01X00790Y02761D02*
G01X00790Y02751D01*
G01X00848Y02761D02*
G01X00848Y02751D01*
G01X01464Y04805D02*
G01X01473Y04805D01*
G01X01464Y04864D02*
G01X01473Y04864D01*
G01X01088Y04075D02*
G01X01097Y04075D01*
G01X01088Y04133D02*
G01X01097Y04133D01*
G54D14*
G01X00652Y03683D02*
G01X00652Y03677D01*
G01X00574Y03683D02*
G01X00574Y03677D01*
G01X00613Y03765D02*
G01X00613Y03759D01*
G54D12*
G01X00468Y02983D02*
G01X00477Y02983D01*
G01X00468Y03041D02*
G01X00477Y03041D01*
G01X00556Y02983D02*
G01X00566Y02983D01*
G01X00556Y03041D02*
G01X00566Y03041D01*
G54D13*
G01X00812Y03041D02*
G01X00858Y03041D01*
G01X00812Y03015D02*
G01X00858Y03015D01*
G01X00812Y02989D02*
G01X00858Y02989D01*
G01X00812Y02964D02*
G01X00858Y02964D01*
G01X00635Y02964D02*
G01X00681Y02964D01*
G01X00635Y02989D02*
G01X00681Y02989D01*
G01X00635Y03015D02*
G01X00681Y03015D01*
G01X00635Y03041D02*
G01X00681Y03041D01*
G54D11*
G01X00061Y02923D02*
G01X00116Y02923D01*
G01X00061Y02805D02*
G01X00116Y02805D01*
G01X01447Y03063D02*
G01X01447Y03008D01*
G01X01565Y03063D02*
G01X01565Y03008D01*
G54D12*
G01X01088Y03307D02*
G01X01097Y03307D01*
G01X01088Y03366D02*
G01X01097Y03366D01*
G01X01088Y03563D02*
G01X01097Y03563D01*
G01X01088Y03621D02*
G01X01097Y03621D01*
G01X01088Y04205D02*
G01X01097Y04205D01*
G01X01088Y04263D02*
G01X01097Y04263D01*
G54D14*
G01X00786Y04638D02*
G01X00786Y04632D01*
G01X00864Y04638D02*
G01X00864Y04632D01*
G01X00825Y04556D02*
G01X00825Y04550D01*
G54D21*
G01X00283Y03881D02*
G01X00299Y03881D01*
G01X00283Y03842D02*
G01X00299Y03842D01*
G01X00283Y03803D02*
G01X00299Y03803D01*
G01X00201Y03803D02*
G01X00217Y03803D01*
G01X00201Y03842D02*
G01X00217Y03842D01*
G01X00201Y03881D02*
G01X00217Y03881D01*
G54D14*
G01X00713Y03920D02*
G01X00713Y03914D01*
G01X00791Y03920D02*
G01X00791Y03914D01*
G01X00752Y03838D02*
G01X00752Y03832D01*
G54D11*
G01X00600Y04449D02*
G01X00600Y04425D01*
G01X00718Y04449D02*
G01X00718Y04425D01*
G54D12*
G01X00602Y04894D02*
G01X00602Y04885D01*
G01X00661Y04894D02*
G01X00661Y04885D01*
G54D10*
G01X03142Y00317D02*
G01X03142Y00281D01*
G01X03142Y00148D02*
G01X03142Y00112D01*
G54D11*
G01X03337Y00327D02*
G01X03337Y00272D01*
G01X03455Y00327D02*
G01X03455Y00272D01*
G54D12*
G01X02978Y01221D02*
G01X02988Y01221D01*
G01X02978Y01279D02*
G01X02988Y01279D01*
G01X03066Y02265D02*
G01X03076Y02265D01*
G01X03066Y02207D02*
G01X03076Y02207D01*
G01X03145Y01880D02*
G01X03155Y01880D01*
G01X03145Y01821D02*
G01X03155Y01821D01*
G01X03066Y01821D02*
G01X03076Y01821D01*
G01X03066Y01880D02*
G01X03076Y01880D01*
G01X02621Y02296D02*
G01X02621Y02286D01*
G01X02679Y02296D02*
G01X02679Y02286D01*
G01X03275Y01821D02*
G01X03285Y01821D01*
G01X03275Y01880D02*
G01X03285Y01880D01*
G54D13*
G01X03308Y02132D02*
G01X03354Y02132D01*
G01X03308Y02106D02*
G01X03354Y02106D01*
G01X03308Y02081D02*
G01X03354Y02081D01*
G01X03308Y02055D02*
G01X03354Y02055D01*
G01X03308Y02030D02*
G01X03354Y02030D01*
G01X03308Y02004D02*
G01X03354Y02004D01*
G01X03308Y01978D02*
G01X03354Y01978D01*
G01X03308Y01953D02*
G01X03354Y01953D01*
G01X03076Y01953D02*
G01X03122Y01953D01*
G01X03076Y01978D02*
G01X03122Y01978D01*
G01X03076Y02004D02*
G01X03122Y02004D01*
G01X03076Y02030D02*
G01X03122Y02030D01*
G01X03076Y02055D02*
G01X03122Y02055D01*
G01X03076Y02081D02*
G01X03122Y02081D01*
G01X03076Y02106D02*
G01X03122Y02106D01*
G01X03076Y02132D02*
G01X03122Y02132D01*
G54D12*
G01X02978Y00837D02*
G01X02988Y00837D01*
G01X02978Y00895D02*
G01X02988Y00895D01*
G01X02978Y01093D02*
G01X02988Y01093D01*
G01X02978Y01151D02*
G01X02988Y01151D01*
G01X02978Y01349D02*
G01X02988Y01349D01*
G01X02978Y01407D02*
G01X02988Y01407D01*
G01X03354Y01880D02*
G01X03364Y01880D01*
G01X03354Y01821D02*
G01X03364Y01821D01*
G01X03275Y02265D02*
G01X03285Y02265D01*
G01X03275Y02207D02*
G01X03285Y02207D01*
G54D11*
G01X02491Y01965D02*
G01X02491Y01941D01*
G01X02609Y01965D02*
G01X02609Y01941D01*
G54D12*
G01X01940Y01355D02*
G01X01940Y01346D01*
G01X01998Y01355D02*
G01X01998Y01346D01*
G01X01940Y02113D02*
G01X01950Y02113D01*
G01X01940Y02055D02*
G01X01950Y02055D01*
G01X02478Y01233D02*
G01X02488Y01233D01*
G01X02478Y01291D02*
G01X02488Y01291D01*
G01X01940Y01214D02*
G01X01940Y01204D01*
G01X01998Y01214D02*
G01X01998Y01204D01*
G01X01996Y01280D02*
G01X01996Y01271D01*
G01X01937Y01280D02*
G01X01937Y01271D01*
G01X02472Y00922D02*
G01X02472Y00912D01*
G01X02414Y00922D02*
G01X02414Y00912D01*
G01X02472Y00981D02*
G01X02472Y00972D01*
G01X02414Y00981D02*
G01X02414Y00972D01*
G01X02624Y00803D02*
G01X02633Y00803D01*
G01X02624Y00745D02*
G01X02633Y00745D01*
G01X02568Y00803D02*
G01X02578Y00803D01*
G01X02568Y00745D02*
G01X02578Y00745D01*
G01X02481Y01347D02*
G01X02481Y01338D01*
G01X02539Y01347D02*
G01X02539Y01338D01*
G01X02535Y01233D02*
G01X02545Y01233D01*
G01X02535Y01291D02*
G01X02545Y01291D01*
G01X02240Y01757D02*
G01X02240Y01747D01*
G01X02182Y01757D02*
G01X02182Y01747D01*
G54D14*
G01X02509Y00800D02*
G01X02515Y00800D01*
G01X02509Y00722D02*
G01X02515Y00722D01*
G01X02427Y00761D02*
G01X02433Y00761D01*
G54D12*
G01X03145Y02207D02*
G01X03155Y02207D01*
G01X03145Y02265D02*
G01X03155Y02265D01*
G54D15*
G01X02845Y00602D02*
G01X02845Y00560D01*
G01X02963Y00602D02*
G01X02963Y00560D01*
G54D12*
G01X02988Y00482D02*
G01X02997Y00482D01*
G01X02988Y00424D02*
G01X02997Y00424D01*
G54D11*
G01X01951Y01530D02*
G01X01959Y01530D01*
G01X01951Y01600D02*
G01X01959Y01600D01*
G54D16*
G01X02164Y01465D02*
G01X02230Y01465D01*
G01X02164Y01555D02*
G01X02230Y01555D01*
G01X02164Y01646D02*
G01X02230Y01646D01*
G54D17*
G01X02441Y01600D02*
G01X02441Y01510D01*
G54D18*
G01X02182Y00949D02*
G01X02182Y00917D01*
G01X02298Y00949D02*
G01X02298Y00917D01*
G01X02063Y01130D02*
G01X02063Y01098D01*
G01X01947Y01130D02*
G01X01947Y01098D01*
G54D19*
G01X02560Y00882D02*
G01X02579Y00882D01*
G01X02560Y00937D02*
G01X02579Y00937D01*
G01X02697Y00937D02*
G01X02717Y00937D01*
G01X02697Y00882D02*
G01X02717Y00882D01*
G54D14*
G01X02754Y01789D02*
G01X02754Y01783D01*
G01X02676Y01789D02*
G01X02676Y01783D01*
G01X02715Y01871D02*
G01X02715Y01865D01*
G54D13*
G01X01930Y01821D02*
G01X01976Y01821D01*
G01X01930Y01846D02*
G01X01976Y01846D01*
G01X01930Y01872D02*
G01X01976Y01872D01*
G01X01930Y01898D02*
G01X01976Y01898D01*
G01X01930Y01923D02*
G01X01976Y01923D01*
G01X01930Y01949D02*
G01X01976Y01949D01*
G01X01930Y01974D02*
G01X01976Y01974D01*
G01X01930Y02000D02*
G01X01976Y02000D01*
G01X02162Y02000D02*
G01X02209Y02000D01*
G01X02162Y01974D02*
G01X02209Y01974D01*
G01X02162Y01949D02*
G01X02209Y01949D01*
G01X02162Y01923D02*
G01X02209Y01923D01*
G01X02162Y01898D02*
G01X02209Y01898D01*
G01X02162Y01872D02*
G01X02209Y01872D01*
G01X02162Y01846D02*
G01X02209Y01846D01*
G01X02162Y01821D02*
G01X02209Y01821D01*
G54D12*
G01X02289Y00385D02*
G01X02299Y00385D01*
G01X02289Y00443D02*
G01X02299Y00443D01*
G01X02988Y02265D02*
G01X02997Y02265D01*
G01X02988Y02207D02*
G01X02997Y02207D01*
G54D11*
G01X02491Y01758D02*
G01X02491Y01734D01*
G01X02609Y01758D02*
G01X02609Y01734D01*
G01X02491Y02063D02*
G01X02491Y02039D01*
G01X02609Y02063D02*
G01X02609Y02039D01*
G54D12*
G01X02901Y00454D02*
G01X02911Y00454D01*
G01X02901Y00396D02*
G01X02911Y00396D01*
G01X02834Y00336D02*
G01X02844Y00336D01*
G01X02834Y00278D02*
G01X02844Y00278D01*
G01X02834Y00454D02*
G01X02844Y00454D01*
G01X02834Y00396D02*
G01X02844Y00396D01*
G54D11*
G01X01951Y00443D02*
G01X02006Y00443D01*
G01X01951Y00561D02*
G01X02006Y00561D01*
G54D20*
G01X02674Y00220D02*
G01X02680Y00220D01*
G01X02674Y00271D02*
G01X02680Y00271D01*
G01X02744Y00246D02*
G01X02750Y00246D01*
G54D12*
G01X02680Y00162D02*
G01X02680Y00153D01*
G01X02738Y00162D02*
G01X02738Y00153D01*
G01X03354Y02207D02*
G01X03364Y02207D01*
G01X03354Y02265D02*
G01X03364Y02265D01*
G01X02978Y01477D02*
G01X02988Y01477D01*
G01X02978Y01535D02*
G01X02988Y01535D01*
G54D14*
G01X02543Y01085D02*
G01X02543Y01079D01*
G01X02465Y01085D02*
G01X02465Y01079D01*
G01X02504Y01167D02*
G01X02504Y01161D01*
G54D12*
G01X02358Y00385D02*
G01X02368Y00385D01*
G01X02358Y00443D02*
G01X02368Y00443D01*
G01X02446Y00385D02*
G01X02456Y00385D01*
G01X02446Y00443D02*
G01X02456Y00443D01*
G54D13*
G01X02702Y00442D02*
G01X02748Y00442D01*
G01X02702Y00417D02*
G01X02748Y00417D01*
G01X02702Y00391D02*
G01X02748Y00391D01*
G01X02702Y00366D02*
G01X02748Y00366D01*
G01X02525Y00366D02*
G01X02571Y00366D01*
G01X02525Y00391D02*
G01X02571Y00391D01*
G01X02525Y00417D02*
G01X02571Y00417D01*
G01X02525Y00442D02*
G01X02571Y00442D01*
G54D11*
G01X01951Y00325D02*
G01X02006Y00325D01*
G01X01951Y00207D02*
G01X02006Y00207D01*
G01X03337Y00465D02*
G01X03337Y00409D01*
G01X03455Y00465D02*
G01X03455Y00409D01*
G54D12*
G01X02978Y00709D02*
G01X02988Y00709D01*
G01X02978Y00767D02*
G01X02988Y00767D01*
G01X02978Y00965D02*
G01X02988Y00965D01*
G01X02978Y01023D02*
G01X02988Y01023D01*
G01X02978Y01607D02*
G01X02988Y01607D01*
G01X02978Y01665D02*
G01X02988Y01665D01*
G54D14*
G01X02676Y02040D02*
G01X02676Y02034D01*
G01X02754Y02040D02*
G01X02754Y02034D01*
G01X02715Y01958D02*
G01X02715Y01952D01*
G54D21*
G01X02174Y01282D02*
G01X02190Y01282D01*
G01X02174Y01243D02*
G01X02190Y01243D01*
G01X02174Y01204D02*
G01X02190Y01204D01*
G01X02092Y01204D02*
G01X02108Y01204D01*
G01X02092Y01243D02*
G01X02108Y01243D01*
G01X02092Y01282D02*
G01X02108Y01282D01*
G54D14*
G01X02604Y01322D02*
G01X02604Y01316D01*
G01X02682Y01322D02*
G01X02682Y01316D01*
G01X02643Y01240D02*
G01X02643Y01234D01*
G54D11*
G01X02491Y01850D02*
G01X02491Y01827D01*
G01X02609Y01850D02*
G01X02609Y01827D01*
G54D12*
G01X02493Y02296D02*
G01X02493Y02286D01*
G01X02551Y02296D02*
G01X02551Y02286D01*
G54D10*
G01X03142Y02915D02*
G01X03142Y02880D01*
G01X03142Y02746D02*
G01X03142Y02710D01*
G54D11*
G01X03337Y02925D02*
G01X03337Y02870D01*
G01X03455Y02925D02*
G01X03455Y02870D01*
G54D12*
G01X02978Y03819D02*
G01X02988Y03819D01*
G01X02978Y03877D02*
G01X02988Y03877D01*
G01X03066Y04864D02*
G01X03076Y04864D01*
G01X03066Y04805D02*
G01X03076Y04805D01*
G01X03145Y04478D02*
G01X03155Y04478D01*
G01X03145Y04419D02*
G01X03155Y04419D01*
G01X03066Y04419D02*
G01X03076Y04419D01*
G01X03066Y04478D02*
G01X03076Y04478D01*
G01X02621Y04894D02*
G01X02621Y04885D01*
G01X02679Y04894D02*
G01X02679Y04885D01*
G01X03275Y04419D02*
G01X03285Y04419D01*
G01X03275Y04478D02*
G01X03285Y04478D01*
G54D13*
G01X03308Y04730D02*
G01X03354Y04730D01*
G01X03308Y04705D02*
G01X03354Y04705D01*
G01X03308Y04679D02*
G01X03354Y04679D01*
G01X03308Y04653D02*
G01X03354Y04653D01*
G01X03308Y04628D02*
G01X03354Y04628D01*
G01X03308Y04602D02*
G01X03354Y04602D01*
G01X03308Y04577D02*
G01X03354Y04577D01*
G01X03308Y04551D02*
G01X03354Y04551D01*
G01X03076Y04551D02*
G01X03122Y04551D01*
G01X03076Y04577D02*
G01X03122Y04577D01*
G01X03076Y04602D02*
G01X03122Y04602D01*
G01X03076Y04628D02*
G01X03122Y04628D01*
G01X03076Y04653D02*
G01X03122Y04653D01*
G01X03076Y04679D02*
G01X03122Y04679D01*
G01X03076Y04705D02*
G01X03122Y04705D01*
G01X03076Y04730D02*
G01X03122Y04730D01*
G54D12*
G01X02978Y03435D02*
G01X02988Y03435D01*
G01X02978Y03494D02*
G01X02988Y03494D01*
G01X02978Y03691D02*
G01X02988Y03691D01*
G01X02978Y03749D02*
G01X02988Y03749D01*
G01X02978Y03947D02*
G01X02988Y03947D01*
G01X02978Y04005D02*
G01X02988Y04005D01*
G01X03354Y04478D02*
G01X03364Y04478D01*
G01X03354Y04419D02*
G01X03364Y04419D01*
G01X03275Y04864D02*
G01X03285Y04864D01*
G01X03275Y04805D02*
G01X03285Y04805D01*
G54D11*
G01X02491Y04563D02*
G01X02491Y04539D01*
G01X02609Y04563D02*
G01X02609Y04539D01*
G54D12*
G01X01940Y03953D02*
G01X01940Y03944D01*
G01X01998Y03953D02*
G01X01998Y03944D01*
G01X01940Y04712D02*
G01X01950Y04712D01*
G01X01940Y04653D02*
G01X01950Y04653D01*
G01X02478Y03831D02*
G01X02488Y03831D01*
G01X02478Y03890D02*
G01X02488Y03890D01*
G01X01940Y03812D02*
G01X01940Y03802D01*
G01X01998Y03812D02*
G01X01998Y03802D01*
G01X01996Y03879D02*
G01X01996Y03869D01*
G01X01937Y03879D02*
G01X01937Y03869D01*
G01X02472Y03520D02*
G01X02472Y03511D01*
G01X02414Y03520D02*
G01X02414Y03511D01*
G01X02472Y03579D02*
G01X02472Y03570D01*
G01X02414Y03579D02*
G01X02414Y03570D01*
G01X02624Y03401D02*
G01X02633Y03401D01*
G01X02624Y03343D02*
G01X02633Y03343D01*
G01X02568Y03401D02*
G01X02578Y03401D01*
G01X02568Y03343D02*
G01X02578Y03343D01*
G01X02481Y03946D02*
G01X02481Y03936D01*
G01X02539Y03946D02*
G01X02539Y03936D01*
G01X02535Y03831D02*
G01X02545Y03831D01*
G01X02535Y03890D02*
G01X02545Y03890D01*
G01X02240Y04355D02*
G01X02240Y04345D01*
G01X02182Y04355D02*
G01X02182Y04345D01*
G54D14*
G01X02509Y03398D02*
G01X02515Y03398D01*
G01X02509Y03320D02*
G01X02515Y03320D01*
G01X02427Y03359D02*
G01X02433Y03359D01*
G54D12*
G01X03145Y04805D02*
G01X03155Y04805D01*
G01X03145Y04864D02*
G01X03155Y04864D01*
G54D15*
G01X02845Y03200D02*
G01X02845Y03158D01*
G01X02963Y03200D02*
G01X02963Y03158D01*
G54D12*
G01X02988Y03080D02*
G01X02997Y03080D01*
G01X02988Y03022D02*
G01X02997Y03022D01*
G54D11*
G01X01951Y04128D02*
G01X01959Y04128D01*
G01X01951Y04199D02*
G01X01959Y04199D01*
G54D16*
G01X02164Y04063D02*
G01X02230Y04063D01*
G01X02164Y04153D02*
G01X02230Y04153D01*
G01X02164Y04244D02*
G01X02230Y04244D01*
G54D17*
G01X02441Y04198D02*
G01X02441Y04108D01*
G54D18*
G01X02182Y03547D02*
G01X02182Y03515D01*
G01X02298Y03547D02*
G01X02298Y03515D01*
G01X02063Y03728D02*
G01X02063Y03696D01*
G01X01947Y03728D02*
G01X01947Y03696D01*
G54D19*
G01X02560Y03480D02*
G01X02579Y03480D01*
G01X02560Y03535D02*
G01X02579Y03535D01*
G01X02697Y03535D02*
G01X02717Y03535D01*
G01X02697Y03480D02*
G01X02717Y03480D01*
G54D14*
G01X02754Y04387D02*
G01X02754Y04381D01*
G01X02676Y04387D02*
G01X02676Y04381D01*
G01X02715Y04469D02*
G01X02715Y04463D01*
G54D13*
G01X01930Y04419D02*
G01X01976Y04419D01*
G01X01930Y04445D02*
G01X01976Y04445D01*
G01X01930Y04470D02*
G01X01976Y04470D01*
G01X01930Y04496D02*
G01X01976Y04496D01*
G01X01930Y04521D02*
G01X01976Y04521D01*
G01X01930Y04547D02*
G01X01976Y04547D01*
G01X01930Y04573D02*
G01X01976Y04573D01*
G01X01930Y04598D02*
G01X01976Y04598D01*
G01X02162Y04598D02*
G01X02209Y04598D01*
G01X02162Y04573D02*
G01X02209Y04573D01*
G01X02162Y04547D02*
G01X02209Y04547D01*
G01X02162Y04521D02*
G01X02209Y04521D01*
G01X02162Y04496D02*
G01X02209Y04496D01*
G01X02162Y04470D02*
G01X02209Y04470D01*
G01X02162Y04445D02*
G01X02209Y04445D01*
G01X02162Y04419D02*
G01X02209Y04419D01*
G54D12*
G01X02289Y02983D02*
G01X02299Y02983D01*
G01X02289Y03041D02*
G01X02299Y03041D01*
G01X02988Y04864D02*
G01X02997Y04864D01*
G01X02988Y04805D02*
G01X02997Y04805D01*
G54D11*
G01X02491Y04356D02*
G01X02491Y04332D01*
G01X02609Y04356D02*
G01X02609Y04332D01*
G01X02491Y04661D02*
G01X02491Y04638D01*
G01X02609Y04661D02*
G01X02609Y04638D01*
G54D12*
G01X02901Y03053D02*
G01X02911Y03053D01*
G01X02901Y02994D02*
G01X02911Y02994D01*
G01X02834Y02934D02*
G01X02844Y02934D01*
G01X02834Y02876D02*
G01X02844Y02876D01*
G01X02834Y03053D02*
G01X02844Y03053D01*
G01X02834Y02994D02*
G01X02844Y02994D01*
G54D11*
G01X01951Y03041D02*
G01X02006Y03041D01*
G01X01951Y03159D02*
G01X02006Y03159D01*
G54D20*
G01X02674Y02818D02*
G01X02680Y02818D01*
G01X02674Y02869D02*
G01X02680Y02869D01*
G01X02744Y02844D02*
G01X02750Y02844D01*
G54D12*
G01X02680Y02761D02*
G01X02680Y02751D01*
G01X02738Y02761D02*
G01X02738Y02751D01*
G01X03354Y04805D02*
G01X03364Y04805D01*
G01X03354Y04864D02*
G01X03364Y04864D01*
G01X02978Y04075D02*
G01X02988Y04075D01*
G01X02978Y04133D02*
G01X02988Y04133D01*
G54D14*
G01X02543Y03683D02*
G01X02543Y03677D01*
G01X02465Y03683D02*
G01X02465Y03677D01*
G01X02504Y03765D02*
G01X02504Y03759D01*
G54D12*
G01X02358Y02983D02*
G01X02368Y02983D01*
G01X02358Y03041D02*
G01X02368Y03041D01*
G01X02446Y02983D02*
G01X02456Y02983D01*
G01X02446Y03041D02*
G01X02456Y03041D01*
G54D13*
G01X02702Y03041D02*
G01X02748Y03041D01*
G01X02702Y03015D02*
G01X02748Y03015D01*
G01X02702Y02989D02*
G01X02748Y02989D01*
G01X02702Y02964D02*
G01X02748Y02964D01*
G01X02525Y02964D02*
G01X02571Y02964D01*
G01X02525Y02989D02*
G01X02571Y02989D01*
G01X02525Y03015D02*
G01X02571Y03015D01*
G01X02525Y03041D02*
G01X02571Y03041D01*
G54D11*
G01X01951Y02923D02*
G01X02006Y02923D01*
G01X01951Y02805D02*
G01X02006Y02805D01*
G01X03337Y03063D02*
G01X03337Y03008D01*
G01X03455Y03063D02*
G01X03455Y03008D01*
G54D12*
G01X02978Y03307D02*
G01X02988Y03307D01*
G01X02978Y03366D02*
G01X02988Y03366D01*
G01X02978Y03563D02*
G01X02988Y03563D01*
G01X02978Y03621D02*
G01X02988Y03621D01*
G01X02978Y04205D02*
G01X02988Y04205D01*
G01X02978Y04263D02*
G01X02988Y04263D01*
G54D14*
G01X02676Y04638D02*
G01X02676Y04632D01*
G01X02754Y04638D02*
G01X02754Y04632D01*
G01X02715Y04556D02*
G01X02715Y04550D01*
G54D21*
G01X02174Y03881D02*
G01X02190Y03881D01*
G01X02174Y03842D02*
G01X02190Y03842D01*
G01X02174Y03803D02*
G01X02190Y03803D01*
G01X02092Y03803D02*
G01X02108Y03803D01*
G01X02092Y03842D02*
G01X02108Y03842D01*
G01X02092Y03881D02*
G01X02108Y03881D01*
G54D14*
G01X02604Y03920D02*
G01X02604Y03914D01*
G01X02682Y03920D02*
G01X02682Y03914D01*
G01X02643Y03838D02*
G01X02643Y03832D01*
G54D11*
G01X02491Y04449D02*
G01X02491Y04425D01*
G01X02609Y04449D02*
G01X02609Y04425D01*
G54D12*
G01X02493Y04894D02*
G01X02493Y04885D01*
G01X02551Y04894D02*
G01X02551Y04885D01*
G54D10*
G01X05032Y00317D02*
G01X05032Y00281D01*
G01X05032Y00148D02*
G01X05032Y00112D01*
G54D11*
G01X05227Y00327D02*
G01X05227Y00272D01*
G01X05345Y00327D02*
G01X05345Y00272D01*
G54D12*
G01X04868Y01221D02*
G01X04878Y01221D01*
G01X04868Y01279D02*
G01X04878Y01279D01*
G01X04957Y02265D02*
G01X04966Y02265D01*
G01X04957Y02207D02*
G01X04966Y02207D01*
G01X05035Y01880D02*
G01X05045Y01880D01*
G01X05035Y01821D02*
G01X05045Y01821D01*
G01X04957Y01821D02*
G01X04966Y01821D01*
G01X04957Y01880D02*
G01X04966Y01880D01*
G01X04511Y02296D02*
G01X04511Y02286D01*
G01X04569Y02296D02*
G01X04569Y02286D01*
G01X05165Y01821D02*
G01X05175Y01821D01*
G01X05165Y01880D02*
G01X05175Y01880D01*
G54D13*
G01X05198Y02132D02*
G01X05244Y02132D01*
G01X05198Y02106D02*
G01X05244Y02106D01*
G01X05198Y02081D02*
G01X05244Y02081D01*
G01X05198Y02055D02*
G01X05244Y02055D01*
G01X05198Y02030D02*
G01X05244Y02030D01*
G01X05198Y02004D02*
G01X05244Y02004D01*
G01X05198Y01978D02*
G01X05244Y01978D01*
G01X05198Y01953D02*
G01X05244Y01953D01*
G01X04966Y01953D02*
G01X05012Y01953D01*
G01X04966Y01978D02*
G01X05012Y01978D01*
G01X04966Y02004D02*
G01X05012Y02004D01*
G01X04966Y02030D02*
G01X05012Y02030D01*
G01X04966Y02055D02*
G01X05012Y02055D01*
G01X04966Y02081D02*
G01X05012Y02081D01*
G01X04966Y02106D02*
G01X05012Y02106D01*
G01X04966Y02132D02*
G01X05012Y02132D01*
G54D12*
G01X04868Y00837D02*
G01X04878Y00837D01*
G01X04868Y00895D02*
G01X04878Y00895D01*
G01X04868Y01093D02*
G01X04878Y01093D01*
G01X04868Y01151D02*
G01X04878Y01151D01*
G01X04868Y01349D02*
G01X04878Y01349D01*
G01X04868Y01407D02*
G01X04878Y01407D01*
G01X05244Y01880D02*
G01X05254Y01880D01*
G01X05244Y01821D02*
G01X05254Y01821D01*
G01X05165Y02265D02*
G01X05175Y02265D01*
G01X05165Y02207D02*
G01X05175Y02207D01*
G54D11*
G01X04381Y01965D02*
G01X04381Y01941D01*
G01X04499Y01965D02*
G01X04499Y01941D01*
G54D12*
G01X03830Y01355D02*
G01X03830Y01346D01*
G01X03888Y01355D02*
G01X03888Y01346D01*
G01X03831Y02113D02*
G01X03840Y02113D01*
G01X03831Y02055D02*
G01X03840Y02055D01*
G01X04368Y01233D02*
G01X04378Y01233D01*
G01X04368Y01291D02*
G01X04378Y01291D01*
G01X03830Y01214D02*
G01X03830Y01204D01*
G01X03888Y01214D02*
G01X03888Y01204D01*
G01X03886Y01280D02*
G01X03886Y01271D01*
G01X03828Y01280D02*
G01X03828Y01271D01*
G01X04362Y00922D02*
G01X04362Y00912D01*
G01X04304Y00922D02*
G01X04304Y00912D01*
G01X04362Y00981D02*
G01X04362Y00972D01*
G01X04304Y00981D02*
G01X04304Y00972D01*
G01X04514Y00803D02*
G01X04523Y00803D01*
G01X04514Y00745D02*
G01X04523Y00745D01*
G01X04459Y00803D02*
G01X04468Y00803D01*
G01X04459Y00745D02*
G01X04468Y00745D01*
G01X04371Y01347D02*
G01X04371Y01338D01*
G01X04429Y01347D02*
G01X04429Y01338D01*
G01X04425Y01233D02*
G01X04435Y01233D01*
G01X04425Y01291D02*
G01X04435Y01291D01*
G01X04130Y01757D02*
G01X04130Y01747D01*
G01X04072Y01757D02*
G01X04072Y01747D01*
G54D14*
G01X04399Y00800D02*
G01X04405Y00800D01*
G01X04399Y00722D02*
G01X04405Y00722D01*
G01X04317Y00761D02*
G01X04323Y00761D01*
G54D12*
G01X05035Y02207D02*
G01X05045Y02207D01*
G01X05035Y02265D02*
G01X05045Y02265D01*
G54D15*
G01X04736Y00602D02*
G01X04736Y00560D01*
G01X04853Y00602D02*
G01X04853Y00560D01*
G54D12*
G01X04878Y00482D02*
G01X04888Y00482D01*
G01X04878Y00424D02*
G01X04888Y00424D01*
G54D11*
G01X03841Y01530D02*
G01X03849Y01530D01*
G01X03841Y01600D02*
G01X03849Y01600D01*
G54D16*
G01X04055Y01465D02*
G01X04121Y01465D01*
G01X04055Y01555D02*
G01X04121Y01555D01*
G01X04055Y01646D02*
G01X04121Y01646D01*
G54D17*
G01X04332Y01600D02*
G01X04332Y01510D01*
G54D18*
G01X04072Y00949D02*
G01X04072Y00917D01*
G01X04188Y00949D02*
G01X04188Y00917D01*
G01X03954Y01130D02*
G01X03954Y01098D01*
G01X03838Y01130D02*
G01X03838Y01098D01*
G54D19*
G01X04450Y00882D02*
G01X04469Y00882D01*
G01X04450Y00937D02*
G01X04469Y00937D01*
G01X04588Y00937D02*
G01X04607Y00937D01*
G01X04588Y00882D02*
G01X04607Y00882D01*
G54D14*
G01X04644Y01789D02*
G01X04644Y01783D01*
G01X04566Y01789D02*
G01X04566Y01783D01*
G01X04605Y01871D02*
G01X04605Y01865D01*
G54D13*
G01X03820Y01821D02*
G01X03866Y01821D01*
G01X03820Y01846D02*
G01X03866Y01846D01*
G01X03820Y01872D02*
G01X03866Y01872D01*
G01X03820Y01898D02*
G01X03866Y01898D01*
G01X03820Y01923D02*
G01X03866Y01923D01*
G01X03820Y01949D02*
G01X03866Y01949D01*
G01X03820Y01974D02*
G01X03866Y01974D01*
G01X03820Y02000D02*
G01X03866Y02000D01*
G01X04053Y02000D02*
G01X04099Y02000D01*
G01X04053Y01974D02*
G01X04099Y01974D01*
G01X04053Y01949D02*
G01X04099Y01949D01*
G01X04053Y01923D02*
G01X04099Y01923D01*
G01X04053Y01898D02*
G01X04099Y01898D01*
G01X04053Y01872D02*
G01X04099Y01872D01*
G01X04053Y01846D02*
G01X04099Y01846D01*
G01X04053Y01821D02*
G01X04099Y01821D01*
G54D12*
G01X04179Y00385D02*
G01X04189Y00385D01*
G01X04179Y00443D02*
G01X04189Y00443D01*
G01X04878Y02265D02*
G01X04888Y02265D01*
G01X04878Y02207D02*
G01X04888Y02207D01*
G54D11*
G01X04381Y01758D02*
G01X04381Y01734D01*
G01X04499Y01758D02*
G01X04499Y01734D01*
G01X04381Y02063D02*
G01X04381Y02039D01*
G01X04499Y02063D02*
G01X04499Y02039D01*
G54D12*
G01X04791Y00454D02*
G01X04801Y00454D01*
G01X04791Y00396D02*
G01X04801Y00396D01*
G01X04724Y00336D02*
G01X04734Y00336D01*
G01X04724Y00278D02*
G01X04734Y00278D01*
G01X04724Y00454D02*
G01X04734Y00454D01*
G01X04724Y00396D02*
G01X04734Y00396D01*
G54D11*
G01X03841Y00443D02*
G01X03897Y00443D01*
G01X03841Y00561D02*
G01X03897Y00561D01*
G54D20*
G01X04564Y00220D02*
G01X04570Y00220D01*
G01X04564Y00271D02*
G01X04570Y00271D01*
G01X04634Y00246D02*
G01X04640Y00246D01*
G54D12*
G01X04570Y00162D02*
G01X04570Y00153D01*
G01X04629Y00162D02*
G01X04629Y00153D01*
G01X05244Y02207D02*
G01X05254Y02207D01*
G01X05244Y02265D02*
G01X05254Y02265D01*
G01X04868Y01477D02*
G01X04878Y01477D01*
G01X04868Y01535D02*
G01X04878Y01535D01*
G54D14*
G01X04433Y01085D02*
G01X04433Y01079D01*
G01X04355Y01085D02*
G01X04355Y01079D01*
G01X04394Y01167D02*
G01X04394Y01161D01*
G54D12*
G01X04248Y00385D02*
G01X04258Y00385D01*
G01X04248Y00443D02*
G01X04258Y00443D01*
G01X04337Y00385D02*
G01X04346Y00385D01*
G01X04337Y00443D02*
G01X04346Y00443D01*
G54D13*
G01X04592Y00442D02*
G01X04639Y00442D01*
G01X04592Y00417D02*
G01X04639Y00417D01*
G01X04592Y00391D02*
G01X04639Y00391D01*
G01X04592Y00366D02*
G01X04639Y00366D01*
G01X04415Y00366D02*
G01X04461Y00366D01*
G01X04415Y00391D02*
G01X04461Y00391D01*
G01X04415Y00417D02*
G01X04461Y00417D01*
G01X04415Y00442D02*
G01X04461Y00442D01*
G54D11*
G01X03841Y00325D02*
G01X03897Y00325D01*
G01X03841Y00207D02*
G01X03897Y00207D01*
G01X05227Y00465D02*
G01X05227Y00409D01*
G01X05345Y00465D02*
G01X05345Y00409D01*
G54D12*
G01X04868Y00709D02*
G01X04878Y00709D01*
G01X04868Y00767D02*
G01X04878Y00767D01*
G01X04868Y00965D02*
G01X04878Y00965D01*
G01X04868Y01023D02*
G01X04878Y01023D01*
G01X04868Y01607D02*
G01X04878Y01607D01*
G01X04868Y01665D02*
G01X04878Y01665D01*
G54D14*
G01X04566Y02040D02*
G01X04566Y02034D01*
G01X04644Y02040D02*
G01X04644Y02034D01*
G01X04605Y01958D02*
G01X04605Y01952D01*
G54D21*
G01X04064Y01282D02*
G01X04080Y01282D01*
G01X04064Y01243D02*
G01X04080Y01243D01*
G01X04064Y01204D02*
G01X04080Y01204D01*
G01X03982Y01204D02*
G01X03998Y01204D01*
G01X03982Y01243D02*
G01X03998Y01243D01*
G01X03982Y01282D02*
G01X03998Y01282D01*
G54D14*
G01X04494Y01322D02*
G01X04494Y01316D01*
G01X04572Y01322D02*
G01X04572Y01316D01*
G01X04533Y01240D02*
G01X04533Y01234D01*
G54D11*
G01X04381Y01850D02*
G01X04381Y01827D01*
G01X04499Y01850D02*
G01X04499Y01827D01*
G54D12*
G01X04383Y02296D02*
G01X04383Y02286D01*
G01X04441Y02296D02*
G01X04441Y02286D01*
G54D10*
G01X05032Y02915D02*
G01X05032Y02880D01*
G01X05032Y02746D02*
G01X05032Y02710D01*
G54D11*
G01X05227Y02925D02*
G01X05227Y02870D01*
G01X05345Y02925D02*
G01X05345Y02870D01*
G54D12*
G01X04868Y03819D02*
G01X04878Y03819D01*
G01X04868Y03877D02*
G01X04878Y03877D01*
G01X04957Y04864D02*
G01X04966Y04864D01*
G01X04957Y04805D02*
G01X04966Y04805D01*
G01X05035Y04478D02*
G01X05045Y04478D01*
G01X05035Y04419D02*
G01X05045Y04419D01*
G01X04957Y04419D02*
G01X04966Y04419D01*
G01X04957Y04478D02*
G01X04966Y04478D01*
G01X04511Y04894D02*
G01X04511Y04885D01*
G01X04569Y04894D02*
G01X04569Y04885D01*
G01X05165Y04419D02*
G01X05175Y04419D01*
G01X05165Y04478D02*
G01X05175Y04478D01*
G54D13*
G01X05198Y04730D02*
G01X05244Y04730D01*
G01X05198Y04705D02*
G01X05244Y04705D01*
G01X05198Y04679D02*
G01X05244Y04679D01*
G01X05198Y04653D02*
G01X05244Y04653D01*
G01X05198Y04628D02*
G01X05244Y04628D01*
G01X05198Y04602D02*
G01X05244Y04602D01*
G01X05198Y04577D02*
G01X05244Y04577D01*
G01X05198Y04551D02*
G01X05244Y04551D01*
G01X04966Y04551D02*
G01X05012Y04551D01*
G01X04966Y04577D02*
G01X05012Y04577D01*
G01X04966Y04602D02*
G01X05012Y04602D01*
G01X04966Y04628D02*
G01X05012Y04628D01*
G01X04966Y04653D02*
G01X05012Y04653D01*
G01X04966Y04679D02*
G01X05012Y04679D01*
G01X04966Y04705D02*
G01X05012Y04705D01*
G01X04966Y04730D02*
G01X05012Y04730D01*
G54D12*
G01X04868Y03435D02*
G01X04878Y03435D01*
G01X04868Y03494D02*
G01X04878Y03494D01*
G01X04868Y03691D02*
G01X04878Y03691D01*
G01X04868Y03749D02*
G01X04878Y03749D01*
G01X04868Y03947D02*
G01X04878Y03947D01*
G01X04868Y04005D02*
G01X04878Y04005D01*
G01X05244Y04478D02*
G01X05254Y04478D01*
G01X05244Y04419D02*
G01X05254Y04419D01*
G01X05165Y04864D02*
G01X05175Y04864D01*
G01X05165Y04805D02*
G01X05175Y04805D01*
G54D11*
G01X04381Y04563D02*
G01X04381Y04539D01*
G01X04499Y04563D02*
G01X04499Y04539D01*
G54D12*
G01X03830Y03953D02*
G01X03830Y03944D01*
G01X03888Y03953D02*
G01X03888Y03944D01*
G01X03831Y04712D02*
G01X03840Y04712D01*
G01X03831Y04653D02*
G01X03840Y04653D01*
G01X04368Y03831D02*
G01X04378Y03831D01*
G01X04368Y03890D02*
G01X04378Y03890D01*
G01X03830Y03812D02*
G01X03830Y03802D01*
G01X03888Y03812D02*
G01X03888Y03802D01*
G01X03886Y03879D02*
G01X03886Y03869D01*
G01X03828Y03879D02*
G01X03828Y03869D01*
G01X04362Y03520D02*
G01X04362Y03511D01*
G01X04304Y03520D02*
G01X04304Y03511D01*
G01X04362Y03579D02*
G01X04362Y03570D01*
G01X04304Y03579D02*
G01X04304Y03570D01*
G01X04514Y03401D02*
G01X04523Y03401D01*
G01X04514Y03343D02*
G01X04523Y03343D01*
G01X04459Y03401D02*
G01X04468Y03401D01*
G01X04459Y03343D02*
G01X04468Y03343D01*
G01X04371Y03946D02*
G01X04371Y03936D01*
G01X04429Y03946D02*
G01X04429Y03936D01*
G01X04425Y03831D02*
G01X04435Y03831D01*
G01X04425Y03890D02*
G01X04435Y03890D01*
G01X04130Y04355D02*
G01X04130Y04345D01*
G01X04072Y04355D02*
G01X04072Y04345D01*
G54D14*
G01X04399Y03398D02*
G01X04405Y03398D01*
G01X04399Y03320D02*
G01X04405Y03320D01*
G01X04317Y03359D02*
G01X04323Y03359D01*
G54D12*
G01X05035Y04805D02*
G01X05045Y04805D01*
G01X05035Y04864D02*
G01X05045Y04864D01*
G54D15*
G01X04736Y03200D02*
G01X04736Y03158D01*
G01X04853Y03200D02*
G01X04853Y03158D01*
G54D12*
G01X04878Y03080D02*
G01X04888Y03080D01*
G01X04878Y03022D02*
G01X04888Y03022D01*
G54D11*
G01X03841Y04128D02*
G01X03849Y04128D01*
G01X03841Y04199D02*
G01X03849Y04199D01*
G54D16*
G01X04055Y04063D02*
G01X04121Y04063D01*
G01X04055Y04153D02*
G01X04121Y04153D01*
G01X04055Y04244D02*
G01X04121Y04244D01*
G54D17*
G01X04332Y04198D02*
G01X04332Y04108D01*
G54D18*
G01X04072Y03547D02*
G01X04072Y03515D01*
G01X04188Y03547D02*
G01X04188Y03515D01*
G01X03954Y03728D02*
G01X03954Y03696D01*
G01X03838Y03728D02*
G01X03838Y03696D01*
G54D19*
G01X04450Y03480D02*
G01X04469Y03480D01*
G01X04450Y03535D02*
G01X04469Y03535D01*
G01X04588Y03535D02*
G01X04607Y03535D01*
G01X04588Y03480D02*
G01X04607Y03480D01*
G54D14*
G01X04644Y04387D02*
G01X04644Y04381D01*
G01X04566Y04387D02*
G01X04566Y04381D01*
G01X04605Y04469D02*
G01X04605Y04463D01*
G54D13*
G01X03820Y04419D02*
G01X03866Y04419D01*
G01X03820Y04445D02*
G01X03866Y04445D01*
G01X03820Y04470D02*
G01X03866Y04470D01*
G01X03820Y04496D02*
G01X03866Y04496D01*
G01X03820Y04521D02*
G01X03866Y04521D01*
G01X03820Y04547D02*
G01X03866Y04547D01*
G01X03820Y04573D02*
G01X03866Y04573D01*
G01X03820Y04598D02*
G01X03866Y04598D01*
G01X04053Y04598D02*
G01X04099Y04598D01*
G01X04053Y04573D02*
G01X04099Y04573D01*
G01X04053Y04547D02*
G01X04099Y04547D01*
G01X04053Y04521D02*
G01X04099Y04521D01*
G01X04053Y04496D02*
G01X04099Y04496D01*
G01X04053Y04470D02*
G01X04099Y04470D01*
G01X04053Y04445D02*
G01X04099Y04445D01*
G01X04053Y04419D02*
G01X04099Y04419D01*
G54D12*
G01X04179Y02983D02*
G01X04189Y02983D01*
G01X04179Y03041D02*
G01X04189Y03041D01*
G01X04878Y04864D02*
G01X04888Y04864D01*
G01X04878Y04805D02*
G01X04888Y04805D01*
G54D11*
G01X04381Y04356D02*
G01X04381Y04332D01*
G01X04499Y04356D02*
G01X04499Y04332D01*
G01X04381Y04661D02*
G01X04381Y04638D01*
G01X04499Y04661D02*
G01X04499Y04638D01*
G54D12*
G01X04791Y03053D02*
G01X04801Y03053D01*
G01X04791Y02994D02*
G01X04801Y02994D01*
G01X04724Y02934D02*
G01X04734Y02934D01*
G01X04724Y02876D02*
G01X04734Y02876D01*
G01X04724Y03053D02*
G01X04734Y03053D01*
G01X04724Y02994D02*
G01X04734Y02994D01*
G54D11*
G01X03841Y03041D02*
G01X03897Y03041D01*
G01X03841Y03159D02*
G01X03897Y03159D01*
G54D20*
G01X04564Y02818D02*
G01X04570Y02818D01*
G01X04564Y02869D02*
G01X04570Y02869D01*
G01X04634Y02844D02*
G01X04640Y02844D01*
G54D12*
G01X04570Y02761D02*
G01X04570Y02751D01*
G01X04629Y02761D02*
G01X04629Y02751D01*
G01X05244Y04805D02*
G01X05254Y04805D01*
G01X05244Y04864D02*
G01X05254Y04864D01*
G01X04868Y04075D02*
G01X04878Y04075D01*
G01X04868Y04133D02*
G01X04878Y04133D01*
G54D14*
G01X04433Y03683D02*
G01X04433Y03677D01*
G01X04355Y03683D02*
G01X04355Y03677D01*
G01X04394Y03765D02*
G01X04394Y03759D01*
G54D12*
G01X04248Y02983D02*
G01X04258Y02983D01*
G01X04248Y03041D02*
G01X04258Y03041D01*
G01X04337Y02983D02*
G01X04346Y02983D01*
G01X04337Y03041D02*
G01X04346Y03041D01*
G54D13*
G01X04592Y03041D02*
G01X04639Y03041D01*
G01X04592Y03015D02*
G01X04639Y03015D01*
G01X04592Y02989D02*
G01X04639Y02989D01*
G01X04592Y02964D02*
G01X04639Y02964D01*
G01X04415Y02964D02*
G01X04461Y02964D01*
G01X04415Y02989D02*
G01X04461Y02989D01*
G01X04415Y03015D02*
G01X04461Y03015D01*
G01X04415Y03041D02*
G01X04461Y03041D01*
G54D11*
G01X03841Y02923D02*
G01X03897Y02923D01*
G01X03841Y02805D02*
G01X03897Y02805D01*
G01X05227Y03063D02*
G01X05227Y03008D01*
G01X05345Y03063D02*
G01X05345Y03008D01*
G54D12*
G01X04868Y03307D02*
G01X04878Y03307D01*
G01X04868Y03366D02*
G01X04878Y03366D01*
G01X04868Y03563D02*
G01X04878Y03563D01*
G01X04868Y03621D02*
G01X04878Y03621D01*
G01X04868Y04205D02*
G01X04878Y04205D01*
G01X04868Y04263D02*
G01X04878Y04263D01*
G54D14*
G01X04566Y04638D02*
G01X04566Y04632D01*
G01X04644Y04638D02*
G01X04644Y04632D01*
G01X04605Y04556D02*
G01X04605Y04550D01*
G54D21*
G01X04064Y03881D02*
G01X04080Y03881D01*
G01X04064Y03842D02*
G01X04080Y03842D01*
G01X04064Y03803D02*
G01X04080Y03803D01*
G01X03982Y03803D02*
G01X03998Y03803D01*
G01X03982Y03842D02*
G01X03998Y03842D01*
G01X03982Y03881D02*
G01X03998Y03881D01*
G54D14*
G01X04494Y03920D02*
G01X04494Y03914D01*
G01X04572Y03920D02*
G01X04572Y03914D01*
G01X04533Y03838D02*
G01X04533Y03832D01*
G54D11*
G01X04381Y04449D02*
G01X04381Y04425D01*
G01X04499Y04449D02*
G01X04499Y04425D01*
G54D12*
G01X04383Y04894D02*
G01X04383Y04885D01*
G01X04441Y04894D02*
G01X04441Y04885D01*
G54D23*
G01X-0236Y05196D03*
G01X05671Y05196D03*
G01X05671Y-0236D03*
M02*
