G04 start of page 7 for group -4062 idx -4062 *
G04 Title: (unknown), soldermask *
G04 Creator: pcb 1.99z *
G04 CreationDate: Wed 09 Mar 2011 16:43:30 GMT UTC *
G04 For: richard *
G04 Format: Gerber/RS-274X *
G04 PCB-Dimensions: 165354 236220 *
G04 PCB-Coordinate-Origin: lower left *
%MOIN*%
%FSLAX25Y25*%
%LNBACKMASK*%
%ADD11C,0.0200*%
%ADD29R,0.0340X0.0340*%
%ADD33C,0.1280*%
%ADD47C,0.0700*%
%ADD48C,0.1360*%
%ADD49C,0.0453*%
%ADD51R,0.0382X0.0382*%
%ADD52R,0.0440X0.0440*%
%ADD55R,0.0630X0.0630*%
%ADD56R,0.0660X0.0660*%
%ADD57R,0.0612X0.0612*%
%ADD58R,0.0230X0.0230*%
%ADD59R,0.1320X0.1320*%
%ADD60R,0.0390X0.0390*%
%ADD61R,0.0700X0.0700*%
%ADD62R,0.0494X0.0494*%
%ADD63R,0.0749X0.0749*%
G54D11*G36*
X37248Y142201D02*Y135201D01*
X44248D01*
Y142201D01*
X37248D01*
G37*
G54D47*X50748Y133701D03*
G54D33*X15748Y143701D03*
G54D47*X40748Y177598D03*
G54D33*X15748Y167598D03*
G54D47*X50748Y172598D03*
Y103701D03*
X40748Y108701D03*
X50748Y123701D03*
X40748Y128701D03*
Y118701D03*
X50748Y113701D03*
G54D48*X24606Y53149D03*
Y23621D03*
G54D33*X15748Y98701D03*
G54D11*G36*
X3903Y84602D02*Y77602D01*
X10903D01*
Y84602D01*
X3903D01*
G37*
G54D47*X17403Y81102D03*
X27403D03*
X37403D03*
X47403D03*
G54D11*G36*
X115437Y166885D02*Y159885D01*
X122437D01*
Y166885D01*
X115437D01*
G37*
G54D47*X128937Y163385D03*
X138937D03*
G54D11*G36*
X111909Y173779D02*Y169251D01*
X116437D01*
Y173779D01*
X111909D01*
G37*
G36*
X115437Y128500D02*Y121500D01*
X122437D01*
Y128500D01*
X115437D01*
G37*
G36*
Y115704D02*Y108704D01*
X122437D01*
Y115704D01*
X115437D01*
G37*
G54D47*X128937Y125000D03*
X138937D03*
G54D11*G36*
X115437Y141295D02*Y134295D01*
X122437D01*
Y141295D01*
X115437D01*
G37*
G54D47*X128937Y137795D03*
X138937D03*
G54D49*X114173Y176515D03*
G54D11*G36*
X115437Y154090D02*Y147090D01*
X122437D01*
Y154090D01*
X115437D01*
G37*
G54D47*X128937Y150590D03*
X138937D03*
G54D11*G36*
X142169Y22200D02*Y15200D01*
X149169D01*
Y22200D01*
X142169D01*
G37*
G54D47*X155669Y18700D03*
G54D11*G36*
X142169Y58618D02*Y51618D01*
X149169D01*
Y58618D01*
X142169D01*
G37*
G54D47*X155669Y55118D03*
X128937Y112204D03*
X138937D03*
G54D11*G36*
X115437Y102909D02*Y95909D01*
X122437D01*
Y102909D01*
X115437D01*
G37*
G54D47*X128937Y99409D03*
X138937D03*
G54D11*G36*
X115437Y90114D02*Y83114D01*
X122437D01*
Y90114D01*
X115437D01*
G37*
G54D47*X128937Y86614D03*
X138937D03*
G54D11*G36*
X115437Y77318D02*Y70318D01*
X122437D01*
Y77318D01*
X115437D01*
G37*
G54D47*X128937Y73818D03*
X138937D03*
X50748Y192598D03*
X40748Y187598D03*
G54D11*G36*
X13823Y232633D02*Y225633D01*
X20823D01*
Y232633D01*
X13823D01*
G37*
G54D47*X27323Y229133D03*
X37323D03*
X47323D03*
X40748Y197598D03*
G54D11*G36*
X37248Y211098D02*Y204098D01*
X44248D01*
Y211098D01*
X37248D01*
G37*
G54D47*X50748Y202598D03*
Y182598D03*
G54D33*X15748Y212598D03*
G54D51*X60236Y229617D02*Y228649D01*
X66070Y229617D02*Y228649D01*
X73067Y229617D02*Y228649D01*
X78901Y229617D02*Y228649D01*
G54D52*X75233Y123990D02*Y123390D01*
X65238Y108524D02*Y107924D01*
X57438Y108524D02*Y107924D01*
X61338Y116724D02*Y116124D01*
G54D51*X64477Y123300D02*X65445D01*
X58769D02*X59737D01*
X64477Y129134D02*X65445D01*
X58769D02*X59737D01*
X59055Y134736D02*Y133768D01*
X64889Y134736D02*Y133768D01*
G54D29*X28348Y128241D02*X29948D01*
X20148D02*X21748D01*
G54D51*X10558Y128043D02*Y127075D01*
X4958Y135523D02*Y134555D01*
X10792Y135523D02*Y134555D01*
G54D29*X28348Y124341D02*X29948D01*
X28348Y120441D02*X29948D01*
X20148D02*X21748D01*
X20148Y124341D02*X21748D01*
G54D51*X4957Y121350D02*Y120382D01*
X10791Y121350D02*Y120382D01*
G54D55*X17323Y113017D02*Y109817D01*
G54D56*X27418Y146512D02*X34018D01*
X27418Y155512D02*X34018D01*
G54D57*X6103Y152952D02*X6889D01*
X6103Y160038D02*X6889D01*
G54D56*X27418Y164612D02*X34018D01*
G54D51*X34967Y175681D02*Y174713D01*
X29133Y175681D02*Y174713D01*
G54D58*X3996Y182089D02*X8602D01*
X3996Y184648D02*X8602D01*
X3996Y187207D02*X8602D01*
X3996Y189766D02*X8602D01*
X3996Y192324D02*X8602D01*
X3996Y194883D02*X8602D01*
X3996Y197442D02*X8602D01*
X3996Y200001D02*X8602D01*
G54D51*X5027Y211346D02*X5995D01*
X5027Y205512D02*X5995D01*
G54D58*X27224Y200001D02*X31830D01*
X27224Y197442D02*X31830D01*
X27224Y194883D02*X31830D01*
X27224Y192324D02*X31830D01*
X27224Y189766D02*X31830D01*
X27224Y187207D02*X31830D01*
X27224Y184648D02*X31830D01*
X27224Y182089D02*X31830D01*
G54D52*X79133Y132190D02*Y131590D01*
G54D57*X60039Y185038D02*Y182676D01*
X71849Y185038D02*Y182676D01*
X60039Y206299D02*Y203937D01*
X71849Y206299D02*Y203937D01*
X60039Y196457D02*Y194095D01*
X71849Y196457D02*Y194095D01*
G54D52*X71333Y132190D02*Y131590D01*
G54D57*X60039Y175787D02*Y173425D01*
X71849Y175787D02*Y173425D01*
G54D52*X86380Y178911D02*Y178311D01*
X78580Y178911D02*Y178311D01*
X82480Y187111D02*Y186511D01*
G54D59*X55118Y160012D02*Y151012D01*
G54D52*X78580Y203972D02*Y203372D01*
X86380Y203972D02*Y203372D01*
X82480Y195772D02*Y195172D01*
G54D51*X108768Y147673D02*X109736D01*
X108768Y134878D02*X109736D01*
X108768Y140712D02*X109736D01*
X108768Y109287D02*X109736D01*
X108768Y115121D02*X109736D01*
X108768Y122083D02*X109736D01*
X108768Y127917D02*X109736D01*
G54D58*X81200Y44231D02*X85806D01*
X81200Y41672D02*X85806D01*
X81200Y39114D02*X85806D01*
X81200Y36555D02*X85806D01*
G54D51*X78973Y16232D02*Y15264D01*
X84807Y16232D02*Y15264D01*
G54D60*X78330Y22006D02*X78930D01*
X78330Y27106D02*X78930D01*
X85330Y24606D02*X85930D01*
G54D51*X94397Y45436D02*X95365D01*
X101091D02*X102059D01*
G54D61*X95518Y60188D02*Y55952D01*
G54D51*X94397Y39602D02*X95365D01*
X101091D02*X102059D01*
X94398Y33625D02*X95366D01*
X94398Y27791D02*X95366D01*
G54D57*X6103Y32479D02*X11613D01*
X6103Y20669D02*X11613D01*
X6103Y44291D02*X11613D01*
X6103Y56101D02*X11613D01*
G54D55*X5723Y113017D02*Y109817D01*
G54D51*X4724Y128043D02*Y127075D01*
G54D52*X61880Y72181D02*X62480D01*
X53680Y76081D02*X54280D01*
G54D51*X67823Y74481D02*X68791D01*
X73335D02*X74303D01*
G54D58*X63484Y36555D02*X68090D01*
G54D51*X55618Y38457D02*X56586D01*
G54D58*X63484Y39114D02*X68090D01*
X63484Y41672D02*X68090D01*
X63484Y44231D02*X68090D01*
G54D51*X55618Y44291D02*X56586D01*
X46760D02*X47728D01*
X46760Y38457D02*X47728D01*
X39869D02*X40837D01*
X39869Y44291D02*X40837D01*
G54D62*X66929Y88188D02*X68897D01*
G54D52*X61880Y79981D02*X62480D01*
G54D51*X67823Y80315D02*X68791D01*
X73335D02*X74303D01*
G54D62*X66929Y93700D02*X68897D01*
G54D51*X58196Y98122D02*Y97154D01*
X52362Y98122D02*Y97154D01*
X58196Y92216D02*Y91248D01*
X52362Y92216D02*Y91248D01*
G54D62*X80709Y93700D02*X82677D01*
X80709Y88188D02*X82677D01*
G54D55*X29134Y94907D02*Y91707D01*
X40734Y94907D02*Y91707D01*
G54D51*X108768Y160665D02*X109736D01*
X108768Y166499D02*X109736D01*
X108768Y153507D02*X109736D01*
X117626Y182122D02*X118594D01*
X117626Y187956D02*X118594D01*
X125499Y187957D02*X126467D01*
X125499Y182123D02*X126467D01*
X138492Y182121D02*X139460D01*
X138492Y187955D02*X139460D01*
X146366Y187956D02*X147334D01*
X146366Y182122D02*X147334D01*
G54D58*X141791Y197834D02*X146397D01*
X141791Y195275D02*X146397D01*
G54D51*X146366Y220705D02*X147334D01*
G54D58*X141791Y213187D02*X146397D01*
G54D51*X146366Y226539D02*X147334D01*
G54D58*X141791Y210628D02*X146397D01*
X141791Y208069D02*X146397D01*
X141791Y205510D02*X146397D01*
X141791Y202952D02*X146397D01*
X141791Y200393D02*X146397D01*
G54D51*X138492Y226539D02*X139460D01*
X138492Y220705D02*X139460D01*
X125500D02*X126468D01*
X125500Y226539D02*X126468D01*
X117626D02*X118594D01*
X117626Y220705D02*X118594D01*
X109752Y226539D02*X110720D01*
X109752Y220705D02*X110720D01*
G54D58*X118563Y195275D02*X123169D01*
X118563Y197834D02*X123169D01*
X118563Y200393D02*X123169D01*
X118563Y202952D02*X123169D01*
X118563Y205510D02*X123169D01*
X118563Y208069D02*X123169D01*
X118563Y210628D02*X123169D01*
X118563Y213187D02*X123169D01*
G54D51*X108768Y96492D02*X109736D01*
X108768Y102326D02*X109736D01*
X108768Y89531D02*X109736D01*
X108768Y76735D02*X109736D01*
X108768Y83697D02*X109736D01*
X108768Y70901D02*X109736D01*
G54D61*X107238Y60188D02*Y55952D01*
G54D51*X109752Y48192D02*X110720D01*
X109752Y42358D02*X110720D01*
G54D57*X144686Y46455D02*Y40945D01*
X156496Y46455D02*Y40945D01*
X144686Y32676D02*Y27166D01*
X156496Y32676D02*Y27166D01*
G54D63*X125197Y31692D02*Y28149D01*
Y14763D02*Y11220D01*
M02*
