G04 start of page 11 for group -4014 idx -4014 *
G04 Title: (unknown), bottompaste *
G04 Creator: pcb 20110918 *
G04 CreationDate: Thu 16 Aug 2012 16:03:18 GMT UTC *
G04 For: rob *
G04 Format: Gerber/RS-274X *
G04 PCB-Dimensions: 165354 236220 *
G04 PCB-Coordinate-Origin: lower left *
%MOIN*%
%FSLAX25Y25*%
%LNBOTTOMPASTE*%
%ADD132R,0.0689X0.0689*%
%ADD131R,0.0600X0.0600*%
%ADD130R,0.1220X0.1220*%
%ADD129R,0.0560X0.0560*%
%ADD128R,0.0530X0.0530*%
%ADD127R,0.0394X0.0394*%
%ADD126R,0.0290X0.0290*%
%ADD125R,0.0130X0.0130*%
%ADD124R,0.0240X0.0240*%
%ADD123R,0.0340X0.0340*%
%ADD122R,0.0512X0.0512*%
%ADD121R,0.0283X0.0283*%
G54D121*X60236Y229617D02*Y228649D01*
X66070Y229617D02*Y228649D01*
G54D122*X60039Y185038D02*Y182676D01*
X71849Y185038D02*Y182676D01*
G54D123*X71333Y132190D02*Y131590D01*
X79133Y132190D02*Y131590D01*
X75233Y123990D02*Y123390D01*
G54D124*X28348Y128241D02*X29948D01*
X28348Y124341D02*X29948D01*
X28348Y120441D02*X29948D01*
X20148D02*X21748D01*
X20148Y124341D02*X21748D01*
X20148Y128241D02*X21748D01*
G54D123*X78580Y203972D02*Y203372D01*
X86380Y203972D02*Y203372D01*
X82480Y195772D02*Y195172D01*
G54D121*X108768Y160665D02*X109736D01*
X108768Y166499D02*X109736D01*
X108768Y96492D02*X109736D01*
X108768Y102326D02*X109736D01*
X108768Y70901D02*X109736D01*
X108768Y76735D02*X109736D01*
G54D122*X144686Y46455D02*Y40945D01*
X156496Y46455D02*Y40945D01*
X6103Y32479D02*X11613D01*
X6103Y20669D02*X11613D01*
G54D125*X81200Y44231D02*X85806D01*
X81200Y41672D02*X85806D01*
X81200Y39114D02*X85806D01*
X81200Y36555D02*X85806D01*
X63484D02*X68090D01*
X63484Y39114D02*X68090D01*
X63484Y41672D02*X68090D01*
X63484Y44231D02*X68090D01*
G54D121*X55618Y38457D02*X56586D01*
X55618Y44291D02*X56586D01*
X46760Y38457D02*X47728D01*
X46760Y44291D02*X47728D01*
G54D123*X65238Y108524D02*Y107924D01*
X57438Y108524D02*Y107924D01*
X61338Y116724D02*Y116124D01*
G54D121*X108768Y147673D02*X109736D01*
X108768Y153507D02*X109736D01*
X146366Y220705D02*X147334D01*
X146366Y226539D02*X147334D01*
X78973Y16232D02*Y15264D01*
X84807Y16232D02*Y15264D01*
G54D126*X78330Y22006D02*X78930D01*
X78330Y27106D02*X78930D01*
X85330Y24606D02*X85930D01*
G54D122*X6103Y44291D02*X11613D01*
X6103Y56101D02*X11613D01*
G54D121*X94397Y45436D02*X95365D01*
X94397Y39602D02*X95365D01*
X94398Y33625D02*X95366D01*
X94398Y27791D02*X95366D01*
X101091Y45436D02*X102059D01*
X101091Y39602D02*X102059D01*
G54D122*X60039Y206299D02*Y203937D01*
X71849Y206299D02*Y203937D01*
X60039Y175787D02*Y173425D01*
X71849Y175787D02*Y173425D01*
G54D121*X109752Y226539D02*X110720D01*
X109752Y220705D02*X110720D01*
X39869Y38457D02*X40837D01*
X39869Y44291D02*X40837D01*
G54D125*X3996Y182089D02*X8602D01*
X3996Y184648D02*X8602D01*
X3996Y187207D02*X8602D01*
X3996Y189766D02*X8602D01*
X3996Y192324D02*X8602D01*
X3996Y194883D02*X8602D01*
X3996Y197442D02*X8602D01*
X3996Y200001D02*X8602D01*
X27224D02*X31830D01*
X27224Y197442D02*X31830D01*
X27224Y194883D02*X31830D01*
X27224Y192324D02*X31830D01*
X27224Y189766D02*X31830D01*
X27224Y187207D02*X31830D01*
X27224Y184648D02*X31830D01*
X27224Y182089D02*X31830D01*
G54D123*X86380Y178911D02*Y178311D01*
X78580Y178911D02*Y178311D01*
X82480Y187111D02*Y186511D01*
G54D127*X66929Y88188D02*X68897D01*
X66929Y93700D02*X68897D01*
X80709D02*X82677D01*
X80709Y88188D02*X82677D01*
G54D128*X17323Y113017D02*Y109817D01*
X5723Y113017D02*Y109817D01*
X29134Y94907D02*Y91707D01*
X40734Y94907D02*Y91707D01*
G54D129*X27418Y146512D02*X34018D01*
X27418Y155512D02*X34018D01*
X27418Y164612D02*X34018D01*
G54D130*X55118Y160012D02*Y151012D01*
G54D122*X6103Y152952D02*X6889D01*
X6103Y160038D02*X6889D01*
G54D121*X109752Y48192D02*X110720D01*
X109752Y42358D02*X110720D01*
G54D131*X95518Y60188D02*Y55952D01*
X107238Y60188D02*Y55952D01*
G54D121*X125500Y220705D02*X126468D01*
X125500Y226539D02*X126468D01*
G54D123*X61880Y79981D02*X62480D01*
X61880Y72181D02*X62480D01*
X53680Y76081D02*X54280D01*
G54D121*X34967Y175681D02*Y174713D01*
X29133Y175681D02*Y174713D01*
X64477Y123300D02*X65445D01*
X64477Y129134D02*X65445D01*
X59055Y134736D02*Y133768D01*
X64889Y134736D02*Y133768D01*
X67823Y80315D02*X68791D01*
X67823Y74481D02*X68791D01*
X73335Y80315D02*X74303D01*
X73335Y74481D02*X74303D01*
X58196Y98122D02*Y97154D01*
X52362Y98122D02*Y97154D01*
X58196Y92216D02*Y91248D01*
X52362Y92216D02*Y91248D01*
X10558Y128043D02*Y127075D01*
X4724Y128043D02*Y127075D01*
X4957Y121350D02*Y120382D01*
X10791Y121350D02*Y120382D01*
X58769Y123300D02*X59737D01*
X58769Y129134D02*X59737D01*
X5027Y211346D02*X5995D01*
X5027Y205512D02*X5995D01*
X4958Y135523D02*Y134555D01*
X10792Y135523D02*Y134555D01*
G54D122*X60039Y196457D02*Y194095D01*
X71849Y196457D02*Y194095D01*
G54D121*X138492Y226539D02*X139460D01*
X138492Y220705D02*X139460D01*
X146366Y187956D02*X147334D01*
X146366Y182122D02*X147334D01*
X108768Y134878D02*X109736D01*
X108768Y140712D02*X109736D01*
X108768Y109287D02*X109736D01*
X108768Y115121D02*X109736D01*
X108768Y83697D02*X109736D01*
X108768Y89531D02*X109736D01*
G54D125*X141791Y213187D02*X146397D01*
X141791Y210628D02*X146397D01*
X141791Y208069D02*X146397D01*
X141791Y205510D02*X146397D01*
X141791Y202952D02*X146397D01*
X141791Y200393D02*X146397D01*
X141791Y197834D02*X146397D01*
X141791Y195275D02*X146397D01*
X118563D02*X123169D01*
X118563Y197834D02*X123169D01*
X118563Y200393D02*X123169D01*
X118563Y202952D02*X123169D01*
X118563Y205510D02*X123169D01*
X118563Y208069D02*X123169D01*
X118563Y210628D02*X123169D01*
X118563Y213187D02*X123169D01*
G54D121*X138492Y182121D02*X139460D01*
X138492Y187955D02*X139460D01*
X73067Y229617D02*Y228649D01*
X78901Y229617D02*Y228649D01*
X117626Y182122D02*X118594D01*
X117626Y187956D02*X118594D01*
X125499Y187957D02*X126467D01*
X125499Y182123D02*X126467D01*
X117626Y226539D02*X118594D01*
X117626Y220705D02*X118594D01*
X108768Y122083D02*X109736D01*
X108768Y127917D02*X109736D01*
G54D122*X144686Y32676D02*Y27166D01*
X156496Y32676D02*Y27166D01*
G54D132*X125197Y31692D02*Y28149D01*
Y14763D02*Y11220D01*
M02*
