G04 start of page 2 for group 0 idx 0 *
G04 Title: (unknown), component *
G04 Creator: pcb 20110918 *
G04 CreationDate: Thu 16 Aug 2012 15:00:27 GMT UTC *
G04 For: rob *
G04 Format: Gerber/RS-274X *
G04 PCB-Dimensions: 165354 236220 *
G04 PCB-Coordinate-Origin: lower left *
%MOIN*%
%FSLAX25Y25*%
%LNTOP*%
%ADD37C,0.0300*%
%ADD36C,0.0380*%
%ADD35C,0.1280*%
%ADD34C,0.0197*%
%ADD33C,0.0350*%
%ADD32C,0.0360*%
%ADD31C,0.0360*%
%ADD30R,0.0510X0.0510*%
%ADD29R,0.0200X0.0200*%
%ADD28R,0.0340X0.0340*%
%ADD27R,0.0283X0.0283*%
%ADD26R,0.0118X0.0118*%
%ADD25C,0.0354*%
%ADD24C,0.1260*%
%ADD23C,0.0600*%
%ADD22C,0.0500*%
%ADD21C,0.0984*%
%ADD20C,0.0200*%
%ADD19C,0.0834*%
%ADD18C,0.0400*%
%ADD17C,0.0150*%
%ADD16C,0.0098*%
%ADD15C,0.0079*%
%ADD14C,0.0216*%
%ADD13C,0.0100*%
%ADD12C,0.0250*%
%ADD11C,0.0001*%
G54D11*G36*
X134843Y167322D02*X143943D01*
X144685Y166580D01*
Y77878D01*
X144589Y77819D01*
X143970Y77290D01*
X143441Y76671D01*
X143016Y75977D01*
X142705Y75225D01*
X142515Y74433D01*
X142451Y73622D01*
X142515Y72810D01*
X142705Y72019D01*
X143016Y71267D01*
X143441Y70573D01*
X143970Y69954D01*
X144589Y69425D01*
X144685Y69366D01*
Y67913D01*
X134843D01*
Y167322D01*
G37*
G36*
X145669Y66929D02*X148819D01*
Y57070D01*
X148810Y57060D01*
X148749Y56960D01*
X148703Y56851D01*
X148676Y56736D01*
X148669Y56618D01*
Y53618D01*
X148676Y53500D01*
X148703Y53386D01*
X148749Y53276D01*
X148810Y53176D01*
X148819Y53166D01*
Y20652D01*
X148810Y20642D01*
X148749Y20542D01*
X148703Y20432D01*
X148676Y20318D01*
X148669Y20200D01*
Y17200D01*
X148676Y17082D01*
X148703Y16968D01*
X148749Y16858D01*
X148810Y16758D01*
X148819Y16748D01*
Y0D01*
X145669D01*
Y14200D01*
X147169D01*
X147287Y14207D01*
X147401Y14235D01*
X147510Y14280D01*
X147611Y14341D01*
X147701Y14418D01*
X147778Y14508D01*
X147839Y14608D01*
X147884Y14718D01*
X147912Y14832D01*
X147921Y14950D01*
X147912Y15068D01*
X147884Y15182D01*
X147839Y15292D01*
X147778Y15392D01*
X147701Y15482D01*
X147611Y15559D01*
X147510Y15620D01*
X147401Y15665D01*
X147287Y15693D01*
X147169Y15700D01*
X145669D01*
Y21700D01*
X147169D01*
X147287Y21707D01*
X147401Y21735D01*
X147510Y21780D01*
X147611Y21841D01*
X147701Y21918D01*
X147778Y22008D01*
X147839Y22108D01*
X147884Y22218D01*
X147912Y22332D01*
X147921Y22450D01*
X147912Y22568D01*
X147884Y22682D01*
X147839Y22792D01*
X147778Y22892D01*
X147701Y22982D01*
X147611Y23059D01*
X147510Y23120D01*
X147401Y23165D01*
X147287Y23193D01*
X147169Y23200D01*
X145669D01*
Y50618D01*
X147169D01*
X147287Y50625D01*
X147401Y50653D01*
X147510Y50698D01*
X147611Y50759D01*
X147701Y50836D01*
X147778Y50926D01*
X147839Y51026D01*
X147884Y51136D01*
X147912Y51250D01*
X147921Y51368D01*
X147912Y51486D01*
X147884Y51601D01*
X147839Y51710D01*
X147778Y51810D01*
X147701Y51900D01*
X147611Y51977D01*
X147510Y52038D01*
X147401Y52084D01*
X147287Y52111D01*
X147169Y52118D01*
X145669D01*
Y58118D01*
X147169D01*
X147287Y58125D01*
X147401Y58153D01*
X147510Y58198D01*
X147611Y58259D01*
X147701Y58336D01*
X147778Y58426D01*
X147839Y58526D01*
X147884Y58636D01*
X147912Y58750D01*
X147921Y58868D01*
X147912Y58986D01*
X147884Y59101D01*
X147839Y59210D01*
X147778Y59310D01*
X147701Y59400D01*
X147611Y59477D01*
X147510Y59538D01*
X147401Y59584D01*
X147287Y59611D01*
X147169Y59618D01*
X145669D01*
Y66929D01*
G37*
G36*
X141919D02*X145669D01*
Y59618D01*
X144169D01*
X144051Y59611D01*
X143936Y59584D01*
X143827Y59538D01*
X143727Y59477D01*
X143637Y59400D01*
X143560Y59310D01*
X143499Y59210D01*
X143453Y59101D01*
X143426Y58986D01*
X143417Y58868D01*
X143426Y58750D01*
X143453Y58636D01*
X143499Y58526D01*
X143560Y58426D01*
X143637Y58336D01*
X143727Y58259D01*
X143827Y58198D01*
X143936Y58153D01*
X144051Y58125D01*
X144169Y58118D01*
X145669D01*
Y52118D01*
X144169D01*
X144051Y52111D01*
X143936Y52084D01*
X143827Y52038D01*
X143727Y51977D01*
X143637Y51900D01*
X143560Y51810D01*
X143499Y51710D01*
X143453Y51601D01*
X143426Y51486D01*
X143417Y51368D01*
X143426Y51250D01*
X143453Y51136D01*
X143499Y51026D01*
X143560Y50926D01*
X143637Y50836D01*
X143727Y50759D01*
X143827Y50698D01*
X143936Y50653D01*
X144051Y50625D01*
X144169Y50618D01*
X145669D01*
Y23200D01*
X144169D01*
X144051Y23193D01*
X143936Y23165D01*
X143827Y23120D01*
X143727Y23059D01*
X143637Y22982D01*
X143560Y22892D01*
X143499Y22792D01*
X143453Y22682D01*
X143426Y22568D01*
X143417Y22450D01*
X143426Y22332D01*
X143453Y22218D01*
X143499Y22108D01*
X143560Y22008D01*
X143637Y21918D01*
X143727Y21841D01*
X143827Y21780D01*
X143936Y21735D01*
X144051Y21707D01*
X144169Y21700D01*
X145669D01*
Y15700D01*
X144169D01*
X144051Y15693D01*
X143936Y15665D01*
X143827Y15620D01*
X143727Y15559D01*
X143637Y15482D01*
X143560Y15392D01*
X143499Y15292D01*
X143453Y15182D01*
X143426Y15068D01*
X143417Y14950D01*
X143426Y14832D01*
X143453Y14718D01*
X143499Y14608D01*
X143560Y14508D01*
X143637Y14418D01*
X143727Y14341D01*
X143827Y14280D01*
X143936Y14235D01*
X144051Y14207D01*
X144169Y14200D01*
X145669D01*
Y0D01*
X141919D01*
Y16448D01*
X142037Y16457D01*
X142151Y16485D01*
X142260Y16530D01*
X142361Y16591D01*
X142451Y16668D01*
X142528Y16758D01*
X142589Y16858D01*
X142634Y16968D01*
X142662Y17082D01*
X142669Y17200D01*
Y20200D01*
X142662Y20318D01*
X142634Y20432D01*
X142589Y20542D01*
X142528Y20642D01*
X142451Y20732D01*
X142361Y20809D01*
X142260Y20870D01*
X142151Y20915D01*
X142037Y20943D01*
X141919Y20952D01*
Y52866D01*
X142037Y52875D01*
X142151Y52903D01*
X142260Y52948D01*
X142361Y53009D01*
X142451Y53086D01*
X142528Y53176D01*
X142589Y53276D01*
X142634Y53386D01*
X142662Y53500D01*
X142669Y53618D01*
Y56618D01*
X142662Y56736D01*
X142634Y56851D01*
X142589Y56960D01*
X142528Y57060D01*
X142451Y57150D01*
X142361Y57227D01*
X142260Y57288D01*
X142151Y57334D01*
X142037Y57361D01*
X141919Y57370D01*
Y66929D01*
G37*
G36*
X122402D02*X141919D01*
Y57370D01*
X141801Y57361D01*
X141686Y57334D01*
X141577Y57288D01*
X141477Y57227D01*
X141387Y57150D01*
X141310Y57060D01*
X141249Y56960D01*
X141203Y56851D01*
X141176Y56736D01*
X141169Y56618D01*
Y53618D01*
X141176Y53500D01*
X141203Y53386D01*
X141249Y53276D01*
X141310Y53176D01*
X141387Y53086D01*
X141477Y53009D01*
X141577Y52948D01*
X141686Y52903D01*
X141801Y52875D01*
X141919Y52866D01*
Y20952D01*
X141801Y20943D01*
X141686Y20915D01*
X141577Y20870D01*
X141477Y20809D01*
X141387Y20732D01*
X141310Y20642D01*
X141249Y20542D01*
X141203Y20432D01*
X141176Y20318D01*
X141169Y20200D01*
Y17200D01*
X141176Y17082D01*
X141203Y16968D01*
X141249Y16858D01*
X141310Y16758D01*
X141387Y16668D01*
X141477Y16591D01*
X141577Y16530D01*
X141686Y16485D01*
X141801Y16457D01*
X141919Y16448D01*
Y0D01*
X122402D01*
Y25713D01*
X132399Y25718D01*
X132549Y25754D01*
X132693Y25813D01*
X132825Y25894D01*
X132942Y25995D01*
X133043Y26112D01*
X133124Y26244D01*
X133183Y26387D01*
X133219Y26538D01*
X133228Y26692D01*
X133219Y46532D01*
X133183Y46682D01*
X133124Y46826D01*
X133043Y46958D01*
X132942Y47075D01*
X132825Y47176D01*
X132693Y47257D01*
X132549Y47316D01*
X132399Y47352D01*
X132244Y47361D01*
X122402Y47357D01*
Y66929D01*
G37*
G36*
X104331D02*X122402D01*
Y47357D01*
X112405Y47352D01*
X112254Y47316D01*
X112111Y47257D01*
X111979Y47176D01*
X111861Y47075D01*
X111761Y46958D01*
X111680Y46826D01*
X111621Y46682D01*
X111585Y46532D01*
X111575Y46377D01*
X111585Y26538D01*
X111621Y26387D01*
X111680Y26244D01*
X111761Y26112D01*
X111861Y25995D01*
X111979Y25894D01*
X112111Y25813D01*
X112254Y25754D01*
X112405Y25718D01*
X112559Y25708D01*
X122402Y25713D01*
Y0D01*
X104331D01*
Y66929D01*
G37*
G36*
X83032Y75196D02*X103150D01*
Y0D01*
X83032D01*
Y25713D01*
X93029Y25718D01*
X93179Y25754D01*
X93323Y25813D01*
X93455Y25894D01*
X93572Y25995D01*
X93673Y26112D01*
X93754Y26244D01*
X93813Y26387D01*
X93849Y26538D01*
X93858Y26692D01*
X93849Y46532D01*
X93813Y46682D01*
X93754Y46826D01*
X93673Y46958D01*
X93572Y47075D01*
X93455Y47176D01*
X93323Y47257D01*
X93179Y47316D01*
X93029Y47352D01*
X92874Y47361D01*
X83032Y47357D01*
Y75196D01*
G37*
G36*
X62415D02*X83032D01*
Y47357D01*
X73035Y47352D01*
X72884Y47316D01*
X72741Y47257D01*
X72609Y47176D01*
X72491Y47075D01*
X72391Y46958D01*
X72310Y46826D01*
X72251Y46682D01*
X72215Y46532D01*
X72205Y46377D01*
X72215Y26538D01*
X72251Y26387D01*
X72310Y26244D01*
X72391Y26112D01*
X72491Y25995D01*
X72609Y25894D01*
X72741Y25813D01*
X72884Y25754D01*
X73035Y25718D01*
X73189Y25708D01*
X83032Y25713D01*
Y0D01*
X66142D01*
Y1736D01*
X66914Y1738D01*
X67157Y1796D01*
X67388Y1892D01*
X67601Y2022D01*
X67791Y2185D01*
X67954Y2375D01*
X68084Y2588D01*
X68180Y2819D01*
X68238Y3062D01*
X68253Y3311D01*
X68238Y5560D01*
X68180Y5803D01*
X68084Y6034D01*
X67954Y6247D01*
X67791Y6437D01*
X67601Y6600D01*
X67388Y6730D01*
X67193Y6811D01*
X67388Y6892D01*
X67601Y7022D01*
X67791Y7185D01*
X67954Y7375D01*
X68084Y7588D01*
X68180Y7819D01*
X68238Y8062D01*
X68253Y8311D01*
X68238Y10560D01*
X68180Y10803D01*
X68084Y11034D01*
X67954Y11247D01*
X67791Y11437D01*
X67601Y11600D01*
X67388Y11730D01*
X67193Y11811D01*
X67388Y11892D01*
X67601Y12022D01*
X67791Y12185D01*
X67954Y12375D01*
X68084Y12588D01*
X68180Y12819D01*
X68238Y13062D01*
X68253Y13311D01*
X68238Y15560D01*
X68180Y15803D01*
X68084Y16034D01*
X67954Y16247D01*
X67791Y16437D01*
X67601Y16600D01*
X67388Y16730D01*
X67193Y16811D01*
X67388Y16892D01*
X67601Y17022D01*
X67791Y17185D01*
X67954Y17375D01*
X68084Y17588D01*
X68180Y17819D01*
X68216Y17967D01*
X68223Y17970D01*
X68223Y17970D01*
X68223Y17970D01*
X68362Y18055D01*
X68424Y18094D01*
X68424Y18094D01*
X68424Y18094D01*
X68604Y18247D01*
X68642Y18292D01*
X69917Y19567D01*
X69962Y19605D01*
X70115Y19784D01*
X70115Y19784D01*
X70239Y19986D01*
X70239Y19986D01*
X70239Y19986D01*
X70267Y20054D01*
X70329Y20204D01*
X70384Y20433D01*
X70384Y20433D01*
X70384Y20433D01*
X70384Y20434D01*
X70403Y20669D01*
X70398Y20728D01*
Y22578D01*
X70403Y22637D01*
X70384Y22872D01*
Y22872D01*
X70358Y22983D01*
X70329Y23102D01*
X70329Y23102D01*
Y23102D01*
X70239Y23320D01*
X70115Y23521D01*
X69962Y23701D01*
X69917Y23739D01*
X68031Y25625D01*
X67993Y25670D01*
X67814Y25823D01*
X67814Y25823D01*
X67814Y25823D01*
X67814Y25823D01*
X67612Y25946D01*
X67471Y26005D01*
X67394Y26037D01*
X67394D01*
X67394Y26037D01*
X67165Y26092D01*
X67164Y26092D01*
X66929Y26110D01*
X66870Y26106D01*
X66142D01*
Y26377D01*
X64558Y27961D01*
X65509Y27961D01*
X65660Y27997D01*
X65803Y28057D01*
X65935Y28137D01*
X66053Y28238D01*
X66154Y28356D01*
X66234Y28488D01*
X66294Y28631D01*
X66330Y28782D01*
X66339Y28936D01*
X66330Y47988D01*
X66294Y48139D01*
X66234Y48282D01*
X66154Y48414D01*
X66053Y48532D01*
X65935Y48632D01*
X65803Y48713D01*
X65660Y48773D01*
X65509Y48809D01*
X65355Y48818D01*
X62415Y48817D01*
Y52723D01*
X66789Y52726D01*
X66909Y52755D01*
X67024Y52803D01*
X67130Y52868D01*
X67224Y52948D01*
X67304Y53042D01*
X67369Y53148D01*
X67417Y53263D01*
X67446Y53383D01*
X67453Y53507D01*
X67446Y55631D01*
X67417Y55751D01*
X67369Y55866D01*
X67304Y55972D01*
X67224Y56066D01*
X67130Y56146D01*
X67024Y56211D01*
X66909Y56259D01*
X66789Y56288D01*
X66665Y56295D01*
X62415Y56291D01*
Y57723D01*
X66789Y57726D01*
X66909Y57755D01*
X67024Y57803D01*
X67130Y57868D01*
X67224Y57948D01*
X67304Y58042D01*
X67369Y58148D01*
X67417Y58263D01*
X67446Y58383D01*
X67453Y58507D01*
X67446Y60631D01*
X67417Y60751D01*
X67369Y60866D01*
X67304Y60972D01*
X67224Y61066D01*
X67130Y61146D01*
X67024Y61211D01*
X66909Y61259D01*
X66789Y61288D01*
X66665Y61295D01*
X62415Y61291D01*
Y62723D01*
X66789Y62726D01*
X66909Y62755D01*
X67024Y62803D01*
X67130Y62868D01*
X67224Y62948D01*
X67304Y63042D01*
X67369Y63148D01*
X67417Y63263D01*
X67446Y63383D01*
X67453Y63507D01*
X67446Y65631D01*
X67417Y65751D01*
X67369Y65866D01*
X67304Y65972D01*
X67224Y66066D01*
X67130Y66146D01*
X67024Y66211D01*
X66909Y66259D01*
X66789Y66288D01*
X66665Y66295D01*
X62415Y66291D01*
Y67723D01*
X66789Y67726D01*
X66909Y67755D01*
X67024Y67803D01*
X67130Y67868D01*
X67224Y67948D01*
X67304Y68042D01*
X67369Y68148D01*
X67417Y68263D01*
X67446Y68383D01*
X67453Y68507D01*
X67446Y70631D01*
X67417Y70751D01*
X67369Y70866D01*
X67304Y70972D01*
X67224Y71066D01*
X67130Y71146D01*
X67024Y71211D01*
X66909Y71259D01*
X66789Y71288D01*
X66665Y71295D01*
X62415Y71291D01*
Y75196D01*
G37*
G36*
X46063D02*X62415D01*
Y71291D01*
X58041Y71288D01*
X57921Y71259D01*
X57806Y71211D01*
X57700Y71146D01*
X57606Y71066D01*
X57526Y70972D01*
X57461Y70866D01*
X57413Y70751D01*
X57384Y70631D01*
X57377Y70507D01*
X57384Y68383D01*
X57413Y68263D01*
X57461Y68148D01*
X57526Y68042D01*
X57606Y67948D01*
X57700Y67868D01*
X57806Y67803D01*
X57921Y67755D01*
X58041Y67726D01*
X58165Y67719D01*
X62415Y67723D01*
Y66291D01*
X58041Y66288D01*
X57921Y66259D01*
X57806Y66211D01*
X57700Y66146D01*
X57606Y66066D01*
X57526Y65972D01*
X57461Y65866D01*
X57413Y65751D01*
X57384Y65631D01*
X57377Y65507D01*
X57384Y63383D01*
X57413Y63263D01*
X57461Y63148D01*
X57526Y63042D01*
X57606Y62948D01*
X57700Y62868D01*
X57806Y62803D01*
X57921Y62755D01*
X58041Y62726D01*
X58165Y62719D01*
X62415Y62723D01*
Y61291D01*
X58041Y61288D01*
X57921Y61259D01*
X57806Y61211D01*
X57700Y61146D01*
X57606Y61066D01*
X57526Y60972D01*
X57461Y60866D01*
X57413Y60751D01*
X57384Y60631D01*
X57377Y60507D01*
X57384Y58383D01*
X57413Y58263D01*
X57461Y58148D01*
X57526Y58042D01*
X57606Y57948D01*
X57700Y57868D01*
X57806Y57803D01*
X57921Y57755D01*
X58041Y57726D01*
X58165Y57719D01*
X62415Y57723D01*
Y56291D01*
X58041Y56288D01*
X57921Y56259D01*
X57806Y56211D01*
X57700Y56146D01*
X57606Y56066D01*
X57526Y55972D01*
X57461Y55866D01*
X57413Y55751D01*
X57384Y55631D01*
X57377Y55507D01*
X57384Y53383D01*
X57413Y53263D01*
X57461Y53148D01*
X57526Y53042D01*
X57606Y52948D01*
X57700Y52868D01*
X57806Y52803D01*
X57921Y52755D01*
X58041Y52726D01*
X58165Y52719D01*
X62415Y52723D01*
Y48817D01*
X46303Y48809D01*
X46152Y48773D01*
X46063Y48736D01*
Y51933D01*
X46414Y51934D01*
X46657Y51992D01*
X46888Y52088D01*
X47101Y52218D01*
X47291Y52381D01*
X47454Y52571D01*
X47584Y52784D01*
X47655Y52954D01*
X47694Y52858D01*
X47925Y52482D01*
X48211Y52147D01*
X48546Y51861D01*
X48922Y51630D01*
X49329Y51462D01*
X49757Y51359D01*
X50197Y51324D01*
X50636Y51359D01*
X51065Y51462D01*
X51472Y51630D01*
X51848Y51861D01*
X52183Y52147D01*
X52469Y52482D01*
X52699Y52858D01*
X52868Y53265D01*
X52971Y53694D01*
X52997Y54133D01*
X52971Y54572D01*
X52868Y55001D01*
X52699Y55408D01*
X52469Y55784D01*
X52183Y56119D01*
X51848Y56405D01*
X51472Y56636D01*
X51065Y56804D01*
X50636Y56907D01*
X50197Y56942D01*
X49757Y56907D01*
X49329Y56804D01*
X48922Y56636D01*
X48546Y56405D01*
X48211Y56119D01*
X48115Y56007D01*
X47677D01*
X47584Y56230D01*
X47454Y56443D01*
X47291Y56633D01*
X47101Y56796D01*
X46888Y56926D01*
X46693Y57007D01*
X46888Y57088D01*
X47101Y57218D01*
X47291Y57381D01*
X47454Y57571D01*
X47584Y57784D01*
X47680Y58015D01*
X47738Y58258D01*
X47753Y58507D01*
X47738Y60756D01*
X47680Y60999D01*
X47584Y61230D01*
X47454Y61443D01*
X47291Y61633D01*
X47101Y61796D01*
X46888Y61926D01*
X46693Y62007D01*
X46888Y62088D01*
X47101Y62218D01*
X47291Y62381D01*
X47454Y62571D01*
X47584Y62784D01*
X47680Y63015D01*
X47738Y63258D01*
X47753Y63507D01*
X47738Y65756D01*
X47680Y65999D01*
X47584Y66230D01*
X47454Y66443D01*
X47291Y66633D01*
X47101Y66796D01*
X46888Y66926D01*
X46693Y67007D01*
X46888Y67088D01*
X47101Y67218D01*
X47291Y67381D01*
X47454Y67571D01*
X47584Y67784D01*
X47680Y68015D01*
X47738Y68258D01*
X47753Y68507D01*
X47738Y70756D01*
X47680Y70999D01*
X47584Y71230D01*
X47454Y71443D01*
X47291Y71633D01*
X47101Y71796D01*
X46888Y71926D01*
X46657Y72022D01*
X46414Y72080D01*
X46165Y72095D01*
X46063Y72095D01*
Y75196D01*
G37*
G36*
X24609Y72458D02*X24758Y72422D01*
X25143Y72392D01*
X24863Y71717D01*
X24645Y70810D01*
X24609Y70199D01*
Y72458D01*
G37*
G36*
X30736Y25045D02*X30802Y24764D01*
X30880Y24195D01*
X30906Y23621D01*
X30880Y23047D01*
X30802Y22478D01*
X30736Y22197D01*
Y25045D01*
G37*
G36*
X36282Y57724D02*X36376Y57571D01*
X36539Y57381D01*
X36729Y57218D01*
X36942Y57088D01*
X37137Y57007D01*
X36942Y56926D01*
X36729Y56796D01*
X36539Y56633D01*
X36376Y56443D01*
X36246Y56230D01*
X36150Y55999D01*
X36092Y55756D01*
X36077Y55507D01*
X36092Y53258D01*
X36150Y53015D01*
X36246Y52784D01*
X36376Y52571D01*
X36539Y52381D01*
X36729Y52218D01*
X36942Y52088D01*
X37173Y51992D01*
X37416Y51934D01*
X37665Y51919D01*
X44882Y51931D01*
Y46376D01*
X44725Y46472D01*
X44524Y46555D01*
X44312Y46606D01*
X44095Y46619D01*
X38366Y46606D01*
X38154Y46555D01*
X37953Y46472D01*
X37767Y46358D01*
X37601Y46217D01*
X37460Y46051D01*
X37346Y45865D01*
X37263Y45664D01*
X37212Y45452D01*
X37199Y45235D01*
X37212Y39506D01*
X37263Y39294D01*
X37346Y39093D01*
X37460Y38907D01*
X37601Y38741D01*
X37767Y38600D01*
X37953Y38486D01*
X38154Y38403D01*
X38228Y38385D01*
X38154Y38367D01*
X37953Y38284D01*
X37767Y38170D01*
X37601Y38029D01*
X37460Y37863D01*
X37346Y37677D01*
X37263Y37476D01*
X37212Y37264D01*
X37199Y37047D01*
X37212Y31318D01*
X37263Y31106D01*
X37346Y30905D01*
X37460Y30719D01*
X37601Y30553D01*
X37767Y30412D01*
X37953Y30298D01*
X38154Y30215D01*
X38339Y30170D01*
Y27677D01*
X38330Y27559D01*
X38339Y27441D01*
Y25708D01*
X38330Y25590D01*
X38367Y25119D01*
X38367Y25119D01*
Y25119D01*
X38385Y25045D01*
X38477Y24660D01*
X38627Y24299D01*
X38658Y24224D01*
X38801Y23991D01*
X38904Y23821D01*
X38904Y23821D01*
X38904Y23821D01*
X39211Y23462D01*
X39301Y23386D01*
X41103Y21584D01*
X41179Y21494D01*
X41538Y21188D01*
X41538Y21187D01*
X41538Y21187D01*
X41538Y21187D01*
X41603Y21148D01*
X41689Y21095D01*
X37541Y21092D01*
X37421Y21063D01*
X37306Y21015D01*
X37200Y20950D01*
X37106Y20870D01*
X37026Y20776D01*
X36961Y20670D01*
X36913Y20555D01*
X36884Y20435D01*
X36877Y20311D01*
X36884Y18187D01*
X36913Y18067D01*
X36961Y17952D01*
X37026Y17846D01*
X37106Y17752D01*
X37200Y17671D01*
X37306Y17607D01*
X37421Y17559D01*
X37541Y17530D01*
X37665Y17523D01*
X44882Y17529D01*
Y16098D01*
X37541Y16092D01*
X37421Y16063D01*
X37306Y16015D01*
X37200Y15950D01*
X37106Y15870D01*
X37026Y15776D01*
X36961Y15670D01*
X36913Y15555D01*
X36884Y15435D01*
X36877Y15311D01*
X36884Y13187D01*
X36913Y13067D01*
X36961Y12952D01*
X37026Y12846D01*
X37106Y12752D01*
X37200Y12671D01*
X37306Y12607D01*
X37421Y12559D01*
X37541Y12530D01*
X37665Y12523D01*
X44882Y12529D01*
Y11098D01*
X37541Y11092D01*
X37421Y11063D01*
X37306Y11015D01*
X37200Y10950D01*
X37106Y10870D01*
X37026Y10776D01*
X36961Y10670D01*
X36913Y10555D01*
X36884Y10435D01*
X36877Y10311D01*
X36884Y8187D01*
X36913Y8067D01*
X36961Y7952D01*
X37026Y7846D01*
X37106Y7752D01*
X37200Y7671D01*
X37306Y7607D01*
X37421Y7559D01*
X37541Y7530D01*
X37665Y7523D01*
X44882Y7529D01*
Y6098D01*
X37541Y6092D01*
X37421Y6063D01*
X37306Y6015D01*
X37200Y5950D01*
X37106Y5870D01*
X37026Y5776D01*
X36961Y5670D01*
X36913Y5555D01*
X36884Y5435D01*
X36877Y5311D01*
X36884Y3187D01*
X36913Y3067D01*
X36961Y2952D01*
X37026Y2846D01*
X37106Y2752D01*
X37200Y2671D01*
X37306Y2607D01*
X37421Y2559D01*
X37541Y2530D01*
X37665Y2523D01*
X44882Y2529D01*
Y0D01*
X30736D01*
Y19659D01*
X30847Y19819D01*
X31167Y20403D01*
X31433Y21014D01*
X31642Y21647D01*
X31792Y22296D01*
X31883Y22955D01*
X31914Y23621D01*
X31883Y24286D01*
X31792Y24946D01*
X31642Y25595D01*
X31433Y26228D01*
X31167Y26839D01*
X30847Y27423D01*
X30736Y27587D01*
Y41278D01*
X30864Y41151D01*
X30886Y40867D01*
X30996Y40408D01*
X31177Y39972D01*
X31423Y39569D01*
X31730Y39210D01*
X32089Y38904D01*
X32492Y38657D01*
X32928Y38476D01*
X33387Y38366D01*
X33858Y38329D01*
X34329Y38366D01*
X34788Y38476D01*
X35224Y38657D01*
X35627Y38904D01*
X35986Y39210D01*
X36293Y39569D01*
X36539Y39972D01*
X36720Y40408D01*
X36830Y40867D01*
X36858Y41338D01*
X36830Y41809D01*
X36720Y42268D01*
X36539Y42704D01*
X36293Y43107D01*
X35986Y43466D01*
X35627Y43773D01*
X35224Y44019D01*
X34788Y44200D01*
X34329Y44310D01*
X34045Y44333D01*
X30736Y47642D01*
Y49181D01*
X31130Y49825D01*
X31570Y50886D01*
X31838Y52003D01*
X31839Y52007D01*
X34535Y54704D01*
X34712Y54855D01*
X35317Y55563D01*
X35317Y55564D01*
X35804Y56358D01*
X36161Y57220D01*
X36161Y57220D01*
X36174Y57273D01*
X36282Y57724D01*
G37*
G36*
X30736Y47642D02*X30071Y48307D01*
X30530Y48845D01*
X30736Y49181D01*
Y47642D01*
G37*
G36*
Y0D02*X24609D01*
Y16314D01*
X25271Y16344D01*
X25931Y16435D01*
X26580Y16585D01*
X27213Y16794D01*
X27824Y17060D01*
X28408Y17380D01*
X28960Y17752D01*
X29021Y17804D01*
X29072Y17865D01*
X29113Y17934D01*
X29143Y18008D01*
X29160Y18086D01*
X29166Y18165D01*
X29159Y18244D01*
X29140Y18322D01*
X29108Y18395D01*
X29066Y18463D01*
X29014Y18523D01*
X28952Y18574D01*
X28884Y18615D01*
X28810Y18645D01*
X28732Y18663D01*
X28653Y18668D01*
X28573Y18661D01*
X28496Y18642D01*
X28423Y18610D01*
X28356Y18567D01*
X27884Y18241D01*
X27380Y17965D01*
X26853Y17735D01*
X26308Y17555D01*
X25749Y17425D01*
X25180Y17347D01*
X24609Y17321D01*
Y29921D01*
X25180Y29895D01*
X25749Y29816D01*
X26308Y29687D01*
X26853Y29506D01*
X27380Y29277D01*
X27884Y29001D01*
X28360Y28680D01*
X28426Y28637D01*
X28498Y28607D01*
X28574Y28587D01*
X28653Y28580D01*
X28731Y28586D01*
X28808Y28603D01*
X28881Y28633D01*
X28949Y28673D01*
X29009Y28724D01*
X29061Y28783D01*
X29102Y28850D01*
X29133Y28922D01*
X29152Y28999D01*
X29159Y29077D01*
X29154Y29155D01*
X29136Y29232D01*
X29107Y29305D01*
X29067Y29373D01*
X29016Y29433D01*
X28956Y29483D01*
X28408Y29862D01*
X27824Y30182D01*
X27213Y30448D01*
X26580Y30657D01*
X25931Y30807D01*
X25271Y30898D01*
X24609Y30928D01*
Y45827D01*
X25751Y45917D01*
X26031Y45984D01*
X30736Y41278D01*
Y27587D01*
X30475Y27975D01*
X30423Y28036D01*
X30362Y28087D01*
X30293Y28128D01*
X30219Y28158D01*
X30141Y28175D01*
X30062Y28181D01*
X29982Y28174D01*
X29905Y28154D01*
X29832Y28123D01*
X29764Y28081D01*
X29704Y28028D01*
X29653Y27967D01*
X29612Y27899D01*
X29582Y27825D01*
X29564Y27747D01*
X29559Y27668D01*
X29566Y27588D01*
X29585Y27511D01*
X29617Y27438D01*
X29660Y27371D01*
X29986Y26899D01*
X30262Y26395D01*
X30492Y25868D01*
X30672Y25323D01*
X30736Y25045D01*
Y22197D01*
X30672Y21919D01*
X30492Y21374D01*
X30262Y20847D01*
X29986Y20343D01*
X29665Y19867D01*
X29622Y19801D01*
X29592Y19729D01*
X29572Y19653D01*
X29565Y19574D01*
X29571Y19496D01*
X29588Y19419D01*
X29618Y19346D01*
X29658Y19278D01*
X29709Y19218D01*
X29768Y19166D01*
X29835Y19125D01*
X29907Y19094D01*
X29984Y19075D01*
X30062Y19068D01*
X30140Y19073D01*
X30217Y19091D01*
X30290Y19120D01*
X30358Y19160D01*
X30418Y19211D01*
X30469Y19271D01*
X30736Y19659D01*
Y0D01*
G37*
G36*
X18476Y73696D02*X22832D01*
X22925Y73545D01*
X23211Y73210D01*
X23546Y72924D01*
X23922Y72693D01*
X24329Y72525D01*
X24609Y72458D01*
Y70199D01*
X24590Y69881D01*
Y61508D01*
X23464Y60382D01*
X23461Y60381D01*
X22343Y60113D01*
X21282Y59673D01*
X20302Y59073D01*
X19428Y58327D01*
X18682Y57453D01*
X18476Y57117D01*
Y73696D01*
G37*
G36*
X24609Y0D02*X18476D01*
Y19655D01*
X18737Y19267D01*
X18789Y19206D01*
X18850Y19155D01*
X18919Y19114D01*
X18993Y19084D01*
X19071Y19066D01*
X19150Y19061D01*
X19230Y19068D01*
X19307Y19087D01*
X19380Y19119D01*
X19448Y19161D01*
X19508Y19213D01*
X19559Y19275D01*
X19600Y19343D01*
X19630Y19417D01*
X19648Y19495D01*
X19653Y19574D01*
X19646Y19654D01*
X19627Y19731D01*
X19595Y19804D01*
X19552Y19871D01*
X19226Y20343D01*
X18950Y20847D01*
X18720Y21374D01*
X18540Y21919D01*
X18476Y22197D01*
Y25045D01*
X18540Y25323D01*
X18720Y25868D01*
X18950Y26395D01*
X19226Y26899D01*
X19547Y27375D01*
X19590Y27441D01*
X19620Y27513D01*
X19640Y27589D01*
X19647Y27668D01*
X19641Y27746D01*
X19624Y27823D01*
X19594Y27896D01*
X19554Y27964D01*
X19503Y28024D01*
X19444Y28076D01*
X19377Y28117D01*
X19305Y28148D01*
X19228Y28167D01*
X19150Y28174D01*
X19072Y28169D01*
X18995Y28151D01*
X18922Y28122D01*
X18854Y28082D01*
X18794Y28031D01*
X18743Y27971D01*
X18476Y27583D01*
Y42069D01*
X22543Y46137D01*
X23461Y45917D01*
X24606Y45826D01*
X24609Y45827D01*
Y30928D01*
X24606Y30929D01*
X23941Y30898D01*
X23281Y30807D01*
X22632Y30657D01*
X21999Y30448D01*
X21388Y30182D01*
X20804Y29862D01*
X20252Y29490D01*
X20191Y29438D01*
X20140Y29376D01*
X20099Y29308D01*
X20069Y29234D01*
X20052Y29156D01*
X20046Y29077D01*
X20053Y28997D01*
X20072Y28920D01*
X20104Y28847D01*
X20146Y28779D01*
X20198Y28719D01*
X20260Y28668D01*
X20328Y28627D01*
X20402Y28597D01*
X20480Y28579D01*
X20559Y28574D01*
X20639Y28581D01*
X20716Y28600D01*
X20789Y28632D01*
X20856Y28675D01*
X21328Y29001D01*
X21832Y29277D01*
X22359Y29506D01*
X22904Y29687D01*
X23463Y29816D01*
X24032Y29895D01*
X24606Y29921D01*
X24609Y29921D01*
Y17321D01*
X24606Y17321D01*
X24032Y17347D01*
X23463Y17425D01*
X22904Y17555D01*
X22359Y17735D01*
X21832Y17965D01*
X21328Y18241D01*
X20852Y18562D01*
X20786Y18605D01*
X20714Y18635D01*
X20638Y18655D01*
X20559Y18661D01*
X20481Y18656D01*
X20404Y18638D01*
X20331Y18609D01*
X20263Y18569D01*
X20203Y18518D01*
X20151Y18459D01*
X20110Y18392D01*
X20079Y18320D01*
X20060Y18243D01*
X20053Y18165D01*
X20058Y18086D01*
X20076Y18010D01*
X20105Y17937D01*
X20145Y17869D01*
X20196Y17809D01*
X20256Y17758D01*
X20804Y17380D01*
X21388Y17060D01*
X21999Y16794D01*
X22632Y16585D01*
X23281Y16435D01*
X23941Y16344D01*
X24606Y16313D01*
X24609Y16314D01*
Y0D01*
G37*
G36*
X18476Y22197D02*X18410Y22478D01*
X18332Y23047D01*
X18306Y23621D01*
X18332Y24195D01*
X18410Y24764D01*
X18476Y25045D01*
Y22197D01*
G37*
G36*
Y0D02*X0D01*
Y75196D01*
X2211D01*
X3230Y74177D01*
X3268Y74132D01*
X3448Y73979D01*
X3448Y73979D01*
X3560Y73910D01*
X3649Y73855D01*
X3649D01*
X3649Y73855D01*
X3777Y73802D01*
X3867Y73765D01*
X3867D01*
X3867Y73765D01*
X4097Y73710D01*
X4332Y73691D01*
X4391Y73696D01*
X18476D01*
Y57117D01*
X18082Y56473D01*
X17642Y55412D01*
X17374Y54294D01*
X17283Y53149D01*
X17374Y52003D01*
X17594Y51087D01*
X8901Y42394D01*
X8858Y42397D01*
X8230Y42348D01*
X7618Y42201D01*
X7036Y41960D01*
X6500Y41631D01*
X6021Y41222D01*
X5612Y40743D01*
X5283Y40207D01*
X5042Y39625D01*
X4895Y39013D01*
X4846Y38385D01*
X4895Y37757D01*
X5042Y37145D01*
X5283Y36563D01*
X5612Y36027D01*
X6021Y35548D01*
X6500Y35139D01*
X7036Y34810D01*
X7618Y34569D01*
X8230Y34422D01*
X8858Y34373D01*
X9486Y34422D01*
X10098Y34569D01*
X10680Y34810D01*
X11216Y35139D01*
X11278Y35191D01*
X11436Y35257D01*
X11906Y35545D01*
X12317Y35910D01*
X18476Y42069D01*
Y27583D01*
X18365Y27423D01*
X18045Y26839D01*
X17779Y26228D01*
X17570Y25595D01*
X17420Y24946D01*
X17329Y24286D01*
X17298Y23621D01*
X17329Y22955D01*
X17420Y22296D01*
X17570Y21647D01*
X17779Y21014D01*
X18045Y20403D01*
X18365Y19819D01*
X18476Y19655D01*
Y0D01*
G37*
G36*
X165354D02*X159282D01*
Y16553D01*
X159325Y16560D01*
X159437Y16597D01*
X159542Y16652D01*
X159637Y16722D01*
X159719Y16806D01*
X159788Y16902D01*
X159839Y17008D01*
X159987Y17416D01*
X160091Y17837D01*
X160153Y18267D01*
X160174Y18700D01*
X160153Y19133D01*
X160091Y19563D01*
X159987Y19984D01*
X159844Y20394D01*
X159791Y20500D01*
X159722Y20596D01*
X159639Y20681D01*
X159543Y20751D01*
X159438Y20806D01*
X159326Y20843D01*
X159282Y20851D01*
Y52971D01*
X159325Y52978D01*
X159437Y53015D01*
X159542Y53070D01*
X159637Y53140D01*
X159719Y53224D01*
X159788Y53320D01*
X159839Y53426D01*
X159987Y53834D01*
X160091Y54255D01*
X160153Y54685D01*
X160174Y55118D01*
X160153Y55551D01*
X160091Y55981D01*
X159987Y56402D01*
X159844Y56812D01*
X159791Y56918D01*
X159722Y57014D01*
X159639Y57099D01*
X159543Y57169D01*
X159438Y57224D01*
X159326Y57261D01*
X159282Y57269D01*
Y65349D01*
X159709Y65848D01*
X160134Y66542D01*
X160294Y66929D01*
X165354D01*
Y0D01*
G37*
G36*
X159282D02*X155671D01*
Y14195D01*
X156102Y14216D01*
X156532Y14278D01*
X156953Y14382D01*
X157363Y14525D01*
X157469Y14578D01*
X157565Y14647D01*
X157650Y14730D01*
X157720Y14825D01*
X157775Y14931D01*
X157812Y15043D01*
X157832Y15160D01*
X157833Y15279D01*
X157815Y15396D01*
X157779Y15509D01*
X157726Y15615D01*
X157657Y15712D01*
X157574Y15796D01*
X157478Y15867D01*
X157373Y15921D01*
X157260Y15959D01*
X157143Y15978D01*
X157025Y15979D01*
X156908Y15961D01*
X156795Y15923D01*
X156524Y15824D01*
X156243Y15756D01*
X155957Y15714D01*
X155671Y15700D01*
Y21700D01*
X155957Y21686D01*
X156243Y21644D01*
X156524Y21576D01*
X156797Y21480D01*
X156908Y21442D01*
X157025Y21425D01*
X157143Y21425D01*
X157260Y21445D01*
X157372Y21482D01*
X157476Y21536D01*
X157571Y21606D01*
X157654Y21691D01*
X157723Y21787D01*
X157776Y21892D01*
X157811Y22005D01*
X157829Y22121D01*
X157828Y22239D01*
X157809Y22356D01*
X157772Y22468D01*
X157717Y22573D01*
X157647Y22668D01*
X157563Y22751D01*
X157467Y22819D01*
X157361Y22870D01*
X156953Y23018D01*
X156532Y23122D01*
X156102Y23184D01*
X155671Y23205D01*
Y50613D01*
X156102Y50634D01*
X156532Y50696D01*
X156953Y50800D01*
X157363Y50943D01*
X157469Y50996D01*
X157565Y51065D01*
X157650Y51148D01*
X157720Y51243D01*
X157775Y51349D01*
X157812Y51461D01*
X157832Y51578D01*
X157833Y51697D01*
X157815Y51814D01*
X157779Y51927D01*
X157726Y52033D01*
X157657Y52130D01*
X157574Y52214D01*
X157478Y52285D01*
X157373Y52339D01*
X157260Y52377D01*
X157143Y52396D01*
X157025Y52397D01*
X156908Y52379D01*
X156795Y52341D01*
X156524Y52242D01*
X156243Y52174D01*
X155957Y52132D01*
X155671Y52118D01*
Y58118D01*
X155957Y58104D01*
X156243Y58063D01*
X156524Y57994D01*
X156797Y57898D01*
X156908Y57860D01*
X157025Y57843D01*
X157143Y57843D01*
X157260Y57863D01*
X157372Y57900D01*
X157476Y57954D01*
X157571Y58024D01*
X157654Y58109D01*
X157723Y58205D01*
X157776Y58310D01*
X157811Y58423D01*
X157829Y58539D01*
X157828Y58657D01*
X157809Y58774D01*
X157772Y58886D01*
X157717Y58991D01*
X157647Y59086D01*
X157563Y59169D01*
X157467Y59237D01*
X157361Y59288D01*
X156953Y59436D01*
X156532Y59540D01*
X156102Y59602D01*
X155671Y59623D01*
Y63722D01*
X156323Y63774D01*
X157115Y63964D01*
X157867Y64275D01*
X158561Y64700D01*
X159180Y65229D01*
X159282Y65349D01*
Y57269D01*
X159209Y57281D01*
X159090Y57282D01*
X158973Y57264D01*
X158860Y57228D01*
X158754Y57175D01*
X158657Y57106D01*
X158573Y57023D01*
X158502Y56927D01*
X158448Y56822D01*
X158410Y56710D01*
X158391Y56593D01*
X158390Y56474D01*
X158408Y56357D01*
X158446Y56245D01*
X158544Y55973D01*
X158613Y55693D01*
X158655Y55407D01*
X158669Y55118D01*
X158655Y54829D01*
X158613Y54544D01*
X158544Y54263D01*
X158449Y53990D01*
X158411Y53879D01*
X158393Y53762D01*
X158394Y53644D01*
X158414Y53527D01*
X158451Y53415D01*
X158505Y53311D01*
X158575Y53216D01*
X158659Y53133D01*
X158755Y53064D01*
X158861Y53011D01*
X158974Y52976D01*
X159090Y52958D01*
X159208Y52959D01*
X159282Y52971D01*
Y20851D01*
X159209Y20863D01*
X159090Y20864D01*
X158973Y20846D01*
X158860Y20810D01*
X158754Y20757D01*
X158657Y20688D01*
X158573Y20605D01*
X158502Y20509D01*
X158448Y20404D01*
X158410Y20292D01*
X158391Y20175D01*
X158390Y20056D01*
X158408Y19939D01*
X158446Y19826D01*
X158544Y19555D01*
X158613Y19275D01*
X158655Y18989D01*
X158669Y18700D01*
X158655Y18411D01*
X158613Y18125D01*
X158544Y17845D01*
X158449Y17572D01*
X158411Y17461D01*
X158393Y17344D01*
X158394Y17226D01*
X158414Y17109D01*
X158451Y16997D01*
X158505Y16893D01*
X158575Y16798D01*
X158659Y16715D01*
X158755Y16646D01*
X158861Y16593D01*
X158974Y16557D01*
X159090Y16540D01*
X159208Y16541D01*
X159282Y16553D01*
Y0D01*
G37*
G36*
X155671D02*X152056D01*
Y16549D01*
X152129Y16537D01*
X152248Y16536D01*
X152365Y16554D01*
X152478Y16590D01*
X152584Y16643D01*
X152681Y16712D01*
X152765Y16795D01*
X152835Y16891D01*
X152890Y16996D01*
X152928Y17108D01*
X152947Y17225D01*
X152948Y17344D01*
X152930Y17461D01*
X152892Y17574D01*
X152793Y17845D01*
X152724Y18125D01*
X152683Y18411D01*
X152669Y18700D01*
X152683Y18989D01*
X152724Y19275D01*
X152793Y19555D01*
X152889Y19828D01*
X152927Y19939D01*
X152944Y20056D01*
X152943Y20174D01*
X152924Y20291D01*
X152887Y20403D01*
X152833Y20507D01*
X152762Y20602D01*
X152678Y20685D01*
X152582Y20754D01*
X152477Y20807D01*
X152364Y20843D01*
X152248Y20860D01*
X152129Y20859D01*
X152056Y20847D01*
Y52967D01*
X152129Y52955D01*
X152248Y52954D01*
X152365Y52972D01*
X152478Y53008D01*
X152584Y53061D01*
X152681Y53130D01*
X152765Y53213D01*
X152835Y53309D01*
X152890Y53414D01*
X152928Y53527D01*
X152947Y53644D01*
X152948Y53762D01*
X152930Y53879D01*
X152892Y53992D01*
X152793Y54263D01*
X152724Y54544D01*
X152683Y54829D01*
X152669Y55118D01*
X152683Y55407D01*
X152724Y55693D01*
X152793Y55973D01*
X152889Y56246D01*
X152927Y56357D01*
X152944Y56474D01*
X152943Y56592D01*
X152924Y56709D01*
X152887Y56821D01*
X152833Y56926D01*
X152762Y57021D01*
X152678Y57103D01*
X152582Y57172D01*
X152477Y57225D01*
X152364Y57261D01*
X152248Y57278D01*
X152129Y57277D01*
X152056Y57265D01*
Y65048D01*
X152463Y64700D01*
X153157Y64275D01*
X153909Y63964D01*
X154700Y63774D01*
X155512Y63710D01*
X155671Y63722D01*
Y59623D01*
X155669Y59623D01*
X155235Y59602D01*
X154806Y59540D01*
X154385Y59436D01*
X153975Y59293D01*
X153869Y59240D01*
X153773Y59171D01*
X153688Y59088D01*
X153618Y58993D01*
X153563Y58887D01*
X153526Y58775D01*
X153506Y58658D01*
X153505Y58539D01*
X153523Y58422D01*
X153559Y58309D01*
X153612Y58203D01*
X153681Y58106D01*
X153764Y58022D01*
X153860Y57951D01*
X153965Y57897D01*
X154077Y57859D01*
X154194Y57840D01*
X154313Y57839D01*
X154430Y57857D01*
X154542Y57895D01*
X154814Y57994D01*
X155094Y58063D01*
X155380Y58104D01*
X155669Y58118D01*
X155671Y58118D01*
Y52118D01*
X155669Y52118D01*
X155380Y52132D01*
X155094Y52174D01*
X154814Y52242D01*
X154541Y52338D01*
X154429Y52376D01*
X154313Y52393D01*
X154195Y52393D01*
X154078Y52373D01*
X153966Y52336D01*
X153861Y52282D01*
X153766Y52212D01*
X153684Y52127D01*
X153615Y52031D01*
X153562Y51926D01*
X153526Y51813D01*
X153509Y51697D01*
X153510Y51579D01*
X153529Y51462D01*
X153566Y51350D01*
X153621Y51245D01*
X153691Y51150D01*
X153775Y51067D01*
X153871Y50999D01*
X153977Y50948D01*
X154385Y50800D01*
X154806Y50696D01*
X155235Y50634D01*
X155669Y50613D01*
X155671Y50613D01*
Y23205D01*
X155669Y23205D01*
X155235Y23184D01*
X154806Y23122D01*
X154385Y23018D01*
X153975Y22875D01*
X153869Y22822D01*
X153773Y22753D01*
X153688Y22670D01*
X153618Y22575D01*
X153563Y22469D01*
X153526Y22357D01*
X153506Y22240D01*
X153505Y22121D01*
X153523Y22004D01*
X153559Y21891D01*
X153612Y21785D01*
X153681Y21688D01*
X153764Y21604D01*
X153860Y21533D01*
X153965Y21479D01*
X154077Y21441D01*
X154194Y21422D01*
X154313Y21421D01*
X154430Y21439D01*
X154542Y21477D01*
X154814Y21576D01*
X155094Y21644D01*
X155380Y21686D01*
X155669Y21700D01*
X155671Y21700D01*
Y15700D01*
X155669Y15700D01*
X155380Y15714D01*
X155094Y15756D01*
X154814Y15824D01*
X154541Y15920D01*
X154429Y15958D01*
X154313Y15975D01*
X154195Y15975D01*
X154078Y15955D01*
X153966Y15918D01*
X153861Y15864D01*
X153766Y15794D01*
X153684Y15709D01*
X153615Y15613D01*
X153562Y15508D01*
X153526Y15395D01*
X153509Y15279D01*
X153510Y15161D01*
X153529Y15044D01*
X153566Y14932D01*
X153621Y14827D01*
X153691Y14732D01*
X153775Y14649D01*
X153871Y14581D01*
X153977Y14530D01*
X154385Y14382D01*
X154806Y14278D01*
X155235Y14216D01*
X155669Y14195D01*
X155671Y14195D01*
Y0D01*
G37*
G36*
X152056D02*X150000D01*
Y16726D01*
X150028Y16758D01*
X150089Y16858D01*
X150134Y16968D01*
X150162Y17082D01*
X150169Y17200D01*
Y20200D01*
X150162Y20318D01*
X150134Y20432D01*
X150089Y20542D01*
X150028Y20642D01*
X150000Y20674D01*
Y53144D01*
X150028Y53176D01*
X150089Y53276D01*
X150134Y53386D01*
X150162Y53500D01*
X150169Y53618D01*
Y56618D01*
X150162Y56736D01*
X150134Y56851D01*
X150089Y56960D01*
X150028Y57060D01*
X150000Y57092D01*
Y66929D01*
X150729D01*
X150890Y66542D01*
X151315Y65848D01*
X151844Y65229D01*
X152056Y65048D01*
Y57265D01*
X152013Y57258D01*
X151901Y57221D01*
X151796Y57166D01*
X151701Y57096D01*
X151618Y57012D01*
X151550Y56916D01*
X151499Y56810D01*
X151351Y56402D01*
X151247Y55981D01*
X151185Y55551D01*
X151164Y55118D01*
X151185Y54685D01*
X151247Y54255D01*
X151351Y53834D01*
X151494Y53424D01*
X151547Y53318D01*
X151616Y53222D01*
X151699Y53137D01*
X151794Y53067D01*
X151900Y53012D01*
X152012Y52975D01*
X152056Y52967D01*
Y20847D01*
X152013Y20840D01*
X151901Y20803D01*
X151796Y20748D01*
X151701Y20678D01*
X151618Y20594D01*
X151550Y20498D01*
X151499Y20392D01*
X151351Y19984D01*
X151247Y19563D01*
X151185Y19133D01*
X151164Y18700D01*
X151185Y18267D01*
X151247Y17837D01*
X151351Y17416D01*
X151494Y17006D01*
X151547Y16900D01*
X151616Y16804D01*
X151699Y16719D01*
X151794Y16649D01*
X151900Y16594D01*
X152012Y16557D01*
X152056Y16549D01*
Y0D01*
G37*
G36*
X47396Y101515D02*X47502Y101343D01*
X47911Y100864D01*
X48390Y100455D01*
X48926Y100126D01*
X49508Y99885D01*
X50120Y99738D01*
X50748Y99689D01*
X51376Y99738D01*
X51988Y99885D01*
X52570Y100126D01*
X53106Y100455D01*
X53585Y100864D01*
X53994Y101343D01*
X54323Y101879D01*
X54564Y102461D01*
X54711Y103073D01*
X54748Y103701D01*
X54725Y104085D01*
X55215Y104287D01*
X55773Y104578D01*
X56304Y104916D01*
X56567Y105118D01*
X91413D01*
Y83467D01*
X91262Y83374D01*
X90927Y83088D01*
X90641Y82753D01*
X90410Y82377D01*
X90242Y81970D01*
X90139Y81541D01*
X90104Y81102D01*
X90139Y80663D01*
X90242Y80234D01*
X90410Y79827D01*
X90641Y79451D01*
X90927Y79116D01*
X91262Y78830D01*
X91638Y78599D01*
X92045Y78431D01*
X92474Y78328D01*
X92913Y78293D01*
X93352Y78328D01*
X93781Y78431D01*
X94188Y78599D01*
X94564Y78830D01*
X94899Y79116D01*
X95185Y79451D01*
X95416Y79827D01*
X95584Y80234D01*
X95687Y80663D01*
X95713Y81102D01*
X95687Y81541D01*
X95584Y81970D01*
X95416Y82377D01*
X95185Y82753D01*
X94899Y83088D01*
X94564Y83374D01*
X94413Y83467D01*
Y105118D01*
X95427D01*
X95433Y87277D01*
X95462Y87157D01*
X95509Y87042D01*
X95574Y86937D01*
X95654Y86842D01*
X95748Y86762D01*
X95854Y86697D01*
X95969Y86650D01*
X96089Y86621D01*
X96212Y86614D01*
X102443Y86621D01*
X102563Y86650D01*
X102678Y86697D01*
X102784Y86762D01*
X102878Y86842D01*
X102958Y86937D01*
X103023Y87042D01*
X103070Y87157D01*
X103099Y87277D01*
X103106Y87401D01*
X103100Y105118D01*
X104877D01*
X104880Y76377D01*
X47396D01*
Y76589D01*
X47403Y76588D01*
X48109Y76644D01*
X48798Y76809D01*
X49452Y77080D01*
X50056Y77450D01*
X50595Y77910D01*
X51055Y78449D01*
X51425Y79053D01*
X51696Y79707D01*
X51861Y80396D01*
X51903Y81102D01*
X51861Y81808D01*
X51696Y82497D01*
X51425Y83151D01*
X51055Y83755D01*
X50595Y84294D01*
X50056Y84754D01*
X49452Y85124D01*
X48798Y85395D01*
X48109Y85560D01*
X47403Y85616D01*
X47396Y85615D01*
Y101515D01*
G37*
G36*
X37396Y105118D02*X38946D01*
X39508Y104885D01*
X40120Y104738D01*
X40748Y104689D01*
X41376Y104738D01*
X41988Y104885D01*
X42550Y105118D01*
X47005D01*
X46932Y104941D01*
X46785Y104329D01*
X46736Y103701D01*
X46785Y103073D01*
X46932Y102461D01*
X47173Y101879D01*
X47396Y101515D01*
Y85615D01*
X46697Y85560D01*
X46008Y85395D01*
X45354Y85124D01*
X44750Y84754D01*
X44211Y84294D01*
X43751Y83755D01*
X43381Y83151D01*
X43110Y82497D01*
X42945Y81808D01*
X42889Y81102D01*
X42945Y80396D01*
X43110Y79707D01*
X43381Y79053D01*
X43751Y78449D01*
X44211Y77910D01*
X44750Y77450D01*
X45354Y77080D01*
X46008Y76809D01*
X46697Y76644D01*
X47396Y76589D01*
Y76377D01*
X37396D01*
Y76589D01*
X37403Y76588D01*
X38109Y76644D01*
X38798Y76809D01*
X39452Y77080D01*
X40056Y77450D01*
X40595Y77910D01*
X41055Y78449D01*
X41425Y79053D01*
X41696Y79707D01*
X41861Y80396D01*
X41903Y81102D01*
X41861Y81808D01*
X41696Y82497D01*
X41425Y83151D01*
X41055Y83755D01*
X40595Y84294D01*
X40056Y84754D01*
X39452Y85124D01*
X38798Y85395D01*
X38109Y85560D01*
X37403Y85616D01*
X37396Y85615D01*
Y105118D01*
G37*
G36*
X31016D02*X37396D01*
Y85615D01*
X36697Y85560D01*
X36008Y85395D01*
X35354Y85124D01*
X34750Y84754D01*
X34211Y84294D01*
X33751Y83755D01*
X33381Y83151D01*
X33110Y82497D01*
X32945Y81808D01*
X32889Y81102D01*
X32945Y80396D01*
X33110Y79707D01*
X33381Y79053D01*
X33751Y78449D01*
X34211Y77910D01*
X34750Y77450D01*
X35354Y77080D01*
X36008Y76809D01*
X36697Y76644D01*
X37396Y76589D01*
Y76377D01*
X31016D01*
Y78955D01*
X31059Y78962D01*
X31171Y78999D01*
X31276Y79054D01*
X31371Y79124D01*
X31454Y79208D01*
X31522Y79304D01*
X31573Y79410D01*
X31721Y79818D01*
X31825Y80239D01*
X31887Y80668D01*
X31908Y81102D01*
X31887Y81535D01*
X31825Y81965D01*
X31721Y82386D01*
X31578Y82796D01*
X31525Y82902D01*
X31456Y82998D01*
X31373Y83083D01*
X31278Y83153D01*
X31172Y83208D01*
X31060Y83245D01*
X31016Y83252D01*
Y105118D01*
G37*
G36*
X27401D02*X31016D01*
Y83252D01*
X30943Y83265D01*
X30824Y83266D01*
X30707Y83248D01*
X30594Y83212D01*
X30488Y83159D01*
X30391Y83090D01*
X30307Y83007D01*
X30236Y82911D01*
X30182Y82806D01*
X30144Y82693D01*
X30125Y82576D01*
X30124Y82458D01*
X30142Y82341D01*
X30180Y82228D01*
X30279Y81957D01*
X30347Y81676D01*
X30389Y81390D01*
X30403Y81102D01*
X30389Y80813D01*
X30347Y80527D01*
X30279Y80247D01*
X30183Y79974D01*
X30145Y79862D01*
X30128Y79746D01*
X30128Y79628D01*
X30148Y79511D01*
X30185Y79399D01*
X30239Y79294D01*
X30309Y79199D01*
X30394Y79117D01*
X30490Y79048D01*
X30595Y78995D01*
X30708Y78959D01*
X30824Y78942D01*
X30942Y78943D01*
X31016Y78955D01*
Y76377D01*
X27738D01*
X27700Y76471D01*
X27616Y76607D01*
X27836Y76618D01*
X28266Y76680D01*
X28687Y76784D01*
X29097Y76927D01*
X29203Y76980D01*
X29299Y77049D01*
X29384Y77132D01*
X29454Y77227D01*
X29509Y77333D01*
X29546Y77445D01*
X29566Y77562D01*
X29567Y77681D01*
X29549Y77798D01*
X29513Y77911D01*
X29460Y78017D01*
X29391Y78114D01*
X29308Y78198D01*
X29212Y78268D01*
X29107Y78323D01*
X28995Y78361D01*
X28878Y78380D01*
X28759Y78381D01*
X28642Y78363D01*
X28529Y78325D01*
X28258Y78226D01*
X27978Y78157D01*
X27692Y78116D01*
X27403Y78102D01*
X27401Y78102D01*
Y84102D01*
X27403Y84102D01*
X27692Y84088D01*
X27978Y84046D01*
X28258Y83977D01*
X28531Y83882D01*
X28642Y83844D01*
X28759Y83826D01*
X28877Y83827D01*
X28994Y83847D01*
X29106Y83884D01*
X29210Y83938D01*
X29305Y84008D01*
X29388Y84092D01*
X29457Y84188D01*
X29510Y84294D01*
X29546Y84407D01*
X29563Y84523D01*
X29562Y84641D01*
X29543Y84758D01*
X29506Y84870D01*
X29451Y84975D01*
X29381Y85070D01*
X29297Y85152D01*
X29201Y85221D01*
X29095Y85272D01*
X28687Y85420D01*
X28266Y85524D01*
X27836Y85586D01*
X27403Y85607D01*
X27401Y85607D01*
Y105118D01*
G37*
G36*
X23790Y104684D02*X24061Y104706D01*
X24490Y104809D01*
X24897Y104977D01*
X25127Y105118D01*
X27401D01*
Y85607D01*
X26970Y85586D01*
X26540Y85524D01*
X26119Y85420D01*
X25709Y85277D01*
X25603Y85224D01*
X25507Y85155D01*
X25422Y85072D01*
X25352Y84976D01*
X25297Y84871D01*
X25260Y84759D01*
X25240Y84642D01*
X25239Y84523D01*
X25257Y84406D01*
X25293Y84293D01*
X25346Y84187D01*
X25415Y84090D01*
X25498Y84006D01*
X25594Y83935D01*
X25699Y83881D01*
X25811Y83843D01*
X25928Y83824D01*
X26047Y83823D01*
X26164Y83841D01*
X26277Y83879D01*
X26548Y83977D01*
X26828Y84046D01*
X27114Y84088D01*
X27401Y84102D01*
Y78102D01*
X27114Y78116D01*
X26828Y78157D01*
X26548Y78226D01*
X26275Y78322D01*
X26164Y78360D01*
X26047Y78377D01*
X25929Y78376D01*
X25812Y78357D01*
X25700Y78320D01*
X25596Y78266D01*
X25501Y78195D01*
X25418Y78111D01*
X25349Y78015D01*
X25338Y77994D01*
X25197Y78005D01*
X24758Y77970D01*
X24329Y77867D01*
X23922Y77698D01*
X23790Y77618D01*
Y78951D01*
X23863Y78939D01*
X23982Y78938D01*
X24099Y78956D01*
X24212Y78992D01*
X24318Y79045D01*
X24415Y79114D01*
X24499Y79197D01*
X24570Y79293D01*
X24624Y79398D01*
X24662Y79510D01*
X24681Y79627D01*
X24682Y79746D01*
X24664Y79863D01*
X24626Y79975D01*
X24527Y80247D01*
X24459Y80527D01*
X24417Y80813D01*
X24403Y81102D01*
X24417Y81390D01*
X24459Y81676D01*
X24527Y81957D01*
X24623Y82230D01*
X24661Y82341D01*
X24678Y82458D01*
X24678Y82576D01*
X24658Y82693D01*
X24621Y82805D01*
X24567Y82909D01*
X24497Y83004D01*
X24412Y83087D01*
X24316Y83156D01*
X24211Y83209D01*
X24098Y83244D01*
X23982Y83262D01*
X23864Y83261D01*
X23790Y83249D01*
Y104684D01*
G37*
G36*
X8980Y85599D02*Y95703D01*
X9134Y95331D01*
X9743Y94338D01*
X10499Y93452D01*
X11385Y92696D01*
X12378Y92087D01*
X13454Y91641D01*
X14587Y91370D01*
X15748Y91278D01*
X16909Y91370D01*
X18042Y91641D01*
X19118Y92087D01*
X20111Y92696D01*
X20997Y93452D01*
X21753Y94338D01*
X22362Y95331D01*
X22808Y96407D01*
X23079Y97540D01*
X23148Y98701D01*
X23079Y99862D01*
X22808Y100995D01*
X22362Y102071D01*
X21753Y103064D01*
X20997Y103950D01*
X20111Y104706D01*
X19439Y105118D01*
X22117D01*
X22347Y104977D01*
X22754Y104809D01*
X23183Y104706D01*
X23622Y104671D01*
X23790Y104684D01*
Y83249D01*
X23747Y83242D01*
X23635Y83205D01*
X23530Y83150D01*
X23435Y83080D01*
X23352Y82996D01*
X23284Y82900D01*
X23233Y82794D01*
X23085Y82386D01*
X22981Y81965D01*
X22919Y81535D01*
X22898Y81102D01*
X22919Y80668D01*
X22981Y80239D01*
X23085Y79818D01*
X23228Y79408D01*
X23281Y79302D01*
X23350Y79206D01*
X23433Y79121D01*
X23528Y79051D01*
X23634Y78996D01*
X23746Y78959D01*
X23790Y78951D01*
Y77618D01*
X23546Y77468D01*
X23211Y77182D01*
X22925Y76847D01*
X22832Y76696D01*
X18327D01*
X18798Y76809D01*
X19452Y77080D01*
X20056Y77450D01*
X20595Y77910D01*
X21055Y78449D01*
X21425Y79053D01*
X21696Y79707D01*
X21861Y80396D01*
X21903Y81102D01*
X21861Y81808D01*
X21696Y82497D01*
X21425Y83151D01*
X21055Y83755D01*
X20595Y84294D01*
X20056Y84754D01*
X19452Y85124D01*
X18798Y85395D01*
X18109Y85560D01*
X17403Y85616D01*
X16697Y85560D01*
X16008Y85395D01*
X15354Y85124D01*
X14750Y84754D01*
X14211Y84294D01*
X13751Y83755D01*
X13381Y83151D01*
X13110Y82497D01*
X12945Y81808D01*
X12889Y81102D01*
X12945Y80396D01*
X13110Y79707D01*
X13381Y79053D01*
X13751Y78449D01*
X14211Y77910D01*
X14750Y77450D01*
X15354Y77080D01*
X16008Y76809D01*
X16479Y76696D01*
X10929D01*
X11086Y76761D01*
X11287Y76885D01*
X11467Y77038D01*
X11620Y77217D01*
X11744Y77419D01*
X11834Y77637D01*
X11889Y77867D01*
X11903Y78102D01*
X11889Y84337D01*
X11834Y84567D01*
X11744Y84785D01*
X11620Y84986D01*
X11467Y85166D01*
X11287Y85319D01*
X11086Y85443D01*
X10868Y85533D01*
X10638Y85588D01*
X10403Y85602D01*
X8980Y85599D01*
G37*
G36*
X128106Y167322D02*X133858D01*
Y64960D01*
X124016D01*
Y145123D01*
X125035Y146142D01*
X125080Y146180D01*
X125233Y146359D01*
X125233Y146360D01*
X125233Y146360D01*
X125233Y146360D01*
X125256Y146396D01*
X125357Y146561D01*
X125357Y146561D01*
X125357Y146561D01*
X125380Y146617D01*
X125447Y146779D01*
X125447Y146779D01*
X125450Y146793D01*
X125502Y147009D01*
X125502Y147009D01*
X125502Y147009D01*
X125502Y147009D01*
X125521Y147244D01*
X125516Y147303D01*
Y164733D01*
X128106Y167322D01*
G37*
G36*
X13264Y122635D02*Y110660D01*
X6725Y104122D01*
X6737Y104331D01*
X6711Y104770D01*
X6608Y105199D01*
X6440Y105606D01*
X6209Y105982D01*
X5923Y106317D01*
X5588Y106603D01*
X5212Y106834D01*
X4805Y107002D01*
X4376Y107105D01*
X3937Y107140D01*
X3498Y107105D01*
X3069Y107002D01*
X2662Y106834D01*
X2286Y106603D01*
X1951Y106317D01*
X1665Y105982D01*
X1434Y105606D01*
X1266Y105199D01*
X1163Y104770D01*
X1128Y104331D01*
X1163Y103892D01*
X1266Y103463D01*
X1434Y103056D01*
X1665Y102680D01*
X1951Y102345D01*
X2286Y102059D01*
X2437Y101966D01*
Y87235D01*
X1737Y86535D01*
X1692Y86497D01*
X1539Y86317D01*
X1539Y86317D01*
X1539Y86317D01*
X1464Y86195D01*
X1415Y86116D01*
X1415Y86116D01*
X1415Y86116D01*
X1400Y86080D01*
X1325Y85898D01*
X1325Y85898D01*
X1325Y85898D01*
X1298Y85787D01*
X1270Y85668D01*
X1270Y85668D01*
X1270Y85668D01*
X1251Y85433D01*
X1256Y85374D01*
Y76831D01*
X1251Y76772D01*
X1270Y76537D01*
X1308Y76377D01*
X0D01*
Y172047D01*
X1256D01*
Y150197D01*
X1270Y149962D01*
X1325Y149732D01*
X1415Y149514D01*
X1539Y149313D01*
X1692Y149133D01*
X1872Y148980D01*
X2073Y148856D01*
X2163Y148819D01*
X4316Y146667D01*
Y143701D01*
X4316Y143700D01*
X4316Y143700D01*
X4348Y142703D01*
X4478Y141713D01*
X4695Y140738D01*
X4995Y139786D01*
X5377Y138864D01*
X5838Y137978D01*
X6374Y137136D01*
X6982Y136344D01*
X7656Y135608D01*
X8392Y134934D01*
X9184Y134326D01*
X10026Y133790D01*
X10912Y133329D01*
X11834Y132947D01*
X12786Y132647D01*
X13761Y132430D01*
X13943Y132406D01*
X13896Y132395D01*
X13489Y132226D01*
X13113Y131996D01*
X12778Y131710D01*
X12492Y131375D01*
X12261Y130999D01*
X12093Y130592D01*
X11990Y130163D01*
X11955Y129724D01*
X11990Y129285D01*
X12093Y128856D01*
X12261Y128449D01*
X12492Y128073D01*
X12778Y127738D01*
X13113Y127452D01*
X13260Y127362D01*
X13113Y127272D01*
X12778Y126986D01*
X12492Y126651D01*
X12261Y126275D01*
X12093Y125868D01*
X11990Y125439D01*
X11955Y125000D01*
X11990Y124561D01*
X12093Y124132D01*
X12261Y123725D01*
X12492Y123349D01*
X12778Y123014D01*
X13113Y122728D01*
X13264Y122635D01*
G37*
G36*
X38047Y115748D02*X36351D01*
X36331Y115829D01*
X36163Y116236D01*
X35932Y116611D01*
X35646Y116946D01*
X35311Y117232D01*
X35153Y117329D01*
Y119328D01*
X35166Y119488D01*
X35147Y119723D01*
X35092Y119953D01*
X35002Y120171D01*
X34878Y120372D01*
X34722Y120549D01*
X27636Y127636D01*
X27459Y127792D01*
X27258Y127916D01*
X27167Y127953D01*
X26788Y128333D01*
Y132480D01*
X26775Y132699D01*
X26774Y132702D01*
X26770Y132818D01*
X26700Y133347D01*
X26585Y133869D01*
X26424Y134378D01*
X26220Y134872D01*
X25973Y135346D01*
X25686Y135796D01*
X25361Y136220D01*
X25000Y136614D01*
X24606Y136975D01*
X24182Y137300D01*
X23732Y137587D01*
X23258Y137834D01*
X22764Y138038D01*
X22255Y138199D01*
X21733Y138314D01*
X21204Y138384D01*
X20931Y138396D01*
X20997Y138452D01*
X21753Y139338D01*
X22362Y140331D01*
X22808Y141407D01*
X23079Y142540D01*
X23148Y143701D01*
X23079Y144862D01*
X22808Y145995D01*
X22362Y147071D01*
X21753Y148064D01*
X20997Y148950D01*
X20111Y149706D01*
X19462Y150104D01*
X19761Y150287D01*
X20096Y150573D01*
X20382Y150908D01*
X20613Y151284D01*
X20781Y151691D01*
X20884Y152120D01*
X20910Y152559D01*
X20884Y152998D01*
X20781Y153427D01*
X20613Y153834D01*
X20382Y154210D01*
X20096Y154545D01*
X19761Y154831D01*
X19602Y154929D01*
Y156862D01*
X24636Y161896D01*
X24680Y161934D01*
X24833Y162112D01*
X24833Y162112D01*
X24955Y162313D01*
X25045Y162530D01*
X25045Y162530D01*
X25088Y162705D01*
X25100Y162758D01*
Y162758D01*
X25100Y162758D01*
X25119Y162992D01*
X25114Y163051D01*
Y167188D01*
X25122Y167323D01*
X25094Y168175D01*
X24983Y169021D01*
X24798Y169854D01*
X24542Y170667D01*
X24215Y171455D01*
X23821Y172212D01*
X23425Y172834D01*
X33766D01*
X30088Y169216D01*
X30038Y169174D01*
X29914Y169029D01*
X29892Y169004D01*
X29889Y168999D01*
X29885Y168994D01*
X29826Y168899D01*
X29767Y168804D01*
X29765Y168798D01*
X29761Y168793D01*
X29718Y168690D01*
X29675Y168587D01*
X29673Y168581D01*
X29671Y168575D01*
X29645Y168466D01*
X29618Y168358D01*
X29617Y168351D01*
X29616Y168345D01*
X29614Y168312D01*
X29597Y168122D01*
X29602Y168057D01*
X29603Y131161D01*
X29598Y131102D01*
X29617Y130867D01*
X29672Y130637D01*
X29762Y130419D01*
X29886Y130217D01*
X29886Y130217D01*
X30039Y130038D01*
X30084Y130000D01*
X37481Y122603D01*
X37519Y122558D01*
X37699Y122405D01*
X37699Y122405D01*
X37811Y122336D01*
X37900Y122281D01*
X37900D01*
X37900Y122281D01*
X38028Y122228D01*
X38118Y122191D01*
X38118D01*
X38118Y122191D01*
X38348Y122136D01*
X38583Y122117D01*
X38642Y122122D01*
X38675D01*
X38390Y121947D01*
X37911Y121538D01*
X37502Y121059D01*
X37173Y120523D01*
X36932Y119941D01*
X36785Y119329D01*
X36736Y118701D01*
X36785Y118073D01*
X36932Y117461D01*
X37173Y116879D01*
X37502Y116343D01*
X37911Y115864D01*
X38047Y115748D01*
G37*
G36*
X44521Y107358D02*X49125D01*
X48926Y107276D01*
X48390Y106947D01*
X47911Y106538D01*
X47502Y106059D01*
X47173Y105523D01*
X46932Y104941D01*
X46785Y104329D01*
X46754Y103937D01*
X21008D01*
X20997Y103950D01*
X20111Y104706D01*
X19118Y105315D01*
X18042Y105761D01*
X16909Y106032D01*
X15748Y106124D01*
X14587Y106032D01*
X13454Y105761D01*
X12598Y105406D01*
Y105752D01*
X15783Y108937D01*
X15828Y108975D01*
X15981Y109154D01*
X15981Y109154D01*
X15981Y109154D01*
X15981Y109154D01*
X16032Y109237D01*
X16105Y109356D01*
X16105Y109356D01*
X16105Y109356D01*
X16143Y109449D01*
X16195Y109574D01*
X16195Y109574D01*
X16195Y109574D01*
X16214Y109654D01*
X16250Y109803D01*
X16250Y109803D01*
X16250Y109804D01*
X16250Y109804D01*
X16269Y110039D01*
X16264Y110098D01*
Y122635D01*
X16415Y122728D01*
X16750Y123014D01*
X17036Y123349D01*
X17267Y123725D01*
X17435Y124132D01*
X17436Y124137D01*
X17440Y124133D01*
X17485Y124095D01*
X22122Y119458D01*
Y116538D01*
X21971Y116445D01*
X21636Y116159D01*
X21350Y115824D01*
X21119Y115448D01*
X20951Y115041D01*
X20848Y114613D01*
X20813Y114173D01*
X20848Y113734D01*
X20951Y113305D01*
X21119Y112898D01*
X21350Y112522D01*
X21636Y112187D01*
X21971Y111901D01*
X22347Y111671D01*
X22754Y111502D01*
X23183Y111399D01*
X23622Y111365D01*
X24061Y111399D01*
X24490Y111502D01*
X24897Y111671D01*
X25273Y111901D01*
X25608Y112187D01*
X25894Y112522D01*
X26059Y112791D01*
Y112038D01*
X24233Y110213D01*
X24061Y110254D01*
X23622Y110288D01*
X23183Y110254D01*
X22754Y110151D01*
X22347Y109982D01*
X21971Y109752D01*
X21636Y109466D01*
X21350Y109131D01*
X21119Y108755D01*
X20951Y108348D01*
X20848Y107919D01*
X20813Y107480D01*
X20848Y107040D01*
X20951Y106612D01*
X21119Y106205D01*
X21350Y105829D01*
X21636Y105494D01*
X21971Y105208D01*
X22347Y104977D01*
X22754Y104809D01*
X23183Y104706D01*
X23622Y104671D01*
X24061Y104706D01*
X24490Y104809D01*
X24897Y104977D01*
X25273Y105208D01*
X25608Y105494D01*
X25894Y105829D01*
X26125Y106205D01*
X26293Y106612D01*
X26396Y107040D01*
X26422Y107480D01*
X26396Y107919D01*
X26355Y108091D01*
X28224Y109961D01*
Y109843D01*
X28238Y109607D01*
X28293Y109378D01*
X28383Y109160D01*
X28507Y108958D01*
X28660Y108779D01*
X28783Y108674D01*
X30400Y107057D01*
X30438Y107013D01*
X30616Y106860D01*
X30616Y106860D01*
X30616Y106860D01*
X30695Y106812D01*
X30817Y106738D01*
X30817Y106738D01*
X30817Y106738D01*
X30881Y106711D01*
X31034Y106648D01*
X31034Y106648D01*
X31034Y106648D01*
X31108Y106630D01*
X31262Y106593D01*
X31262Y106593D01*
X31262Y106593D01*
X31496Y106575D01*
X31555Y106579D01*
X33997D01*
X34055Y106575D01*
X34289Y106593D01*
X34289Y106593D01*
X34517Y106648D01*
X34661Y106707D01*
X34734Y106738D01*
X34734Y106738D01*
X34734Y106738D01*
X34871Y106822D01*
X34935Y106860D01*
X34935Y106860D01*
X34935Y106860D01*
X35113Y107013D01*
X35151Y107058D01*
X36740Y108646D01*
X36785Y108073D01*
X36932Y107461D01*
X37173Y106879D01*
X37502Y106343D01*
X37911Y105864D01*
X38390Y105455D01*
X38926Y105126D01*
X39508Y104885D01*
X40120Y104738D01*
X40748Y104689D01*
X41376Y104738D01*
X41988Y104885D01*
X42570Y105126D01*
X43106Y105455D01*
X43585Y105864D01*
X43994Y106343D01*
X44323Y106879D01*
X44521Y107358D01*
G37*
G36*
X153508Y104404D02*X155078Y104409D01*
X155228Y104445D01*
X155372Y104504D01*
X155504Y104585D01*
X155621Y104686D01*
X155722Y104803D01*
X155803Y104935D01*
X155862Y105078D01*
X155898Y105229D01*
X155907Y105383D01*
X155902Y107556D01*
X157318Y108972D01*
X157363Y109010D01*
X157516Y109189D01*
X157516Y109190D01*
X157639Y109391D01*
X157730Y109609D01*
X157785Y109839D01*
X157803Y110074D01*
X157799Y110133D01*
Y150333D01*
X157803Y150392D01*
X157785Y150627D01*
X157730Y150857D01*
X157639Y151075D01*
X157516Y151276D01*
X157516Y151276D01*
X157363Y151456D01*
X157318Y151494D01*
X153508Y155304D01*
Y169685D01*
X165354D01*
Y68110D01*
X160637D01*
X160683Y68897D01*
Y70663D01*
X160699Y70866D01*
X160635Y71678D01*
X160599Y71831D01*
X160445Y72469D01*
X160134Y73221D01*
X159709Y73915D01*
X159180Y74534D01*
X159025Y74666D01*
X156556Y77135D01*
X156424Y77290D01*
X155805Y77819D01*
X155111Y78244D01*
X154359Y78556D01*
X153721Y78709D01*
X153567Y78746D01*
X153508Y78750D01*
Y79798D01*
X155078Y79803D01*
X155228Y79839D01*
X155372Y79898D01*
X155504Y79979D01*
X155621Y80080D01*
X155722Y80197D01*
X155803Y80329D01*
X155862Y80473D01*
X155898Y80623D01*
X155907Y80778D01*
X155898Y84731D01*
X155862Y84882D01*
X155803Y85025D01*
X155722Y85157D01*
X155621Y85275D01*
X155504Y85375D01*
X155372Y85456D01*
X155228Y85515D01*
X155078Y85551D01*
X154923Y85561D01*
X154187Y85558D01*
X153973Y85647D01*
X153743Y85702D01*
X153508Y85721D01*
Y87047D01*
X154329Y87048D01*
X154513Y87092D01*
X154687Y87164D01*
X154813Y87241D01*
X154799Y87007D01*
Y86850D01*
X154813Y86615D01*
X154868Y86385D01*
X154958Y86167D01*
X155082Y85966D01*
X155235Y85786D01*
X155414Y85633D01*
X155616Y85509D01*
X155834Y85419D01*
X156063Y85364D01*
X156299Y85345D01*
X156534Y85364D01*
X156764Y85419D01*
X156982Y85509D01*
X157183Y85633D01*
X157363Y85786D01*
X157516Y85966D01*
X157639Y86167D01*
X157730Y86385D01*
X157785Y86615D01*
X157799Y86850D01*
Y87007D01*
X157785Y87242D01*
X157730Y87472D01*
X157639Y87690D01*
X157516Y87891D01*
X157363Y88071D01*
X157183Y88224D01*
X156982Y88348D01*
X156764Y88438D01*
X156534Y88493D01*
X156299Y88512D01*
X156063Y88493D01*
X155834Y88438D01*
X155616Y88348D01*
X155414Y88224D01*
X155336Y88158D01*
X155341Y88237D01*
X155330Y93525D01*
X155286Y93709D01*
X155213Y93883D01*
X155115Y94044D01*
X154992Y94188D01*
X154848Y94311D01*
X154687Y94409D01*
X154513Y94482D01*
X154491Y94487D01*
X154513Y94492D01*
X154687Y94564D01*
X154848Y94663D01*
X154992Y94786D01*
X155115Y94929D01*
X155213Y95090D01*
X155286Y95265D01*
X155330Y95449D01*
X155341Y95637D01*
X155330Y100925D01*
X155286Y101109D01*
X155213Y101283D01*
X155115Y101444D01*
X154992Y101588D01*
X154848Y101711D01*
X154687Y101809D01*
X154513Y101882D01*
X154329Y101926D01*
X154141Y101937D01*
X153508Y101936D01*
Y104404D01*
G37*
G36*
Y78750D02*X152756Y78809D01*
X152553Y78793D01*
X147638D01*
X146827Y78746D01*
X146063Y78562D01*
Y79813D01*
X146104Y79803D01*
X146258Y79794D01*
X149244Y79803D01*
X149394Y79839D01*
X149538Y79898D01*
X149670Y79979D01*
X149787Y80080D01*
X149888Y80197D01*
X149969Y80329D01*
X150028Y80473D01*
X150064Y80623D01*
X150073Y80778D01*
X150064Y84731D01*
X150028Y84882D01*
X149969Y85025D01*
X149888Y85157D01*
X149787Y85275D01*
X149670Y85375D01*
X149538Y85456D01*
X149394Y85515D01*
X149244Y85551D01*
X149089Y85561D01*
X146104Y85551D01*
X146063Y85542D01*
Y87536D01*
X146067Y87529D01*
X146190Y87386D01*
X146333Y87263D01*
X146494Y87164D01*
X146669Y87092D01*
X146853Y87048D01*
X147041Y87037D01*
X153508Y87047D01*
Y85721D01*
X153508Y85721D01*
X153272Y85702D01*
X153043Y85647D01*
X152825Y85557D01*
X152821Y85554D01*
X151938Y85551D01*
X151787Y85515D01*
X151644Y85456D01*
X151512Y85375D01*
X151395Y85275D01*
X151294Y85157D01*
X151213Y85025D01*
X151154Y84882D01*
X151118Y84731D01*
X151108Y84577D01*
X151118Y80623D01*
X151154Y80473D01*
X151213Y80329D01*
X151294Y80197D01*
X151395Y80080D01*
X151512Y79979D01*
X151644Y79898D01*
X151787Y79839D01*
X151938Y79803D01*
X152092Y79794D01*
X153508Y79798D01*
Y78750D01*
G37*
G36*
Y155304D02*X150319Y158493D01*
Y167657D01*
X150324Y167716D01*
X150305Y167951D01*
X150250Y168181D01*
X150160Y168399D01*
X150036Y168600D01*
X149883Y168780D01*
X149838Y168818D01*
X148971Y169685D01*
X153508D01*
Y155304D01*
G37*
G36*
X152748Y104401D02*X153508Y104404D01*
Y101936D01*
X152091Y101934D01*
Y103745D01*
X152748Y104401D01*
G37*
G36*
X83465Y104330D02*Y163066D01*
X90548D01*
X90641Y162915D01*
X90927Y162580D01*
X91262Y162294D01*
X91638Y162063D01*
X92045Y161895D01*
X92474Y161792D01*
X92913Y161757D01*
X93352Y161792D01*
X93781Y161895D01*
X94188Y162063D01*
X94564Y162294D01*
X94899Y162580D01*
X95185Y162915D01*
X95416Y163291D01*
X95584Y163698D01*
X95687Y164127D01*
X95713Y164566D01*
X95687Y165005D01*
X95584Y165434D01*
X95416Y165841D01*
X95185Y166217D01*
X94899Y166552D01*
X94564Y166838D01*
X94188Y167069D01*
X93781Y167237D01*
X93352Y167340D01*
X92913Y167375D01*
X92474Y167340D01*
X92045Y167237D01*
X91638Y167069D01*
X91262Y166838D01*
X90927Y166552D01*
X90641Y166217D01*
X90548Y166066D01*
X83465D01*
Y169291D01*
X106374D01*
Y162657D01*
X106369Y162598D01*
X106388Y162363D01*
X106443Y162133D01*
X106533Y161915D01*
X106657Y161714D01*
X106810Y161534D01*
X106855Y161496D01*
X110487Y157863D01*
X110414Y157557D01*
X110377Y157086D01*
X110414Y156615D01*
X110524Y156156D01*
X110705Y155720D01*
X110951Y155317D01*
X111258Y154958D01*
X111617Y154652D01*
X112020Y154405D01*
X112456Y154224D01*
X112915Y154114D01*
X113386Y154077D01*
X113857Y154114D01*
X114316Y154224D01*
X114652Y154363D01*
X114596Y154273D01*
X114506Y154055D01*
X114451Y153825D01*
X114437Y153590D01*
X114451Y147355D01*
X114506Y147125D01*
X114596Y146907D01*
X114720Y146706D01*
X114873Y146526D01*
X115053Y146373D01*
X115254Y146249D01*
X115472Y146159D01*
X115702Y146104D01*
X115937Y146090D01*
X120751Y146101D01*
X120639Y145988D01*
X103208D01*
X103149Y145993D01*
X102914Y145974D01*
X102913Y145974D01*
X102913Y145974D01*
X102913Y145974D01*
X102786Y145943D01*
X102684Y145919D01*
X102684Y145919D01*
X102684Y145919D01*
X102564Y145869D01*
X102466Y145829D01*
X102466Y145829D01*
X102466Y145829D01*
X102339Y145751D01*
X102264Y145705D01*
X102264Y145705D01*
X102264Y145705D01*
X102264Y145705D01*
X102085Y145552D01*
X102047Y145507D01*
X91894Y135353D01*
X91849Y135315D01*
X91696Y135136D01*
X91696Y135135D01*
X91696Y135135D01*
X91672Y135096D01*
X91572Y134934D01*
X91572Y134934D01*
X91572Y134934D01*
X91553Y134889D01*
X91482Y134716D01*
X91482Y134716D01*
X91427Y134486D01*
X91427Y134486D01*
X91427Y134486D01*
X91408Y134251D01*
X91413Y134192D01*
Y104330D01*
X83465D01*
G37*
G36*
X84646Y150393D02*X70079D01*
Y162992D01*
X84646D01*
Y150393D01*
G37*
G36*
X85039Y169291D02*Y166066D01*
X70079D01*
Y169291D01*
X85039D01*
G37*
G36*
X78580Y183662D02*X82087D01*
Y170276D01*
X78580D01*
Y175516D01*
X80453Y175521D01*
X80621Y175562D01*
X80781Y175628D01*
X80929Y175718D01*
X81060Y175831D01*
X81173Y175962D01*
X81263Y176110D01*
X81329Y176270D01*
X81370Y176438D01*
X81380Y176611D01*
X81370Y180784D01*
X81329Y180952D01*
X81263Y181112D01*
X81173Y181260D01*
X81060Y181391D01*
X80929Y181504D01*
X80781Y181594D01*
X80621Y181660D01*
X80453Y181701D01*
X80280Y181711D01*
X78580Y181706D01*
Y183662D01*
G37*
G36*
X69724D02*X78580D01*
Y181706D01*
X76707Y181701D01*
X76539Y181660D01*
X76379Y181594D01*
X76231Y181504D01*
X76100Y181391D01*
X75987Y181260D01*
X75897Y181112D01*
X75831Y180952D01*
X75790Y180784D01*
X75780Y180611D01*
X75790Y176438D01*
X75831Y176270D01*
X75897Y176110D01*
X75987Y175962D01*
X76100Y175831D01*
X76231Y175718D01*
X76379Y175628D01*
X76539Y175562D01*
X76707Y175521D01*
X76880Y175511D01*
X78580Y175516D01*
Y170276D01*
X69724D01*
Y183662D01*
G37*
G36*
X86380D02*X93504D01*
Y170276D01*
X86380D01*
Y175516D01*
X88253Y175521D01*
X88421Y175562D01*
X88581Y175628D01*
X88729Y175718D01*
X88860Y175831D01*
X88973Y175962D01*
X89063Y176110D01*
X89129Y176270D01*
X89170Y176438D01*
X89180Y176611D01*
X89170Y180784D01*
X89129Y180952D01*
X89063Y181112D01*
X88973Y181260D01*
X88860Y181391D01*
X88729Y181504D01*
X88581Y181594D01*
X88421Y181660D01*
X88253Y181701D01*
X88080Y181711D01*
X86380Y181706D01*
Y183662D01*
G37*
G36*
X82913D02*X86380D01*
Y181706D01*
X84507Y181701D01*
X84339Y181660D01*
X84179Y181594D01*
X84031Y181504D01*
X83900Y181391D01*
X83787Y181260D01*
X83697Y181112D01*
X83631Y180952D01*
X83590Y180784D01*
X83580Y180611D01*
X83590Y176438D01*
X83631Y176270D01*
X83697Y176110D01*
X83787Y175962D01*
X83900Y175831D01*
X84031Y175718D01*
X84179Y175628D01*
X84339Y175562D01*
X84507Y175521D01*
X84680Y175511D01*
X86380Y175516D01*
Y170276D01*
X82913D01*
Y183662D01*
G37*
G36*
X95669Y196040D02*Y186221D01*
X85277D01*
X85270Y188984D01*
X85229Y189152D01*
X85163Y189312D01*
X85073Y189460D01*
X84960Y189591D01*
X84829Y189704D01*
X84681Y189794D01*
X84521Y189860D01*
X84353Y189901D01*
X84180Y189911D01*
X80607Y189901D01*
X80439Y189860D01*
X80279Y189794D01*
X80131Y189704D01*
X80000Y189591D01*
X79887Y189460D01*
X79797Y189312D01*
X79731Y189152D01*
X79690Y188984D01*
X79680Y188811D01*
X79686Y186221D01*
X69685D01*
Y196063D01*
X79683D01*
X79690Y193299D01*
X79731Y193131D01*
X79797Y192971D01*
X79887Y192823D01*
X80000Y192692D01*
X80131Y192579D01*
X80279Y192489D01*
X80439Y192423D01*
X80607Y192382D01*
X80780Y192372D01*
X84353Y192382D01*
X84521Y192423D01*
X84681Y192489D01*
X84829Y192579D01*
X84960Y192692D01*
X85073Y192823D01*
X85163Y192971D01*
X85229Y193131D01*
X85270Y193299D01*
X85280Y193472D01*
X85274Y196063D01*
X94757D01*
X94837Y196044D01*
X95276Y196009D01*
X95669Y196040D01*
G37*
G36*
X86380Y212008D02*X86715D01*
X90158Y208564D01*
Y203983D01*
X90155Y203937D01*
X90169Y203752D01*
X90169Y203752D01*
X90169Y203752D01*
X90190Y203665D01*
X90213Y203571D01*
X90213Y203571D01*
X90213Y203571D01*
X90252Y203478D01*
X90284Y203400D01*
X90284Y203400D01*
X90284Y203399D01*
X90334Y203317D01*
X90381Y203241D01*
X90381Y203241D01*
X90381Y203241D01*
X90502Y203100D01*
X90537Y203070D01*
X92440Y201166D01*
X92470Y201131D01*
X92610Y201011D01*
X92611Y201010D01*
X92611Y201010D01*
X92611Y201010D01*
X92691Y200961D01*
X92769Y200913D01*
X92769Y200913D01*
X92769Y200913D01*
X92855Y200878D01*
X92941Y200842D01*
X92941Y200842D01*
X92941Y200842D01*
X93028Y200821D01*
X93122Y200798D01*
X93122Y200798D01*
X93122Y200798D01*
X93123Y200798D01*
X93275Y200786D01*
X93004Y200469D01*
X92773Y200093D01*
X92605Y199686D01*
X92502Y199257D01*
X92467Y198818D01*
X92483Y198622D01*
X86380D01*
Y200577D01*
X88253Y200582D01*
X88421Y200623D01*
X88581Y200689D01*
X88729Y200779D01*
X88860Y200892D01*
X88973Y201023D01*
X89063Y201171D01*
X89129Y201331D01*
X89170Y201499D01*
X89180Y201672D01*
X89170Y205845D01*
X89129Y206013D01*
X89063Y206173D01*
X88973Y206321D01*
X88860Y206452D01*
X88729Y206565D01*
X88581Y206655D01*
X88421Y206721D01*
X88253Y206762D01*
X88080Y206772D01*
X86380Y206767D01*
Y212008D01*
G37*
G36*
X82913D02*X86380D01*
Y206767D01*
X84507Y206762D01*
X84339Y206721D01*
X84179Y206655D01*
X84031Y206565D01*
X83900Y206452D01*
X83787Y206321D01*
X83697Y206173D01*
X83631Y206013D01*
X83590Y205845D01*
X83580Y205672D01*
X83590Y201499D01*
X83631Y201331D01*
X83697Y201171D01*
X83787Y201023D01*
X83900Y200892D01*
X84031Y200779D01*
X84179Y200689D01*
X84339Y200623D01*
X84507Y200582D01*
X84680Y200572D01*
X86380Y200577D01*
Y198622D01*
X82913D01*
Y212008D01*
G37*
G36*
X47464Y190301D02*X47502Y190240D01*
X47911Y189761D01*
X48390Y189352D01*
X48926Y189023D01*
X49508Y188782D01*
X50120Y188635D01*
X50748Y188586D01*
X51376Y188635D01*
X51500Y188665D01*
X52756Y187409D01*
Y186045D01*
X52731Y186067D01*
X52665Y186109D01*
X52340Y186272D01*
X52000Y186401D01*
X51650Y186499D01*
X51292Y186565D01*
X50930Y186598D01*
X50566D01*
X50204Y186565D01*
X49846Y186499D01*
X49496Y186401D01*
X49156Y186272D01*
X48829Y186113D01*
X48763Y186070D01*
X48704Y186017D01*
X48654Y185955D01*
X48615Y185886D01*
X48587Y185812D01*
X48571Y185735D01*
X48567Y185656D01*
X48575Y185577D01*
X48596Y185501D01*
X48628Y185428D01*
X48671Y185362D01*
X48724Y185303D01*
X48786Y185254D01*
X48855Y185214D01*
X48929Y185186D01*
X49006Y185170D01*
X49085Y185166D01*
X49164Y185174D01*
X49241Y185195D01*
X49312Y185228D01*
X49555Y185351D01*
X49810Y185448D01*
X50072Y185521D01*
X50340Y185570D01*
X50612Y185595D01*
X50884D01*
X51156Y185570D01*
X51424Y185521D01*
X51686Y185448D01*
X51941Y185351D01*
X52185Y185231D01*
X52257Y185198D01*
X52333Y185177D01*
X52411Y185169D01*
X52489Y185173D01*
X52566Y185189D01*
X52640Y185217D01*
X52708Y185256D01*
X52756Y185295D01*
Y180261D01*
X52576Y180123D01*
X52429Y180029D01*
X52411Y180030D01*
X52332Y180022D01*
X52256Y180001D01*
X52184Y179968D01*
X51941Y179845D01*
X51686Y179748D01*
X51424Y179675D01*
X51156Y179626D01*
X50884Y179601D01*
X50612D01*
X50340Y179626D01*
X50072Y179675D01*
X49810Y179748D01*
X49555Y179845D01*
X49311Y179965D01*
X49240Y179998D01*
X49164Y180019D01*
X49085Y180027D01*
X49007Y180023D01*
X48930Y180007D01*
X48856Y179979D01*
X48788Y179940D01*
X48727Y179891D01*
X48674Y179832D01*
X48631Y179766D01*
X48599Y179694D01*
X48578Y179618D01*
X48570Y179540D01*
X48574Y179462D01*
X48590Y179385D01*
X48618Y179311D01*
X48657Y179243D01*
X48663Y179235D01*
X48350Y179136D01*
X47776Y178898D01*
X47464Y178736D01*
Y180463D01*
X47534Y180437D01*
X47611Y180421D01*
X47690Y180417D01*
X47769Y180425D01*
X47845Y180446D01*
X47918Y180478D01*
X47984Y180521D01*
X48043Y180574D01*
X48092Y180636D01*
X48132Y180705D01*
X48160Y180779D01*
X48176Y180856D01*
X48180Y180935D01*
X48172Y181014D01*
X48151Y181091D01*
X48118Y181162D01*
X47995Y181405D01*
X47898Y181660D01*
X47825Y181922D01*
X47776Y182190D01*
X47751Y182462D01*
Y182734D01*
X47776Y183006D01*
X47825Y183274D01*
X47898Y183536D01*
X47995Y183791D01*
X48115Y184035D01*
X48148Y184107D01*
X48169Y184183D01*
X48177Y184261D01*
X48173Y184339D01*
X48157Y184416D01*
X48129Y184490D01*
X48090Y184558D01*
X48041Y184619D01*
X47982Y184672D01*
X47916Y184715D01*
X47844Y184747D01*
X47768Y184768D01*
X47690Y184776D01*
X47612Y184772D01*
X47535Y184756D01*
X47464Y184729D01*
Y190301D01*
G37*
G36*
X44032Y193440D02*X46777Y192068D01*
X46785Y191970D01*
X46932Y191358D01*
X47173Y190776D01*
X47464Y190301D01*
Y184729D01*
X47461Y184728D01*
X47393Y184689D01*
X47332Y184640D01*
X47279Y184581D01*
X47237Y184515D01*
X47074Y184190D01*
X46945Y183850D01*
X46847Y183500D01*
X46781Y183142D01*
X46748Y182780D01*
Y182416D01*
X46781Y182054D01*
X46847Y181696D01*
X46945Y181346D01*
X47074Y181006D01*
X47233Y180679D01*
X47276Y180613D01*
X47329Y180554D01*
X47391Y180504D01*
X47460Y180465D01*
X47464Y180463D01*
Y178736D01*
X47225Y178611D01*
X46700Y178277D01*
X46207Y177899D01*
X45749Y177479D01*
X45329Y177021D01*
X44951Y176528D01*
X44665Y176079D01*
X44755Y176296D01*
X44909Y176939D01*
X44948Y177598D01*
X44909Y178257D01*
X44755Y178900D01*
X44502Y179511D01*
X44156Y180074D01*
X44032Y180220D01*
Y185467D01*
X44035Y185468D01*
X44103Y185507D01*
X44165Y185556D01*
X44217Y185615D01*
X44259Y185681D01*
X44422Y186006D01*
X44551Y186346D01*
X44649Y186696D01*
X44715Y187054D01*
X44748Y187416D01*
Y187780D01*
X44715Y188142D01*
X44649Y188500D01*
X44551Y188850D01*
X44422Y189190D01*
X44263Y189517D01*
X44220Y189583D01*
X44167Y189642D01*
X44105Y189692D01*
X44036Y189731D01*
X44032Y189733D01*
Y193440D01*
G37*
G36*
X40750Y193586D02*X41376Y193635D01*
X41988Y193782D01*
X42570Y194023D01*
X42703Y194105D01*
X44032Y193440D01*
Y189733D01*
X43962Y189759D01*
X43885Y189775D01*
X43806Y189779D01*
X43727Y189771D01*
X43651Y189750D01*
X43578Y189718D01*
X43512Y189675D01*
X43453Y189622D01*
X43404Y189560D01*
X43364Y189491D01*
X43336Y189417D01*
X43320Y189340D01*
X43316Y189261D01*
X43324Y189182D01*
X43345Y189105D01*
X43379Y189034D01*
X43501Y188791D01*
X43598Y188536D01*
X43671Y188274D01*
X43720Y188006D01*
X43745Y187734D01*
Y187462D01*
X43720Y187190D01*
X43671Y186922D01*
X43598Y186660D01*
X43501Y186405D01*
X43381Y186161D01*
X43348Y186089D01*
X43327Y186014D01*
X43319Y185935D01*
X43323Y185857D01*
X43339Y185780D01*
X43367Y185706D01*
X43406Y185638D01*
X43456Y185577D01*
X43514Y185524D01*
X43580Y185481D01*
X43652Y185449D01*
X43728Y185428D01*
X43806Y185420D01*
X43884Y185424D01*
X43961Y185440D01*
X44032Y185467D01*
Y180220D01*
X43727Y180577D01*
X43224Y181006D01*
X42661Y181352D01*
X42050Y181605D01*
X41407Y181759D01*
X40750Y181811D01*
Y183598D01*
X40930D01*
X41292Y183631D01*
X41650Y183697D01*
X42000Y183795D01*
X42340Y183924D01*
X42667Y184083D01*
X42733Y184126D01*
X42792Y184179D01*
X42842Y184241D01*
X42881Y184310D01*
X42909Y184384D01*
X42926Y184461D01*
X42929Y184540D01*
X42921Y184619D01*
X42900Y184695D01*
X42868Y184768D01*
X42825Y184834D01*
X42772Y184893D01*
X42710Y184942D01*
X42641Y184982D01*
X42567Y185010D01*
X42490Y185026D01*
X42411Y185030D01*
X42332Y185022D01*
X42256Y185001D01*
X42184Y184968D01*
X41941Y184845D01*
X41686Y184748D01*
X41424Y184675D01*
X41156Y184626D01*
X40884Y184601D01*
X40750D01*
Y190595D01*
X40884D01*
X41156Y190570D01*
X41424Y190521D01*
X41686Y190448D01*
X41941Y190351D01*
X42185Y190231D01*
X42257Y190198D01*
X42333Y190177D01*
X42411Y190169D01*
X42489Y190173D01*
X42566Y190189D01*
X42640Y190217D01*
X42708Y190256D01*
X42769Y190305D01*
X42822Y190364D01*
X42865Y190430D01*
X42897Y190502D01*
X42918Y190578D01*
X42926Y190656D01*
X42922Y190734D01*
X42906Y190811D01*
X42878Y190885D01*
X42839Y190953D01*
X42790Y191014D01*
X42731Y191067D01*
X42665Y191109D01*
X42340Y191272D01*
X42000Y191401D01*
X41650Y191499D01*
X41292Y191565D01*
X40930Y191598D01*
X40750D01*
Y193586D01*
G37*
G36*
Y213067D02*X51741D01*
X52244Y212564D01*
X52282Y212519D01*
X52462Y212366D01*
X52663Y212242D01*
X52756Y212204D01*
Y206059D01*
X52570Y206173D01*
X51988Y206414D01*
X51376Y206561D01*
X50748Y206610D01*
X50120Y206561D01*
X49508Y206414D01*
X48926Y206173D01*
X48390Y205844D01*
X47911Y205435D01*
X47502Y204956D01*
X47173Y204420D01*
X46932Y203838D01*
X46785Y203226D01*
X46736Y202598D01*
X46785Y201970D01*
X46932Y201358D01*
X47173Y200776D01*
X47502Y200240D01*
X47911Y199761D01*
X48390Y199352D01*
X48926Y199023D01*
X49508Y198782D01*
X50120Y198635D01*
X50748Y198586D01*
X51376Y198635D01*
X51988Y198782D01*
X52570Y199023D01*
X52756Y199137D01*
Y196059D01*
X52570Y196173D01*
X51988Y196414D01*
X51376Y196561D01*
X50748Y196610D01*
X50120Y196561D01*
X49508Y196414D01*
X48926Y196173D01*
X48793Y196091D01*
X44717Y198129D01*
X44711Y198226D01*
X44564Y198838D01*
X44323Y199420D01*
X43994Y199956D01*
X43585Y200435D01*
X43106Y200844D01*
X42570Y201173D01*
X41988Y201414D01*
X41376Y201561D01*
X40750Y201610D01*
Y203603D01*
X43905Y203607D01*
X44058Y203644D01*
X44203Y203704D01*
X44338Y203786D01*
X44457Y203889D01*
X44560Y204008D01*
X44642Y204143D01*
X44702Y204288D01*
X44739Y204441D01*
X44748Y204598D01*
X44739Y210755D01*
X44702Y210908D01*
X44642Y211053D01*
X44560Y211188D01*
X44457Y211307D01*
X44338Y211410D01*
X44203Y211492D01*
X44058Y211552D01*
X43905Y211589D01*
X43748Y211598D01*
X40750Y211593D01*
Y213067D01*
G37*
G36*
X37464Y195301D02*X37502Y195240D01*
X37911Y194761D01*
X38390Y194352D01*
X38926Y194023D01*
X39508Y193782D01*
X40120Y193635D01*
X40748Y193586D01*
X40750Y193586D01*
Y191598D01*
X40566D01*
X40204Y191565D01*
X39846Y191499D01*
X39496Y191401D01*
X39156Y191272D01*
X38829Y191113D01*
X38763Y191070D01*
X38704Y191017D01*
X38654Y190955D01*
X38615Y190886D01*
X38587Y190812D01*
X38571Y190735D01*
X38567Y190656D01*
X38575Y190577D01*
X38596Y190501D01*
X38628Y190428D01*
X38671Y190362D01*
X38724Y190303D01*
X38786Y190254D01*
X38855Y190214D01*
X38929Y190186D01*
X39006Y190170D01*
X39085Y190166D01*
X39164Y190174D01*
X39241Y190195D01*
X39312Y190228D01*
X39555Y190351D01*
X39810Y190448D01*
X40072Y190521D01*
X40340Y190570D01*
X40612Y190595D01*
X40750D01*
Y184601D01*
X40612D01*
X40340Y184626D01*
X40072Y184675D01*
X39810Y184748D01*
X39555Y184845D01*
X39311Y184965D01*
X39240Y184998D01*
X39164Y185019D01*
X39085Y185027D01*
X39007Y185023D01*
X38930Y185007D01*
X38856Y184979D01*
X38788Y184940D01*
X38727Y184891D01*
X38674Y184832D01*
X38631Y184766D01*
X38599Y184694D01*
X38578Y184618D01*
X38570Y184540D01*
X38574Y184462D01*
X38590Y184385D01*
X38618Y184311D01*
X38657Y184243D01*
X38706Y184182D01*
X38765Y184129D01*
X38831Y184087D01*
X39156Y183924D01*
X39496Y183795D01*
X39846Y183697D01*
X40204Y183631D01*
X40566Y183598D01*
X40750D01*
Y181811D01*
X40748Y181811D01*
X40089Y181759D01*
X39446Y181605D01*
X38835Y181352D01*
X38272Y181006D01*
X37769Y180577D01*
X37464Y180220D01*
Y185463D01*
X37534Y185437D01*
X37611Y185421D01*
X37690Y185417D01*
X37769Y185425D01*
X37845Y185446D01*
X37918Y185478D01*
X37984Y185521D01*
X38043Y185574D01*
X38092Y185636D01*
X38132Y185705D01*
X38160Y185779D01*
X38176Y185856D01*
X38180Y185935D01*
X38172Y186014D01*
X38151Y186091D01*
X38118Y186162D01*
X37995Y186405D01*
X37898Y186660D01*
X37825Y186922D01*
X37776Y187190D01*
X37751Y187462D01*
Y187734D01*
X37776Y188006D01*
X37825Y188274D01*
X37898Y188536D01*
X37995Y188791D01*
X38115Y189035D01*
X38148Y189107D01*
X38169Y189183D01*
X38177Y189261D01*
X38173Y189339D01*
X38157Y189416D01*
X38129Y189490D01*
X38090Y189558D01*
X38041Y189619D01*
X37982Y189672D01*
X37916Y189715D01*
X37844Y189747D01*
X37768Y189768D01*
X37690Y189776D01*
X37612Y189772D01*
X37535Y189756D01*
X37464Y189729D01*
Y195301D01*
G37*
G36*
Y203638D02*X37591Y203607D01*
X37748Y203598D01*
X40750Y203603D01*
Y201610D01*
X40748Y201610D01*
X40120Y201561D01*
X39508Y201414D01*
X38926Y201173D01*
X38390Y200844D01*
X37911Y200435D01*
X37502Y199956D01*
X37464Y199895D01*
Y203638D01*
G37*
G36*
Y213067D02*X40750D01*
Y211593D01*
X37591Y211589D01*
X37464Y211558D01*
Y213067D01*
G37*
G36*
X25200Y184327D02*X26713D01*
X26772Y184322D01*
X27007Y184341D01*
X27007Y184341D01*
X27237Y184396D01*
X27455Y184486D01*
X27656Y184610D01*
X27836Y184763D01*
X27874Y184808D01*
X32909Y189843D01*
X32954Y189881D01*
X33107Y190060D01*
X33107Y190061D01*
X33231Y190262D01*
X33321Y190480D01*
X33376Y190710D01*
X33395Y190945D01*
X33390Y191004D01*
Y201151D01*
X34680Y202441D01*
X34725Y202479D01*
X34878Y202658D01*
X34878Y202659D01*
X35002Y202860D01*
X35092Y203078D01*
X35147Y203308D01*
X35166Y203543D01*
X35161Y203602D01*
Y208659D01*
X35312Y208752D01*
X35647Y209038D01*
X35933Y209373D01*
X36164Y209749D01*
X36332Y210156D01*
X36435Y210585D01*
X36461Y211024D01*
X36435Y211463D01*
X36332Y211892D01*
X36164Y212299D01*
X35933Y212675D01*
X35647Y213010D01*
X35580Y213067D01*
X37464D01*
Y211558D01*
X37438Y211552D01*
X37293Y211492D01*
X37158Y211410D01*
X37039Y211307D01*
X36937Y211188D01*
X36854Y211053D01*
X36794Y210908D01*
X36757Y210755D01*
X36748Y210598D01*
X36757Y204441D01*
X36794Y204288D01*
X36854Y204143D01*
X36937Y204008D01*
X37039Y203889D01*
X37158Y203786D01*
X37293Y203704D01*
X37438Y203644D01*
X37464Y203638D01*
Y199895D01*
X37173Y199420D01*
X36932Y198838D01*
X36785Y198226D01*
X36736Y197598D01*
X36785Y196970D01*
X36932Y196358D01*
X37173Y195776D01*
X37464Y195301D01*
Y189729D01*
X37461Y189728D01*
X37393Y189689D01*
X37332Y189640D01*
X37279Y189581D01*
X37237Y189515D01*
X37074Y189190D01*
X36945Y188850D01*
X36847Y188500D01*
X36781Y188142D01*
X36748Y187780D01*
Y187416D01*
X36781Y187054D01*
X36847Y186696D01*
X36945Y186346D01*
X37074Y186006D01*
X37233Y185679D01*
X37276Y185613D01*
X37329Y185554D01*
X37391Y185504D01*
X37460Y185465D01*
X37464Y185463D01*
Y180220D01*
X37340Y180074D01*
X36994Y179511D01*
X36741Y178900D01*
X36587Y178257D01*
X36535Y177598D01*
X36587Y176939D01*
X36741Y176296D01*
X36899Y175916D01*
X31364Y170472D01*
X24603D01*
X24542Y170667D01*
X24215Y171455D01*
X23821Y172212D01*
X23363Y172931D01*
X22844Y173608D01*
X22268Y174237D01*
X22130Y174363D01*
X22486Y174391D01*
X22915Y174494D01*
X23322Y174662D01*
X23698Y174893D01*
X24033Y175179D01*
X24319Y175514D01*
X24550Y175890D01*
X24718Y176297D01*
X24821Y176726D01*
X24847Y177165D01*
X24821Y177604D01*
X24718Y178033D01*
X24550Y178440D01*
X24319Y178816D01*
X24033Y179151D01*
X23698Y179437D01*
X23322Y179667D01*
X22915Y179836D01*
X22486Y179939D01*
X22047Y179974D01*
X21608Y179939D01*
X21179Y179836D01*
X20772Y179667D01*
X20396Y179437D01*
X20356Y179403D01*
X16850Y182909D01*
X16812Y182954D01*
X16633Y183107D01*
X16632Y183107D01*
X16431Y183231D01*
X16431Y183231D01*
X16330Y183273D01*
X16213Y183321D01*
X15983Y183376D01*
X15983D01*
X15983Y183376D01*
X15983Y183376D01*
X15748Y183395D01*
X15689Y183390D01*
X11870D01*
X11811Y183395D01*
X11576Y183376D01*
X11346Y183321D01*
X11128Y183231D01*
X10927Y183107D01*
X10926Y183107D01*
X10747Y182954D01*
X10709Y182909D01*
X9217Y181417D01*
X9172Y181379D01*
X9019Y181199D01*
X8895Y180998D01*
X8805Y180780D01*
X8750Y180550D01*
X8750Y180550D01*
X8731Y180315D01*
X8736Y180256D01*
Y174608D01*
X8570Y174878D01*
X8284Y175213D01*
X7949Y175499D01*
X7574Y175729D01*
X7167Y175898D01*
X6738Y176001D01*
X6299Y176036D01*
X5860Y176001D01*
X5690Y175960D01*
X5814Y176106D01*
X6045Y176481D01*
X6213Y176888D01*
X6316Y177317D01*
X6342Y177756D01*
X6316Y178195D01*
X6213Y178624D01*
X6045Y179031D01*
X5814Y179406D01*
X5528Y179741D01*
X5193Y180027D01*
X4818Y180258D01*
X4411Y180426D01*
X3982Y180529D01*
X3543Y180564D01*
X3104Y180529D01*
X2675Y180426D01*
X2268Y180258D01*
X1893Y180027D01*
X1558Y179741D01*
X1272Y179406D01*
X1041Y179031D01*
X873Y178624D01*
X770Y178195D01*
X735Y177756D01*
X770Y177317D01*
X873Y176888D01*
X1041Y176481D01*
X1256Y176131D01*
Y170472D01*
X0D01*
Y216141D01*
X9240D01*
X9134Y215968D01*
X8689Y214892D01*
X8417Y213759D01*
X8325Y212598D01*
X8417Y211437D01*
X8689Y210304D01*
X9134Y209228D01*
X9743Y208235D01*
X10499Y207349D01*
X11385Y206593D01*
X12378Y205984D01*
X13328Y205591D01*
X9584Y201473D01*
X9566Y201458D01*
X9413Y201278D01*
X9391Y201243D01*
X9372Y201220D01*
X9332Y201147D01*
X9289Y201077D01*
X9276Y201044D01*
X9258Y201013D01*
X9231Y200935D01*
X9199Y200859D01*
X9191Y200824D01*
X9179Y200790D01*
X9163Y200710D01*
X9144Y200629D01*
X9142Y200599D01*
X9134Y200559D01*
X9127Y200323D01*
X9130Y200299D01*
Y191398D01*
X9125Y191339D01*
X9144Y191104D01*
X9199Y190874D01*
X9289Y190656D01*
X9413Y190455D01*
X9566Y190275D01*
X9611Y190237D01*
X13859Y185989D01*
X13897Y185944D01*
X14077Y185791D01*
X14278Y185667D01*
X14496Y185577D01*
X14726Y185522D01*
X14961Y185503D01*
X15020Y185508D01*
X15745D01*
X15838Y185357D01*
X16124Y185022D01*
X16459Y184736D01*
X16835Y184505D01*
X17242Y184337D01*
X17671Y184234D01*
X18110Y184199D01*
X18549Y184234D01*
X18978Y184337D01*
X19385Y184505D01*
X19761Y184736D01*
X20096Y185022D01*
X20137Y185070D01*
X20164Y184959D01*
X20332Y184552D01*
X20563Y184176D01*
X20849Y183841D01*
X21184Y183555D01*
X21560Y183324D01*
X21967Y183156D01*
X22396Y183053D01*
X22835Y183018D01*
X23274Y183053D01*
X23703Y183156D01*
X24110Y183324D01*
X24486Y183555D01*
X24821Y183841D01*
X25107Y184176D01*
X25200Y184327D01*
G37*
G36*
X50787Y207480D02*Y212992D01*
X51816D01*
X52244Y212564D01*
X52282Y212519D01*
X52462Y212366D01*
X52663Y212242D01*
X52881Y212152D01*
X53111Y212097D01*
X53346Y212078D01*
X53405Y212083D01*
X59249D01*
X59342Y211932D01*
X59628Y211597D01*
X59963Y211311D01*
X60339Y211080D01*
X60746Y210912D01*
X61175Y210809D01*
X61614Y210774D01*
X62054Y210809D01*
X62482Y210912D01*
X62889Y211080D01*
X63265Y211311D01*
X63600Y211597D01*
X63886Y211932D01*
X64117Y212308D01*
X64285Y212715D01*
X64352Y212992D01*
X68504D01*
Y210380D01*
X68347Y210476D01*
X68020Y210611D01*
X67676Y210694D01*
X67323Y210722D01*
X66970Y210694D01*
X66625Y210611D01*
X66298Y210476D01*
X65996Y210291D01*
X65727Y210061D01*
X65497Y209792D01*
X65312Y209490D01*
X65176Y209162D01*
X65094Y208818D01*
X65066Y208465D01*
X65094Y208112D01*
X65176Y207768D01*
X65295Y207480D01*
X50787D01*
G37*
G36*
X79133Y149213D02*X82283D01*
Y126575D01*
X79133D01*
Y128994D01*
X80974Y128998D01*
X81112Y129031D01*
X81243Y129086D01*
X81364Y129160D01*
X81471Y129252D01*
X81563Y129359D01*
X81637Y129480D01*
X81692Y129611D01*
X81725Y129749D01*
X81733Y129890D01*
X81725Y134031D01*
X81692Y134169D01*
X81637Y134300D01*
X81563Y134421D01*
X81471Y134528D01*
X81364Y134620D01*
X81243Y134694D01*
X81112Y134749D01*
X80974Y134782D01*
X80833Y134790D01*
X79133Y134786D01*
Y149213D01*
G37*
G36*
X75787Y126587D02*Y149213D01*
X79133D01*
Y134786D01*
X77292Y134782D01*
X77154Y134749D01*
X77023Y134694D01*
X76902Y134620D01*
X76795Y134528D01*
X76703Y134421D01*
X76629Y134300D01*
X76574Y134169D01*
X76541Y134031D01*
X76533Y133890D01*
X76541Y129749D01*
X76574Y129611D01*
X76629Y129480D01*
X76703Y129359D01*
X76795Y129252D01*
X76902Y129160D01*
X77023Y129086D01*
X77154Y129031D01*
X77292Y128998D01*
X77433Y128990D01*
X79133Y128994D01*
Y126575D01*
X77101D01*
X77074Y126582D01*
X76933Y126590D01*
X75787Y126587D01*
G37*
G36*
X73365Y126575D02*X71882D01*
X71868Y126817D01*
X71765Y127246D01*
X71597Y127653D01*
X71366Y128029D01*
X71080Y128364D01*
X70745Y128650D01*
X70369Y128880D01*
X70102Y128991D01*
X73174Y128998D01*
X73312Y129031D01*
X73443Y129086D01*
X73564Y129160D01*
X73671Y129252D01*
X73763Y129359D01*
X73837Y129480D01*
X73892Y129611D01*
X73925Y129749D01*
X73933Y129890D01*
X73925Y134031D01*
X73892Y134169D01*
X73837Y134300D01*
X73763Y134421D01*
X73671Y134528D01*
X73564Y134620D01*
X73443Y134694D01*
X73312Y134749D01*
X73174Y134782D01*
X73033Y134790D01*
X69882Y134783D01*
Y149213D01*
X74803D01*
Y126585D01*
X73392Y126582D01*
X73365Y126575D01*
G37*
G36*
X69685Y104330D02*Y123622D01*
X72637D01*
X72641Y121549D01*
X72674Y121411D01*
X72729Y121280D01*
X72803Y121159D01*
X72895Y121052D01*
X73002Y120960D01*
X73123Y120886D01*
X73254Y120831D01*
X73392Y120798D01*
X73533Y120790D01*
X77074Y120798D01*
X77212Y120831D01*
X77343Y120886D01*
X77464Y120960D01*
X77571Y121052D01*
X77663Y121159D01*
X77737Y121280D01*
X77792Y121411D01*
X77825Y121549D01*
X77833Y121690D01*
X77829Y123622D01*
X84449D01*
Y104330D01*
X69685D01*
G37*
G36*
X62451Y191027D02*X66088Y191031D01*
X66208Y191060D01*
X66323Y191107D01*
X66429Y191172D01*
X66523Y191252D01*
X66603Y191346D01*
X66668Y191452D01*
X66715Y191567D01*
X66744Y191687D01*
X66751Y191811D01*
X66744Y205825D01*
X66733Y205873D01*
X68419Y204187D01*
Y198622D01*
X68440Y198269D01*
X68504Y198002D01*
Y129116D01*
X68226Y129049D01*
X67819Y128880D01*
X67443Y128650D01*
X67108Y128364D01*
X66822Y128029D01*
X66591Y127653D01*
X66423Y127246D01*
X66320Y126817D01*
X66285Y126378D01*
X66320Y125939D01*
X66423Y125510D01*
X66591Y125103D01*
X66822Y124727D01*
X67108Y124392D01*
X67443Y124106D01*
X67819Y123875D01*
X68226Y123707D01*
X68504Y123640D01*
Y106299D01*
X62451D01*
Y131684D01*
X66088Y131688D01*
X66208Y131717D01*
X66323Y131764D01*
X66429Y131829D01*
X66523Y131909D01*
X66603Y132003D01*
X66668Y132109D01*
X66715Y132224D01*
X66744Y132344D01*
X66751Y132467D01*
X66744Y140710D01*
X66715Y140830D01*
X66668Y140945D01*
X66603Y141050D01*
X66523Y141145D01*
X66429Y141225D01*
X66323Y141290D01*
X66208Y141337D01*
X66088Y141366D01*
X65964Y141373D01*
X62451Y141370D01*
Y191027D01*
G37*
G36*
X54331Y206299D02*X58425D01*
X58379Y206260D01*
X58299Y206166D01*
X58234Y206060D01*
X58187Y205945D01*
X58158Y205825D01*
X58151Y205702D01*
X58158Y191687D01*
X58187Y191567D01*
X58234Y191452D01*
X58299Y191346D01*
X58379Y191252D01*
X58473Y191172D01*
X58579Y191107D01*
X58694Y191060D01*
X58814Y191031D01*
X58938Y191024D01*
X62451Y191027D01*
Y141370D01*
X58814Y141366D01*
X58694Y141337D01*
X58579Y141290D01*
X58473Y141225D01*
X58379Y141145D01*
X58299Y141050D01*
X58234Y140945D01*
X58187Y140830D01*
X58158Y140710D01*
X58151Y140586D01*
X58158Y132344D01*
X58187Y132224D01*
X58234Y132109D01*
X58299Y132003D01*
X58379Y131909D01*
X58473Y131829D01*
X58579Y131764D01*
X58694Y131717D01*
X58814Y131688D01*
X58938Y131680D01*
X62451Y131684D01*
Y106299D01*
X57777D01*
X58076Y106688D01*
X58414Y107219D01*
X58705Y107778D01*
X58946Y108359D01*
X59135Y108959D01*
X59271Y109574D01*
X59353Y110198D01*
X59381Y110827D01*
X59374Y110923D01*
Y122638D01*
X59374Y122639D01*
X59352Y123301D01*
X59266Y123959D01*
X59122Y124608D01*
X58922Y125241D01*
X58668Y125854D01*
X58362Y126443D01*
X58005Y127003D01*
X57601Y127529D01*
X57153Y128019D01*
X56663Y128467D01*
X56136Y128871D01*
X55577Y129228D01*
X54988Y129534D01*
X54724Y129644D01*
Y133294D01*
X54748Y133701D01*
X54724Y134108D01*
Y135827D01*
X45276Y145275D01*
X44627D01*
X44585Y145311D01*
X44585Y145311D01*
X44584Y145311D01*
X44487Y145371D01*
X44383Y145434D01*
X44383Y145435D01*
X44383Y145435D01*
X44282Y145477D01*
X44165Y145525D01*
X44165Y145525D01*
X44165Y145525D01*
X44060Y145550D01*
X43936Y145580D01*
X43936Y145580D01*
X43935Y145580D01*
X43700Y145599D01*
X43641Y145594D01*
X39778Y145595D01*
X39764Y145596D01*
X39689Y145598D01*
X39614Y145608D01*
X39541Y145624D01*
X39469Y145647D01*
X39400Y145676D01*
X39333Y145710D01*
X39270Y145751D01*
X39210Y145797D01*
X39154Y145847D01*
X39104Y145903D01*
X39058Y145963D01*
X39017Y146026D01*
X38983Y146093D01*
X38954Y146162D01*
X38931Y146234D01*
X38915Y146307D01*
X38905Y146382D01*
X38902Y146457D01*
Y158434D01*
X49325Y168858D01*
X49508Y168782D01*
X50120Y168635D01*
X50748Y168586D01*
X51376Y168635D01*
X51988Y168782D01*
X52266Y168897D01*
X53150D01*
X54331Y170078D01*
Y170796D01*
X54564Y171358D01*
X54711Y171970D01*
X54748Y172598D01*
X54711Y173226D01*
X54564Y173838D01*
X54331Y174400D01*
Y176497D01*
X54350Y176507D01*
X54874Y176841D01*
X55367Y177219D01*
X55826Y177639D01*
X56246Y178098D01*
X56624Y178591D01*
X56958Y179115D01*
X57245Y179667D01*
X57483Y180241D01*
X57670Y180834D01*
X57805Y181441D01*
X57809Y181477D01*
X57917Y181652D01*
X58052Y181980D01*
X58135Y182324D01*
X58156Y182677D01*
Y187353D01*
X58163Y187441D01*
X58135Y187793D01*
X58135Y187794D01*
X58135Y187794D01*
X58135Y187794D01*
X58094Y187964D01*
X58052Y188138D01*
X58052Y188139D01*
X58052Y188139D01*
X57985Y188301D01*
X57917Y188466D01*
X57917Y188466D01*
X57917Y188466D01*
X57824Y188618D01*
X57732Y188768D01*
X57732Y188768D01*
X57732Y188768D01*
X57731Y188768D01*
X57502Y189037D01*
X57435Y189094D01*
X54681Y191847D01*
X54711Y191970D01*
X54748Y192598D01*
X54711Y193226D01*
X54564Y193838D01*
X54331Y194400D01*
Y200796D01*
X54564Y201358D01*
X54711Y201970D01*
X54748Y202598D01*
X54711Y203226D01*
X54564Y203838D01*
X54331Y204400D01*
Y206299D01*
G37*
G36*
X82046Y212008D02*Y198622D01*
X78580D01*
Y200577D01*
X80453Y200582D01*
X80621Y200623D01*
X80781Y200689D01*
X80929Y200779D01*
X81060Y200892D01*
X81173Y201023D01*
X81263Y201171D01*
X81329Y201331D01*
X81370Y201499D01*
X81380Y201672D01*
X81370Y205845D01*
X81329Y206013D01*
X81263Y206173D01*
X81173Y206321D01*
X81060Y206452D01*
X80929Y206565D01*
X80781Y206655D01*
X80621Y206721D01*
X80453Y206762D01*
X80280Y206772D01*
X78580Y206767D01*
Y212008D01*
X82046D01*
G37*
G36*
X78580Y198622D02*X72919D01*
Y205031D01*
X72926Y205119D01*
X72898Y205472D01*
X72898Y205472D01*
X72898Y205472D01*
Y205472D01*
X72858Y205639D01*
X72815Y205816D01*
X72815Y205816D01*
X72815Y205816D01*
X72744Y205989D01*
X72680Y206144D01*
X72680Y206144D01*
X72680Y206144D01*
X72611Y206255D01*
X72495Y206446D01*
X72495Y206446D01*
X72495Y206446D01*
X72495Y206446D01*
X72265Y206715D01*
X72198Y206772D01*
X69684Y209286D01*
Y212008D01*
X78580D01*
Y206767D01*
X76707Y206762D01*
X76539Y206721D01*
X76379Y206655D01*
X76231Y206565D01*
X76100Y206452D01*
X75987Y206321D01*
X75897Y206173D01*
X75831Y206013D01*
X75790Y205845D01*
X75780Y205672D01*
X75790Y201499D01*
X75831Y201331D01*
X75897Y201171D01*
X75987Y201023D01*
X76100Y200892D01*
X76231Y200779D01*
X76379Y200689D01*
X76539Y200623D01*
X76707Y200582D01*
X76880Y200572D01*
X78580Y200577D01*
Y198622D01*
G37*
G36*
X3022Y227632D02*X3032Y224646D01*
X3068Y224495D01*
X3127Y224352D01*
X3208Y224220D01*
X3309Y224103D01*
X3426Y224002D01*
X3558Y223921D01*
X3701Y223862D01*
X3852Y223826D01*
X4006Y223816D01*
X7960Y223826D01*
X8111Y223862D01*
X8254Y223921D01*
X8386Y224002D01*
X8503Y224103D01*
X8604Y224220D01*
X8685Y224352D01*
X8744Y224495D01*
X8780Y224646D01*
X8790Y224800D01*
X8789Y224913D01*
X13443D01*
X13640Y224792D01*
X13858Y224702D01*
X14088Y224647D01*
X14323Y224633D01*
X20558Y224647D01*
X20788Y224702D01*
X21006Y224792D01*
X21207Y224916D01*
X21387Y225069D01*
X21540Y225249D01*
X21664Y225450D01*
X21754Y225668D01*
X21809Y225898D01*
X21823Y226133D01*
X21809Y232368D01*
X21759Y232575D01*
X23258Y231077D01*
X23030Y230528D01*
X22865Y229839D01*
X22809Y229133D01*
X22865Y228427D01*
X23030Y227738D01*
X23301Y227084D01*
X23671Y226480D01*
X24131Y225941D01*
X24670Y225481D01*
X25274Y225111D01*
X25928Y224840D01*
X26617Y224675D01*
X27323Y224619D01*
X28029Y224675D01*
X28718Y224840D01*
X29372Y225111D01*
X29976Y225481D01*
X30515Y225941D01*
X30975Y226480D01*
X31345Y227084D01*
X31616Y227738D01*
X31781Y228427D01*
X31823Y229133D01*
X31781Y229839D01*
X31616Y230528D01*
X31345Y231182D01*
X31230Y231370D01*
X32930Y233070D01*
X35136Y233070D01*
X34670Y232785D01*
X34131Y232325D01*
X33671Y231786D01*
X33301Y231182D01*
X33030Y230528D01*
X32865Y229839D01*
X32809Y229133D01*
X32865Y228427D01*
X33030Y227738D01*
X33301Y227084D01*
X33671Y226480D01*
X34131Y225941D01*
X34670Y225481D01*
X35274Y225111D01*
X35928Y224840D01*
X36617Y224675D01*
X37323Y224619D01*
X38029Y224675D01*
X38718Y224840D01*
X39372Y225111D01*
X39560Y225226D01*
X41180Y223607D01*
X41210Y223572D01*
X41351Y223451D01*
X41509Y223354D01*
X41681Y223283D01*
X41862Y223239D01*
X41862Y223239D01*
X42047Y223225D01*
X42093Y223228D01*
X48773D01*
X48819Y223225D01*
X49004Y223239D01*
X49004Y223239D01*
X49185Y223283D01*
X49356Y223354D01*
X49515Y223451D01*
X49656Y223572D01*
X49686Y223607D01*
X53558Y227479D01*
X53593Y227509D01*
X53714Y227650D01*
X53714Y227650D01*
X53811Y227808D01*
X53882Y227980D01*
X53925Y228161D01*
X53940Y228346D01*
X53936Y228392D01*
Y230613D01*
X54426Y231102D01*
X67621D01*
X85731Y212992D01*
X64352D01*
X64388Y213144D01*
X64414Y213583D01*
X64388Y214022D01*
X64285Y214451D01*
X64117Y214858D01*
X63886Y215234D01*
X63600Y215569D01*
X63265Y215855D01*
X62889Y216086D01*
X62482Y216254D01*
X62054Y216357D01*
X61614Y216392D01*
X61243Y216362D01*
X61265Y216732D01*
X61239Y217171D01*
X61136Y217600D01*
X60968Y218007D01*
X60737Y218383D01*
X60451Y218718D01*
X60116Y219004D01*
X59740Y219235D01*
X59333Y219403D01*
X58904Y219506D01*
X58465Y219541D01*
X58093Y219511D01*
X58115Y219882D01*
X58089Y220321D01*
X57986Y220750D01*
X57817Y221157D01*
X57587Y221533D01*
X57301Y221868D01*
X56966Y222154D01*
X56590Y222385D01*
X56183Y222553D01*
X55754Y222656D01*
X55315Y222691D01*
X54876Y222656D01*
X54447Y222553D01*
X54040Y222385D01*
X53664Y222154D01*
X53329Y221868D01*
X53043Y221533D01*
X52950Y221382D01*
X23622D01*
X23387Y221368D01*
X23157Y221313D01*
X22939Y221223D01*
X22738Y221099D01*
X22558Y220946D01*
X22405Y220766D01*
X22281Y220565D01*
X22191Y220347D01*
X22136Y220117D01*
X22117Y219882D01*
X22130Y219722D01*
Y216346D01*
X21753Y216961D01*
X20997Y217847D01*
X20111Y218603D01*
X19118Y219212D01*
X18042Y219658D01*
X16909Y219929D01*
X15748Y220021D01*
X14587Y219929D01*
X13454Y219658D01*
X12378Y219212D01*
X11385Y218603D01*
X10499Y217847D01*
X9743Y216961D01*
X9134Y215968D01*
X8689Y214892D01*
X8417Y213759D01*
X8356Y212992D01*
X0D01*
Y236220D01*
X165354D01*
Y212992D01*
X134348D01*
X140606Y219250D01*
X140641Y219281D01*
X140762Y219422D01*
X140859Y219580D01*
X140930Y219752D01*
Y219752D01*
X140930Y219752D01*
X140942Y219803D01*
X140974Y219933D01*
X140974Y219933D01*
X140988Y220118D01*
X140984Y220164D01*
Y222096D01*
X141034Y222154D01*
X141084Y222235D01*
X141133Y222154D01*
X141214Y222060D01*
X141308Y221979D01*
X141414Y221914D01*
X141528Y221867D01*
X141649Y221838D01*
X141773Y221830D01*
X143077Y221838D01*
X143198Y221867D01*
X143312Y221914D01*
X143418Y221979D01*
X143513Y222060D01*
X143593Y222154D01*
X143643Y222235D01*
X143692Y222154D01*
X143773Y222060D01*
X143867Y221979D01*
X143973Y221914D01*
X144087Y221867D01*
X144208Y221838D01*
X144332Y221830D01*
X145636Y221838D01*
X145757Y221867D01*
X145871Y221914D01*
X145977Y221979D01*
X146072Y222060D01*
X146152Y222154D01*
X146202Y222235D01*
X146251Y222154D01*
X146332Y222060D01*
X146426Y221979D01*
X146532Y221914D01*
X146646Y221867D01*
X146767Y221838D01*
X146891Y221830D01*
X148195Y221838D01*
X148316Y221867D01*
X148430Y221914D01*
X148536Y221979D01*
X148631Y222060D01*
X148711Y222154D01*
X148761Y222235D01*
X148810Y222154D01*
X148891Y222060D01*
X148985Y221979D01*
X149091Y221914D01*
X149205Y221867D01*
X149326Y221838D01*
X149450Y221830D01*
X150754Y221838D01*
X150875Y221867D01*
X150989Y221914D01*
X151095Y221979D01*
X151190Y222060D01*
X151270Y222154D01*
X151320Y222235D01*
X151369Y222154D01*
X151450Y222060D01*
X151544Y221979D01*
X151650Y221914D01*
X151764Y221867D01*
X151885Y221838D01*
X152009Y221830D01*
X153313Y221838D01*
X153434Y221867D01*
X153548Y221914D01*
X153654Y221979D01*
X153749Y222060D01*
X153829Y222154D01*
X153894Y222260D01*
X153941Y222374D01*
X153970Y222495D01*
X153978Y222618D01*
X153970Y227269D01*
X153941Y227390D01*
X153894Y227504D01*
X153829Y227610D01*
X153779Y227668D01*
Y228363D01*
X153921Y228421D01*
X154264Y228632D01*
X154571Y228893D01*
X154832Y229200D01*
X155043Y229543D01*
X155197Y229915D01*
X155291Y230307D01*
X155314Y230708D01*
X155291Y231109D01*
X155197Y231501D01*
X155043Y231873D01*
X154832Y232216D01*
X154571Y232523D01*
X154264Y232784D01*
X153921Y232995D01*
X153549Y233149D01*
X153157Y233243D01*
X152756Y233274D01*
X152354Y233243D01*
X151963Y233149D01*
X151591Y232995D01*
X151247Y232784D01*
X150941Y232523D01*
X150680Y232216D01*
X150591Y232071D01*
X150501Y232216D01*
X150240Y232523D01*
X149934Y232784D01*
X149590Y232995D01*
X149218Y233149D01*
X148827Y233243D01*
X148425Y233274D01*
X148024Y233243D01*
X147632Y233149D01*
X147260Y232995D01*
X146917Y232784D01*
X146610Y232523D01*
X146349Y232216D01*
X146139Y231873D01*
X145984Y231501D01*
X145890Y231109D01*
X145859Y230708D01*
X145890Y230307D01*
X145984Y229915D01*
X146139Y229543D01*
X146349Y229200D01*
X146610Y228893D01*
X146917Y228632D01*
X147260Y228421D01*
X147632Y228267D01*
X148024Y228173D01*
X148425Y228142D01*
X148827Y228173D01*
X148860Y228181D01*
Y227668D01*
X148810Y227610D01*
X148761Y227529D01*
X148711Y227610D01*
X148631Y227704D01*
X148536Y227785D01*
X148430Y227850D01*
X148316Y227897D01*
X148195Y227926D01*
X148072Y227934D01*
X146767Y227926D01*
X146646Y227897D01*
X146532Y227850D01*
X146426Y227785D01*
X146332Y227704D01*
X146251Y227610D01*
X146202Y227529D01*
X146152Y227610D01*
X146072Y227704D01*
X145977Y227785D01*
X145871Y227850D01*
X145757Y227897D01*
X145636Y227926D01*
X145513Y227934D01*
X144208Y227926D01*
X144087Y227897D01*
X143973Y227850D01*
X143867Y227785D01*
X143773Y227704D01*
X143692Y227610D01*
X143643Y227529D01*
X143593Y227610D01*
X143513Y227704D01*
X143466Y227744D01*
X143461Y227757D01*
X143418Y227860D01*
X143418Y227860D01*
X143418Y227860D01*
X143382Y227918D01*
X143321Y228018D01*
X143321Y228018D01*
X143321Y228018D01*
X143321Y228018D01*
X143200Y228159D01*
X143165Y228189D01*
X141812Y229542D01*
X141782Y229577D01*
X141641Y229698D01*
X141641Y229698D01*
X141641Y229698D01*
X141591Y229729D01*
X141482Y229795D01*
X141482Y229795D01*
X141482Y229795D01*
X141337Y229855D01*
X141311Y229866D01*
X141311Y229866D01*
X141311Y229866D01*
X141215Y229889D01*
X141130Y229910D01*
X141130D01*
X141130Y229910D01*
X140945Y229924D01*
X140899Y229920D01*
X134347D01*
X133938Y230329D01*
X133908Y230364D01*
X133767Y230485D01*
X133608Y230582D01*
X133437Y230653D01*
X133256Y230697D01*
X133256Y230697D01*
X133071Y230711D01*
X133025Y230707D01*
X118206D01*
X115434Y233479D01*
X115404Y233514D01*
X115263Y233635D01*
X115105Y233732D01*
X114933Y233803D01*
X114752Y233847D01*
X114752Y233847D01*
X114567Y233861D01*
X114521Y233857D01*
X104639D01*
X104438Y234185D01*
X104177Y234492D01*
X103870Y234753D01*
X103527Y234964D01*
X103155Y235118D01*
X102763Y235212D01*
X102362Y235243D01*
X101960Y235212D01*
X101569Y235118D01*
X101197Y234964D01*
X100853Y234753D01*
X100547Y234492D01*
X100286Y234185D01*
X100075Y233842D01*
X99921Y233470D01*
X99827Y233078D01*
X99795Y232677D01*
X99827Y232276D01*
X99921Y231884D01*
X100075Y231512D01*
X100286Y231169D01*
X100547Y230862D01*
X100853Y230601D01*
X101197Y230390D01*
X101569Y230236D01*
X101960Y230142D01*
X102362Y230111D01*
X102763Y230142D01*
X103155Y230236D01*
X103527Y230390D01*
X103870Y230601D01*
X104177Y230862D01*
X104438Y231169D01*
X104639Y231496D01*
X114078D01*
X116849Y228725D01*
X116880Y228690D01*
X117021Y228569D01*
X117179Y228472D01*
X117351Y228401D01*
X117532Y228357D01*
X117532Y228357D01*
X117717Y228343D01*
X117763Y228346D01*
X132582D01*
X132990Y227938D01*
X133021Y227903D01*
X133098Y227837D01*
X133076Y227850D01*
X132962Y227897D01*
X132841Y227926D01*
X132718Y227934D01*
X131413Y227926D01*
X131292Y227897D01*
X131178Y227850D01*
X131072Y227785D01*
X130978Y227704D01*
X130897Y227610D01*
X130848Y227529D01*
X130798Y227610D01*
X130718Y227704D01*
X130623Y227785D01*
X130517Y227850D01*
X130403Y227897D01*
X130282Y227926D01*
X130159Y227934D01*
X128854Y227926D01*
X128733Y227897D01*
X128619Y227850D01*
X128513Y227785D01*
X128419Y227704D01*
X128338Y227610D01*
X128289Y227529D01*
X128239Y227610D01*
X128159Y227704D01*
X128064Y227785D01*
X127958Y227850D01*
X127844Y227897D01*
X127723Y227926D01*
X127600Y227934D01*
X126295Y227926D01*
X126174Y227897D01*
X126060Y227850D01*
X125954Y227785D01*
X125860Y227704D01*
X125779Y227610D01*
X125730Y227529D01*
X125680Y227610D01*
X125600Y227704D01*
X125505Y227785D01*
X125399Y227850D01*
X125285Y227897D01*
X125164Y227926D01*
X125041Y227934D01*
X123736Y227926D01*
X123615Y227897D01*
X123501Y227850D01*
X123395Y227785D01*
X123301Y227704D01*
X123220Y227610D01*
X123171Y227529D01*
X123121Y227610D01*
X123041Y227704D01*
X122946Y227785D01*
X122840Y227850D01*
X122726Y227897D01*
X122605Y227926D01*
X122482Y227934D01*
X121177Y227926D01*
X121056Y227897D01*
X120942Y227850D01*
X120836Y227785D01*
X120742Y227704D01*
X120661Y227610D01*
X120612Y227529D01*
X120562Y227610D01*
X120482Y227704D01*
X120387Y227785D01*
X120281Y227850D01*
X120167Y227897D01*
X120046Y227926D01*
X119923Y227934D01*
X118618Y227926D01*
X118497Y227897D01*
X118383Y227850D01*
X118277Y227785D01*
X118183Y227704D01*
X118102Y227610D01*
X118053Y227529D01*
X118003Y227610D01*
X117923Y227704D01*
X117828Y227785D01*
X117722Y227850D01*
X117608Y227897D01*
X117487Y227926D01*
X117364Y227934D01*
X116059Y227926D01*
X115938Y227897D01*
X115824Y227850D01*
X115718Y227785D01*
X115624Y227704D01*
X115543Y227610D01*
X115494Y227529D01*
X115444Y227610D01*
X115364Y227704D01*
X115269Y227785D01*
X115163Y227850D01*
X115049Y227897D01*
X114928Y227926D01*
X114805Y227934D01*
X113500Y227926D01*
X113379Y227897D01*
X113265Y227850D01*
X113159Y227785D01*
X113065Y227704D01*
X112984Y227610D01*
X112935Y227529D01*
X112885Y227610D01*
X112805Y227704D01*
X112710Y227785D01*
X112604Y227850D01*
X112490Y227897D01*
X112369Y227926D01*
X112246Y227934D01*
X110941Y227926D01*
X110820Y227897D01*
X110706Y227850D01*
X110600Y227785D01*
X110506Y227704D01*
X110425Y227610D01*
X110376Y227529D01*
X110326Y227610D01*
X110246Y227704D01*
X110151Y227785D01*
X110045Y227850D01*
X109931Y227897D01*
X109810Y227926D01*
X109687Y227934D01*
X108382Y227926D01*
X108261Y227897D01*
X108147Y227850D01*
X108041Y227785D01*
X107947Y227704D01*
X107866Y227610D01*
X107817Y227529D01*
X107767Y227610D01*
X107687Y227704D01*
X107592Y227785D01*
X107486Y227850D01*
X107372Y227897D01*
X107251Y227926D01*
X107128Y227934D01*
X105823Y227926D01*
X105702Y227897D01*
X105588Y227850D01*
X105482Y227785D01*
X105388Y227704D01*
X105307Y227610D01*
X105242Y227504D01*
X105195Y227390D01*
X105166Y227269D01*
X105159Y227146D01*
X105166Y222495D01*
X105195Y222374D01*
X105242Y222260D01*
X105307Y222154D01*
X105388Y222060D01*
X105482Y221979D01*
X105588Y221914D01*
X105702Y221867D01*
X105823Y221838D01*
X105947Y221830D01*
X107251Y221838D01*
X107372Y221867D01*
X107486Y221914D01*
X107592Y221979D01*
X107687Y222060D01*
X107767Y222154D01*
X107817Y222235D01*
X107866Y222154D01*
X107947Y222060D01*
X108041Y221979D01*
X108147Y221914D01*
X108261Y221867D01*
X108382Y221838D01*
X108506Y221830D01*
X109810Y221838D01*
X109931Y221867D01*
X110045Y221914D01*
X110151Y221979D01*
X110246Y222060D01*
X110326Y222154D01*
X110376Y222235D01*
X110425Y222154D01*
X110506Y222060D01*
X110600Y221979D01*
X110706Y221914D01*
X110820Y221867D01*
X110941Y221838D01*
X111065Y221830D01*
X112369Y221838D01*
X112490Y221867D01*
X112604Y221914D01*
X112710Y221979D01*
X112805Y222060D01*
X112885Y222154D01*
X112935Y222235D01*
X112984Y222154D01*
X113065Y222060D01*
X113159Y221979D01*
X113265Y221914D01*
X113379Y221867D01*
X113500Y221838D01*
X113624Y221830D01*
X114928Y221838D01*
X115049Y221867D01*
X115163Y221914D01*
X115269Y221979D01*
X115364Y222060D01*
X115444Y222154D01*
X115494Y222235D01*
X115543Y222154D01*
X115624Y222060D01*
X115718Y221979D01*
X115824Y221914D01*
X115938Y221867D01*
X116059Y221838D01*
X116183Y221830D01*
X117487Y221838D01*
X117608Y221867D01*
X117722Y221914D01*
X117828Y221979D01*
X117923Y222060D01*
X118003Y222154D01*
X118053Y222235D01*
X118102Y222154D01*
X118183Y222060D01*
X118277Y221979D01*
X118383Y221914D01*
X118497Y221867D01*
X118618Y221838D01*
X118742Y221830D01*
X120046Y221838D01*
X120167Y221867D01*
X120281Y221914D01*
X120387Y221979D01*
X120482Y222060D01*
X120562Y222154D01*
X120612Y222235D01*
X120661Y222154D01*
X120742Y222060D01*
X120836Y221979D01*
X120942Y221914D01*
X121056Y221867D01*
X121177Y221838D01*
X121301Y221830D01*
X122605Y221838D01*
X122726Y221867D01*
X122840Y221914D01*
X122946Y221979D01*
X123041Y222060D01*
X123121Y222154D01*
X123171Y222235D01*
X123220Y222154D01*
X123301Y222060D01*
X123395Y221979D01*
X123501Y221914D01*
X123615Y221867D01*
X123736Y221838D01*
X123860Y221830D01*
X125164Y221838D01*
X125285Y221867D01*
X125399Y221914D01*
X125505Y221979D01*
X125600Y222060D01*
X125680Y222154D01*
X125730Y222235D01*
X125779Y222154D01*
X125860Y222060D01*
X125954Y221979D01*
X126060Y221914D01*
X126174Y221867D01*
X126295Y221838D01*
X126419Y221830D01*
X127723Y221838D01*
X127844Y221867D01*
X127958Y221914D01*
X128064Y221979D01*
X128159Y222060D01*
X128239Y222154D01*
X128289Y222235D01*
X128338Y222154D01*
X128388Y222096D01*
Y221001D01*
X127070Y219684D01*
X95765D01*
X95356Y220093D01*
X95326Y220128D01*
X95185Y220249D01*
X95184Y220249D01*
X95184Y220249D01*
X95184Y220249D01*
X95101Y220300D01*
X95026Y220346D01*
X95026Y220346D01*
X95026Y220346D01*
X94942Y220381D01*
X94854Y220417D01*
X94854Y220417D01*
X94854Y220417D01*
X94769Y220438D01*
X94674Y220461D01*
X94674Y220461D01*
X94673Y220461D01*
X94673Y220461D01*
X94488Y220475D01*
X94442Y220472D01*
X92172D01*
X92126Y220475D01*
X91941Y220461D01*
X91760Y220417D01*
X91689Y220388D01*
X91588Y220346D01*
X91488Y220285D01*
X91430Y220249D01*
X91430Y220249D01*
X91289Y220128D01*
X91259Y220093D01*
X89355Y218189D01*
X89320Y218159D01*
X89199Y218018D01*
X89102Y217860D01*
X89031Y217688D01*
X88987Y217507D01*
X88987Y217507D01*
X88973Y217322D01*
X88976Y217276D01*
Y215448D01*
X69371Y235052D01*
X69341Y235087D01*
X69200Y235208D01*
X69200Y235208D01*
X69200Y235208D01*
X69133Y235249D01*
X69042Y235305D01*
X69042Y235305D01*
X69042Y235305D01*
X68970Y235335D01*
X68870Y235376D01*
X68870Y235376D01*
X68870Y235376D01*
X68805Y235392D01*
X68689Y235420D01*
X68689D01*
X68689Y235420D01*
X68504Y235434D01*
X68458Y235430D01*
X32487Y235432D01*
X32441Y235435D01*
X32256Y235421D01*
X32075Y235377D01*
X31903Y235306D01*
X31745Y235209D01*
X31745Y235209D01*
X31604Y235088D01*
X31574Y235053D01*
X29560Y233040D01*
X29372Y233155D01*
X28718Y233426D01*
X28029Y233591D01*
X27323Y233647D01*
X26617Y233591D01*
X25928Y233426D01*
X25379Y233198D01*
X23307Y235270D01*
X23269Y235315D01*
X23089Y235468D01*
X22888Y235592D01*
X22670Y235682D01*
X22440Y235737D01*
X22205Y235756D01*
X22146Y235751D01*
X12657D01*
X12598Y235756D01*
X12363Y235737D01*
X12133Y235682D01*
X11915Y235592D01*
X11714Y235468D01*
X11713Y235468D01*
X11534Y235315D01*
X11496Y235270D01*
X9973Y233747D01*
X8750D01*
X8744Y233771D01*
X8685Y233914D01*
X8604Y234046D01*
X8503Y234163D01*
X8386Y234264D01*
X8254Y234345D01*
X8111Y234404D01*
X7960Y234440D01*
X7806Y234450D01*
X3852Y234440D01*
X3701Y234404D01*
X3558Y234345D01*
X3426Y234264D01*
X3309Y234163D01*
X3208Y234046D01*
X3127Y233914D01*
X3068Y233771D01*
X3032Y233620D01*
X3022Y233466D01*
X3032Y230480D01*
X3068Y230329D01*
X3127Y230186D01*
X3208Y230054D01*
X3309Y229937D01*
X3426Y229836D01*
X3558Y229755D01*
X3701Y229696D01*
X3852Y229660D01*
X4006Y229650D01*
X7960Y229660D01*
X8111Y229696D01*
X8254Y229755D01*
X8386Y229836D01*
X8503Y229937D01*
X8604Y230054D01*
X8685Y230186D01*
X8744Y230329D01*
X8780Y230480D01*
X8790Y230634D01*
X8789Y230747D01*
X10535D01*
X10594Y230742D01*
X10829Y230761D01*
X10829Y230761D01*
X11059Y230816D01*
X11277Y230906D01*
X11478Y231030D01*
X11658Y231183D01*
X11696Y231228D01*
X12837Y232369D01*
X12837Y232368D01*
X12823Y232133D01*
X12832Y227913D01*
X8750D01*
X8744Y227937D01*
X8685Y228080D01*
X8604Y228212D01*
X8503Y228329D01*
X8386Y228430D01*
X8254Y228511D01*
X8111Y228570D01*
X7960Y228606D01*
X7806Y228616D01*
X3852Y228606D01*
X3701Y228570D01*
X3558Y228511D01*
X3426Y228430D01*
X3309Y228329D01*
X3208Y228212D01*
X3127Y228080D01*
X3068Y227937D01*
X3032Y227786D01*
X3022Y227632D01*
G37*
G36*
X128821Y207465D02*X135528Y214173D01*
X165354D01*
Y168503D01*
X150096D01*
X150036Y168600D01*
X149883Y168780D01*
X149838Y168818D01*
X140870Y177786D01*
Y181830D01*
X140875Y181889D01*
X140856Y182124D01*
X140801Y182354D01*
X140711Y182572D01*
X140587Y182773D01*
X140587Y182774D01*
X140434Y182953D01*
X140389Y182991D01*
X131068Y192312D01*
Y192454D01*
X131072Y192451D01*
X131178Y192386D01*
X131292Y192339D01*
X131413Y192310D01*
X131537Y192302D01*
X132841Y192310D01*
X132962Y192339D01*
X133076Y192386D01*
X133182Y192451D01*
X133277Y192532D01*
X133357Y192626D01*
X133407Y192707D01*
X133456Y192626D01*
X133537Y192532D01*
X133631Y192451D01*
X133737Y192386D01*
X133851Y192339D01*
X133972Y192310D01*
X134096Y192302D01*
X135400Y192310D01*
X135521Y192339D01*
X135635Y192386D01*
X135741Y192451D01*
X135836Y192532D01*
X135916Y192626D01*
X135966Y192707D01*
X136015Y192626D01*
X136096Y192532D01*
X136190Y192451D01*
X136296Y192386D01*
X136410Y192339D01*
X136531Y192310D01*
X136655Y192302D01*
X137959Y192310D01*
X138080Y192339D01*
X138194Y192386D01*
X138300Y192451D01*
X138395Y192532D01*
X138475Y192626D01*
X138525Y192707D01*
X138574Y192626D01*
X138655Y192532D01*
X138749Y192451D01*
X138855Y192386D01*
X138969Y192339D01*
X139090Y192310D01*
X139214Y192302D01*
X140518Y192310D01*
X140639Y192339D01*
X140753Y192386D01*
X140859Y192451D01*
X140954Y192532D01*
X141034Y192626D01*
X141084Y192707D01*
X141133Y192626D01*
X141214Y192532D01*
X141308Y192451D01*
X141414Y192386D01*
X141528Y192339D01*
X141649Y192310D01*
X141773Y192302D01*
X143077Y192310D01*
X143198Y192339D01*
X143312Y192386D01*
X143418Y192451D01*
X143513Y192532D01*
X143593Y192626D01*
X143643Y192707D01*
X143692Y192626D01*
X143773Y192532D01*
X143867Y192451D01*
X143973Y192386D01*
X144087Y192339D01*
X144208Y192310D01*
X144332Y192302D01*
X145636Y192310D01*
X145757Y192339D01*
X145871Y192386D01*
X145977Y192451D01*
X146072Y192532D01*
X146152Y192626D01*
X146202Y192707D01*
X146251Y192626D01*
X146301Y192568D01*
Y191935D01*
X146297Y191889D01*
X146311Y191704D01*
X146312Y191704D01*
X146312Y191704D01*
X146334Y191612D01*
X146355Y191523D01*
X146355Y191523D01*
X146355Y191523D01*
X146395Y191427D01*
X146426Y191352D01*
X146426Y191352D01*
X146426Y191351D01*
X146480Y191263D01*
X146523Y191193D01*
X146523Y191193D01*
X146523Y191193D01*
X146644Y191052D01*
X146679Y191022D01*
X146771Y190930D01*
X146801Y190894D01*
X146941Y190775D01*
X146942Y190774D01*
X146942Y190774D01*
X146942Y190774D01*
X147030Y190720D01*
X147100Y190677D01*
X147100Y190677D01*
X147101Y190677D01*
X147198Y190636D01*
X147272Y190606D01*
X147272Y190606D01*
X147272Y190606D01*
X147373Y190581D01*
X147453Y190562D01*
X147453Y190562D01*
X147453Y190562D01*
X147455Y190562D01*
X147638Y190548D01*
X147684Y190551D01*
X149591D01*
X150075Y190067D01*
X149961Y189933D01*
X149718Y189536D01*
X149539Y189106D01*
X149431Y188653D01*
X149394Y188189D01*
X149431Y187725D01*
X149539Y187272D01*
X149718Y186842D01*
X149961Y186445D01*
X150263Y186091D01*
X150617Y185788D01*
X151015Y185545D01*
X151445Y185367D01*
X151472Y185360D01*
X151370Y185336D01*
X150905Y185143D01*
X150475Y184880D01*
X150092Y184553D01*
X149765Y184170D01*
X149502Y183740D01*
X149309Y183275D01*
X149191Y182785D01*
X149152Y182283D01*
X149191Y181781D01*
X149309Y181291D01*
X149502Y180826D01*
X149765Y180396D01*
X150092Y180013D01*
X150475Y179686D01*
X150905Y179423D01*
X151370Y179230D01*
X151860Y179113D01*
X152362Y179073D01*
X152864Y179113D01*
X153354Y179230D01*
X153819Y179423D01*
X154249Y179686D01*
X154632Y180013D01*
X154959Y180396D01*
X155222Y180826D01*
X155415Y181291D01*
X155532Y181781D01*
X155562Y182283D01*
X155532Y182785D01*
X155415Y183275D01*
X155300Y183552D01*
X156314Y184566D01*
X156349Y184596D01*
X156470Y184737D01*
X156470Y184737D01*
X156567Y184895D01*
X156638Y185067D01*
X156681Y185248D01*
X156696Y185433D01*
X156692Y185479D01*
Y189324D01*
X156696Y189370D01*
X156681Y189554D01*
X156681Y189555D01*
X156681Y189555D01*
X156681Y189555D01*
X156663Y189634D01*
X156638Y189736D01*
X156638Y189736D01*
X156638Y189736D01*
X156606Y189812D01*
X156567Y189908D01*
X156567Y189908D01*
X156567Y189908D01*
X156528Y189972D01*
X156470Y190066D01*
X156470Y190066D01*
X156470Y190066D01*
X156469Y190067D01*
X156349Y190207D01*
X156314Y190238D01*
X153865Y192685D01*
X153894Y192732D01*
X153941Y192846D01*
X153970Y192967D01*
X153978Y193090D01*
X153970Y197741D01*
X153941Y197862D01*
X153894Y197976D01*
X153829Y198082D01*
X153749Y198176D01*
X153654Y198257D01*
X153548Y198322D01*
X153434Y198369D01*
X153313Y198398D01*
X153190Y198406D01*
X151885Y198398D01*
X151764Y198369D01*
X151650Y198322D01*
X151544Y198257D01*
X151450Y198176D01*
X151369Y198082D01*
X151320Y198001D01*
X151270Y198082D01*
X151190Y198176D01*
X151095Y198257D01*
X150989Y198322D01*
X150875Y198369D01*
X150754Y198398D01*
X150631Y198406D01*
X149326Y198398D01*
X149205Y198369D01*
X149091Y198322D01*
X148985Y198257D01*
X148891Y198176D01*
X148810Y198082D01*
X148761Y198001D01*
X148711Y198082D01*
X148631Y198176D01*
X148536Y198257D01*
X148430Y198322D01*
X148316Y198369D01*
X148195Y198398D01*
X148072Y198406D01*
X146767Y198398D01*
X146646Y198369D01*
X146532Y198322D01*
X146426Y198257D01*
X146422Y198254D01*
Y199506D01*
X146427Y199565D01*
X146408Y199800D01*
X146408Y199800D01*
X146408Y199800D01*
X146375Y199940D01*
X146353Y200030D01*
X146353Y200030D01*
X146353Y200030D01*
X146301Y200155D01*
X146263Y200248D01*
X146263Y200248D01*
X146263Y200248D01*
X146191Y200366D01*
X146139Y200449D01*
X146139Y200449D01*
X146139Y200449D01*
X145986Y200629D01*
X145941Y200667D01*
X139685Y206924D01*
X139647Y206969D01*
X139468Y207122D01*
X139468Y207122D01*
X139468Y207122D01*
X139467Y207122D01*
X139349Y207195D01*
X139266Y207246D01*
X139266Y207246D01*
X139266Y207246D01*
X139139Y207298D01*
X139048Y207336D01*
X139048Y207336D01*
X139048Y207336D01*
X138931Y207364D01*
X138819Y207391D01*
X138819Y207391D01*
X138818Y207391D01*
X138818Y207391D01*
X138583Y207410D01*
X138524Y207405D01*
X128762D01*
X128790Y207430D01*
X128821Y207465D01*
G37*
G36*
X106388Y162363D02*X106443Y162133D01*
X106533Y161915D01*
X106657Y161714D01*
X106810Y161534D01*
X106855Y161496D01*
X110487Y157863D01*
X110414Y157557D01*
X110377Y157086D01*
X110414Y156615D01*
X110524Y156156D01*
X110705Y155720D01*
X110951Y155317D01*
X111258Y154958D01*
X111617Y154652D01*
X112020Y154405D01*
X112456Y154224D01*
X112915Y154114D01*
X113386Y154077D01*
X113857Y154114D01*
X114316Y154224D01*
X114652Y154363D01*
X114596Y154273D01*
X114506Y154055D01*
X114451Y153825D01*
X114437Y153590D01*
X114440Y152362D01*
X94488D01*
Y162247D01*
X94564Y162294D01*
X94899Y162580D01*
X95185Y162915D01*
X95416Y163291D01*
X95584Y163698D01*
X95687Y164127D01*
X95713Y164566D01*
X95687Y165005D01*
X95584Y165434D01*
X95416Y165841D01*
X95185Y166217D01*
X94899Y166552D01*
X94564Y166838D01*
X94488Y166885D01*
Y195669D01*
X96304D01*
X104016Y187957D01*
X104054Y187912D01*
X104234Y187759D01*
X104435Y187635D01*
X104653Y187545D01*
X104883Y187490D01*
X105118Y187471D01*
X105177Y187476D01*
X106860D01*
X106862Y186922D01*
X106898Y186771D01*
X106957Y186628D01*
X107038Y186496D01*
X107138Y186378D01*
X107256Y186278D01*
X107388Y186197D01*
X107531Y186138D01*
X107682Y186102D01*
X107836Y186092D01*
X110822Y186102D01*
X110972Y186138D01*
X111116Y186197D01*
X111248Y186278D01*
X111365Y186378D01*
X111466Y186496D01*
X111547Y186628D01*
X111606Y186771D01*
X111642Y186922D01*
X111651Y187076D01*
X111642Y191030D01*
X111606Y191180D01*
X111547Y191324D01*
X111466Y191456D01*
X111365Y191573D01*
X111248Y191674D01*
X111116Y191755D01*
X110972Y191814D01*
X110822Y191850D01*
X110667Y191859D01*
X110596Y191859D01*
Y192219D01*
X110615Y192207D01*
X110758Y192148D01*
X110910Y192112D01*
X111065Y192102D01*
X112401Y192112D01*
X112552Y192148D01*
X112696Y192207D01*
X112828Y192289D01*
X112946Y192390D01*
X113047Y192508D01*
X113063Y192534D01*
X113065Y192532D01*
X113159Y192451D01*
X113265Y192386D01*
X113379Y192339D01*
X113500Y192310D01*
X113624Y192302D01*
X114928Y192310D01*
X115049Y192339D01*
X115163Y192386D01*
X115269Y192451D01*
X115285Y192464D01*
X115287Y192440D01*
X115287Y192440D01*
X115287Y192440D01*
X115287Y192439D01*
X115315Y192320D01*
X115342Y192210D01*
X115342Y192210D01*
X115342Y192210D01*
X115386Y192104D01*
X115432Y191992D01*
X115432Y191992D01*
X115432Y191992D01*
X115489Y191899D01*
X115515Y191856D01*
X113516Y191850D01*
X113365Y191814D01*
X113222Y191755D01*
X113090Y191674D01*
X112972Y191573D01*
X112872Y191456D01*
X112791Y191324D01*
X112732Y191180D01*
X112696Y191030D01*
X112686Y190875D01*
X112696Y186922D01*
X112732Y186771D01*
X112791Y186628D01*
X112872Y186496D01*
X112972Y186378D01*
X113090Y186278D01*
X113222Y186197D01*
X113365Y186138D01*
X113516Y186102D01*
X113670Y186092D01*
X116610Y186101D01*
Y181073D01*
X115547Y180011D01*
X115337Y180098D01*
X114762Y180236D01*
X114173Y180282D01*
X113584Y180236D01*
X113009Y180098D01*
X112463Y179871D01*
X111959Y179563D01*
X111509Y179179D01*
X111125Y178729D01*
X110816Y178225D01*
X110590Y177679D01*
X110452Y177104D01*
X110406Y176515D01*
X110452Y175926D01*
X110590Y175351D01*
X110816Y174805D01*
X111125Y174301D01*
X111422Y173954D01*
X111343Y173826D01*
X111272Y173654D01*
X111228Y173472D01*
X111217Y173286D01*
X111228Y169558D01*
X111272Y169376D01*
X111343Y169204D01*
X111441Y169045D01*
X111562Y168904D01*
X111703Y168783D01*
X111862Y168685D01*
X112034Y168614D01*
X112216Y168570D01*
X112401Y168560D01*
X116130Y168570D01*
X116311Y168614D01*
X116484Y168685D01*
X116642Y168783D01*
X116784Y168904D01*
X116905Y169045D01*
X117003Y169204D01*
X117074Y169376D01*
X117117Y169558D01*
X117128Y169744D01*
X117121Y172341D01*
X121098Y176319D01*
X121143Y176357D01*
X121296Y176536D01*
X121296Y176537D01*
X121296Y176537D01*
X121316Y176569D01*
X121420Y176738D01*
X121420Y176738D01*
X121420Y176738D01*
X121477Y176877D01*
X121510Y176956D01*
X121510Y176956D01*
X121510Y176956D01*
X121531Y177042D01*
X121565Y177186D01*
X121565Y177186D01*
X121565Y177186D01*
X121584Y177421D01*
X121579Y177480D01*
Y192067D01*
X121582Y192104D01*
X122637Y192112D01*
X122788Y192148D01*
X122932Y192207D01*
X122950Y192219D01*
Y189782D01*
X122945Y189723D01*
X122964Y189488D01*
X122964Y189488D01*
X123019Y189258D01*
X123109Y189040D01*
X123233Y188839D01*
X123386Y188659D01*
X123431Y188621D01*
X131965Y180087D01*
Y175424D01*
X125044Y168503D01*
X122834D01*
Y167698D01*
X122660Y167804D01*
X122429Y167900D01*
X122186Y167958D01*
X121937Y167973D01*
X115688Y167958D01*
X115445Y167900D01*
X115214Y167804D01*
X115001Y167674D01*
X114811Y167511D01*
X114648Y167321D01*
X114518Y167108D01*
X114422Y166877D01*
X114364Y166634D01*
X114349Y166385D01*
X114364Y160136D01*
X114419Y159905D01*
X114316Y159948D01*
X113857Y160058D01*
X113386Y160095D01*
X112915Y160058D01*
X112609Y159985D01*
X109374Y163219D01*
Y179516D01*
X109404Y179509D01*
X109843Y179474D01*
X110282Y179509D01*
X110711Y179612D01*
X111118Y179780D01*
X111494Y180011D01*
X111829Y180297D01*
X112115Y180632D01*
X112345Y181008D01*
X112514Y181415D01*
X112617Y181844D01*
X112643Y182283D01*
X112617Y182722D01*
X112514Y183151D01*
X112345Y183558D01*
X112115Y183934D01*
X111829Y184269D01*
X111494Y184555D01*
X111118Y184786D01*
X110711Y184954D01*
X110282Y185057D01*
X109843Y185092D01*
X109404Y185057D01*
X108975Y184954D01*
X108568Y184786D01*
X108192Y184555D01*
X107857Y184269D01*
X107571Y183934D01*
X107340Y183558D01*
X107172Y183151D01*
X107069Y182722D01*
X107034Y182283D01*
X107069Y181844D01*
X107110Y181672D01*
X106855Y181416D01*
X106810Y181378D01*
X106657Y181198D01*
X106657Y181198D01*
X106651Y181189D01*
X106533Y180997D01*
X106443Y180779D01*
X106443Y180779D01*
X106443Y180779D01*
X106423Y180697D01*
X106388Y180549D01*
Y180549D01*
X106388Y180549D01*
X106369Y180314D01*
X106374Y180255D01*
Y162657D01*
X106369Y162598D01*
X106388Y162363D01*
G37*
G54D12*X67323Y208465D02*X70669Y205119D01*
X49410Y208465D02*X67323D01*
G54D13*Y217716D01*
G54D14*X45866Y204921D02*X49410Y208465D01*
X45866Y203937D02*Y204921D01*
X44488Y202559D02*X45866Y203937D01*
X37007Y202559D02*X44488D01*
G54D12*X35039Y200591D02*X37007Y202559D01*
G54D13*X33661Y203543D02*Y211024D01*
X31890Y214567D02*X52362D01*
X53346Y213583D02*X61417D01*
X28937Y211614D02*X31890Y214567D01*
X52362D02*X53346Y213583D01*
X50787Y202637D02*X50748Y202598D01*
G54D15*X52756Y228346D02*X48819Y224409D01*
X52756Y231102D02*Y228346D01*
X53937Y232283D02*X52756Y231102D01*
G54D13*X67323Y217716D02*X55906Y229133D01*
G54D12*X35039Y193307D02*Y200591D01*
X40748Y187598D02*X35039Y193307D01*
X55906Y187441D02*Y182677D01*
X50748Y192598D02*X55906Y187441D01*
X40748Y197598D02*X50748Y192598D01*
X40748Y187598D02*X50748Y182598D01*
G54D13*X31890Y201772D02*X33661Y203543D01*
X31890Y190945D02*Y201772D01*
X26772Y185827D02*X31890Y190945D01*
X40748Y177598D02*X31102Y168110D01*
G54D12*X40748Y187598D02*X27953Y174803D01*
G54D13*X67716Y164762D02*X67126Y163386D01*
X14961Y187008D02*X10630Y191339D01*
X18110Y187008D02*X14961D01*
X10630Y200394D02*X14567Y204724D01*
X10630Y191339D02*Y200394D01*
X7874Y202361D02*X10236Y204724D01*
X13780Y199213D02*Y193307D01*
X7874Y190551D02*Y202361D01*
X18110Y191732D02*Y198818D01*
X25591Y206299D01*
X14567Y204724D02*X15748D01*
X13780Y199213D02*X15748Y201181D01*
X22835Y190551D02*Y198425D01*
X13386Y178740D02*X15354Y175591D01*
X10236Y180315D02*Y173622D01*
X11811Y181890D02*X10236Y180315D01*
X2756Y150197D02*Y176969D01*
X15748Y181890D02*X11811D01*
X2756Y176969D02*X3543Y177756D01*
X20473Y177165D02*X15748Y181890D01*
X22047Y177165D02*X20473D01*
X22047D02*Y177166D01*
X20863Y182284D02*X15746Y184252D01*
X14173D01*
X27953Y182284D02*X20863D01*
X22835Y185827D02*X26772D01*
X14173Y184252D02*X7874Y190551D01*
X27953Y182284D02*Y170472D01*
G54D16*X23622Y212992D02*Y219882D01*
G54D13*X5906Y226413D02*X14603D01*
X25591Y206299D02*Y216732D01*
X12598Y234251D02*X22205D01*
X14603Y226413D02*X17323Y229133D01*
X5906Y232247D02*X10594D01*
X12598Y234251D01*
X22205D02*X27323Y229133D01*
X25591Y216732D02*X58268D01*
X23622Y219882D02*X55118D01*
G54D15*X48819Y224409D02*X42047D01*
X32441Y234251D02*X27323Y229133D01*
X42047Y224409D02*X37323Y229133D01*
G54D13*X22835Y198425D02*X29921Y205512D01*
G54D15*X68504Y234250D02*X32441Y234251D01*
X68110Y232283D02*X53937D01*
G54D13*X78580Y182444D02*Y178611D01*
X75197Y178543D02*X81496D01*
X78543Y175000D02*Y178574D01*
X78580Y178611D01*
X77559Y183465D02*X78580Y182444D01*
X79134Y186811D02*X85630D01*
X87008Y183465D02*X86380Y182837D01*
X78580Y199840D02*X77559Y198819D01*
G54D12*X70669Y198622D02*X71457Y196260D01*
G54D13*X78937Y195472D02*X85827D01*
G54D12*X71457Y196260D02*Y191142D01*
X82480D01*
Y195472D02*Y186811D01*
G54D13*X86380Y199447D02*X87008Y198819D01*
X95276Y198818D02*X105118Y188976D01*
X87795Y191338D02*X91339D01*
X97244Y185433D01*
G54D15*X103387Y201968D02*X93307D01*
G54D13*X86448Y203740D02*X89370D01*
X86380Y203672D02*X86448Y203740D01*
X86417Y203709D02*Y207480D01*
X86380Y203672D02*X86312Y203740D01*
X78648D02*X81496D01*
X78580Y203672D02*X78648Y203740D01*
X78543Y203709D02*Y207087D01*
X78580Y203672D02*X78543Y203709D01*
X78512Y203740D02*X75000D01*
X78580Y203672D02*X78512Y203740D01*
X86380Y203672D02*X86417Y203709D01*
X86312Y203740D02*X83465D01*
X86380Y203672D02*Y199447D01*
X78580Y203672D02*Y199840D01*
G54D12*X70669Y205119D02*Y198622D01*
G54D15*X91339Y203937D02*Y209053D01*
X94094Y203543D02*X92913Y204726D01*
X93307Y201968D02*X91339Y203937D01*
X101181Y208267D02*X99606Y209842D01*
X91339Y209053D02*X68110Y232283D01*
X92913Y209842D02*X68504Y234250D01*
X92126Y219291D02*X90157Y217322D01*
Y214961D01*
X92126Y212992D01*
X96457D01*
X95276Y218503D02*X94488Y219291D01*
X92126D01*
X93701Y216535D02*X93307Y216141D01*
G54D13*X86380Y182837D02*Y178611D01*
X89764Y178543D02*X83465D01*
X86417Y178574D02*X86380Y178611D01*
X86417Y175000D02*Y178574D01*
X107874Y162598D02*Y180314D01*
X110631Y178347D02*Y169685D01*
X112204Y168110D01*
X117323D01*
X97244Y185433D02*X112992D01*
X114961D02*X112992D01*
X107874Y180314D02*X109843Y182283D01*
X118110Y180452D02*X114173Y176515D01*
X112992Y185433D02*Y180708D01*
X110631Y178347D01*
X120079Y177421D02*X114173Y171515D01*
X146457Y166929D02*X137008Y176377D01*
X133465Y180708D02*Y174803D01*
X139370Y177165D02*X148819Y167716D01*
X137008Y181418D02*Y176377D01*
X151575Y172047D02*X142363Y181259D01*
X117323Y168110D02*X121260Y172047D01*
X133465Y174803D02*X124016Y165354D01*
X139370Y181889D02*Y177165D01*
X148819Y157872D02*X156299Y150392D01*
X148819Y167716D02*Y157872D01*
X146457Y157087D02*Y166929D01*
X144922Y195354D02*Y199565D01*
X142363Y181259D02*Y195354D01*
G54D15*X147481Y191889D02*X147638Y191732D01*
X147481Y195354D02*Y191889D01*
G54D13*X124450Y195354D02*Y189723D01*
X129568Y195354D02*Y191691D01*
X127009Y195354D02*Y191417D01*
X124450Y189723D02*X133465Y180708D01*
X127009Y191417D02*X137008Y181418D01*
X129568Y191691D02*X139370Y181889D01*
G54D15*X150040Y195354D02*Y191772D01*
X152599Y195354D02*Y192282D01*
X155512Y189370D01*
X152362Y188189D02*Y189450D01*
X150040Y191772D01*
X150000Y191732D01*
X147638D01*
X155512Y189370D02*Y185433D01*
X152362Y182283D01*
G54D13*X96850Y205905D02*X96063Y206692D01*
G54D15*X92913Y204726D02*Y209842D01*
X117717Y229527D02*X114567Y232677D01*
X102362D01*
X105512Y210236D02*X103150Y212598D01*
G54D13*X105118Y188976D02*X109252D01*
X109096Y195354D02*Y189132D01*
X109252Y188976D01*
X114214Y195354D02*Y189848D01*
X115086Y188976D01*
X114961Y185433D01*
X116773Y195354D02*Y192675D01*
X118110Y191338D01*
Y180452D01*
X119332Y195354D02*Y192873D01*
X120079Y192126D01*
Y177421D01*
G54D15*X121891Y195354D02*Y198975D01*
X117323Y203543D01*
X106537Y195354D02*Y198818D01*
X103387Y201968D01*
X150040Y229093D02*X148425Y230708D01*
X142363Y224882D02*Y227322D01*
X140945Y228740D01*
X150040Y224882D02*Y229093D01*
X140945Y228740D02*X133858D01*
X133071Y229527D01*
X137245Y224882D02*Y220316D01*
X134686Y224882D02*Y220512D01*
X139804Y224882D02*Y220118D01*
X152599Y224882D02*Y230551D01*
X152756Y230708D01*
X133071Y229527D02*X117717D01*
G54D13*X144922Y199565D02*X138583Y205905D01*
G54D15*X139804Y220118D02*X127953Y208267D01*
X137245Y220316D02*X127165Y210236D01*
X134686Y220512D02*X127559Y213385D01*
X129568Y220512D02*X127559Y218503D01*
X132127Y224882D02*Y220709D01*
X129568Y224882D02*Y220512D01*
X132127Y220709D02*X127953Y216535D01*
X117323Y203543D02*X94094D01*
X127953Y208267D02*X101181D01*
G54D13*X138583Y205905D02*X96850D01*
G54D15*X127165Y210236D02*X105512D01*
X127559Y213385D02*X107480D01*
X127953Y216535D02*X93701D01*
X127559Y218503D02*X95276D01*
G54D13*X71260Y131963D02*X71333Y131890D01*
Y128617D01*
X79134Y135433D02*Y131891D01*
X79133Y131890D01*
X81693D02*X76378D01*
X71333D02*X74213D01*
X71260Y135433D02*Y131963D01*
X71333Y128617D02*X69094Y126378D01*
X79133Y131890D02*Y127757D01*
X124016Y165354D02*Y147244D01*
X121260Y144488D01*
X103149D01*
X92913Y134251D01*
X113386Y157086D02*X107874Y162598D01*
X92913Y164566D02*X70079D01*
X67716Y164762D01*
X79133Y127757D02*X79921Y126969D01*
X92913Y134251D02*Y81102D01*
X75891Y123032D02*X78937D01*
X75233Y123690D02*X75891Y123032D01*
X74575D02*X71654D01*
X75233Y123690D02*X74575Y123032D01*
G54D12*X75197Y123654D02*X75233Y123690D01*
Y118219D02*Y123690D01*
G54D17*X62415Y69507D02*X73819D01*
X62415Y64507D02*X73819D01*
X62415D02*X56693D01*
X62415Y69507D02*X56693D01*
X62415Y59507D02*X73819D01*
X62415Y54507D02*X73819D01*
X62415Y59507D02*X56693D01*
X62415Y54507D02*X56693D01*
G54D18*X95276Y36614D02*X71260D01*
X83071Y48425D02*Y24803D01*
X111023Y36614D02*X135039D01*
X122047Y49212D02*Y24606D01*
G54D13*X150591Y104366D02*X156299Y110074D01*
X150591Y98187D02*Y104366D01*
X147674Y107283D02*X143858D01*
X138937Y112204D01*
X156299Y150392D02*Y110074D01*
X150591Y128936D02*Y134878D01*
X153508Y137795D01*
X147638Y142519D02*Y137831D01*
X147674Y137795D01*
X153508D02*X153543Y150000D01*
X146457Y157087D01*
X150591Y90787D02*Y85629D01*
X150394Y115354D02*Y121339D01*
X150591Y121536D01*
X153508Y82677D02*Y84216D01*
X147709Y82677D02*X142874D01*
X138937Y86614D01*
X150591Y85629D02*X153543Y82677D01*
X156299Y86850D02*Y87007D01*
X153508Y84216D02*X156299Y87007D01*
G54D19*X138937Y73818D02*X147638Y73622D01*
X152756D02*X155512Y70866D01*
X147638Y73622D02*X152756D01*
X155512Y68897D02*Y65354D01*
Y70866D02*Y68897D01*
G54D13*X31102Y168110D02*X31103Y131102D01*
G54D16*X18110Y157480D02*Y152559D01*
G54D12*X27953Y174803D02*Y129528D01*
G54D15*X7480Y143701D02*Y148425D01*
X5709Y143701D02*Y147244D01*
X19882Y137008D02*X15748Y135433D01*
X19882Y137008D02*X20669D01*
X20472Y135433D02*X20669D01*
X20473D02*X15748Y133661D01*
G54D16*X33661Y119488D02*Y114961D01*
G54D13*X27559Y118898D02*Y111417D01*
X29724Y119488D02*X23819Y125394D01*
X29724Y109843D02*Y119488D01*
X33661D02*X26575Y126575D01*
G54D16*X34055Y108071D02*X39764Y113780D01*
X31496Y108071D02*X34055D01*
G54D13*X50787Y108858D02*X40905D01*
X40945D02*X40748Y108701D01*
X40905Y108858D02*X40748Y108701D01*
G54D16*X29724Y109843D02*X31496Y108071D01*
G54D13*X27559Y111417D02*X23622Y107480D01*
X38583Y123622D02*X44094D01*
G54D12*X27953Y129528D02*X38780Y118701D01*
G54D20*X44094Y171654D02*X45669Y172441D01*
G54D12*X44094Y171653D02*X34252Y161811D01*
G54D13*X50787Y172441D02*X37402Y159055D01*
X45669Y142125D02*Y133858D01*
X39764Y144095D02*X43700Y144094D01*
X45669Y142125D01*
X37402Y159055D02*Y146457D01*
G54D12*X34252Y161811D02*Y133465D01*
G54D16*X39764Y113780D02*X43701D01*
G54D13*X55512Y113583D02*Y113976D01*
G54D12*X38780Y118701D02*X44094Y118898D01*
G54D13*X49015Y118701D02*X44094Y123622D01*
X52165Y105118D02*X50748Y103701D01*
X57874Y110827D02*Y122638D01*
X50787Y118701D02*X49015D01*
X50787Y128740D02*X51772D01*
X31103Y131102D02*X38583Y123622D01*
G54D12*X39016Y128701D02*X40748D01*
X34252Y133465D02*X39016Y128701D01*
X40748D02*X50748Y123701D01*
Y113701D02*X44094Y118898D01*
G54D13*X10236Y173622D02*X7874Y169685D01*
G54D16*X23622Y167323D02*Y162992D01*
G54D13*X7874Y169685D02*Y156693D01*
G54D15*X5709Y147244D02*X2756Y150197D01*
G54D16*X23622Y162992D02*X18110Y157480D01*
G54D13*X12205Y152362D02*Y151969D01*
X7874Y156693D02*X12205Y152362D01*
G54D15*X7480Y148426D02*X5906Y150000D01*
G54D13*Y172835D01*
X6299Y173228D01*
X20669Y125788D02*X27559Y118898D01*
X23622Y120079D02*Y114173D01*
X18504Y125197D02*X23622Y120079D01*
X14764Y125000D02*Y110039D01*
X18504Y125197D02*Y125984D01*
X20669Y132284D02*Y125788D01*
G54D15*X25394Y127756D02*Y132480D01*
X23819Y125394D02*Y132284D01*
X26575Y126575D02*X25394Y127756D01*
G54D13*X18504Y125984D02*X14764Y129724D01*
X3937Y86614D02*X2756Y85433D01*
X3937Y104331D02*Y86614D01*
X7480Y102756D02*Y81179D01*
X14764Y110039D02*X7480Y102756D01*
Y81179D02*X7403Y81102D01*
X2756Y76772D02*X4332Y75196D01*
G54D21*X30512Y59055D02*Y69881D01*
G54D17*X41915Y69507D02*X30512D01*
X41915Y64507D02*X30512D01*
G54D13*X4332Y75196D02*X25197D01*
X2756Y85433D02*Y76772D01*
G54D21*X24606Y53149D02*X30512Y59055D01*
G54D17*X41915Y59507D02*X30512D01*
G54D12*X8858Y38385D02*X9842D01*
X24606Y53149D02*Y50590D01*
X33858Y41338D01*
G54D22*X9842Y38385D02*X24606Y53149D01*
G54D13*X41915Y54507D02*X49823D01*
X50197Y54133D01*
G54D17*X41915Y4311D02*X30512D01*
X41915Y9311D02*X30512D01*
X41915Y14311D02*X30512D01*
X41915Y19311D02*X32480D01*
G54D21*X52165Y6889D02*Y22637D01*
G54D18*Y25590D02*X43308D01*
X41339Y27559D01*
X52165Y23622D02*X43307D01*
X41339Y25590D01*
G54D17*X62415Y4311D02*X52165D01*
X62415Y9311D02*X52165D01*
X62415Y14311D02*X52165D01*
G54D13*X61024Y24606D02*X66929D01*
X68898Y22637D01*
Y20669D01*
X67540Y19311D01*
X62415D01*
G54D18*X41339Y25590D02*Y42479D01*
X55906Y38385D02*Y49212D01*
X56102Y38189D02*X55906Y38385D01*
X67323Y38189D02*X56102D01*
G54D13*X37402Y146457D02*G75*G03X39764Y144095I2362J0D01*G01*
G54D15*X7480Y143701D02*G75*G03X15748Y135433I8268J0D01*G01*
G54D13*X52165Y105118D02*G75*G03X57874Y110827I0J5709D01*G01*
Y122638D02*G75*G03X51772Y128740I-6102J0D01*G01*
X45669Y133858D02*G75*G03X50787Y128740I5118J0D01*G01*
X55512Y113976D02*G75*G03X50787Y118701I-4725J0D01*G01*
Y108858D02*G75*G03X55512Y113583I0J4725D01*G01*
G54D15*X5709Y143700D02*G75*G03X15748Y133661I10039J0D01*G01*
X25394Y132284D02*G75*G03X20670Y137008I-4724J0D01*G01*
X23819Y132284D02*G75*G03X20670Y135433I-3149J0D01*G01*
G54D16*X15748Y204724D02*G75*G03X23622Y212598I0J7874D01*G01*
G54D13*X23622Y167323D02*G75*G03X15354Y175591I-8268J0D01*G01*
G54D20*X50787Y177559D02*G75*G03X55906Y182678I0J5119D01*G01*
X50787Y177559D02*G75*G03X45669Y172441I0J-5118D01*G01*
G54D15*X111374Y72739D02*Y70744D01*
Y72739D02*X110709Y73404D01*
X110044Y72739D02*X110709Y73404D01*
X110044Y72739D02*Y70744D01*
X109379Y70079D02*X110044Y70744D01*
X109379Y70079D02*X108714Y70744D01*
Y72739D02*Y70744D01*
Y72739D02*X109379Y73404D01*
X110709Y70079D02*X111374Y70744D01*
X106054Y75665D02*X110709D01*
X111374Y76330D01*
X108049D02*Y75000D01*
X108714Y77660D02*X110709D01*
X111374Y78325D01*
Y79655D02*Y78325D01*
Y79655D02*X110709Y80320D01*
X108714D02*X110709D01*
X106054Y84576D02*X111374D01*
Y83911D02*X110709Y84576D01*
X111374Y83911D02*Y82581D01*
X110709Y81916D02*X111374Y82581D01*
X109379Y81916D02*X110709D01*
X109379D02*X108714Y82581D01*
Y83911D02*Y82581D01*
Y83911D02*X109379Y84576D01*
X111374Y88832D02*Y86837D01*
X110709Y86172D02*X111374Y86837D01*
X109379Y86172D02*X110709D01*
X109379D02*X108714Y86837D01*
Y88167D02*Y86837D01*
Y88167D02*X109379Y88832D01*
X110044D02*Y86172D01*
X109379Y88832D02*X110044D01*
X109379Y91093D02*X111374D01*
X109379D02*X108714Y91758D01*
Y92423D02*Y91758D01*
Y92423D02*X109379Y93088D01*
X111374D01*
X108714Y90428D02*X109379Y91093D01*
X106054Y95349D02*X110709D01*
X111374Y96014D01*
X108049D02*Y94684D01*
X109379Y98009D02*X111374D01*
X109379D02*X108714Y98674D01*
Y100004D02*Y98674D01*
Y97344D02*X109379Y98009D01*
Y101600D02*X110709D01*
X109379D02*X108714Y102265D01*
Y103595D02*Y102265D01*
Y103595D02*X109379Y104260D01*
X110709D01*
X111374Y103595D02*X110709Y104260D01*
X111374Y103595D02*Y102265D01*
X110709Y101600D02*X111374Y102265D01*
X106054Y105856D02*X111374D01*
X110709D02*X111374Y106521D01*
Y107851D02*Y106521D01*
Y107851D02*X110709Y108516D01*
X109379D02*X110709D01*
X108714Y107851D02*X109379Y108516D01*
X108714Y107851D02*Y106521D01*
X109379Y105856D02*X108714Y106521D01*
X109379Y110112D02*X110709D01*
X109379D02*X108714Y110777D01*
Y112107D02*Y110777D01*
Y112107D02*X109379Y112772D01*
X110709D01*
X111374Y112107D02*X110709Y112772D01*
X111374Y112107D02*Y110777D01*
X110709Y110112D02*X111374Y110777D01*
X106054Y115033D02*X110709D01*
X111374Y115698D01*
X108049D02*Y114368D01*
X107384Y117028D02*X108049D01*
X109379D02*X111374D01*
X108714Y121018D02*Y119023D01*
X109379Y118358D02*X108714Y119023D01*
X109379Y118358D02*X110709D01*
X111374Y119023D01*
Y121018D02*Y119023D01*
Y125274D02*Y123279D01*
Y125274D02*X110709Y125939D01*
X110044Y125274D02*X110709Y125939D01*
X110044Y125274D02*Y123279D01*
X109379Y122614D02*X110044Y123279D01*
X109379Y122614D02*X108714Y123279D01*
Y125274D02*Y123279D01*
Y125274D02*X109379Y125939D01*
X110709Y122614D02*X111374Y123279D01*
Y128200D02*Y127535D01*
X109379Y129796D02*X110709D01*
X109379D02*X108714Y130461D01*
Y131791D02*Y130461D01*
Y131791D02*X109379Y132456D01*
X110709D01*
X111374Y131791D02*X110709Y132456D01*
X111374Y131791D02*Y130461D01*
X110709Y129796D02*X111374Y130461D01*
X109379Y134717D02*X111374D01*
X109379D02*X108714Y135382D01*
Y136712D02*Y135382D01*
Y134052D02*X109379Y134717D01*
X108714Y140303D02*X109379Y140968D01*
X108714Y140303D02*Y138973D01*
X109379Y138308D02*X108714Y138973D01*
X109379Y138308D02*X110709D01*
X111374Y138973D01*
Y140303D02*Y138973D01*
Y140303D02*X110709Y140968D01*
X112704Y138308D02*X113369Y138973D01*
Y140303D02*Y138973D01*
Y140303D02*X112704Y140968D01*
X108714D02*X112704D01*
X96606Y90454D02*X97271Y91119D01*
X96606Y90454D02*Y88459D01*
X97271Y87794D02*X96606Y88459D01*
X97271Y87794D02*X98601D01*
X99266Y88459D01*
Y90454D02*Y88459D01*
Y90454D02*X99931Y91119D01*
X101261D01*
X101926Y90454D02*X101261Y91119D01*
X101926Y90454D02*Y88459D01*
X101261Y87794D02*X101926Y88459D01*
Y95375D02*Y93380D01*
X101261Y92715D02*X101926Y93380D01*
X99931Y92715D02*X101261D01*
X99931D02*X99266Y93380D01*
Y94710D02*Y93380D01*
Y94710D02*X99931Y95375D01*
X100596D02*Y92715D01*
X99931Y95375D02*X100596D01*
X99931Y97636D02*X101926D01*
X99931D02*X99266Y98301D01*
Y99631D02*Y98301D01*
Y96971D02*X99931Y97636D01*
X99266Y101227D02*X100596D01*
X101926Y102557D01*
X100596Y103887D01*
X99266D02*X100596D01*
X99931Y105483D02*X101261D01*
X99931D02*X99266Y106148D01*
Y107478D02*Y106148D01*
Y107478D02*X99931Y108143D01*
X101261D01*
X101926Y107478D02*X101261Y108143D01*
X101926Y107478D02*Y106148D01*
X101261Y105483D02*X101926Y106148D01*
X96605Y114471D02*X97270Y115136D01*
X96605Y114471D02*Y112476D01*
X97270Y111811D02*X96605Y112476D01*
X97270Y111811D02*X98600D01*
X99265Y112476D01*
Y114471D02*Y112476D01*
Y114471D02*X99930Y115136D01*
X101260D01*
X101925Y114471D02*X101260Y115136D01*
X101925Y114471D02*Y112476D01*
X101260Y111811D02*X101925Y112476D01*
X96605Y119392D02*Y116732D01*
Y119392D02*X97270Y120057D01*
X98600D01*
X99265Y119392D02*X98600Y120057D01*
X99265Y119392D02*Y117397D01*
X96605D02*X101925D01*
X99265D02*X101925Y120057D01*
Y123648D02*Y122318D01*
X96605Y122983D02*X101925D01*
X97935Y121653D02*X96605Y122983D01*
X101925Y127239D02*Y125909D01*
X96605Y126574D02*X101925D01*
X97935Y125244D02*X96605Y126574D01*
X101925Y129500D02*Y128835D01*
X96605Y131096D02*X101925D01*
X96605Y133756D02*Y131096D01*
X99265Y133091D02*Y131096D01*
X59331Y134421D02*Y132861D01*
Y133641D02*X65571D01*
Y134421D02*Y132861D01*
X59331Y136293D02*X65571D01*
X59331D02*X60111D01*
X64011Y140193D01*
X59331D02*X65571D01*
X60111Y192204D02*X64791D01*
X60111D02*X59331Y192984D01*
Y194544D02*Y192984D01*
Y194544D02*X60111Y195324D01*
X64791D01*
X65571Y194544D02*X64791Y195324D01*
X65571Y194544D02*Y192984D01*
X64791Y192204D02*X65571Y192984D01*
X59331Y197196D02*X64791D01*
X65571Y197976D01*
Y199536D02*Y197976D01*
Y199536D02*X64791Y200316D01*
X59331D02*X64791D01*
X59331Y205308D02*Y202188D01*
Y203748D02*X65571D01*
G54D11*G36*
X37748Y141701D02*Y135701D01*
X43748D01*
Y141701D01*
X37748D01*
G37*
G54D23*X50748Y133701D03*
X40748Y177598D03*
X50748Y172598D03*
Y103701D03*
X40748Y108701D03*
X50748Y123701D03*
X40748Y128701D03*
Y118701D03*
X50748Y113701D03*
G54D24*X24606Y53149D03*
Y23621D03*
G54D11*G36*
X4403Y84102D02*Y78102D01*
X10403D01*
Y84102D01*
X4403D01*
G37*
G54D23*X17403Y81102D03*
X27403D03*
X37403D03*
X47403D03*
G54D11*G36*
X115937Y166385D02*Y160385D01*
X121937D01*
Y166385D01*
X115937D01*
G37*
G54D23*X128937Y163385D03*
X138937D03*
G54D11*G36*
X112401Y173286D02*Y169744D01*
X115944D01*
Y173286D01*
X112401D01*
G37*
G36*
X115937Y128000D02*Y122000D01*
X121937D01*
Y128000D01*
X115937D01*
G37*
G36*
Y115204D02*Y109204D01*
X121937D01*
Y115204D01*
X115937D01*
G37*
G54D23*X128937Y125000D03*
X138937D03*
G54D11*G36*
X115937Y140795D02*Y134795D01*
X121937D01*
Y140795D01*
X115937D01*
G37*
G54D23*X128937Y137795D03*
X138937D03*
G54D25*X114173Y176515D03*
G54D11*G36*
X115937Y153590D02*Y147590D01*
X121937D01*
Y153590D01*
X115937D01*
G37*
G54D23*X128937Y150590D03*
X138937D03*
G54D11*G36*
X142669Y21700D02*Y15700D01*
X148669D01*
Y21700D01*
X142669D01*
G37*
G54D23*X155669Y18700D03*
G54D11*G36*
X142669Y58118D02*Y52118D01*
X148669D01*
Y58118D01*
X142669D01*
G37*
G54D23*X155669Y55118D03*
X128937Y112204D03*
X138937D03*
G54D11*G36*
X115937Y102409D02*Y96409D01*
X121937D01*
Y102409D01*
X115937D01*
G37*
G54D23*X128937Y99409D03*
X138937D03*
G54D11*G36*
X115937Y89614D02*Y83614D01*
X121937D01*
Y89614D01*
X115937D01*
G37*
G54D23*X128937Y86614D03*
X138937D03*
G54D11*G36*
X115937Y76818D02*Y70818D01*
X121937D01*
Y76818D01*
X115937D01*
G37*
G54D23*X128937Y73818D03*
X138937D03*
X50748Y192598D03*
X40748Y187598D03*
G54D11*G36*
X14323Y232133D02*Y226133D01*
X20323D01*
Y232133D01*
X14323D01*
G37*
G54D23*X27323Y229133D03*
X37323D03*
X47323D03*
X40748Y197598D03*
G54D11*G36*
X37748Y210598D02*Y204598D01*
X43748D01*
Y210598D01*
X37748D01*
G37*
G54D23*X50748Y202598D03*
Y182598D03*
G54D26*X109096Y226555D02*Y223209D01*
X106537Y226555D02*Y223209D01*
G54D27*X5422Y232050D02*X6390D01*
X5422Y226216D02*X6390D01*
G54D28*X79133Y132190D02*Y131590D01*
X75233Y123990D02*Y123390D01*
X71333Y132190D02*Y131590D01*
X78580Y178911D02*Y178311D01*
X86380Y178911D02*Y178311D01*
X82480Y187111D02*Y186511D01*
X86380Y203972D02*Y203372D01*
X78580Y203972D02*Y203372D01*
X82480Y195772D02*Y195172D01*
G54D11*G36*
X73189Y46377D02*Y26692D01*
X92874D01*
Y46377D01*
X73189D01*
G37*
G54D29*X38665Y69507D02*X45165D01*
X59165D02*X65665D01*
X38665Y64507D02*X45165D01*
X38665Y59507D02*X45165D01*
X38665Y54507D02*X45165D01*
X59165D02*X65665D01*
X59165Y59507D02*X65665D01*
X59165Y64507D02*X65665D01*
G54D11*G36*
X46457Y47834D02*Y28936D01*
X65355D01*
Y47834D01*
X46457D01*
G37*
G36*
X38583Y45235D02*Y39723D01*
X44095D01*
Y45235D01*
X38583D01*
G37*
G54D29*X59165Y4311D02*X65665D01*
X38665D02*X45165D01*
X59165Y9311D02*X65665D01*
X59165Y14311D02*X65665D01*
X59165Y19311D02*X65665D01*
X38665D02*X45165D01*
X38665Y14311D02*X45165D01*
X38665Y9311D02*X45165D01*
G54D11*G36*
X38583Y37047D02*Y31535D01*
X44095D01*
Y37047D01*
X38583D01*
G37*
G54D27*X115086Y189460D02*Y188492D01*
X109252Y189460D02*Y188492D01*
X153508Y138279D02*Y137311D01*
X147674Y138279D02*Y137311D01*
G54D26*X106537Y197027D02*Y193681D01*
X109096Y197027D02*Y193681D01*
X111655Y197027D02*Y193681D01*
X114214Y197027D02*Y193681D01*
X116773Y197027D02*Y193681D01*
X129568Y197027D02*Y193681D01*
X132127Y197027D02*Y193681D01*
X134686Y197027D02*Y193681D01*
X137245Y197027D02*Y193681D01*
X139804Y197027D02*Y193681D01*
X142363Y197027D02*Y193681D01*
X144922Y197027D02*Y193681D01*
X147481Y197027D02*Y193681D01*
X150040Y197027D02*Y193681D01*
X152599Y197027D02*Y193681D01*
Y226555D02*Y223209D01*
X150040Y226555D02*Y223209D01*
X147481Y226555D02*Y223209D01*
X144922Y226555D02*Y223209D01*
X142363Y226555D02*Y223209D01*
X139804Y226555D02*Y223209D01*
X137245Y226555D02*Y223209D01*
X134686Y226555D02*Y223209D01*
X132127Y226555D02*Y223209D01*
X129568Y226555D02*Y223209D01*
X127009Y226555D02*Y223209D01*
X124450Y226555D02*Y223209D01*
X121891Y226555D02*Y223209D01*
X119332Y226555D02*Y223209D01*
X116773Y226555D02*Y223209D01*
X114214Y226555D02*Y223209D01*
X111655Y226555D02*Y223209D01*
X119332Y197027D02*Y193681D01*
X121891Y197027D02*Y193681D01*
X124450Y197027D02*Y193681D01*
X127009Y197027D02*Y193681D01*
G54D30*X149591Y98187D02*X151591D01*
X149591Y90787D02*X151591D01*
X149591Y128936D02*X151591D01*
X149591Y121536D02*X151591D01*
G54D27*X153508Y107767D02*Y106799D01*
X147674Y107767D02*Y106799D01*
Y83161D02*Y82193D01*
X153508Y83161D02*Y82193D01*
G54D11*G36*
X112559Y46377D02*Y26692D01*
X132244D01*
Y46377D01*
X112559D01*
G37*
G54D31*X14764Y125000D03*
X3937Y104331D03*
X14764Y129724D03*
X20669Y132284D03*
X23622Y114173D03*
X25197Y75196D03*
X23622Y107480D03*
G54D23*X8858Y38385D03*
X26772Y138976D03*
G54D31*X57480Y103543D03*
G54D32*X43701Y113780D03*
X33661Y114961D03*
G54D23*X52165Y14763D03*
Y6889D03*
Y22637D03*
G54D31*X50197Y54133D03*
X61024Y24606D03*
X33858Y41338D03*
X72638Y114173D03*
X92913Y81102D03*
X78740Y50196D03*
X74409Y90944D03*
X45669Y147638D03*
Y152362D03*
Y157087D03*
Y161811D03*
X79921Y126969D03*
X150394Y115354D03*
X79724Y115748D03*
X75233Y118219D03*
X69094Y126378D03*
X63583Y144685D03*
Y150000D03*
Y155315D03*
Y160630D03*
X67126Y158071D03*
X113386Y157086D03*
X109055Y31102D03*
X147638Y142519D03*
X156299Y87007D03*
X138780Y46652D03*
Y40747D03*
X162205Y36614D03*
X138780Y26968D03*
Y32874D03*
X155512Y5511D03*
X161024Y10236D03*
Y61417D03*
G54D23*X40157Y168110D03*
G54D31*X27953Y170472D03*
X40945Y147638D03*
Y152362D03*
Y157087D03*
X15748Y201181D03*
X10236Y204724D03*
X22835Y185827D03*
X18110Y187008D03*
X22835Y190551D03*
X13780Y193307D03*
X18110Y191732D03*
X13386Y178740D03*
X12205Y151969D03*
X18110Y152559D03*
X22047Y177165D03*
G54D32*X6299Y173228D03*
X3543Y177756D03*
G54D31*X28937Y211614D03*
X29921Y205512D03*
X77559Y198819D03*
G54D32*X76378Y189764D03*
G54D31*X87008Y183465D03*
X77559D03*
X87008Y198819D03*
X61614Y213583D03*
X33661Y211024D03*
X92913Y164566D03*
X63583Y165945D03*
X67126Y163386D03*
X55315Y219882D03*
X58465Y216732D03*
X55906Y229133D03*
G54D25*X93307Y216141D03*
X102362Y232677D03*
X152756Y230708D03*
X148425D03*
X96457Y212992D03*
X99606Y209842D03*
X107480Y213385D03*
X103150Y212598D03*
G54D31*X121260Y172047D03*
X152362Y182283D03*
G54D25*Y188189D03*
G54D31*X109843Y182283D03*
X151575Y172047D03*
X95276Y198818D03*
X96063Y206692D03*
G54D20*G54D33*G54D20*G54D33*G54D20*G54D33*G54D20*G54D34*G54D20*G54D34*G54D20*G54D33*G54D35*G54D33*G54D35*G54D33*G54D23*G54D35*G54D36*G54D34*G54D36*G54D34*G54D36*G54D37*G54D36*G54D33*G54D36*G54D33*G54D35*M02*
