G04 start of page 9 for group -4078 idx -4078 *
G04 Title: (unknown), bottomsilk *
G04 Creator: pcb 1.99z *
G04 CreationDate: Wed 09 Mar 2011 16:43:30 GMT UTC *
G04 For: richard *
G04 Format: Gerber/RS-274X *
G04 PCB-Dimensions: 165354 236220 *
G04 PCB-Coordinate-Origin: lower left *
%MOIN*%
%FSLAX25Y25*%
%LNBACKSILK*%
%ADD11C,0.0200*%
%ADD13C,0.0100*%
%ADD15C,0.0079*%
%ADD64C,0.0080*%
G54D15*X77362Y170473D02*Y171260D01*
X69685Y169488D02*Y150394D01*
X82677Y150197D02*Y169488D01*
X69685Y150197D02*X82677D01*
X77363Y171259D02*X76576Y172046D01*
X75591Y169685D02*X56299D01*
X82677Y169488D02*X69685D01*
X75591Y210039D02*Y169685D01*
X56299Y210039D02*X75591D01*
X56299Y169685D02*Y210039D01*
G54D13*X64567Y85040D02*X66535Y83070D01*
X89764Y47637D02*Y45275D01*
X91732Y43307D01*
G54D15*X56299Y131299D02*Y121063D01*
X67717Y131299D02*X56299D01*
X67717Y121063D02*Y131299D01*
X62205D02*Y121063D01*
X56299D02*X67717D01*
X60630Y98818D02*X64173D01*
X72441Y107086D01*
X69685Y101967D02*X72441Y101968D01*
X60630Y92913D02*X69685Y101968D01*
X67520Y139568D02*X68110Y140158D01*
X67520Y132284D02*Y139568D01*
X69291Y136024D02*Y148622D01*
X79921Y136024D02*X69291D01*
X79921Y148622D02*Y136024D01*
X69291Y148622D02*X79921D01*
X74606D02*Y136024D01*
X13976Y123032D02*X13189Y122245D01*
X13976Y127756D02*Y123032D01*
X17717Y131496D02*X13976Y127756D01*
X12796Y132677D02*X10434Y130315D01*
X25591Y131496D02*X17717D01*
X35435Y216484D02*Y221104D01*
Y216484D02*X36205Y215714D01*
X37745D01*
X38515Y216484D01*
Y221104D01*
X37745Y221874D02*X38515Y221104D01*
X36205Y221874D02*X37745D01*
X35435Y221104D02*X36205Y221874D01*
X40364Y215714D02*Y221104D01*
X41134Y221874D01*
X42674D01*
X43444Y221104D01*
Y215714D02*Y221104D01*
X45294Y215714D02*X48374D01*
X46834D02*Y221874D01*
X85597Y119130D02*Y120670D01*
Y119900D02*X91757D01*
Y119130D02*Y120670D01*
X85597Y117281D02*X91757D01*
X85597D02*X86367D01*
X90217Y113431D01*
X85597D02*X91757D01*
X134621Y63436D02*X135396Y62661D01*
X134621Y63436D02*Y65761D01*
X135396Y66536D02*X134621Y65761D01*
X135396Y66536D02*X140046D01*
X140821Y65761D01*
Y63436D02*Y65761D01*
Y63436D02*X140046Y62661D01*
X138496D02*X140046D01*
X137721Y63436D02*X138496Y62661D01*
X137721Y63436D02*Y64986D01*
X134621Y60800D02*X140821D01*
X134621D02*X135396D01*
X139271Y56925D01*
X134621D02*X140821D01*
X134621Y54288D02*X140821D01*
X134621Y51963D02*X135396Y51188D01*
X140046D01*
X140821Y51963D02*X140046Y51188D01*
X140821Y51963D02*Y55063D01*
X134621Y51963D02*Y55063D01*
X125567Y63436D02*Y66536D01*
X128667D01*
X127892Y65761D01*
Y64211D02*Y65761D01*
Y64211D02*X128667Y63436D01*
X130992D01*
X131767Y64211D02*X130992Y63436D01*
X131767Y64211D02*Y65761D01*
X130992Y66536D02*X131767Y65761D01*
X125567Y61575D02*X130217D01*
X131767Y60025D01*
X130217Y58475D01*
X125567D02*X130217D01*
X121925Y63436D02*Y65761D01*
X121150Y66536D02*X121925Y65761D01*
X116500Y66536D02*X121150D01*
X116500D02*X115725Y65761D01*
Y63436D02*Y65761D01*
Y58475D02*Y61575D01*
Y60025D02*X121925D01*
X115725Y53513D02*Y56613D01*
Y53513D02*X116500Y52738D01*
X118050D01*
X118825Y53513D02*X118050Y52738D01*
X118825Y53513D02*Y55838D01*
X115725D02*X121925D01*
X118825D02*X121925Y52738D01*
X115725Y50877D02*X121925D01*
Y47777D02*Y50877D01*
G54D13*X68503Y96244D02*Y85644D01*
Y96244D02*X81103D01*
Y85644D01*
X68503D02*X81103D01*
X74803Y96244D02*Y85644D01*
Y90944D02*X77803D01*
G54D15*X107744Y74605D02*Y73031D01*
X110760Y74605D02*Y73031D01*
X69815Y78185D02*Y76611D01*
X66799Y78185D02*Y76611D01*
X75327Y78185D02*Y76611D01*
X72311Y78185D02*Y76611D01*
X107744Y87401D02*Y85827D01*
X110760Y87401D02*Y85827D01*
G54D13*X113937Y81614D02*X123937D01*
Y91614D02*Y81614D01*
X113937Y91614D02*Y81614D01*
X143937D01*
Y91614D02*Y81614D01*
X113937Y91614D02*X143937D01*
X113937Y68818D02*X123937D01*
Y78818D02*Y68818D01*
X113937Y78818D02*Y68818D01*
X143937D01*
Y78818D02*Y68818D01*
X113937Y78818D02*X143937D01*
G54D15*X107744Y112991D02*Y111417D01*
X110760Y112991D02*Y111417D01*
X107744Y125787D02*Y124213D01*
X110760Y125787D02*Y124213D01*
X103083Y43306D02*Y41732D01*
X100067Y43306D02*Y41732D01*
X111744Y46062D02*Y44488D01*
X108728Y46062D02*Y44488D01*
G54D11*X120991Y37106D02*X129403D01*
G54D13*X131103Y30106D01*
Y5806D01*
X119291D02*X131103D01*
X119291Y30106D02*Y5806D01*
X120991Y37106D02*X119291Y30106D01*
G54D15*X96390Y31495D02*Y29921D01*
X93374Y31495D02*Y29921D01*
X96389Y43306D02*Y41732D01*
X93373Y43306D02*Y41732D01*
G54D13*X88030Y29306D02*Y19906D01*
X76130Y29306D02*X88030D01*
X76130D02*Y19906D01*
X88030D01*
G54D15*X81103Y17256D02*X82677D01*
X81103Y14240D02*X82677D01*
G54D13*X94688Y54170D02*X96688Y52170D01*
X108068D02*X96688D01*
X108068Y63970D02*Y52170D01*
X94688Y63970D02*X108068D01*
X94688Y54170D02*Y63970D01*
X97378Y58070D02*G75*G03X97378Y58070I4000J0D01*G01*
G54D64*X148623Y49014D02*X152559D01*
X148623Y38386D02*X152559D01*
X148623Y35235D02*X152559D01*
X148623Y24607D02*X152559D01*
G54D15*X38845Y42161D02*Y40587D01*
X41861Y42161D02*Y40587D01*
G54D64*X3544Y52164D02*Y48228D01*
X14172Y52164D02*Y48228D01*
G54D15*X45736Y42161D02*Y40587D01*
X48752Y42161D02*Y40587D01*
G54D13*X51180Y82481D02*Y69681D01*
X65080D01*
Y82481D02*Y69681D01*
X51180Y82481D02*X65080D01*
G54D11*X24334Y89007D02*Y97607D01*
G54D13*X26934Y98807D01*
X44534D01*
Y87807D01*
X26934D01*
X24334Y89007D01*
G54D15*X54492Y90224D02*X56066D01*
X54492Y93240D02*X56066D01*
X54594Y42161D02*Y40587D01*
X57610Y42161D02*Y40587D01*
G54D13*X61834Y45881D02*X72145D01*
X77145D02*X87456D01*
X61834D02*Y34905D01*
X87456D01*
Y45881D02*Y34905D01*
X72145Y45881D02*G75*G03X77145Y45881I2500J0D01*G01*
G54D64*X14172Y28542D02*Y24606D01*
X3544Y28542D02*Y24606D01*
X63582Y178346D02*X68306D01*
X63582Y170866D02*X68306D01*
X63582Y208858D02*X68306D01*
X63582Y201378D02*X68306D01*
G54D13*X88880Y189611D02*Y175711D01*
X76080D02*X88880D01*
X76080Y189611D02*Y175711D01*
Y189611D02*X88880D01*
X76080Y192672D02*Y206572D01*
X88880D01*
Y192672D01*
X76080D01*
G54D64*X63582Y187597D02*X68306D01*
X63582Y180117D02*X68306D01*
X63582Y199016D02*X68306D01*
X63582Y191536D02*X68306D01*
G54D15*X75197Y230641D02*X76771D01*
X75197Y227625D02*X76771D01*
G54D13*X113937Y94409D02*X123937D01*
Y104409D02*Y94409D01*
X113937Y104409D02*Y94409D01*
X143937D01*
Y104409D02*Y94409D01*
X113937Y104409D02*X143937D01*
X113937Y107204D02*X123937D01*
Y117204D02*Y107204D01*
X113937Y117204D02*Y107204D01*
X143937D01*
Y117204D02*Y107204D01*
X113937Y117204D02*X143937D01*
X113937Y120000D02*X123937D01*
Y130000D02*Y120000D01*
X113937Y130000D02*Y120000D01*
X143937D01*
Y130000D02*Y120000D01*
X113937Y130000D02*X143937D01*
G54D15*X107744Y100196D02*Y98622D01*
X110760Y100196D02*Y98622D01*
G54D13*X113937Y132795D02*X123937D01*
Y142795D02*Y132795D01*
X113937Y142795D02*Y132795D01*
X143937D01*
Y142795D02*Y132795D01*
X113937Y142795D02*X143937D01*
G54D15*X107744Y149803D02*Y151377D01*
X110760Y149803D02*Y151377D01*
G54D13*X113937Y158385D02*X123937D01*
Y168385D02*Y158385D01*
X113937Y168385D02*Y158385D01*
X143937D01*
Y168385D02*Y158385D01*
X113937Y168385D02*X143937D01*
G54D15*X107744Y138582D02*Y137008D01*
X110760Y138582D02*Y137008D01*
G54D13*X113937Y145590D02*X123937D01*
Y155590D02*Y145590D01*
X113937Y155590D02*Y145590D01*
X143937D01*
Y155590D02*Y145590D01*
X113937Y155590D02*X143937D01*
X2347Y201651D02*Y180439D01*
Y201651D02*X33479D01*
Y180439D01*
X2347D02*X15413D01*
X20413D02*X33479D01*
X20413D02*G75*G03X15413Y180439I-2500J0D01*G01*
G54D64*X9251Y156888D02*Y156102D01*
X3741Y156888D02*Y156102D01*
G54D15*X31263Y173689D02*X32837D01*
X31263Y176705D02*X32837D01*
X62366Y229133D02*X63940D01*
X62366D02*X63940Y227952D01*
X62366Y229133D02*X63940Y230314D01*
Y227952D02*Y230314D01*
G54D13*X18148Y130241D02*X23548D01*
X26648D02*X32048D01*
Y118441D01*
X18148D02*X32048D01*
X18148Y130241D02*Y118441D01*
X23548Y130241D02*G75*G03X26548Y130241I1500J0D01*G01*
X22218Y141312D02*X63618D01*
X22218Y169812D02*Y141312D01*
Y169812D02*X63618D01*
Y141312D01*
G54D15*X7088Y136547D02*X8662D01*
X7088Y133531D02*X8662D01*
G54D11*X22123Y115717D02*Y107117D01*
G54D13*X19523Y105917D01*
X1923D02*X19523D01*
X1923Y116917D02*Y105917D01*
Y116917D02*X19523D01*
X22123Y115717D01*
G54D15*X54492Y96130D02*X56066D01*
X54492Y99146D02*X56066D01*
X6854Y126051D02*X8428D01*
X6854Y129067D02*X8428D01*
X7087Y122374D02*X8661D01*
X7087Y119358D02*X8661D01*
X7019Y209216D02*Y207642D01*
X4003Y209216D02*Y207642D01*
G54D13*X67738Y119224D02*Y105324D01*
X54938D02*X67738D01*
X54938Y119224D02*Y105324D01*
Y119224D02*X67738D01*
G54D15*X63453Y127004D02*Y125430D01*
X66469Y127004D02*Y125430D01*
X57745Y127004D02*Y125430D01*
X60761Y127004D02*Y125430D01*
X61185Y135760D02*X62759D01*
X61185Y132744D02*X62759D01*
X107744Y164369D02*Y162795D01*
X110760Y164369D02*Y162795D01*
G54D13*X68833Y120890D02*Y134790D01*
X81633D01*
Y120890D01*
X68833D01*
G54D15*X145342Y224409D02*Y222835D01*
X148358Y224409D02*Y222835D01*
X124476Y224409D02*Y222835D01*
X127492Y224409D02*Y222835D01*
X140484Y224409D02*Y222835D01*
X137468Y224409D02*Y222835D01*
G54D13*X148046Y214837D02*Y193625D01*
X116914D02*X148046D01*
X116914Y214837D02*Y193625D01*
X134980Y214837D02*X148046D01*
X116914D02*X129980D01*
G75*G03X134980Y214837I2500J0D01*G01*
G54D15*X119618Y224409D02*Y222835D01*
X116602Y224409D02*Y222835D01*
X111744Y224409D02*Y222835D01*
X108728Y224409D02*Y222835D01*
X148358Y185826D02*Y184252D01*
X145342Y185826D02*Y184252D01*
X137468Y185825D02*Y184251D01*
X140484Y185825D02*Y184251D01*
X116602Y185826D02*Y184252D01*
X119618Y185826D02*Y184252D01*
X127491Y185827D02*Y184253D01*
X124475Y185827D02*Y184253D01*
X90214Y186869D02*X90604Y186479D01*
X90214Y186869D02*Y188039D01*
X90604Y188429D02*X90214Y188039D01*
X90604Y188429D02*X91384D01*
X91774Y188039D01*
Y186869D02*Y188039D01*
Y186869D02*X92164Y186479D01*
X92944D01*
X93334Y186869D02*X92944Y186479D01*
X93334Y186869D02*Y188039D01*
X92944Y188429D02*X93334Y188039D01*
X92944Y185543D02*X90604Y183203D01*
X90214Y181876D02*X93334D01*
X90214Y180706D02*X90604Y180316D01*
X92944D01*
X93334Y180706D02*X92944Y180316D01*
X93334Y180706D02*Y182266D01*
X90214Y180706D02*Y182266D01*
X91774Y179379D02*X90214Y177819D01*
X91774Y177429D02*Y179379D01*
X90214Y177819D02*X93334D01*
X106575Y225878D02*Y227378D01*
X106075Y227878D02*X106575Y227378D01*
X103075Y227878D02*X106075D01*
X103075D02*X102575Y227378D01*
Y225878D02*Y227378D01*
X106575Y223177D02*Y224177D01*
X102575Y223677D02*X106575D01*
X103575Y224677D02*X102575Y223677D01*
X106575Y220476D02*Y221476D01*
X102575Y220976D02*X106575D01*
X103575Y221976D02*X102575Y220976D01*
X90216Y203799D02*X90606Y203409D01*
X90216Y203799D02*Y204969D01*
X90606Y205359D02*X90216Y204969D01*
X90606Y205359D02*X91386D01*
X91776Y204969D01*
Y203799D02*Y204969D01*
Y203799D02*X92166Y203409D01*
X92946D01*
X93336Y203799D02*X92946Y203409D01*
X93336Y203799D02*Y204969D01*
X92946Y205359D02*X93336Y204969D01*
X92946Y202473D02*X90606Y200133D01*
X90216Y198806D02*X93336D01*
X90216Y197636D02*X90606Y197246D01*
X92946D01*
X93336Y197636D02*X92946Y197246D01*
X93336Y197636D02*Y199196D01*
X90216Y197636D02*Y199196D01*
Y194749D02*Y196309D01*
X91776D01*
X91386Y195919D01*
Y195139D02*Y195919D01*
Y195139D02*X91776Y194749D01*
X92946D01*
X93336Y195139D02*X92946Y194749D01*
X93336Y195139D02*Y195919D01*
X92946Y196309D02*X93336Y195919D01*
X72426Y151370D02*X72816Y151760D01*
X71256Y151370D02*X72426D01*
X70866Y151760D02*X71256Y151370D01*
X70866Y151760D02*Y152540D01*
X71256Y152930D01*
X72426D01*
X72816Y153320D01*
Y154100D01*
X72426Y154490D02*X72816Y154100D01*
X71256Y154490D02*X72426D01*
X70866Y154100D02*X71256Y154490D01*
X73752Y154100D02*X76092Y151760D01*
X77029Y151370D02*Y154490D01*
Y151370D02*X78589D01*
X77029Y152930D02*X78199D01*
X79526Y151760D02*X79916Y151370D01*
X81086D01*
X81476Y151760D01*
Y152540D01*
X79526Y154490D02*X81476Y152540D01*
X79526Y154490D02*X81476D01*
X72424Y155897D02*X72814Y156287D01*
X71254Y155897D02*X72424D01*
X70864Y156287D02*X71254Y155897D01*
X70864Y156287D02*Y157067D01*
X71254Y157457D01*
X72424D01*
X72814Y157847D01*
Y158627D01*
X72424Y159017D02*X72814Y158627D01*
X71254Y159017D02*X72424D01*
X70864Y158627D02*X71254Y159017D01*
X73750Y158627D02*X76090Y156287D01*
X77027Y155897D02*Y159017D01*
Y155897D02*X78587D01*
X77027Y157457D02*X78197D01*
X79914Y159017D02*X80694D01*
X80304Y155897D02*Y159017D01*
X79524Y156677D02*X80304Y155897D01*
X65387Y151624D02*X65777Y151234D01*
X65387Y151624D02*Y152794D01*
X65777Y153184D02*X65387Y152794D01*
X65777Y153184D02*X66557D01*
X66947Y152794D01*
Y151624D02*Y152794D01*
Y151624D02*X67337Y151234D01*
X68117D01*
X68507Y151624D02*X68117Y151234D01*
X68507Y151624D02*Y152794D01*
X68117Y153184D02*X68507Y152794D01*
X68117Y150298D02*X65777Y147958D01*
X65387Y147021D02*X68117D01*
X68507Y146631D01*
Y145851D02*Y146631D01*
Y145851D02*X68117Y145461D01*
X65387D02*X68117D01*
X68507Y143354D02*Y144134D01*
X65387Y143744D02*X68507D01*
X66167Y144524D02*X65387Y143744D01*
X72425Y160622D02*X72815Y161012D01*
X71255Y160622D02*X72425D01*
X70865Y161012D02*X71255Y160622D01*
X70865Y161012D02*Y161792D01*
X71255Y162182D01*
X72425D01*
X72815Y162572D01*
Y163352D01*
X72425Y163742D02*X72815Y163352D01*
X71255Y163742D02*X72425D01*
X70865Y163352D02*X71255Y163742D01*
X73751Y163352D02*X76091Y161012D01*
X77028Y160622D02*Y163742D01*
Y160622D02*X78588D01*
X77028Y162182D02*X78198D01*
X79525D02*X81085Y160622D01*
X79525Y162182D02*X81475D01*
X81085Y160622D02*Y163742D01*
X72425Y165150D02*X72815Y165540D01*
X71255Y165150D02*X72425D01*
X70865Y165540D02*X71255Y165150D01*
X70865Y165540D02*Y166320D01*
X71255Y166710D01*
X72425D01*
X72815Y167100D01*
Y167880D01*
X72425Y168270D02*X72815Y167880D01*
X71255Y168270D02*X72425D01*
X70865Y167880D02*X71255Y168270D01*
X73751Y167880D02*X76091Y165540D01*
X77028Y165150D02*Y168270D01*
Y165150D02*X78588D01*
X77028Y166710D02*X78198D01*
X79525Y165540D02*X79915Y165150D01*
X80695D01*
X81085Y165540D01*
Y167880D01*
X80695Y168270D02*X81085Y167880D01*
X79915Y168270D02*X80695D01*
X79525Y167880D02*X79915Y168270D01*
Y166710D02*X81085D01*
X74016Y221866D02*X76016D01*
X76516Y222366D01*
Y223366D01*
X76016Y223866D02*X76516Y223366D01*
X74516Y223866D02*X76016D01*
X74516Y221866D02*Y225866D01*
Y223866D02*X76516Y225866D01*
X77717Y222366D02*X78217Y221866D01*
X79717D01*
X80217Y222366D01*
Y223366D01*
X77717Y225866D02*X80217Y223366D01*
X77717Y225866D02*X80217D01*
X82918Y221866D02*X83418Y222366D01*
X81918Y221866D02*X82918D01*
X81418Y222366D02*X81918Y221866D01*
X81418Y222366D02*Y225366D01*
X81918Y225866D01*
X82918Y223866D02*X83418Y224366D01*
X81418Y223866D02*X82918D01*
X81918Y225866D02*X82918D01*
X83418Y225366D01*
Y224366D02*Y225366D01*
X92732Y23195D02*Y25195D01*
Y23195D02*X93232Y22695D01*
X94232D01*
X94732Y23195D02*X94232Y22695D01*
X94732Y23195D02*Y24695D01*
X92732D02*X96732D01*
X94732D02*X96732Y22695D01*
Y19994D02*Y20994D01*
X92732Y20494D02*X96732D01*
X93732Y21494D02*X92732Y20494D01*
X70981Y27399D02*X73981D01*
X70981D02*X70481Y26899D01*
Y25899D02*Y26899D01*
Y25899D02*X70981Y25399D01*
X73981D01*
X74481Y25899D02*X73981Y25399D01*
X74481Y25899D02*Y26899D01*
X73981Y27399D02*X74481Y26899D01*
X73481Y26399D02*X74481Y25399D01*
X70981Y24198D02*X70481Y23698D01*
Y22698D02*Y23698D01*
Y22698D02*X70981Y22198D01*
X73981D01*
X74481Y22698D02*X73981Y22198D01*
X74481Y22698D02*Y23698D01*
X73981Y24198D02*X74481Y23698D01*
X72481Y22198D02*Y23698D01*
X78740Y8874D02*X80740D01*
X81240Y9374D01*
Y10374D01*
X80740Y10874D02*X81240Y10374D01*
X79240Y10874D02*X80740D01*
X79240Y8874D02*Y12874D01*
Y10874D02*X81240Y12874D01*
X82441Y10874D02*X84441Y8874D01*
X82441Y10874D02*X84941D01*
X84441Y8874D02*Y12874D01*
X38205Y33789D02*Y35789D01*
Y33789D02*X38705Y33289D01*
X39705D01*
X40205Y33789D02*X39705Y33289D01*
X40205Y33789D02*Y35289D01*
X38205D02*X42205D01*
X40205D02*X42205Y33289D01*
X38705Y32088D02*X38205Y31588D01*
Y30088D02*Y31588D01*
Y30088D02*X38705Y29588D01*
X39705D01*
X42205Y32088D02*X39705Y29588D01*
X42205D02*Y32088D01*
X19763Y45443D02*Y46943D01*
X19263Y47443D02*X19763Y46943D01*
X16263Y47443D02*X19263D01*
X16263D02*X15763Y46943D01*
Y45443D02*Y46943D01*
X19763Y44242D02*X17263Y41742D01*
X15763D02*X17263D01*
X15763D02*Y44242D01*
X49096Y33396D02*Y34896D01*
X48596Y35396D02*X49096Y34896D01*
X45596Y35396D02*X48596D01*
X45596D02*X45096Y34896D01*
Y33396D02*Y34896D01*
X45596Y32195D02*X45096Y31695D01*
Y30695D02*Y31695D01*
Y30695D02*X45596Y30195D01*
X48596D01*
X49096Y30695D02*X48596Y30195D01*
X49096Y30695D02*Y31695D01*
X48596Y32195D02*X49096Y31695D01*
X47096Y30195D02*Y31695D01*
X57954Y33396D02*Y34896D01*
X57454Y35396D02*X57954Y34896D01*
X54454Y35396D02*X57454D01*
X54454D02*X53954Y34896D01*
Y33396D02*Y34896D01*
X57454Y32195D02*X57954Y31695D01*
X56454Y32195D02*X57454D01*
X56454D02*X55954Y31695D01*
Y30695D02*Y31695D01*
Y30695D02*X56454Y30195D01*
X57454D01*
X57954Y30695D02*X57454Y30195D01*
X57954Y30695D02*Y31695D01*
X55454Y32195D02*X55954Y31695D01*
X54454Y32195D02*X55454D01*
X54454D02*X53954Y31695D01*
Y30695D02*Y31695D01*
Y30695D02*X54454Y30195D01*
X55454D01*
X55954Y30695D02*X55454Y30195D01*
X103427Y35007D02*Y36507D01*
X102927Y37007D02*X103427Y36507D01*
X99927Y37007D02*X102927D01*
X99927D02*X99427Y36507D01*
Y35007D02*Y36507D01*
X99927Y33806D02*X99427Y33306D01*
Y31806D02*Y33306D01*
Y31806D02*X99927Y31306D01*
X100927D01*
X103427Y33806D02*X100927Y31306D01*
X103427D02*Y33806D01*
X84647Y49029D02*X86647D01*
X87147Y49529D01*
Y50529D01*
X86647Y51029D02*X87147Y50529D01*
X85147Y51029D02*X86647D01*
X85147Y49029D02*Y53029D01*
Y51029D02*X87147Y53029D01*
X88348Y49529D02*X88848Y49029D01*
X89848D01*
X90348Y49529D01*
Y52529D01*
X89848Y53029D02*X90348Y52529D01*
X88848Y53029D02*X89848D01*
X88348Y52529D02*X88848Y53029D01*
Y51029D02*X90348D01*
X61938Y29409D02*Y32909D01*
X62438Y33409D01*
X63438D01*
X63938Y32909D01*
Y29409D02*Y32909D01*
X65639Y33409D02*X66639D01*
X66139Y29409D02*Y33409D01*
X65139Y30409D02*X66139Y29409D01*
X19762Y32842D02*Y34342D01*
X19262Y34842D02*X19762Y34342D01*
X16262Y34842D02*X19262D01*
X16262D02*X15762Y34342D01*
Y32842D02*Y34342D01*
Y30141D02*X16262Y29641D01*
X15762Y30141D02*Y31141D01*
X16262Y31641D02*X15762Y31141D01*
X16262Y31641D02*X19262D01*
X19762Y31141D01*
X17762Y30141D02*X18262Y29641D01*
X17762Y30141D02*Y31641D01*
X19762Y30141D02*Y31141D01*
Y30141D02*X19262Y29641D01*
X18262D02*X19262D01*
X113741Y11704D02*X117741D01*
X113741Y10204D02*X114241Y9704D01*
X117241D01*
X117741Y10204D02*X117241Y9704D01*
X117741Y10204D02*Y12204D01*
X113741Y10204D02*Y12204D01*
X115741Y8503D02*X113741Y6503D01*
X115741Y6003D02*Y8503D01*
X113741Y6503D02*X117741D01*
X145511Y111334D02*Y112834D01*
Y111334D02*X149011D01*
X149511Y111834D02*X149011Y111334D01*
X149511Y111834D02*Y112334D01*
X149011Y112834D02*X149511Y112334D01*
X145511Y108133D02*Y110133D01*
X147511D01*
X147011Y109633D01*
Y108633D02*Y109633D01*
Y108633D02*X147511Y108133D01*
X149011D01*
X149511Y108633D02*X149011Y108133D01*
X149511Y108633D02*Y109633D01*
X149011Y110133D02*X149511Y109633D01*
X145710Y126295D02*Y127795D01*
Y126295D02*X149210D01*
X149710Y126795D02*X149210Y126295D01*
X149710Y126795D02*Y127295D01*
X149210Y127795D02*X149710Y127295D01*
Y125094D02*X147210Y122594D01*
X145710D02*X147210D01*
X145710D02*Y125094D01*
X145118Y138501D02*Y140001D01*
Y138501D02*X148618D01*
X149118Y139001D02*X148618Y138501D01*
X149118Y139001D02*Y139501D01*
X148618Y140001D02*X149118Y139501D01*
X148618Y137300D02*X149118Y136800D01*
X147618Y137300D02*X148618D01*
X147618D02*X147118Y136800D01*
Y135800D02*Y136800D01*
Y135800D02*X147618Y135300D01*
X148618D01*
X149118Y135800D02*X148618Y135300D01*
X149118Y135800D02*Y136800D01*
X146618Y137300D02*X147118Y136800D01*
X145618Y137300D02*X146618D01*
X145618D02*X145118Y136800D01*
Y135800D02*Y136800D01*
Y135800D02*X145618Y135300D01*
X146618D01*
X147118Y135800D02*X146618Y135300D01*
X108087Y37764D02*Y39764D01*
Y37764D02*X108587Y37264D01*
X109587D01*
X110087Y37764D02*X109587Y37264D01*
X110087Y37764D02*Y39264D01*
X108087D02*X112087D01*
X110087D02*X112087Y37264D01*
X108087Y34063D02*Y36063D01*
X110087D01*
X109587Y35563D01*
Y34563D02*Y35563D01*
Y34563D02*X110087Y34063D01*
X111587D01*
X112087Y34563D02*X111587Y34063D01*
X112087Y34563D02*Y35563D01*
X111587Y36063D02*X112087Y35563D01*
X136101Y44259D02*Y45759D01*
X135601Y46259D02*X136101Y45759D01*
X132601Y46259D02*X135601D01*
X132601D02*X132101Y45759D01*
Y44259D02*Y45759D01*
Y41058D02*Y43058D01*
X134101D01*
X133601Y42558D01*
Y41558D02*Y42558D01*
Y41558D02*X134101Y41058D01*
X135601D01*
X136101Y41558D02*X135601Y41058D01*
X136101Y41558D02*Y42558D01*
X135601Y43058D02*X136101Y42558D01*
X136100Y30480D02*Y31980D01*
X135600Y32480D02*X136100Y31980D01*
X132600Y32480D02*X135600D01*
X132600D02*X132100Y31980D01*
Y30480D02*Y31980D01*
X134100Y29279D02*X132100Y27279D01*
X134100Y26779D02*Y29279D01*
X132100Y27279D02*X136100D01*
X86122Y95131D02*X86512Y94741D01*
X86122Y95131D02*Y96301D01*
X86512Y96691D02*X86122Y96301D01*
X86512Y96691D02*X87292D01*
X87682Y96301D01*
Y95131D02*Y96301D01*
Y95131D02*X88072Y94741D01*
X88852D01*
X89242Y95131D02*X88852Y94741D01*
X89242Y95131D02*Y96301D01*
X88852Y96691D02*X89242Y96301D01*
X88852Y93805D02*X86512Y91465D01*
X86122Y90528D02*X89242D01*
Y88968D02*Y90528D01*
X87682Y86861D02*Y88031D01*
X89242Y86471D02*Y88031D01*
X86122D02*X89242D01*
X86122Y86471D02*Y88031D01*
Y85144D02*X89242D01*
X86122Y83974D02*X86512Y83584D01*
X88852D01*
X89242Y83974D02*X88852Y83584D01*
X89242Y83974D02*Y85534D01*
X86122Y83974D02*Y85534D01*
X89242Y81478D02*Y82258D01*
X86122Y81868D02*X89242D01*
X86902Y82648D02*X86122Y81868D01*
X101592Y76147D02*Y78147D01*
Y76147D02*X102092Y75647D01*
X103092D01*
X103592Y76147D02*X103092Y75647D01*
X103592Y76147D02*Y77647D01*
X101592D02*X105592D01*
X103592D02*X105592Y75647D01*
Y72946D02*Y73946D01*
X101592Y73446D02*X105592D01*
X102592Y74446D02*X101592Y73446D01*
X105092Y71745D02*X105592Y71245D01*
X102092Y71745D02*X105092D01*
X102092D02*X101592Y71245D01*
Y70245D02*Y71245D01*
Y70245D02*X102092Y69745D01*
X105092D01*
X105592Y70245D02*X105092Y69745D01*
X105592Y70245D02*Y71245D01*
X104592Y71745D02*X102592Y69745D01*
X87366Y66730D02*X91366D01*
Y64730D02*Y66730D01*
X89366Y62029D02*Y63529D01*
X91366Y61529D02*Y63529D01*
X87366D02*X91366D01*
X87366Y61529D02*Y63529D01*
Y59828D02*X91366D01*
X87366Y58328D02*X87866Y57828D01*
X90866D01*
X91366Y58328D02*X90866Y57828D01*
X91366Y58328D02*Y60328D01*
X87366Y58328D02*Y60328D01*
X91366Y55127D02*Y56127D01*
X87366Y55627D02*X91366D01*
X88366Y56627D02*X87366Y55627D01*
X101591Y88944D02*Y90944D01*
Y88944D02*X102091Y88444D01*
X103091D01*
X103591Y88944D02*X103091Y88444D01*
X103591Y88944D02*Y90444D01*
X101591D02*X105591D01*
X103591D02*X105591Y88444D01*
Y85743D02*Y86743D01*
X101591Y86243D02*X105591D01*
X102591Y87243D02*X101591Y86243D01*
X105591Y83042D02*Y84042D01*
X101591Y83542D02*X105591D01*
X102591Y84542D02*X101591Y83542D01*
X82892Y133062D02*X83282Y132672D01*
X82892Y133062D02*Y134232D01*
X83282Y134622D02*X82892Y134232D01*
X83282Y134622D02*X84062D01*
X84452Y134232D01*
Y133062D02*Y134232D01*
Y133062D02*X84842Y132672D01*
X85622D01*
X86012Y133062D02*X85622Y132672D01*
X86012Y133062D02*Y134232D01*
X85622Y134622D02*X86012Y134232D01*
X85622Y131736D02*X83282Y129396D01*
X82892Y128069D02*X86012D01*
X82892Y126899D02*X83282Y126509D01*
X85622D01*
X86012Y126899D02*X85622Y126509D01*
X86012Y126899D02*Y128459D01*
X82892Y126899D02*Y128459D01*
X83282Y125572D02*X82892Y125182D01*
Y124402D02*Y125182D01*
Y124402D02*X83282Y124012D01*
X85622D01*
X86012Y124402D02*X85622Y124012D01*
X86012Y124402D02*Y125182D01*
X85622Y125572D02*X86012Y125182D01*
X84452Y124012D02*Y125182D01*
X76015Y105135D02*X76515Y105635D01*
X74515Y105135D02*X76015D01*
X74015Y105635D02*X74515Y105135D01*
X74015Y105635D02*Y106635D01*
X74515Y107135D01*
X76015D01*
X76515Y107635D01*
Y108635D01*
X76015Y109135D02*X76515Y108635D01*
X74515Y109135D02*X76015D01*
X74015Y108635D02*X74515Y109135D01*
X77716Y108635D02*X80716Y105635D01*
X81917Y105135D02*X83917D01*
X84417Y105635D01*
Y106635D01*
X83917Y107135D02*X84417Y106635D01*
X82417Y107135D02*X83917D01*
X82417Y105135D02*Y109135D01*
Y107135D02*X84417Y109135D01*
X85618Y105635D02*X86118Y105135D01*
X87618D01*
X88118Y105635D01*
Y106635D01*
X85618Y109135D02*X88118Y106635D01*
X85618Y109135D02*X88118D01*
X76016Y99426D02*X76516Y99926D01*
X74516Y99426D02*X76016D01*
X74016Y99926D02*X74516Y99426D01*
X74016Y99926D02*Y100926D01*
X74516Y101426D01*
X76016D01*
X76516Y101926D01*
Y102926D01*
X76016Y103426D02*X76516Y102926D01*
X74516Y103426D02*X76016D01*
X74016Y102926D02*X74516Y103426D01*
X77717Y102926D02*X80717Y99926D01*
X81918Y99426D02*X83918D01*
X84418Y99926D01*
Y100926D01*
X83918Y101426D02*X84418Y100926D01*
X82418Y101426D02*X83918D01*
X82418Y99426D02*Y103426D01*
Y101426D02*X84418Y103426D01*
X86119D02*X87119D01*
X86619Y99426D02*Y103426D01*
X85619Y100426D02*X86619Y99426D01*
X145707Y100704D02*Y102204D01*
Y100704D02*X149207D01*
X149707Y101204D02*X149207Y100704D01*
X149707Y101204D02*Y101704D01*
X149207Y102204D02*X149707Y101704D01*
X147707Y99503D02*X145707Y97503D01*
X147707Y97003D02*Y99503D01*
X145707Y97503D02*X149707D01*
X145512Y87319D02*Y88819D01*
Y87319D02*X149012D01*
X149512Y87819D02*X149012Y87319D01*
X149512Y87819D02*Y88319D01*
X149012Y88819D02*X149512Y88319D01*
X146012Y86118D02*X145512Y85618D01*
Y84618D02*Y85618D01*
Y84618D02*X146012Y84118D01*
X149012D01*
X149512Y84618D02*X149012Y84118D01*
X149512Y84618D02*Y85618D01*
X149012Y86118D02*X149512Y85618D01*
X147512Y84118D02*Y85618D01*
X145708Y74721D02*Y76221D01*
Y74721D02*X149208D01*
X149708Y75221D02*X149208Y74721D01*
X149708Y75221D02*Y75721D01*
X149208Y76221D02*X149708Y75721D01*
X146208Y73520D02*X145708Y73020D01*
Y71520D02*Y73020D01*
Y71520D02*X146208Y71020D01*
X147208D01*
X149708Y73520D02*X147208Y71020D01*
X149708D02*Y73520D01*
X101591Y102134D02*Y104134D01*
Y102134D02*X102091Y101634D01*
X103091D01*
X103591Y102134D02*X103091Y101634D01*
X103591Y102134D02*Y103634D01*
X101591D02*X105591D01*
X103591D02*X105591Y101634D01*
Y98933D02*Y99933D01*
X101591Y99433D02*X105591D01*
X102591Y100433D02*X101591Y99433D01*
X102091Y97732D02*X101591Y97232D01*
Y95732D02*Y97232D01*
Y95732D02*X102091Y95232D01*
X103091D01*
X105591Y97732D02*X103091Y95232D01*
X105591D02*Y97732D01*
X101591Y140055D02*Y142055D01*
Y140055D02*X102091Y139555D01*
X103091D01*
X103591Y140055D02*X103091Y139555D01*
X103591Y140055D02*Y141555D01*
X101591D02*X105591D01*
X103591D02*X105591Y139555D01*
Y136854D02*Y137854D01*
X101591Y137354D02*X105591D01*
X102591Y138354D02*X101591Y137354D01*
Y133653D02*Y135653D01*
X103591D01*
X103091Y135153D01*
Y134153D02*Y135153D01*
Y134153D02*X103591Y133653D01*
X105091D01*
X105591Y134153D02*X105091Y133653D01*
X105591Y134153D02*Y135153D01*
X105091Y135653D02*X105591Y135153D01*
X101591Y114465D02*Y116465D01*
Y114465D02*X102091Y113965D01*
X103091D01*
X103591Y114465D02*X103091Y113965D01*
X103591Y114465D02*Y115965D01*
X101591D02*X105591D01*
X103591D02*X105591Y113965D01*
Y111264D02*Y112264D01*
X101591Y111764D02*X105591D01*
X102591Y112764D02*X101591Y111764D01*
X102091Y110063D02*X101591Y109563D01*
Y108563D02*Y109563D01*
Y108563D02*X102091Y108063D01*
X105091D01*
X105591Y108563D02*X105091Y108063D01*
X105591Y108563D02*Y109563D01*
X105091Y110063D02*X105591Y109563D01*
X103591Y108063D02*Y109563D01*
X101393Y127525D02*Y129525D01*
Y127525D02*X101893Y127025D01*
X102893D01*
X103393Y127525D02*X102893Y127025D01*
X103393Y127525D02*Y129025D01*
X101393D02*X105393D01*
X103393D02*X105393Y127025D01*
Y124324D02*Y125324D01*
X101393Y124824D02*X105393D01*
X102393Y125824D02*X101393Y124824D01*
X103393Y123123D02*X101393Y121123D01*
X103393Y120623D02*Y123123D01*
X101393Y121123D02*X105393D01*
X101592Y152884D02*Y154884D01*
Y152884D02*X102092Y152384D01*
X103092D01*
X103592Y152884D02*X103092Y152384D01*
X103592Y152884D02*Y154384D01*
X101592D02*X105592D01*
X103592D02*X105592Y152384D01*
Y149683D02*Y150683D01*
X101592Y150183D02*X105592D01*
X102592Y151183D02*X101592Y150183D01*
Y146982D02*X102092Y146482D01*
X101592Y146982D02*Y147982D01*
X102092Y148482D02*X101592Y147982D01*
X102092Y148482D02*X105092D01*
X105592Y147982D01*
X103592Y146982D02*X104092Y146482D01*
X103592Y146982D02*Y148482D01*
X105592Y146982D02*Y147982D01*
Y146982D02*X105092Y146482D01*
X104092D02*X105092D01*
X101593Y165913D02*Y167913D01*
Y165913D02*X102093Y165413D01*
X103093D01*
X103593Y165913D02*X103093Y165413D01*
X103593Y165913D02*Y167413D01*
X101593D02*X105593D01*
X103593D02*X105593Y165413D01*
Y162712D02*Y163712D01*
X101593Y163212D02*X105593D01*
X102593Y164212D02*X101593Y163212D01*
X105593Y161511D02*X103093Y159011D01*
X101593D02*X103093D01*
X101593D02*Y161511D01*
X150210Y225954D02*Y227954D01*
Y225954D02*X150710Y225454D01*
X151710D01*
X152210Y225954D02*X151710Y225454D01*
X152210Y225954D02*Y227454D01*
X150210D02*X154210D01*
X152210D02*X154210Y225454D01*
X150710Y224253D02*X150210Y223753D01*
Y222253D02*Y223753D01*
Y222253D02*X150710Y221753D01*
X151710D01*
X154210Y224253D02*X151710Y221753D01*
X154210D02*Y224253D01*
X153710Y220552D02*X154210Y220052D01*
X150710Y220552D02*X153710D01*
X150710D02*X150210Y220052D01*
Y219052D02*Y220052D01*
Y219052D02*X150710Y218552D01*
X153710D01*
X154210Y219052D02*X153710Y218552D01*
X154210Y219052D02*Y220052D01*
X153210Y220552D02*X151210Y218552D01*
X145403Y165830D02*Y167165D01*
Y165830D02*X148518D01*
X148963Y166275D02*X148518Y165830D01*
X148963Y166275D02*Y166720D01*
X148518Y167165D02*X148963Y166720D01*
Y163427D02*Y164317D01*
X145403Y163872D02*X148963D01*
X146293Y164762D02*X145403Y163872D01*
X148518Y162358D02*X148963Y161913D01*
X145848Y162358D02*X148518D01*
X145848D02*X145403Y161913D01*
Y161023D02*Y161913D01*
Y161023D02*X145848Y160578D01*
X148518D01*
X148963Y161023D02*X148518Y160578D01*
X148963Y161023D02*Y161913D01*
X148073Y162358D02*X146293Y160578D01*
X145379Y177354D02*Y179134D01*
Y177354D02*X145824Y176909D01*
X146714D01*
X147159Y177354D02*X146714Y176909D01*
X147159Y177354D02*Y178689D01*
X145379D02*X148939D01*
X147159D02*X148939Y176909D01*
Y174506D02*Y175396D01*
X145379Y174951D02*X148939D01*
X146269Y175841D02*X145379Y174951D01*
X148939Y173437D02*X147159Y171657D01*
X145824D02*X147159D01*
X145379Y172102D02*X145824Y171657D01*
X145379Y172102D02*Y172992D01*
X145824Y173437D02*X145379Y172992D01*
X145824Y173437D02*X146714D01*
X147159Y172992D01*
Y171657D02*Y172992D01*
X149824Y214792D02*X153324D01*
X153824Y214292D01*
Y213292D02*Y214292D01*
Y213292D02*X153324Y212792D01*
X149824D02*X153324D01*
X150324Y211591D02*X149824Y211091D01*
Y209591D02*Y211091D01*
Y209591D02*X150324Y209091D01*
X151324D01*
X153824Y211591D02*X151324Y209091D01*
X153824D02*Y211591D01*
X145205Y151656D02*Y152991D01*
Y151656D02*X148320D01*
X148765Y152101D02*X148320Y151656D01*
X148765Y152101D02*Y152546D01*
X148320Y152991D02*X148765Y152546D01*
Y150588D02*X146985Y148808D01*
X145650D02*X146985D01*
X145205Y149253D02*X145650Y148808D01*
X145205Y149253D02*Y150143D01*
X145650Y150588D02*X145205Y150143D01*
X145650Y150588D02*X146540D01*
X146985Y150143D01*
Y148808D02*Y150143D01*
X137307Y177549D02*Y179329D01*
Y177549D02*X137752Y177104D01*
X138642D01*
X139087Y177549D02*X138642Y177104D01*
X139087Y177549D02*Y178884D01*
X137307D02*X140867D01*
X139087D02*X140867Y177104D01*
X137752Y176036D02*X137307Y175591D01*
Y174256D02*Y175591D01*
Y174256D02*X137752Y173811D01*
X138642D01*
X140867Y176036D02*X138642Y173811D01*
X140867D02*Y176036D01*
X137752Y172742D02*X137307Y172297D01*
Y170962D02*Y172297D01*
Y170962D02*X137752Y170517D01*
X138642D01*
X140867Y172742D02*X138642Y170517D01*
X140867D02*Y172742D01*
X111039Y192291D02*Y194291D01*
Y192291D02*X111539Y191791D01*
X112539D01*
X113039Y192291D02*X112539Y191791D01*
X113039Y192291D02*Y193791D01*
X111039D02*X115039D01*
X113039D02*X115039Y191791D01*
X111539Y190590D02*X111039Y190090D01*
Y188590D02*Y190090D01*
Y188590D02*X111539Y188090D01*
X112539D01*
X115039Y190590D02*X112539Y188090D01*
X115039D02*Y190590D01*
X111039Y184889D02*Y186889D01*
X113039D01*
X112539Y186389D01*
Y185389D02*Y186389D01*
Y185389D02*X113039Y184889D01*
X114539D01*
X115039Y185389D02*X114539Y184889D01*
X115039Y185389D02*Y186389D01*
X114539Y186889D02*X115039Y186389D01*
X124117Y177354D02*Y179134D01*
Y177354D02*X124562Y176909D01*
X125452D01*
X125897Y177354D02*X125452Y176909D01*
X125897Y177354D02*Y178689D01*
X124117D02*X127677D01*
X125897D02*X127677Y176909D01*
Y174506D02*Y175396D01*
X124117Y174951D02*X127677D01*
X125007Y175841D02*X124117Y174951D01*
X127232Y173437D02*X127677Y172992D01*
X126342Y173437D02*X127232D01*
X126342D02*X125897Y172992D01*
Y172102D02*Y172992D01*
Y172102D02*X126342Y171657D01*
X127232D01*
X127677Y172102D02*X127232Y171657D01*
X127677Y172102D02*Y172992D01*
X125452Y173437D02*X125897Y172992D01*
X124562Y173437D02*X125452D01*
X124562D02*X124117Y172992D01*
Y172102D02*Y172992D01*
Y172102D02*X124562Y171657D01*
X125452D01*
X125897Y172102D02*X125452Y171657D01*
X124409Y229629D02*X126189D01*
X126634Y230074D01*
Y230964D01*
X126189Y231409D02*X126634Y230964D01*
X124854Y231409D02*X126189D01*
X124854Y229629D02*Y233189D01*
Y231409D02*X126634Y233189D01*
X127702Y230074D02*X128147Y229629D01*
X129482D01*
X129927Y230074D01*
Y230964D01*
X127702Y233189D02*X129927Y230964D01*
X127702Y233189D02*X129927D01*
X131441D02*X132331D01*
X131886Y229629D02*Y233189D01*
X130996Y230519D02*X131886Y229629D01*
X136151D02*X137931D01*
X138376Y230074D01*
Y230964D01*
X137931Y231409D02*X138376Y230964D01*
X136596Y231409D02*X137931D01*
X136596Y229629D02*Y233189D01*
Y231409D02*X138376Y233189D01*
X139444Y230074D02*X139889Y229629D01*
X141224D01*
X141669Y230074D01*
Y230964D01*
X139444Y233189D02*X141669Y230964D01*
X139444Y233189D02*X141669D01*
X142738Y230074D02*X143183Y229629D01*
X144073D01*
X144518Y230074D01*
Y232744D01*
X144073Y233189D02*X144518Y232744D01*
X143183Y233189D02*X144073D01*
X142738Y232744D02*X143183Y233189D01*
Y231409D02*X144518D01*
X112992Y229632D02*X114772D01*
X115217Y230077D01*
Y230967D01*
X114772Y231412D02*X115217Y230967D01*
X113437Y231412D02*X114772D01*
X113437Y229632D02*Y233192D01*
Y231412D02*X115217Y233192D01*
X116285Y230077D02*X116730Y229632D01*
X118065D01*
X118510Y230077D01*
Y230967D01*
X116285Y233192D02*X118510Y230967D01*
X116285Y233192D02*X118510D01*
X119579Y231412D02*X121359Y229632D01*
X119579Y231412D02*X121804D01*
X121359Y229632D02*Y233192D01*
X69071Y117665D02*X69461Y117275D01*
X69071Y117665D02*Y118835D01*
X69461Y119225D02*X69071Y118835D01*
X69461Y119225D02*X70241D01*
X70631Y118835D01*
Y117665D02*Y118835D01*
Y117665D02*X71021Y117275D01*
X71801D01*
X72191Y117665D02*X71801Y117275D01*
X72191Y117665D02*Y118835D01*
X71801Y119225D02*X72191Y118835D01*
X71801Y116339D02*X69461Y113999D01*
X69071Y112672D02*X72191D01*
X69071Y111502D02*X69461Y111112D01*
X71801D01*
X72191Y111502D02*X71801Y111112D01*
X72191Y111502D02*Y113062D01*
X69071Y111502D02*Y113062D01*
Y109005D02*X69461Y108615D01*
X69071Y109005D02*Y109785D01*
X69461Y110175D02*X69071Y109785D01*
X69461Y110175D02*X71801D01*
X72191Y109785D01*
X70631Y109005D02*X71021Y108615D01*
X70631Y109005D02*Y110175D01*
X72191Y109005D02*Y109785D01*
Y109005D02*X71801Y108615D01*
X71021D02*X71801D01*
X52963Y84551D02*X53408Y84996D01*
X51628Y84551D02*X52963D01*
X51183Y84996D02*X51628Y84551D01*
X51183Y84996D02*Y85886D01*
X51628Y86331D01*
X52963D01*
X53408Y86776D01*
Y87666D01*
X52963Y88111D02*X53408Y87666D01*
X51628Y88111D02*X52963D01*
X51183Y87666D02*X51628Y88111D01*
X54476Y87666D02*X57146Y84996D01*
X58215Y84551D02*X59995D01*
X60440Y84996D01*
Y85886D01*
X59995Y86331D02*X60440Y85886D01*
X58660Y86331D02*X59995D01*
X58660Y84551D02*Y88111D01*
Y86331D02*X60440Y88111D01*
X62844Y84551D02*X63289Y84996D01*
X61954Y84551D02*X62844D01*
X61509Y84996D02*X61954Y84551D01*
X61509Y84996D02*Y87666D01*
X61954Y88111D01*
X62844Y86331D02*X63289Y86776D01*
X61509Y86331D02*X62844D01*
X61954Y88111D02*X62844D01*
X63289Y87666D01*
Y86776D02*Y87666D01*
X27015Y113788D02*X27460Y114233D01*
X25680Y113788D02*X27015D01*
X25235Y114233D02*X25680Y113788D01*
X25235Y114233D02*Y115123D01*
X25680Y115568D01*
X27015D01*
X27460Y116013D01*
Y116903D01*
X27015Y117348D02*X27460Y116903D01*
X25680Y117348D02*X27015D01*
X25235Y116903D02*X25680Y117348D01*
X28528Y116903D02*X31198Y114233D01*
X32267Y113788D02*Y116903D01*
X32712Y117348D01*
X33602D01*
X34047Y116903D01*
Y113788D02*Y116903D01*
X35116Y115568D02*X36896Y113788D01*
X35116Y115568D02*X37341D01*
X36896Y113788D02*Y117348D01*
X10425Y160055D02*X10815Y159665D01*
X10425Y160055D02*Y161225D01*
X10815Y161615D02*X10425Y161225D01*
X10815Y161615D02*X11595D01*
X11985Y161225D01*
Y160055D02*Y161225D01*
Y160055D02*X12375Y159665D01*
X13155D01*
X13545Y160055D02*X13155Y159665D01*
X13545Y160055D02*Y161225D01*
X13155Y161615D02*X13545Y161225D01*
X13155Y158729D02*X10815Y156389D01*
X13545Y153892D02*Y155062D01*
X13155Y155452D02*X13545Y155062D01*
X10815Y155452D02*X13155D01*
X10815D02*X10425Y155062D01*
Y153892D02*Y155062D01*
X10815Y152955D02*X10425Y152565D01*
Y151395D02*Y152565D01*
Y151395D02*X10815Y151005D01*
X11595D01*
X13545Y152955D02*X11595Y151005D01*
X13545D02*Y152955D01*
X17135Y175299D02*X17580Y175744D01*
X15800Y175299D02*X17135D01*
X15355Y175744D02*X15800Y175299D01*
X15355Y175744D02*Y176634D01*
X15800Y177079D01*
X17135D01*
X17580Y177524D01*
Y178414D01*
X17135Y178859D02*X17580Y178414D01*
X15800Y178859D02*X17135D01*
X15355Y178414D02*X15800Y178859D01*
X18648Y178414D02*X21318Y175744D01*
X22832Y178859D02*X24167D01*
X22387Y178414D02*X22832Y178859D01*
X22387Y175744D02*Y178414D01*
Y175744D02*X22832Y175299D01*
X24167D01*
X25681Y178859D02*X26571D01*
X26126Y175299D02*Y178859D01*
X25236Y176189D02*X26126Y175299D01*
X15560Y132977D02*X16005Y133422D01*
X14225Y132977D02*X15560D01*
X13780Y133422D02*X14225Y132977D01*
X13780Y133422D02*Y134312D01*
X14225Y134757D01*
X15560D01*
X16005Y135202D01*
Y136092D01*
X15560Y136537D02*X16005Y136092D01*
X14225Y136537D02*X15560D01*
X13780Y136092D02*X14225Y136537D01*
X17073Y136092D02*X19743Y133422D01*
X21257Y136537D02*X22592D01*
X20812Y136092D02*X21257Y136537D01*
X20812Y133422D02*Y136092D01*
Y133422D02*X21257Y132977D01*
X22592D01*
X23661Y134757D02*X25441Y132977D01*
X23661Y134757D02*X25886D01*
X25441Y132977D02*Y136537D01*
X28355Y131795D02*X28800Y132240D01*
X27020Y131795D02*X28355D01*
X26575Y132240D02*X27020Y131795D01*
X26575Y132240D02*Y133130D01*
X27020Y133575D01*
X28355D01*
X28800Y134020D01*
Y134910D01*
X28355Y135355D02*X28800Y134910D01*
X27020Y135355D02*X28355D01*
X26575Y134910D02*X27020Y135355D01*
X29868Y134910D02*X32538Y132240D01*
X34052Y135355D02*X35387D01*
X33607Y134910D02*X34052Y135355D01*
X33607Y132240D02*Y134910D01*
Y132240D02*X34052Y131795D01*
X35387D01*
X37791D02*X38236Y132240D01*
X36901Y131795D02*X37791D01*
X36456Y132240D02*X36901Y131795D01*
X36456Y132240D02*Y134910D01*
X36901Y135355D01*
X37791Y133575D02*X38236Y134020D01*
X36456Y133575D02*X37791D01*
X36901Y135355D02*X37791D01*
X38236Y134910D01*
Y134020D02*Y134910D01*
X4629Y147629D02*X5074Y147184D01*
X4629Y147629D02*Y148964D01*
X5074Y149409D02*X4629Y148964D01*
X5074Y149409D02*X5964D01*
X6409Y148964D01*
Y147629D02*Y148964D01*
Y147629D02*X6854Y147184D01*
X7744D01*
X8189Y147629D02*X7744Y147184D01*
X8189Y147629D02*Y148964D01*
X7744Y149409D02*X8189Y148964D01*
X7744Y146116D02*X5074Y143446D01*
X4629Y140597D02*Y142377D01*
Y140597D02*X5074Y140152D01*
X5964D01*
X6409Y140597D02*X5964Y140152D01*
X6409Y140597D02*Y141932D01*
X4629D02*X8189D01*
X6409D02*X8189Y140152D01*
X5074Y139083D02*X4629Y138638D01*
Y137748D02*Y138638D01*
Y137748D02*X5074Y137303D01*
X7744D01*
X8189Y137748D02*X7744Y137303D01*
X8189Y137748D02*Y138638D01*
X7744Y139083D02*X8189Y138638D01*
X6409Y137303D02*Y138638D01*
X54710Y137000D02*X55100Y137390D01*
X53540Y137000D02*X54710D01*
X53150Y137390D02*X53540Y137000D01*
X53150Y137390D02*Y138170D01*
X53540Y138560D01*
X54710D01*
X55100Y138950D01*
Y139730D01*
X54710Y140120D02*X55100Y139730D01*
X53540Y140120D02*X54710D01*
X53150Y139730D02*X53540Y140120D01*
X56036Y139730D02*X58376Y137390D01*
X59313Y137000D02*X60873D01*
X61263Y137390D01*
Y138170D01*
X60873Y138560D02*X61263Y138170D01*
X59703Y138560D02*X60873D01*
X59703Y137000D02*Y140120D01*
Y138560D02*X61263Y140120D01*
X62200D02*X64150Y138170D01*
Y137000D02*Y138170D01*
X62200Y137000D02*X64150D01*
X75496Y145858D02*X75941Y145413D01*
X75496Y145858D02*Y147193D01*
X75941Y147638D02*X75496Y147193D01*
X75941Y147638D02*X76831D01*
X77276Y147193D01*
Y145858D02*Y147193D01*
Y145858D02*X77721Y145413D01*
X78611D01*
X79056Y145858D02*X78611Y145413D01*
X79056Y145858D02*Y147193D01*
X78611Y147638D02*X79056Y147193D01*
X78611Y144345D02*X75941Y141675D01*
X75496Y138826D02*Y140606D01*
Y138826D02*X75941Y138381D01*
X76831D01*
X77276Y138826D02*X76831Y138381D01*
X77276Y138826D02*Y140161D01*
X75496D02*X79056D01*
X77276D02*X79056Y138381D01*
X77276Y137312D02*X75496Y135532D01*
X77276Y135087D02*Y137312D01*
X75496Y135532D02*X79056D01*
X76590Y81928D02*X77090Y81428D01*
X76590Y81928D02*Y83428D01*
X77090Y83928D02*X76590Y83428D01*
X77090Y83928D02*X78090D01*
X78590Y83428D01*
Y81928D02*Y83428D01*
Y81928D02*X79090Y81428D01*
X80090D01*
X80590Y81928D02*X80090Y81428D01*
X80590Y81928D02*Y83428D01*
X80090Y83928D02*X80590Y83428D01*
X80090Y80227D02*X77090Y77227D01*
X76590Y74026D02*Y76026D01*
Y74026D02*X77090Y73526D01*
X78090D01*
X78590Y74026D02*X78090Y73526D01*
X78590Y74026D02*Y75526D01*
X76590D02*X80590D01*
X78590D02*X80590Y73526D01*
X76590Y70325D02*Y72325D01*
X78590D01*
X78090Y71825D01*
Y70825D02*Y71825D01*
Y70825D02*X78590Y70325D01*
X80090D01*
X80590Y70825D02*X80090Y70325D01*
X80590Y70825D02*Y71825D01*
X80090Y72325D02*X80590Y71825D01*
X70181Y145858D02*X70626Y145413D01*
X70181Y145858D02*Y147193D01*
X70626Y147638D02*X70181Y147193D01*
X70626Y147638D02*X71516D01*
X71961Y147193D01*
Y145858D02*Y147193D01*
Y145858D02*X72406Y145413D01*
X73296D01*
X73741Y145858D02*X73296Y145413D01*
X73741Y145858D02*Y147193D01*
X73296Y147638D02*X73741Y147193D01*
X73296Y144345D02*X70626Y141675D01*
X70181Y138826D02*Y140606D01*
Y138826D02*X70626Y138381D01*
X71516D01*
X71961Y138826D02*X71516Y138381D01*
X71961Y138826D02*Y140161D01*
X70181D02*X73741D01*
X71961D02*X73741Y138381D01*
X73296Y137312D02*X73741Y136867D01*
X72406Y137312D02*X73296D01*
X72406D02*X71961Y136867D01*
Y135977D02*Y136867D01*
Y135977D02*X72406Y135532D01*
X73296D01*
X73741Y135977D02*X73296Y135532D01*
X73741Y135977D02*Y136867D01*
X71516Y137312D02*X71961Y136867D01*
X70626Y137312D02*X71516D01*
X70626D02*X70181Y136867D01*
Y135977D02*Y136867D01*
Y135977D02*X70626Y135532D01*
X71516D01*
X71961Y135977D02*X71516Y135532D01*
X37039Y71043D02*X37539Y71543D01*
X35539Y71043D02*X37039D01*
X35039Y71543D02*X35539Y71043D01*
X35039Y71543D02*Y72543D01*
X35539Y73043D01*
X37039D01*
X37539Y73543D01*
Y74543D01*
X37039Y75043D02*X37539Y74543D01*
X35539Y75043D02*X37039D01*
X35039Y74543D02*X35539Y75043D01*
X38740Y74543D02*X41740Y71543D01*
X42941D02*Y74543D01*
Y71543D02*X43441Y71043D01*
X44441D01*
X44941Y71543D01*
Y74543D01*
X44441Y75043D02*X44941Y74543D01*
X43441Y75043D02*X44441D01*
X42941Y74543D02*X43441Y75043D01*
X43941Y74043D02*X44941Y75043D01*
X46642D02*X47642D01*
X47142Y71043D02*Y75043D01*
X46142Y72043D02*X47142Y71043D01*
X24002Y101884D02*X24392Y102274D01*
X22832Y101884D02*X24002D01*
X22442Y102274D02*X22832Y101884D01*
X22442Y102274D02*Y103054D01*
X22832Y103444D01*
X24002D01*
X24392Y103834D01*
Y104614D01*
X24002Y105004D02*X24392Y104614D01*
X22832Y105004D02*X24002D01*
X22442Y104614D02*X22832Y105004D01*
X25328Y104614D02*X27668Y102274D01*
X28995Y101884D02*Y105004D01*
X30165Y101884D02*X30555Y102274D01*
Y104614D01*
X30165Y105004D02*X30555Y104614D01*
X28605Y105004D02*X30165D01*
X28605Y101884D02*X30165D01*
X31882Y105004D02*X32662D01*
X32272Y101884D02*Y105004D01*
X31492Y102664D02*X32272Y101884D01*
X13766Y86135D02*X14156Y86525D01*
X12596Y86135D02*X13766D01*
X12206Y86525D02*X12596Y86135D01*
X12206Y86525D02*Y87305D01*
X12596Y87695D01*
X13766D01*
X14156Y88085D01*
Y88865D01*
X13766Y89255D02*X14156Y88865D01*
X12596Y89255D02*X13766D01*
X12206Y88865D02*X12596Y89255D01*
X15092Y88865D02*X17432Y86525D01*
X18759Y86135D02*Y89255D01*
X19929Y86135D02*X20319Y86525D01*
Y88865D01*
X19929Y89255D02*X20319Y88865D01*
X18369Y89255D02*X19929D01*
X18369Y86135D02*X19929D01*
X21256Y86525D02*X21646Y86135D01*
X22816D01*
X23206Y86525D01*
Y87305D01*
X21256Y89255D02*X23206Y87305D01*
X21256Y89255D02*X23206D01*
X24166Y203148D02*X24556Y203538D01*
X22996Y203148D02*X24166D01*
X22606Y203538D02*X22996Y203148D01*
X22606Y203538D02*Y204318D01*
X22996Y204708D01*
X24166D01*
X24556Y205098D01*
Y205878D01*
X24166Y206268D02*X24556Y205878D01*
X22996Y206268D02*X24166D01*
X22606Y205878D02*X22996Y206268D01*
X25492Y205878D02*X27832Y203538D01*
X28769Y203148D02*Y205878D01*
X29159Y206268D01*
X29939D01*
X30329Y205878D01*
Y203148D02*Y205878D01*
X31266Y203538D02*X31656Y203148D01*
X32826D01*
X33216Y203538D01*
Y204318D01*
X31266Y206268D02*X33216Y204318D01*
X31266Y206268D02*X33216D01*
X56853Y221866D02*Y225866D01*
X58853D01*
X60054Y223866D02*X61554D01*
X60054Y225866D02*X62054D01*
X60054Y221866D02*Y225866D01*
Y221866D02*X62054D01*
X63755D02*Y225866D01*
X65255Y221866D02*X65755Y222366D01*
Y225366D01*
X65255Y225866D02*X65755Y225366D01*
X63255Y225866D02*X65255D01*
X63255Y221866D02*X65255D01*
X66956Y222366D02*X67456Y221866D01*
X68956D01*
X69456Y222366D01*
Y223366D01*
X66956Y225866D02*X69456Y223366D01*
X66956Y225866D02*X69456D01*
X3843Y223417D02*X4288Y222972D01*
X3843Y223417D02*Y224752D01*
X4288Y225197D02*X3843Y224752D01*
X4288Y225197D02*X5178D01*
X5623Y224752D01*
Y223417D02*Y224752D01*
Y223417D02*X6068Y222972D01*
X6958D01*
X7403Y223417D02*X6958Y222972D01*
X7403Y223417D02*Y224752D01*
X6958Y225197D02*X7403Y224752D01*
X6958Y221904D02*X4288Y219234D01*
X7403Y216385D02*Y217720D01*
X6958Y218165D02*X7403Y217720D01*
X4288Y218165D02*X6958D01*
X4288D02*X3843Y217720D01*
Y216385D02*Y217720D01*
X4288Y215316D02*X3843Y214871D01*
Y213981D02*Y214871D01*
Y213981D02*X4288Y213536D01*
X6958D01*
X7403Y213981D02*X6958Y213536D01*
X7403Y213981D02*Y214871D01*
X6958Y215316D02*X7403Y214871D01*
X5623Y213536D02*Y214871D01*
M02*
