G04 start of page 12 for group -3984 idx -3984 *
G04 Title: (unknown), fab *
G04 Creator: pcb 1.99z *
G04 CreationDate: Wed 09 Mar 2011 16:43:30 GMT UTC *
G04 For: richard *
G04 Format: Gerber/RS-274X *
G04 PCB-Dimensions: 165354 236220 *
G04 PCB-Coordinate-Origin: lower left *
%MOIN*%
%FSLAX25Y25*%
%LNFAB*%
%ADD11C,0.0200*%
%ADD13C,0.0100*%
%ADD65R,0.0080X0.0080*%
%ADD66C,0.0060*%
G54D65*X15748Y212598D02*Y209398D01*
G54D11*G36*
X15201Y212745D02*X18667Y214745D01*
X19067Y214052D01*
X15601Y212052D01*
X15201Y212745D01*
G37*
G36*
X15894Y212052D02*X12428Y214052D01*
X12828Y214745D01*
X16294Y212745D01*
X15894Y212052D01*
G37*
G54D65*X14148Y212598D02*G75*G03X17348Y212598I1600J0D01*G01*
G75*G03X14148Y212598I-1600J0D01*G01*
X15748Y167598D02*Y164398D01*
G54D11*G36*
X15201Y167745D02*X18667Y169745D01*
X19067Y169052D01*
X15601Y167052D01*
X15201Y167745D01*
G37*
G36*
X15894Y167052D02*X12428Y169052D01*
X12828Y169745D01*
X16294Y167745D01*
X15894Y167052D01*
G37*
G54D65*X14148Y167598D02*G75*G03X17348Y167598I1600J0D01*G01*
G75*G03X14148Y167598I-1600J0D01*G01*
X15748Y143701D02*Y140501D01*
G54D11*G36*
X15201Y143848D02*X18667Y145848D01*
X19067Y145155D01*
X15601Y143155D01*
X15201Y143848D01*
G37*
G36*
X15894Y143155D02*X12428Y145155D01*
X12828Y145848D01*
X16294Y143848D01*
X15894Y143155D01*
G37*
G54D65*X14148Y143701D02*G75*G03X17348Y143701I1600J0D01*G01*
G75*G03X14148Y143701I-1600J0D01*G01*
X15748Y98701D02*Y95501D01*
G54D11*G36*
X15201Y98848D02*X18667Y100848D01*
X19067Y100155D01*
X15601Y98155D01*
X15201Y98848D01*
G37*
G36*
X15894Y98155D02*X12428Y100155D01*
X12828Y100848D01*
X16294Y98848D01*
X15894Y98155D01*
G37*
G54D65*X14148Y98701D02*G75*G03X17348Y98701I1600J0D01*G01*
G75*G03X14148Y98701I-1600J0D01*G01*
X15000Y247470D02*Y244270D01*
G54D11*G36*
X14453Y247616D02*X17919Y249616D01*
X18319Y248923D01*
X14853Y246923D01*
X14453Y247616D01*
G37*
G36*
X15146Y246923D02*X11680Y248923D01*
X12080Y249616D01*
X15546Y247616D01*
X15146Y246923D01*
G37*
G54D65*X13400Y247470D02*G75*G03X16600Y247470I1600J0D01*G01*
G75*G03X13400Y247470I-1600J0D01*G01*
G54D66*X140000Y249720D02*Y243720D01*
Y249720D02*Y248970D01*
X143750Y245220D01*
Y249720D02*Y243720D01*
X145551Y248970D02*Y244470D01*
Y248970D02*X146301Y249720D01*
X147801D01*
X148551Y248970D01*
Y244470D01*
X147801Y243720D02*X148551Y244470D01*
X146301Y243720D02*X147801D01*
X145551Y244470D02*X146301Y243720D01*
X140000Y240469D02*X150353D01*
X98000Y246720D02*X101000Y249720D01*
X98000Y246720D02*X101750D01*
X101000Y249720D02*Y243720D01*
X98000Y240469D02*X103551D01*
X45000Y244470D02*X45750Y243720D01*
X45000Y248970D02*Y244470D01*
Y248970D02*X45750Y249720D01*
X47250D01*
X48000Y248970D01*
Y244470D01*
X47250Y243720D02*X48000Y244470D01*
X45750Y243720D02*X47250D01*
X45000Y245220D02*X48000Y248220D01*
X49801Y243720D02*X50551D01*
X53103D02*X54603D01*
X53853Y249720D02*Y243720D01*
X52353Y248220D02*X53853Y249720D01*
X56404Y248970D02*X57154Y249720D01*
X59404D01*
X60154Y248970D01*
Y247470D01*
X56404Y243720D02*X60154Y247470D01*
X56404Y243720D02*X60154D01*
X61956Y244470D02*X62706Y243720D01*
X61956Y245970D02*Y244470D01*
Y245970D02*X62706Y246720D01*
X64206D01*
X64956Y245970D01*
Y244470D01*
X64206Y243720D02*X64956Y244470D01*
X62706Y243720D02*X64206D01*
X61956Y247470D02*X62706Y246720D01*
X61956Y248970D02*Y247470D01*
Y248970D02*X62706Y249720D01*
X64206D01*
X64956Y248970D01*
Y247470D01*
X64206Y246720D02*X64956Y247470D01*
X45000Y240469D02*X66757D01*
X23006Y54749D02*X26206D01*
X23006D02*Y51549D01*
X26206D01*
Y54749D02*Y51549D01*
X23006Y25221D02*X26206D01*
X23006D02*Y22021D01*
X26206D01*
Y25221D02*Y22021D01*
X13400Y264070D02*X16600D01*
X13400D02*Y260870D01*
X16600D01*
Y264070D02*Y260870D01*
X135000Y264720D02*Y263970D01*
X136500Y262470D01*
X138000Y263970D01*
Y264720D02*Y263970D01*
X136500Y262470D02*Y258720D01*
X139801Y261720D02*X142051D01*
X139801Y258720D02*X142801D01*
X139801Y264720D02*Y258720D01*
Y264720D02*X142801D01*
X147603D02*X148353Y263970D01*
X145353Y264720D02*X147603D01*
X144603Y263970D02*X145353Y264720D01*
X144603Y263970D02*Y262470D01*
X145353Y261720D01*
X147603D01*
X148353Y260970D01*
Y259470D01*
X147603Y258720D02*X148353Y259470D01*
X145353Y258720D02*X147603D01*
X144603Y259470D02*X145353Y258720D01*
X135000Y255469D02*X150154D01*
X98000Y263970D02*X98750Y264720D01*
X101000D01*
X101750Y263970D01*
Y262470D01*
X98000Y258720D02*X101750Y262470D01*
X98000Y258720D02*X101750D01*
X98000Y255469D02*X103551D01*
X45000Y259470D02*X45750Y258720D01*
X45000Y263970D02*Y259470D01*
Y263970D02*X45750Y264720D01*
X47250D01*
X48000Y263970D01*
Y259470D01*
X47250Y258720D02*X48000Y259470D01*
X45750Y258720D02*X47250D01*
X45000Y260220D02*X48000Y263220D01*
X49801Y258720D02*X50551D01*
X52353Y259470D02*X53103Y258720D01*
X52353Y263970D02*Y259470D01*
Y263970D02*X53103Y264720D01*
X54603D01*
X55353Y263970D01*
Y259470D01*
X54603Y258720D02*X55353Y259470D01*
X53103Y258720D02*X54603D01*
X52353Y260220D02*X55353Y263220D01*
X59404Y264720D02*X60154Y263970D01*
X57904Y264720D02*X59404D01*
X57154Y263970D02*X57904Y264720D01*
X57154Y263970D02*Y259470D01*
X57904Y258720D01*
X59404Y261720D02*X60154Y260970D01*
X57154Y261720D02*X59404D01*
X57904Y258720D02*X59404D01*
X60154Y259470D01*
Y260970D02*Y259470D01*
X61956D02*X62706Y258720D01*
X61956Y263970D02*Y259470D01*
Y263970D02*X62706Y264720D01*
X64206D01*
X64956Y263970D01*
Y259470D01*
X64206Y258720D02*X64956Y259470D01*
X62706Y258720D02*X64206D01*
X61956Y260220D02*X64956Y263220D01*
X45000Y255469D02*X66757D01*
X118137Y150590D02*G75*G03X119737Y150590I800J0D01*G01*
G75*G03X118137Y150590I-800J0D01*G01*
X128137D02*G75*G03X129737Y150590I800J0D01*G01*
G75*G03X128137Y150590I-800J0D01*G01*
X138137D02*G75*G03X139737Y150590I800J0D01*G01*
G75*G03X138137Y150590I-800J0D01*G01*
X118137Y73818D02*G75*G03X119737Y73818I800J0D01*G01*
G75*G03X118137Y73818I-800J0D01*G01*
X128137D02*G75*G03X129737Y73818I800J0D01*G01*
G75*G03X128137Y73818I-800J0D01*G01*
X138137D02*G75*G03X139737Y73818I800J0D01*G01*
G75*G03X138137Y73818I-800J0D01*G01*
X118137Y86614D02*G75*G03X119737Y86614I800J0D01*G01*
G75*G03X118137Y86614I-800J0D01*G01*
X128137D02*G75*G03X129737Y86614I800J0D01*G01*
G75*G03X128137Y86614I-800J0D01*G01*
X138137D02*G75*G03X139737Y86614I800J0D01*G01*
G75*G03X138137Y86614I-800J0D01*G01*
X6603Y81102D02*G75*G03X8203Y81102I800J0D01*G01*
G75*G03X6603Y81102I-800J0D01*G01*
X16603D02*G75*G03X18203Y81102I800J0D01*G01*
G75*G03X16603Y81102I-800J0D01*G01*
X26603D02*G75*G03X28203Y81102I800J0D01*G01*
G75*G03X26603Y81102I-800J0D01*G01*
X36603D02*G75*G03X38203Y81102I800J0D01*G01*
G75*G03X36603Y81102I-800J0D01*G01*
X46603D02*G75*G03X48203Y81102I800J0D01*G01*
G75*G03X46603Y81102I-800J0D01*G01*
X118137Y99409D02*G75*G03X119737Y99409I800J0D01*G01*
G75*G03X118137Y99409I-800J0D01*G01*
X128137D02*G75*G03X129737Y99409I800J0D01*G01*
G75*G03X128137Y99409I-800J0D01*G01*
X138137D02*G75*G03X139737Y99409I800J0D01*G01*
G75*G03X138137Y99409I-800J0D01*G01*
X118137Y112204D02*G75*G03X119737Y112204I800J0D01*G01*
G75*G03X118137Y112204I-800J0D01*G01*
X128137D02*G75*G03X129737Y112204I800J0D01*G01*
G75*G03X128137Y112204I-800J0D01*G01*
X138137D02*G75*G03X139737Y112204I800J0D01*G01*
G75*G03X138137Y112204I-800J0D01*G01*
X118137Y125000D02*G75*G03X119737Y125000I800J0D01*G01*
G75*G03X118137Y125000I-800J0D01*G01*
X128137D02*G75*G03X129737Y125000I800J0D01*G01*
G75*G03X128137Y125000I-800J0D01*G01*
X138137D02*G75*G03X139737Y125000I800J0D01*G01*
G75*G03X138137Y125000I-800J0D01*G01*
X118137Y137795D02*G75*G03X119737Y137795I800J0D01*G01*
G75*G03X118137Y137795I-800J0D01*G01*
X128137D02*G75*G03X129737Y137795I800J0D01*G01*
G75*G03X128137Y137795I-800J0D01*G01*
X138137D02*G75*G03X139737Y137795I800J0D01*G01*
G75*G03X138137Y137795I-800J0D01*G01*
X16523Y229133D02*G75*G03X18123Y229133I800J0D01*G01*
G75*G03X16523Y229133I-800J0D01*G01*
X26523D02*G75*G03X28123Y229133I800J0D01*G01*
G75*G03X26523Y229133I-800J0D01*G01*
X36523D02*G75*G03X38123Y229133I800J0D01*G01*
G75*G03X36523Y229133I-800J0D01*G01*
X46523D02*G75*G03X48123Y229133I800J0D01*G01*
G75*G03X46523Y229133I-800J0D01*G01*
X118137Y163385D02*G75*G03X119737Y163385I800J0D01*G01*
G75*G03X118137Y163385I-800J0D01*G01*
X128137D02*G75*G03X129737Y163385I800J0D01*G01*
G75*G03X128137Y163385I-800J0D01*G01*
X138137D02*G75*G03X139737Y163385I800J0D01*G01*
G75*G03X138137Y163385I-800J0D01*G01*
X14200Y277470D02*G75*G03X15800Y277470I800J0D01*G01*
G75*G03X14200Y277470I-800J0D01*G01*
X135000Y279720D02*Y278970D01*
X136500Y277470D01*
X138000Y278970D01*
Y279720D02*Y278970D01*
X136500Y277470D02*Y273720D01*
X139801Y276720D02*X142051D01*
X139801Y273720D02*X142801D01*
X139801Y279720D02*Y273720D01*
Y279720D02*X142801D01*
X147603D02*X148353Y278970D01*
X145353Y279720D02*X147603D01*
X144603Y278970D02*X145353Y279720D01*
X144603Y278970D02*Y277470D01*
X145353Y276720D01*
X147603D01*
X148353Y275970D01*
Y274470D01*
X147603Y273720D02*X148353Y274470D01*
X145353Y273720D02*X147603D01*
X144603Y274470D02*X145353Y273720D01*
X135000Y270469D02*X150154D01*
X98000Y278970D02*X98750Y279720D01*
X100250D01*
X101000Y278970D01*
Y274470D01*
X100250Y273720D02*X101000Y274470D01*
X98750Y273720D02*X100250D01*
X98000Y274470D02*X98750Y273720D01*
Y276720D02*X101000D01*
X102801Y278970D02*X103551Y279720D01*
X105051D01*
X105801Y278970D01*
Y274470D01*
X105051Y273720D02*X105801Y274470D01*
X103551Y273720D02*X105051D01*
X102801Y274470D02*X103551Y273720D01*
Y276720D02*X105801D01*
X98000Y270469D02*X107603D01*
X45000Y274470D02*X45750Y273720D01*
X45000Y278970D02*Y274470D01*
Y278970D02*X45750Y279720D01*
X47250D01*
X48000Y278970D01*
Y274470D01*
X47250Y273720D02*X48000Y274470D01*
X45750Y273720D02*X47250D01*
X45000Y275220D02*X48000Y278220D01*
X49801Y273720D02*X50551D01*
X52353Y274470D02*X53103Y273720D01*
X52353Y278970D02*Y274470D01*
Y278970D02*X53103Y279720D01*
X54603D01*
X55353Y278970D01*
Y274470D01*
X54603Y273720D02*X55353Y274470D01*
X53103Y273720D02*X54603D01*
X52353Y275220D02*X55353Y278220D01*
X57154Y278970D02*X57904Y279720D01*
X59404D01*
X60154Y278970D01*
Y274470D01*
X59404Y273720D02*X60154Y274470D01*
X57904Y273720D02*X59404D01*
X57154Y274470D02*X57904Y273720D01*
Y276720D02*X60154D01*
X61956Y274470D02*X62706Y273720D01*
X61956Y275970D02*Y274470D01*
Y275970D02*X62706Y276720D01*
X64206D01*
X64956Y275970D01*
Y274470D01*
X64206Y273720D02*X64956Y274470D01*
X62706Y273720D02*X64206D01*
X61956Y277470D02*X62706Y276720D01*
X61956Y278970D02*Y277470D01*
Y278970D02*X62706Y279720D01*
X64206D01*
X64956Y278970D01*
Y277470D01*
X64206Y276720D02*X64956Y277470D01*
X45000Y270469D02*X66757D01*
X49548Y173798D02*X51948Y171398D01*
X49548D02*X51948Y173798D01*
X39548Y178798D02*X41948Y176398D01*
X39548D02*X41948Y178798D01*
X49548Y193798D02*X51948Y191398D01*
X49548D02*X51948Y193798D01*
X39548Y198798D02*X41948Y196398D01*
X39548D02*X41948Y198798D01*
X39548Y188798D02*X41948Y186398D01*
X39548D02*X41948Y188798D01*
X39548Y208798D02*X41948Y206398D01*
X39548D02*X41948Y208798D01*
X49548Y203798D02*X51948Y201398D01*
X49548D02*X51948Y203798D01*
X49548Y183798D02*X51948Y181398D01*
X49548D02*X51948Y183798D01*
X49548Y104901D02*X51948Y102501D01*
X49548D02*X51948Y104901D01*
X39548Y109901D02*X41948Y107501D01*
X39548D02*X41948Y109901D01*
X49548Y124901D02*X51948Y122501D01*
X49548D02*X51948Y124901D01*
X39548Y129901D02*X41948Y127501D01*
X39548D02*X41948Y129901D01*
X39548Y119901D02*X41948Y117501D01*
X39548D02*X41948Y119901D01*
X39548Y139901D02*X41948Y137501D01*
X39548D02*X41948Y139901D01*
X49548Y134901D02*X51948Y132501D01*
X49548D02*X51948Y134901D01*
X49548Y114901D02*X51948Y112501D01*
X49548D02*X51948Y114901D01*
X38957Y169310D02*X41357Y166910D01*
X38957D02*X41357Y169310D01*
X25572Y140176D02*X27972Y137776D01*
X25572D02*X27972Y140176D01*
X7658Y39585D02*X10058Y37185D01*
X7658D02*X10058Y39585D01*
X50965Y15963D02*X53365Y13563D01*
X50965D02*X53365Y15963D01*
X50965Y8089D02*X53365Y5689D01*
X50965D02*X53365Y8089D01*
X50965Y23837D02*X53365Y21437D01*
X50965D02*X53365Y23837D01*
X13800Y293670D02*X16200Y291270D01*
X13800D02*X16200Y293670D01*
X135000Y294720D02*Y293970D01*
X136500Y292470D01*
X138000Y293970D01*
Y294720D02*Y293970D01*
X136500Y292470D02*Y288720D01*
X139801Y291720D02*X142051D01*
X139801Y288720D02*X142801D01*
X139801Y294720D02*Y288720D01*
Y294720D02*X142801D01*
X147603D02*X148353Y293970D01*
X145353Y294720D02*X147603D01*
X144603Y293970D02*X145353Y294720D01*
X144603Y293970D02*Y292470D01*
X145353Y291720D01*
X147603D01*
X148353Y290970D01*
Y289470D01*
X147603Y288720D02*X148353Y289470D01*
X145353Y288720D02*X147603D01*
X144603Y289470D02*X145353Y288720D01*
X135000Y285469D02*X150154D01*
X98000Y293970D02*X98750Y294720D01*
X101000D01*
X101750Y293970D01*
Y292470D01*
X98000Y288720D02*X101750Y292470D01*
X98000Y288720D02*X101750D01*
X103551Y293970D02*X104301Y294720D01*
X106551D01*
X107301Y293970D01*
Y292470D01*
X103551Y288720D02*X107301Y292470D01*
X103551Y288720D02*X107301D01*
X98000Y285469D02*X109103D01*
X45000Y289470D02*X45750Y288720D01*
X45000Y293970D02*Y289470D01*
Y293970D02*X45750Y294720D01*
X47250D01*
X48000Y293970D01*
Y289470D01*
X47250Y288720D02*X48000Y289470D01*
X45750Y288720D02*X47250D01*
X45000Y290220D02*X48000Y293220D01*
X49801Y288720D02*X50551D01*
X52353Y289470D02*X53103Y288720D01*
X52353Y293970D02*Y289470D01*
Y293970D02*X53103Y294720D01*
X54603D01*
X55353Y293970D01*
Y289470D01*
X54603Y288720D02*X55353Y289470D01*
X53103Y288720D02*X54603D01*
X52353Y290220D02*X55353Y293220D01*
X57154Y293970D02*X57904Y294720D01*
X59404D01*
X60154Y293970D01*
Y289470D01*
X59404Y288720D02*X60154Y289470D01*
X57904Y288720D02*X59404D01*
X57154Y289470D02*X57904Y288720D01*
Y291720D02*X60154D01*
X61956Y294720D02*X64956D01*
X61956D02*Y291720D01*
X62706Y292470D01*
X64206D01*
X64956Y291720D01*
Y289470D01*
X64206Y288720D02*X64956Y289470D01*
X62706Y288720D02*X64206D01*
X61956Y289470D02*X62706Y288720D01*
X45000Y285469D02*X66757D01*
X145669Y56718D02*Y53518D01*
X144069Y55118D02*X147269D01*
X155669Y56718D02*Y53518D01*
X154069Y55118D02*X157269D01*
X145669Y20300D02*Y17100D01*
X144069Y18700D02*X147269D01*
X155669Y20300D02*Y17100D01*
X154069Y18700D02*X157269D01*
X15000Y309070D02*Y305870D01*
X13400Y307470D02*X16600D01*
X135000Y309720D02*Y308970D01*
X136500Y307470D01*
X138000Y308970D01*
Y309720D02*Y308970D01*
X136500Y307470D02*Y303720D01*
X139801Y306720D02*X142051D01*
X139801Y303720D02*X142801D01*
X139801Y309720D02*Y303720D01*
Y309720D02*X142801D01*
X147603D02*X148353Y308970D01*
X145353Y309720D02*X147603D01*
X144603Y308970D02*X145353Y309720D01*
X144603Y308970D02*Y307470D01*
X145353Y306720D01*
X147603D01*
X148353Y305970D01*
Y304470D01*
X147603Y303720D02*X148353Y304470D01*
X145353Y303720D02*X147603D01*
X144603Y304470D02*X145353Y303720D01*
X135000Y300469D02*X150154D01*
X98000Y306720D02*X101000Y309720D01*
X98000Y306720D02*X101750D01*
X101000Y309720D02*Y303720D01*
X98000Y300469D02*X103551D01*
X45000Y304470D02*X45750Y303720D01*
X45000Y308970D02*Y304470D01*
Y308970D02*X45750Y309720D01*
X47250D01*
X48000Y308970D01*
Y304470D01*
X47250Y303720D02*X48000Y304470D01*
X45750Y303720D02*X47250D01*
X45000Y305220D02*X48000Y308220D01*
X49801Y303720D02*X50551D01*
X52353Y304470D02*X53103Y303720D01*
X52353Y308970D02*Y304470D01*
Y308970D02*X53103Y309720D01*
X54603D01*
X55353Y308970D01*
Y304470D01*
X54603Y303720D02*X55353Y304470D01*
X53103Y303720D02*X54603D01*
X52353Y305220D02*X55353Y308220D01*
X57154Y308970D02*X57904Y309720D01*
X59404D01*
X60154Y308970D01*
Y304470D01*
X59404Y303720D02*X60154Y304470D01*
X57904Y303720D02*X59404D01*
X57154Y304470D02*X57904Y303720D01*
Y306720D02*X60154D01*
X61956Y304470D02*X62706Y303720D01*
X61956Y308970D02*Y304470D01*
Y308970D02*X62706Y309720D01*
X64206D01*
X64956Y308970D01*
Y304470D01*
X64206Y303720D02*X64956Y304470D01*
X62706Y303720D02*X64206D01*
X61956Y305220D02*X64956Y308220D01*
X45000Y300469D02*X66757D01*
X114173Y171515D02*Y169915D01*
Y171515D02*X115559Y172315D01*
X114173Y171515D02*X112787Y172315D01*
X114173Y176515D02*Y174915D01*
Y176515D02*X115559Y177315D01*
X114173Y176515D02*X112787Y177315D01*
X93307Y216141D02*Y214541D01*
Y216141D02*X94693Y216941D01*
X93307Y216141D02*X91921Y216941D01*
X96457Y212992D02*Y211392D01*
Y212992D02*X97843Y213792D01*
X96457Y212992D02*X95071Y213792D01*
X99606Y209842D02*Y208242D01*
Y209842D02*X100992Y210642D01*
X99606Y209842D02*X98220Y210642D01*
X107480Y213385D02*Y211785D01*
Y213385D02*X108866Y214185D01*
X107480Y213385D02*X106094Y214185D01*
X103150Y212598D02*Y210998D01*
Y212598D02*X104536Y213398D01*
X103150Y212598D02*X101764Y213398D01*
X102362Y232677D02*Y231077D01*
Y232677D02*X103748Y233477D01*
X102362Y232677D02*X100976Y233477D01*
X152756Y230708D02*Y229108D01*
Y230708D02*X154142Y231508D01*
X152756Y230708D02*X151370Y231508D01*
X148425Y230708D02*Y229108D01*
Y230708D02*X149811Y231508D01*
X148425Y230708D02*X147039Y231508D01*
X152362Y188189D02*Y186589D01*
Y188189D02*X153748Y188989D01*
X152362Y188189D02*X150976Y188989D01*
X27953Y170472D02*Y168872D01*
Y170472D02*X29339Y171272D01*
X27953Y170472D02*X26567Y171272D01*
X79921Y126969D02*Y125369D01*
Y126969D02*X81307Y127769D01*
X79921Y126969D02*X78535Y127769D01*
X77559Y198819D02*Y197219D01*
Y198819D02*X78945Y199619D01*
X77559Y198819D02*X76173Y199619D01*
X92913Y164566D02*Y162966D01*
Y164566D02*X94299Y165366D01*
X92913Y164566D02*X91527Y165366D01*
X76378Y189764D02*Y188164D01*
Y189764D02*X77764Y190564D01*
X76378Y189764D02*X74992Y190564D01*
X61614Y213583D02*Y211983D01*
Y213583D02*X63000Y214383D01*
X61614Y213583D02*X60228Y214383D01*
X15748Y201181D02*Y199581D01*
Y201181D02*X17134Y201981D01*
X15748Y201181D02*X14362Y201981D01*
X22835Y185827D02*Y184227D01*
Y185827D02*X24221Y186627D01*
X22835Y185827D02*X21449Y186627D01*
X13780Y193307D02*Y191707D01*
Y193307D02*X15166Y194107D01*
X13780Y193307D02*X12394Y194107D01*
X10236Y204724D02*Y203124D01*
Y204724D02*X11622Y205524D01*
X10236Y204724D02*X8850Y205524D01*
X18110Y187008D02*Y185408D01*
Y187008D02*X19496Y187808D01*
X18110Y187008D02*X16724Y187808D01*
X18110Y191732D02*Y190132D01*
Y191732D02*X19496Y192532D01*
X18110Y191732D02*X16724Y192532D01*
X33661Y211024D02*Y209424D01*
Y211024D02*X35047Y211824D01*
X33661Y211024D02*X32275Y211824D01*
X150394Y115354D02*Y113754D01*
Y115354D02*X151780Y116154D01*
X150394Y115354D02*X149008Y116154D01*
X14764Y125000D02*Y123400D01*
Y125000D02*X16150Y125800D01*
X14764Y125000D02*X13378Y125800D01*
X23622Y114173D02*Y112573D01*
Y114173D02*X25008Y114973D01*
X23622Y114173D02*X22236Y114973D01*
X3937Y104331D02*Y102731D01*
Y104331D02*X5323Y105131D01*
X3937Y104331D02*X2551Y105131D01*
X25197Y75196D02*Y73596D01*
Y75196D02*X26583Y75996D01*
X25197Y75196D02*X23811Y75996D01*
X57480Y103543D02*Y101943D01*
Y103543D02*X58866Y104343D01*
X57480Y103543D02*X56094Y104343D01*
X13386Y178740D02*Y177140D01*
Y178740D02*X14772Y179540D01*
X13386Y178740D02*X12000Y179540D01*
X22047Y177165D02*Y175565D01*
Y177165D02*X23433Y177965D01*
X22047Y177165D02*X20661Y177965D01*
X12205Y151969D02*Y150369D01*
Y151969D02*X13591Y152769D01*
X12205Y151969D02*X10819Y152769D01*
X14764Y129724D02*Y128124D01*
Y129724D02*X16150Y130524D01*
X14764Y129724D02*X13378Y130524D01*
X23622Y107480D02*Y105880D01*
Y107480D02*X25008Y108280D01*
X23622Y107480D02*X22236Y108280D01*
X18110Y152559D02*Y150959D01*
Y152559D02*X19496Y153359D01*
X18110Y152559D02*X16724Y153359D01*
X20669Y132284D02*Y130684D01*
Y132284D02*X22055Y133084D01*
X20669Y132284D02*X19283Y133084D01*
X28937Y211614D02*Y210014D01*
Y211614D02*X30323Y212414D01*
X28937Y211614D02*X27551Y212414D01*
X121260Y172047D02*Y170447D01*
Y172047D02*X122646Y172847D01*
X121260Y172047D02*X119874Y172847D01*
X72638Y114173D02*Y112573D01*
Y114173D02*X74024Y114973D01*
X72638Y114173D02*X71252Y114973D01*
X43701Y113780D02*Y112180D01*
Y113780D02*X45087Y114580D01*
X43701Y113780D02*X42315Y114580D01*
X40945Y147638D02*Y146038D01*
Y147638D02*X42331Y148438D01*
X40945Y147638D02*X39559Y148438D01*
X40945Y152362D02*Y150762D01*
Y152362D02*X42331Y153162D01*
X40945Y152362D02*X39559Y153162D01*
X40945Y157087D02*Y155487D01*
Y157087D02*X42331Y157887D01*
X40945Y157087D02*X39559Y157887D01*
X45669Y147638D02*Y146038D01*
Y147638D02*X47055Y148438D01*
X45669Y147638D02*X44283Y148438D01*
X45669Y152362D02*Y150762D01*
Y152362D02*X47055Y153162D01*
X45669Y152362D02*X44283Y153162D01*
X45669Y157087D02*Y155487D01*
Y157087D02*X47055Y157887D01*
X45669Y157087D02*X44283Y157887D01*
X45669Y161811D02*Y160211D01*
Y161811D02*X47055Y162611D01*
X45669Y161811D02*X44283Y162611D01*
X79724Y115748D02*Y114148D01*
Y115748D02*X81110Y116548D01*
X79724Y115748D02*X78338Y116548D01*
X87008Y183465D02*Y181865D01*
Y183465D02*X88394Y184265D01*
X87008Y183465D02*X85622Y184265D01*
X77559Y183465D02*Y181865D01*
Y183465D02*X78945Y184265D01*
X77559Y183465D02*X76173Y184265D01*
X29921Y205512D02*Y203912D01*
Y205512D02*X31307Y206312D01*
X29921Y205512D02*X28535Y206312D01*
X22835Y190551D02*Y188951D01*
Y190551D02*X24221Y191351D01*
X22835Y190551D02*X21449Y191351D01*
X147638Y142519D02*Y140919D01*
Y142519D02*X149024Y143319D01*
X147638Y142519D02*X146252Y143319D01*
X75233Y118219D02*Y116619D01*
Y118219D02*X76619Y119019D01*
X75233Y118219D02*X73847Y119019D01*
X87008Y198819D02*Y197219D01*
Y198819D02*X88394Y199619D01*
X87008Y198819D02*X85622Y199619D01*
X6299Y173228D02*Y171628D01*
Y173228D02*X7685Y174028D01*
X6299Y173228D02*X4913Y174028D01*
X3543Y177756D02*Y176156D01*
Y177756D02*X4929Y178556D01*
X3543Y177756D02*X2157Y178556D01*
X33661Y114961D02*Y113361D01*
Y114961D02*X35047Y115761D01*
X33661Y114961D02*X32275Y115761D01*
X55315Y219882D02*Y218282D01*
Y219882D02*X56701Y220682D01*
X55315Y219882D02*X53929Y220682D01*
X58465Y216732D02*Y215132D01*
Y216732D02*X59851Y217532D01*
X58465Y216732D02*X57079Y217532D01*
X63583Y144685D02*Y143085D01*
Y144685D02*X64969Y145485D01*
X63583Y144685D02*X62197Y145485D01*
X63583Y150000D02*Y148400D01*
Y150000D02*X64969Y150800D01*
X63583Y150000D02*X62197Y150800D01*
X63583Y155315D02*Y153715D01*
Y155315D02*X64969Y156115D01*
X63583Y155315D02*X62197Y156115D01*
X63583Y160630D02*Y159030D01*
Y160630D02*X64969Y161430D01*
X63583Y160630D02*X62197Y161430D01*
X63583Y165945D02*Y164345D01*
Y165945D02*X64969Y166745D01*
X63583Y165945D02*X62197Y166745D01*
X67126Y158071D02*Y156471D01*
Y158071D02*X68512Y158871D01*
X67126Y158071D02*X65740Y158871D01*
X67126Y163386D02*Y161786D01*
Y163386D02*X68512Y164186D01*
X67126Y163386D02*X65740Y164186D01*
X61024Y24606D02*Y23006D01*
Y24606D02*X62410Y25406D01*
X61024Y24606D02*X59638Y25406D01*
X33858Y41338D02*Y39738D01*
Y41338D02*X35244Y42138D01*
X33858Y41338D02*X32472Y42138D01*
X50197Y54133D02*Y52533D01*
Y54133D02*X51583Y54933D01*
X50197Y54133D02*X48811Y54933D01*
X138780Y46652D02*Y45052D01*
Y46652D02*X140166Y47452D01*
X138780Y46652D02*X137394Y47452D01*
X138780Y40747D02*Y39147D01*
Y40747D02*X140166Y41547D01*
X138780Y40747D02*X137394Y41547D01*
X69094Y126378D02*Y124778D01*
Y126378D02*X70480Y127178D01*
X69094Y126378D02*X67708Y127178D01*
X55906Y229133D02*Y227533D01*
Y229133D02*X57292Y229933D01*
X55906Y229133D02*X54520Y229933D01*
X92913Y81102D02*Y79502D01*
Y81102D02*X94299Y81902D01*
X92913Y81102D02*X91527Y81902D01*
X78740Y50196D02*Y48596D01*
Y50196D02*X80126Y50996D01*
X78740Y50196D02*X77354Y50996D01*
X74409Y90944D02*Y89344D01*
Y90944D02*X75795Y91744D01*
X74409Y90944D02*X73023Y91744D01*
X156299Y87007D02*Y85407D01*
Y87007D02*X157685Y87807D01*
X156299Y87007D02*X154913Y87807D01*
X162205Y36614D02*Y35014D01*
Y36614D02*X163591Y37414D01*
X162205Y36614D02*X160819Y37414D01*
X152362Y182283D02*Y180683D01*
Y182283D02*X153748Y183083D01*
X152362Y182283D02*X150976Y183083D01*
X113386Y157086D02*Y155486D01*
Y157086D02*X114772Y157886D01*
X113386Y157086D02*X112000Y157886D01*
X109843Y182283D02*Y180683D01*
Y182283D02*X111229Y183083D01*
X109843Y182283D02*X108457Y183083D01*
X151575Y172047D02*Y170447D01*
Y172047D02*X152961Y172847D01*
X151575Y172047D02*X150189Y172847D01*
X95276Y198818D02*Y197218D01*
Y198818D02*X96662Y199618D01*
X95276Y198818D02*X93890Y199618D01*
X96063Y206692D02*Y205092D01*
Y206692D02*X97449Y207492D01*
X96063Y206692D02*X94677Y207492D01*
X138780Y26968D02*Y25368D01*
Y26968D02*X140166Y27768D01*
X138780Y26968D02*X137394Y27768D01*
X138780Y32874D02*Y31274D01*
Y32874D02*X140166Y33674D01*
X138780Y32874D02*X137394Y33674D01*
X155512Y5511D02*Y3911D01*
Y5511D02*X156898Y6311D01*
X155512Y5511D02*X154126Y6311D01*
X161024Y10236D02*Y8636D01*
Y10236D02*X162410Y11036D01*
X161024Y10236D02*X159638Y11036D01*
X161024Y61417D02*Y59817D01*
Y61417D02*X162410Y62217D01*
X161024Y61417D02*X159638Y62217D01*
X109055Y31102D02*Y29502D01*
Y31102D02*X110441Y31902D01*
X109055Y31102D02*X107669Y31902D01*
X15000Y322470D02*Y320870D01*
Y322470D02*X16386Y323270D01*
X15000Y322470D02*X13614Y323270D01*
X135000Y324720D02*Y323970D01*
X136500Y322470D01*
X138000Y323970D01*
Y324720D02*Y323970D01*
X136500Y322470D02*Y318720D01*
X139801Y321720D02*X142051D01*
X139801Y318720D02*X142801D01*
X139801Y324720D02*Y318720D01*
Y324720D02*X142801D01*
X147603D02*X148353Y323970D01*
X145353Y324720D02*X147603D01*
X144603Y323970D02*X145353Y324720D01*
X144603Y323970D02*Y322470D01*
X145353Y321720D01*
X147603D01*
X148353Y320970D01*
Y319470D01*
X147603Y318720D02*X148353Y319470D01*
X145353Y318720D02*X147603D01*
X144603Y319470D02*X145353Y318720D01*
X135000Y315469D02*X150154D01*
X98000Y318720D02*X101000Y321720D01*
Y323970D02*Y321720D01*
X100250Y324720D02*X101000Y323970D01*
X98750Y324720D02*X100250D01*
X98000Y323970D02*X98750Y324720D01*
X98000Y323970D02*Y322470D01*
X98750Y321720D01*
X101000D01*
X102801Y323970D02*X103551Y324720D01*
X105801D01*
X106551Y323970D01*
Y322470D01*
X102801Y318720D02*X106551Y322470D01*
X102801Y318720D02*X106551D01*
X98000Y315469D02*X108353D01*
X45000Y319470D02*X45750Y318720D01*
X45000Y323970D02*Y319470D01*
Y323970D02*X45750Y324720D01*
X47250D01*
X48000Y323970D01*
Y319470D01*
X47250Y318720D02*X48000Y319470D01*
X45750Y318720D02*X47250D01*
X45000Y320220D02*X48000Y323220D01*
X49801Y318720D02*X50551D01*
X52353Y319470D02*X53103Y318720D01*
X52353Y323970D02*Y319470D01*
Y323970D02*X53103Y324720D01*
X54603D01*
X55353Y323970D01*
Y319470D01*
X54603Y318720D02*X55353Y319470D01*
X53103Y318720D02*X54603D01*
X52353Y320220D02*X55353Y323220D01*
X57154Y323970D02*X57904Y324720D01*
X60154D01*
X60904Y323970D01*
Y322470D01*
X57154Y318720D02*X60904Y322470D01*
X57154Y318720D02*X60904D01*
X62706Y319470D02*X63456Y318720D01*
X62706Y323970D02*Y319470D01*
Y323970D02*X63456Y324720D01*
X64956D01*
X65706Y323970D01*
Y319470D01*
X64956Y318720D02*X65706Y319470D01*
X63456Y318720D02*X64956D01*
X62706Y320220D02*X65706Y323220D01*
X45000Y315469D02*X67507D01*
X3000Y339720D02*X3750Y338970D01*
X750Y339720D02*X3000D01*
X0Y338970D02*X750Y339720D01*
X0Y338970D02*Y337470D01*
X750Y336720D01*
X3000D01*
X3750Y335970D01*
Y334470D01*
X3000Y333720D02*X3750Y334470D01*
X750Y333720D02*X3000D01*
X0Y334470D02*X750Y333720D01*
X5551Y336720D02*Y334470D01*
X6301Y333720D01*
X8551Y336720D02*Y332220D01*
X7801Y331470D02*X8551Y332220D01*
X6301Y331470D02*X7801D01*
X5551Y332220D02*X6301Y331470D01*
Y333720D02*X7801D01*
X8551Y334470D01*
X11103Y335970D02*Y333720D01*
Y335970D02*X11853Y336720D01*
X12603D01*
X13353Y335970D01*
Y333720D01*
Y335970D02*X14103Y336720D01*
X14853D01*
X15603Y335970D01*
Y333720D01*
X10353Y336720D02*X11103Y335970D01*
X17404Y339720D02*Y333720D01*
Y334470D02*X18154Y333720D01*
X19654D01*
X20404Y334470D01*
Y335970D02*Y334470D01*
X19654Y336720D02*X20404Y335970D01*
X18154Y336720D02*X19654D01*
X17404Y335970D02*X18154Y336720D01*
X22206Y335970D02*Y334470D01*
Y335970D02*X22956Y336720D01*
X24456D01*
X25206Y335970D01*
Y334470D01*
X24456Y333720D02*X25206Y334470D01*
X22956Y333720D02*X24456D01*
X22206Y334470D02*X22956Y333720D01*
X27007Y339720D02*Y334470D01*
X27757Y333720D01*
X41750Y339720D02*Y333720D01*
X44000Y339720D02*X44750Y338970D01*
Y334470D01*
X44000Y333720D02*X44750Y334470D01*
X41000Y333720D02*X44000D01*
X41000Y339720D02*X44000D01*
X46551Y338220D02*Y337470D01*
Y335970D02*Y333720D01*
X50303Y336720D02*X51053Y335970D01*
X48803Y336720D02*X50303D01*
X48053Y335970D02*X48803Y336720D01*
X48053Y335970D02*Y334470D01*
X48803Y333720D01*
X51053Y336720D02*Y334470D01*
X51803Y333720D01*
X48803D02*X50303D01*
X51053Y334470D01*
X54354Y335970D02*Y333720D01*
Y335970D02*X55104Y336720D01*
X55854D01*
X56604Y335970D01*
Y333720D01*
Y335970D02*X57354Y336720D01*
X58104D01*
X58854Y335970D01*
Y333720D01*
X53604Y336720D02*X54354Y335970D01*
X60656Y333720D02*X61406D01*
X65907Y334470D02*X66657Y333720D01*
X65907Y338970D02*X66657Y339720D01*
X65907Y338970D02*Y334470D01*
X68459Y339720D02*X69959D01*
X69209D02*Y333720D01*
X68459D02*X69959D01*
X72510Y335970D02*Y333720D01*
Y335970D02*X73260Y336720D01*
X74010D01*
X74760Y335970D01*
Y333720D01*
X71760Y336720D02*X72510Y335970D01*
X77312Y336720D02*X79562D01*
X76562Y335970D02*X77312Y336720D01*
X76562Y335970D02*Y334470D01*
X77312Y333720D01*
X79562D01*
X81363Y339720D02*Y333720D01*
Y335970D02*X82113Y336720D01*
X83613D01*
X84363Y335970D01*
Y333720D01*
X86165Y339720D02*X86915Y338970D01*
Y334470D01*
X86165Y333720D02*X86915Y334470D01*
X95750Y333720D02*X98000D01*
X95000Y334470D02*X95750Y333720D01*
X95000Y338970D02*Y334470D01*
Y338970D02*X95750Y339720D01*
X98000D01*
X99801Y335970D02*Y334470D01*
Y335970D02*X100551Y336720D01*
X102051D01*
X102801Y335970D01*
Y334470D01*
X102051Y333720D02*X102801Y334470D01*
X100551Y333720D02*X102051D01*
X99801Y334470D02*X100551Y333720D01*
X104603Y336720D02*Y334470D01*
X105353Y333720D01*
X106853D01*
X107603Y334470D01*
Y336720D02*Y334470D01*
X110154Y335970D02*Y333720D01*
Y335970D02*X110904Y336720D01*
X111654D01*
X112404Y335970D01*
Y333720D01*
X109404Y336720D02*X110154Y335970D01*
X114956Y339720D02*Y334470D01*
X115706Y333720D01*
X114206Y337470D02*X115706D01*
X130750Y339720D02*Y333720D01*
X130000Y339720D02*X133000D01*
X133750Y338970D01*
Y337470D01*
X133000Y336720D02*X133750Y337470D01*
X130750Y336720D02*X133000D01*
X135551Y339720D02*Y334470D01*
X136301Y333720D01*
X140053Y336720D02*X140803Y335970D01*
X138553Y336720D02*X140053D01*
X137803Y335970D02*X138553Y336720D01*
X137803Y335970D02*Y334470D01*
X138553Y333720D01*
X140803Y336720D02*Y334470D01*
X141553Y333720D01*
X138553D02*X140053D01*
X140803Y334470D01*
X144104Y339720D02*Y334470D01*
X144854Y333720D01*
X143354Y337470D02*X144854D01*
X147106Y333720D02*X149356D01*
X146356Y334470D02*X147106Y333720D01*
X146356Y335970D02*Y334470D01*
Y335970D02*X147106Y336720D01*
X148606D01*
X149356Y335970D01*
X146356Y335220D02*X149356D01*
Y335970D02*Y335220D01*
X154157Y339720D02*Y333720D01*
X153407D02*X154157Y334470D01*
X151907Y333720D02*X153407D01*
X151157Y334470D02*X151907Y333720D01*
X151157Y335970D02*Y334470D01*
Y335970D02*X151907Y336720D01*
X153407D01*
X154157Y335970D01*
X157459Y336720D02*Y335970D01*
Y334470D02*Y333720D01*
X155959Y338970D02*Y338220D01*
Y338970D02*X156709Y339720D01*
X158209D01*
X158959Y338970D01*
Y338220D01*
X157459Y336720D02*X158959Y338220D01*
X0Y354720D02*X3000D01*
X1500D02*Y348720D01*
X4801Y354720D02*Y348720D01*
Y350970D02*X5551Y351720D01*
X7051D01*
X7801Y350970D01*
Y348720D01*
X10353D02*X12603D01*
X9603Y349470D02*X10353Y348720D01*
X9603Y350970D02*Y349470D01*
Y350970D02*X10353Y351720D01*
X11853D01*
X12603Y350970D01*
X9603Y350220D02*X12603D01*
Y350970D02*Y350220D01*
X15154Y350970D02*Y348720D01*
Y350970D02*X15904Y351720D01*
X17404D01*
X14404D02*X15154Y350970D01*
X19956Y348720D02*X22206D01*
X19206Y349470D02*X19956Y348720D01*
X19206Y350970D02*Y349470D01*
Y350970D02*X19956Y351720D01*
X21456D01*
X22206Y350970D01*
X19206Y350220D02*X22206D01*
Y350970D02*Y350220D01*
X28957Y351720D02*X29707Y350970D01*
X27457Y351720D02*X28957D01*
X26707Y350970D02*X27457Y351720D01*
X26707Y350970D02*Y349470D01*
X27457Y348720D01*
X29707Y351720D02*Y349470D01*
X30457Y348720D01*
X27457D02*X28957D01*
X29707Y349470D01*
X33009Y350970D02*Y348720D01*
Y350970D02*X33759Y351720D01*
X35259D01*
X32259D02*X33009Y350970D01*
X37810Y348720D02*X40060D01*
X37060Y349470D02*X37810Y348720D01*
X37060Y350970D02*Y349470D01*
Y350970D02*X37810Y351720D01*
X39310D01*
X40060Y350970D01*
X37060Y350220D02*X40060D01*
Y350970D02*Y350220D01*
X46812Y354720D02*X47562Y353970D01*
X45312Y354720D02*X46812D01*
X44562Y353970D02*X45312Y354720D01*
X44562Y353970D02*Y349470D01*
X45312Y348720D01*
X46812Y351720D02*X47562Y350970D01*
X44562Y351720D02*X46812D01*
X45312Y348720D02*X46812D01*
X47562Y349470D01*
Y350970D02*Y349470D01*
X55063Y354720D02*Y348720D01*
X54313D02*X55063Y349470D01*
X52813Y348720D02*X54313D01*
X52063Y349470D02*X52813Y348720D01*
X52063Y350970D02*Y349470D01*
Y350970D02*X52813Y351720D01*
X54313D01*
X55063Y350970D01*
X56865Y353220D02*Y352470D01*
Y350970D02*Y348720D01*
X59116Y353970D02*Y348720D01*
Y353970D02*X59866Y354720D01*
X60616D01*
X58366Y351720D02*X59866D01*
X62868Y353970D02*Y348720D01*
Y353970D02*X63618Y354720D01*
X64368D01*
X62118Y351720D02*X63618D01*
X66619Y348720D02*X68869D01*
X65869Y349470D02*X66619Y348720D01*
X65869Y350970D02*Y349470D01*
Y350970D02*X66619Y351720D01*
X68119D01*
X68869Y350970D01*
X65869Y350220D02*X68869D01*
Y350970D02*Y350220D01*
X71421Y350970D02*Y348720D01*
Y350970D02*X72171Y351720D01*
X73671D01*
X70671D02*X71421Y350970D01*
X76222Y348720D02*X78472D01*
X75472Y349470D02*X76222Y348720D01*
X75472Y350970D02*Y349470D01*
Y350970D02*X76222Y351720D01*
X77722D01*
X78472Y350970D01*
X75472Y350220D02*X78472D01*
Y350970D02*Y350220D01*
X81024Y350970D02*Y348720D01*
Y350970D02*X81774Y351720D01*
X82524D01*
X83274Y350970D01*
Y348720D01*
X80274Y351720D02*X81024Y350970D01*
X85825Y354720D02*Y349470D01*
X86575Y348720D01*
X85075Y352470D02*X86575D01*
X93777Y354720D02*Y348720D01*
X93027D02*X93777Y349470D01*
X91527Y348720D02*X93027D01*
X90777Y349470D02*X91527Y348720D01*
X90777Y350970D02*Y349470D01*
Y350970D02*X91527Y351720D01*
X93027D01*
X93777Y350970D01*
X96328D02*Y348720D01*
Y350970D02*X97078Y351720D01*
X98578D01*
X95578D02*X96328Y350970D01*
X100380Y353220D02*Y352470D01*
Y350970D02*Y348720D01*
X101881Y354720D02*Y349470D01*
X102631Y348720D01*
X104133Y354720D02*Y349470D01*
X104883Y348720D01*
X109834D02*X112084D01*
X112834Y349470D01*
X112084Y350220D02*X112834Y349470D01*
X109834Y350220D02*X112084D01*
X109084Y350970D02*X109834Y350220D01*
X109084Y350970D02*X109834Y351720D01*
X112084D01*
X112834Y350970D01*
X109084Y349470D02*X109834Y348720D01*
X114636Y353220D02*Y352470D01*
Y350970D02*Y348720D01*
X116137Y351720D02*X119137D01*
X116137Y348720D02*X119137Y351720D01*
X116137Y348720D02*X119137D01*
X121689D02*X123939D01*
X120939Y349470D02*X121689Y348720D01*
X120939Y350970D02*Y349470D01*
Y350970D02*X121689Y351720D01*
X123189D01*
X123939Y350970D01*
X120939Y350220D02*X123939D01*
Y350970D02*Y350220D01*
X126490Y348720D02*X128740D01*
X129490Y349470D01*
X128740Y350220D02*X129490Y349470D01*
X126490Y350220D02*X128740D01*
X125740Y350970D02*X126490Y350220D01*
X125740Y350970D02*X126490Y351720D01*
X128740D01*
X129490Y350970D01*
X125740Y349470D02*X126490Y348720D01*
X133992Y351720D02*Y349470D01*
X134742Y348720D01*
X136242D01*
X136992Y349470D01*
Y351720D02*Y349470D01*
X139543Y348720D02*X141793D01*
X142543Y349470D01*
X141793Y350220D02*X142543Y349470D01*
X139543Y350220D02*X141793D01*
X138793Y350970D02*X139543Y350220D01*
X138793Y350970D02*X139543Y351720D01*
X141793D01*
X142543Y350970D01*
X138793Y349470D02*X139543Y348720D01*
X145095D02*X147345D01*
X144345Y349470D02*X145095Y348720D01*
X144345Y350970D02*Y349470D01*
Y350970D02*X145095Y351720D01*
X146595D01*
X147345Y350970D01*
X144345Y350220D02*X147345D01*
Y350970D02*Y350220D01*
X152146Y354720D02*Y348720D01*
X151396D02*X152146Y349470D01*
X149896Y348720D02*X151396D01*
X149146Y349470D02*X149896Y348720D01*
X149146Y350970D02*Y349470D01*
Y350970D02*X149896Y351720D01*
X151396D01*
X152146Y350970D01*
X156648Y353220D02*Y352470D01*
Y350970D02*Y348720D01*
X158899Y350970D02*Y348720D01*
Y350970D02*X159649Y351720D01*
X160399D01*
X161149Y350970D01*
Y348720D01*
X158149Y351720D02*X158899Y350970D01*
X166401Y354720D02*Y349470D01*
X167151Y348720D01*
X165651Y352470D02*X167151D01*
X168652Y354720D02*Y348720D01*
Y350970D02*X169402Y351720D01*
X170902D01*
X171652Y350970D01*
Y348720D01*
X173454Y353220D02*Y352470D01*
Y350970D02*Y348720D01*
X175705D02*X177955D01*
X178705Y349470D01*
X177955Y350220D02*X178705Y349470D01*
X175705Y350220D02*X177955D01*
X174955Y350970D02*X175705Y350220D01*
X174955Y350970D02*X175705Y351720D01*
X177955D01*
X178705Y350970D01*
X174955Y349470D02*X175705Y348720D01*
X183207Y354720D02*Y349470D01*
X183957Y348720D01*
X187708Y351720D02*X188458Y350970D01*
X186208Y351720D02*X187708D01*
X185458Y350970D02*X186208Y351720D01*
X185458Y350970D02*Y349470D01*
X186208Y348720D01*
X188458Y351720D02*Y349470D01*
X189208Y348720D01*
X186208D02*X187708D01*
X188458Y349470D01*
X191010Y351720D02*Y349470D01*
X191760Y348720D01*
X194010Y351720D02*Y347220D01*
X193260Y346470D02*X194010Y347220D01*
X191760Y346470D02*X193260D01*
X191010Y347220D02*X191760Y346470D01*
Y348720D02*X193260D01*
X194010Y349470D01*
X195811Y350970D02*Y349470D01*
Y350970D02*X196561Y351720D01*
X198061D01*
X198811Y350970D01*
Y349470D01*
X198061Y348720D02*X198811Y349470D01*
X196561Y348720D02*X198061D01*
X195811Y349470D02*X196561Y348720D01*
X200613Y351720D02*Y349470D01*
X201363Y348720D01*
X202863D01*
X203613Y349470D01*
Y351720D02*Y349470D01*
X206164Y354720D02*Y349470D01*
X206914Y348720D01*
X205414Y352470D02*X206914D01*
X208416Y347220D02*X209916Y348720D01*
X215167D02*X216667D01*
X215917Y354720D02*Y348720D01*
X214417Y353220D02*X215917Y354720D01*
X218469D02*X221469D01*
X218469D02*Y351720D01*
X219219Y352470D01*
X220719D01*
X221469Y351720D01*
Y349470D01*
X220719Y348720D02*X221469Y349470D01*
X219219Y348720D02*X220719D01*
X218469Y349470D02*X219219Y348720D01*
X223270D02*X227020Y352470D01*
Y354720D02*Y352470D01*
X223270Y354720D02*X227020D01*
X231522D02*Y348720D01*
Y350970D02*X232272Y351720D01*
X233772D01*
X234522Y350970D01*
Y348720D01*
X236323Y350970D02*Y349470D01*
Y350970D02*X237073Y351720D01*
X238573D01*
X239323Y350970D01*
Y349470D01*
X238573Y348720D02*X239323Y349470D01*
X237073Y348720D02*X238573D01*
X236323Y349470D02*X237073Y348720D01*
X241125Y354720D02*Y349470D01*
X241875Y348720D01*
X244126D02*X246376D01*
X243376Y349470D02*X244126Y348720D01*
X243376Y350970D02*Y349470D01*
Y350970D02*X244126Y351720D01*
X245626D01*
X246376Y350970D01*
X243376Y350220D02*X246376D01*
Y350970D02*Y350220D01*
X248928Y348720D02*X251178D01*
X251928Y349470D01*
X251178Y350220D02*X251928Y349470D01*
X248928Y350220D02*X251178D01*
X248178Y350970D02*X248928Y350220D01*
X248178Y350970D02*X248928Y351720D01*
X251178D01*
X251928Y350970D01*
X248178Y349470D02*X248928Y348720D01*
X257179Y354720D02*Y349470D01*
X257929Y348720D01*
X256429Y352470D02*X257929D01*
X259431Y350970D02*Y349470D01*
Y350970D02*X260181Y351720D01*
X261681D01*
X262431Y350970D01*
Y349470D01*
X261681Y348720D02*X262431Y349470D01*
X260181Y348720D02*X261681D01*
X259431Y349470D02*X260181Y348720D01*
X264982Y354720D02*Y349470D01*
X265732Y348720D01*
X264232Y352470D02*X265732D01*
X269484Y351720D02*X270234Y350970D01*
X267984Y351720D02*X269484D01*
X267234Y350970D02*X267984Y351720D01*
X267234Y350970D02*Y349470D01*
X267984Y348720D01*
X270234Y351720D02*Y349470D01*
X270984Y348720D01*
X267984D02*X269484D01*
X270234Y349470D01*
X272785Y354720D02*Y349470D01*
X273535Y348720D01*
G54D13*X0Y236220D02*X165354D01*
X0D02*Y0D01*
X165354Y236220D02*Y0D01*
X0D02*X165354D01*
G54D66*X200000Y249720D02*Y243720D01*
Y249720D02*X202250Y247470D01*
X204500Y249720D01*
Y243720D01*
X208551Y246720D02*X209301Y245970D01*
X207051Y246720D02*X208551D01*
X206301Y245970D02*X207051Y246720D01*
X206301Y245970D02*Y244470D01*
X207051Y243720D01*
X209301Y246720D02*Y244470D01*
X210051Y243720D01*
X207051D02*X208551D01*
X209301Y244470D01*
X211853Y246720D02*X214853Y243720D01*
X211853D02*X214853Y246720D01*
X216654Y248220D02*Y247470D01*
Y245970D02*Y243720D01*
X218906Y245970D02*Y243720D01*
Y245970D02*X219656Y246720D01*
X220406D01*
X221156Y245970D01*
Y243720D01*
Y245970D02*X221906Y246720D01*
X222656D01*
X223406Y245970D01*
Y243720D01*
X218156Y246720D02*X218906Y245970D01*
X225207Y246720D02*Y244470D01*
X225957Y243720D01*
X227457D01*
X228207Y244470D01*
Y246720D02*Y244470D01*
X230759Y245970D02*Y243720D01*
Y245970D02*X231509Y246720D01*
X232259D01*
X233009Y245970D01*
Y243720D01*
Y245970D02*X233759Y246720D01*
X234509D01*
X235259Y245970D01*
Y243720D01*
X230009Y246720D02*X230759Y245970D01*
X240510Y249720D02*Y243720D01*
X242760Y249720D02*X243510Y248970D01*
Y244470D01*
X242760Y243720D02*X243510Y244470D01*
X239760Y243720D02*X242760D01*
X239760Y249720D02*X242760D01*
X245312Y248220D02*Y247470D01*
Y245970D02*Y243720D01*
X247563Y245970D02*Y243720D01*
Y245970D02*X248313Y246720D01*
X249063D01*
X249813Y245970D01*
Y243720D01*
Y245970D02*X250563Y246720D01*
X251313D01*
X252063Y245970D01*
Y243720D01*
X246813Y246720D02*X247563Y245970D01*
X254615Y243720D02*X256865D01*
X253865Y244470D02*X254615Y243720D01*
X253865Y245970D02*Y244470D01*
Y245970D02*X254615Y246720D01*
X256115D01*
X256865Y245970D01*
X253865Y245220D02*X256865D01*
Y245970D02*Y245220D01*
X259416Y245970D02*Y243720D01*
Y245970D02*X260166Y246720D01*
X260916D01*
X261666Y245970D01*
Y243720D01*
X258666Y246720D02*X259416Y245970D01*
X264218Y243720D02*X266468D01*
X267218Y244470D01*
X266468Y245220D02*X267218Y244470D01*
X264218Y245220D02*X266468D01*
X263468Y245970D02*X264218Y245220D01*
X263468Y245970D02*X264218Y246720D01*
X266468D01*
X267218Y245970D01*
X263468Y244470D02*X264218Y243720D01*
X269019Y248220D02*Y247470D01*
Y245970D02*Y243720D01*
X270521Y245970D02*Y244470D01*
Y245970D02*X271271Y246720D01*
X272771D01*
X273521Y245970D01*
Y244470D01*
X272771Y243720D02*X273521Y244470D01*
X271271Y243720D02*X272771D01*
X270521Y244470D02*X271271Y243720D01*
X276072Y245970D02*Y243720D01*
Y245970D02*X276822Y246720D01*
X277572D01*
X278322Y245970D01*
Y243720D01*
X275322Y246720D02*X276072Y245970D01*
X280874Y243720D02*X283124D01*
X283874Y244470D01*
X283124Y245220D02*X283874Y244470D01*
X280874Y245220D02*X283124D01*
X280124Y245970D02*X280874Y245220D01*
X280124Y245970D02*X280874Y246720D01*
X283124D01*
X283874Y245970D01*
X280124Y244470D02*X280874Y243720D01*
X285675Y247470D02*X286425D01*
X285675Y245970D02*X286425D01*
X291677Y243720D02*X293177D01*
X292427Y249720D02*Y243720D01*
X290927Y248220D02*X292427Y249720D01*
X297228D02*X297978Y248970D01*
X295728Y249720D02*X297228D01*
X294978Y248970D02*X295728Y249720D01*
X294978Y248970D02*Y244470D01*
X295728Y243720D01*
X297228Y246720D02*X297978Y245970D01*
X294978Y246720D02*X297228D01*
X295728Y243720D02*X297228D01*
X297978Y244470D01*
Y245970D02*Y244470D01*
X299780Y249720D02*X302780D01*
X299780D02*Y246720D01*
X300530Y247470D01*
X302030D01*
X302780Y246720D01*
Y244470D01*
X302030Y243720D02*X302780Y244470D01*
X300530Y243720D02*X302030D01*
X299780Y244470D02*X300530Y243720D01*
X304581Y248970D02*X305331Y249720D01*
X306831D01*
X307581Y248970D01*
Y244470D01*
X306831Y243720D02*X307581Y244470D01*
X305331Y243720D02*X306831D01*
X304581Y244470D02*X305331Y243720D01*
Y246720D02*X307581D01*
X312833Y245970D02*Y243720D01*
Y245970D02*X313583Y246720D01*
X314333D01*
X315083Y245970D01*
Y243720D01*
Y245970D02*X315833Y246720D01*
X316583D01*
X317333Y245970D01*
Y243720D01*
X312083Y246720D02*X312833Y245970D01*
X319134Y248220D02*Y247470D01*
Y245970D02*Y243720D01*
X320636Y249720D02*Y244470D01*
X321386Y243720D01*
X323637D02*X325887D01*
X326637Y244470D01*
X325887Y245220D02*X326637Y244470D01*
X323637Y245220D02*X325887D01*
X322887Y245970D02*X323637Y245220D01*
X322887Y245970D02*X323637Y246720D01*
X325887D01*
X326637Y245970D01*
X322887Y244470D02*X323637Y243720D01*
X331139Y246720D02*Y244470D01*
X331889Y243720D01*
X332639D01*
X333389Y244470D01*
Y246720D02*Y244470D01*
X334139Y243720D01*
X334889D01*
X335639Y244470D01*
Y246720D02*Y244470D01*
X337440Y248220D02*Y247470D01*
Y245970D02*Y243720D01*
X341942Y249720D02*Y243720D01*
X341192D02*X341942Y244470D01*
X339692Y243720D02*X341192D01*
X338942Y244470D02*X339692Y243720D01*
X338942Y245970D02*Y244470D01*
Y245970D02*X339692Y246720D01*
X341192D01*
X341942Y245970D01*
X344493Y243720D02*X346743D01*
X343743Y244470D02*X344493Y243720D01*
X343743Y245970D02*Y244470D01*
Y245970D02*X344493Y246720D01*
X345993D01*
X346743Y245970D01*
X343743Y245220D02*X346743D01*
Y245970D02*Y245220D01*
X348545Y242220D02*X350045Y243720D01*
X354546Y248970D02*X355296Y249720D01*
X357546D01*
X358296Y248970D01*
Y247470D01*
X354546Y243720D02*X358296Y247470D01*
X354546Y243720D02*X358296D01*
X360098Y248970D02*X360848Y249720D01*
X362348D01*
X363098Y248970D01*
Y244470D01*
X362348Y243720D02*X363098Y244470D01*
X360848Y243720D02*X362348D01*
X360098Y244470D02*X360848Y243720D01*
Y246720D02*X363098D01*
X367149Y249720D02*X367899Y248970D01*
X365649Y249720D02*X367149D01*
X364899Y248970D02*X365649Y249720D01*
X364899Y248970D02*Y244470D01*
X365649Y243720D01*
X367149Y246720D02*X367899Y245970D01*
X364899Y246720D02*X367149D01*
X365649Y243720D02*X367149D01*
X367899Y244470D01*
Y245970D02*Y244470D01*
X369701Y248970D02*X370451Y249720D01*
X372701D01*
X373451Y248970D01*
Y247470D01*
X369701Y243720D02*X373451Y247470D01*
X369701Y243720D02*X373451D01*
X378702Y245970D02*Y243720D01*
Y245970D02*X379452Y246720D01*
X380202D01*
X380952Y245970D01*
Y243720D01*
Y245970D02*X381702Y246720D01*
X382452D01*
X383202Y245970D01*
Y243720D01*
X377952Y246720D02*X378702Y245970D01*
X385004Y248220D02*Y247470D01*
Y245970D02*Y243720D01*
X386505Y249720D02*Y244470D01*
X387255Y243720D01*
X389507D02*X391757D01*
X392507Y244470D01*
X391757Y245220D02*X392507Y244470D01*
X389507Y245220D02*X391757D01*
X388757Y245970D02*X389507Y245220D01*
X388757Y245970D02*X389507Y246720D01*
X391757D01*
X392507Y245970D01*
X388757Y244470D02*X389507Y243720D01*
X397008Y249720D02*Y243720D01*
Y245970D02*X397758Y246720D01*
X399258D01*
X400008Y245970D01*
Y243720D01*
X401810Y248220D02*Y247470D01*
Y245970D02*Y243720D01*
X405561Y246720D02*X406311Y245970D01*
X404061Y246720D02*X405561D01*
X403311Y245970D02*X404061Y246720D01*
X403311Y245970D02*Y244470D01*
X404061Y243720D01*
X405561D01*
X406311Y244470D01*
X403311Y242220D02*X404061Y241470D01*
X405561D01*
X406311Y242220D01*
Y246720D02*Y242220D01*
X408113Y249720D02*Y243720D01*
Y245970D02*X408863Y246720D01*
X410363D01*
X411113Y245970D01*
Y243720D01*
X0Y-9500D02*X3000D01*
X3750Y-8750D01*
Y-7250D02*Y-8750D01*
X3000Y-6500D02*X3750Y-7250D01*
X750Y-6500D02*X3000D01*
X750Y-3500D02*Y-9500D01*
X0Y-3500D02*X3000D01*
X3750Y-4250D01*
Y-5750D01*
X3000Y-6500D02*X3750Y-5750D01*
X5551Y-7250D02*Y-8750D01*
Y-7250D02*X6301Y-6500D01*
X7801D01*
X8551Y-7250D01*
Y-8750D01*
X7801Y-9500D02*X8551Y-8750D01*
X6301Y-9500D02*X7801D01*
X5551Y-8750D02*X6301Y-9500D01*
X12603Y-6500D02*X13353Y-7250D01*
X11103Y-6500D02*X12603D01*
X10353Y-7250D02*X11103Y-6500D01*
X10353Y-7250D02*Y-8750D01*
X11103Y-9500D01*
X13353Y-6500D02*Y-8750D01*
X14103Y-9500D01*
X11103D02*X12603D01*
X13353Y-8750D01*
X16654Y-7250D02*Y-9500D01*
Y-7250D02*X17404Y-6500D01*
X18904D01*
X15904D02*X16654Y-7250D01*
X23706Y-3500D02*Y-9500D01*
X22956D02*X23706Y-8750D01*
X21456Y-9500D02*X22956D01*
X20706Y-8750D02*X21456Y-9500D01*
X20706Y-7250D02*Y-8750D01*
Y-7250D02*X21456Y-6500D01*
X22956D01*
X23706Y-7250D01*
X28207D02*Y-8750D01*
Y-7250D02*X28957Y-6500D01*
X30457D01*
X31207Y-7250D01*
Y-8750D01*
X30457Y-9500D02*X31207Y-8750D01*
X28957Y-9500D02*X30457D01*
X28207Y-8750D02*X28957Y-9500D01*
X33009Y-6500D02*Y-8750D01*
X33759Y-9500D01*
X35259D01*
X36009Y-8750D01*
Y-6500D02*Y-8750D01*
X38560Y-3500D02*Y-8750D01*
X39310Y-9500D01*
X37810Y-5750D02*X39310D01*
X40812Y-3500D02*Y-8750D01*
X41562Y-9500D01*
X43063Y-5000D02*Y-5750D01*
Y-7250D02*Y-9500D01*
X45315Y-7250D02*Y-9500D01*
Y-7250D02*X46065Y-6500D01*
X46815D01*
X47565Y-7250D01*
Y-9500D01*
X44565Y-6500D02*X45315Y-7250D01*
X50116Y-9500D02*X52366D01*
X49366Y-8750D02*X50116Y-9500D01*
X49366Y-7250D02*Y-8750D01*
Y-7250D02*X50116Y-6500D01*
X51616D01*
X52366Y-7250D01*
X49366Y-8000D02*X52366D01*
Y-7250D02*Y-8000D01*
X56868Y-5000D02*Y-5750D01*
Y-7250D02*Y-9500D01*
X59119D02*X61369D01*
X62119Y-8750D01*
X61369Y-8000D02*X62119Y-8750D01*
X59119Y-8000D02*X61369D01*
X58369Y-7250D02*X59119Y-8000D01*
X58369Y-7250D02*X59119Y-6500D01*
X61369D01*
X62119Y-7250D01*
X58369Y-8750D02*X59119Y-9500D01*
X67371Y-3500D02*Y-8750D01*
X68121Y-9500D01*
X66621Y-5750D02*X68121D01*
X69622Y-3500D02*Y-9500D01*
Y-7250D02*X70372Y-6500D01*
X71872D01*
X72622Y-7250D01*
Y-9500D01*
X75174D02*X77424D01*
X74424Y-8750D02*X75174Y-9500D01*
X74424Y-7250D02*Y-8750D01*
Y-7250D02*X75174Y-6500D01*
X76674D01*
X77424Y-7250D01*
X74424Y-8000D02*X77424D01*
Y-7250D02*Y-8000D01*
X82675Y-6500D02*X84925D01*
X81925Y-7250D02*X82675Y-6500D01*
X81925Y-7250D02*Y-8750D01*
X82675Y-9500D01*
X84925D01*
X87477D02*X89727D01*
X86727Y-8750D02*X87477Y-9500D01*
X86727Y-7250D02*Y-8750D01*
Y-7250D02*X87477Y-6500D01*
X88977D01*
X89727Y-7250D01*
X86727Y-8000D02*X89727D01*
Y-7250D02*Y-8000D01*
X92278Y-7250D02*Y-9500D01*
Y-7250D02*X93028Y-6500D01*
X93778D01*
X94528Y-7250D01*
Y-9500D01*
X91528Y-6500D02*X92278Y-7250D01*
X97080Y-3500D02*Y-8750D01*
X97830Y-9500D01*
X96330Y-5750D02*X97830D01*
X100081Y-9500D02*X102331D01*
X99331Y-8750D02*X100081Y-9500D01*
X99331Y-7250D02*Y-8750D01*
Y-7250D02*X100081Y-6500D01*
X101581D01*
X102331Y-7250D01*
X99331Y-8000D02*X102331D01*
Y-7250D02*Y-8000D01*
X104883Y-7250D02*Y-9500D01*
Y-7250D02*X105633Y-6500D01*
X107133D01*
X104133D02*X104883Y-7250D01*
X108934Y-3500D02*Y-8750D01*
X109684Y-9500D01*
X111186Y-5000D02*Y-5750D01*
Y-7250D02*Y-9500D01*
X113437Y-7250D02*Y-9500D01*
Y-7250D02*X114187Y-6500D01*
X114937D01*
X115687Y-7250D01*
Y-9500D01*
X112687Y-6500D02*X113437Y-7250D01*
X118239Y-9500D02*X120489D01*
X117489Y-8750D02*X118239Y-9500D01*
X117489Y-7250D02*Y-8750D01*
Y-7250D02*X118239Y-6500D01*
X119739D01*
X120489Y-7250D01*
X117489Y-8000D02*X120489D01*
Y-7250D02*Y-8000D01*
X124990Y-7250D02*Y-8750D01*
Y-7250D02*X125740Y-6500D01*
X127240D01*
X127990Y-7250D01*
Y-8750D01*
X127240Y-9500D02*X127990Y-8750D01*
X125740Y-9500D02*X127240D01*
X124990Y-8750D02*X125740Y-9500D01*
X130542Y-4250D02*Y-9500D01*
Y-4250D02*X131292Y-3500D01*
X132042D01*
X129792Y-6500D02*X131292D01*
X136993Y-3500D02*Y-8750D01*
X137743Y-9500D01*
X136243Y-5750D02*X137743D01*
X139245Y-3500D02*Y-9500D01*
Y-7250D02*X139995Y-6500D01*
X141495D01*
X142245Y-7250D01*
Y-9500D01*
X144046Y-5000D02*Y-5750D01*
Y-7250D02*Y-9500D01*
X146298D02*X148548D01*
X149298Y-8750D01*
X148548Y-8000D02*X149298Y-8750D01*
X146298Y-8000D02*X148548D01*
X145548Y-7250D02*X146298Y-8000D01*
X145548Y-7250D02*X146298Y-6500D01*
X148548D01*
X149298Y-7250D01*
X145548Y-8750D02*X146298Y-9500D01*
X154549D02*X156049D01*
X155299Y-3500D02*Y-9500D01*
X153799Y-5000D02*X155299Y-3500D01*
X157851Y-8750D02*X158601Y-9500D01*
X157851Y-4250D02*Y-8750D01*
Y-4250D02*X158601Y-3500D01*
X160101D01*
X160851Y-4250D01*
Y-8750D01*
X160101Y-9500D02*X160851Y-8750D01*
X158601Y-9500D02*X160101D01*
X157851Y-8000D02*X160851Y-5000D01*
X166102Y-7250D02*Y-9500D01*
Y-7250D02*X166852Y-6500D01*
X167602D01*
X168352Y-7250D01*
Y-9500D01*
Y-7250D02*X169102Y-6500D01*
X169852D01*
X170602Y-7250D01*
Y-9500D01*
X165352Y-6500D02*X166102Y-7250D01*
X172404Y-5000D02*Y-5750D01*
Y-7250D02*Y-9500D01*
X173905Y-3500D02*Y-8750D01*
X174655Y-9500D01*
X179607Y-7250D02*Y-9500D01*
Y-7250D02*X180357Y-6500D01*
X181857D01*
X178857D02*X179607Y-7250D01*
X184408Y-9500D02*X186658D01*
X183658Y-8750D02*X184408Y-9500D01*
X183658Y-7250D02*Y-8750D01*
Y-7250D02*X184408Y-6500D01*
X185908D01*
X186658Y-7250D01*
X183658Y-8000D02*X186658D01*
Y-7250D02*Y-8000D01*
X189210Y-6500D02*X191460D01*
X188460Y-7250D02*X189210Y-6500D01*
X188460Y-7250D02*Y-8750D01*
X189210Y-9500D01*
X191460D01*
X194011Y-3500D02*Y-8750D01*
X194761Y-9500D01*
X193261Y-5750D02*X194761D01*
X198513Y-6500D02*X199263Y-7250D01*
X197013Y-6500D02*X198513D01*
X196263Y-7250D02*X197013Y-6500D01*
X196263Y-7250D02*Y-8750D01*
X197013Y-9500D01*
X199263Y-6500D02*Y-8750D01*
X200013Y-9500D01*
X197013D02*X198513D01*
X199263Y-8750D01*
X202564Y-7250D02*Y-9500D01*
Y-7250D02*X203314Y-6500D01*
X204064D01*
X204814Y-7250D01*
Y-9500D01*
X201814Y-6500D02*X202564Y-7250D01*
X208866Y-6500D02*X209616Y-7250D01*
X207366Y-6500D02*X208866D01*
X206616Y-7250D02*X207366Y-6500D01*
X206616Y-7250D02*Y-8750D01*
X207366Y-9500D01*
X208866D01*
X209616Y-8750D01*
X206616Y-11000D02*X207366Y-11750D01*
X208866D01*
X209616Y-11000D01*
Y-6500D02*Y-11000D01*
X211417Y-3500D02*Y-8750D01*
X212167Y-9500D01*
X214419D02*X216669D01*
X213669Y-8750D02*X214419Y-9500D01*
X213669Y-7250D02*Y-8750D01*
Y-7250D02*X214419Y-6500D01*
X215919D01*
X216669Y-7250D01*
X213669Y-8000D02*X216669D01*
Y-7250D02*Y-8000D01*
X221170Y-6500D02*X224170D01*
X228672Y-8750D02*X229422Y-9500D01*
X228672Y-4250D02*Y-8750D01*
Y-4250D02*X229422Y-3500D01*
X230922D01*
X231672Y-4250D01*
Y-8750D01*
X230922Y-9500D02*X231672Y-8750D01*
X229422Y-9500D02*X230922D01*
X228672Y-8000D02*X231672Y-5000D01*
X233473Y-11000D02*X234973Y-9500D01*
X236775Y-8750D02*X237525Y-9500D01*
X236775Y-4250D02*Y-8750D01*
Y-4250D02*X237525Y-3500D01*
X239025D01*
X239775Y-4250D01*
Y-8750D01*
X239025Y-9500D02*X239775Y-8750D01*
X237525Y-9500D02*X239025D01*
X236775Y-8000D02*X239775Y-5000D01*
X245026Y-3500D02*Y-8750D01*
X245776Y-9500D01*
X244276Y-5750D02*X245776D01*
X247278Y-7250D02*Y-8750D01*
Y-7250D02*X248028Y-6500D01*
X249528D01*
X250278Y-7250D01*
Y-8750D01*
X249528Y-9500D02*X250278Y-8750D01*
X248028Y-9500D02*X249528D01*
X247278Y-8750D02*X248028Y-9500D01*
X255529D02*X257029D01*
X256279Y-3500D02*Y-9500D01*
X254779Y-5000D02*X256279Y-3500D01*
X261081D02*X261831Y-4250D01*
X259581Y-3500D02*X261081D01*
X258831Y-4250D02*X259581Y-3500D01*
X258831Y-4250D02*Y-8750D01*
X259581Y-9500D01*
X261081Y-6500D02*X261831Y-7250D01*
X258831Y-6500D02*X261081D01*
X259581Y-9500D02*X261081D01*
X261831Y-8750D01*
Y-7250D02*Y-8750D01*
X263632Y-3500D02*X266632D01*
X263632D02*Y-6500D01*
X264382Y-5750D01*
X265882D01*
X266632Y-6500D01*
Y-8750D01*
X265882Y-9500D02*X266632Y-8750D01*
X264382Y-9500D02*X265882D01*
X263632Y-8750D02*X264382Y-9500D01*
X268434Y-4250D02*X269184Y-3500D01*
X270684D01*
X271434Y-4250D01*
Y-8750D01*
X270684Y-9500D02*X271434Y-8750D01*
X269184Y-9500D02*X270684D01*
X268434Y-8750D02*X269184Y-9500D01*
Y-6500D02*X271434D01*
X273235Y-11000D02*X274735Y-9500D01*
X276537Y-4250D02*X277287Y-3500D01*
X279537D01*
X280287Y-4250D01*
Y-5750D01*
X276537Y-9500D02*X280287Y-5750D01*
X276537Y-9500D02*X280287D01*
X282088Y-4250D02*X282838Y-3500D01*
X284338D01*
X285088Y-4250D01*
Y-8750D01*
X284338Y-9500D02*X285088Y-8750D01*
X282838Y-9500D02*X284338D01*
X282088Y-8750D02*X282838Y-9500D01*
Y-6500D02*X285088D01*
X289140Y-3500D02*X289890Y-4250D01*
X287640Y-3500D02*X289140D01*
X286890Y-4250D02*X287640Y-3500D01*
X286890Y-4250D02*Y-8750D01*
X287640Y-9500D01*
X289140Y-6500D02*X289890Y-7250D01*
X286890Y-6500D02*X289140D01*
X287640Y-9500D02*X289140D01*
X289890Y-8750D01*
Y-7250D02*Y-8750D01*
X291691Y-4250D02*X292441Y-3500D01*
X294691D01*
X295441Y-4250D01*
Y-5750D01*
X291691Y-9500D02*X295441Y-5750D01*
X291691Y-9500D02*X295441D01*
X300693Y-7250D02*Y-9500D01*
Y-7250D02*X301443Y-6500D01*
X302193D01*
X302943Y-7250D01*
Y-9500D01*
Y-7250D02*X303693Y-6500D01*
X304443D01*
X305193Y-7250D01*
Y-9500D01*
X299943Y-6500D02*X300693Y-7250D01*
X306994Y-5000D02*Y-5750D01*
Y-7250D02*Y-9500D01*
X308496Y-3500D02*Y-8750D01*
X309246Y-9500D01*
X311497D02*X313747D01*
X314497Y-8750D01*
X313747Y-8000D02*X314497Y-8750D01*
X311497Y-8000D02*X313747D01*
X310747Y-7250D02*X311497Y-8000D01*
X310747Y-7250D02*X311497Y-6500D01*
X313747D01*
X314497Y-7250D01*
X310747Y-8750D02*X311497Y-9500D01*
X200750Y264720D02*Y258720D01*
X203000Y264720D02*X203750Y263970D01*
Y259470D01*
X203000Y258720D02*X203750Y259470D01*
X200000Y258720D02*X203000D01*
X200000Y264720D02*X203000D01*
X207801Y261720D02*X208551Y260970D01*
X206301Y261720D02*X207801D01*
X205551Y260970D02*X206301Y261720D01*
X205551Y260970D02*Y259470D01*
X206301Y258720D01*
X208551Y261720D02*Y259470D01*
X209301Y258720D01*
X206301D02*X207801D01*
X208551Y259470D01*
X211853Y264720D02*Y259470D01*
X212603Y258720D01*
X211103Y262470D02*X212603D01*
X214854Y258720D02*X217104D01*
X214104Y259470D02*X214854Y258720D01*
X214104Y260970D02*Y259470D01*
Y260970D02*X214854Y261720D01*
X216354D01*
X217104Y260970D01*
X214104Y260220D02*X217104D01*
Y260970D02*Y260220D01*
X218906Y262470D02*X219656D01*
X218906Y260970D02*X219656D01*
X224157Y264720D02*Y258720D01*
X226407Y260970D01*
X228657Y258720D01*
Y264720D02*Y258720D01*
X231209D02*X233459D01*
X230459Y259470D02*X231209Y258720D01*
X230459Y260970D02*Y259470D01*
Y260970D02*X231209Y261720D01*
X232709D01*
X233459Y260970D01*
X230459Y260220D02*X233459D01*
Y260970D02*Y260220D01*
X238260Y264720D02*Y258720D01*
X237510D02*X238260Y259470D01*
X236010Y258720D02*X237510D01*
X235260Y259470D02*X236010Y258720D01*
X235260Y260970D02*Y259470D01*
Y260970D02*X236010Y261720D01*
X237510D01*
X238260Y260970D01*
X242762Y259470D02*X243512Y258720D01*
X242762Y263970D02*Y259470D01*
Y263970D02*X243512Y264720D01*
X245012D01*
X245762Y263970D01*
Y259470D01*
X245012Y258720D02*X245762Y259470D01*
X243512Y258720D02*X245012D01*
X242762Y260220D02*X245762Y263220D01*
X247563Y258720D02*X250563Y261720D01*
Y263970D02*Y261720D01*
X249813Y264720D02*X250563Y263970D01*
X248313Y264720D02*X249813D01*
X247563Y263970D02*X248313Y264720D01*
X247563Y263970D02*Y262470D01*
X248313Y261720D01*
X250563D01*
X255065Y264720D02*Y258720D01*
Y264720D02*X257315Y262470D01*
X259565Y264720D01*
Y258720D01*
X263616Y261720D02*X264366Y260970D01*
X262116Y261720D02*X263616D01*
X261366Y260970D02*X262116Y261720D01*
X261366Y260970D02*Y259470D01*
X262116Y258720D01*
X264366Y261720D02*Y259470D01*
X265116Y258720D01*
X262116D02*X263616D01*
X264366Y259470D01*
X267668Y260970D02*Y258720D01*
Y260970D02*X268418Y261720D01*
X269918D01*
X266918D02*X267668Y260970D01*
X274419Y263970D02*X275169Y264720D01*
X277419D01*
X278169Y263970D01*
Y262470D01*
X274419Y258720D02*X278169Y262470D01*
X274419Y258720D02*X278169D01*
X279971Y259470D02*X280721Y258720D01*
X279971Y263970D02*Y259470D01*
Y263970D02*X280721Y264720D01*
X282221D01*
X282971Y263970D01*
Y259470D01*
X282221Y258720D02*X282971Y259470D01*
X280721Y258720D02*X282221D01*
X279971Y260220D02*X282971Y263220D01*
X285522Y258720D02*X287022D01*
X286272Y264720D02*Y258720D01*
X284772Y263220D02*X286272Y264720D01*
X289574Y258720D02*X291074D01*
X290324Y264720D02*Y258720D01*
X288824Y263220D02*X290324Y264720D01*
X296325Y258720D02*X297825D01*
X297075Y264720D02*Y258720D01*
X295575Y263220D02*X297075Y264720D01*
X301877D02*X302627Y263970D01*
X300377Y264720D02*X301877D01*
X299627Y263970D02*X300377Y264720D01*
X299627Y263970D02*Y259470D01*
X300377Y258720D01*
X301877Y261720D02*X302627Y260970D01*
X299627Y261720D02*X301877D01*
X300377Y258720D02*X301877D01*
X302627Y259470D01*
Y260970D02*Y259470D01*
X304428Y262470D02*X305178D01*
X304428Y260970D02*X305178D01*
X306980Y261720D02*X309980Y264720D01*
X306980Y261720D02*X310730D01*
X309980Y264720D02*Y258720D01*
X312531Y263970D02*X313281Y264720D01*
X314781D01*
X315531Y263970D01*
Y259470D01*
X314781Y258720D02*X315531Y259470D01*
X313281Y258720D02*X314781D01*
X312531Y259470D02*X313281Y258720D01*
Y261720D02*X315531D01*
X317333Y262470D02*X318083D01*
X317333Y260970D02*X318083D01*
X319884Y263970D02*X320634Y264720D01*
X322134D01*
X322884Y263970D01*
Y259470D01*
X322134Y258720D02*X322884Y259470D01*
X320634Y258720D02*X322134D01*
X319884Y259470D02*X320634Y258720D01*
Y261720D02*X322884D01*
X324686Y259470D02*X325436Y258720D01*
X324686Y263970D02*Y259470D01*
Y263970D02*X325436Y264720D01*
X326936D01*
X327686Y263970D01*
Y259470D01*
X326936Y258720D02*X327686Y259470D01*
X325436Y258720D02*X326936D01*
X324686Y260220D02*X327686Y263220D01*
X335187Y264720D02*X335937Y263970D01*
X332937Y264720D02*X335187D01*
X332187Y263970D02*X332937Y264720D01*
X332187Y263970D02*Y259470D01*
X332937Y258720D01*
X335187D01*
X335937Y259470D01*
Y260970D02*Y259470D01*
X335187Y261720D02*X335937Y260970D01*
X333687Y261720D02*X335187D01*
X337739Y264720D02*Y258720D01*
Y264720D02*X339989Y262470D01*
X342239Y264720D01*
Y258720D01*
X344040Y264720D02*X347040D01*
X345540D02*Y258720D01*
X351542Y264720D02*Y259470D01*
X352292Y258720D01*
X353792D01*
X354542Y259470D01*
Y264720D02*Y259470D01*
X356343Y264720D02*X359343D01*
X357843D02*Y258720D01*
X361895D02*X364145D01*
X361145Y259470D02*X361895Y258720D01*
X361145Y263970D02*Y259470D01*
Y263970D02*X361895Y264720D01*
X364145D01*
X200000Y278970D02*Y273720D01*
Y278970D02*X200750Y279720D01*
X203000D01*
X203750Y278970D01*
Y273720D01*
X200000Y276720D02*X203750D01*
X205551D02*Y274470D01*
X206301Y273720D01*
X207801D01*
X208551Y274470D01*
Y276720D02*Y274470D01*
X211103Y279720D02*Y274470D01*
X211853Y273720D01*
X210353Y277470D02*X211853D01*
X213354Y279720D02*Y273720D01*
Y275970D02*X214104Y276720D01*
X215604D01*
X216354Y275970D01*
Y273720D01*
X218156Y275970D02*Y274470D01*
Y275970D02*X218906Y276720D01*
X220406D01*
X221156Y275970D01*
Y274470D01*
X220406Y273720D02*X221156Y274470D01*
X218906Y273720D02*X220406D01*
X218156Y274470D02*X218906Y273720D01*
X223707Y275970D02*Y273720D01*
Y275970D02*X224457Y276720D01*
X225957D01*
X222957D02*X223707Y275970D01*
X227759Y277470D02*X228509D01*
X227759Y275970D02*X228509D01*
X233010Y279720D02*X236010D01*
X236760Y278970D01*
Y277470D01*
X236010Y276720D02*X236760Y277470D01*
X233760Y276720D02*X236010D01*
X233760Y279720D02*Y273720D01*
Y276720D02*X236760Y273720D01*
X238562Y278220D02*Y277470D01*
Y275970D02*Y273720D01*
X240813Y276720D02*X243063D01*
X240063Y275970D02*X240813Y276720D01*
X240063Y275970D02*Y274470D01*
X240813Y273720D01*
X243063D01*
X244865Y279720D02*Y273720D01*
Y275970D02*X245615Y276720D01*
X247115D01*
X247865Y275970D01*
Y273720D01*
X251916Y276720D02*X252666Y275970D01*
X250416Y276720D02*X251916D01*
X249666Y275970D02*X250416Y276720D01*
X249666Y275970D02*Y274470D01*
X250416Y273720D01*
X252666Y276720D02*Y274470D01*
X253416Y273720D01*
X250416D02*X251916D01*
X252666Y274470D01*
X255968Y275970D02*Y273720D01*
Y275970D02*X256718Y276720D01*
X258218D01*
X255218D02*X255968Y275970D01*
X263019Y279720D02*Y273720D01*
X262269D02*X263019Y274470D01*
X260769Y273720D02*X262269D01*
X260019Y274470D02*X260769Y273720D01*
X260019Y275970D02*Y274470D01*
Y275970D02*X260769Y276720D01*
X262269D01*
X263019Y275970D01*
X267521Y273720D02*X270521D01*
X271271Y274470D01*
Y275970D02*Y274470D01*
X270521Y276720D02*X271271Y275970D01*
X268271Y276720D02*X270521D01*
X268271Y279720D02*Y273720D01*
X267521Y279720D02*X270521D01*
X271271Y278970D01*
Y277470D01*
X270521Y276720D02*X271271Y277470D01*
X275322Y276720D02*X276072Y275970D01*
X273822Y276720D02*X275322D01*
X273072Y275970D02*X273822Y276720D01*
X273072Y275970D02*Y274470D01*
X273822Y273720D01*
X276072Y276720D02*Y274470D01*
X276822Y273720D01*
X273822D02*X275322D01*
X276072Y274470D01*
X279374Y275970D02*Y273720D01*
Y275970D02*X280124Y276720D01*
X281624D01*
X278624D02*X279374Y275970D01*
X283425Y279720D02*Y274470D01*
X284175Y273720D01*
X285677Y275970D02*Y274470D01*
Y275970D02*X286427Y276720D01*
X287927D01*
X288677Y275970D01*
Y274470D01*
X287927Y273720D02*X288677Y274470D01*
X286427Y273720D02*X287927D01*
X285677Y274470D02*X286427Y273720D01*
X290478Y276720D02*Y274470D01*
X291228Y273720D01*
X291978D01*
X292728Y274470D01*
Y276720D02*Y274470D01*
X293478Y273720D01*
X294228D01*
X294978Y274470D01*
Y276720D02*Y274470D01*
X200000Y294720D02*X203000D01*
X201500D02*Y288720D01*
X204801Y293220D02*Y292470D01*
Y290970D02*Y288720D01*
X207053Y294720D02*Y289470D01*
X207803Y288720D01*
X206303Y292470D02*X207803D01*
X209304Y294720D02*Y289470D01*
X210054Y288720D01*
X212306D02*X214556D01*
X211556Y289470D02*X212306Y288720D01*
X211556Y290970D02*Y289470D01*
Y290970D02*X212306Y291720D01*
X213806D01*
X214556Y290970D01*
X211556Y290220D02*X214556D01*
Y290970D02*Y290220D01*
X216357Y292470D02*X217107D01*
X216357Y290970D02*X217107D01*
X221609Y289470D02*X222359Y288720D01*
X221609Y293970D02*X222359Y294720D01*
X221609Y293970D02*Y289470D01*
X224160Y291720D02*Y289470D01*
X224910Y288720D01*
X226410D01*
X227160Y289470D01*
Y291720D02*Y289470D01*
X229712Y290970D02*Y288720D01*
Y290970D02*X230462Y291720D01*
X231212D01*
X231962Y290970D01*
Y288720D01*
X228962Y291720D02*X229712Y290970D01*
X233763Y294720D02*Y288720D01*
Y290970D02*X236013Y288720D01*
X233763Y290970D02*X235263Y292470D01*
X238565Y290970D02*Y288720D01*
Y290970D02*X239315Y291720D01*
X240065D01*
X240815Y290970D01*
Y288720D01*
X237815Y291720D02*X238565Y290970D01*
X242616D02*Y289470D01*
Y290970D02*X243366Y291720D01*
X244866D01*
X245616Y290970D01*
Y289470D01*
X244866Y288720D02*X245616Y289470D01*
X243366Y288720D02*X244866D01*
X242616Y289470D02*X243366Y288720D01*
X247418Y291720D02*Y289470D01*
X248168Y288720D01*
X248918D01*
X249668Y289470D01*
Y291720D02*Y289470D01*
X250418Y288720D01*
X251168D01*
X251918Y289470D01*
Y291720D02*Y289470D01*
X254469Y290970D02*Y288720D01*
Y290970D02*X255219Y291720D01*
X255969D01*
X256719Y290970D01*
Y288720D01*
X253719Y291720D02*X254469Y290970D01*
X258521Y294720D02*X259271Y293970D01*
Y289470D01*
X258521Y288720D02*X259271Y289470D01*
X263772Y291720D02*X266772D01*
X271274Y294720D02*Y288720D01*
Y294720D02*X274274D01*
X271274Y291720D02*X273524D01*
X278325D02*X279075Y290970D01*
X276825Y291720D02*X278325D01*
X276075Y290970D02*X276825Y291720D01*
X276075Y290970D02*Y289470D01*
X276825Y288720D01*
X279075Y291720D02*Y289470D01*
X279825Y288720D01*
X276825D02*X278325D01*
X279075Y289470D01*
X281627Y294720D02*Y288720D01*
Y289470D02*X282377Y288720D01*
X283877D01*
X284627Y289470D01*
Y290970D02*Y289470D01*
X283877Y291720D02*X284627Y290970D01*
X282377Y291720D02*X283877D01*
X281627Y290970D02*X282377Y291720D01*
X287178Y290970D02*Y288720D01*
Y290970D02*X287928Y291720D01*
X289428D01*
X286428D02*X287178Y290970D01*
X291230Y293220D02*Y292470D01*
Y290970D02*Y288720D01*
X293481Y291720D02*X295731D01*
X292731Y290970D02*X293481Y291720D01*
X292731Y290970D02*Y289470D01*
X293481Y288720D01*
X295731D01*
X299783Y291720D02*X300533Y290970D01*
X298283Y291720D02*X299783D01*
X297533Y290970D02*X298283Y291720D01*
X297533Y290970D02*Y289470D01*
X298283Y288720D01*
X300533Y291720D02*Y289470D01*
X301283Y288720D01*
X298283D02*X299783D01*
X300533Y289470D01*
X303834Y294720D02*Y289470D01*
X304584Y288720D01*
X303084Y292470D02*X304584D01*
X306086Y293220D02*Y292470D01*
Y290970D02*Y288720D01*
X307587Y290970D02*Y289470D01*
Y290970D02*X308337Y291720D01*
X309837D01*
X310587Y290970D01*
Y289470D01*
X309837Y288720D02*X310587Y289470D01*
X308337Y288720D02*X309837D01*
X307587Y289470D02*X308337Y288720D01*
X313139Y290970D02*Y288720D01*
Y290970D02*X313889Y291720D01*
X314639D01*
X315389Y290970D01*
Y288720D01*
X312389Y291720D02*X313139Y290970D01*
X320640Y294720D02*Y288720D01*
X322890Y294720D02*X323640Y293970D01*
Y289470D01*
X322890Y288720D02*X323640Y289470D01*
X319890Y288720D02*X322890D01*
X319890Y294720D02*X322890D01*
X326192Y290970D02*Y288720D01*
Y290970D02*X326942Y291720D01*
X328442D01*
X325442D02*X326192Y290970D01*
X332493Y291720D02*X333243Y290970D01*
X330993Y291720D02*X332493D01*
X330243Y290970D02*X330993Y291720D01*
X330243Y290970D02*Y289470D01*
X330993Y288720D01*
X333243Y291720D02*Y289470D01*
X333993Y288720D01*
X330993D02*X332493D01*
X333243Y289470D01*
X335795Y291720D02*Y289470D01*
X336545Y288720D01*
X337295D01*
X338045Y289470D01*
Y291720D02*Y289470D01*
X338795Y288720D01*
X339545D01*
X340295Y289470D01*
Y291720D02*Y289470D01*
X342096Y293220D02*Y292470D01*
Y290970D02*Y288720D01*
X344348Y290970D02*Y288720D01*
Y290970D02*X345098Y291720D01*
X345848D01*
X346598Y290970D01*
Y288720D01*
X343598Y291720D02*X344348Y290970D01*
X350649Y291720D02*X351399Y290970D01*
X349149Y291720D02*X350649D01*
X348399Y290970D02*X349149Y291720D01*
X348399Y290970D02*Y289470D01*
X349149Y288720D01*
X350649D01*
X351399Y289470D01*
X348399Y287220D02*X349149Y286470D01*
X350649D01*
X351399Y287220D01*
Y291720D02*Y287220D01*
M02*
