G04 start of page 2 for group 0 idx 0 *
G04 Title: (unknown), component *
G04 Creator: pcb 1.99z *
G04 CreationDate: Wed 09 Mar 2011 16:43:30 GMT UTC *
G04 For: richard *
G04 Format: Gerber/RS-274X *
G04 PCB-Dimensions: 165354 236220 *
G04 PCB-Coordinate-Origin: lower left *
%MOIN*%
%FSLAX25Y25*%
%LNFRONT*%
%ADD11C,0.0200*%
%ADD12C,0.0250*%
%ADD13C,0.0100*%
%ADD14C,0.0216*%
%ADD15C,0.0079*%
%ADD16C,0.0098*%
%ADD17C,0.0150*%
%ADD18C,0.0400*%
%ADD19C,0.0834*%
%ADD20C,0.0984*%
%ADD21C,0.0500*%
%ADD22C,0.0600*%
%ADD23C,0.1260*%
%ADD24C,0.0354*%
%ADD25C,0.0360*%
%ADD26C,0.0360*%
%ADD27R,0.0118X0.0118*%
%ADD28R,0.0283X0.0283*%
%ADD29R,0.0340X0.0340*%
%ADD30R,0.0200X0.0200*%
%ADD31R,0.0510X0.0510*%
%ADD32C,0.0350*%
%ADD33C,0.1280*%
%ADD34C,0.0380*%
%ADD35C,0.0197*%
%ADD36C,0.0300*%
G54D11*G36*
X37516Y122568D02*X37522Y122561D01*
X37701Y122408D01*
X37902Y122285D01*
X38119Y122195D01*
X38348Y122140D01*
X38583Y122122D01*
X38699D01*
X38397Y121937D01*
X37920Y121529D01*
X37512Y121052D01*
X37184Y120517D01*
X36944Y119937D01*
X36797Y119327D01*
X36748Y118701D01*
X36797Y118075D01*
X36944Y117465D01*
X37184Y116885D01*
X37512Y116350D01*
X37920Y115873D01*
X38066Y115748D01*
X36342D01*
X36323Y115826D01*
X36155Y116232D01*
X35925Y116606D01*
X35640Y116940D01*
X35306Y117225D01*
X35153Y117319D01*
Y119390D01*
X35161Y119489D01*
X35142Y119723D01*
X35087Y119952D01*
X34997Y120170D01*
X34874Y120370D01*
X34721Y120549D01*
X27635Y127636D01*
X27457Y127788D01*
X27257Y127911D01*
X27177Y127944D01*
X26788Y128333D01*
Y132480D01*
X26771Y132698D01*
X26769Y132706D01*
X26764Y132818D01*
X26695Y133347D01*
X26579Y133868D01*
X26419Y134377D01*
X26214Y134870D01*
X25968Y135343D01*
X25681Y135794D01*
X25356Y136217D01*
X24996Y136611D01*
X24602Y136971D01*
X24179Y137296D01*
X23729Y137583D01*
X23255Y137829D01*
X22762Y138034D01*
X22253Y138194D01*
X21732Y138310D01*
X21203Y138379D01*
X20893Y138392D01*
X20981Y138468D01*
X21735Y139351D01*
X22341Y140341D01*
X22786Y141414D01*
X23057Y142543D01*
X23148Y143701D01*
X23057Y144859D01*
X22786Y145988D01*
X22341Y147061D01*
X21735Y148051D01*
X20981Y148934D01*
X20098Y149688D01*
X19432Y150095D01*
X19756Y150294D01*
X20090Y150579D01*
X20375Y150913D01*
X20605Y151288D01*
X20773Y151694D01*
X20876Y152121D01*
X20910Y152559D01*
X20876Y152997D01*
X20773Y153424D01*
X20605Y153830D01*
X20375Y154205D01*
X20090Y154539D01*
X19756Y154824D01*
X19602Y154918D01*
Y156862D01*
X24677Y161937D01*
X24830Y162114D01*
X24953Y162314D01*
X25042Y162531D01*
X25097Y162758D01*
X25115Y162992D01*
X25114Y163005D01*
Y167219D01*
X25122Y167323D01*
X25084Y168175D01*
X24973Y169020D01*
X24789Y169852D01*
X24532Y170664D01*
X24206Y171452D01*
X23813Y172207D01*
X23414Y172834D01*
X33765D01*
X30050Y169180D01*
X30046Y169175D01*
X30041Y169171D01*
X29888Y168992D01*
X29765Y168791D01*
X29675Y168574D01*
X29620Y168345D01*
X29602Y168110D01*
X29603Y131102D01*
X29622Y130866D01*
X29643Y130779D01*
X29676Y130639D01*
X29766Y130422D01*
X29767Y130421D01*
Y130420D01*
X29842Y130298D01*
X29889Y130221D01*
X30042Y130042D01*
X37516Y122568D01*
G37*
G36*
X0Y172047D02*X1255D01*
Y150197D01*
X1274Y149962D01*
X1329Y149733D01*
X1419Y149516D01*
X1542Y149315D01*
X1695Y149136D01*
X1874Y148983D01*
X2075Y148860D01*
X2155Y148827D01*
X4315Y146667D01*
Y143700D01*
X4358Y142704D01*
X4488Y141715D01*
X4704Y140741D01*
X5004Y139790D01*
X5386Y138869D01*
X5846Y137984D01*
X6382Y137143D01*
X6989Y136352D01*
X7663Y135616D01*
X8399Y134942D01*
X9190Y134335D01*
X10031Y133799D01*
X10916Y133339D01*
X11837Y132957D01*
X12788Y132657D01*
X13762Y132441D01*
X13996Y132410D01*
X13899Y132387D01*
X13493Y132219D01*
X13118Y131989D01*
X12784Y131704D01*
X12499Y131370D01*
X12269Y130995D01*
X12101Y130589D01*
X11998Y130162D01*
X11964Y129724D01*
X11998Y129286D01*
X12101Y128859D01*
X12269Y128453D01*
X12499Y128078D01*
X12784Y127744D01*
X13118Y127459D01*
X13276Y127362D01*
X13118Y127265D01*
X12784Y126980D01*
X12499Y126646D01*
X12269Y126271D01*
X12101Y125865D01*
X11998Y125438D01*
X11964Y125000D01*
X11998Y124562D01*
X12101Y124135D01*
X12269Y123729D01*
X12499Y123354D01*
X12784Y123020D01*
X13118Y122735D01*
X13263Y122646D01*
Y110660D01*
X6721Y104119D01*
X6737Y104331D01*
X6703Y104769D01*
X6600Y105196D01*
X6432Y105602D01*
X6202Y105977D01*
X5917Y106311D01*
X5583Y106596D01*
X5208Y106826D01*
X4802Y106994D01*
X4375Y107097D01*
X3937Y107131D01*
X3499Y107097D01*
X3072Y106994D01*
X2666Y106826D01*
X2291Y106596D01*
X1957Y106311D01*
X1672Y105977D01*
X1442Y105602D01*
X1274Y105196D01*
X1171Y104769D01*
X1137Y104331D01*
X1171Y103893D01*
X1274Y103466D01*
X1442Y103060D01*
X1672Y102685D01*
X1957Y102351D01*
X2291Y102066D01*
X2437Y101976D01*
Y87236D01*
X1695Y86494D01*
X1542Y86315D01*
X1419Y86114D01*
X1328Y85897D01*
X1273Y85668D01*
X1255Y85433D01*
Y76772D01*
X1274Y76537D01*
X1312Y76377D01*
X0D01*
Y172047D01*
G37*
G36*
X46766Y103937D02*X20977D01*
X20098Y104688D01*
X19108Y105294D01*
X18035Y105739D01*
X16906Y106010D01*
X15748Y106101D01*
X14590Y106010D01*
X13461Y105739D01*
X12598Y105381D01*
Y105753D01*
X15811Y108966D01*
X15825Y108978D01*
X15978Y109157D01*
X16101Y109358D01*
X16191Y109575D01*
X16246Y109804D01*
X16264Y110039D01*
Y122645D01*
X16410Y122735D01*
X16744Y123020D01*
X17029Y123354D01*
X17259Y123729D01*
X17427Y124135D01*
X17431Y124150D01*
X17443Y124136D01*
X17450Y124130D01*
X22122Y119458D01*
Y116528D01*
X21976Y116438D01*
X21642Y116153D01*
X21357Y115819D01*
X21127Y115444D01*
X20959Y115038D01*
X20856Y114611D01*
X20822Y114173D01*
X20856Y113735D01*
X20959Y113308D01*
X21127Y112902D01*
X21357Y112527D01*
X21642Y112193D01*
X21976Y111908D01*
X22351Y111678D01*
X22757Y111510D01*
X23184Y111407D01*
X23622Y111373D01*
X24060Y111407D01*
X24487Y111510D01*
X24893Y111678D01*
X25268Y111908D01*
X25602Y112193D01*
X25887Y112527D01*
X26058Y112806D01*
Y112038D01*
X24226Y110206D01*
X24060Y110246D01*
X23622Y110280D01*
X23184Y110246D01*
X22757Y110143D01*
X22351Y109975D01*
X21976Y109745D01*
X21642Y109460D01*
X21357Y109126D01*
X21127Y108751D01*
X20959Y108345D01*
X20856Y107918D01*
X20822Y107480D01*
X20856Y107042D01*
X20959Y106615D01*
X21127Y106209D01*
X21357Y105834D01*
X21642Y105500D01*
X21976Y105215D01*
X22351Y104985D01*
X22757Y104817D01*
X23184Y104714D01*
X23622Y104680D01*
X24060Y104714D01*
X24487Y104817D01*
X24893Y104985D01*
X25268Y105215D01*
X25602Y105500D01*
X25887Y105834D01*
X26117Y106209D01*
X26285Y106615D01*
X26388Y107042D01*
X26422Y107480D01*
X26388Y107918D01*
X26348Y108086D01*
X28223Y109961D01*
Y109843D01*
X28242Y109608D01*
X28297Y109379D01*
X28387Y109162D01*
X28510Y108961D01*
X28663Y108782D01*
X28739Y108717D01*
X30440Y107016D01*
X30619Y106863D01*
X30819Y106741D01*
X31035Y106651D01*
X31263Y106597D01*
X31497Y106578D01*
X31509Y106579D01*
X34055D01*
X34288Y106597D01*
X34516Y106652D01*
X34732Y106742D01*
X34932Y106864D01*
X35110Y107016D01*
X36751Y108657D01*
X36797Y108075D01*
X36944Y107465D01*
X37184Y106885D01*
X37512Y106350D01*
X37920Y105873D01*
X38397Y105465D01*
X38932Y105137D01*
X39512Y104897D01*
X40122Y104750D01*
X40748Y104701D01*
X41374Y104750D01*
X41984Y104897D01*
X42564Y105137D01*
X43099Y105465D01*
X43576Y105873D01*
X43984Y106350D01*
X44312Y106885D01*
X44508Y107358D01*
X49157D01*
X48932Y107265D01*
X48397Y106937D01*
X47920Y106529D01*
X47512Y106052D01*
X47184Y105517D01*
X46944Y104937D01*
X46797Y104327D01*
X46766Y103937D01*
G37*
G36*
X165354Y0D02*X159283D01*
Y16560D01*
X159327Y16568D01*
X159438Y16605D01*
X159543Y16660D01*
X159638Y16730D01*
X159720Y16814D01*
X159788Y16910D01*
X159841Y17015D01*
X159983Y17422D01*
X160086Y17842D01*
X160148Y18269D01*
X160169Y18700D01*
X160148Y19132D01*
X160086Y19559D01*
X159983Y19979D01*
X159841Y20386D01*
X159787Y20491D01*
X159719Y20587D01*
X159637Y20671D01*
X159542Y20741D01*
X159438Y20795D01*
X159326Y20832D01*
X159283Y20839D01*
Y52978D01*
X159327Y52986D01*
X159438Y53023D01*
X159543Y53078D01*
X159638Y53148D01*
X159720Y53232D01*
X159788Y53328D01*
X159841Y53433D01*
X159983Y53840D01*
X160086Y54260D01*
X160148Y54687D01*
X160169Y55118D01*
X160148Y55550D01*
X160086Y55977D01*
X159983Y56397D01*
X159841Y56804D01*
X159787Y56909D01*
X159719Y57005D01*
X159637Y57089D01*
X159542Y57159D01*
X159438Y57213D01*
X159326Y57250D01*
X159283Y57257D01*
Y65373D01*
X159696Y65857D01*
X160120Y66549D01*
X160278Y66929D01*
X165354D01*
Y0D01*
G37*
G36*
X159283D02*X155668D01*
Y14200D01*
X155669D01*
X156100Y14221D01*
X156527Y14283D01*
X156947Y14386D01*
X157354Y14528D01*
X157459Y14582D01*
X157555Y14650D01*
X157639Y14732D01*
X157709Y14827D01*
X157763Y14931D01*
X157800Y15043D01*
X157820Y15159D01*
X157821Y15276D01*
X157803Y15393D01*
X157768Y15505D01*
X157715Y15610D01*
X157647Y15706D01*
X157565Y15790D01*
X157470Y15860D01*
X157366Y15914D01*
X157254Y15951D01*
X157138Y15971D01*
X157021Y15972D01*
X156904Y15954D01*
X156792Y15919D01*
X156521Y15824D01*
X156241Y15756D01*
X155956Y15714D01*
X155669Y15700D01*
X155668D01*
Y21700D01*
X155669D01*
X155956Y21687D01*
X156241Y21645D01*
X156521Y21577D01*
X156792Y21482D01*
X156904Y21446D01*
X157021Y21428D01*
X157139Y21429D01*
X157255Y21449D01*
X157366Y21486D01*
X157471Y21541D01*
X157566Y21611D01*
X157648Y21695D01*
X157716Y21791D01*
X157769Y21896D01*
X157804Y22008D01*
X157822Y22125D01*
X157821Y22243D01*
X157801Y22359D01*
X157764Y22470D01*
X157709Y22575D01*
X157639Y22670D01*
X157555Y22752D01*
X157459Y22820D01*
X157354Y22873D01*
X156947Y23015D01*
X156527Y23118D01*
X156100Y23180D01*
X155669Y23200D01*
X155668D01*
Y50618D01*
X155669D01*
X156100Y50639D01*
X156527Y50701D01*
X156947Y50804D01*
X157354Y50946D01*
X157459Y51000D01*
X157555Y51068D01*
X157639Y51150D01*
X157709Y51245D01*
X157763Y51349D01*
X157800Y51461D01*
X157820Y51577D01*
X157821Y51694D01*
X157803Y51811D01*
X157768Y51923D01*
X157715Y52028D01*
X157647Y52124D01*
X157565Y52208D01*
X157470Y52278D01*
X157366Y52332D01*
X157254Y52369D01*
X157138Y52389D01*
X157021Y52390D01*
X156904Y52372D01*
X156792Y52337D01*
X156521Y52242D01*
X156241Y52174D01*
X155956Y52132D01*
X155669Y52118D01*
X155668D01*
Y58118D01*
X155669D01*
X155956Y58105D01*
X156241Y58063D01*
X156521Y57995D01*
X156792Y57900D01*
X156904Y57864D01*
X157021Y57846D01*
X157139Y57847D01*
X157255Y57867D01*
X157366Y57904D01*
X157471Y57959D01*
X157566Y58029D01*
X157648Y58113D01*
X157716Y58209D01*
X157769Y58314D01*
X157804Y58426D01*
X157822Y58543D01*
X157821Y58661D01*
X157801Y58777D01*
X157764Y58888D01*
X157709Y58993D01*
X157639Y59088D01*
X157555Y59170D01*
X157459Y59238D01*
X157354Y59291D01*
X156947Y59433D01*
X156527Y59536D01*
X156100Y59598D01*
X155669Y59618D01*
X155668D01*
Y63737D01*
X156321Y63789D01*
X157110Y63978D01*
X157860Y64289D01*
X158552Y64713D01*
X159169Y65240D01*
X159283Y65373D01*
Y57257D01*
X159210Y57270D01*
X159093Y57271D01*
X158976Y57253D01*
X158864Y57218D01*
X158759Y57165D01*
X158663Y57097D01*
X158579Y57015D01*
X158509Y56920D01*
X158455Y56816D01*
X158418Y56704D01*
X158398Y56588D01*
X158397Y56471D01*
X158415Y56354D01*
X158450Y56242D01*
X158545Y55971D01*
X158613Y55691D01*
X158655Y55406D01*
X158669Y55118D01*
X158655Y54831D01*
X158613Y54546D01*
X158545Y54266D01*
X158450Y53995D01*
X158414Y53883D01*
X158396Y53766D01*
X158397Y53648D01*
X158417Y53532D01*
X158454Y53421D01*
X158509Y53316D01*
X158579Y53221D01*
X158663Y53139D01*
X158759Y53071D01*
X158864Y53018D01*
X158976Y52983D01*
X159093Y52965D01*
X159211Y52966D01*
X159283Y52978D01*
Y20839D01*
X159210Y20852D01*
X159093Y20853D01*
X158976Y20835D01*
X158864Y20800D01*
X158759Y20747D01*
X158663Y20679D01*
X158579Y20597D01*
X158509Y20502D01*
X158455Y20398D01*
X158418Y20286D01*
X158398Y20170D01*
X158397Y20053D01*
X158415Y19936D01*
X158450Y19824D01*
X158545Y19553D01*
X158613Y19273D01*
X158655Y18988D01*
X158669Y18700D01*
X158655Y18413D01*
X158613Y18128D01*
X158545Y17848D01*
X158450Y17577D01*
X158414Y17465D01*
X158396Y17348D01*
X158397Y17230D01*
X158417Y17114D01*
X158454Y17003D01*
X158509Y16898D01*
X158579Y16803D01*
X158663Y16721D01*
X158759Y16653D01*
X158864Y16600D01*
X158976Y16565D01*
X159093Y16547D01*
X159211Y16548D01*
X159283Y16560D01*
Y0D01*
G37*
G36*
X155668D02*X152055D01*
Y16561D01*
X152127Y16549D01*
X152244Y16548D01*
X152361Y16566D01*
X152473Y16601D01*
X152578Y16654D01*
X152674Y16722D01*
X152758Y16804D01*
X152828Y16899D01*
X152882Y17003D01*
X152919Y17115D01*
X152939Y17231D01*
X152940Y17348D01*
X152922Y17465D01*
X152887Y17577D01*
X152792Y17848D01*
X152724Y18128D01*
X152682Y18413D01*
X152669Y18700D01*
X152682Y18988D01*
X152724Y19273D01*
X152792Y19553D01*
X152887Y19824D01*
X152923Y19936D01*
X152941Y20053D01*
X152940Y20171D01*
X152920Y20287D01*
X152883Y20398D01*
X152828Y20503D01*
X152758Y20598D01*
X152674Y20680D01*
X152578Y20748D01*
X152473Y20801D01*
X152361Y20836D01*
X152244Y20854D01*
X152126Y20853D01*
X152055Y20841D01*
Y52979D01*
X152127Y52967D01*
X152244Y52966D01*
X152361Y52984D01*
X152473Y53019D01*
X152578Y53072D01*
X152674Y53140D01*
X152758Y53222D01*
X152828Y53317D01*
X152882Y53421D01*
X152919Y53533D01*
X152939Y53649D01*
X152940Y53766D01*
X152922Y53883D01*
X152887Y53995D01*
X152792Y54266D01*
X152724Y54546D01*
X152682Y54831D01*
X152669Y55118D01*
X152682Y55406D01*
X152724Y55691D01*
X152792Y55971D01*
X152887Y56242D01*
X152923Y56354D01*
X152941Y56471D01*
X152940Y56589D01*
X152920Y56705D01*
X152883Y56816D01*
X152828Y56921D01*
X152758Y57016D01*
X152674Y57098D01*
X152578Y57166D01*
X152473Y57219D01*
X152361Y57254D01*
X152244Y57272D01*
X152126Y57271D01*
X152055Y57259D01*
Y65069D01*
X152472Y64713D01*
X153164Y64289D01*
X153914Y63978D01*
X154703Y63789D01*
X155512Y63725D01*
X155668Y63737D01*
Y59618D01*
X155237Y59598D01*
X154810Y59536D01*
X154390Y59433D01*
X153983Y59291D01*
X153878Y59237D01*
X153782Y59169D01*
X153698Y59087D01*
X153628Y58992D01*
X153574Y58888D01*
X153537Y58776D01*
X153517Y58660D01*
X153516Y58543D01*
X153534Y58426D01*
X153569Y58314D01*
X153622Y58209D01*
X153690Y58113D01*
X153772Y58029D01*
X153867Y57959D01*
X153971Y57905D01*
X154083Y57868D01*
X154199Y57848D01*
X154316Y57847D01*
X154433Y57865D01*
X154545Y57900D01*
X154816Y57995D01*
X155096Y58063D01*
X155381Y58105D01*
X155668Y58118D01*
Y52118D01*
X155381Y52132D01*
X155096Y52174D01*
X154816Y52242D01*
X154545Y52337D01*
X154433Y52373D01*
X154316Y52391D01*
X154198Y52390D01*
X154082Y52370D01*
X153971Y52333D01*
X153866Y52278D01*
X153771Y52208D01*
X153689Y52124D01*
X153621Y52028D01*
X153568Y51923D01*
X153533Y51811D01*
X153515Y51694D01*
X153516Y51576D01*
X153536Y51460D01*
X153573Y51349D01*
X153628Y51244D01*
X153698Y51149D01*
X153782Y51067D01*
X153878Y50999D01*
X153983Y50946D01*
X154390Y50804D01*
X154810Y50701D01*
X155237Y50639D01*
X155668Y50618D01*
Y23200D01*
X155237Y23180D01*
X154810Y23118D01*
X154390Y23015D01*
X153983Y22873D01*
X153878Y22819D01*
X153782Y22751D01*
X153698Y22669D01*
X153628Y22574D01*
X153574Y22470D01*
X153537Y22358D01*
X153517Y22242D01*
X153516Y22125D01*
X153534Y22008D01*
X153569Y21896D01*
X153622Y21791D01*
X153690Y21695D01*
X153772Y21611D01*
X153867Y21541D01*
X153971Y21487D01*
X154083Y21450D01*
X154199Y21430D01*
X154316Y21429D01*
X154433Y21447D01*
X154545Y21482D01*
X154816Y21577D01*
X155096Y21645D01*
X155381Y21687D01*
X155668Y21700D01*
Y15700D01*
X155381Y15714D01*
X155096Y15756D01*
X154816Y15824D01*
X154545Y15919D01*
X154433Y15955D01*
X154316Y15973D01*
X154198Y15972D01*
X154082Y15952D01*
X153971Y15915D01*
X153866Y15860D01*
X153771Y15790D01*
X153689Y15706D01*
X153621Y15610D01*
X153568Y15505D01*
X153533Y15393D01*
X153515Y15276D01*
X153516Y15158D01*
X153536Y15042D01*
X153573Y14931D01*
X153628Y14826D01*
X153698Y14731D01*
X153782Y14649D01*
X153878Y14581D01*
X153983Y14528D01*
X154390Y14386D01*
X154810Y14283D01*
X155237Y14221D01*
X155668Y14200D01*
Y0D01*
G37*
G36*
X152055D02*X150000D01*
Y16729D01*
X150026Y16759D01*
X150087Y16860D01*
X150132Y16968D01*
X150160Y17083D01*
X150169Y17200D01*
Y20200D01*
X150160Y20317D01*
X150132Y20432D01*
X150087Y20540D01*
X150026Y20641D01*
X150000Y20671D01*
Y53147D01*
X150026Y53177D01*
X150087Y53278D01*
X150132Y53386D01*
X150160Y53501D01*
X150169Y53618D01*
Y56618D01*
X150160Y56735D01*
X150132Y56850D01*
X150087Y56958D01*
X150026Y57059D01*
X150000Y57089D01*
Y66929D01*
X150746D01*
X150904Y66549D01*
X151328Y65857D01*
X151855Y65240D01*
X152055Y65069D01*
Y57259D01*
X152010Y57251D01*
X151899Y57214D01*
X151794Y57159D01*
X151699Y57089D01*
X151617Y57005D01*
X151549Y56909D01*
X151496Y56804D01*
X151354Y56397D01*
X151251Y55977D01*
X151189Y55550D01*
X151169Y55118D01*
X151189Y54687D01*
X151251Y54260D01*
X151354Y53840D01*
X151496Y53433D01*
X151550Y53328D01*
X151618Y53232D01*
X151700Y53148D01*
X151795Y53078D01*
X151899Y53024D01*
X152011Y52987D01*
X152055Y52979D01*
Y20841D01*
X152010Y20833D01*
X151899Y20796D01*
X151794Y20741D01*
X151699Y20671D01*
X151617Y20587D01*
X151549Y20491D01*
X151496Y20386D01*
X151354Y19979D01*
X151251Y19559D01*
X151189Y19132D01*
X151169Y18700D01*
X151189Y18269D01*
X151251Y17842D01*
X151354Y17422D01*
X151496Y17015D01*
X151550Y16910D01*
X151618Y16814D01*
X151700Y16730D01*
X151795Y16660D01*
X151899Y16606D01*
X152011Y16569D01*
X152055Y16561D01*
Y0D01*
G37*
G36*
X24654Y72455D02*X24759Y72430D01*
X25164Y72399D01*
X24879Y71711D01*
X24662Y70808D01*
X24654Y70706D01*
Y72455D01*
G37*
G36*
X30721Y25107D02*X30791Y24816D01*
X30874Y24249D01*
X30905Y23676D01*
X30884Y23104D01*
X30811Y22535D01*
X30721Y22129D01*
Y25107D01*
G37*
G36*
X44882Y51935D02*Y46371D01*
X44723Y46468D01*
X44523Y46551D01*
X44312Y46602D01*
X44095Y46619D01*
X38366Y46602D01*
X38155Y46551D01*
X37955Y46468D01*
X37770Y46355D01*
X37604Y46214D01*
X37463Y46048D01*
X37350Y45863D01*
X37267Y45663D01*
X37216Y45452D01*
X37199Y45235D01*
X37216Y39506D01*
X37267Y39295D01*
X37350Y39095D01*
X37463Y38910D01*
X37604Y38744D01*
X37770Y38603D01*
X37955Y38490D01*
X38155Y38407D01*
X38247Y38385D01*
X38155Y38363D01*
X37955Y38280D01*
X37770Y38167D01*
X37604Y38026D01*
X37463Y37860D01*
X37350Y37675D01*
X37267Y37475D01*
X37216Y37264D01*
X37199Y37047D01*
X37216Y31318D01*
X37267Y31107D01*
X37350Y30907D01*
X37463Y30722D01*
X37604Y30556D01*
X37770Y30415D01*
X37955Y30302D01*
X38155Y30219D01*
X38339Y30175D01*
Y25590D01*
X38342Y25556D01*
X38376Y25121D01*
X38485Y24664D01*
X38665Y24229D01*
X38911Y23827D01*
X39217Y23469D01*
X41185Y21501D01*
X41544Y21194D01*
X41708Y21094D01*
X37542Y21089D01*
X37421Y21060D01*
X37307Y21013D01*
X37202Y20949D01*
X37108Y20868D01*
X37027Y20774D01*
X36963Y20669D01*
X36916Y20555D01*
X36887Y20434D01*
X36877Y20311D01*
X36887Y18188D01*
X36916Y18067D01*
X36963Y17953D01*
X37027Y17848D01*
X37108Y17754D01*
X37202Y17673D01*
X37307Y17609D01*
X37421Y17562D01*
X37542Y17533D01*
X37665Y17523D01*
X44882Y17531D01*
Y16098D01*
X37542Y16089D01*
X37421Y16060D01*
X37307Y16013D01*
X37202Y15949D01*
X37108Y15868D01*
X37027Y15774D01*
X36963Y15669D01*
X36916Y15555D01*
X36887Y15434D01*
X36877Y15311D01*
X36887Y13188D01*
X36916Y13067D01*
X36963Y12953D01*
X37027Y12848D01*
X37108Y12754D01*
X37202Y12673D01*
X37307Y12609D01*
X37421Y12562D01*
X37542Y12533D01*
X37665Y12523D01*
X44882Y12531D01*
Y11098D01*
X37542Y11089D01*
X37421Y11060D01*
X37307Y11013D01*
X37202Y10949D01*
X37108Y10868D01*
X37027Y10774D01*
X36963Y10669D01*
X36916Y10555D01*
X36887Y10434D01*
X36877Y10311D01*
X36887Y8188D01*
X36916Y8067D01*
X36963Y7953D01*
X37027Y7848D01*
X37108Y7754D01*
X37202Y7673D01*
X37307Y7609D01*
X37421Y7562D01*
X37542Y7533D01*
X37665Y7523D01*
X44882Y7531D01*
Y6098D01*
X37542Y6089D01*
X37421Y6060D01*
X37307Y6013D01*
X37202Y5949D01*
X37108Y5868D01*
X37027Y5774D01*
X36963Y5669D01*
X36916Y5555D01*
X36887Y5434D01*
X36877Y5311D01*
X36887Y3188D01*
X36916Y3067D01*
X36963Y2953D01*
X37027Y2848D01*
X37108Y2754D01*
X37202Y2673D01*
X37307Y2609D01*
X37421Y2562D01*
X37542Y2533D01*
X37665Y2523D01*
X44882Y2531D01*
Y0D01*
X30721D01*
Y19649D01*
X30877Y19885D01*
X31190Y20471D01*
X31450Y21082D01*
X31652Y21715D01*
X31796Y22363D01*
X31881Y23022D01*
X31905Y23685D01*
X31869Y24348D01*
X31773Y25005D01*
X31618Y25651D01*
X31404Y26280D01*
X31134Y26887D01*
X30811Y27467D01*
X30721Y27599D01*
Y41294D01*
X30874Y41141D01*
X30895Y40869D01*
X31005Y40411D01*
X31185Y39976D01*
X31431Y39575D01*
X31737Y39217D01*
X32095Y38911D01*
X32496Y38665D01*
X32931Y38485D01*
X33389Y38375D01*
X33858Y38338D01*
X34327Y38375D01*
X34785Y38485D01*
X35220Y38665D01*
X35621Y38911D01*
X35979Y39217D01*
X36285Y39575D01*
X36531Y39976D01*
X36711Y40411D01*
X36821Y40869D01*
X36858Y41338D01*
X36821Y41807D01*
X36711Y42265D01*
X36531Y42700D01*
X36285Y43101D01*
X35979Y43459D01*
X35621Y43765D01*
X35220Y44011D01*
X34785Y44191D01*
X34327Y44301D01*
X34055Y44322D01*
X30721Y47656D01*
Y49199D01*
X31110Y49835D01*
X31549Y50893D01*
X31809Y51978D01*
X34699Y54868D01*
X35304Y55574D01*
X35789Y56366D01*
X36145Y57225D01*
X36272Y57751D01*
X36380Y57574D01*
X36542Y57384D01*
X36732Y57222D01*
X36944Y57092D01*
X37150Y57007D01*
X36944Y56922D01*
X36732Y56792D01*
X36542Y56630D01*
X36380Y56440D01*
X36250Y56228D01*
X36155Y55998D01*
X36097Y55755D01*
X36077Y55507D01*
X36097Y53259D01*
X36155Y53016D01*
X36250Y52786D01*
X36380Y52574D01*
X36542Y52384D01*
X36732Y52222D01*
X36944Y52092D01*
X37174Y51997D01*
X37417Y51939D01*
X37665Y51919D01*
X44882Y51935D01*
G37*
G36*
X30721Y47656D02*X30055Y48322D01*
X30512Y48858D01*
X30721Y49199D01*
Y47656D01*
G37*
G36*
Y0D02*X24654D01*
Y16323D01*
X24669Y16322D01*
X25332Y16358D01*
X25989Y16454D01*
X26635Y16609D01*
X27264Y16823D01*
X27871Y17093D01*
X28451Y17416D01*
X28999Y17791D01*
X29058Y17844D01*
X29108Y17905D01*
X29147Y17972D01*
X29176Y18045D01*
X29193Y18122D01*
X29198Y18200D01*
X29190Y18278D01*
X29170Y18354D01*
X29139Y18426D01*
X29097Y18492D01*
X29045Y18551D01*
X28984Y18601D01*
X28917Y18640D01*
X28844Y18669D01*
X28767Y18686D01*
X28689Y18691D01*
X28611Y18683D01*
X28535Y18663D01*
X28463Y18632D01*
X28397Y18590D01*
X27924Y18266D01*
X27424Y17987D01*
X26900Y17754D01*
X26357Y17570D01*
X25800Y17436D01*
X25233Y17353D01*
X24660Y17322D01*
X24654D01*
Y29917D01*
X25123Y29900D01*
X25692Y29827D01*
X26251Y29703D01*
X26797Y29528D01*
X27325Y29304D01*
X27830Y29034D01*
X28309Y28718D01*
X28375Y28678D01*
X28447Y28648D01*
X28523Y28630D01*
X28602Y28623D01*
X28680Y28629D01*
X28756Y28648D01*
X28828Y28678D01*
X28895Y28719D01*
X28955Y28769D01*
X29006Y28829D01*
X29047Y28896D01*
X29077Y28968D01*
X29095Y29044D01*
X29102Y29123D01*
X29096Y29201D01*
X29077Y29277D01*
X29047Y29349D01*
X29006Y29416D01*
X28956Y29476D01*
X28896Y29527D01*
X28342Y29893D01*
X27756Y30206D01*
X27145Y30466D01*
X26512Y30668D01*
X25864Y30812D01*
X25205Y30897D01*
X24654Y30917D01*
Y45853D01*
X25748Y45939D01*
X26013Y46002D01*
X30721Y41294D01*
Y27599D01*
X30436Y28015D01*
X30383Y28074D01*
X30322Y28124D01*
X30255Y28163D01*
X30182Y28192D01*
X30105Y28209D01*
X30027Y28214D01*
X29949Y28206D01*
X29873Y28186D01*
X29801Y28155D01*
X29735Y28113D01*
X29676Y28061D01*
X29626Y28000D01*
X29587Y27933D01*
X29558Y27860D01*
X29541Y27783D01*
X29536Y27705D01*
X29544Y27627D01*
X29564Y27551D01*
X29595Y27479D01*
X29637Y27413D01*
X29961Y26940D01*
X30240Y26440D01*
X30473Y25916D01*
X30657Y25373D01*
X30721Y25107D01*
Y22129D01*
X30687Y21976D01*
X30512Y21430D01*
X30288Y20902D01*
X30018Y20397D01*
X29702Y19918D01*
X29662Y19852D01*
X29632Y19780D01*
X29614Y19704D01*
X29607Y19625D01*
X29613Y19547D01*
X29632Y19471D01*
X29662Y19399D01*
X29703Y19332D01*
X29753Y19272D01*
X29813Y19221D01*
X29880Y19180D01*
X29952Y19150D01*
X30028Y19132D01*
X30107Y19125D01*
X30185Y19131D01*
X30261Y19150D01*
X30333Y19180D01*
X30400Y19221D01*
X30460Y19271D01*
X30511Y19331D01*
X30721Y19649D01*
Y0D01*
G37*
G36*
X18491Y73696D02*X22842D01*
X22932Y73550D01*
X23217Y73216D01*
X23551Y72931D01*
X23926Y72701D01*
X24332Y72533D01*
X24654Y72455D01*
Y70706D01*
X24589Y69881D01*
Y61508D01*
X23432Y60351D01*
X22350Y60092D01*
X21292Y59653D01*
X20315Y59055D01*
X19444Y58311D01*
X18700Y57440D01*
X18491Y57099D01*
Y73696D01*
G37*
G36*
X24654Y0D02*X18491D01*
Y19643D01*
X18775Y19228D01*
X18828Y19169D01*
X18889Y19119D01*
X18956Y19080D01*
X19029Y19051D01*
X19106Y19034D01*
X19184Y19029D01*
X19262Y19037D01*
X19338Y19057D01*
X19410Y19088D01*
X19476Y19130D01*
X19535Y19182D01*
X19585Y19243D01*
X19624Y19310D01*
X19653Y19383D01*
X19670Y19460D01*
X19675Y19538D01*
X19667Y19616D01*
X19647Y19692D01*
X19616Y19764D01*
X19574Y19830D01*
X19250Y20303D01*
X18971Y20803D01*
X18738Y21327D01*
X18554Y21870D01*
X18491Y22132D01*
Y25118D01*
X18524Y25267D01*
X18699Y25813D01*
X18923Y26341D01*
X19193Y26846D01*
X19509Y27325D01*
X19549Y27391D01*
X19579Y27463D01*
X19597Y27539D01*
X19604Y27618D01*
X19598Y27696D01*
X19579Y27772D01*
X19549Y27844D01*
X19508Y27911D01*
X19458Y27971D01*
X19398Y28022D01*
X19331Y28063D01*
X19259Y28093D01*
X19183Y28111D01*
X19104Y28118D01*
X19026Y28112D01*
X18950Y28093D01*
X18878Y28063D01*
X18811Y28022D01*
X18751Y27972D01*
X18700Y27912D01*
X18491Y27596D01*
Y42086D01*
X22561Y46156D01*
X23464Y45939D01*
X24606Y45849D01*
X24654Y45853D01*
Y30917D01*
X24542Y30921D01*
X23879Y30885D01*
X23222Y30789D01*
X22576Y30634D01*
X21947Y30420D01*
X21340Y30150D01*
X20760Y29827D01*
X20212Y29452D01*
X20153Y29399D01*
X20103Y29338D01*
X20064Y29271D01*
X20035Y29198D01*
X20018Y29121D01*
X20013Y29043D01*
X20021Y28965D01*
X20041Y28889D01*
X20072Y28817D01*
X20114Y28751D01*
X20166Y28692D01*
X20227Y28642D01*
X20294Y28603D01*
X20367Y28574D01*
X20444Y28557D01*
X20522Y28552D01*
X20600Y28560D01*
X20676Y28580D01*
X20748Y28611D01*
X20814Y28653D01*
X21287Y28977D01*
X21787Y29256D01*
X22311Y29489D01*
X22854Y29673D01*
X23411Y29807D01*
X23978Y29890D01*
X24551Y29921D01*
X24654Y29917D01*
Y17322D01*
X24088Y17343D01*
X23519Y17416D01*
X22960Y17540D01*
X22414Y17715D01*
X21886Y17939D01*
X21381Y18209D01*
X20902Y18525D01*
X20836Y18565D01*
X20764Y18595D01*
X20688Y18613D01*
X20609Y18620D01*
X20531Y18614D01*
X20455Y18595D01*
X20383Y18565D01*
X20316Y18524D01*
X20256Y18474D01*
X20205Y18414D01*
X20164Y18347D01*
X20134Y18275D01*
X20116Y18199D01*
X20109Y18120D01*
X20115Y18042D01*
X20134Y17966D01*
X20164Y17894D01*
X20205Y17827D01*
X20255Y17767D01*
X20315Y17716D01*
X20869Y17350D01*
X21455Y17037D01*
X22066Y16777D01*
X22699Y16575D01*
X23347Y16431D01*
X24006Y16346D01*
X24654Y16323D01*
Y0D01*
G37*
G36*
X18491Y22132D02*X18420Y22427D01*
X18337Y22994D01*
X18306Y23567D01*
X18327Y24139D01*
X18400Y24708D01*
X18491Y25118D01*
Y22132D01*
G37*
G36*
Y0D02*X0D01*
Y75196D01*
X2211D01*
X3265Y74142D01*
X3271Y74135D01*
X3450Y73982D01*
X3651Y73859D01*
X3868Y73769D01*
X4097Y73714D01*
X4332Y73696D01*
X18491D01*
Y57099D01*
X18102Y56463D01*
X17663Y55405D01*
X17396Y54291D01*
X17306Y53149D01*
X17396Y52007D01*
X17612Y51105D01*
X8890Y42383D01*
X8858Y42385D01*
X8232Y42336D01*
X7622Y42189D01*
X7042Y41949D01*
X6507Y41621D01*
X6030Y41213D01*
X5622Y40736D01*
X5294Y40201D01*
X5054Y39621D01*
X4907Y39011D01*
X4858Y38385D01*
X4907Y37759D01*
X5054Y37149D01*
X5294Y36569D01*
X5622Y36034D01*
X6030Y35557D01*
X6507Y35149D01*
X7042Y34821D01*
X7622Y34581D01*
X8232Y34434D01*
X8858Y34385D01*
X9484Y34434D01*
X10094Y34581D01*
X10674Y34821D01*
X11209Y35149D01*
X11271Y35202D01*
X11430Y35268D01*
X11899Y35554D01*
X12316Y35911D01*
X18491Y42086D01*
Y27596D01*
X18334Y27358D01*
X18021Y26772D01*
X17761Y26161D01*
X17559Y25528D01*
X17415Y24880D01*
X17330Y24221D01*
X17306Y23558D01*
X17342Y22895D01*
X17438Y22238D01*
X17593Y21592D01*
X17807Y20963D01*
X18077Y20356D01*
X18400Y19776D01*
X18491Y19643D01*
Y0D01*
G37*
G36*
X83032Y75196D02*X103150D01*
Y0D01*
X83032D01*
Y25714D01*
X93029Y25720D01*
X93179Y25756D01*
X93322Y25815D01*
X93453Y25896D01*
X93571Y25996D01*
X93671Y26114D01*
X93752Y26245D01*
X93811Y26388D01*
X93847Y26538D01*
X93859Y26692D01*
X93847Y46532D01*
X93811Y46682D01*
X93752Y46825D01*
X93671Y46956D01*
X93571Y47074D01*
X93453Y47174D01*
X93322Y47255D01*
X93179Y47314D01*
X93029Y47350D01*
X92875Y47362D01*
X83032Y47356D01*
Y75196D01*
G37*
G36*
X62415D02*X83032D01*
Y47356D01*
X73035Y47350D01*
X72885Y47314D01*
X72742Y47255D01*
X72611Y47174D01*
X72493Y47074D01*
X72393Y46956D01*
X72312Y46825D01*
X72253Y46682D01*
X72217Y46532D01*
X72205Y46378D01*
X72217Y26538D01*
X72253Y26388D01*
X72312Y26245D01*
X72393Y26114D01*
X72493Y25996D01*
X72611Y25896D01*
X72742Y25815D01*
X72885Y25756D01*
X73035Y25720D01*
X73189Y25708D01*
X83032Y25714D01*
Y0D01*
X66142D01*
Y1741D01*
X66913Y1743D01*
X67156Y1801D01*
X67386Y1896D01*
X67598Y2026D01*
X67788Y2188D01*
X67950Y2378D01*
X68080Y2590D01*
X68175Y2820D01*
X68233Y3063D01*
X68253Y3311D01*
X68233Y5559D01*
X68175Y5802D01*
X68080Y6032D01*
X67950Y6244D01*
X67788Y6434D01*
X67598Y6596D01*
X67386Y6726D01*
X67180Y6811D01*
X67386Y6896D01*
X67598Y7026D01*
X67788Y7188D01*
X67950Y7378D01*
X68080Y7590D01*
X68175Y7820D01*
X68233Y8063D01*
X68253Y8311D01*
X68233Y10559D01*
X68175Y10802D01*
X68080Y11032D01*
X67950Y11244D01*
X67788Y11434D01*
X67598Y11596D01*
X67386Y11726D01*
X67180Y11811D01*
X67386Y11896D01*
X67598Y12026D01*
X67788Y12188D01*
X67950Y12378D01*
X68080Y12590D01*
X68175Y12820D01*
X68233Y13063D01*
X68253Y13311D01*
X68233Y15559D01*
X68175Y15802D01*
X68080Y16032D01*
X67950Y16244D01*
X67788Y16434D01*
X67598Y16596D01*
X67386Y16726D01*
X67180Y16811D01*
X67386Y16896D01*
X67598Y17026D01*
X67788Y17188D01*
X67950Y17378D01*
X68080Y17590D01*
X68175Y17820D01*
X68211Y17970D01*
X68221Y17974D01*
X68422Y18097D01*
X68601Y18250D01*
X68613Y18264D01*
X69945Y19596D01*
X69959Y19608D01*
X70112Y19787D01*
X70235Y19988D01*
X70325Y20205D01*
X70380Y20434D01*
X70398Y20669D01*
Y22638D01*
X70380Y22872D01*
X70325Y23101D01*
X70235Y23318D01*
X70112Y23519D01*
X69959Y23698D01*
X69952Y23704D01*
X67996Y25660D01*
X67990Y25667D01*
X67811Y25820D01*
X67610Y25943D01*
X67393Y26034D01*
X67164Y26089D01*
X66929Y26107D01*
X66142D01*
Y26377D01*
X64556Y27963D01*
X65509Y27964D01*
X65659Y28000D01*
X65802Y28059D01*
X65933Y28140D01*
X66051Y28240D01*
X66151Y28358D01*
X66232Y28489D01*
X66291Y28632D01*
X66327Y28782D01*
X66339Y28936D01*
X66327Y47988D01*
X66291Y48138D01*
X66232Y48281D01*
X66151Y48412D01*
X66051Y48530D01*
X65933Y48630D01*
X65802Y48711D01*
X65659Y48770D01*
X65509Y48806D01*
X65355Y48818D01*
X62415Y48816D01*
Y52724D01*
X66788Y52729D01*
X66909Y52758D01*
X67023Y52805D01*
X67128Y52869D01*
X67222Y52950D01*
X67303Y53044D01*
X67367Y53149D01*
X67414Y53263D01*
X67443Y53384D01*
X67453Y53507D01*
X67443Y55630D01*
X67414Y55751D01*
X67367Y55865D01*
X67303Y55970D01*
X67222Y56064D01*
X67128Y56145D01*
X67023Y56209D01*
X66909Y56256D01*
X66788Y56285D01*
X66665Y56295D01*
X62415Y56290D01*
Y57724D01*
X66788Y57729D01*
X66909Y57758D01*
X67023Y57805D01*
X67128Y57869D01*
X67222Y57950D01*
X67303Y58044D01*
X67367Y58149D01*
X67414Y58263D01*
X67443Y58384D01*
X67453Y58507D01*
X67443Y60630D01*
X67414Y60751D01*
X67367Y60865D01*
X67303Y60970D01*
X67222Y61064D01*
X67128Y61145D01*
X67023Y61209D01*
X66909Y61256D01*
X66788Y61285D01*
X66665Y61295D01*
X62415Y61290D01*
Y62724D01*
X66788Y62729D01*
X66909Y62758D01*
X67023Y62805D01*
X67128Y62869D01*
X67222Y62950D01*
X67303Y63044D01*
X67367Y63149D01*
X67414Y63263D01*
X67443Y63384D01*
X67453Y63507D01*
X67443Y65630D01*
X67414Y65751D01*
X67367Y65865D01*
X67303Y65970D01*
X67222Y66064D01*
X67128Y66145D01*
X67023Y66209D01*
X66909Y66256D01*
X66788Y66285D01*
X66665Y66295D01*
X62415Y66290D01*
Y67724D01*
X66788Y67729D01*
X66909Y67758D01*
X67023Y67805D01*
X67128Y67869D01*
X67222Y67950D01*
X67303Y68044D01*
X67367Y68149D01*
X67414Y68263D01*
X67443Y68384D01*
X67453Y68507D01*
X67443Y70630D01*
X67414Y70751D01*
X67367Y70865D01*
X67303Y70970D01*
X67222Y71064D01*
X67128Y71145D01*
X67023Y71209D01*
X66909Y71256D01*
X66788Y71285D01*
X66665Y71295D01*
X62415Y71290D01*
Y75196D01*
G37*
G36*
X46063D02*X62415D01*
Y71290D01*
X58042Y71285D01*
X57921Y71256D01*
X57807Y71209D01*
X57702Y71145D01*
X57608Y71064D01*
X57527Y70970D01*
X57463Y70865D01*
X57416Y70751D01*
X57387Y70630D01*
X57377Y70507D01*
X57387Y68384D01*
X57416Y68263D01*
X57463Y68149D01*
X57527Y68044D01*
X57608Y67950D01*
X57702Y67869D01*
X57807Y67805D01*
X57921Y67758D01*
X58042Y67729D01*
X58165Y67719D01*
X62415Y67724D01*
Y66290D01*
X58042Y66285D01*
X57921Y66256D01*
X57807Y66209D01*
X57702Y66145D01*
X57608Y66064D01*
X57527Y65970D01*
X57463Y65865D01*
X57416Y65751D01*
X57387Y65630D01*
X57377Y65507D01*
X57387Y63384D01*
X57416Y63263D01*
X57463Y63149D01*
X57527Y63044D01*
X57608Y62950D01*
X57702Y62869D01*
X57807Y62805D01*
X57921Y62758D01*
X58042Y62729D01*
X58165Y62719D01*
X62415Y62724D01*
Y61290D01*
X58042Y61285D01*
X57921Y61256D01*
X57807Y61209D01*
X57702Y61145D01*
X57608Y61064D01*
X57527Y60970D01*
X57463Y60865D01*
X57416Y60751D01*
X57387Y60630D01*
X57377Y60507D01*
X57387Y58384D01*
X57416Y58263D01*
X57463Y58149D01*
X57527Y58044D01*
X57608Y57950D01*
X57702Y57869D01*
X57807Y57805D01*
X57921Y57758D01*
X58042Y57729D01*
X58165Y57719D01*
X62415Y57724D01*
Y56290D01*
X58042Y56285D01*
X57921Y56256D01*
X57807Y56209D01*
X57702Y56145D01*
X57608Y56064D01*
X57527Y55970D01*
X57463Y55865D01*
X57416Y55751D01*
X57387Y55630D01*
X57377Y55507D01*
X57387Y53384D01*
X57416Y53263D01*
X57463Y53149D01*
X57527Y53044D01*
X57608Y52950D01*
X57702Y52869D01*
X57807Y52805D01*
X57921Y52758D01*
X58042Y52729D01*
X58165Y52719D01*
X62415Y52724D01*
Y48816D01*
X46303Y48806D01*
X46153Y48770D01*
X46063Y48733D01*
Y51938D01*
X46413Y51939D01*
X46656Y51997D01*
X46886Y52092D01*
X47098Y52222D01*
X47288Y52384D01*
X47450Y52574D01*
X47580Y52786D01*
X47657Y52972D01*
X47702Y52862D01*
X47932Y52487D01*
X48217Y52153D01*
X48551Y51868D01*
X48926Y51638D01*
X49332Y51470D01*
X49759Y51367D01*
X50197Y51333D01*
X50635Y51367D01*
X51062Y51470D01*
X51468Y51638D01*
X51843Y51868D01*
X52177Y52153D01*
X52462Y52487D01*
X52692Y52862D01*
X52860Y53268D01*
X52963Y53695D01*
X52997Y54133D01*
X52963Y54571D01*
X52860Y54998D01*
X52692Y55404D01*
X52462Y55779D01*
X52177Y56113D01*
X51843Y56398D01*
X51468Y56628D01*
X51062Y56796D01*
X50635Y56899D01*
X50197Y56933D01*
X49759Y56899D01*
X49332Y56796D01*
X48926Y56628D01*
X48551Y56398D01*
X48217Y56113D01*
X48127Y56007D01*
X47671D01*
X47580Y56228D01*
X47450Y56440D01*
X47288Y56630D01*
X47098Y56792D01*
X46886Y56922D01*
X46680Y57007D01*
X46886Y57092D01*
X47098Y57222D01*
X47288Y57384D01*
X47450Y57574D01*
X47580Y57786D01*
X47675Y58016D01*
X47733Y58259D01*
X47753Y58507D01*
X47733Y60755D01*
X47675Y60998D01*
X47580Y61228D01*
X47450Y61440D01*
X47288Y61630D01*
X47098Y61792D01*
X46886Y61922D01*
X46680Y62007D01*
X46886Y62092D01*
X47098Y62222D01*
X47288Y62384D01*
X47450Y62574D01*
X47580Y62786D01*
X47675Y63016D01*
X47733Y63259D01*
X47753Y63507D01*
X47733Y65755D01*
X47675Y65998D01*
X47580Y66228D01*
X47450Y66440D01*
X47288Y66630D01*
X47098Y66792D01*
X46886Y66922D01*
X46680Y67007D01*
X46886Y67092D01*
X47098Y67222D01*
X47288Y67384D01*
X47450Y67574D01*
X47580Y67786D01*
X47675Y68016D01*
X47733Y68259D01*
X47753Y68507D01*
X47733Y70755D01*
X47675Y70998D01*
X47580Y71228D01*
X47450Y71440D01*
X47288Y71630D01*
X47098Y71792D01*
X46886Y71922D01*
X46656Y72017D01*
X46413Y72075D01*
X46165Y72095D01*
X46063D01*
Y75196D01*
G37*
G36*
X145669Y66929D02*X148819D01*
Y57067D01*
X148812Y57059D01*
X148751Y56958D01*
X148706Y56850D01*
X148678Y56735D01*
X148669Y56618D01*
Y53618D01*
X148678Y53501D01*
X148706Y53386D01*
X148751Y53278D01*
X148812Y53177D01*
X148819Y53169D01*
Y20649D01*
X148812Y20641D01*
X148751Y20540D01*
X148706Y20432D01*
X148678Y20317D01*
X148669Y20200D01*
Y17200D01*
X148678Y17083D01*
X148706Y16968D01*
X148751Y16860D01*
X148812Y16759D01*
X148819Y16751D01*
Y0D01*
X145669D01*
Y14200D01*
X147169D01*
X147286Y14209D01*
X147401Y14237D01*
X147509Y14282D01*
X147610Y14343D01*
X147699Y14420D01*
X147776Y14509D01*
X147837Y14610D01*
X147882Y14718D01*
X147910Y14833D01*
X147919Y14950D01*
X147910Y15067D01*
X147882Y15182D01*
X147837Y15290D01*
X147776Y15391D01*
X147699Y15480D01*
X147610Y15557D01*
X147509Y15618D01*
X147401Y15663D01*
X147286Y15691D01*
X147169Y15700D01*
X145669D01*
Y21700D01*
X147169D01*
X147286Y21709D01*
X147401Y21737D01*
X147509Y21782D01*
X147610Y21843D01*
X147699Y21920D01*
X147776Y22009D01*
X147837Y22110D01*
X147882Y22218D01*
X147910Y22333D01*
X147919Y22450D01*
X147910Y22567D01*
X147882Y22682D01*
X147837Y22790D01*
X147776Y22891D01*
X147699Y22980D01*
X147610Y23057D01*
X147509Y23118D01*
X147401Y23163D01*
X147286Y23191D01*
X147169Y23200D01*
X145669D01*
Y50618D01*
X147169D01*
X147286Y50627D01*
X147401Y50655D01*
X147509Y50700D01*
X147610Y50761D01*
X147699Y50838D01*
X147776Y50927D01*
X147837Y51028D01*
X147882Y51136D01*
X147910Y51251D01*
X147919Y51368D01*
X147910Y51485D01*
X147882Y51600D01*
X147837Y51708D01*
X147776Y51809D01*
X147699Y51898D01*
X147610Y51975D01*
X147509Y52036D01*
X147401Y52081D01*
X147286Y52109D01*
X147169Y52118D01*
X145669D01*
Y58118D01*
X147169D01*
X147286Y58127D01*
X147401Y58155D01*
X147509Y58200D01*
X147610Y58261D01*
X147699Y58338D01*
X147776Y58427D01*
X147837Y58528D01*
X147882Y58636D01*
X147910Y58751D01*
X147919Y58868D01*
X147910Y58985D01*
X147882Y59100D01*
X147837Y59208D01*
X147776Y59309D01*
X147699Y59398D01*
X147610Y59475D01*
X147509Y59536D01*
X147401Y59581D01*
X147286Y59609D01*
X147169Y59618D01*
X145669D01*
Y66929D01*
G37*
G36*
X141919D02*X145669D01*
Y59618D01*
X144169D01*
X144052Y59609D01*
X143937Y59581D01*
X143829Y59536D01*
X143728Y59475D01*
X143639Y59398D01*
X143562Y59309D01*
X143501Y59208D01*
X143456Y59100D01*
X143428Y58985D01*
X143419Y58868D01*
X143428Y58751D01*
X143456Y58636D01*
X143501Y58528D01*
X143562Y58427D01*
X143639Y58338D01*
X143728Y58261D01*
X143829Y58200D01*
X143937Y58155D01*
X144052Y58127D01*
X144169Y58118D01*
X145669D01*
Y52118D01*
X144169D01*
X144052Y52109D01*
X143937Y52081D01*
X143829Y52036D01*
X143728Y51975D01*
X143639Y51898D01*
X143562Y51809D01*
X143501Y51708D01*
X143456Y51600D01*
X143428Y51485D01*
X143419Y51368D01*
X143428Y51251D01*
X143456Y51136D01*
X143501Y51028D01*
X143562Y50927D01*
X143639Y50838D01*
X143728Y50761D01*
X143829Y50700D01*
X143937Y50655D01*
X144052Y50627D01*
X144169Y50618D01*
X145669D01*
Y23200D01*
X144169D01*
X144052Y23191D01*
X143937Y23163D01*
X143829Y23118D01*
X143728Y23057D01*
X143639Y22980D01*
X143562Y22891D01*
X143501Y22790D01*
X143456Y22682D01*
X143428Y22567D01*
X143419Y22450D01*
X143428Y22333D01*
X143456Y22218D01*
X143501Y22110D01*
X143562Y22009D01*
X143639Y21920D01*
X143728Y21843D01*
X143829Y21782D01*
X143937Y21737D01*
X144052Y21709D01*
X144169Y21700D01*
X145669D01*
Y15700D01*
X144169D01*
X144052Y15691D01*
X143937Y15663D01*
X143829Y15618D01*
X143728Y15557D01*
X143639Y15480D01*
X143562Y15391D01*
X143501Y15290D01*
X143456Y15182D01*
X143428Y15067D01*
X143419Y14950D01*
X143428Y14833D01*
X143456Y14718D01*
X143501Y14610D01*
X143562Y14509D01*
X143639Y14420D01*
X143728Y14343D01*
X143829Y14282D01*
X143937Y14237D01*
X144052Y14209D01*
X144169Y14200D01*
X145669D01*
Y0D01*
X141919D01*
Y16450D01*
X142036Y16459D01*
X142151Y16487D01*
X142259Y16532D01*
X142360Y16593D01*
X142449Y16670D01*
X142526Y16759D01*
X142587Y16860D01*
X142632Y16968D01*
X142660Y17083D01*
X142669Y17200D01*
Y20200D01*
X142660Y20317D01*
X142632Y20432D01*
X142587Y20540D01*
X142526Y20641D01*
X142449Y20730D01*
X142360Y20807D01*
X142259Y20868D01*
X142151Y20913D01*
X142036Y20941D01*
X141919Y20950D01*
Y52868D01*
X142036Y52877D01*
X142151Y52905D01*
X142259Y52950D01*
X142360Y53011D01*
X142449Y53088D01*
X142526Y53177D01*
X142587Y53278D01*
X142632Y53386D01*
X142660Y53501D01*
X142669Y53618D01*
Y56618D01*
X142660Y56735D01*
X142632Y56850D01*
X142587Y56958D01*
X142526Y57059D01*
X142449Y57148D01*
X142360Y57225D01*
X142259Y57286D01*
X142151Y57331D01*
X142036Y57359D01*
X141919Y57368D01*
Y66929D01*
G37*
G36*
X122402D02*X141919D01*
Y57368D01*
X141802Y57359D01*
X141687Y57331D01*
X141579Y57286D01*
X141478Y57225D01*
X141389Y57148D01*
X141312Y57059D01*
X141251Y56958D01*
X141206Y56850D01*
X141178Y56735D01*
X141169Y56618D01*
Y53618D01*
X141178Y53501D01*
X141206Y53386D01*
X141251Y53278D01*
X141312Y53177D01*
X141389Y53088D01*
X141478Y53011D01*
X141579Y52950D01*
X141687Y52905D01*
X141802Y52877D01*
X141919Y52868D01*
Y20950D01*
X141802Y20941D01*
X141687Y20913D01*
X141579Y20868D01*
X141478Y20807D01*
X141389Y20730D01*
X141312Y20641D01*
X141251Y20540D01*
X141206Y20432D01*
X141178Y20317D01*
X141169Y20200D01*
Y17200D01*
X141178Y17083D01*
X141206Y16968D01*
X141251Y16860D01*
X141312Y16759D01*
X141389Y16670D01*
X141478Y16593D01*
X141579Y16532D01*
X141687Y16487D01*
X141802Y16459D01*
X141919Y16450D01*
Y0D01*
X122402D01*
Y25714D01*
X132399Y25720D01*
X132549Y25756D01*
X132692Y25815D01*
X132823Y25896D01*
X132941Y25996D01*
X133041Y26114D01*
X133122Y26245D01*
X133181Y26388D01*
X133217Y26538D01*
X133229Y26692D01*
X133217Y46532D01*
X133181Y46682D01*
X133122Y46825D01*
X133041Y46956D01*
X132941Y47074D01*
X132823Y47174D01*
X132692Y47255D01*
X132549Y47314D01*
X132399Y47350D01*
X132245Y47362D01*
X122402Y47356D01*
Y66929D01*
G37*
G36*
X104331D02*X122402D01*
Y47356D01*
X112405Y47350D01*
X112255Y47314D01*
X112112Y47255D01*
X111981Y47174D01*
X111863Y47074D01*
X111763Y46956D01*
X111682Y46825D01*
X111623Y46682D01*
X111587Y46532D01*
X111575Y46378D01*
X111587Y26538D01*
X111623Y26388D01*
X111682Y26245D01*
X111763Y26114D01*
X111863Y25996D01*
X111981Y25896D01*
X112112Y25815D01*
X112255Y25756D01*
X112405Y25720D01*
X112559Y25708D01*
X122402Y25714D01*
Y0D01*
X104331D01*
Y66929D01*
G37*
G36*
X128104Y167322D02*X133858D01*
Y64960D01*
X124016D01*
Y145124D01*
X125063Y146171D01*
X125077Y146183D01*
X125230Y146362D01*
X125353Y146563D01*
X125443Y146780D01*
X125498Y147009D01*
X125516Y147244D01*
Y164734D01*
X128104Y167322D01*
G37*
G36*
X134843D02*X143943D01*
X144685Y166580D01*
Y77859D01*
X144598Y77806D01*
X143981Y77279D01*
X143454Y76662D01*
X143030Y75970D01*
X142719Y75220D01*
X142530Y74431D01*
X142466Y73622D01*
X142530Y72813D01*
X142719Y72024D01*
X143030Y71274D01*
X143454Y70582D01*
X143981Y69965D01*
X144598Y69438D01*
X144685Y69385D01*
Y67913D01*
X134843D01*
Y167322D01*
G37*
G36*
X165354Y169685D02*Y68110D01*
X160622D01*
X160684Y68897D01*
Y70867D01*
X160621Y71676D01*
X160431Y72465D01*
X160120Y73215D01*
X159696Y73907D01*
X159169Y74524D01*
X156413Y77280D01*
X155797Y77806D01*
X155105Y78230D01*
X154355Y78541D01*
X153566Y78731D01*
X153508Y78736D01*
Y79799D01*
X155078Y79805D01*
X155228Y79841D01*
X155371Y79900D01*
X155502Y79981D01*
X155620Y80081D01*
X155720Y80199D01*
X155801Y80330D01*
X155860Y80473D01*
X155896Y80623D01*
X155908Y80777D01*
X155896Y84731D01*
X155860Y84881D01*
X155801Y85024D01*
X155720Y85155D01*
X155620Y85273D01*
X155502Y85373D01*
X155371Y85454D01*
X155228Y85513D01*
X155078Y85549D01*
X154924Y85561D01*
X154177Y85558D01*
X153972Y85643D01*
X153743Y85698D01*
X153508Y85716D01*
Y87050D01*
X154329Y87052D01*
X154512Y87096D01*
X154686Y87168D01*
X154819Y87249D01*
X154817Y87242D01*
X154799Y87007D01*
Y86850D01*
X154817Y86615D01*
X154872Y86386D01*
X154962Y86169D01*
X155085Y85968D01*
X155238Y85789D01*
X155417Y85636D01*
X155618Y85513D01*
X155835Y85423D01*
X156064Y85368D01*
X156299Y85350D01*
X156534Y85368D01*
X156763Y85423D01*
X156980Y85513D01*
X157181Y85636D01*
X157360Y85789D01*
X157513Y85968D01*
X157636Y86169D01*
X157726Y86386D01*
X157781Y86615D01*
X157799Y86850D01*
Y87007D01*
X157781Y87242D01*
X157726Y87471D01*
X157636Y87688D01*
X157513Y87889D01*
X157360Y88068D01*
X157181Y88221D01*
X156980Y88344D01*
X156763Y88434D01*
X156534Y88489D01*
X156299Y88507D01*
X156064Y88489D01*
X155835Y88434D01*
X155618Y88344D01*
X155417Y88221D01*
X155334Y88150D01*
X155341Y88237D01*
X155326Y93525D01*
X155282Y93708D01*
X155210Y93882D01*
X155112Y94042D01*
X154990Y94186D01*
X154846Y94308D01*
X154686Y94406D01*
X154512Y94478D01*
X154475Y94487D01*
X154512Y94496D01*
X154686Y94568D01*
X154846Y94666D01*
X154990Y94788D01*
X155112Y94932D01*
X155210Y95092D01*
X155282Y95266D01*
X155326Y95449D01*
X155341Y95637D01*
X155326Y100925D01*
X155282Y101108D01*
X155210Y101282D01*
X155112Y101442D01*
X154990Y101586D01*
X154846Y101708D01*
X154686Y101806D01*
X154512Y101878D01*
X154329Y101922D01*
X154141Y101937D01*
X153508Y101936D01*
Y104405D01*
X155078Y104411D01*
X155228Y104447D01*
X155371Y104506D01*
X155502Y104587D01*
X155620Y104687D01*
X155720Y104805D01*
X155801Y104936D01*
X155860Y105079D01*
X155896Y105229D01*
X155908Y105383D01*
X155901Y107556D01*
X157346Y109001D01*
X157360Y109013D01*
X157513Y109192D01*
X157636Y109393D01*
X157726Y109610D01*
X157781Y109839D01*
X157799Y110074D01*
Y150393D01*
X157782Y150627D01*
X157727Y150856D01*
X157636Y151073D01*
X157513Y151274D01*
X157360Y151453D01*
X157353Y151459D01*
X153508Y155304D01*
Y169685D01*
X165354D01*
G37*
G36*
X153508Y155304D02*X150319Y158493D01*
Y167717D01*
X150301Y167951D01*
X150246Y168180D01*
X150156Y168397D01*
X150033Y168598D01*
X149880Y168777D01*
X149873Y168783D01*
X148971Y169685D01*
X153508D01*
Y155304D01*
G37*
G36*
Y101936D02*X152091Y101933D01*
Y103746D01*
X152747Y104402D01*
X153508Y104405D01*
Y101936D01*
G37*
G36*
Y78736D02*X152757Y78794D01*
X147638D01*
X146829Y78730D01*
X146063Y78547D01*
Y79815D01*
X146104Y79805D01*
X146258Y79793D01*
X149244Y79805D01*
X149394Y79841D01*
X149537Y79900D01*
X149668Y79981D01*
X149786Y80081D01*
X149886Y80199D01*
X149967Y80330D01*
X150026Y80473D01*
X150062Y80623D01*
X150074Y80777D01*
X150062Y84731D01*
X150026Y84881D01*
X149967Y85024D01*
X149886Y85155D01*
X149786Y85273D01*
X149668Y85373D01*
X149537Y85454D01*
X149394Y85513D01*
X149244Y85549D01*
X149090Y85561D01*
X146104Y85549D01*
X146063Y85539D01*
Y87543D01*
X146070Y87532D01*
X146192Y87388D01*
X146336Y87266D01*
X146496Y87168D01*
X146670Y87096D01*
X146853Y87052D01*
X147041Y87037D01*
X153508Y87050D01*
Y85716D01*
X153273Y85698D01*
X153044Y85643D01*
X152827Y85553D01*
X152826D01*
X151938Y85549D01*
X151788Y85513D01*
X151645Y85454D01*
X151514Y85373D01*
X151396Y85273D01*
X151296Y85155D01*
X151215Y85024D01*
X151156Y84881D01*
X151120Y84731D01*
X151108Y84577D01*
X151120Y80623D01*
X151156Y80473D01*
X151215Y80330D01*
X151296Y80199D01*
X151396Y80081D01*
X151514Y79981D01*
X151645Y79900D01*
X151788Y79841D01*
X151938Y79805D01*
X152092Y79793D01*
X153508Y79799D01*
Y78736D01*
G37*
G36*
X47468Y190319D02*X47512Y190247D01*
X47920Y189770D01*
X48397Y189362D01*
X48932Y189034D01*
X49512Y188794D01*
X50122Y188647D01*
X50748Y188598D01*
X51374Y188647D01*
X51490Y188675D01*
X52756Y187409D01*
Y186029D01*
X52750Y186036D01*
X52691Y186088D01*
X52625Y186130D01*
X52299Y186285D01*
X51959Y186410D01*
X51610Y186504D01*
X51254Y186566D01*
X50893Y186596D01*
X50532Y186593D01*
X50172Y186557D01*
X49817Y186489D01*
X49469Y186389D01*
X49132Y186258D01*
X48808Y186097D01*
X48743Y186055D01*
X48685Y186002D01*
X48637Y185940D01*
X48598Y185872D01*
X48570Y185799D01*
X48554Y185722D01*
X48551Y185643D01*
X48560Y185565D01*
X48581Y185489D01*
X48613Y185418D01*
X48656Y185352D01*
X48709Y185294D01*
X48771Y185246D01*
X48839Y185207D01*
X48912Y185179D01*
X48989Y185163D01*
X49068Y185160D01*
X49146Y185169D01*
X49222Y185190D01*
X49293Y185222D01*
X49536Y185343D01*
X49789Y185441D01*
X50049Y185516D01*
X50316Y185567D01*
X50586Y185594D01*
X50857Y185597D01*
X51127Y185574D01*
X51394Y185528D01*
X51656Y185457D01*
X51911Y185364D01*
X52156Y185247D01*
X52229Y185217D01*
X52305Y185197D01*
X52383Y185190D01*
X52461Y185195D01*
X52537Y185212D01*
X52610Y185240D01*
X52678Y185280D01*
X52738Y185330D01*
X52756Y185350D01*
Y180262D01*
X52575Y180124D01*
X52439Y180037D01*
X52427D01*
X52349Y180028D01*
X52273Y180007D01*
X52202Y179975D01*
X51959Y179854D01*
X51706Y179756D01*
X51446Y179681D01*
X51179Y179630D01*
X50909Y179603D01*
X50638Y179600D01*
X50368Y179623D01*
X50101Y179669D01*
X49839Y179740D01*
X49584Y179833D01*
X49339Y179950D01*
X49266Y179980D01*
X49190Y180000D01*
X49112Y180007D01*
X49034Y180002D01*
X48958Y179985D01*
X48885Y179957D01*
X48817Y179917D01*
X48757Y179867D01*
X48705Y179808D01*
X48663Y179742D01*
X48632Y179670D01*
X48612Y179594D01*
X48605Y179516D01*
X48610Y179438D01*
X48627Y179362D01*
X48655Y179289D01*
X48686Y179236D01*
X48352Y179130D01*
X47778Y178893D01*
X47468Y178731D01*
Y180452D01*
X47474Y180449D01*
X47547Y180421D01*
X47624Y180405D01*
X47703Y180402D01*
X47781Y180411D01*
X47857Y180432D01*
X47928Y180464D01*
X47994Y180507D01*
X48052Y180560D01*
X48100Y180622D01*
X48139Y180690D01*
X48167Y180763D01*
X48183Y180840D01*
X48186Y180919D01*
X48177Y180997D01*
X48156Y181073D01*
X48124Y181144D01*
X48003Y181387D01*
X47905Y181640D01*
X47830Y181900D01*
X47779Y182167D01*
X47752Y182437D01*
X47749Y182708D01*
X47772Y182978D01*
X47818Y183245D01*
X47889Y183507D01*
X47982Y183762D01*
X48099Y184007D01*
X48129Y184080D01*
X48149Y184156D01*
X48156Y184234D01*
X48151Y184312D01*
X48134Y184388D01*
X48106Y184461D01*
X48066Y184529D01*
X48016Y184589D01*
X47957Y184641D01*
X47891Y184683D01*
X47819Y184714D01*
X47743Y184734D01*
X47665Y184741D01*
X47587Y184736D01*
X47511Y184719D01*
X47468Y184703D01*
Y190319D01*
G37*
G36*
X44027Y193443D02*X46790Y192062D01*
X46797Y191972D01*
X46944Y191362D01*
X47184Y190782D01*
X47468Y190319D01*
Y184703D01*
X47438Y184691D01*
X47370Y184651D01*
X47310Y184601D01*
X47258Y184542D01*
X47216Y184476D01*
X47061Y184150D01*
X46936Y183810D01*
X46842Y183461D01*
X46780Y183105D01*
X46750Y182744D01*
X46753Y182383D01*
X46789Y182023D01*
X46857Y181668D01*
X46957Y181320D01*
X47088Y180983D01*
X47249Y180659D01*
X47291Y180594D01*
X47344Y180536D01*
X47406Y180488D01*
X47468Y180452D01*
Y178731D01*
X47228Y178606D01*
X46704Y178272D01*
X46211Y177894D01*
X45753Y177475D01*
X45334Y177017D01*
X44956Y176524D01*
X44622Y176000D01*
X44602Y175962D01*
X44742Y176300D01*
X44896Y176941D01*
X44948Y177598D01*
X44896Y178255D01*
X44742Y178896D01*
X44490Y179505D01*
X44146Y180067D01*
X44027Y180206D01*
Y185494D01*
X44057Y185506D01*
X44125Y185546D01*
X44185Y185596D01*
X44237Y185655D01*
X44279Y185721D01*
X44434Y186047D01*
X44559Y186387D01*
X44653Y186736D01*
X44715Y187092D01*
X44745Y187453D01*
X44742Y187814D01*
X44706Y188174D01*
X44638Y188529D01*
X44538Y188877D01*
X44407Y189214D01*
X44246Y189538D01*
X44204Y189603D01*
X44151Y189661D01*
X44089Y189709D01*
X44027Y189745D01*
Y193443D01*
G37*
G36*
X40748Y193598D02*X41374Y193647D01*
X41984Y193794D01*
X42564Y194034D01*
X42690Y194112D01*
X44027Y193443D01*
Y189745D01*
X44021Y189748D01*
X43948Y189776D01*
X43871Y189792D01*
X43792Y189795D01*
X43714Y189786D01*
X43638Y189765D01*
X43567Y189733D01*
X43501Y189690D01*
X43443Y189637D01*
X43395Y189575D01*
X43356Y189507D01*
X43328Y189434D01*
X43312Y189357D01*
X43309Y189278D01*
X43318Y189200D01*
X43339Y189124D01*
X43371Y189053D01*
X43492Y188810D01*
X43590Y188557D01*
X43665Y188297D01*
X43716Y188030D01*
X43743Y187760D01*
X43746Y187489D01*
X43723Y187219D01*
X43677Y186952D01*
X43606Y186690D01*
X43513Y186435D01*
X43396Y186190D01*
X43366Y186117D01*
X43346Y186041D01*
X43339Y185963D01*
X43344Y185885D01*
X43361Y185809D01*
X43389Y185736D01*
X43429Y185668D01*
X43479Y185608D01*
X43538Y185556D01*
X43604Y185514D01*
X43676Y185483D01*
X43752Y185463D01*
X43830Y185456D01*
X43908Y185461D01*
X43984Y185478D01*
X44027Y185494D01*
Y180206D01*
X43718Y180568D01*
X43217Y180996D01*
X42655Y181340D01*
X42046Y181592D01*
X41405Y181746D01*
X40748Y181798D01*
Y183602D01*
X40963Y183604D01*
X41323Y183640D01*
X41678Y183708D01*
X42026Y183808D01*
X42363Y183939D01*
X42687Y184100D01*
X42752Y184142D01*
X42810Y184195D01*
X42858Y184257D01*
X42897Y184325D01*
X42925Y184398D01*
X42941Y184475D01*
X42944Y184554D01*
X42935Y184632D01*
X42914Y184708D01*
X42882Y184779D01*
X42839Y184845D01*
X42786Y184903D01*
X42724Y184951D01*
X42656Y184990D01*
X42583Y185018D01*
X42506Y185034D01*
X42427Y185037D01*
X42349Y185028D01*
X42273Y185007D01*
X42202Y184975D01*
X41959Y184854D01*
X41706Y184756D01*
X41446Y184681D01*
X41179Y184630D01*
X40909Y184603D01*
X40748Y184601D01*
Y190596D01*
X40857Y190597D01*
X41127Y190574D01*
X41394Y190528D01*
X41656Y190457D01*
X41911Y190364D01*
X42156Y190247D01*
X42229Y190217D01*
X42305Y190197D01*
X42383Y190190D01*
X42461Y190195D01*
X42537Y190212D01*
X42610Y190240D01*
X42678Y190280D01*
X42738Y190330D01*
X42790Y190389D01*
X42832Y190455D01*
X42863Y190527D01*
X42883Y190603D01*
X42890Y190681D01*
X42885Y190759D01*
X42868Y190835D01*
X42840Y190908D01*
X42800Y190976D01*
X42750Y191036D01*
X42691Y191088D01*
X42625Y191130D01*
X42299Y191285D01*
X41959Y191410D01*
X41610Y191504D01*
X41254Y191566D01*
X40893Y191596D01*
X40748Y191595D01*
Y193598D01*
G37*
G36*
Y213067D02*X51741D01*
X52279Y212529D01*
X52285Y212522D01*
X52464Y212369D01*
X52665Y212246D01*
X52756Y212208D01*
Y206044D01*
X52564Y206162D01*
X51984Y206402D01*
X51374Y206549D01*
X50748Y206598D01*
X50122Y206549D01*
X49512Y206402D01*
X48932Y206162D01*
X48397Y205834D01*
X47920Y205426D01*
X47512Y204949D01*
X47184Y204414D01*
X46944Y203834D01*
X46797Y203224D01*
X46748Y202598D01*
X46797Y201972D01*
X46944Y201362D01*
X47184Y200782D01*
X47512Y200247D01*
X47920Y199770D01*
X48397Y199362D01*
X48932Y199034D01*
X49512Y198794D01*
X50122Y198647D01*
X50748Y198598D01*
X51374Y198647D01*
X51984Y198794D01*
X52564Y199034D01*
X52756Y199152D01*
Y196044D01*
X52564Y196162D01*
X51984Y196402D01*
X51374Y196549D01*
X50748Y196598D01*
X50122Y196549D01*
X49512Y196402D01*
X48932Y196162D01*
X48806Y196085D01*
X44706Y198135D01*
X44699Y198224D01*
X44552Y198834D01*
X44312Y199414D01*
X43984Y199949D01*
X43576Y200426D01*
X43099Y200834D01*
X42564Y201162D01*
X41984Y201402D01*
X41374Y201549D01*
X40748Y201598D01*
Y203604D01*
X43904Y203610D01*
X44057Y203647D01*
X44202Y203707D01*
X44336Y203789D01*
X44455Y203891D01*
X44557Y204010D01*
X44639Y204144D01*
X44699Y204289D01*
X44736Y204442D01*
X44748Y204598D01*
X44736Y210754D01*
X44699Y210907D01*
X44639Y211052D01*
X44557Y211186D01*
X44455Y211305D01*
X44336Y211407D01*
X44202Y211489D01*
X44057Y211549D01*
X43904Y211586D01*
X43748Y211598D01*
X40748Y211592D01*
Y213067D01*
G37*
G36*
X37468Y195319D02*X37512Y195247D01*
X37920Y194770D01*
X38397Y194362D01*
X38932Y194034D01*
X39512Y193794D01*
X40122Y193647D01*
X40748Y193598D01*
Y191595D01*
X40532Y191593D01*
X40172Y191557D01*
X39817Y191489D01*
X39469Y191389D01*
X39132Y191258D01*
X38808Y191097D01*
X38743Y191055D01*
X38685Y191002D01*
X38637Y190940D01*
X38598Y190872D01*
X38570Y190799D01*
X38554Y190722D01*
X38551Y190643D01*
X38560Y190565D01*
X38581Y190489D01*
X38613Y190418D01*
X38656Y190352D01*
X38709Y190294D01*
X38771Y190246D01*
X38839Y190207D01*
X38912Y190179D01*
X38989Y190163D01*
X39068Y190160D01*
X39146Y190169D01*
X39222Y190190D01*
X39293Y190222D01*
X39536Y190343D01*
X39789Y190441D01*
X40049Y190516D01*
X40316Y190567D01*
X40586Y190594D01*
X40748Y190596D01*
Y184601D01*
X40638Y184600D01*
X40368Y184623D01*
X40101Y184669D01*
X39839Y184740D01*
X39584Y184833D01*
X39339Y184950D01*
X39266Y184980D01*
X39190Y185000D01*
X39112Y185007D01*
X39034Y185002D01*
X38958Y184985D01*
X38885Y184957D01*
X38817Y184917D01*
X38757Y184867D01*
X38705Y184808D01*
X38663Y184742D01*
X38632Y184670D01*
X38612Y184594D01*
X38605Y184516D01*
X38610Y184438D01*
X38627Y184362D01*
X38655Y184289D01*
X38695Y184221D01*
X38745Y184161D01*
X38804Y184109D01*
X38870Y184067D01*
X39196Y183912D01*
X39536Y183787D01*
X39885Y183693D01*
X40241Y183631D01*
X40602Y183601D01*
X40748Y183602D01*
Y181798D01*
X40091Y181746D01*
X39450Y181592D01*
X38841Y181340D01*
X38279Y180996D01*
X37778Y180568D01*
X37468Y180205D01*
Y185452D01*
X37474Y185449D01*
X37547Y185421D01*
X37624Y185405D01*
X37703Y185402D01*
X37781Y185411D01*
X37857Y185432D01*
X37928Y185464D01*
X37994Y185507D01*
X38052Y185560D01*
X38100Y185622D01*
X38139Y185690D01*
X38167Y185763D01*
X38183Y185840D01*
X38186Y185919D01*
X38177Y185997D01*
X38156Y186073D01*
X38124Y186144D01*
X38003Y186387D01*
X37905Y186640D01*
X37830Y186900D01*
X37779Y187167D01*
X37752Y187437D01*
X37749Y187708D01*
X37772Y187978D01*
X37818Y188245D01*
X37889Y188507D01*
X37982Y188762D01*
X38099Y189007D01*
X38129Y189080D01*
X38149Y189156D01*
X38156Y189234D01*
X38151Y189312D01*
X38134Y189388D01*
X38106Y189461D01*
X38066Y189529D01*
X38016Y189589D01*
X37957Y189641D01*
X37891Y189683D01*
X37819Y189714D01*
X37743Y189734D01*
X37665Y189741D01*
X37587Y189736D01*
X37511Y189719D01*
X37468Y189703D01*
Y195319D01*
G37*
G36*
Y203640D02*X37592Y203610D01*
X37748Y203598D01*
X40748Y203604D01*
Y201598D01*
X40122Y201549D01*
X39512Y201402D01*
X38932Y201162D01*
X38397Y200834D01*
X37920Y200426D01*
X37512Y199949D01*
X37468Y199877D01*
Y203640D01*
G37*
G36*
Y213067D02*X40748D01*
Y211592D01*
X37592Y211586D01*
X37468Y211556D01*
Y213067D01*
G37*
G36*
X0Y216141D02*X9267D01*
X9155Y215958D01*
X8710Y214885D01*
X8439Y213756D01*
X8348Y212598D01*
X8439Y211440D01*
X8710Y210311D01*
X9155Y209238D01*
X9761Y208248D01*
X10515Y207365D01*
X11398Y206611D01*
X12388Y206005D01*
X13343Y205609D01*
X9520Y201404D01*
X9473Y201343D01*
X9416Y201276D01*
X9392Y201237D01*
X9377Y201217D01*
X9349Y201166D01*
X9293Y201075D01*
X9276Y201035D01*
X9263Y201011D01*
X9245Y200960D01*
X9202Y200858D01*
X9189Y200804D01*
X9184Y200790D01*
X9178Y200758D01*
X9147Y200629D01*
X9143Y200572D01*
X9140Y200558D01*
X9139Y200515D01*
X9129Y200394D01*
Y191339D01*
X9148Y191104D01*
X9203Y190875D01*
X9293Y190658D01*
X9416Y190457D01*
X9569Y190278D01*
X9576Y190272D01*
X13894Y185954D01*
X13900Y185947D01*
X14079Y185794D01*
X14280Y185671D01*
X14497Y185581D01*
X14726Y185526D01*
X14961Y185508D01*
X15756D01*
X15845Y185362D01*
X16130Y185028D01*
X16464Y184743D01*
X16839Y184513D01*
X17245Y184345D01*
X17672Y184242D01*
X18110Y184208D01*
X18548Y184242D01*
X18975Y184345D01*
X19381Y184513D01*
X19756Y184743D01*
X20090Y185028D01*
X20142Y185088D01*
X20172Y184962D01*
X20340Y184556D01*
X20570Y184181D01*
X20855Y183847D01*
X21189Y183562D01*
X21564Y183332D01*
X21970Y183164D01*
X22397Y183061D01*
X22835Y183027D01*
X23273Y183061D01*
X23700Y183164D01*
X24106Y183332D01*
X24481Y183562D01*
X24815Y183847D01*
X25100Y184181D01*
X25190Y184327D01*
X26772D01*
X27007Y184345D01*
X27236Y184400D01*
X27453Y184490D01*
X27654Y184613D01*
X27833Y184766D01*
X27845Y184780D01*
X32937Y189872D01*
X32951Y189884D01*
X33104Y190063D01*
X33227Y190264D01*
X33317Y190481D01*
X33372Y190710D01*
X33390Y190945D01*
Y201152D01*
X34708Y202470D01*
X34722Y202482D01*
X34875Y202661D01*
X34998Y202862D01*
X35088Y203079D01*
X35143Y203308D01*
X35161Y203543D01*
Y208669D01*
X35307Y208759D01*
X35641Y209044D01*
X35926Y209378D01*
X36156Y209753D01*
X36324Y210159D01*
X36427Y210586D01*
X36461Y211024D01*
X36427Y211462D01*
X36324Y211889D01*
X36156Y212295D01*
X35926Y212670D01*
X35641Y213004D01*
X35567Y213067D01*
X37468D01*
Y211556D01*
X37439Y211549D01*
X37294Y211489D01*
X37160Y211407D01*
X37041Y211305D01*
X36939Y211186D01*
X36857Y211052D01*
X36797Y210907D01*
X36760Y210754D01*
X36748Y210598D01*
X36760Y204442D01*
X36797Y204289D01*
X36857Y204144D01*
X36939Y204010D01*
X37041Y203891D01*
X37160Y203789D01*
X37294Y203707D01*
X37439Y203647D01*
X37468Y203640D01*
Y199877D01*
X37184Y199414D01*
X36944Y198834D01*
X36797Y198224D01*
X36748Y197598D01*
X36797Y196972D01*
X36944Y196362D01*
X37184Y195782D01*
X37468Y195319D01*
Y189703D01*
X37438Y189691D01*
X37370Y189651D01*
X37310Y189601D01*
X37258Y189542D01*
X37216Y189476D01*
X37061Y189150D01*
X36936Y188810D01*
X36842Y188461D01*
X36780Y188105D01*
X36750Y187744D01*
X36753Y187383D01*
X36789Y187023D01*
X36857Y186668D01*
X36957Y186320D01*
X37088Y185983D01*
X37249Y185659D01*
X37291Y185594D01*
X37344Y185536D01*
X37406Y185488D01*
X37468Y185452D01*
Y180205D01*
X37350Y180067D01*
X37006Y179505D01*
X36754Y178896D01*
X36600Y178255D01*
X36548Y177598D01*
X36600Y176941D01*
X36754Y176300D01*
X36909Y175926D01*
X31364Y170472D01*
X24593D01*
X24532Y170664D01*
X24206Y171452D01*
X23813Y172207D01*
X23355Y172926D01*
X22836Y173602D01*
X22261Y174231D01*
X22109Y174370D01*
X22485Y174399D01*
X22912Y174502D01*
X23318Y174670D01*
X23693Y174900D01*
X24027Y175185D01*
X24312Y175519D01*
X24542Y175894D01*
X24710Y176300D01*
X24813Y176727D01*
X24847Y177165D01*
X24813Y177603D01*
X24710Y178030D01*
X24542Y178436D01*
X24312Y178811D01*
X24027Y179145D01*
X23693Y179430D01*
X23318Y179660D01*
X22912Y179828D01*
X22485Y179931D01*
X22047Y179965D01*
X21609Y179931D01*
X21182Y179828D01*
X20776Y179660D01*
X20401Y179430D01*
X20362Y179397D01*
X16815Y182944D01*
X16809Y182951D01*
X16630Y183104D01*
X16429Y183227D01*
X16212Y183317D01*
X15983Y183372D01*
X15749Y183390D01*
X11811D01*
X11576Y183372D01*
X11347Y183317D01*
X11130Y183227D01*
X10929Y183104D01*
X10750Y182951D01*
X9175Y181376D01*
X9022Y181197D01*
X8899Y180996D01*
X8808Y180779D01*
X8753Y180550D01*
X8735Y180315D01*
Y174593D01*
X8563Y174873D01*
X8278Y175207D01*
X7944Y175492D01*
X7570Y175722D01*
X7164Y175890D01*
X6737Y175993D01*
X6299Y176027D01*
X5861Y175993D01*
X5666Y175946D01*
X5807Y176111D01*
X6037Y176485D01*
X6205Y176891D01*
X6308Y177318D01*
X6342Y177756D01*
X6308Y178194D01*
X6205Y178621D01*
X6037Y179027D01*
X5807Y179401D01*
X5522Y179735D01*
X5188Y180020D01*
X4814Y180250D01*
X4408Y180418D01*
X3981Y180521D01*
X3543Y180555D01*
X3105Y180521D01*
X2678Y180418D01*
X2272Y180250D01*
X1898Y180020D01*
X1564Y179735D01*
X1279Y179401D01*
X1049Y179027D01*
X881Y178621D01*
X778Y178194D01*
X744Y177756D01*
X778Y177318D01*
X881Y176891D01*
X1049Y176485D01*
X1255Y176150D01*
Y170472D01*
X0D01*
Y216141D01*
G37*
G36*
X78580Y183662D02*X82087D01*
Y170276D01*
X78580D01*
Y175518D01*
X80452Y175525D01*
X80620Y175565D01*
X80779Y175631D01*
X80927Y175721D01*
X81058Y175833D01*
X81170Y175964D01*
X81260Y176112D01*
X81326Y176271D01*
X81366Y176439D01*
X81380Y176611D01*
X81366Y180783D01*
X81326Y180951D01*
X81260Y181110D01*
X81170Y181258D01*
X81058Y181389D01*
X80927Y181501D01*
X80779Y181591D01*
X80620Y181657D01*
X80452Y181697D01*
X80280Y181711D01*
X78580Y181704D01*
Y183662D01*
G37*
G36*
X69724D02*X78580D01*
Y181704D01*
X76708Y181697D01*
X76540Y181657D01*
X76381Y181591D01*
X76233Y181501D01*
X76102Y181389D01*
X75990Y181258D01*
X75900Y181110D01*
X75834Y180951D01*
X75794Y180783D01*
X75780Y180611D01*
X75794Y176439D01*
X75834Y176271D01*
X75900Y176112D01*
X75990Y175964D01*
X76102Y175833D01*
X76233Y175721D01*
X76381Y175631D01*
X76540Y175565D01*
X76708Y175525D01*
X76880Y175511D01*
X78580Y175518D01*
Y170276D01*
X69724D01*
Y183662D01*
G37*
G36*
X86380D02*X93504D01*
Y170276D01*
X86380D01*
Y175518D01*
X88252Y175525D01*
X88420Y175565D01*
X88579Y175631D01*
X88727Y175721D01*
X88858Y175833D01*
X88970Y175964D01*
X89060Y176112D01*
X89126Y176271D01*
X89166Y176439D01*
X89180Y176611D01*
X89166Y180783D01*
X89126Y180951D01*
X89060Y181110D01*
X88970Y181258D01*
X88858Y181389D01*
X88727Y181501D01*
X88579Y181591D01*
X88420Y181657D01*
X88252Y181697D01*
X88080Y181711D01*
X86380Y181704D01*
Y183662D01*
G37*
G36*
X82913D02*X86380D01*
Y181704D01*
X84508Y181697D01*
X84340Y181657D01*
X84181Y181591D01*
X84033Y181501D01*
X83902Y181389D01*
X83790Y181258D01*
X83700Y181110D01*
X83634Y180951D01*
X83594Y180783D01*
X83580Y180611D01*
X83594Y176439D01*
X83634Y176271D01*
X83700Y176112D01*
X83790Y175964D01*
X83902Y175833D01*
X84033Y175721D01*
X84181Y175631D01*
X84340Y175565D01*
X84508Y175525D01*
X84680Y175511D01*
X86380Y175518D01*
Y170276D01*
X82913D01*
Y183662D01*
G37*
G36*
X50787Y207480D02*Y212992D01*
X51816D01*
X52279Y212529D01*
X52285Y212522D01*
X52464Y212369D01*
X52665Y212246D01*
X52882Y212156D01*
X53111Y212101D01*
X53346Y212083D01*
X59259D01*
X59349Y211937D01*
X59634Y211603D01*
X59968Y211318D01*
X60343Y211088D01*
X60749Y210920D01*
X61176Y210817D01*
X61614Y210783D01*
X62052Y210817D01*
X62479Y210920D01*
X62885Y211088D01*
X63260Y211318D01*
X63594Y211603D01*
X63879Y211937D01*
X64109Y212312D01*
X64277Y212718D01*
X64343Y212992D01*
X68504D01*
Y210371D01*
X68345Y210469D01*
X68019Y210604D01*
X67676Y210687D01*
X67324Y210714D01*
X66972Y210687D01*
X66629Y210604D01*
X66302Y210469D01*
X66001Y210285D01*
X65733Y210056D01*
X65504Y209788D01*
X65319Y209487D01*
X65184Y209161D01*
X65101Y208818D01*
X65074Y208466D01*
X65101Y208114D01*
X65184Y207771D01*
X65304Y207480D01*
X50787D01*
G37*
G36*
X0Y236220D02*X165354D01*
Y212992D01*
X134348D01*
X140639Y219283D01*
X140760Y219423D01*
X140857Y219581D01*
X140928Y219753D01*
X140972Y219933D01*
X140986Y220118D01*
X140985Y220131D01*
Y222099D01*
X141033Y222155D01*
X141083Y222238D01*
X141134Y222155D01*
X141215Y222061D01*
X141309Y221980D01*
X141414Y221916D01*
X141528Y221869D01*
X141649Y221840D01*
X141772Y221830D01*
X143077Y221840D01*
X143198Y221869D01*
X143312Y221916D01*
X143417Y221980D01*
X143511Y222061D01*
X143592Y222155D01*
X143642Y222238D01*
X143693Y222155D01*
X143774Y222061D01*
X143868Y221980D01*
X143973Y221916D01*
X144087Y221869D01*
X144208Y221840D01*
X144331Y221830D01*
X145636Y221840D01*
X145757Y221869D01*
X145871Y221916D01*
X145976Y221980D01*
X146070Y222061D01*
X146151Y222155D01*
X146201Y222238D01*
X146252Y222155D01*
X146333Y222061D01*
X146427Y221980D01*
X146532Y221916D01*
X146646Y221869D01*
X146767Y221840D01*
X146890Y221830D01*
X148195Y221840D01*
X148316Y221869D01*
X148430Y221916D01*
X148535Y221980D01*
X148629Y222061D01*
X148710Y222155D01*
X148760Y222238D01*
X148811Y222155D01*
X148892Y222061D01*
X148986Y221980D01*
X149091Y221916D01*
X149205Y221869D01*
X149326Y221840D01*
X149449Y221830D01*
X150754Y221840D01*
X150875Y221869D01*
X150989Y221916D01*
X151094Y221980D01*
X151188Y222061D01*
X151269Y222155D01*
X151319Y222238D01*
X151370Y222155D01*
X151451Y222061D01*
X151545Y221980D01*
X151650Y221916D01*
X151764Y221869D01*
X151885Y221840D01*
X152008Y221830D01*
X153313Y221840D01*
X153434Y221869D01*
X153548Y221916D01*
X153653Y221980D01*
X153747Y222061D01*
X153828Y222155D01*
X153892Y222260D01*
X153939Y222374D01*
X153968Y222495D01*
X153978Y222618D01*
X153968Y227269D01*
X153939Y227390D01*
X153892Y227504D01*
X153828Y227609D01*
X153780Y227665D01*
Y228371D01*
X153918Y228428D01*
X154260Y228638D01*
X154565Y228899D01*
X154826Y229204D01*
X155036Y229546D01*
X155190Y229917D01*
X155283Y230308D01*
X155315Y230708D01*
X155283Y231108D01*
X155190Y231499D01*
X155036Y231870D01*
X154826Y232212D01*
X154565Y232517D01*
X154260Y232778D01*
X153918Y232988D01*
X153547Y233142D01*
X153156Y233235D01*
X152756Y233267D01*
X152356Y233235D01*
X151965Y233142D01*
X151594Y232988D01*
X151252Y232778D01*
X150947Y232517D01*
X150686Y232212D01*
X150590Y232056D01*
X150495Y232212D01*
X150234Y232517D01*
X149929Y232778D01*
X149587Y232988D01*
X149216Y233142D01*
X148825Y233235D01*
X148425Y233267D01*
X148025Y233235D01*
X147634Y233142D01*
X147263Y232988D01*
X146921Y232778D01*
X146616Y232517D01*
X146355Y232212D01*
X146145Y231870D01*
X145991Y231499D01*
X145898Y231108D01*
X145866Y230708D01*
X145898Y230308D01*
X145991Y229917D01*
X146145Y229546D01*
X146355Y229204D01*
X146616Y228899D01*
X146921Y228638D01*
X147263Y228428D01*
X147634Y228274D01*
X148025Y228181D01*
X148425Y228149D01*
X148825Y228181D01*
X148858Y228189D01*
Y227664D01*
X148811Y227609D01*
X148761Y227526D01*
X148710Y227609D01*
X148629Y227703D01*
X148535Y227784D01*
X148430Y227848D01*
X148316Y227895D01*
X148195Y227924D01*
X148072Y227934D01*
X146767Y227924D01*
X146646Y227895D01*
X146532Y227848D01*
X146427Y227784D01*
X146333Y227703D01*
X146252Y227609D01*
X146202Y227526D01*
X146151Y227609D01*
X146070Y227703D01*
X145976Y227784D01*
X145871Y227848D01*
X145757Y227895D01*
X145636Y227924D01*
X145513Y227934D01*
X144208Y227924D01*
X144087Y227895D01*
X143973Y227848D01*
X143868Y227784D01*
X143774Y227703D01*
X143693Y227609D01*
X143643Y227526D01*
X143592Y227609D01*
X143511Y227703D01*
X143463Y227744D01*
X143415Y227859D01*
X143318Y228017D01*
X143198Y228158D01*
X141787Y229569D01*
X141781Y229576D01*
X141640Y229696D01*
X141482Y229793D01*
X141361Y229843D01*
X141311Y229864D01*
X141131Y229907D01*
X140946Y229922D01*
X134347D01*
X133913Y230356D01*
X133907Y230363D01*
X133766Y230483D01*
X133608Y230580D01*
X133487Y230630D01*
X133437Y230651D01*
X133257Y230694D01*
X133072Y230709D01*
X118206D01*
X115402Y233513D01*
X115262Y233632D01*
X115104Y233729D01*
X114933Y233801D01*
X114753Y233844D01*
X114568Y233859D01*
X114556Y233858D01*
X104630D01*
X104432Y234181D01*
X104171Y234486D01*
X103866Y234747D01*
X103524Y234957D01*
X103153Y235111D01*
X102762Y235204D01*
X102362Y235236D01*
X101962Y235204D01*
X101571Y235111D01*
X101200Y234957D01*
X100858Y234747D01*
X100553Y234486D01*
X100292Y234181D01*
X100082Y233839D01*
X99928Y233468D01*
X99835Y233077D01*
X99803Y232677D01*
X99835Y232277D01*
X99928Y231886D01*
X100082Y231515D01*
X100292Y231173D01*
X100553Y230868D01*
X100858Y230607D01*
X101200Y230397D01*
X101571Y230243D01*
X101962Y230150D01*
X102362Y230118D01*
X102762Y230150D01*
X103153Y230243D01*
X103524Y230397D01*
X103866Y230607D01*
X104171Y230868D01*
X104432Y231173D01*
X104631Y231497D01*
X114076D01*
X116881Y228692D01*
X117023Y228571D01*
X117181Y228474D01*
X117353Y228403D01*
X117533Y228360D01*
X117718Y228345D01*
X117730Y228346D01*
X132581D01*
X133022Y227905D01*
X133121Y227820D01*
X133076Y227848D01*
X132962Y227895D01*
X132841Y227924D01*
X132718Y227934D01*
X131413Y227924D01*
X131292Y227895D01*
X131178Y227848D01*
X131073Y227784D01*
X130979Y227703D01*
X130898Y227609D01*
X130848Y227526D01*
X130797Y227609D01*
X130716Y227703D01*
X130622Y227784D01*
X130517Y227848D01*
X130403Y227895D01*
X130282Y227924D01*
X130159Y227934D01*
X128854Y227924D01*
X128733Y227895D01*
X128619Y227848D01*
X128514Y227784D01*
X128420Y227703D01*
X128339Y227609D01*
X128289Y227526D01*
X128238Y227609D01*
X128157Y227703D01*
X128063Y227784D01*
X127958Y227848D01*
X127844Y227895D01*
X127723Y227924D01*
X127600Y227934D01*
X126295Y227924D01*
X126174Y227895D01*
X126060Y227848D01*
X125955Y227784D01*
X125861Y227703D01*
X125780Y227609D01*
X125730Y227526D01*
X125679Y227609D01*
X125598Y227703D01*
X125504Y227784D01*
X125399Y227848D01*
X125285Y227895D01*
X125164Y227924D01*
X125041Y227934D01*
X123736Y227924D01*
X123615Y227895D01*
X123501Y227848D01*
X123396Y227784D01*
X123302Y227703D01*
X123221Y227609D01*
X123171Y227526D01*
X123120Y227609D01*
X123039Y227703D01*
X122945Y227784D01*
X122840Y227848D01*
X122726Y227895D01*
X122605Y227924D01*
X122482Y227934D01*
X121177Y227924D01*
X121056Y227895D01*
X120942Y227848D01*
X120837Y227784D01*
X120743Y227703D01*
X120662Y227609D01*
X120612Y227526D01*
X120561Y227609D01*
X120480Y227703D01*
X120386Y227784D01*
X120281Y227848D01*
X120167Y227895D01*
X120046Y227924D01*
X119923Y227934D01*
X118618Y227924D01*
X118497Y227895D01*
X118383Y227848D01*
X118278Y227784D01*
X118184Y227703D01*
X118103Y227609D01*
X118053Y227526D01*
X118002Y227609D01*
X117921Y227703D01*
X117827Y227784D01*
X117722Y227848D01*
X117608Y227895D01*
X117487Y227924D01*
X117364Y227934D01*
X116059Y227924D01*
X115938Y227895D01*
X115824Y227848D01*
X115719Y227784D01*
X115625Y227703D01*
X115544Y227609D01*
X115494Y227526D01*
X115443Y227609D01*
X115362Y227703D01*
X115268Y227784D01*
X115163Y227848D01*
X115049Y227895D01*
X114928Y227924D01*
X114805Y227934D01*
X113500Y227924D01*
X113379Y227895D01*
X113265Y227848D01*
X113160Y227784D01*
X113066Y227703D01*
X112985Y227609D01*
X112935Y227526D01*
X112884Y227609D01*
X112803Y227703D01*
X112709Y227784D01*
X112604Y227848D01*
X112490Y227895D01*
X112369Y227924D01*
X112246Y227934D01*
X110941Y227924D01*
X110820Y227895D01*
X110706Y227848D01*
X110601Y227784D01*
X110507Y227703D01*
X110426Y227609D01*
X110376Y227526D01*
X110325Y227609D01*
X110244Y227703D01*
X110150Y227784D01*
X110045Y227848D01*
X109931Y227895D01*
X109810Y227924D01*
X109687Y227934D01*
X108382Y227924D01*
X108261Y227895D01*
X108147Y227848D01*
X108042Y227784D01*
X107948Y227703D01*
X107867Y227609D01*
X107816Y227526D01*
X107766Y227609D01*
X107685Y227703D01*
X107591Y227784D01*
X107486Y227848D01*
X107372Y227895D01*
X107251Y227924D01*
X107128Y227934D01*
X105823Y227924D01*
X105702Y227895D01*
X105588Y227848D01*
X105483Y227784D01*
X105389Y227703D01*
X105308Y227609D01*
X105244Y227504D01*
X105197Y227390D01*
X105168Y227269D01*
X105158Y227146D01*
X105168Y222495D01*
X105197Y222374D01*
X105244Y222260D01*
X105308Y222155D01*
X105389Y222061D01*
X105483Y221980D01*
X105588Y221916D01*
X105702Y221869D01*
X105823Y221840D01*
X105946Y221830D01*
X107251Y221840D01*
X107372Y221869D01*
X107486Y221916D01*
X107591Y221980D01*
X107685Y222061D01*
X107766Y222155D01*
X107817Y222238D01*
X107867Y222155D01*
X107948Y222061D01*
X108042Y221980D01*
X108147Y221916D01*
X108261Y221869D01*
X108382Y221840D01*
X108505Y221830D01*
X109810Y221840D01*
X109931Y221869D01*
X110045Y221916D01*
X110150Y221980D01*
X110244Y222061D01*
X110325Y222155D01*
X110375Y222238D01*
X110426Y222155D01*
X110507Y222061D01*
X110601Y221980D01*
X110706Y221916D01*
X110820Y221869D01*
X110941Y221840D01*
X111064Y221830D01*
X112369Y221840D01*
X112490Y221869D01*
X112604Y221916D01*
X112709Y221980D01*
X112803Y222061D01*
X112884Y222155D01*
X112934Y222238D01*
X112985Y222155D01*
X113066Y222061D01*
X113160Y221980D01*
X113265Y221916D01*
X113379Y221869D01*
X113500Y221840D01*
X113623Y221830D01*
X114928Y221840D01*
X115049Y221869D01*
X115163Y221916D01*
X115268Y221980D01*
X115362Y222061D01*
X115443Y222155D01*
X115493Y222238D01*
X115544Y222155D01*
X115625Y222061D01*
X115719Y221980D01*
X115824Y221916D01*
X115938Y221869D01*
X116059Y221840D01*
X116182Y221830D01*
X117487Y221840D01*
X117608Y221869D01*
X117722Y221916D01*
X117827Y221980D01*
X117921Y222061D01*
X118002Y222155D01*
X118052Y222238D01*
X118103Y222155D01*
X118184Y222061D01*
X118278Y221980D01*
X118383Y221916D01*
X118497Y221869D01*
X118618Y221840D01*
X118741Y221830D01*
X120046Y221840D01*
X120167Y221869D01*
X120281Y221916D01*
X120386Y221980D01*
X120480Y222061D01*
X120561Y222155D01*
X120611Y222238D01*
X120662Y222155D01*
X120743Y222061D01*
X120837Y221980D01*
X120942Y221916D01*
X121056Y221869D01*
X121177Y221840D01*
X121300Y221830D01*
X122605Y221840D01*
X122726Y221869D01*
X122840Y221916D01*
X122945Y221980D01*
X123039Y222061D01*
X123120Y222155D01*
X123170Y222238D01*
X123221Y222155D01*
X123302Y222061D01*
X123396Y221980D01*
X123501Y221916D01*
X123615Y221869D01*
X123736Y221840D01*
X123859Y221830D01*
X125164Y221840D01*
X125285Y221869D01*
X125399Y221916D01*
X125504Y221980D01*
X125598Y222061D01*
X125679Y222155D01*
X125729Y222238D01*
X125780Y222155D01*
X125861Y222061D01*
X125955Y221980D01*
X126060Y221916D01*
X126174Y221869D01*
X126295Y221840D01*
X126418Y221830D01*
X127723Y221840D01*
X127844Y221869D01*
X127958Y221916D01*
X128063Y221980D01*
X128157Y222061D01*
X128238Y222155D01*
X128288Y222238D01*
X128339Y222155D01*
X128387Y222099D01*
Y221003D01*
X127069Y219685D01*
X95765D01*
X95323Y220127D01*
X95183Y220246D01*
X95025Y220343D01*
X94854Y220415D01*
X94674Y220458D01*
X94489Y220473D01*
X94477Y220472D01*
X92139D01*
X92126Y220473D01*
X91941Y220459D01*
X91761Y220415D01*
X91589Y220344D01*
X91431Y220247D01*
X91290Y220127D01*
X89321Y218158D01*
X89202Y218016D01*
X89105Y217858D01*
X89034Y217687D01*
X88991Y217507D01*
X88976Y217322D01*
Y215450D01*
X69339Y235086D01*
X69199Y235205D01*
X69041Y235302D01*
X68870Y235374D01*
X68690Y235417D01*
X68505Y235432D01*
X68493Y235431D01*
X32454Y235432D01*
X32441Y235433D01*
X32256Y235419D01*
X32076Y235375D01*
X31904Y235304D01*
X31746Y235207D01*
X31605Y235087D01*
X29549Y233031D01*
X29366Y233143D01*
X28714Y233413D01*
X28027Y233578D01*
X27323Y233633D01*
X26619Y233578D01*
X25932Y233413D01*
X25389Y233188D01*
X23272Y235305D01*
X23266Y235312D01*
X23087Y235465D01*
X22886Y235588D01*
X22669Y235679D01*
X22440Y235734D01*
X22205Y235752D01*
X12598D01*
X12363Y235733D01*
X12134Y235678D01*
X11917Y235588D01*
X11716Y235465D01*
X11537Y235312D01*
X9972Y233747D01*
X8748D01*
X8742Y233770D01*
X8683Y233913D01*
X8602Y234044D01*
X8502Y234162D01*
X8384Y234262D01*
X8253Y234343D01*
X8110Y234402D01*
X7960Y234438D01*
X7806Y234450D01*
X3852Y234438D01*
X3702Y234402D01*
X3559Y234343D01*
X3428Y234262D01*
X3310Y234162D01*
X3210Y234044D01*
X3129Y233913D01*
X3070Y233770D01*
X3034Y233620D01*
X3022Y233466D01*
X3034Y230480D01*
X3070Y230330D01*
X3129Y230187D01*
X3210Y230056D01*
X3310Y229938D01*
X3428Y229838D01*
X3559Y229757D01*
X3702Y229698D01*
X3852Y229662D01*
X4006Y229650D01*
X7960Y229662D01*
X8110Y229698D01*
X8253Y229757D01*
X8384Y229838D01*
X8502Y229938D01*
X8602Y230056D01*
X8683Y230187D01*
X8742Y230330D01*
X8778Y230480D01*
X8790Y230634D01*
Y230747D01*
X10594D01*
X10829Y230765D01*
X11058Y230820D01*
X11275Y230910D01*
X11476Y231033D01*
X11655Y231186D01*
X11667Y231200D01*
X12843Y232376D01*
X12841Y232368D01*
X12823Y232133D01*
X12835Y227914D01*
X8747D01*
X8742Y227936D01*
X8683Y228079D01*
X8602Y228210D01*
X8502Y228328D01*
X8384Y228428D01*
X8253Y228509D01*
X8110Y228568D01*
X7960Y228604D01*
X7806Y228616D01*
X3852Y228604D01*
X3702Y228568D01*
X3559Y228509D01*
X3428Y228428D01*
X3310Y228328D01*
X3210Y228210D01*
X3129Y228079D01*
X3070Y227936D01*
X3034Y227786D01*
X3022Y227632D01*
X3034Y224646D01*
X3070Y224496D01*
X3129Y224353D01*
X3210Y224222D01*
X3310Y224104D01*
X3428Y224004D01*
X3559Y223923D01*
X3702Y223864D01*
X3852Y223828D01*
X4006Y223816D01*
X7960Y223828D01*
X8110Y223864D01*
X8253Y223923D01*
X8384Y224004D01*
X8502Y224104D01*
X8602Y224222D01*
X8683Y224353D01*
X8742Y224496D01*
X8778Y224646D01*
X8790Y224800D01*
Y224913D01*
X13451D01*
X13642Y224796D01*
X13859Y224706D01*
X14088Y224651D01*
X14323Y224633D01*
X20558Y224651D01*
X20787Y224706D01*
X21004Y224796D01*
X21205Y224919D01*
X21384Y225072D01*
X21537Y225251D01*
X21660Y225452D01*
X21750Y225669D01*
X21805Y225898D01*
X21823Y226133D01*
X21805Y232368D01*
X21754Y232581D01*
X23268Y231067D01*
X23043Y230524D01*
X22878Y229837D01*
X22823Y229133D01*
X22878Y228429D01*
X23043Y227742D01*
X23313Y227090D01*
X23682Y226488D01*
X24141Y225951D01*
X24678Y225492D01*
X25280Y225123D01*
X25932Y224853D01*
X26619Y224688D01*
X27323Y224633D01*
X28027Y224688D01*
X28714Y224853D01*
X29366Y225123D01*
X29968Y225492D01*
X30505Y225951D01*
X30964Y226488D01*
X31333Y227090D01*
X31603Y227742D01*
X31768Y228429D01*
X31823Y229133D01*
X31768Y229837D01*
X31603Y230524D01*
X31333Y231176D01*
X31220Y231360D01*
X32931Y233071D01*
X35162D01*
X34678Y232774D01*
X34141Y232315D01*
X33682Y231778D01*
X33313Y231176D01*
X33043Y230524D01*
X32878Y229837D01*
X32823Y229133D01*
X32878Y228429D01*
X33043Y227742D01*
X33313Y227090D01*
X33682Y226488D01*
X34141Y225951D01*
X34678Y225492D01*
X35280Y225123D01*
X35932Y224853D01*
X36619Y224688D01*
X37323Y224633D01*
X38027Y224688D01*
X38714Y224853D01*
X39366Y225123D01*
X39550Y225235D01*
X41211Y223574D01*
X41353Y223453D01*
X41511Y223356D01*
X41683Y223285D01*
X41863Y223242D01*
X42048Y223227D01*
X42060Y223228D01*
X48819D01*
X49004Y223243D01*
X49184Y223286D01*
X49355Y223357D01*
X49513Y223454D01*
X49654Y223574D01*
X53591Y227511D01*
X53712Y227651D01*
X53809Y227809D01*
X53880Y227981D01*
X53924Y228161D01*
X53938Y228346D01*
X53937Y228359D01*
Y230613D01*
X54427Y231103D01*
X67619D01*
X85729Y212992D01*
X64343D01*
X64380Y213145D01*
X64414Y213583D01*
X64380Y214021D01*
X64277Y214448D01*
X64109Y214854D01*
X63879Y215229D01*
X63594Y215563D01*
X63260Y215848D01*
X62885Y216078D01*
X62479Y216246D01*
X62052Y216349D01*
X61614Y216383D01*
X61236Y216354D01*
X61265Y216732D01*
X61231Y217170D01*
X61128Y217597D01*
X60960Y218003D01*
X60730Y218378D01*
X60445Y218712D01*
X60111Y218997D01*
X59736Y219227D01*
X59330Y219395D01*
X58903Y219498D01*
X58465Y219532D01*
X58086Y219503D01*
X58115Y219882D01*
X58081Y220320D01*
X57978Y220747D01*
X57810Y221153D01*
X57580Y221528D01*
X57295Y221862D01*
X56961Y222147D01*
X56586Y222377D01*
X56180Y222545D01*
X55753Y222648D01*
X55315Y222682D01*
X54877Y222648D01*
X54450Y222545D01*
X54044Y222377D01*
X53669Y222147D01*
X53335Y221862D01*
X53050Y221528D01*
X52960Y221382D01*
X23622D01*
X23387Y221364D01*
X23158Y221309D01*
X22941Y221219D01*
X22740Y221096D01*
X22561Y220943D01*
X22408Y220764D01*
X22285Y220563D01*
X22195Y220346D01*
X22140Y220117D01*
X22122Y219882D01*
X22130Y219778D01*
Y216303D01*
X21735Y216948D01*
X20981Y217831D01*
X20098Y218585D01*
X19108Y219191D01*
X18035Y219636D01*
X16906Y219907D01*
X15748Y219998D01*
X14590Y219907D01*
X13461Y219636D01*
X12388Y219191D01*
X11398Y218585D01*
X10515Y217831D01*
X9761Y216948D01*
X9155Y215958D01*
X8710Y214885D01*
X8439Y213756D01*
X8379Y212992D01*
X0D01*
Y236220D01*
G37*
G36*
X82046Y212008D02*Y198622D01*
X78580D01*
Y200579D01*
X80452Y200586D01*
X80620Y200626D01*
X80779Y200692D01*
X80927Y200782D01*
X81058Y200894D01*
X81170Y201025D01*
X81260Y201173D01*
X81326Y201332D01*
X81366Y201500D01*
X81380Y201672D01*
X81366Y205844D01*
X81326Y206012D01*
X81260Y206171D01*
X81170Y206319D01*
X81058Y206450D01*
X80927Y206562D01*
X80779Y206652D01*
X80620Y206718D01*
X80452Y206758D01*
X80280Y206772D01*
X78580Y206765D01*
Y212008D01*
X82046D01*
G37*
G36*
X78580Y198622D02*X72919D01*
Y205119D01*
X72892Y205471D01*
X72810Y205815D01*
X72675Y206141D01*
X72490Y206442D01*
X72261Y206711D01*
X72241Y206728D01*
X69684Y209285D01*
Y212008D01*
X78580D01*
Y206765D01*
X76708Y206758D01*
X76540Y206718D01*
X76381Y206652D01*
X76233Y206562D01*
X76102Y206450D01*
X75990Y206319D01*
X75900Y206171D01*
X75834Y206012D01*
X75794Y205844D01*
X75780Y205672D01*
X75794Y201500D01*
X75834Y201332D01*
X75900Y201173D01*
X75990Y201025D01*
X76102Y200894D01*
X76233Y200782D01*
X76381Y200692D01*
X76540Y200626D01*
X76708Y200586D01*
X76880Y200572D01*
X78580Y200579D01*
Y198622D01*
G37*
G36*
X86380Y212008D02*X86713D01*
X90158Y208563D01*
Y203937D01*
X90159Y203922D01*
X90172Y203754D01*
X90215Y203573D01*
X90286Y203402D01*
X90383Y203244D01*
X90503Y203103D01*
X92471Y201134D01*
X92472D01*
Y201133D01*
X92613Y201013D01*
X92771Y200916D01*
X92942Y200845D01*
X93122Y200802D01*
X93288Y200789D01*
X93011Y200464D01*
X92781Y200089D01*
X92613Y199683D01*
X92510Y199256D01*
X92476Y198818D01*
X92491Y198622D01*
X86380D01*
Y200579D01*
X88252Y200586D01*
X88420Y200626D01*
X88579Y200692D01*
X88727Y200782D01*
X88858Y200894D01*
X88970Y201025D01*
X89060Y201173D01*
X89126Y201332D01*
X89166Y201500D01*
X89180Y201672D01*
X89166Y205844D01*
X89126Y206012D01*
X89060Y206171D01*
X88970Y206319D01*
X88858Y206450D01*
X88727Y206562D01*
X88579Y206652D01*
X88420Y206718D01*
X88252Y206758D01*
X88080Y206772D01*
X86380Y206765D01*
Y212008D01*
G37*
G36*
X82913D02*X86380D01*
Y206765D01*
X84508Y206758D01*
X84340Y206718D01*
X84181Y206652D01*
X84033Y206562D01*
X83902Y206450D01*
X83790Y206319D01*
X83700Y206171D01*
X83634Y206012D01*
X83594Y205844D01*
X83580Y205672D01*
X83594Y201500D01*
X83634Y201332D01*
X83700Y201173D01*
X83790Y201025D01*
X83902Y200894D01*
X84033Y200782D01*
X84181Y200692D01*
X84340Y200626D01*
X84508Y200586D01*
X84680Y200572D01*
X86380Y200579D01*
Y198622D01*
X82913D01*
Y212008D01*
G37*
G36*
X95669Y196049D02*Y186221D01*
X85275D01*
X85266Y188983D01*
X85226Y189151D01*
X85160Y189310D01*
X85070Y189458D01*
X84958Y189589D01*
X84827Y189701D01*
X84679Y189791D01*
X84520Y189857D01*
X84352Y189897D01*
X84180Y189911D01*
X80608Y189897D01*
X80440Y189857D01*
X80281Y189791D01*
X80133Y189701D01*
X80002Y189589D01*
X79890Y189458D01*
X79800Y189310D01*
X79734Y189151D01*
X79694Y188983D01*
X79680Y188811D01*
X79689Y186221D01*
X69685D01*
Y196063D01*
X79685D01*
X79694Y193300D01*
X79734Y193132D01*
X79800Y192973D01*
X79890Y192825D01*
X80002Y192694D01*
X80133Y192582D01*
X80281Y192492D01*
X80440Y192426D01*
X80608Y192386D01*
X80780Y192372D01*
X84352Y192386D01*
X84520Y192426D01*
X84679Y192492D01*
X84827Y192582D01*
X84958Y192694D01*
X85070Y192825D01*
X85160Y192973D01*
X85226Y193132D01*
X85266Y193300D01*
X85280Y193472D01*
X85271Y196063D01*
X94792D01*
X94838Y196052D01*
X95276Y196018D01*
X95669Y196049D01*
G37*
G36*
X165354Y214173D02*Y168503D01*
X150091D01*
X150033Y168598D01*
X149880Y168777D01*
X149873Y168783D01*
X140870Y177786D01*
Y181890D01*
X140869Y181907D01*
X140852Y182124D01*
X140797Y182353D01*
X140707Y182570D01*
X140584Y182771D01*
X140431Y182950D01*
X140424Y182956D01*
X131068Y192312D01*
Y192456D01*
X131073Y192452D01*
X131178Y192388D01*
X131292Y192341D01*
X131413Y192312D01*
X131536Y192302D01*
X132841Y192312D01*
X132962Y192341D01*
X133076Y192388D01*
X133181Y192452D01*
X133275Y192533D01*
X133356Y192627D01*
X133406Y192710D01*
X133457Y192627D01*
X133538Y192533D01*
X133632Y192452D01*
X133737Y192388D01*
X133851Y192341D01*
X133972Y192312D01*
X134095Y192302D01*
X135400Y192312D01*
X135521Y192341D01*
X135635Y192388D01*
X135740Y192452D01*
X135834Y192533D01*
X135915Y192627D01*
X135965Y192710D01*
X136016Y192627D01*
X136097Y192533D01*
X136191Y192452D01*
X136296Y192388D01*
X136410Y192341D01*
X136531Y192312D01*
X136654Y192302D01*
X137959Y192312D01*
X138080Y192341D01*
X138194Y192388D01*
X138299Y192452D01*
X138393Y192533D01*
X138474Y192627D01*
X138524Y192710D01*
X138575Y192627D01*
X138656Y192533D01*
X138750Y192452D01*
X138855Y192388D01*
X138969Y192341D01*
X139090Y192312D01*
X139213Y192302D01*
X140518Y192312D01*
X140639Y192341D01*
X140753Y192388D01*
X140858Y192452D01*
X140952Y192533D01*
X141033Y192627D01*
X141083Y192710D01*
X141134Y192627D01*
X141215Y192533D01*
X141309Y192452D01*
X141414Y192388D01*
X141528Y192341D01*
X141649Y192312D01*
X141772Y192302D01*
X143077Y192312D01*
X143198Y192341D01*
X143312Y192388D01*
X143417Y192452D01*
X143511Y192533D01*
X143592Y192627D01*
X143642Y192710D01*
X143693Y192627D01*
X143774Y192533D01*
X143868Y192452D01*
X143973Y192388D01*
X144087Y192341D01*
X144208Y192312D01*
X144331Y192302D01*
X145636Y192312D01*
X145757Y192341D01*
X145871Y192388D01*
X145976Y192452D01*
X146070Y192533D01*
X146151Y192627D01*
X146201Y192710D01*
X146252Y192627D01*
X146300Y192571D01*
Y191902D01*
X146299Y191890D01*
X146314Y191705D01*
X146357Y191525D01*
X146428Y191353D01*
X146525Y191195D01*
X146645Y191054D01*
X146802Y190897D01*
X146944Y190776D01*
X147102Y190679D01*
X147274Y190608D01*
X147454Y190565D01*
X147639Y190550D01*
X147651Y190551D01*
X149590D01*
X150081Y190060D01*
X149968Y189928D01*
X149726Y189532D01*
X149548Y189103D01*
X149439Y188652D01*
X149403Y188189D01*
X149439Y187726D01*
X149548Y187275D01*
X149726Y186846D01*
X149968Y186450D01*
X150270Y186097D01*
X150623Y185795D01*
X151019Y185553D01*
X151448Y185375D01*
X151512Y185360D01*
X151373Y185326D01*
X150909Y185134D01*
X150481Y184872D01*
X150099Y184546D01*
X149773Y184164D01*
X149511Y183736D01*
X149319Y183272D01*
X149201Y182784D01*
X149162Y182283D01*
X149201Y181782D01*
X149319Y181294D01*
X149511Y180830D01*
X149773Y180402D01*
X150099Y180020D01*
X150481Y179694D01*
X150909Y179432D01*
X151373Y179240D01*
X151861Y179122D01*
X152362Y179083D01*
X152863Y179122D01*
X153351Y179240D01*
X153815Y179432D01*
X154243Y179694D01*
X154625Y180020D01*
X154951Y180402D01*
X155213Y180830D01*
X155405Y181294D01*
X155523Y181782D01*
X155562Y182283D01*
X155523Y182784D01*
X155405Y183272D01*
X155293Y183544D01*
X156347Y184598D01*
X156468Y184738D01*
X156565Y184896D01*
X156636Y185068D01*
X156680Y185248D01*
X156694Y185433D01*
X156693Y185446D01*
Y189371D01*
X156678Y189556D01*
X156635Y189736D01*
X156564Y189907D01*
X156467Y190065D01*
X156411Y190129D01*
X156347Y190205D01*
X156346D01*
Y190206D01*
X153864Y192687D01*
X153892Y192732D01*
X153939Y192846D01*
X153968Y192967D01*
X153978Y193090D01*
X153968Y197741D01*
X153939Y197862D01*
X153892Y197976D01*
X153828Y198081D01*
X153747Y198175D01*
X153653Y198256D01*
X153548Y198320D01*
X153434Y198367D01*
X153313Y198396D01*
X153190Y198406D01*
X151885Y198396D01*
X151764Y198367D01*
X151650Y198320D01*
X151545Y198256D01*
X151451Y198175D01*
X151370Y198081D01*
X151320Y197998D01*
X151269Y198081D01*
X151188Y198175D01*
X151094Y198256D01*
X150989Y198320D01*
X150875Y198367D01*
X150754Y198396D01*
X150631Y198406D01*
X149326Y198396D01*
X149205Y198367D01*
X149091Y198320D01*
X148986Y198256D01*
X148892Y198175D01*
X148811Y198081D01*
X148761Y197998D01*
X148710Y198081D01*
X148629Y198175D01*
X148535Y198256D01*
X148430Y198320D01*
X148316Y198367D01*
X148195Y198396D01*
X148072Y198406D01*
X146767Y198396D01*
X146646Y198367D01*
X146532Y198320D01*
X146427Y198256D01*
X146422Y198252D01*
Y199566D01*
X146421Y199574D01*
X146405Y199800D01*
X146350Y200029D01*
X146259Y200246D01*
X146136Y200447D01*
X145983Y200626D01*
X145976Y200632D01*
X139650Y206959D01*
X139644Y206966D01*
X139465Y207119D01*
X139264Y207242D01*
X139047Y207333D01*
X138818Y207388D01*
X138583Y207406D01*
X128760D01*
X128789Y207431D01*
X128800Y207444D01*
X135529Y214173D01*
X165354D01*
G37*
G36*
X69685Y104330D02*Y123622D01*
X72638D01*
X72644Y121549D01*
X72677Y121412D01*
X72731Y121281D01*
X72805Y121161D01*
X72897Y121054D01*
X73004Y120962D01*
X73124Y120888D01*
X73255Y120834D01*
X73392Y120801D01*
X73533Y120790D01*
X77074Y120801D01*
X77211Y120834D01*
X77342Y120888D01*
X77462Y120962D01*
X77569Y121054D01*
X77661Y121161D01*
X77735Y121281D01*
X77789Y121412D01*
X77822Y121549D01*
X77833Y121690D01*
X77828Y123622D01*
X84449D01*
Y104330D01*
X69685D01*
G37*
G36*
X73375Y126575D02*X71879D01*
X71860Y126816D01*
X71757Y127243D01*
X71589Y127649D01*
X71359Y128024D01*
X71074Y128358D01*
X70740Y128643D01*
X70365Y128873D01*
X70079Y128991D01*
X73174Y129001D01*
X73311Y129034D01*
X73442Y129088D01*
X73562Y129162D01*
X73669Y129254D01*
X73761Y129361D01*
X73835Y129481D01*
X73889Y129612D01*
X73922Y129749D01*
X73933Y129890D01*
X73922Y134031D01*
X73889Y134168D01*
X73835Y134299D01*
X73761Y134419D01*
X73669Y134526D01*
X73562Y134618D01*
X73442Y134692D01*
X73311Y134746D01*
X73174Y134779D01*
X73033Y134790D01*
X69882Y134780D01*
Y149213D01*
X74803D01*
Y126583D01*
X73392Y126579D01*
X73375Y126575D01*
G37*
G36*
X79133Y149213D02*X82283D01*
Y126575D01*
X79133D01*
Y128995D01*
X80974Y129001D01*
X81111Y129034D01*
X81242Y129088D01*
X81362Y129162D01*
X81469Y129254D01*
X81561Y129361D01*
X81635Y129481D01*
X81689Y129612D01*
X81722Y129749D01*
X81733Y129890D01*
X81722Y134031D01*
X81689Y134168D01*
X81635Y134299D01*
X81561Y134419D01*
X81469Y134526D01*
X81362Y134618D01*
X81242Y134692D01*
X81111Y134746D01*
X80974Y134779D01*
X80833Y134790D01*
X79133Y134785D01*
Y149213D01*
G37*
G36*
X75787Y126586D02*Y149213D01*
X79133D01*
Y134785D01*
X77292Y134779D01*
X77155Y134746D01*
X77024Y134692D01*
X76904Y134618D01*
X76797Y134526D01*
X76705Y134419D01*
X76631Y134299D01*
X76577Y134168D01*
X76544Y134031D01*
X76533Y133890D01*
X76544Y129749D01*
X76577Y129612D01*
X76631Y129481D01*
X76705Y129361D01*
X76797Y129254D01*
X76904Y129162D01*
X77024Y129088D01*
X77155Y129034D01*
X77292Y129001D01*
X77433Y128990D01*
X79133Y128995D01*
Y126575D01*
X77091D01*
X77074Y126579D01*
X76933Y126590D01*
X75787Y126586D01*
G37*
G36*
X54331Y206299D02*X66308D01*
X68418Y204189D01*
Y198622D01*
X68447Y198270D01*
X68504Y198032D01*
Y129107D01*
X68229Y129041D01*
X67823Y128873D01*
X67448Y128643D01*
X67114Y128358D01*
X66829Y128024D01*
X66599Y127649D01*
X66431Y127243D01*
X66328Y126816D01*
X66294Y126378D01*
X66328Y125940D01*
X66431Y125513D01*
X66599Y125107D01*
X66829Y124732D01*
X67114Y124398D01*
X67448Y124113D01*
X67823Y123883D01*
X68229Y123715D01*
X68504Y123649D01*
Y106299D01*
X57768D01*
X58070Y106693D01*
X58408Y107223D01*
X58698Y107781D01*
X58939Y108362D01*
X59128Y108962D01*
X59264Y109576D01*
X59346Y110199D01*
X59374Y110827D01*
X59373Y110840D01*
Y122625D01*
X59374Y122638D01*
X59345Y123301D01*
X59258Y123959D01*
X59114Y124606D01*
X58915Y125239D01*
X58661Y125851D01*
X58355Y126439D01*
X57999Y126999D01*
X57595Y127525D01*
X57147Y128014D01*
X56658Y128462D01*
X56132Y128866D01*
X55573Y129222D01*
X54984Y129528D01*
X54724Y129636D01*
Y133394D01*
X54748Y133701D01*
X54724Y134008D01*
Y135827D01*
X45276Y145275D01*
X44621D01*
X44582Y145308D01*
X44381Y145431D01*
X44164Y145521D01*
X43935Y145576D01*
X43701Y145594D01*
X43700D01*
X39764Y145595D01*
X39688Y145599D01*
X39614Y145609D01*
X39540Y145625D01*
X39469Y145647D01*
X39399Y145676D01*
X39333Y145711D01*
X39269Y145751D01*
X39209Y145797D01*
X39154Y145848D01*
X39103Y145903D01*
X39057Y145963D01*
X39017Y146026D01*
X38982Y146093D01*
X38953Y146163D01*
X38931Y146234D01*
X38915Y146308D01*
X38905Y146382D01*
X38902Y146457D01*
Y158435D01*
X49334Y168868D01*
X49512Y168794D01*
X50122Y168647D01*
X50748Y168598D01*
X51374Y168647D01*
X51984Y168794D01*
X52233Y168897D01*
X53150D01*
X54331Y170078D01*
Y170828D01*
X54552Y171362D01*
X54699Y171972D01*
X54748Y172598D01*
X54699Y173224D01*
X54552Y173834D01*
X54331Y174368D01*
Y176505D01*
X54346Y176513D01*
X54870Y176847D01*
X55363Y177225D01*
X55820Y177645D01*
X56240Y178102D01*
X56618Y178595D01*
X56952Y179119D01*
X57239Y179670D01*
X57476Y180244D01*
X57663Y180836D01*
X57797Y181442D01*
X57802Y181478D01*
X57911Y181656D01*
X58046Y181982D01*
X58128Y182325D01*
X58156Y182677D01*
Y187442D01*
X58128Y187794D01*
X58102Y187902D01*
X58046Y188136D01*
X57911Y188462D01*
X57910Y188463D01*
Y188464D01*
X57842Y188575D01*
X57726Y188764D01*
X57497Y189032D01*
X57496D01*
Y189033D01*
X54671Y191857D01*
X54699Y191972D01*
X54748Y192598D01*
X54699Y193224D01*
X54552Y193834D01*
X54331Y194368D01*
Y200828D01*
X54552Y201362D01*
X54699Y201972D01*
X54748Y202598D01*
X54699Y203224D01*
X54552Y203834D01*
X54331Y204368D01*
Y206299D01*
G37*
G36*
X47403Y101528D02*X47512Y101350D01*
X47920Y100873D01*
X48397Y100465D01*
X48932Y100137D01*
X49512Y99897D01*
X50122Y99750D01*
X50748Y99701D01*
X51374Y99750D01*
X51984Y99897D01*
X52564Y100137D01*
X53099Y100465D01*
X53576Y100873D01*
X53984Y101350D01*
X54312Y101885D01*
X54552Y102465D01*
X54699Y103075D01*
X54748Y103701D01*
X54718Y104089D01*
X55211Y104294D01*
X55769Y104584D01*
X56299Y104922D01*
X56554Y105118D01*
X91412D01*
Y83456D01*
X91267Y83367D01*
X90933Y83082D01*
X90648Y82748D01*
X90418Y82373D01*
X90250Y81967D01*
X90147Y81540D01*
X90113Y81102D01*
X90147Y80664D01*
X90250Y80237D01*
X90418Y79831D01*
X90648Y79456D01*
X90933Y79122D01*
X91267Y78837D01*
X91642Y78607D01*
X92048Y78439D01*
X92475Y78336D01*
X92913Y78302D01*
X93351Y78336D01*
X93778Y78439D01*
X94184Y78607D01*
X94559Y78837D01*
X94893Y79122D01*
X95178Y79456D01*
X95408Y79831D01*
X95576Y80237D01*
X95679Y80664D01*
X95713Y81102D01*
X95679Y81540D01*
X95576Y81967D01*
X95408Y82373D01*
X95178Y82748D01*
X94893Y83082D01*
X94559Y83367D01*
X94413Y83457D01*
Y86271D01*
X94531Y86261D01*
X102796Y86271D01*
X102916Y86300D01*
X103030Y86347D01*
X103136Y86411D01*
X103200Y86466D01*
X103201Y76377D01*
X47403D01*
Y76602D01*
X48107Y76657D01*
X48794Y76822D01*
X49446Y77092D01*
X50048Y77461D01*
X50585Y77920D01*
X51044Y78457D01*
X51413Y79059D01*
X51683Y79711D01*
X51848Y80398D01*
X51903Y81102D01*
X51848Y81806D01*
X51683Y82493D01*
X51413Y83145D01*
X51044Y83747D01*
X50585Y84284D01*
X50048Y84743D01*
X49446Y85112D01*
X48794Y85382D01*
X48107Y85547D01*
X47403Y85602D01*
Y101528D01*
G37*
G36*
X37403Y105118D02*X38978D01*
X39512Y104897D01*
X40122Y104750D01*
X40748Y104701D01*
X41374Y104750D01*
X41984Y104897D01*
X42518Y105118D01*
X47019D01*
X46944Y104937D01*
X46797Y104327D01*
X46748Y103701D01*
X46797Y103075D01*
X46944Y102465D01*
X47184Y101885D01*
X47403Y101528D01*
Y85602D01*
X46699Y85547D01*
X46012Y85382D01*
X45360Y85112D01*
X44758Y84743D01*
X44221Y84284D01*
X43762Y83747D01*
X43393Y83145D01*
X43123Y82493D01*
X42958Y81806D01*
X42903Y81102D01*
X42958Y80398D01*
X43123Y79711D01*
X43393Y79059D01*
X43762Y78457D01*
X44221Y77920D01*
X44758Y77461D01*
X45360Y77092D01*
X46012Y76822D01*
X46699Y76657D01*
X47403Y76602D01*
Y76377D01*
X37403D01*
Y76602D01*
X38107Y76657D01*
X38794Y76822D01*
X39446Y77092D01*
X40048Y77461D01*
X40585Y77920D01*
X41044Y78457D01*
X41413Y79059D01*
X41683Y79711D01*
X41848Y80398D01*
X41903Y81102D01*
X41848Y81806D01*
X41683Y82493D01*
X41413Y83145D01*
X41044Y83747D01*
X40585Y84284D01*
X40048Y84743D01*
X39446Y85112D01*
X38794Y85382D01*
X38107Y85547D01*
X37403Y85602D01*
Y105118D01*
G37*
G36*
X31017D02*X37403D01*
Y85602D01*
X36699Y85547D01*
X36012Y85382D01*
X35360Y85112D01*
X34758Y84743D01*
X34221Y84284D01*
X33762Y83747D01*
X33393Y83145D01*
X33123Y82493D01*
X32958Y81806D01*
X32903Y81102D01*
X32958Y80398D01*
X33123Y79711D01*
X33393Y79059D01*
X33762Y78457D01*
X34221Y77920D01*
X34758Y77461D01*
X35360Y77092D01*
X36012Y76822D01*
X36699Y76657D01*
X37403Y76602D01*
Y76377D01*
X31017D01*
Y78962D01*
X31061Y78970D01*
X31172Y79007D01*
X31277Y79062D01*
X31372Y79132D01*
X31454Y79216D01*
X31522Y79312D01*
X31575Y79417D01*
X31717Y79824D01*
X31820Y80244D01*
X31882Y80671D01*
X31903Y81102D01*
X31882Y81534D01*
X31820Y81961D01*
X31717Y82381D01*
X31575Y82788D01*
X31521Y82893D01*
X31453Y82989D01*
X31371Y83073D01*
X31276Y83143D01*
X31172Y83197D01*
X31060Y83234D01*
X31017Y83241D01*
Y105118D01*
G37*
G36*
X27403D02*X31017D01*
Y83241D01*
X30944Y83254D01*
X30827Y83255D01*
X30710Y83237D01*
X30598Y83202D01*
X30493Y83149D01*
X30397Y83081D01*
X30313Y82999D01*
X30243Y82904D01*
X30189Y82800D01*
X30152Y82688D01*
X30132Y82572D01*
X30131Y82455D01*
X30149Y82338D01*
X30184Y82226D01*
X30279Y81955D01*
X30347Y81675D01*
X30389Y81390D01*
X30403Y81102D01*
X30389Y80815D01*
X30347Y80530D01*
X30279Y80250D01*
X30184Y79979D01*
X30148Y79867D01*
X30130Y79750D01*
X30131Y79632D01*
X30151Y79516D01*
X30188Y79405D01*
X30243Y79300D01*
X30313Y79205D01*
X30397Y79123D01*
X30493Y79055D01*
X30598Y79002D01*
X30710Y78967D01*
X30827Y78949D01*
X30945Y78950D01*
X31017Y78962D01*
Y76377D01*
X27729D01*
X27692Y76467D01*
X27603Y76612D01*
X27834Y76623D01*
X28261Y76685D01*
X28681Y76788D01*
X29088Y76930D01*
X29193Y76984D01*
X29289Y77052D01*
X29373Y77134D01*
X29443Y77229D01*
X29497Y77333D01*
X29534Y77445D01*
X29554Y77561D01*
X29555Y77678D01*
X29537Y77795D01*
X29502Y77907D01*
X29449Y78012D01*
X29381Y78108D01*
X29299Y78192D01*
X29204Y78262D01*
X29100Y78316D01*
X28988Y78353D01*
X28872Y78373D01*
X28755Y78374D01*
X28638Y78356D01*
X28526Y78321D01*
X28255Y78226D01*
X27975Y78158D01*
X27690Y78116D01*
X27403Y78102D01*
Y84102D01*
X27690Y84089D01*
X27975Y84047D01*
X28255Y83979D01*
X28526Y83884D01*
X28638Y83848D01*
X28755Y83830D01*
X28873Y83831D01*
X28989Y83851D01*
X29100Y83888D01*
X29205Y83943D01*
X29300Y84013D01*
X29382Y84097D01*
X29450Y84193D01*
X29503Y84298D01*
X29538Y84410D01*
X29556Y84527D01*
X29555Y84645D01*
X29535Y84761D01*
X29498Y84872D01*
X29443Y84977D01*
X29373Y85072D01*
X29289Y85154D01*
X29193Y85222D01*
X29088Y85275D01*
X28681Y85417D01*
X28261Y85520D01*
X27834Y85582D01*
X27403Y85602D01*
Y105118D01*
G37*
G36*
X23789Y104693D02*X24060Y104714D01*
X24487Y104817D01*
X24893Y104985D01*
X25110Y105118D01*
X27403D01*
Y85602D01*
X26971Y85582D01*
X26544Y85520D01*
X26124Y85417D01*
X25717Y85275D01*
X25612Y85221D01*
X25516Y85153D01*
X25432Y85071D01*
X25362Y84976D01*
X25308Y84872D01*
X25271Y84760D01*
X25251Y84644D01*
X25250Y84527D01*
X25268Y84410D01*
X25303Y84298D01*
X25356Y84193D01*
X25424Y84097D01*
X25506Y84013D01*
X25601Y83943D01*
X25705Y83889D01*
X25817Y83852D01*
X25933Y83832D01*
X26050Y83831D01*
X26167Y83849D01*
X26279Y83884D01*
X26550Y83979D01*
X26830Y84047D01*
X27115Y84089D01*
X27403Y84102D01*
Y78102D01*
X27115Y78116D01*
X26830Y78158D01*
X26550Y78226D01*
X26279Y78321D01*
X26167Y78357D01*
X26050Y78375D01*
X25932Y78374D01*
X25816Y78354D01*
X25705Y78317D01*
X25600Y78262D01*
X25505Y78192D01*
X25423Y78108D01*
X25355Y78012D01*
X25341Y77985D01*
X25197Y77996D01*
X24759Y77962D01*
X24332Y77859D01*
X23926Y77691D01*
X23789Y77607D01*
Y78963D01*
X23861Y78951D01*
X23978Y78950D01*
X24095Y78968D01*
X24207Y79003D01*
X24312Y79056D01*
X24408Y79124D01*
X24492Y79206D01*
X24562Y79301D01*
X24616Y79405D01*
X24653Y79517D01*
X24673Y79633D01*
X24674Y79750D01*
X24656Y79867D01*
X24621Y79979D01*
X24526Y80250D01*
X24458Y80530D01*
X24416Y80815D01*
X24403Y81102D01*
X24416Y81390D01*
X24458Y81675D01*
X24526Y81955D01*
X24621Y82226D01*
X24657Y82338D01*
X24675Y82455D01*
X24674Y82573D01*
X24654Y82689D01*
X24617Y82800D01*
X24562Y82905D01*
X24492Y83000D01*
X24408Y83082D01*
X24312Y83150D01*
X24207Y83203D01*
X24095Y83238D01*
X23978Y83256D01*
X23860Y83255D01*
X23789Y83243D01*
Y104693D01*
G37*
G36*
X10920Y76697D02*X11084Y76765D01*
X11285Y76888D01*
X11464Y77041D01*
X11617Y77220D01*
X11740Y77421D01*
X11830Y77638D01*
X11885Y77867D01*
X11903Y78102D01*
X11885Y84337D01*
X11830Y84566D01*
X11740Y84783D01*
X11617Y84984D01*
X11464Y85163D01*
X11285Y85316D01*
X11084Y85439D01*
X10867Y85529D01*
X10638Y85584D01*
X10403Y85602D01*
X8979Y85598D01*
Y95765D01*
X9155Y95341D01*
X9761Y94351D01*
X10515Y93468D01*
X11398Y92714D01*
X12388Y92108D01*
X13461Y91663D01*
X14590Y91392D01*
X15748Y91301D01*
X16906Y91392D01*
X18035Y91663D01*
X19108Y92108D01*
X20098Y92714D01*
X20981Y93468D01*
X21735Y94351D01*
X22341Y95341D01*
X22786Y96414D01*
X23057Y97543D01*
X23148Y98701D01*
X23057Y99859D01*
X22786Y100988D01*
X22341Y102061D01*
X21735Y103051D01*
X20981Y103934D01*
X20098Y104688D01*
X19396Y105118D01*
X22134D01*
X22351Y104985D01*
X22757Y104817D01*
X23184Y104714D01*
X23622Y104680D01*
X23789Y104693D01*
Y83243D01*
X23744Y83235D01*
X23633Y83198D01*
X23528Y83143D01*
X23433Y83073D01*
X23351Y82989D01*
X23283Y82893D01*
X23230Y82788D01*
X23088Y82381D01*
X22985Y81961D01*
X22923Y81534D01*
X22903Y81102D01*
X22923Y80671D01*
X22985Y80244D01*
X23088Y79824D01*
X23230Y79417D01*
X23284Y79312D01*
X23352Y79216D01*
X23434Y79132D01*
X23529Y79062D01*
X23633Y79008D01*
X23745Y78971D01*
X23789Y78963D01*
Y77607D01*
X23551Y77461D01*
X23217Y77176D01*
X22932Y76842D01*
X22843Y76697D01*
X18274D01*
X18794Y76822D01*
X19446Y77092D01*
X20048Y77461D01*
X20585Y77920D01*
X21044Y78457D01*
X21413Y79059D01*
X21683Y79711D01*
X21848Y80398D01*
X21903Y81102D01*
X21848Y81806D01*
X21683Y82493D01*
X21413Y83145D01*
X21044Y83747D01*
X20585Y84284D01*
X20048Y84743D01*
X19446Y85112D01*
X18794Y85382D01*
X18107Y85547D01*
X17403Y85602D01*
X16699Y85547D01*
X16012Y85382D01*
X15360Y85112D01*
X14758Y84743D01*
X14221Y84284D01*
X13762Y83747D01*
X13393Y83145D01*
X13123Y82493D01*
X12958Y81806D01*
X12903Y81102D01*
X12958Y80398D01*
X13123Y79711D01*
X13393Y79059D01*
X13762Y78457D01*
X14221Y77920D01*
X14758Y77461D01*
X15360Y77092D01*
X16012Y76822D01*
X16532Y76697D01*
X10920D01*
G37*
G36*
X83465Y104330D02*Y163066D01*
X90558D01*
X90648Y162920D01*
X90933Y162586D01*
X91267Y162301D01*
X91642Y162071D01*
X92048Y161903D01*
X92475Y161800D01*
X92913Y161766D01*
X93351Y161800D01*
X93778Y161903D01*
X94184Y162071D01*
X94559Y162301D01*
X94893Y162586D01*
X95178Y162920D01*
X95408Y163295D01*
X95576Y163701D01*
X95679Y164128D01*
X95713Y164566D01*
X95679Y165004D01*
X95576Y165431D01*
X95408Y165837D01*
X95178Y166212D01*
X94893Y166546D01*
X94559Y166831D01*
X94184Y167061D01*
X93778Y167229D01*
X93351Y167332D01*
X92913Y167366D01*
X92475Y167332D01*
X92048Y167229D01*
X91642Y167061D01*
X91267Y166831D01*
X90933Y166546D01*
X90648Y166212D01*
X90559Y166067D01*
X83465D01*
Y169291D01*
X106373D01*
Y162598D01*
X106392Y162363D01*
X106447Y162134D01*
X106537Y161917D01*
X106660Y161716D01*
X106813Y161537D01*
X106820Y161531D01*
X110495Y157856D01*
X110423Y157555D01*
X110386Y157086D01*
X110423Y156617D01*
X110533Y156159D01*
X110713Y155724D01*
X110959Y155323D01*
X111265Y154965D01*
X111623Y154659D01*
X112024Y154413D01*
X112459Y154233D01*
X112917Y154123D01*
X113386Y154086D01*
X113855Y154123D01*
X114313Y154233D01*
X114666Y154379D01*
X114600Y154271D01*
X114510Y154054D01*
X114455Y153825D01*
X114437Y153590D01*
X114455Y147355D01*
X114510Y147126D01*
X114600Y146909D01*
X114723Y146708D01*
X114876Y146529D01*
X115055Y146376D01*
X115256Y146253D01*
X115473Y146163D01*
X115702Y146108D01*
X115937Y146090D01*
X120754Y146104D01*
X120639Y145989D01*
X103149D01*
X102914Y145970D01*
X102685Y145915D01*
X102468Y145825D01*
X102267Y145702D01*
X102088Y145549D01*
X91852Y135312D01*
X91699Y135133D01*
X91576Y134932D01*
X91485Y134715D01*
X91430Y134486D01*
X91412Y134251D01*
Y104330D01*
X83465D01*
G37*
G36*
X84646Y150393D02*X70079D01*
Y162992D01*
X84646D01*
Y150393D01*
G37*
G36*
X85039Y169291D02*Y166067D01*
X70079D01*
Y169291D01*
X85039D01*
G37*
G36*
X94488Y152362D02*Y162257D01*
X94559Y162301D01*
X94893Y162586D01*
X95178Y162920D01*
X95408Y163295D01*
X95576Y163701D01*
X95679Y164128D01*
X95713Y164566D01*
X95679Y165004D01*
X95576Y165431D01*
X95408Y165837D01*
X95178Y166212D01*
X94893Y166546D01*
X94559Y166831D01*
X94488Y166875D01*
Y195669D01*
X96304D01*
X104051Y187922D01*
X104057Y187915D01*
X104236Y187762D01*
X104437Y187639D01*
X104654Y187549D01*
X104883Y187494D01*
X105118Y187476D01*
X106862D01*
X106864Y186922D01*
X106900Y186772D01*
X106959Y186629D01*
X107040Y186498D01*
X107140Y186380D01*
X107258Y186280D01*
X107389Y186199D01*
X107532Y186140D01*
X107682Y186104D01*
X107836Y186092D01*
X110822Y186104D01*
X110972Y186140D01*
X111115Y186199D01*
X111246Y186280D01*
X111364Y186380D01*
X111464Y186498D01*
X111545Y186629D01*
X111604Y186772D01*
X111640Y186922D01*
X111652Y187076D01*
X111640Y191030D01*
X111604Y191180D01*
X111545Y191323D01*
X111464Y191454D01*
X111364Y191572D01*
X111246Y191672D01*
X111115Y191753D01*
X110972Y191812D01*
X110822Y191848D01*
X110668Y191860D01*
X110596D01*
Y192222D01*
X110615Y192210D01*
X110759Y192150D01*
X110909Y192114D01*
X111064Y192102D01*
X112401Y192114D01*
X112551Y192150D01*
X112695Y192210D01*
X112827Y192291D01*
X112945Y192391D01*
X113045Y192509D01*
X113062Y192537D01*
X113066Y192533D01*
X113160Y192452D01*
X113265Y192388D01*
X113379Y192341D01*
X113500Y192312D01*
X113623Y192302D01*
X114928Y192312D01*
X115049Y192341D01*
X115163Y192388D01*
X115268Y192452D01*
X115289Y192470D01*
X115291Y192440D01*
X115346Y192211D01*
X115436Y191994D01*
X115520Y191856D01*
X113516Y191848D01*
X113366Y191812D01*
X113223Y191753D01*
X113092Y191672D01*
X112974Y191572D01*
X112874Y191454D01*
X112793Y191323D01*
X112734Y191180D01*
X112698Y191030D01*
X112686Y190876D01*
X112698Y186922D01*
X112734Y186772D01*
X112793Y186629D01*
X112874Y186498D01*
X112974Y186380D01*
X113092Y186280D01*
X113223Y186199D01*
X113366Y186140D01*
X113516Y186104D01*
X113670Y186092D01*
X116609Y186104D01*
Y181073D01*
X115538Y180002D01*
X115334Y180087D01*
X114761Y180225D01*
X114173Y180271D01*
X113585Y180225D01*
X113012Y180087D01*
X112468Y179862D01*
X111965Y179554D01*
X111517Y179171D01*
X111134Y178723D01*
X110826Y178220D01*
X110601Y177676D01*
X110463Y177103D01*
X110417Y176515D01*
X110463Y175927D01*
X110601Y175354D01*
X110826Y174810D01*
X111134Y174307D01*
X111430Y173961D01*
X111346Y173825D01*
X111275Y173653D01*
X111232Y173472D01*
X111217Y173287D01*
X111232Y169558D01*
X111275Y169377D01*
X111346Y169205D01*
X111443Y169047D01*
X111564Y168906D01*
X111705Y168785D01*
X111863Y168688D01*
X112035Y168617D01*
X112216Y168574D01*
X112401Y168559D01*
X116130Y168574D01*
X116311Y168617D01*
X116483Y168688D01*
X116641Y168785D01*
X116782Y168906D01*
X116903Y169047D01*
X117000Y169205D01*
X117071Y169377D01*
X117114Y169558D01*
X117129Y169743D01*
X117119Y172341D01*
X121126Y176348D01*
X121140Y176360D01*
X121293Y176539D01*
X121416Y176740D01*
X121506Y176957D01*
X121561Y177186D01*
X121579Y177421D01*
Y192105D01*
X122637Y192114D01*
X122787Y192150D01*
X122931Y192210D01*
X122949Y192221D01*
Y189723D01*
X122968Y189488D01*
X123023Y189259D01*
X123113Y189042D01*
X123236Y188841D01*
X123389Y188662D01*
X123396Y188656D01*
X131964Y180088D01*
Y175424D01*
X125043Y168503D01*
X122834D01*
Y167692D01*
X122658Y167800D01*
X122428Y167895D01*
X122185Y167953D01*
X121937Y167973D01*
X115689Y167953D01*
X115446Y167895D01*
X115216Y167800D01*
X115004Y167670D01*
X114814Y167508D01*
X114652Y167318D01*
X114522Y167106D01*
X114427Y166876D01*
X114369Y166633D01*
X114349Y166385D01*
X114369Y160137D01*
X114427Y159894D01*
X114428Y159891D01*
X114313Y159939D01*
X113855Y160049D01*
X113386Y160086D01*
X112917Y160049D01*
X112616Y159977D01*
X109374Y163219D01*
Y179524D01*
X109405Y179517D01*
X109843Y179483D01*
X110281Y179517D01*
X110708Y179620D01*
X111114Y179788D01*
X111489Y180018D01*
X111823Y180303D01*
X112108Y180637D01*
X112338Y181012D01*
X112506Y181418D01*
X112609Y181845D01*
X112643Y182283D01*
X112609Y182721D01*
X112506Y183148D01*
X112338Y183554D01*
X112108Y183929D01*
X111823Y184263D01*
X111489Y184548D01*
X111114Y184778D01*
X110708Y184946D01*
X110281Y185049D01*
X109843Y185083D01*
X109405Y185049D01*
X108978Y184946D01*
X108572Y184778D01*
X108197Y184548D01*
X107863Y184263D01*
X107578Y183929D01*
X107348Y183554D01*
X107180Y183148D01*
X107077Y182721D01*
X107043Y182283D01*
X107077Y181845D01*
X107117Y181679D01*
X106813Y181375D01*
X106660Y181196D01*
X106537Y180995D01*
X106446Y180778D01*
X106391Y180549D01*
X106373Y180314D01*
Y162598D01*
X106392Y162363D01*
X106447Y162134D01*
X106537Y161917D01*
X106660Y161716D01*
X106813Y161537D01*
X106820Y161531D01*
X110495Y157856D01*
X110423Y157555D01*
X110386Y157086D01*
X110423Y156617D01*
X110533Y156159D01*
X110713Y155724D01*
X110959Y155323D01*
X111265Y154965D01*
X111623Y154659D01*
X112024Y154413D01*
X112459Y154233D01*
X112917Y154123D01*
X113386Y154086D01*
X113855Y154123D01*
X114313Y154233D01*
X114666Y154379D01*
X114600Y154271D01*
X114510Y154054D01*
X114455Y153825D01*
X114437Y153590D01*
X114441Y152362D01*
X94488D01*
G37*
G54D12*X67323Y208465D02*X70669Y205119D01*
X49410Y208465D02*X67323D01*
G54D13*Y217716D01*
G54D14*X45866Y204921D02*X49410Y208465D01*
X45866Y203937D02*Y204921D01*
X44488Y202559D02*X45866Y203937D01*
X37007Y202559D02*X44488D01*
G54D12*X35039Y200591D02*X37007Y202559D01*
G54D13*X33661Y203543D02*Y211024D01*
X31890Y214567D02*X52362D01*
X53346Y213583D02*X61417D01*
X28937Y211614D02*X31890Y214567D01*
X52362D02*X53346Y213583D01*
X50787Y202637D02*X50748Y202598D01*
G54D15*X52756Y228346D02*X48819Y224409D01*
X52756Y231102D02*Y228346D01*
X53937Y232283D02*X52756Y231102D01*
G54D13*X67323Y217716D02*X55906Y229133D01*
G54D12*X35039Y193307D02*Y200591D01*
X40748Y187598D02*X35039Y193307D01*
X55906Y187441D02*Y182677D01*
X50748Y192598D02*X55906Y187441D01*
X40748Y197598D02*X50748Y192598D01*
X40748Y187598D02*X50748Y182598D01*
G54D13*X31890Y201772D02*X33661Y203543D01*
X31890Y190945D02*Y201772D01*
X26772Y185827D02*X31890Y190945D01*
X40748Y177598D02*X31102Y168110D01*
G54D12*X40748Y187598D02*X27953Y174803D01*
G54D13*X67716Y164762D02*X67126Y163386D01*
X14961Y187008D02*X10630Y191339D01*
X18110Y187008D02*X14961D01*
X10630Y200394D02*X14567Y204724D01*
X10630Y191339D02*Y200394D01*
X7874Y202361D02*X10236Y204724D01*
X13780Y199213D02*Y193307D01*
X7874Y190551D02*Y202361D01*
X18110Y191732D02*Y198818D01*
X25591Y206299D01*
X14567Y204724D02*X15748D01*
X13780Y199213D02*X15748Y201181D01*
X22835Y190551D02*Y198425D01*
X13386Y178740D02*X15354Y175591D01*
X10236Y180315D02*Y173622D01*
X11811Y181890D02*X10236Y180315D01*
X2756Y150197D02*Y176969D01*
X15748Y181890D02*X11811D01*
X2756Y176969D02*X3543Y177756D01*
X20473Y177165D02*X15748Y181890D01*
X22047Y177165D02*X20473D01*
X22047D02*Y177166D01*
X20863Y182284D02*X15746Y184252D01*
X14173D01*
X27953Y182284D02*X20863D01*
X22835Y185827D02*X26772D01*
X14173Y184252D02*X7874Y190551D01*
X27953Y182284D02*Y170472D01*
G54D16*X23622Y212992D02*Y219882D01*
G54D13*X5906Y226413D02*X14603D01*
X25591Y206299D02*Y216732D01*
X12598Y234251D02*X22205D01*
X14603Y226413D02*X17323Y229133D01*
X5906Y232247D02*X10594D01*
X12598Y234251D01*
X22205D02*X27323Y229133D01*
X25591Y216732D02*X58268D01*
X23622Y219882D02*X55118D01*
G54D15*X48819Y224409D02*X42047D01*
X32441Y234251D02*X27323Y229133D01*
X42047Y224409D02*X37323Y229133D01*
G54D13*X22835Y198425D02*X29921Y205512D01*
G54D15*X68504Y234250D02*X32441Y234251D01*
X68110Y232283D02*X53937D01*
G54D13*X78580Y182444D02*Y178611D01*
X75197Y178543D02*X81496D01*
X78543Y175000D02*Y178574D01*
X78580Y178611D01*
X77559Y183465D02*X78580Y182444D01*
X79134Y186811D02*X85630D01*
X87008Y183465D02*X86380Y182837D01*
X78580Y199840D02*X77559Y198819D01*
G54D12*X70669Y198622D02*X71457Y196260D01*
G54D13*X78937Y195472D02*X85827D01*
G54D12*X71457Y196260D02*Y191142D01*
X82480D01*
Y195472D02*Y186811D01*
G54D13*X86380Y199447D02*X87008Y198819D01*
X95276Y198818D02*X105118Y188976D01*
X87795Y191338D02*X91339D01*
X97244Y185433D01*
G54D15*X103387Y201968D02*X93307D01*
G54D13*X86448Y203740D02*X89370D01*
X86380Y203672D02*X86448Y203740D01*
X86417Y203709D02*Y207480D01*
X86380Y203672D02*X86312Y203740D01*
X78648D02*X81496D01*
X78580Y203672D02*X78648Y203740D01*
X78543Y203709D02*Y207087D01*
X78580Y203672D02*X78543Y203709D01*
X78512Y203740D02*X75000D01*
X78580Y203672D02*X78512Y203740D01*
X86380Y203672D02*X86417Y203709D01*
X86312Y203740D02*X83465D01*
X86380Y203672D02*Y199447D01*
X78580Y203672D02*Y199840D01*
G54D12*X70669Y205119D02*Y198622D01*
G54D15*X91339Y203937D02*Y209053D01*
X94094Y203543D02*X92913Y204726D01*
X93307Y201968D02*X91339Y203937D01*
X101181Y208267D02*X99606Y209842D01*
X91339Y209053D02*X68110Y232283D01*
X92913Y209842D02*X68504Y234250D01*
X92126Y219291D02*X90157Y217322D01*
Y214961D01*
X92126Y212992D01*
X96457D01*
X95276Y218503D02*X94488Y219291D01*
X92126D01*
X93701Y216535D02*X93307Y216141D01*
G54D13*X86380Y182837D02*Y178611D01*
X89764Y178543D02*X83465D01*
X86417Y178574D02*X86380Y178611D01*
X86417Y175000D02*Y178574D01*
X107874Y162598D02*Y180314D01*
X110631Y178347D02*Y169685D01*
X112204Y168110D01*
X117323D01*
X97244Y185433D02*X112992D01*
X114961D02*X112992D01*
X107874Y180314D02*X109843Y182283D01*
X118110Y180452D02*X114173Y176515D01*
X112992Y185433D02*Y180708D01*
X110631Y178347D01*
X120079Y177421D02*X114173Y171515D01*
X146457Y166929D02*X137008Y176377D01*
X133465Y180708D02*Y174803D01*
X139370Y177165D02*X148819Y167716D01*
X137008Y181418D02*Y176377D01*
X151575Y172047D02*X142363Y181259D01*
X117323Y168110D02*X121260Y172047D01*
X133465Y174803D02*X124016Y165354D01*
X139370Y181889D02*Y177165D01*
X148819Y157872D02*X156299Y150392D01*
X148819Y167716D02*Y157872D01*
X146457Y157087D02*Y166929D01*
X144922Y195354D02*Y199565D01*
X142363Y181259D02*Y195354D01*
G54D15*X147481Y191889D02*X147638Y191732D01*
X147481Y195354D02*Y191889D01*
G54D13*X124450Y195354D02*Y189723D01*
X129568Y195354D02*Y191691D01*
X127009Y195354D02*Y191417D01*
X124450Y189723D02*X133465Y180708D01*
X127009Y191417D02*X137008Y181418D01*
X129568Y191691D02*X139370Y181889D01*
G54D15*X150040Y195354D02*Y191772D01*
X152599Y195354D02*Y192282D01*
X155512Y189370D01*
X152362Y188189D02*Y189450D01*
X150040Y191772D01*
X150000Y191732D01*
X147638D01*
X155512Y189370D02*Y185433D01*
X152362Y182283D01*
G54D13*X96850Y205905D02*X96063Y206692D01*
G54D15*X92913Y204726D02*Y209842D01*
X117717Y229527D02*X114567Y232677D01*
X102362D01*
X105512Y210236D02*X103150Y212598D01*
G54D13*X105118Y188976D02*X109252D01*
X109096Y195354D02*Y189132D01*
X109252Y188976D01*
X114214Y195354D02*Y189848D01*
X115086Y188976D01*
X114961Y185433D01*
X116773Y195354D02*Y192675D01*
X118110Y191338D01*
Y180452D01*
X119332Y195354D02*Y192873D01*
X120079Y192126D01*
Y177421D01*
G54D15*X121891Y195354D02*Y198975D01*
X117323Y203543D01*
X106537Y195354D02*Y198818D01*
X103387Y201968D01*
X150040Y229093D02*X148425Y230708D01*
X142363Y224882D02*Y227322D01*
X140945Y228740D01*
X150040Y224882D02*Y229093D01*
X140945Y228740D02*X133858D01*
X133071Y229527D01*
X137245Y224882D02*Y220316D01*
X134686Y224882D02*Y220512D01*
X139804Y224882D02*Y220118D01*
X152599Y224882D02*Y230551D01*
X152756Y230708D01*
X133071Y229527D02*X117717D01*
G54D13*X144922Y199565D02*X138583Y205905D01*
G54D15*X139804Y220118D02*X127953Y208267D01*
X137245Y220316D02*X127165Y210236D01*
X134686Y220512D02*X127559Y213385D01*
X129568Y220512D02*X127559Y218503D01*
X132127Y224882D02*Y220709D01*
X129568Y224882D02*Y220512D01*
X132127Y220709D02*X127953Y216535D01*
X117323Y203543D02*X94094D01*
X127953Y208267D02*X101181D01*
G54D13*X138583Y205905D02*X96850D01*
G54D15*X127165Y210236D02*X105512D01*
X127559Y213385D02*X107480D01*
X127953Y216535D02*X93701D01*
X127559Y218503D02*X95276D01*
G54D13*X71260Y131963D02*X71333Y131890D01*
Y128617D01*
X79134Y135433D02*Y131891D01*
X79133Y131890D01*
X81693D02*X76378D01*
X71333D02*X74213D01*
X71260Y135433D02*Y131963D01*
X71333Y128617D02*X69094Y126378D01*
X79133Y131890D02*Y127757D01*
X124016Y165354D02*Y147244D01*
X121260Y144488D01*
X103149D01*
X92913Y134251D01*
X113386Y157086D02*X107874Y162598D01*
X92913Y164566D02*X70079D01*
X67716Y164762D01*
X79133Y127757D02*X79921Y126969D01*
X92913Y134251D02*Y81102D01*
X75891Y123032D02*X78937D01*
X75233Y123690D02*X75891Y123032D01*
X74575D02*X71654D01*
X75233Y123690D02*X74575Y123032D01*
G54D12*X75197Y123654D02*X75233Y123690D01*
Y118219D02*Y123690D01*
G54D17*X62415Y69507D02*X73819D01*
X62415Y64507D02*X73819D01*
X62415D02*X56693D01*
X62415Y69507D02*X56693D01*
X62415Y59507D02*X73819D01*
X62415Y54507D02*X73819D01*
X62415Y59507D02*X56693D01*
X62415Y54507D02*X56693D01*
G54D18*X95276Y36614D02*X71260D01*
X83071Y48425D02*Y24803D01*
X111023Y36614D02*X135039D01*
X122047Y49212D02*Y24606D01*
G54D13*X150591Y104366D02*X156299Y110074D01*
X150591Y98187D02*Y104366D01*
X147674Y107283D02*X143858D01*
X138937Y112204D01*
X156299Y150392D02*Y110074D01*
X150591Y128936D02*Y134878D01*
X153508Y137795D01*
X147638Y142519D02*Y137831D01*
X147674Y137795D01*
X153508D02*X153543Y150000D01*
X146457Y157087D01*
X150591Y90787D02*Y85629D01*
X150394Y115354D02*Y121339D01*
X150591Y121536D01*
X153508Y82677D02*Y84216D01*
X147709Y82677D02*X142874D01*
X138937Y86614D01*
X150591Y85629D02*X153543Y82677D01*
X156299Y86850D02*Y87007D01*
X153508Y84216D02*X156299Y87007D01*
G54D19*X138937Y73818D02*X147638Y73622D01*
X152756D02*X155512Y70866D01*
X147638Y73622D02*X152756D01*
X155512Y68897D02*Y65354D01*
Y70866D02*Y68897D01*
G54D13*X31102Y168110D02*X31103Y131102D01*
G54D16*X18110Y157480D02*Y152559D01*
G54D12*X27953Y174803D02*Y129528D01*
G54D15*X7480Y143701D02*Y148425D01*
X5709Y143701D02*Y147244D01*
X19882Y137008D02*X15748Y135433D01*
X19882Y137008D02*X20669D01*
X20472Y135433D02*X20669D01*
X20473D02*X15748Y133661D01*
G54D16*X33661Y119488D02*Y114961D01*
G54D13*X27559Y118898D02*Y111417D01*
X29724Y119488D02*X23819Y125394D01*
X29724Y109843D02*Y119488D01*
X33661D02*X26575Y126575D01*
G54D16*X34055Y108071D02*X39764Y113780D01*
X31496Y108071D02*X34055D01*
G54D13*X50787Y108858D02*X40905D01*
X40945D02*X40748Y108701D01*
X40905Y108858D02*X40748Y108701D01*
G54D16*X29724Y109843D02*X31496Y108071D01*
G54D13*X27559Y111417D02*X23622Y107480D01*
X38583Y123622D02*X44094D01*
G54D12*X27953Y129528D02*X38780Y118701D01*
G54D11*X44094Y171654D02*X45669Y172441D01*
G54D13*Y142125D02*Y133858D01*
X39764Y144095D02*X43700Y144094D01*
X45669Y142125D01*
X37402Y159055D02*Y146457D01*
G54D12*X44094Y171653D02*X34252Y161811D01*
G54D13*X50787Y172441D02*X37402Y159055D01*
G54D12*X34252Y161811D02*Y133465D01*
G54D16*X39764Y113780D02*X43701D01*
G54D13*X55512Y113583D02*Y113976D01*
G54D12*X38780Y118701D02*X44094Y118898D01*
G54D13*X49015Y118701D02*X44094Y123622D01*
X52165Y105118D02*X50748Y103701D01*
X57874Y110827D02*Y122638D01*
X50787Y118701D02*X49015D01*
X50787Y128740D02*X51772D01*
X31103Y131102D02*X38583Y123622D01*
G54D12*X39016Y128701D02*X40748D01*
X34252Y133465D02*X39016Y128701D01*
X40748D02*X50748Y123701D01*
Y113701D02*X44094Y118898D01*
G54D13*X10236Y173622D02*X7874Y169685D01*
G54D16*X23622Y167323D02*Y162992D01*
G54D13*X7874Y169685D02*Y156693D01*
G54D15*X5709Y147244D02*X2756Y150197D01*
G54D16*X23622Y162992D02*X18110Y157480D01*
G54D13*X12205Y152362D02*Y151969D01*
X7874Y156693D02*X12205Y152362D01*
G54D15*X7480Y148426D02*X5906Y150000D01*
G54D13*Y172835D01*
X6299Y173228D01*
X20669Y125788D02*X27559Y118898D01*
X23622Y120079D02*Y114173D01*
X18504Y125197D02*X23622Y120079D01*
X14764Y125000D02*Y110039D01*
X18504Y125197D02*Y125984D01*
X20669Y132284D02*Y125788D01*
G54D15*X25394Y127756D02*Y132480D01*
X23819Y125394D02*Y132284D01*
X26575Y126575D02*X25394Y127756D01*
G54D13*X18504Y125984D02*X14764Y129724D01*
X3937Y86614D02*X2756Y85433D01*
X3937Y104331D02*Y86614D01*
X7480Y102756D02*Y81179D01*
X14764Y110039D02*X7480Y102756D01*
Y81179D02*X7403Y81102D01*
X2756Y76772D02*X4332Y75196D01*
G54D20*X30512Y59055D02*Y69881D01*
G54D17*X41915Y69507D02*X30512D01*
X41915Y64507D02*X30512D01*
G54D13*X4332Y75196D02*X25197D01*
X2756Y85433D02*Y76772D01*
G54D20*X24606Y53149D02*X30512Y59055D01*
G54D17*X41915Y59507D02*X30512D01*
G54D12*X8858Y38385D02*X9842D01*
X24606Y53149D02*Y50590D01*
X33858Y41338D01*
G54D21*X9842Y38385D02*X24606Y53149D01*
G54D13*X41915Y54507D02*X49823D01*
X50197Y54133D01*
G54D17*X41915Y4311D02*X30512D01*
X41915Y9311D02*X30512D01*
X41915Y14311D02*X30512D01*
X41915Y19311D02*X32480D01*
G54D20*X52165Y6889D02*Y22637D01*
G54D18*Y25590D02*X43308D01*
X41339Y27559D01*
X52165Y23622D02*X43307D01*
X41339Y25590D01*
G54D17*X62415Y4311D02*X52165D01*
X62415Y9311D02*X52165D01*
X62415Y14311D02*X52165D01*
G54D13*X61024Y24606D02*X66929D01*
X68898Y22637D01*
Y20669D01*
X67540Y19311D01*
X62415D01*
G54D18*X41339Y25590D02*Y42479D01*
X55906Y38385D02*Y49212D01*
X56102Y38189D02*X55906Y38385D01*
X67323Y38189D02*X56102D01*
G54D13*X37402Y146457D02*G75*G03X39764Y144095I2362J0D01*G01*
G54D15*X7480Y143701D02*G75*G03X15748Y135433I8268J0D01*G01*
G54D13*X52165Y105118D02*G75*G03X57874Y110827I0J5709D01*G01*
Y122638D02*G75*G03X51772Y128740I-6102J0D01*G01*
X45669Y133858D02*G75*G03X50787Y128740I5118J0D01*G01*
X55512Y113976D02*G75*G03X50787Y118701I-4725J0D01*G01*
Y108858D02*G75*G03X55512Y113583I0J4725D01*G01*
G54D15*X5709Y143700D02*G75*G03X15748Y133661I10039J0D01*G01*
X25394Y132284D02*G75*G03X20670Y137008I-4724J0D01*G01*
X23819Y132284D02*G75*G03X20670Y135433I-3149J0D01*G01*
G54D16*X15748Y204724D02*G75*G03X23622Y212598I0J7874D01*G01*
G54D13*Y167323D02*G75*G03X15354Y175591I-8268J0D01*G01*
G54D11*X50787Y177559D02*G75*G03X55906Y182678I0J5119D01*G01*
X50787Y177559D02*G75*G03X45669Y172441I0J-5118D01*G01*
G54D15*X111374Y72739D02*Y70744D01*
Y72739D02*X110709Y73404D01*
X110044Y72739D02*X110709Y73404D01*
X110044Y72739D02*Y70744D01*
X109379Y70079D02*X110044Y70744D01*
X109379Y70079D02*X108714Y70744D01*
Y72739D02*Y70744D01*
Y72739D02*X109379Y73404D01*
X110709Y70079D02*X111374Y70744D01*
X106054Y75666D02*X110709D01*
X111374Y76331D01*
X108049D02*Y75001D01*
X108714Y77662D02*X110709D01*
X111374Y78327D01*
Y79657D02*Y78327D01*
Y79657D02*X110709Y80322D01*
X108714D02*X110709D01*
X106054Y84579D02*X111374D01*
Y83914D02*X110709Y84579D01*
X111374Y83914D02*Y82584D01*
X110709Y81919D02*X111374Y82584D01*
X109379Y81919D02*X110709D01*
X109379D02*X108714Y82584D01*
Y83914D02*Y82584D01*
Y83914D02*X109379Y84579D01*
X111374Y88837D02*Y86842D01*
X110709Y86177D02*X111374Y86842D01*
X109379Y86177D02*X110709D01*
X109379D02*X108714Y86842D01*
Y88172D02*Y86842D01*
Y88172D02*X109379Y88837D01*
X110044D02*Y86177D01*
X109379Y88837D02*X110044D01*
X109379Y91099D02*X111374D01*
X109379D02*X108714Y91764D01*
Y92429D02*Y91764D01*
Y92429D02*X109379Y93094D01*
X111374D01*
X108714Y90434D02*X109379Y91099D01*
X106054Y95356D02*X110709D01*
X111374Y96021D01*
X108049D02*Y94691D01*
X109379Y98018D02*X111374D01*
X109379D02*X108714Y98683D01*
Y100013D02*Y98683D01*
Y97353D02*X109379Y98018D01*
Y101610D02*X110709D01*
X109379D02*X108714Y102275D01*
Y103605D02*Y102275D01*
Y103605D02*X109379Y104270D01*
X110709D01*
X111374Y103605D02*X110709Y104270D01*
X111374Y103605D02*Y102275D01*
X110709Y101610D02*X111374Y102275D01*
X106054Y105867D02*X111374D01*
X110709D02*X111374Y106532D01*
Y107862D02*Y106532D01*
Y107862D02*X110709Y108527D01*
X109379D02*X110709D01*
X108714Y107862D02*X109379Y108527D01*
X108714Y107862D02*Y106532D01*
X109379Y105867D02*X108714Y106532D01*
X109379Y110125D02*X110709D01*
X109379D02*X108714Y110790D01*
Y112120D02*Y110790D01*
Y112120D02*X109379Y112785D01*
X110709D01*
X111374Y112120D02*X110709Y112785D01*
X111374Y112120D02*Y110790D01*
X110709Y110125D02*X111374Y110790D01*
X106054Y115047D02*X110709D01*
X111374Y115712D01*
X108049D02*Y114382D01*
X107384Y117043D02*X108049D01*
X109379D02*X111374D01*
X108714Y121035D02*Y119040D01*
X109379Y118375D02*X108714Y119040D01*
X109379Y118375D02*X110709D01*
X111374Y119040D01*
Y121035D02*Y119040D01*
Y125292D02*Y123297D01*
Y125292D02*X110709Y125957D01*
X110044Y125292D02*X110709Y125957D01*
X110044Y125292D02*Y123297D01*
X109379Y122632D02*X110044Y123297D01*
X109379Y122632D02*X108714Y123297D01*
Y125292D02*Y123297D01*
Y125292D02*X109379Y125957D01*
X110709Y122632D02*X111374Y123297D01*
Y128219D02*Y127554D01*
X109379Y129817D02*X110709D01*
X109379D02*X108714Y130482D01*
Y131812D02*Y130482D01*
Y131812D02*X109379Y132477D01*
X110709D01*
X111374Y131812D02*X110709Y132477D01*
X111374Y131812D02*Y130482D01*
X110709Y129817D02*X111374Y130482D01*
X109379Y134739D02*X111374D01*
X109379D02*X108714Y135404D01*
Y136734D02*Y135404D01*
Y134074D02*X109379Y134739D01*
X108714Y140326D02*X109379Y140991D01*
X108714Y140326D02*Y138996D01*
X109379Y138331D02*X108714Y138996D01*
X109379Y138331D02*X110709D01*
X111374Y138996D01*
Y140326D02*Y138996D01*
Y140326D02*X110709Y140991D01*
X112704Y138331D02*X113369Y138996D01*
Y140326D02*Y138996D01*
Y140326D02*X112704Y140991D01*
X108714D02*X112704D01*
X96606Y90454D02*X97271Y91119D01*
X96606Y90454D02*Y88459D01*
X97271Y87794D02*X96606Y88459D01*
X97271Y87794D02*X98601D01*
X99266Y88459D01*
Y90454D02*Y88459D01*
Y90454D02*X99931Y91119D01*
X101261D01*
X101926Y90454D02*X101261Y91119D01*
X101926Y90454D02*Y88459D01*
X101261Y87794D02*X101926Y88459D01*
Y95376D02*Y93381D01*
X101261Y92716D02*X101926Y93381D01*
X99931Y92716D02*X101261D01*
X99931D02*X99266Y93381D01*
Y94711D02*Y93381D01*
Y94711D02*X99931Y95376D01*
X100596D02*Y92716D01*
X99931Y95376D02*X100596D01*
X99931Y97638D02*X101926D01*
X99931D02*X99266Y98303D01*
Y99633D02*Y98303D01*
Y96973D02*X99931Y97638D01*
X99266Y101230D02*X100596D01*
X101926Y102560D01*
X100596Y103890D01*
X99266D02*X100596D01*
X99931Y105488D02*X101261D01*
X99931D02*X99266Y106153D01*
Y107483D02*Y106153D01*
Y107483D02*X99931Y108148D01*
X101261D01*
X101926Y107483D02*X101261Y108148D01*
X101926Y107483D02*Y106153D01*
X101261Y105488D02*X101926Y106153D01*
X96605Y114471D02*X97270Y115136D01*
X96605Y114471D02*Y112476D01*
X97270Y111811D02*X96605Y112476D01*
X97270Y111811D02*X98600D01*
X99265Y112476D01*
Y114471D02*Y112476D01*
Y114471D02*X99930Y115136D01*
X101260D01*
X101925Y114471D02*X101260Y115136D01*
X101925Y114471D02*Y112476D01*
X101260Y111811D02*X101925Y112476D01*
X96605Y119393D02*Y116733D01*
Y119393D02*X97270Y120058D01*
X98600D01*
X99265Y119393D02*X98600Y120058D01*
X99265Y119393D02*Y117398D01*
X96605D02*X101925D01*
X99265D02*X101925Y120058D01*
Y123650D02*Y122320D01*
X96605Y122985D02*X101925D01*
X97935Y121655D02*X96605Y122985D01*
X101925Y127242D02*Y125912D01*
X96605Y126577D02*X101925D01*
X97935Y125247D02*X96605Y126577D01*
X101925Y129505D02*Y128840D01*
X96605Y131102D02*X101925D01*
X96605Y133762D02*Y131102D01*
X99265Y133097D02*Y131102D01*
G54D11*G36*
X37748Y141701D02*Y135701D01*
X43748D01*
Y141701D01*
X37748D01*
G37*
G54D22*X50748Y133701D03*
X40748Y177598D03*
X50748Y172598D03*
Y103701D03*
X40748Y108701D03*
X50748Y123701D03*
X40748Y128701D03*
Y118701D03*
X50748Y113701D03*
G54D23*X24606Y53149D03*
Y23621D03*
G54D11*G36*
X4403Y84102D02*Y78102D01*
X10403D01*
Y84102D01*
X4403D01*
G37*
G54D22*X17403Y81102D03*
X27403D03*
X37403D03*
X47403D03*
G54D11*G36*
X115937Y166385D02*Y160385D01*
X121937D01*
Y166385D01*
X115937D01*
G37*
G54D22*X128937Y163385D03*
X138937D03*
G54D11*G36*
X112402Y173286D02*Y169743D01*
X115945D01*
Y173286D01*
X112402D01*
G37*
G36*
X115937Y128000D02*Y122000D01*
X121937D01*
Y128000D01*
X115937D01*
G37*
G36*
Y115204D02*Y109204D01*
X121937D01*
Y115204D01*
X115937D01*
G37*
G54D22*X128937Y125000D03*
X138937D03*
G54D11*G36*
X115937Y140795D02*Y134795D01*
X121937D01*
Y140795D01*
X115937D01*
G37*
G54D22*X128937Y137795D03*
X138937D03*
G54D24*X114173Y176515D03*
G54D11*G36*
X115937Y153590D02*Y147590D01*
X121937D01*
Y153590D01*
X115937D01*
G37*
G54D22*X128937Y150590D03*
X138937D03*
G54D11*G36*
X142669Y21700D02*Y15700D01*
X148669D01*
Y21700D01*
X142669D01*
G37*
G54D22*X155669Y18700D03*
G54D11*G36*
X142669Y58118D02*Y52118D01*
X148669D01*
Y58118D01*
X142669D01*
G37*
G54D22*X155669Y55118D03*
X128937Y112204D03*
X138937D03*
G54D11*G36*
X115937Y102409D02*Y96409D01*
X121937D01*
Y102409D01*
X115937D01*
G37*
G54D22*X128937Y99409D03*
X138937D03*
G54D11*G36*
X115937Y89614D02*Y83614D01*
X121937D01*
Y89614D01*
X115937D01*
G37*
G54D22*X128937Y86614D03*
X138937D03*
G54D11*G36*
X115937Y76818D02*Y70818D01*
X121937D01*
Y76818D01*
X115937D01*
G37*
G54D22*X128937Y73818D03*
X138937D03*
X50748Y192598D03*
X40748Y187598D03*
G54D11*G36*
X14323Y232133D02*Y226133D01*
X20323D01*
Y232133D01*
X14323D01*
G37*
G54D22*X27323Y229133D03*
X37323D03*
X47323D03*
X40748Y197598D03*
G54D11*G36*
X37748Y210598D02*Y204598D01*
X43748D01*
Y210598D01*
X37748D01*
G37*
G54D22*X50748Y202598D03*
Y182598D03*
G54D25*X14764Y125000D03*
X3937Y104331D03*
X14764Y129724D03*
X20669Y132284D03*
X23622Y114173D03*
X25197Y75196D03*
X23622Y107480D03*
G54D22*X8858Y38385D03*
X26772Y138976D03*
G54D25*X57480Y103543D03*
G54D26*X43701Y113780D03*
X33661Y114961D03*
G54D22*X52165Y14763D03*
Y6889D03*
Y22637D03*
G54D25*X50197Y54133D03*
X61024Y24606D03*
X33858Y41338D03*
X72638Y114173D03*
X92913Y81102D03*
X78740Y50196D03*
X74409Y90944D03*
X45669Y147638D03*
Y152362D03*
Y157087D03*
Y161811D03*
X79921Y126969D03*
X150394Y115354D03*
X79724Y115748D03*
X75233Y118219D03*
X69094Y126378D03*
X63583Y144685D03*
Y150000D03*
Y155315D03*
Y160630D03*
X67126Y158071D03*
X113386Y157086D03*
X109055Y31102D03*
X147638Y142519D03*
X156299Y87007D03*
X138780Y46652D03*
Y40747D03*
X162205Y36614D03*
X138780Y26968D03*
Y32874D03*
X155512Y5511D03*
X161024Y10236D03*
Y61417D03*
G54D22*X40157Y168110D03*
G54D25*X27953Y170472D03*
X40945Y147638D03*
Y152362D03*
Y157087D03*
X15748Y201181D03*
X10236Y204724D03*
X22835Y185827D03*
X18110Y187008D03*
X22835Y190551D03*
X13780Y193307D03*
X18110Y191732D03*
X13386Y178740D03*
X12205Y151969D03*
X18110Y152559D03*
X22047Y177165D03*
G54D26*X6299Y173228D03*
X3543Y177756D03*
G54D25*X28937Y211614D03*
X29921Y205512D03*
X77559Y198819D03*
G54D26*X76378Y189764D03*
G54D25*X87008Y183465D03*
X77559D03*
X87008Y198819D03*
X61614Y213583D03*
X33661Y211024D03*
X92913Y164566D03*
X63583Y165945D03*
X67126Y163386D03*
X55315Y219882D03*
X58465Y216732D03*
X55906Y229133D03*
G54D24*X93307Y216141D03*
X102362Y232677D03*
X152756Y230708D03*
X148425D03*
X96457Y212992D03*
X99606Y209842D03*
X107480Y213385D03*
X103150Y212598D03*
G54D25*X121260Y172047D03*
X152362Y182283D03*
G54D24*Y188189D03*
G54D25*X109843Y182283D03*
X151575Y172047D03*
X95276Y198818D03*
X96063Y206692D03*
G54D27*X109096Y226555D02*Y223209D01*
X106537Y226555D02*Y223209D01*
G54D28*X5422Y232050D02*X6390D01*
X5422Y226216D02*X6390D01*
G54D29*X79133Y132190D02*Y131590D01*
X75233Y123990D02*Y123390D01*
X71333Y132190D02*Y131590D01*
X78580Y178911D02*Y178311D01*
X86380Y178911D02*Y178311D01*
X82480Y187111D02*Y186511D01*
X86380Y203972D02*Y203372D01*
X78580Y203972D02*Y203372D01*
X82480Y195772D02*Y195172D01*
G54D11*G36*
X73190Y46377D02*Y26692D01*
X92875D01*
Y46377D01*
X73190D01*
G37*
G54D30*X38665Y69507D02*X45165D01*
X59165D02*X65665D01*
X38665Y64507D02*X45165D01*
X38665Y59507D02*X45165D01*
X38665Y54507D02*X45165D01*
X59165D02*X65665D01*
X59165Y59507D02*X65665D01*
X59165Y64507D02*X65665D01*
G54D11*G36*
X46457Y47834D02*Y28936D01*
X65355D01*
Y47834D01*
X46457D01*
G37*
G36*
X38583Y45235D02*Y39723D01*
X44095D01*
Y45235D01*
X38583D01*
G37*
G54D30*X59165Y4311D02*X65665D01*
X38665D02*X45165D01*
X59165Y9311D02*X65665D01*
X59165Y14311D02*X65665D01*
X59165Y19311D02*X65665D01*
X38665D02*X45165D01*
X38665Y14311D02*X45165D01*
X38665Y9311D02*X45165D01*
G54D11*G36*
X38583Y37047D02*Y31535D01*
X44095D01*
Y37047D01*
X38583D01*
G37*
G54D28*X115086Y189460D02*Y188492D01*
X109252Y189460D02*Y188492D01*
X153508Y138279D02*Y137311D01*
X147674Y138279D02*Y137311D01*
G54D27*X106537Y197027D02*Y193681D01*
X109096Y197027D02*Y193681D01*
X111655Y197027D02*Y193681D01*
X114214Y197027D02*Y193681D01*
X116773Y197027D02*Y193681D01*
X129568Y197027D02*Y193681D01*
X132127Y197027D02*Y193681D01*
X134686Y197027D02*Y193681D01*
X137245Y197027D02*Y193681D01*
X139804Y197027D02*Y193681D01*
X142363Y197027D02*Y193681D01*
X144922Y197027D02*Y193681D01*
X147481Y197027D02*Y193681D01*
X150040Y197027D02*Y193681D01*
X152599Y197027D02*Y193681D01*
Y226555D02*Y223209D01*
X150040Y226555D02*Y223209D01*
X147481Y226555D02*Y223209D01*
X144922Y226555D02*Y223209D01*
X142363Y226555D02*Y223209D01*
X139804Y226555D02*Y223209D01*
X137245Y226555D02*Y223209D01*
X134686Y226555D02*Y223209D01*
X132127Y226555D02*Y223209D01*
X129568Y226555D02*Y223209D01*
X127009Y226555D02*Y223209D01*
X124450Y226555D02*Y223209D01*
X121891Y226555D02*Y223209D01*
X119332Y226555D02*Y223209D01*
X116773Y226555D02*Y223209D01*
X114214Y226555D02*Y223209D01*
X111655Y226555D02*Y223209D01*
X119332Y197027D02*Y193681D01*
X121891Y197027D02*Y193681D01*
X124450Y197027D02*Y193681D01*
X127009Y197027D02*Y193681D01*
G54D31*X149591Y98187D02*X151591D01*
X149591Y90787D02*X151591D01*
X149591Y128936D02*X151591D01*
X149591Y121536D02*X151591D01*
G54D28*X153508Y107767D02*Y106799D01*
X147674Y107767D02*Y106799D01*
Y83161D02*Y82193D01*
X153508Y83161D02*Y82193D01*
G54D11*G36*
X112560Y46377D02*Y26692D01*
X132245D01*
Y46377D01*
X112560D01*
G37*
G54D32*G54D33*G54D32*G54D33*G54D32*G54D22*G54D33*G54D34*G54D35*G54D34*G54D35*G54D34*G54D36*G54D34*G54D32*G54D34*G54D32*G54D33*G54D11*G54D32*G54D11*G54D32*G54D11*G54D32*G54D11*G54D35*G54D11*G54D35*G54D11*M02*
