G04 start of page 9 for group -4078 idx -4078 *
G04 Title: (unknown), bottomsilk *
G04 Creator: pcb 20110918 *
G04 CreationDate: Wed 12 Sep 2012 14:12:35 GMT UTC *
G04 For: rob *
G04 Format: Gerber/RS-274X *
G04 PCB-Dimensions: 165354 236220 *
G04 PCB-Coordinate-Origin: lower left *
%MOIN*%
%FSLAX25Y25*%
%LNBOTTOMSILK*%
%ADD115C,0.0200*%
%ADD114C,0.0080*%
%ADD113C,0.0079*%
%ADD112C,0.0120*%
%ADD111C,0.0087*%
%ADD110C,0.0100*%
%ADD109C,0.0079*%
G54D109*X77362Y170473D02*Y171260D01*
X69685Y169488D02*Y150394D01*
X82677Y150197D02*Y169488D01*
X69685Y150197D02*X82677D01*
X77363Y171259D02*X76576Y172046D01*
X75591Y169685D02*X56299D01*
X82677Y169488D02*X69685D01*
X75591Y210039D02*Y169685D01*
X56299Y210039D02*X75591D01*
X56299Y169685D02*Y210039D01*
G54D110*X64567Y85040D02*X66535Y83070D01*
X89764Y47637D02*Y45275D01*
X91732Y43307D01*
G54D109*X56299Y131299D02*Y121063D01*
X67717Y131299D02*X56299D01*
X67717Y121063D02*Y131299D01*
X62205D02*Y121063D01*
X56299D02*X67717D01*
X60630Y98818D02*X64173D01*
X72441Y107086D01*
X69685Y101967D02*X72441Y101968D01*
X60630Y92913D02*X69685Y101968D01*
X67520Y139568D02*X68110Y140158D01*
X67520Y132284D02*Y139568D01*
X69291Y136024D02*Y148622D01*
X79921Y136024D02*X69291D01*
X79921Y148622D02*Y136024D01*
X69291Y148622D02*X79921D01*
X74606D02*Y136024D01*
X13976Y123032D02*X13189Y122245D01*
X13976Y127756D02*Y123032D01*
X17717Y131496D02*X13976Y127756D01*
X12796Y132677D02*X10434Y130315D01*
X25591Y131496D02*X17717D01*
G54D111*X85586Y119683D02*Y121863D01*
Y120773D02*X94306D01*
Y119683D02*Y121863D01*
X85586Y117067D02*X94306D01*
X85586D02*X86676D01*
X92126Y111617D01*
X85586D02*X94306D01*
G54D109*X134621Y63436D02*X135396Y62661D01*
X134621Y63436D02*Y65761D01*
X135396Y66536D02*X134621Y65761D01*
X135396Y66536D02*X140046D01*
X140821Y65761D01*
Y63436D02*Y65761D01*
Y63436D02*X140046Y62661D01*
X138496D02*X140046D01*
X137721Y63436D02*X138496Y62661D01*
X137721Y63436D02*Y64986D01*
X134621Y60801D02*X140821D01*
X134621D02*X135396D01*
X139271Y56926D01*
X134621D02*X140821D01*
X134621Y54291D02*X140821D01*
X134621Y51966D02*X135396Y51191D01*
X140046D01*
X140821Y51966D02*X140046Y51191D01*
X140821Y51966D02*Y55066D01*
X134621Y51966D02*Y55066D01*
X125567Y63436D02*Y66536D01*
X128667D01*
X127892Y65761D01*
Y64211D02*Y65761D01*
Y64211D02*X128667Y63436D01*
X130992D01*
X131767Y64211D02*X130992Y63436D01*
X131767Y64211D02*Y65761D01*
X130992Y66536D02*X131767Y65761D01*
X125567Y61576D02*X130217D01*
X131767Y60026D01*
X130217Y58476D01*
X125567D02*X130217D01*
X121925Y63436D02*Y65761D01*
X121150Y66536D02*X121925Y65761D01*
X116500Y66536D02*X121150D01*
X116500D02*X115725Y65761D01*
Y63436D02*Y65761D01*
Y58476D02*Y61576D01*
Y60026D02*X121925D01*
X115725Y53516D02*Y56616D01*
Y53516D02*X116500Y52741D01*
X118050D01*
X118825Y53516D02*X118050Y52741D01*
X118825Y53516D02*Y55841D01*
X115725D02*X121925D01*
X118825D02*X121925Y52741D01*
X115725Y50881D02*X121925D01*
Y47781D02*Y50881D01*
G54D112*X39700Y23220D02*X45700D01*
X39700Y53220D02*X45700D01*
X42700Y50220D02*Y56220D01*
G54D113*X31898Y215179D02*Y221119D01*
Y215179D02*X32888Y214189D01*
X34868D01*
X35858Y215179D01*
Y221119D01*
X34868Y222109D02*X35858Y221119D01*
X32888Y222109D02*X34868D01*
X31898Y221119D02*X32888Y222109D01*
X38234Y214189D02*Y221119D01*
X39224Y222109D01*
X41204D01*
X42194Y221119D01*
Y214189D02*Y221119D01*
X44570Y214189D02*X48530D01*
X46550D02*Y222109D01*
G54D114*X3544Y28542D02*Y24606D01*
X14172Y28542D02*Y24606D01*
Y52164D02*Y48228D01*
X3544Y52164D02*Y48228D01*
G54D110*X54938Y119224D02*X67738D01*
X54938D02*Y105324D01*
X67738D01*
Y119224D02*Y105324D01*
G54D109*X54492Y99146D02*X56066D01*
X54492Y96130D02*X56066D01*
X54492Y93240D02*X56066D01*
X54492Y90224D02*X56066D01*
X57610Y42161D02*Y40587D01*
X54594Y42161D02*Y40587D01*
X48752Y42161D02*Y40587D01*
X45736Y42161D02*Y40587D01*
X41861Y42161D02*Y40587D01*
X38845Y42161D02*Y40587D01*
G54D110*X51180Y82481D02*X65080D01*
Y69681D01*
X51180D02*X65080D01*
X51180Y82481D02*Y69681D01*
X26934Y87807D02*X24334Y89007D01*
X44534Y87807D02*X26934D01*
X44534Y98807D02*Y87807D01*
X26934Y98807D02*X44534D01*
X24334Y97607D02*X26934Y98807D01*
G54D115*X24334Y89007D02*Y97607D01*
G54D110*X19523Y116917D02*X22123Y115717D01*
X1923Y116917D02*X19523D01*
X1923D02*Y105917D01*
X19523D01*
X22123Y107117D02*X19523Y105917D01*
G54D115*X22123Y115717D02*Y107117D01*
G54D109*X63940Y227952D02*Y230314D01*
X62366Y229133D02*X63940Y230314D01*
X62366Y229133D02*X63940Y227952D01*
X62366Y229133D02*X63940D01*
G54D114*X63582Y180117D02*X68306D01*
X63582Y187597D02*X68306D01*
X63582Y201378D02*X68306D01*
X63582Y208858D02*X68306D01*
X63582Y170866D02*X68306D01*
X63582Y178346D02*X68306D01*
X63582Y191536D02*X68306D01*
X63582Y199016D02*X68306D01*
G54D110*X20413Y180439D02*X33479D01*
X2347D02*X15413D01*
X33479Y201651D02*Y180439D01*
X2347Y201651D02*X33479D01*
X2347D02*Y180439D01*
X20413D02*G75*G03X15413Y180439I-2500J0D01*G01*
G54D109*X31263Y176705D02*X32837D01*
X31263Y173689D02*X32837D01*
X4003Y209216D02*Y207642D01*
X7019Y209216D02*Y207642D01*
X75197Y227625D02*X76771D01*
X75197Y230641D02*X76771D01*
X110760Y100196D02*Y98622D01*
X107744Y100196D02*Y98622D01*
X110760Y74605D02*Y73031D01*
X107744Y74605D02*Y73031D01*
X110760Y87401D02*Y85827D01*
X107744Y87401D02*Y85827D01*
G54D110*X113937Y130000D02*X143937D01*
Y120000D01*
X113937D02*X143937D01*
X113937Y130000D02*Y120000D01*
X123937Y130000D02*Y120000D01*
X113937D02*X123937D01*
X113937Y117204D02*X143937D01*
Y107204D01*
X113937D02*X143937D01*
X113937Y117204D02*Y107204D01*
X123937Y117204D02*Y107204D01*
X113937D02*X123937D01*
X113937Y104409D02*X143937D01*
Y94409D01*
X113937D02*X143937D01*
X113937Y104409D02*Y94409D01*
X123937Y104409D02*Y94409D01*
X113937D02*X123937D01*
X113937Y91614D02*X143937D01*
Y81614D01*
X113937D02*X143937D01*
X113937Y91614D02*Y81614D01*
X123937Y91614D02*Y81614D01*
X113937D02*X123937D01*
G54D109*X110760Y112991D02*Y111417D01*
X107744Y112991D02*Y111417D01*
X110760Y125787D02*Y124213D01*
X107744Y125787D02*Y124213D01*
X110760Y149803D02*Y151377D01*
X107744Y149803D02*Y151377D01*
G54D110*X113937Y142795D02*X143937D01*
Y132795D01*
X113937D02*X143937D01*
X113937Y142795D02*Y132795D01*
X123937Y142795D02*Y132795D01*
X113937D02*X123937D01*
G54D109*X110760Y138582D02*Y137008D01*
X107744Y138582D02*Y137008D01*
G54D110*X113937Y155590D02*X143937D01*
Y145590D01*
X113937D02*X143937D01*
X113937Y155590D02*Y145590D01*
X123937Y155590D02*Y145590D01*
X113937D02*X123937D01*
X18148Y130241D02*Y118441D01*
X32048D01*
Y130241D02*Y118441D01*
X26648Y130241D02*X32048D01*
X18148D02*X23548D01*
G75*G03X26548Y130241I1500J0D01*G01*
G54D109*X7088Y133531D02*X8662D01*
X7088Y136547D02*X8662D01*
G54D110*X63618Y169812D02*Y141312D01*
X22218Y169812D02*X63618D01*
X22218D02*Y141312D01*
X63618D01*
G54D114*X3741Y156888D02*Y156102D01*
X9251Y156888D02*Y156102D01*
G54D109*X6854Y129067D02*X8428D01*
X6854Y126051D02*X8428D01*
X7087Y119358D02*X8661D01*
X7087Y122374D02*X8661D01*
G54D110*X81633Y120890D02*X68833D01*
X81633Y134790D02*Y120890D01*
X68833Y134790D02*X81633D01*
X68833Y120890D02*Y134790D01*
G54D109*X66469Y127004D02*Y125430D01*
X63453Y127004D02*Y125430D01*
X61185Y132744D02*X62759D01*
X61185Y135760D02*X62759D01*
X60761Y127004D02*Y125430D01*
X57745Y127004D02*Y125430D01*
X93373Y43306D02*Y41732D01*
X96389Y43306D02*Y41732D01*
X93374Y31495D02*Y29921D01*
X96390Y31495D02*Y29921D01*
X100067Y43306D02*Y41732D01*
X103083Y43306D02*Y41732D01*
X108728Y46062D02*Y44488D01*
X111744Y46062D02*Y44488D01*
G54D110*X94688Y54170D02*Y63970D01*
X108068D01*
Y52170D01*
X96688D01*
X94688Y54170D02*X96688Y52170D01*
X97378Y58070D02*G75*G03X97378Y58070I4000J0D01*G01*
X87456Y45881D02*Y34905D01*
X61834D02*X87456D01*
X61834Y45881D02*Y34905D01*
X77145Y45881D02*X87456D01*
X61834D02*X72145D01*
G75*G03X77145Y45881I2500J0D01*G01*
G54D109*X81103Y14240D02*X82677D01*
X81103Y17256D02*X82677D01*
G54D110*X76130Y19906D02*X88030D01*
X76130Y29306D02*Y19906D01*
Y29306D02*X88030D01*
Y19906D01*
X74803Y90944D02*X77803D01*
X74803Y96244D02*Y85644D01*
X68503D02*X81103D01*
Y96244D02*Y85644D01*
X68503Y96244D02*X81103D01*
X68503D02*Y85644D01*
G54D109*X66799Y78185D02*Y76611D01*
X69815Y78185D02*Y76611D01*
X72311Y78185D02*Y76611D01*
X75327Y78185D02*Y76611D01*
G54D114*X148623Y38386D02*X152559D01*
X148623Y49014D02*X152559D01*
X148623Y24607D02*X152559D01*
X148623Y35235D02*X152559D01*
G54D110*X113937Y78818D02*X143937D01*
Y68818D01*
X113937D02*X143937D01*
X113937Y78818D02*Y68818D01*
X123937Y78818D02*Y68818D01*
X113937D02*X123937D01*
X120991Y37106D02*X119291Y30106D01*
Y5806D01*
X131103D01*
Y30106D02*Y5806D01*
X129403Y37106D02*X131103Y30106D01*
G54D115*X120991Y37106D02*X129403D01*
G54D110*X88880Y192672D02*X76080D01*
X88880Y206572D02*Y192672D01*
X76080Y206572D02*X88880D01*
X76080Y192672D02*Y206572D01*
Y189611D02*X88880D01*
X76080D02*Y175711D01*
X88880D01*
Y189611D02*Y175711D01*
G54D109*X110760Y164369D02*Y162795D01*
X107744Y164369D02*Y162795D01*
G54D110*X113937Y168385D02*X143937D01*
Y158385D01*
X113937D02*X143937D01*
X113937Y168385D02*Y158385D01*
X123937Y168385D02*Y158385D01*
X113937D02*X123937D01*
G54D109*X108728Y224409D02*Y222835D01*
X111744Y224409D02*Y222835D01*
X148358Y224409D02*Y222835D01*
X145342Y224409D02*Y222835D01*
X127492Y224409D02*Y222835D01*
X124476Y224409D02*Y222835D01*
X137468Y224409D02*Y222835D01*
X140484Y224409D02*Y222835D01*
G54D110*X116914Y214837D02*X129980D01*
X134980D02*X148046D01*
X116914D02*Y193625D01*
X148046D01*
Y214837D02*Y193625D01*
X129980Y214837D02*G75*G03X134980Y214837I2500J0D01*G01*
G54D109*X116602Y224409D02*Y222835D01*
X119618Y224409D02*Y222835D01*
X140484Y185825D02*Y184251D01*
X137468Y185825D02*Y184251D01*
X145342Y185826D02*Y184252D01*
X148358Y185826D02*Y184252D01*
X119618Y185826D02*Y184252D01*
X116602Y185826D02*Y184252D01*
X124475Y185827D02*Y184253D01*
X127491Y185827D02*Y184253D01*
X56853Y221866D02*Y225866D01*
X58853D01*
X60053Y223866D02*X61553D01*
X60053Y225866D02*X62053D01*
X60053Y221866D02*Y225866D01*
Y221866D02*X62053D01*
X63753D02*Y225866D01*
X65253Y221866D02*X65753Y222366D01*
Y225366D01*
X65253Y225866D02*X65753Y225366D01*
X63253Y225866D02*X65253D01*
X63253Y221866D02*X65253D01*
X66953Y222366D02*X67453Y221866D01*
X68953D01*
X69453Y222366D01*
Y223366D01*
X66953Y225866D02*X69453Y223366D01*
X66953Y225866D02*X69453D01*
X90216Y203799D02*X90606Y203409D01*
X90216Y203799D02*Y204969D01*
X90606Y205359D02*X90216Y204969D01*
X90606Y205359D02*X91386D01*
X91776Y204969D01*
Y203799D02*Y204969D01*
Y203799D02*X92166Y203409D01*
X92946D01*
X93336Y203799D02*X92946Y203409D01*
X93336Y203799D02*Y204969D01*
X92946Y205359D02*X93336Y204969D01*
X92946Y202473D02*X90606Y200133D01*
X90216Y198807D02*X93336D01*
X90216Y197637D02*X90606Y197247D01*
X92946D01*
X93336Y197637D02*X92946Y197247D01*
X93336Y197637D02*Y199197D01*
X90216Y197637D02*Y199197D01*
Y194751D02*Y196311D01*
X91776D01*
X91386Y195921D01*
Y195141D02*Y195921D01*
Y195141D02*X91776Y194751D01*
X92946D01*
X93336Y195141D02*X92946Y194751D01*
X93336Y195141D02*Y195921D01*
X92946Y196311D02*X93336Y195921D01*
X24166Y203148D02*X24556Y203538D01*
X22996Y203148D02*X24166D01*
X22606Y203538D02*X22996Y203148D01*
X22606Y203538D02*Y204318D01*
X22996Y204708D01*
X24166D01*
X24556Y205098D01*
Y205878D01*
X24166Y206268D02*X24556Y205878D01*
X22996Y206268D02*X24166D01*
X22606Y205878D02*X22996Y206268D01*
X25492Y205878D02*X27832Y203538D01*
X28768Y203148D02*Y205878D01*
X29158Y206268D01*
X29938D01*
X30328Y205878D01*
Y203148D02*Y205878D01*
X31264Y203538D02*X31654Y203148D01*
X32824D01*
X33214Y203538D01*
Y204318D01*
X31264Y206268D02*X33214Y204318D01*
X31264Y206268D02*X33214D01*
X74016Y221866D02*X76016D01*
X76516Y222366D01*
Y223366D01*
X76016Y223866D02*X76516Y223366D01*
X74516Y223866D02*X76016D01*
X74516Y221866D02*Y225866D01*
Y223866D02*X76516Y225866D01*
X77716Y222366D02*X78216Y221866D01*
X79716D01*
X80216Y222366D01*
Y223366D01*
X77716Y225866D02*X80216Y223366D01*
X77716Y225866D02*X80216D01*
X82916Y221866D02*X83416Y222366D01*
X81916Y221866D02*X82916D01*
X81416Y222366D02*X81916Y221866D01*
X81416Y222366D02*Y225366D01*
X81916Y225866D01*
X82916Y223866D02*X83416Y224366D01*
X81416Y223866D02*X82916D01*
X81916Y225866D02*X82916D01*
X83416Y225366D01*
Y224366D02*Y225366D01*
X3843Y223417D02*X4288Y222972D01*
X3843Y223417D02*Y224752D01*
X4288Y225197D02*X3843Y224752D01*
X4288Y225197D02*X5178D01*
X5623Y224752D01*
Y223417D02*Y224752D01*
Y223417D02*X6068Y222972D01*
X6958D01*
X7403Y223417D02*X6958Y222972D01*
X7403Y223417D02*Y224752D01*
X6958Y225197D02*X7403Y224752D01*
X6958Y221904D02*X4288Y219234D01*
X7403Y216386D02*Y217721D01*
X6958Y218166D02*X7403Y217721D01*
X4288Y218166D02*X6958D01*
X4288D02*X3843Y217721D01*
Y216386D02*Y217721D01*
X4288Y215318D02*X3843Y214873D01*
Y213983D02*Y214873D01*
Y213983D02*X4288Y213538D01*
X6958D01*
X7403Y213983D02*X6958Y213538D01*
X7403Y213983D02*Y214873D01*
X6958Y215318D02*X7403Y214873D01*
X5623Y213538D02*Y214873D01*
X101593Y165913D02*Y167913D01*
Y165913D02*X102093Y165413D01*
X103093D01*
X103593Y165913D02*X103093Y165413D01*
X103593Y165913D02*Y167413D01*
X101593D02*X105593D01*
X103593D02*X105593Y165413D01*
Y162713D02*Y163713D01*
X101593Y163213D02*X105593D01*
X102593Y164213D02*X101593Y163213D01*
X105593Y161513D02*X103093Y159013D01*
X101593D02*X103093D01*
X101593D02*Y161513D01*
X145403Y165830D02*Y167165D01*
Y165830D02*X148518D01*
X148963Y166275D02*X148518Y165830D01*
X148963Y166275D02*Y166720D01*
X148518Y167165D02*X148963Y166720D01*
Y163427D02*Y164317D01*
X145403Y163872D02*X148963D01*
X146293Y164762D02*X145403Y163872D01*
X148518Y162359D02*X148963Y161914D01*
X145848Y162359D02*X148518D01*
X145848D02*X145403Y161914D01*
Y161024D02*Y161914D01*
Y161024D02*X145848Y160579D01*
X148518D01*
X148963Y161024D02*X148518Y160579D01*
X148963Y161024D02*Y161914D01*
X148073Y162359D02*X146293Y160579D01*
X10425Y160055D02*X10815Y159665D01*
X10425Y160055D02*Y161225D01*
X10815Y161615D02*X10425Y161225D01*
X10815Y161615D02*X11595D01*
X11985Y161225D01*
Y160055D02*Y161225D01*
Y160055D02*X12375Y159665D01*
X13155D01*
X13545Y160055D02*X13155Y159665D01*
X13545Y160055D02*Y161225D01*
X13155Y161615D02*X13545Y161225D01*
X13155Y158729D02*X10815Y156389D01*
X13545Y153893D02*Y155063D01*
X13155Y155453D02*X13545Y155063D01*
X10815Y155453D02*X13155D01*
X10815D02*X10425Y155063D01*
Y153893D02*Y155063D01*
X10815Y152957D02*X10425Y152567D01*
Y151397D02*Y152567D01*
Y151397D02*X10815Y151007D01*
X11595D01*
X13545Y152957D02*X11595Y151007D01*
X13545D02*Y152957D01*
X72425Y160622D02*X72815Y161012D01*
X71255Y160622D02*X72425D01*
X70865Y161012D02*X71255Y160622D01*
X70865Y161012D02*Y161792D01*
X71255Y162182D01*
X72425D01*
X72815Y162572D01*
Y163352D01*
X72425Y163742D02*X72815Y163352D01*
X71255Y163742D02*X72425D01*
X70865Y163352D02*X71255Y163742D01*
X73751Y163352D02*X76091Y161012D01*
X77027Y160622D02*Y163742D01*
Y160622D02*X78587D01*
X77027Y162182D02*X78197D01*
X79523D02*X81083Y160622D01*
X79523Y162182D02*X81473D01*
X81083Y160622D02*Y163742D01*
X90214Y186869D02*X90604Y186479D01*
X90214Y186869D02*Y188039D01*
X90604Y188429D02*X90214Y188039D01*
X90604Y188429D02*X91384D01*
X91774Y188039D01*
Y186869D02*Y188039D01*
Y186869D02*X92164Y186479D01*
X92944D01*
X93334Y186869D02*X92944Y186479D01*
X93334Y186869D02*Y188039D01*
X92944Y188429D02*X93334Y188039D01*
X92944Y185543D02*X90604Y183203D01*
X90214Y181877D02*X93334D01*
X90214Y180707D02*X90604Y180317D01*
X92944D01*
X93334Y180707D02*X92944Y180317D01*
X93334Y180707D02*Y182267D01*
X90214Y180707D02*Y182267D01*
X91774Y179381D02*X90214Y177821D01*
X91774Y177431D02*Y179381D01*
X90214Y177821D02*X93334D01*
X145379Y177354D02*Y179134D01*
Y177354D02*X145824Y176909D01*
X146714D01*
X147159Y177354D02*X146714Y176909D01*
X147159Y177354D02*Y178689D01*
X145379D02*X148939D01*
X147159D02*X148939Y176909D01*
Y174506D02*Y175396D01*
X145379Y174951D02*X148939D01*
X146269Y175841D02*X145379Y174951D01*
X148939Y173438D02*X147159Y171658D01*
X145824D02*X147159D01*
X145379Y172103D02*X145824Y171658D01*
X145379Y172103D02*Y172993D01*
X145824Y173438D02*X145379Y172993D01*
X145824Y173438D02*X146714D01*
X147159Y172993D01*
Y171658D02*Y172993D01*
X124117Y177354D02*Y179134D01*
Y177354D02*X124562Y176909D01*
X125452D01*
X125897Y177354D02*X125452Y176909D01*
X125897Y177354D02*Y178689D01*
X124117D02*X127677D01*
X125897D02*X127677Y176909D01*
Y174506D02*Y175396D01*
X124117Y174951D02*X127677D01*
X125007Y175841D02*X124117Y174951D01*
X127232Y173438D02*X127677Y172993D01*
X126342Y173438D02*X127232D01*
X126342D02*X125897Y172993D01*
Y172103D02*Y172993D01*
Y172103D02*X126342Y171658D01*
X127232D01*
X127677Y172103D02*X127232Y171658D01*
X127677Y172103D02*Y172993D01*
X125452Y173438D02*X125897Y172993D01*
X124562Y173438D02*X125452D01*
X124562D02*X124117Y172993D01*
Y172103D02*Y172993D01*
Y172103D02*X124562Y171658D01*
X125452D01*
X125897Y172103D02*X125452Y171658D01*
X72424Y155897D02*X72814Y156287D01*
X71254Y155897D02*X72424D01*
X70864Y156287D02*X71254Y155897D01*
X70864Y156287D02*Y157067D01*
X71254Y157457D01*
X72424D01*
X72814Y157847D01*
Y158627D01*
X72424Y159017D02*X72814Y158627D01*
X71254Y159017D02*X72424D01*
X70864Y158627D02*X71254Y159017D01*
X73750Y158627D02*X76090Y156287D01*
X77026Y155897D02*Y159017D01*
Y155897D02*X78586D01*
X77026Y157457D02*X78196D01*
X79912Y159017D02*X80692D01*
X80302Y155897D02*Y159017D01*
X79522Y156677D02*X80302Y155897D01*
X72425Y165150D02*X72815Y165540D01*
X71255Y165150D02*X72425D01*
X70865Y165540D02*X71255Y165150D01*
X70865Y165540D02*Y166320D01*
X71255Y166710D01*
X72425D01*
X72815Y167100D01*
Y167880D01*
X72425Y168270D02*X72815Y167880D01*
X71255Y168270D02*X72425D01*
X70865Y167880D02*X71255Y168270D01*
X73751Y167880D02*X76091Y165540D01*
X77027Y165150D02*Y168270D01*
Y165150D02*X78587D01*
X77027Y166710D02*X78197D01*
X79523Y165540D02*X79913Y165150D01*
X80693D01*
X81083Y165540D01*
Y167880D01*
X80693Y168270D02*X81083Y167880D01*
X79913Y168270D02*X80693D01*
X79523Y167880D02*X79913Y168270D01*
Y166710D02*X81083D01*
X72426Y151370D02*X72816Y151760D01*
X71256Y151370D02*X72426D01*
X70866Y151760D02*X71256Y151370D01*
X70866Y151760D02*Y152540D01*
X71256Y152930D01*
X72426D01*
X72816Y153320D01*
Y154100D01*
X72426Y154490D02*X72816Y154100D01*
X71256Y154490D02*X72426D01*
X70866Y154100D02*X71256Y154490D01*
X73752Y154100D02*X76092Y151760D01*
X77028Y151370D02*Y154490D01*
Y151370D02*X78588D01*
X77028Y152930D02*X78198D01*
X79524Y151760D02*X79914Y151370D01*
X81084D01*
X81474Y151760D01*
Y152540D01*
X79524Y154490D02*X81474Y152540D01*
X79524Y154490D02*X81474D01*
X137307Y177549D02*Y179329D01*
Y177549D02*X137752Y177104D01*
X138642D01*
X139087Y177549D02*X138642Y177104D01*
X139087Y177549D02*Y178884D01*
X137307D02*X140867D01*
X139087D02*X140867Y177104D01*
X137752Y176036D02*X137307Y175591D01*
Y174256D02*Y175591D01*
Y174256D02*X137752Y173811D01*
X138642D01*
X140867Y176036D02*X138642Y173811D01*
X140867D02*Y176036D01*
X137752Y172743D02*X137307Y172298D01*
Y170963D02*Y172298D01*
Y170963D02*X137752Y170518D01*
X138642D01*
X140867Y172743D02*X138642Y170518D01*
X140867D02*Y172743D01*
X111039Y192291D02*Y194291D01*
Y192291D02*X111539Y191791D01*
X112539D01*
X113039Y192291D02*X112539Y191791D01*
X113039Y192291D02*Y193791D01*
X111039D02*X115039D01*
X113039D02*X115039Y191791D01*
X111539Y190591D02*X111039Y190091D01*
Y188591D02*Y190091D01*
Y188591D02*X111539Y188091D01*
X112539D01*
X115039Y190591D02*X112539Y188091D01*
X115039D02*Y190591D01*
X111039Y184891D02*Y186891D01*
X113039D01*
X112539Y186391D01*
Y185391D02*Y186391D01*
Y185391D02*X113039Y184891D01*
X114539D01*
X115039Y185391D02*X114539Y184891D01*
X115039Y185391D02*Y186391D01*
X114539Y186891D02*X115039Y186391D01*
X101592Y152884D02*Y154884D01*
Y152884D02*X102092Y152384D01*
X103092D01*
X103592Y152884D02*X103092Y152384D01*
X103592Y152884D02*Y154384D01*
X101592D02*X105592D01*
X103592D02*X105592Y152384D01*
Y149684D02*Y150684D01*
X101592Y150184D02*X105592D01*
X102592Y151184D02*X101592Y150184D01*
Y146984D02*X102092Y146484D01*
X101592Y146984D02*Y147984D01*
X102092Y148484D02*X101592Y147984D01*
X102092Y148484D02*X105092D01*
X105592Y147984D01*
X103592Y146984D02*X104092Y146484D01*
X103592Y146984D02*Y148484D01*
X105592Y146984D02*Y147984D01*
Y146984D02*X105092Y146484D01*
X104092D02*X105092D01*
X145118Y138501D02*Y140001D01*
Y138501D02*X148618D01*
X149118Y139001D02*X148618Y138501D01*
X149118Y139001D02*Y139501D01*
X148618Y140001D02*X149118Y139501D01*
X148618Y137301D02*X149118Y136801D01*
X147618Y137301D02*X148618D01*
X147618D02*X147118Y136801D01*
Y135801D02*Y136801D01*
Y135801D02*X147618Y135301D01*
X148618D01*
X149118Y135801D02*X148618Y135301D01*
X149118Y135801D02*Y136801D01*
X146618Y137301D02*X147118Y136801D01*
X145618Y137301D02*X146618D01*
X145618D02*X145118Y136801D01*
Y135801D02*Y136801D01*
Y135801D02*X145618Y135301D01*
X146618D01*
X147118Y135801D02*X146618Y135301D01*
X145710Y126295D02*Y127795D01*
Y126295D02*X149210D01*
X149710Y126795D02*X149210Y126295D01*
X149710Y126795D02*Y127295D01*
X149210Y127795D02*X149710Y127295D01*
Y125095D02*X147210Y122595D01*
X145710D02*X147210D01*
X145710D02*Y125095D01*
X145205Y151656D02*Y152991D01*
Y151656D02*X148320D01*
X148765Y152101D02*X148320Y151656D01*
X148765Y152101D02*Y152546D01*
X148320Y152991D02*X148765Y152546D01*
Y150588D02*X146985Y148808D01*
X145650D02*X146985D01*
X145205Y149253D02*X145650Y148808D01*
X145205Y149253D02*Y150143D01*
X145650Y150588D02*X145205Y150143D01*
X145650Y150588D02*X146540D01*
X146985Y150143D01*
Y148808D02*Y150143D01*
X82892Y133062D02*X83282Y132672D01*
X82892Y133062D02*Y134232D01*
X83282Y134622D02*X82892Y134232D01*
X83282Y134622D02*X84062D01*
X84452Y134232D01*
Y133062D02*Y134232D01*
Y133062D02*X84842Y132672D01*
X85622D01*
X86012Y133062D02*X85622Y132672D01*
X86012Y133062D02*Y134232D01*
X85622Y134622D02*X86012Y134232D01*
X85622Y131736D02*X83282Y129396D01*
X82892Y128070D02*X86012D01*
X82892Y126900D02*X83282Y126510D01*
X85622D01*
X86012Y126900D02*X85622Y126510D01*
X86012Y126900D02*Y128460D01*
X82892Y126900D02*Y128460D01*
X83282Y125574D02*X82892Y125184D01*
Y124404D02*Y125184D01*
Y124404D02*X83282Y124014D01*
X85622D01*
X86012Y124404D02*X85622Y124014D01*
X86012Y124404D02*Y125184D01*
X85622Y125574D02*X86012Y125184D01*
X84452Y124014D02*Y125184D01*
X65387Y151624D02*X65777Y151234D01*
X65387Y151624D02*Y152794D01*
X65777Y153184D02*X65387Y152794D01*
X65777Y153184D02*X66557D01*
X66947Y152794D01*
Y151624D02*Y152794D01*
Y151624D02*X67337Y151234D01*
X68117D01*
X68507Y151624D02*X68117Y151234D01*
X68507Y151624D02*Y152794D01*
X68117Y153184D02*X68507Y152794D01*
X68117Y150298D02*X65777Y147958D01*
X65387Y147022D02*X68117D01*
X68507Y146632D01*
Y145852D02*Y146632D01*
Y145852D02*X68117Y145462D01*
X65387D02*X68117D01*
X68507Y143356D02*Y144136D01*
X65387Y143746D02*X68507D01*
X66167Y144526D02*X65387Y143746D01*
X75496Y145858D02*X75941Y145413D01*
X75496Y145858D02*Y147193D01*
X75941Y147638D02*X75496Y147193D01*
X75941Y147638D02*X76831D01*
X77276Y147193D01*
Y145858D02*Y147193D01*
Y145858D02*X77721Y145413D01*
X78611D01*
X79056Y145858D02*X78611Y145413D01*
X79056Y145858D02*Y147193D01*
X78611Y147638D02*X79056Y147193D01*
X78611Y144345D02*X75941Y141675D01*
X75496Y138827D02*Y140607D01*
Y138827D02*X75941Y138382D01*
X76831D01*
X77276Y138827D02*X76831Y138382D01*
X77276Y138827D02*Y140162D01*
X75496D02*X79056D01*
X77276D02*X79056Y138382D01*
X77276Y137314D02*X75496Y135534D01*
X77276Y135089D02*Y137314D01*
X75496Y135534D02*X79056D01*
X70181Y145858D02*X70626Y145413D01*
X70181Y145858D02*Y147193D01*
X70626Y147638D02*X70181Y147193D01*
X70626Y147638D02*X71516D01*
X71961Y147193D01*
Y145858D02*Y147193D01*
Y145858D02*X72406Y145413D01*
X73296D01*
X73741Y145858D02*X73296Y145413D01*
X73741Y145858D02*Y147193D01*
X73296Y147638D02*X73741Y147193D01*
X73296Y144345D02*X70626Y141675D01*
X70181Y138827D02*Y140607D01*
Y138827D02*X70626Y138382D01*
X71516D01*
X71961Y138827D02*X71516Y138382D01*
X71961Y138827D02*Y140162D01*
X70181D02*X73741D01*
X71961D02*X73741Y138382D01*
X73296Y137314D02*X73741Y136869D01*
X72406Y137314D02*X73296D01*
X72406D02*X71961Y136869D01*
Y135979D02*Y136869D01*
Y135979D02*X72406Y135534D01*
X73296D01*
X73741Y135979D02*X73296Y135534D01*
X73741Y135979D02*Y136869D01*
X71516Y137314D02*X71961Y136869D01*
X70626Y137314D02*X71516D01*
X70626D02*X70181Y136869D01*
Y135979D02*Y136869D01*
Y135979D02*X70626Y135534D01*
X71516D01*
X71961Y135979D02*X71516Y135534D01*
X101591Y140055D02*Y142055D01*
Y140055D02*X102091Y139555D01*
X103091D01*
X103591Y140055D02*X103091Y139555D01*
X103591Y140055D02*Y141555D01*
X101591D02*X105591D01*
X103591D02*X105591Y139555D01*
Y136855D02*Y137855D01*
X101591Y137355D02*X105591D01*
X102591Y138355D02*X101591Y137355D01*
Y133655D02*Y135655D01*
X103591D01*
X103091Y135155D01*
Y134155D02*Y135155D01*
Y134155D02*X103591Y133655D01*
X105091D01*
X105591Y134155D02*X105091Y133655D01*
X105591Y134155D02*Y135155D01*
X105091Y135655D02*X105591Y135155D01*
X54710Y137000D02*X55100Y137390D01*
X53540Y137000D02*X54710D01*
X53150Y137390D02*X53540Y137000D01*
X53150Y137390D02*Y138170D01*
X53540Y138560D01*
X54710D01*
X55100Y138950D01*
Y139730D01*
X54710Y140120D02*X55100Y139730D01*
X53540Y140120D02*X54710D01*
X53150Y139730D02*X53540Y140120D01*
X56036Y139730D02*X58376Y137390D01*
X59312Y137000D02*X60872D01*
X61262Y137390D01*
Y138170D01*
X60872Y138560D02*X61262Y138170D01*
X59702Y138560D02*X60872D01*
X59702Y137000D02*Y140120D01*
Y138560D02*X61262Y140120D01*
X62198D02*X64148Y138170D01*
Y137000D02*Y138170D01*
X62198Y137000D02*X64148D01*
X15560Y132977D02*X16005Y133422D01*
X14225Y132977D02*X15560D01*
X13780Y133422D02*X14225Y132977D01*
X13780Y133422D02*Y134312D01*
X14225Y134757D01*
X15560D01*
X16005Y135202D01*
Y136092D01*
X15560Y136537D02*X16005Y136092D01*
X14225Y136537D02*X15560D01*
X13780Y136092D02*X14225Y136537D01*
X17073Y136092D02*X19743Y133422D01*
X21256Y136537D02*X22591D01*
X20811Y136092D02*X21256Y136537D01*
X20811Y133422D02*Y136092D01*
Y133422D02*X21256Y132977D01*
X22591D01*
X23659Y134757D02*X25439Y132977D01*
X23659Y134757D02*X25884D01*
X25439Y132977D02*Y136537D01*
X28355Y131795D02*X28800Y132240D01*
X27020Y131795D02*X28355D01*
X26575Y132240D02*X27020Y131795D01*
X26575Y132240D02*Y133130D01*
X27020Y133575D01*
X28355D01*
X28800Y134020D01*
Y134910D01*
X28355Y135355D02*X28800Y134910D01*
X27020Y135355D02*X28355D01*
X26575Y134910D02*X27020Y135355D01*
X29868Y134910D02*X32538Y132240D01*
X34051Y135355D02*X35386D01*
X33606Y134910D02*X34051Y135355D01*
X33606Y132240D02*Y134910D01*
Y132240D02*X34051Y131795D01*
X35386D01*
X37789D02*X38234Y132240D01*
X36899Y131795D02*X37789D01*
X36454Y132240D02*X36899Y131795D01*
X36454Y132240D02*Y134910D01*
X36899Y135355D01*
X37789Y133575D02*X38234Y134020D01*
X36454Y133575D02*X37789D01*
X36899Y135355D02*X37789D01*
X38234Y134910D01*
Y134020D02*Y134910D01*
X4629Y147629D02*X5074Y147184D01*
X4629Y147629D02*Y148964D01*
X5074Y149409D02*X4629Y148964D01*
X5074Y149409D02*X5964D01*
X6409Y148964D01*
Y147629D02*Y148964D01*
Y147629D02*X6854Y147184D01*
X7744D01*
X8189Y147629D02*X7744Y147184D01*
X8189Y147629D02*Y148964D01*
X7744Y149409D02*X8189Y148964D01*
X7744Y146116D02*X5074Y143446D01*
X4629Y140598D02*Y142378D01*
Y140598D02*X5074Y140153D01*
X5964D01*
X6409Y140598D02*X5964Y140153D01*
X6409Y140598D02*Y141933D01*
X4629D02*X8189D01*
X6409D02*X8189Y140153D01*
X5074Y139085D02*X4629Y138640D01*
Y137750D02*Y138640D01*
Y137750D02*X5074Y137305D01*
X7744D01*
X8189Y137750D02*X7744Y137305D01*
X8189Y137750D02*Y138640D01*
X7744Y139085D02*X8189Y138640D01*
X6409Y137305D02*Y138640D01*
X17135Y175299D02*X17580Y175744D01*
X15800Y175299D02*X17135D01*
X15355Y175744D02*X15800Y175299D01*
X15355Y175744D02*Y176634D01*
X15800Y177079D01*
X17135D01*
X17580Y177524D01*
Y178414D01*
X17135Y178859D02*X17580Y178414D01*
X15800Y178859D02*X17135D01*
X15355Y178414D02*X15800Y178859D01*
X18648Y178414D02*X21318Y175744D01*
X22831Y178859D02*X24166D01*
X22386Y178414D02*X22831Y178859D01*
X22386Y175744D02*Y178414D01*
Y175744D02*X22831Y175299D01*
X24166D01*
X25679Y178859D02*X26569D01*
X26124Y175299D02*Y178859D01*
X25234Y176189D02*X26124Y175299D01*
X149824Y214792D02*X153324D01*
X153824Y214292D01*
Y213292D02*Y214292D01*
Y213292D02*X153324Y212792D01*
X149824D02*X153324D01*
X150324Y211592D02*X149824Y211092D01*
Y209592D02*Y211092D01*
Y209592D02*X150324Y209092D01*
X151324D01*
X153824Y211592D02*X151324Y209092D01*
X153824D02*Y211592D01*
X150210Y225954D02*Y227954D01*
Y225954D02*X150710Y225454D01*
X151710D01*
X152210Y225954D02*X151710Y225454D01*
X152210Y225954D02*Y227454D01*
X150210D02*X154210D01*
X152210D02*X154210Y225454D01*
X150710Y224254D02*X150210Y223754D01*
Y222254D02*Y223754D01*
Y222254D02*X150710Y221754D01*
X151710D01*
X154210Y224254D02*X151710Y221754D01*
X154210D02*Y224254D01*
X153710Y220554D02*X154210Y220054D01*
X150710Y220554D02*X153710D01*
X150710D02*X150210Y220054D01*
Y219054D02*Y220054D01*
Y219054D02*X150710Y218554D01*
X153710D01*
X154210Y219054D02*X153710Y218554D01*
X154210Y219054D02*Y220054D01*
X153210Y220554D02*X151210Y218554D01*
X106575Y225878D02*Y227378D01*
X106075Y227878D02*X106575Y227378D01*
X103075Y227878D02*X106075D01*
X103075D02*X102575Y227378D01*
Y225878D02*Y227378D01*
X106575Y223178D02*Y224178D01*
X102575Y223678D02*X106575D01*
X103575Y224678D02*X102575Y223678D01*
X106575Y220478D02*Y221478D01*
X102575Y220978D02*X106575D01*
X103575Y221978D02*X102575Y220978D01*
X124409Y229629D02*X126189D01*
X126634Y230074D01*
Y230964D01*
X126189Y231409D02*X126634Y230964D01*
X124854Y231409D02*X126189D01*
X124854Y229629D02*Y233189D01*
Y231409D02*X126634Y233189D01*
X127702Y230074D02*X128147Y229629D01*
X129482D01*
X129927Y230074D01*
Y230964D01*
X127702Y233189D02*X129927Y230964D01*
X127702Y233189D02*X129927D01*
X131440D02*X132330D01*
X131885Y229629D02*Y233189D01*
X130995Y230519D02*X131885Y229629D01*
X136151D02*X137931D01*
X138376Y230074D01*
Y230964D01*
X137931Y231409D02*X138376Y230964D01*
X136596Y231409D02*X137931D01*
X136596Y229629D02*Y233189D01*
Y231409D02*X138376Y233189D01*
X139444Y230074D02*X139889Y229629D01*
X141224D01*
X141669Y230074D01*
Y230964D01*
X139444Y233189D02*X141669Y230964D01*
X139444Y233189D02*X141669D01*
X142737Y230074D02*X143182Y229629D01*
X144072D01*
X144517Y230074D01*
Y232744D01*
X144072Y233189D02*X144517Y232744D01*
X143182Y233189D02*X144072D01*
X142737Y232744D02*X143182Y233189D01*
Y231409D02*X144517D01*
X112992Y229632D02*X114772D01*
X115217Y230077D01*
Y230967D01*
X114772Y231412D02*X115217Y230967D01*
X113437Y231412D02*X114772D01*
X113437Y229632D02*Y233192D01*
Y231412D02*X115217Y233192D01*
X116285Y230077D02*X116730Y229632D01*
X118065D01*
X118510Y230077D01*
Y230967D01*
X116285Y233192D02*X118510Y230967D01*
X116285Y233192D02*X118510D01*
X119578Y231412D02*X121358Y229632D01*
X119578Y231412D02*X121803D01*
X121358Y229632D02*Y233192D01*
X27015Y113788D02*X27460Y114233D01*
X25680Y113788D02*X27015D01*
X25235Y114233D02*X25680Y113788D01*
X25235Y114233D02*Y115123D01*
X25680Y115568D01*
X27015D01*
X27460Y116013D01*
Y116903D01*
X27015Y117348D02*X27460Y116903D01*
X25680Y117348D02*X27015D01*
X25235Y116903D02*X25680Y117348D01*
X28528Y116903D02*X31198Y114233D01*
X32266Y113788D02*Y116903D01*
X32711Y117348D01*
X33601D01*
X34046Y116903D01*
Y113788D02*Y116903D01*
X35114Y115568D02*X36894Y113788D01*
X35114Y115568D02*X37339D01*
X36894Y113788D02*Y117348D01*
X69071Y117665D02*X69461Y117275D01*
X69071Y117665D02*Y118835D01*
X69461Y119225D02*X69071Y118835D01*
X69461Y119225D02*X70241D01*
X70631Y118835D01*
Y117665D02*Y118835D01*
Y117665D02*X71021Y117275D01*
X71801D01*
X72191Y117665D02*X71801Y117275D01*
X72191Y117665D02*Y118835D01*
X71801Y119225D02*X72191Y118835D01*
X71801Y116339D02*X69461Y113999D01*
X69071Y112673D02*X72191D01*
X69071Y111503D02*X69461Y111113D01*
X71801D01*
X72191Y111503D02*X71801Y111113D01*
X72191Y111503D02*Y113063D01*
X69071Y111503D02*Y113063D01*
Y109007D02*X69461Y108617D01*
X69071Y109007D02*Y109787D01*
X69461Y110177D02*X69071Y109787D01*
X69461Y110177D02*X71801D01*
X72191Y109787D01*
X70631Y109007D02*X71021Y108617D01*
X70631Y109007D02*Y110177D01*
X72191Y109007D02*Y109787D01*
Y109007D02*X71801Y108617D01*
X71021D02*X71801D01*
X86122Y95131D02*X86512Y94741D01*
X86122Y95131D02*Y96301D01*
X86512Y96691D02*X86122Y96301D01*
X86512Y96691D02*X87292D01*
X87682Y96301D01*
Y95131D02*Y96301D01*
Y95131D02*X88072Y94741D01*
X88852D01*
X89242Y95131D02*X88852Y94741D01*
X89242Y95131D02*Y96301D01*
X88852Y96691D02*X89242Y96301D01*
X88852Y93805D02*X86512Y91465D01*
X86122Y90529D02*X89242D01*
Y88969D02*Y90529D01*
X87682Y86863D02*Y88033D01*
X89242Y86473D02*Y88033D01*
X86122D02*X89242D01*
X86122Y86473D02*Y88033D01*
Y85147D02*X89242D01*
X86122Y83977D02*X86512Y83587D01*
X88852D01*
X89242Y83977D02*X88852Y83587D01*
X89242Y83977D02*Y85537D01*
X86122Y83977D02*Y85537D01*
X89242Y81481D02*Y82261D01*
X86122Y81871D02*X89242D01*
X86902Y82651D02*X86122Y81871D01*
X24002Y101884D02*X24392Y102274D01*
X22832Y101884D02*X24002D01*
X22442Y102274D02*X22832Y101884D01*
X22442Y102274D02*Y103054D01*
X22832Y103444D01*
X24002D01*
X24392Y103834D01*
Y104614D01*
X24002Y105004D02*X24392Y104614D01*
X22832Y105004D02*X24002D01*
X22442Y104614D02*X22832Y105004D01*
X25328Y104614D02*X27668Y102274D01*
X28994Y101884D02*Y105004D01*
X30164Y101884D02*X30554Y102274D01*
Y104614D01*
X30164Y105004D02*X30554Y104614D01*
X28604Y105004D02*X30164D01*
X28604Y101884D02*X30164D01*
X31880Y105004D02*X32660D01*
X32270Y101884D02*Y105004D01*
X31490Y102664D02*X32270Y101884D01*
X13766Y86135D02*X14156Y86525D01*
X12596Y86135D02*X13766D01*
X12206Y86525D02*X12596Y86135D01*
X12206Y86525D02*Y87305D01*
X12596Y87695D01*
X13766D01*
X14156Y88085D01*
Y88865D01*
X13766Y89255D02*X14156Y88865D01*
X12596Y89255D02*X13766D01*
X12206Y88865D02*X12596Y89255D01*
X15092Y88865D02*X17432Y86525D01*
X18758Y86135D02*Y89255D01*
X19928Y86135D02*X20318Y86525D01*
Y88865D01*
X19928Y89255D02*X20318Y88865D01*
X18368Y89255D02*X19928D01*
X18368Y86135D02*X19928D01*
X21254Y86525D02*X21644Y86135D01*
X22814D01*
X23204Y86525D01*
Y87305D01*
X21254Y89255D02*X23204Y87305D01*
X21254Y89255D02*X23204D01*
X52963Y84551D02*X53408Y84996D01*
X51628Y84551D02*X52963D01*
X51183Y84996D02*X51628Y84551D01*
X51183Y84996D02*Y85886D01*
X51628Y86331D01*
X52963D01*
X53408Y86776D01*
Y87666D01*
X52963Y88111D02*X53408Y87666D01*
X51628Y88111D02*X52963D01*
X51183Y87666D02*X51628Y88111D01*
X54476Y87666D02*X57146Y84996D01*
X58214Y84551D02*X59994D01*
X60439Y84996D01*
Y85886D01*
X59994Y86331D02*X60439Y85886D01*
X58659Y86331D02*X59994D01*
X58659Y84551D02*Y88111D01*
Y86331D02*X60439Y88111D01*
X62842Y84551D02*X63287Y84996D01*
X61952Y84551D02*X62842D01*
X61507Y84996D02*X61952Y84551D01*
X61507Y84996D02*Y87666D01*
X61952Y88111D01*
X62842Y86331D02*X63287Y86776D01*
X61507Y86331D02*X62842D01*
X61952Y88111D02*X62842D01*
X63287Y87666D01*
Y86776D02*Y87666D01*
X76016Y99426D02*X76516Y99926D01*
X74516Y99426D02*X76016D01*
X74016Y99926D02*X74516Y99426D01*
X74016Y99926D02*Y100926D01*
X74516Y101426D01*
X76016D01*
X76516Y101926D01*
Y102926D01*
X76016Y103426D02*X76516Y102926D01*
X74516Y103426D02*X76016D01*
X74016Y102926D02*X74516Y103426D01*
X77716Y102926D02*X80716Y99926D01*
X81916Y99426D02*X83916D01*
X84416Y99926D01*
Y100926D01*
X83916Y101426D02*X84416Y100926D01*
X82416Y101426D02*X83916D01*
X82416Y99426D02*Y103426D01*
Y101426D02*X84416Y103426D01*
X86116D02*X87116D01*
X86616Y99426D02*Y103426D01*
X85616Y100426D02*X86616Y99426D01*
X76015Y105135D02*X76515Y105635D01*
X74515Y105135D02*X76015D01*
X74015Y105635D02*X74515Y105135D01*
X74015Y105635D02*Y106635D01*
X74515Y107135D01*
X76015D01*
X76515Y107635D01*
Y108635D01*
X76015Y109135D02*X76515Y108635D01*
X74515Y109135D02*X76015D01*
X74015Y108635D02*X74515Y109135D01*
X77715Y108635D02*X80715Y105635D01*
X81915Y105135D02*X83915D01*
X84415Y105635D01*
Y106635D01*
X83915Y107135D02*X84415Y106635D01*
X82415Y107135D02*X83915D01*
X82415Y105135D02*Y109135D01*
Y107135D02*X84415Y109135D01*
X85615Y105635D02*X86115Y105135D01*
X87615D01*
X88115Y105635D01*
Y106635D01*
X85615Y109135D02*X88115Y106635D01*
X85615Y109135D02*X88115D01*
X136101Y44259D02*Y45759D01*
X135601Y46259D02*X136101Y45759D01*
X132601Y46259D02*X135601D01*
X132601D02*X132101Y45759D01*
Y44259D02*Y45759D01*
Y41059D02*Y43059D01*
X134101D01*
X133601Y42559D01*
Y41559D02*Y42559D01*
Y41559D02*X134101Y41059D01*
X135601D01*
X136101Y41559D02*X135601Y41059D01*
X136101Y41559D02*Y42559D01*
X135601Y43059D02*X136101Y42559D01*
X145707Y100704D02*Y102204D01*
Y100704D02*X149207D01*
X149707Y101204D02*X149207Y100704D01*
X149707Y101204D02*Y101704D01*
X149207Y102204D02*X149707Y101704D01*
X147707Y99504D02*X145707Y97504D01*
X147707Y97004D02*Y99504D01*
X145707Y97504D02*X149707D01*
X145512Y87319D02*Y88819D01*
Y87319D02*X149012D01*
X149512Y87819D02*X149012Y87319D01*
X149512Y87819D02*Y88319D01*
X149012Y88819D02*X149512Y88319D01*
X146012Y86119D02*X145512Y85619D01*
Y84619D02*Y85619D01*
Y84619D02*X146012Y84119D01*
X149012D01*
X149512Y84619D02*X149012Y84119D01*
X149512Y84619D02*Y85619D01*
X149012Y86119D02*X149512Y85619D01*
X147512Y84119D02*Y85619D01*
X145708Y74721D02*Y76221D01*
Y74721D02*X149208D01*
X149708Y75221D02*X149208Y74721D01*
X149708Y75221D02*Y75721D01*
X149208Y76221D02*X149708Y75721D01*
X146208Y73521D02*X145708Y73021D01*
Y71521D02*Y73021D01*
Y71521D02*X146208Y71021D01*
X147208D01*
X149708Y73521D02*X147208Y71021D01*
X149708D02*Y73521D01*
X101591Y102134D02*Y104134D01*
Y102134D02*X102091Y101634D01*
X103091D01*
X103591Y102134D02*X103091Y101634D01*
X103591Y102134D02*Y103634D01*
X101591D02*X105591D01*
X103591D02*X105591Y101634D01*
Y98934D02*Y99934D01*
X101591Y99434D02*X105591D01*
X102591Y100434D02*X101591Y99434D01*
X102091Y97734D02*X101591Y97234D01*
Y95734D02*Y97234D01*
Y95734D02*X102091Y95234D01*
X103091D01*
X105591Y97734D02*X103091Y95234D01*
X105591D02*Y97734D01*
X101592Y76147D02*Y78147D01*
Y76147D02*X102092Y75647D01*
X103092D01*
X103592Y76147D02*X103092Y75647D01*
X103592Y76147D02*Y77647D01*
X101592D02*X105592D01*
X103592D02*X105592Y75647D01*
Y72947D02*Y73947D01*
X101592Y73447D02*X105592D01*
X102592Y74447D02*X101592Y73447D01*
X105092Y71747D02*X105592Y71247D01*
X102092Y71747D02*X105092D01*
X102092D02*X101592Y71247D01*
Y70247D02*Y71247D01*
Y70247D02*X102092Y69747D01*
X105092D01*
X105592Y70247D02*X105092Y69747D01*
X105592Y70247D02*Y71247D01*
X104592Y71747D02*X102592Y69747D01*
X101591Y114465D02*Y116465D01*
Y114465D02*X102091Y113965D01*
X103091D01*
X103591Y114465D02*X103091Y113965D01*
X103591Y114465D02*Y115965D01*
X101591D02*X105591D01*
X103591D02*X105591Y113965D01*
Y111265D02*Y112265D01*
X101591Y111765D02*X105591D01*
X102591Y112765D02*X101591Y111765D01*
X102091Y110065D02*X101591Y109565D01*
Y108565D02*Y109565D01*
Y108565D02*X102091Y108065D01*
X105091D01*
X105591Y108565D02*X105091Y108065D01*
X105591Y108565D02*Y109565D01*
X105091Y110065D02*X105591Y109565D01*
X103591Y108065D02*Y109565D01*
X101591Y88944D02*Y90944D01*
Y88944D02*X102091Y88444D01*
X103091D01*
X103591Y88944D02*X103091Y88444D01*
X103591Y88944D02*Y90444D01*
X101591D02*X105591D01*
X103591D02*X105591Y88444D01*
Y85744D02*Y86744D01*
X101591Y86244D02*X105591D01*
X102591Y87244D02*X101591Y86244D01*
X105591Y83044D02*Y84044D01*
X101591Y83544D02*X105591D01*
X102591Y84544D02*X101591Y83544D01*
X101393Y127525D02*Y129525D01*
Y127525D02*X101893Y127025D01*
X102893D01*
X103393Y127525D02*X102893Y127025D01*
X103393Y127525D02*Y129025D01*
X101393D02*X105393D01*
X103393D02*X105393Y127025D01*
Y124325D02*Y125325D01*
X101393Y124825D02*X105393D01*
X102393Y125825D02*X101393Y124825D01*
X103393Y123125D02*X101393Y121125D01*
X103393Y120625D02*Y123125D01*
X101393Y121125D02*X105393D01*
X145511Y111334D02*Y112834D01*
Y111334D02*X149011D01*
X149511Y111834D02*X149011Y111334D01*
X149511Y111834D02*Y112334D01*
X149011Y112834D02*X149511Y112334D01*
X145511Y108134D02*Y110134D01*
X147511D01*
X147011Y109634D01*
Y108634D02*Y109634D01*
Y108634D02*X147511Y108134D01*
X149011D01*
X149511Y108634D02*X149011Y108134D01*
X149511Y108634D02*Y109634D01*
X149011Y110134D02*X149511Y109634D01*
X136100Y30480D02*Y31980D01*
X135600Y32480D02*X136100Y31980D01*
X132600Y32480D02*X135600D01*
X132600D02*X132100Y31980D01*
Y30480D02*Y31980D01*
X134100Y29280D02*X132100Y27280D01*
X134100Y26780D02*Y29280D01*
X132100Y27280D02*X136100D01*
X103427Y35007D02*Y36507D01*
X102927Y37007D02*X103427Y36507D01*
X99927Y37007D02*X102927D01*
X99927D02*X99427Y36507D01*
Y35007D02*Y36507D01*
X99927Y33807D02*X99427Y33307D01*
Y31807D02*Y33307D01*
Y31807D02*X99927Y31307D01*
X100927D01*
X103427Y33807D02*X100927Y31307D01*
X103427D02*Y33807D01*
X108087Y37764D02*Y39764D01*
Y37764D02*X108587Y37264D01*
X109587D01*
X110087Y37764D02*X109587Y37264D01*
X110087Y37764D02*Y39264D01*
X108087D02*X112087D01*
X110087D02*X112087Y37264D01*
X108087Y34064D02*Y36064D01*
X110087D01*
X109587Y35564D01*
Y34564D02*Y35564D01*
Y34564D02*X110087Y34064D01*
X111587D01*
X112087Y34564D02*X111587Y34064D01*
X112087Y34564D02*Y35564D01*
X111587Y36064D02*X112087Y35564D01*
X113741Y11704D02*X117741D01*
X113741Y10204D02*X114241Y9704D01*
X117241D01*
X117741Y10204D02*X117241Y9704D01*
X117741Y10204D02*Y12204D01*
X113741Y10204D02*Y12204D01*
X115741Y8504D02*X113741Y6504D01*
X115741Y6004D02*Y8504D01*
X113741Y6504D02*X117741D01*
X37039Y71043D02*X37539Y71543D01*
X35539Y71043D02*X37039D01*
X35039Y71543D02*X35539Y71043D01*
X35039Y71543D02*Y72543D01*
X35539Y73043D01*
X37039D01*
X37539Y73543D01*
Y74543D01*
X37039Y75043D02*X37539Y74543D01*
X35539Y75043D02*X37039D01*
X35039Y74543D02*X35539Y75043D01*
X38739Y74543D02*X41739Y71543D01*
X42939D02*Y74543D01*
Y71543D02*X43439Y71043D01*
X44439D01*
X44939Y71543D01*
Y74543D01*
X44439Y75043D02*X44939Y74543D01*
X43439Y75043D02*X44439D01*
X42939Y74543D02*X43439Y75043D01*
X43939Y74043D02*X44939Y75043D01*
X46639D02*X47639D01*
X47139Y71043D02*Y75043D01*
X46139Y72043D02*X47139Y71043D01*
X76590Y81928D02*X77090Y81428D01*
X76590Y81928D02*Y83428D01*
X77090Y83928D02*X76590Y83428D01*
X77090Y83928D02*X78090D01*
X78590Y83428D01*
Y81928D02*Y83428D01*
Y81928D02*X79090Y81428D01*
X80090D01*
X80590Y81928D02*X80090Y81428D01*
X80590Y81928D02*Y83428D01*
X80090Y83928D02*X80590Y83428D01*
X80090Y80228D02*X77090Y77228D01*
X76590Y74028D02*Y76028D01*
Y74028D02*X77090Y73528D01*
X78090D01*
X78590Y74028D02*X78090Y73528D01*
X78590Y74028D02*Y75528D01*
X76590D02*X80590D01*
X78590D02*X80590Y73528D01*
X76590Y70328D02*Y72328D01*
X78590D01*
X78090Y71828D01*
Y70828D02*Y71828D01*
Y70828D02*X78590Y70328D01*
X80090D01*
X80590Y70828D02*X80090Y70328D01*
X80590Y70828D02*Y71828D01*
X80090Y72328D02*X80590Y71828D01*
X19762Y32842D02*Y34342D01*
X19262Y34842D02*X19762Y34342D01*
X16262Y34842D02*X19262D01*
X16262D02*X15762Y34342D01*
Y32842D02*Y34342D01*
Y30142D02*X16262Y29642D01*
X15762Y30142D02*Y31142D01*
X16262Y31642D02*X15762Y31142D01*
X16262Y31642D02*X19262D01*
X19762Y31142D01*
X17762Y30142D02*X18262Y29642D01*
X17762Y30142D02*Y31642D01*
X19762Y30142D02*Y31142D01*
Y30142D02*X19262Y29642D01*
X18262D02*X19262D01*
X49096Y33396D02*Y34896D01*
X48596Y35396D02*X49096Y34896D01*
X45596Y35396D02*X48596D01*
X45596D02*X45096Y34896D01*
Y33396D02*Y34896D01*
X45596Y32196D02*X45096Y31696D01*
Y30696D02*Y31696D01*
Y30696D02*X45596Y30196D01*
X48596D01*
X49096Y30696D02*X48596Y30196D01*
X49096Y30696D02*Y31696D01*
X48596Y32196D02*X49096Y31696D01*
X47096Y30196D02*Y31696D01*
X38205Y33789D02*Y35789D01*
Y33789D02*X38705Y33289D01*
X39705D01*
X40205Y33789D02*X39705Y33289D01*
X40205Y33789D02*Y35289D01*
X38205D02*X42205D01*
X40205D02*X42205Y33289D01*
X38705Y32089D02*X38205Y31589D01*
Y30089D02*Y31589D01*
Y30089D02*X38705Y29589D01*
X39705D01*
X42205Y32089D02*X39705Y29589D01*
X42205D02*Y32089D01*
X61938Y29409D02*Y32909D01*
X62438Y33409D01*
X63438D01*
X63938Y32909D01*
Y29409D02*Y32909D01*
X65638Y33409D02*X66638D01*
X66138Y29409D02*Y33409D01*
X65138Y30409D02*X66138Y29409D01*
X57954Y33396D02*Y34896D01*
X57454Y35396D02*X57954Y34896D01*
X54454Y35396D02*X57454D01*
X54454D02*X53954Y34896D01*
Y33396D02*Y34896D01*
X57454Y32196D02*X57954Y31696D01*
X56454Y32196D02*X57454D01*
X56454D02*X55954Y31696D01*
Y30696D02*Y31696D01*
Y30696D02*X56454Y30196D01*
X57454D01*
X57954Y30696D02*X57454Y30196D01*
X57954Y30696D02*Y31696D01*
X55454Y32196D02*X55954Y31696D01*
X54454Y32196D02*X55454D01*
X54454D02*X53954Y31696D01*
Y30696D02*Y31696D01*
Y30696D02*X54454Y30196D01*
X55454D01*
X55954Y30696D02*X55454Y30196D01*
X78740Y8874D02*X80740D01*
X81240Y9374D01*
Y10374D01*
X80740Y10874D02*X81240Y10374D01*
X79240Y10874D02*X80740D01*
X79240Y8874D02*Y12874D01*
Y10874D02*X81240Y12874D01*
X82440Y10874D02*X84440Y8874D01*
X82440Y10874D02*X84940D01*
X84440Y8874D02*Y12874D01*
X70981Y27399D02*X73981D01*
X70981D02*X70481Y26899D01*
Y25899D02*Y26899D01*
Y25899D02*X70981Y25399D01*
X73981D01*
X74481Y25899D02*X73981Y25399D01*
X74481Y25899D02*Y26899D01*
X73981Y27399D02*X74481Y26899D01*
X73481Y26399D02*X74481Y25399D01*
X70981Y24199D02*X70481Y23699D01*
Y22699D02*Y23699D01*
Y22699D02*X70981Y22199D01*
X73981D01*
X74481Y22699D02*X73981Y22199D01*
X74481Y22699D02*Y23699D01*
X73981Y24199D02*X74481Y23699D01*
X72481Y22199D02*Y23699D01*
X84647Y49029D02*X86647D01*
X87147Y49529D01*
Y50529D01*
X86647Y51029D02*X87147Y50529D01*
X85147Y51029D02*X86647D01*
X85147Y49029D02*Y53029D01*
Y51029D02*X87147Y53029D01*
X88347Y49529D02*X88847Y49029D01*
X89847D01*
X90347Y49529D01*
Y52529D01*
X89847Y53029D02*X90347Y52529D01*
X88847Y53029D02*X89847D01*
X88347Y52529D02*X88847Y53029D01*
Y51029D02*X90347D01*
X92732Y23195D02*Y25195D01*
Y23195D02*X93232Y22695D01*
X94232D01*
X94732Y23195D02*X94232Y22695D01*
X94732Y23195D02*Y24695D01*
X92732D02*X96732D01*
X94732D02*X96732Y22695D01*
Y19995D02*Y20995D01*
X92732Y20495D02*X96732D01*
X93732Y21495D02*X92732Y20495D01*
X19763Y45443D02*Y46943D01*
X19263Y47443D02*X19763Y46943D01*
X16263Y47443D02*X19263D01*
X16263D02*X15763Y46943D01*
Y45443D02*Y46943D01*
X19763Y44243D02*X17263Y41743D01*
X15763D02*X17263D01*
X15763D02*Y44243D01*
X87366Y66730D02*X91366D01*
Y64730D02*Y66730D01*
X89366Y62030D02*Y63530D01*
X91366Y61530D02*Y63530D01*
X87366D02*X91366D01*
X87366Y61530D02*Y63530D01*
Y59830D02*X91366D01*
X87366Y58330D02*X87866Y57830D01*
X90866D01*
X91366Y58330D02*X90866Y57830D01*
X91366Y58330D02*Y60330D01*
X87366Y58330D02*Y60330D01*
X91366Y55130D02*Y56130D01*
X87366Y55630D02*X91366D01*
X88366Y56630D02*X87366Y55630D01*
M02*
