M48
INCH
T75C0.020
T74C0.030
T73C0.020
T72C0.038
T71C0.060
T70C0.035
%
T73
X011417Y017152
X011417Y017652
X009331Y021614
X010236Y023268
X015276Y023071
X014843Y023071
X009646Y021299
X009961Y020984
X010748Y021338
X010315Y021260
X015236Y018819
T75
X001476Y012500
X000394Y010433
X001476Y012972
X002067Y013228
X002362Y011417
X002520Y007520
X002362Y010748
X005748Y010354
X004370Y011378
X003366Y011496
X005020Y005413
X006102Y002461
X003386Y004134
X007264Y011417
X009291Y008110
X007874Y005020
X007441Y009094
X004567Y014764
X004567Y015236
X004567Y015709
X004567Y016181
X007992Y012697
X015039Y011535
X007972Y011575
X007523Y011822
X006909Y012638
X006358Y014468
X006358Y015000
X006358Y015532
X006358Y016063
X006713Y015807
X011339Y015709
X010906Y003110
X014764Y014252
X015630Y008701
X013878Y004665
X013878Y004075
X016221Y003661
X013878Y002697
X013878Y003287
X015551Y000551
X016102Y001024
X016102Y006142
X002795Y017047
X004094Y014764
X004094Y015236
X004094Y015709
X001575Y020118
X001024Y020472
X002284Y018583
X001811Y018701
X002284Y019055
X001378Y019331
X001811Y019173
X001339Y017874
X001220Y015197
X001811Y015256
X002205Y017716
X000630Y017323
X000354Y017776
X002894Y021161
X002992Y020551
X007756Y019882
X007638Y018976
X008701Y018346
X007756Y018346
X008701Y019882
X006161Y021358
X003366Y021102
X009291Y016457
X006358Y016594
X006713Y016339
X005531Y021988
X005846Y021673
X005591Y022913
X012126Y017205
X015236Y018228
X010984Y018228
X015158Y017205
X009528Y019882
X009606Y020669
T74
X014567Y001870
X015567Y001870
X014567Y005512
X015567Y005512
T70
X004075Y013870
X005075Y013370
X004075Y017760
X005075Y017260
X005075Y010370
X004075Y010870
X005075Y012370
X004075Y012870
X004075Y011870
X005075Y011370
X005075Y019260
X004075Y018760
X004075Y019760
X004075Y020760
X005075Y020260
X005075Y018260
X000886Y003838
X002677Y013898
X005216Y001476
X005216Y000689
X005216Y002264
X004016Y016811
T72
X000740Y008110
X001740Y008110
X002740Y008110
X003740Y008110
X004740Y008110
X011894Y016338
X012894Y016338
X013894Y016338
X011894Y012500
X011894Y011220
X012894Y012500
X013894Y012500
X011894Y013780
X012894Y013780
X013894Y013780
X011894Y015059
X012894Y015059
X013894Y015059
X012894Y011220
X013894Y011220
X011894Y009941
X012894Y009941
X013894Y009941
X011894Y008661
X012894Y008661
X013894Y008661
X011894Y007382
X012894Y007382
X013894Y007382
X001732Y022913
X002732Y022913
X003732Y022913
X004732Y022913
T71
X002461Y005315
X002461Y002362
M30
