G04 start of page 6 for group -4063 idx -4063 *
G04 Title: (unknown), componentmask *
G04 Creator: pcb 1.99z *
G04 CreationDate: Wed 09 Mar 2011 16:43:30 GMT UTC *
G04 For: richard *
G04 Format: Gerber/RS-274X *
G04 PCB-Dimensions: 165354 236220 *
G04 PCB-Coordinate-Origin: lower left *
%MOIN*%
%FSLAX25Y25*%
%LNFRONTMASK*%
%ADD11C,0.0200*%
%ADD33C,0.1280*%
%ADD47C,0.0700*%
%ADD48C,0.1360*%
%ADD49C,0.0453*%
%ADD50R,0.0218X0.0218*%
%ADD51R,0.0382X0.0382*%
%ADD52R,0.0440X0.0440*%
%ADD53R,0.0300X0.0300*%
%ADD54R,0.0610X0.0610*%
G54D11*G36*
X37248Y142201D02*Y135201D01*
X44248D01*
Y142201D01*
X37248D01*
G37*
G54D47*X50748Y133701D03*
G54D33*X15748Y143701D03*
G54D47*X40748Y177598D03*
G54D33*X15748Y167598D03*
G54D47*X50748Y172598D03*
Y103701D03*
X40748Y108701D03*
X50748Y123701D03*
X40748Y128701D03*
Y118701D03*
X50748Y113701D03*
G54D48*X24606Y53149D03*
Y23621D03*
G54D33*X15748Y98701D03*
G54D11*G36*
X3903Y84602D02*Y77602D01*
X10903D01*
Y84602D01*
X3903D01*
G37*
G54D47*X17403Y81102D03*
X27403D03*
X37403D03*
X47403D03*
G54D11*G36*
X115437Y166885D02*Y159885D01*
X122437D01*
Y166885D01*
X115437D01*
G37*
G54D47*X128937Y163385D03*
X138937D03*
G54D11*G36*
X111909Y173779D02*Y169251D01*
X116437D01*
Y173779D01*
X111909D01*
G37*
G36*
X115437Y128500D02*Y121500D01*
X122437D01*
Y128500D01*
X115437D01*
G37*
G36*
Y115704D02*Y108704D01*
X122437D01*
Y115704D01*
X115437D01*
G37*
G54D47*X128937Y125000D03*
X138937D03*
G54D11*G36*
X115437Y141295D02*Y134295D01*
X122437D01*
Y141295D01*
X115437D01*
G37*
G54D47*X128937Y137795D03*
X138937D03*
G54D49*X114173Y176515D03*
G54D11*G36*
X115437Y154090D02*Y147090D01*
X122437D01*
Y154090D01*
X115437D01*
G37*
G54D47*X128937Y150590D03*
X138937D03*
G54D11*G36*
X142169Y22200D02*Y15200D01*
X149169D01*
Y22200D01*
X142169D01*
G37*
G54D47*X155669Y18700D03*
G54D11*G36*
X142169Y58618D02*Y51618D01*
X149169D01*
Y58618D01*
X142169D01*
G37*
G54D47*X155669Y55118D03*
X128937Y112204D03*
X138937D03*
G54D11*G36*
X115437Y102909D02*Y95909D01*
X122437D01*
Y102909D01*
X115437D01*
G37*
G54D47*X128937Y99409D03*
X138937D03*
G54D11*G36*
X115437Y90114D02*Y83114D01*
X122437D01*
Y90114D01*
X115437D01*
G37*
G54D47*X128937Y86614D03*
X138937D03*
G54D11*G36*
X115437Y77318D02*Y70318D01*
X122437D01*
Y77318D01*
X115437D01*
G37*
G54D47*X128937Y73818D03*
X138937D03*
X50748Y192598D03*
X40748Y187598D03*
G54D11*G36*
X13823Y232633D02*Y225633D01*
X20823D01*
Y232633D01*
X13823D01*
G37*
G54D47*X27323Y229133D03*
X37323D03*
X47323D03*
X40748Y197598D03*
G54D11*G36*
X37248Y211098D02*Y204098D01*
X44248D01*
Y211098D01*
X37248D01*
G37*
G54D47*X50748Y202598D03*
Y182598D03*
G54D33*X15748Y212598D03*
G54D50*X109096Y226555D02*Y223209D01*
X106537Y226555D02*Y223209D01*
G54D51*X5422Y232050D02*X6390D01*
X5422Y226216D02*X6390D01*
G54D52*X79133Y132190D02*Y131590D01*
X75233Y123990D02*Y123390D01*
X71333Y132190D02*Y131590D01*
X78580Y178911D02*Y178311D01*
X86380Y178911D02*Y178311D01*
X82480Y187111D02*Y186511D01*
X86380Y203972D02*Y203372D01*
X78580Y203972D02*Y203372D01*
X82480Y195772D02*Y195172D01*
G54D11*G36*
X72698Y46869D02*Y26200D01*
X93367D01*
Y46869D01*
X72698D01*
G37*
G54D53*X38665Y69507D02*X45165D01*
X59165D02*X65665D01*
X38665Y64507D02*X45165D01*
X38665Y59507D02*X45165D01*
X38665Y54507D02*X45165D01*
X59165D02*X65665D01*
X59165Y59507D02*X65665D01*
X59165Y64507D02*X65665D01*
G54D11*G36*
X45965Y48326D02*Y28444D01*
X65847D01*
Y48326D01*
X45965D01*
G37*
G36*
X38091Y45727D02*Y39231D01*
X44587D01*
Y45727D01*
X38091D01*
G37*
G54D53*X59165Y4311D02*X65665D01*
X38665D02*X45165D01*
X59165Y9311D02*X65665D01*
X59165Y14311D02*X65665D01*
X59165Y19311D02*X65665D01*
X38665D02*X45165D01*
X38665Y14311D02*X45165D01*
X38665Y9311D02*X45165D01*
G54D11*G36*
X38091Y37539D02*Y31043D01*
X44587D01*
Y37539D01*
X38091D01*
G37*
G54D51*X115086Y189460D02*Y188492D01*
X109252Y189460D02*Y188492D01*
X153508Y138279D02*Y137311D01*
X147674Y138279D02*Y137311D01*
G54D50*X106537Y197027D02*Y193681D01*
X109096Y197027D02*Y193681D01*
X111655Y197027D02*Y193681D01*
X114214Y197027D02*Y193681D01*
X116773Y197027D02*Y193681D01*
X129568Y197027D02*Y193681D01*
X132127Y197027D02*Y193681D01*
X134686Y197027D02*Y193681D01*
X137245Y197027D02*Y193681D01*
X139804Y197027D02*Y193681D01*
X142363Y197027D02*Y193681D01*
X144922Y197027D02*Y193681D01*
X147481Y197027D02*Y193681D01*
X150040Y197027D02*Y193681D01*
X152599Y197027D02*Y193681D01*
Y226555D02*Y223209D01*
X150040Y226555D02*Y223209D01*
X147481Y226555D02*Y223209D01*
X144922Y226555D02*Y223209D01*
X142363Y226555D02*Y223209D01*
X139804Y226555D02*Y223209D01*
X137245Y226555D02*Y223209D01*
X134686Y226555D02*Y223209D01*
X132127Y226555D02*Y223209D01*
X129568Y226555D02*Y223209D01*
X127009Y226555D02*Y223209D01*
X124450Y226555D02*Y223209D01*
X121891Y226555D02*Y223209D01*
X119332Y226555D02*Y223209D01*
X116773Y226555D02*Y223209D01*
X114214Y226555D02*Y223209D01*
X111655Y226555D02*Y223209D01*
X119332Y197027D02*Y193681D01*
X121891Y197027D02*Y193681D01*
X124450Y197027D02*Y193681D01*
X127009Y197027D02*Y193681D01*
G54D54*X149591Y98187D02*X151591D01*
X149591Y90787D02*X151591D01*
X149591Y128936D02*X151591D01*
X149591Y121536D02*X151591D01*
G54D51*X153508Y107767D02*Y106799D01*
X147674Y107767D02*Y106799D01*
Y83161D02*Y82193D01*
X153508Y83161D02*Y82193D01*
G54D11*G36*
X112068Y46869D02*Y26200D01*
X132737D01*
Y46869D01*
X112068D01*
G37*
M02*
