G04 start of page 8 for group -4079 idx -4079 *
G04 Title: (unknown), topsilk *
G04 Creator: pcb 20110918 *
G04 CreationDate: Wed 12 Sep 2012 14:12:35 GMT UTC *
G04 For: rob *
G04 Format: Gerber/RS-274X *
G04 PCB-Dimensions: 165354 236220 *
G04 PCB-Coordinate-Origin: lower left *
%MOIN*%
%FSLAX25Y25*%
%LNTOPSILK*%
%ADD108C,0.0200*%
%ADD107C,0.0098*%
%ADD106C,0.0100*%
%ADD105C,0.0079*%
%ADD104C,0.0001*%
G54D104*G36*
X85674Y83343D02*Y161550D01*
X109254D01*
Y83343D01*
X85674D01*
G37*
G54D105*X57480Y90158D02*X53543Y86221D01*
X57480Y93701D02*Y90158D01*
X59843Y223228D02*X11417D01*
X9449Y225196D01*
X59331Y134421D02*Y132861D01*
Y133641D02*X65571D01*
Y134421D02*Y132861D01*
X59331Y136293D02*X65571D01*
X59331D02*X60111D01*
X64011Y140193D01*
X59331D02*X65571D01*
X60111Y192204D02*X64791D01*
X60111D02*X59331Y192984D01*
Y194544D02*Y192984D01*
Y194544D02*X60111Y195324D01*
X64791D01*
X65571Y194544D02*X64791Y195324D01*
X65571Y194544D02*Y192984D01*
X64791Y192204D02*X65571Y192984D01*
X59331Y197196D02*X64791D01*
X65571Y197976D01*
Y199536D02*Y197976D01*
Y199536D02*X64791Y200316D01*
X59331D02*X64791D01*
X59331Y205308D02*Y202188D01*
Y203748D02*X65571D01*
G54D106*X984Y8857D02*X32480D01*
X984Y67913D02*X32480D01*
Y8857D01*
X36665Y71507D02*Y52507D01*
X67665D01*
Y71507D01*
X36665D02*X49665D01*
X67665D02*X54665D01*
X49665D02*G75*G03X54665Y71507I2500J0D01*G01*
G54D107*X37402Y49015D02*Y27755D01*
X66536D01*
Y49015D02*Y27755D01*
X37402Y49015D02*X66536D01*
G54D106*X67665Y21311D02*Y2311D01*
X36665Y21311D02*X67665D01*
X36665D02*Y2311D01*
X54665D02*X67665D01*
X36665D02*X49665D01*
X54665D02*G75*G03X49665Y2311I-2500J0D01*G01*
X2403Y86102D02*X12403D01*
Y76102D01*
X2403Y86102D02*Y76102D01*
Y86102D02*X52403D01*
Y76102D01*
X2403D02*X52403D01*
X12323Y224133D02*X52323D01*
Y234133D02*Y224133D01*
X12323Y234133D02*X52323D01*
X12323D02*Y224133D01*
X22323Y234133D02*Y224133D01*
X12323Y234133D02*X22323D01*
G54D105*X7414Y228346D02*Y229920D01*
X4398Y228346D02*Y229920D01*
G54D106*X973Y222098D02*X55748D01*
Y158098D02*Y222098D01*
X973Y158098D02*X55748D01*
G54D108*X147091Y102787D02*X154091D01*
G54D106*X147091D02*X146091Y100287D01*
Y87187D01*
X155091D01*
Y100287D02*Y87187D01*
Y100287D02*X154091Y102787D01*
G54D108*X147091Y133536D02*X154091D01*
G54D106*X147091D02*X146091Y131036D01*
Y117936D01*
X155091D01*
Y131036D02*Y117936D01*
Y131036D02*X154091Y133536D01*
G54D105*X149804Y105775D02*X151378D01*
X149804Y108791D02*X151378D01*
X149804Y84185D02*X151378D01*
X149804Y81169D02*X151378D01*
X149804Y136287D02*X151378D01*
X149804Y139303D02*X151378D01*
G54D106*X973Y153201D02*X55748D01*
Y89201D02*Y153201D01*
X973Y89201D02*X55748D01*
X81633Y134790D02*Y120890D01*
X68833Y134790D02*X81633D01*
X68833D02*Y120890D01*
X81633D01*
G54D107*X71615Y10551D02*X133819D01*
Y62519D01*
X71615D01*
Y10551D01*
G54D106*X137669Y31700D02*X141669D01*
X139669Y33700D02*Y29700D01*
X159669Y31700D02*X163669D01*
X137169Y18700D02*G75*G03X137169Y18700I13500J0D01*G01*
X137669Y68118D02*X141669D01*
X139669Y70118D02*Y66118D01*
X159669Y68118D02*X163669D01*
X137169Y55118D02*G75*G03X137169Y55118I13500J0D01*G01*
X88880Y206572D02*Y192672D01*
X76080Y206572D02*X88880D01*
X76080D02*Y192672D01*
X88880D01*
X76080Y189611D02*Y175711D01*
X88880D01*
Y189611D01*
X76080D01*
X114173Y169015D02*G75*G03X114173Y169015I0J5000D01*G01*
G54D105*X111382Y187468D02*X112956D01*
X111382Y190484D02*X112956D01*
G54D106*X104765Y222323D02*Y197913D01*
X154371D01*
Y222323D02*Y197913D01*
X104765Y222323D02*X154371D01*
X107245Y198524D02*G75*G03X107245Y198524I0J610D01*G01*
G54D105*X99072Y197913D02*X102572D01*
X103072Y198413D01*
Y199413D02*Y198413D01*
Y199413D02*X102572Y199913D01*
X99072D02*X102572D01*
X99572Y201113D02*X99072Y201613D01*
Y202613D02*Y201613D01*
Y202613D02*X99572Y203113D01*
X102572D01*
X103072Y202613D02*X102572Y203113D01*
X103072Y202613D02*Y201613D01*
X102572Y201113D02*X103072Y201613D01*
X101072Y203113D02*Y201613D01*
X58505Y230752D02*Y229252D01*
Y230752D02*X62005D01*
X62505Y230252D02*X62005Y230752D01*
X62505Y230252D02*Y229752D01*
X62005Y229252D02*X62505Y229752D01*
X58505Y233452D02*X59005Y233952D01*
X58505Y233452D02*Y232452D01*
X59005Y231952D02*X58505Y232452D01*
X59005Y231952D02*X62005D01*
X62505Y232452D01*
X60505Y233452D02*X61005Y233952D01*
X60505Y233452D02*Y231952D01*
X62505Y233452D02*Y232452D01*
Y233452D02*X62005Y233952D01*
X61005D02*X62005D01*
X61629Y222471D02*Y220471D01*
Y222471D02*X62129Y222971D01*
X63129D01*
X63629Y222471D02*X63129Y222971D01*
X63629Y222471D02*Y220971D01*
X61629D02*X65629D01*
X63629D02*X65629Y222971D01*
X61629Y225671D02*X62129Y226171D01*
X61629Y225671D02*Y224671D01*
X62129Y224171D02*X61629Y224671D01*
X62129Y224171D02*X65129D01*
X65629Y224671D01*
X63629Y225671D02*X64129Y226171D01*
X63629Y225671D02*Y224171D01*
X65629Y225671D02*Y224671D01*
Y225671D02*X65129Y226171D01*
X64129D02*X65129D01*
X70552Y194869D02*X71052Y195369D01*
X70552Y194869D02*Y193369D01*
X71052Y192869D02*X70552Y193369D01*
X71052Y192869D02*X72052D01*
X72552Y193369D01*
Y194869D02*Y193369D01*
Y194869D02*X73052Y195369D01*
X74052D01*
X74552Y194869D02*X74052Y195369D01*
X74552Y194869D02*Y193369D01*
X74052Y192869D02*X74552Y193369D01*
X74052Y196569D02*X71052Y199569D01*
X70552Y201269D02*X74552D01*
X70552Y202769D02*X71052Y203269D01*
X74052D01*
X74552Y202769D02*X74052Y203269D01*
X74552Y202769D02*Y200769D01*
X70552Y202769D02*Y200769D01*
X74052Y204469D02*X74552Y204969D01*
X73052Y204469D02*X74052D01*
X73052D02*X72552Y204969D01*
Y205969D02*Y204969D01*
Y205969D02*X73052Y206469D01*
X74052D01*
X74552Y205969D02*X74052Y206469D01*
X74552Y205969D02*Y204969D01*
X72052Y204469D02*X72552Y204969D01*
X71052Y204469D02*X72052D01*
X71052D02*X70552Y204969D01*
Y205969D02*Y204969D01*
Y205969D02*X71052Y206469D01*
X72052D01*
X72552Y205969D02*X72052Y206469D01*
X113922Y181615D02*X115422D01*
X113422Y182115D02*X113922Y181615D01*
X113422Y185115D02*Y182115D01*
Y185115D02*X113922Y185615D01*
X115422D01*
X117122Y181615D02*X118122D01*
X117622Y185615D02*Y181615D01*
X116622Y184615D02*X117622Y185615D01*
X103362Y171459D02*X103862D01*
X106362Y173959D01*
X107362D01*
X106362Y171459D02*X107362D01*
X106362D02*X103862Y173959D01*
X103362D02*X103862D01*
X107362Y176659D02*Y175659D01*
X103362Y176159D02*X107362D01*
X104362Y175159D02*X103362Y176159D01*
X150590Y144668D02*X152590D01*
X153090Y144168D01*
Y143168D01*
X152590Y142668D02*X153090Y143168D01*
X151090Y142668D02*X152590D01*
X151090Y144668D02*Y140668D01*
Y142668D02*X153090Y140668D01*
X154290D02*X156790Y143168D01*
Y144668D02*Y143168D01*
X154290Y144668D02*X156790D01*
X70553Y177939D02*X71053Y178439D01*
X70553Y177939D02*Y176439D01*
X71053Y175939D02*X70553Y176439D01*
X71053Y175939D02*X72053D01*
X72553Y176439D01*
Y177939D02*Y176439D01*
Y177939D02*X73053Y178439D01*
X74053D01*
X74553Y177939D02*X74053Y178439D01*
X74553Y177939D02*Y176439D01*
X74053Y175939D02*X74553Y176439D01*
X74053Y179639D02*X71053Y182639D01*
X70553Y184339D02*X74553D01*
X70553Y185839D02*X71053Y186339D01*
X74053D01*
X74553Y185839D02*X74053Y186339D01*
X74553Y185839D02*Y183839D01*
X70553Y185839D02*Y183839D01*
X74553Y187539D02*X72053Y190039D01*
X70553D02*X72053D01*
X70553D02*Y187539D01*
X57465Y172174D02*X57910Y172619D01*
X57465Y172174D02*Y170839D01*
X57910Y170394D02*X57465Y170839D01*
X57910Y170394D02*X58800D01*
X59245Y170839D01*
Y172174D02*Y170839D01*
Y172174D02*X59690Y172619D01*
X60580D01*
X61025Y172174D02*X60580Y172619D01*
X61025Y172174D02*Y170839D01*
X60580Y170394D02*X61025Y170839D01*
X60580Y173687D02*X57910Y176357D01*
X57465Y179205D02*X57910Y179650D01*
X57465Y179205D02*Y177870D01*
X57910Y177425D02*X57465Y177870D01*
X57910Y177425D02*X58800D01*
X59245Y177870D01*
Y179205D02*Y177870D01*
Y179205D02*X59690Y179650D01*
X60580D01*
X61025Y179205D02*X60580Y179650D01*
X61025Y179205D02*Y177870D01*
X60580Y177425D02*X61025Y177870D01*
X60580Y180718D02*X57910Y183388D01*
X57465Y185791D02*Y184456D01*
Y185791D02*X60580D01*
X61025Y185346D02*X60580Y185791D01*
X61025Y185346D02*Y184901D01*
X60580Y184456D02*X61025Y184901D01*
X57910Y186859D02*X57465Y187304D01*
Y188639D02*Y187304D01*
Y188639D02*X57910Y189084D01*
X58800D01*
X61025Y186859D02*X58800Y189084D01*
X61025D02*Y186859D01*
X57466Y109180D02*X57911Y109625D01*
X57466Y109180D02*Y107845D01*
X57911Y107400D02*X57466Y107845D01*
X57911Y107400D02*X58801D01*
X59246Y107845D01*
Y109180D02*Y107845D01*
Y109180D02*X59691Y109625D01*
X60581D01*
X61026Y109180D02*X60581Y109625D01*
X61026Y109180D02*Y107845D01*
X60581Y107400D02*X61026Y107845D01*
X60581Y110693D02*X57911Y113363D01*
X57466Y116211D02*X57911Y116656D01*
X57466Y116211D02*Y114876D01*
X57911Y114431D02*X57466Y114876D01*
X57911Y114431D02*X58801D01*
X59246Y114876D01*
Y116211D02*Y114876D01*
Y116211D02*X59691Y116656D01*
X60581D01*
X61026Y116211D02*X60581Y116656D01*
X61026Y116211D02*Y114876D01*
X60581Y114431D02*X61026Y114876D01*
X60581Y117724D02*X57911Y120394D01*
X57466Y122797D02*Y121462D01*
Y122797D02*X60581D01*
X61026Y122352D02*X60581Y122797D01*
X61026Y122352D02*Y121907D01*
X60581Y121462D02*X61026Y121907D01*
Y125200D02*Y124310D01*
X57466Y124755D02*X61026D01*
X58356Y123865D02*X57466Y124755D01*
X57890Y96089D02*X58280Y96479D01*
X57890Y96089D02*Y94919D01*
X58280Y94529D02*X57890Y94919D01*
X58280Y94529D02*X59060D01*
X59450Y94919D01*
Y96089D02*Y94919D01*
Y96089D02*X59840Y96479D01*
X60620D01*
X61010Y96089D02*X60620Y96479D01*
X61010Y96089D02*Y94919D01*
X60620Y94529D02*X61010Y94919D01*
X60620Y97415D02*X58280Y99755D01*
X57890Y101861D02*Y100691D01*
Y101861D02*X60620D01*
X61010Y101471D02*X60620Y101861D01*
X61010Y101471D02*Y101081D01*
X60620Y100691D02*X61010Y101081D01*
X58280Y102797D02*X57890Y103187D01*
Y103967D02*Y103187D01*
Y103967D02*X58280Y104357D01*
X60620D01*
X61010Y103967D02*X60620Y104357D01*
X61010Y103967D02*Y103187D01*
X60620Y102797D02*X61010Y103187D01*
X59450Y104357D02*Y103187D01*
X63983Y120111D02*X64428Y120556D01*
X63983Y120111D02*Y118776D01*
X64428Y118331D02*X63983Y118776D01*
X64428Y118331D02*X65318D01*
X65763Y118776D01*
Y120111D02*Y118776D01*
Y120111D02*X66208Y120556D01*
X67098D01*
X67543Y120111D02*X67098Y120556D01*
X67543Y120111D02*Y118776D01*
X67098Y118331D02*X67543Y118776D01*
X67098Y121624D02*X64428Y124294D01*
X63983Y125807D02*X67543D01*
X63983Y127142D02*X64428Y127587D01*
X67098D01*
X67543Y127142D02*X67098Y127587D01*
X67543Y127142D02*Y125362D01*
X63983Y127142D02*Y125362D01*
X67543Y128655D02*X65763Y130435D01*
X64428D02*X65763D01*
X63983Y129990D02*X64428Y130435D01*
X63983Y129990D02*Y129100D01*
X64428Y128655D02*X63983Y129100D01*
X64428Y128655D02*X65318D01*
X65763Y129100D01*
Y130435D02*Y129100D01*
X156660Y94396D02*X160660D01*
X156660Y95896D02*X157160Y96396D01*
X160160D01*
X160660Y95896D02*X160160Y96396D01*
X160660Y95896D02*Y93896D01*
X156660Y95896D02*Y93896D01*
X157160Y97596D02*X156660Y98096D01*
Y99096D02*Y98096D01*
Y99096D02*X157160Y99596D01*
X160160D01*
X160660Y99096D02*X160160Y99596D01*
X160660Y99096D02*Y98096D01*
X160160Y97596D02*X160660Y98096D01*
X158660Y99596D02*Y98096D01*
X148030Y79512D02*X150030D01*
X150530Y79012D01*
Y78012D01*
X150030Y77512D02*X150530Y78012D01*
X148530Y77512D02*X150030D01*
X148530Y79512D02*Y75512D01*
Y77512D02*X150530Y75512D01*
X151730D02*X153730Y77512D01*
Y79012D02*Y77512D01*
X153230Y79512D02*X153730Y79012D01*
X152230Y79512D02*X153230D01*
X151730Y79012D02*X152230Y79512D01*
X151730Y79012D02*Y78012D01*
X152230Y77512D01*
X153730D01*
X156700Y118412D02*X160700D01*
X156700Y119912D02*X157200Y120412D01*
X160200D01*
X160700Y119912D02*X160200Y120412D01*
X160700Y119912D02*Y117912D01*
X156700Y119912D02*Y117912D01*
X157200Y121612D02*X156700Y122112D01*
Y123612D02*Y122112D01*
Y123612D02*X157200Y124112D01*
X158200D01*
X160700Y121612D02*X158200Y124112D01*
X160700D02*Y121612D01*
X152953Y114548D02*X154953D01*
X155453Y114048D01*
Y113048D01*
X154953Y112548D02*X155453Y113048D01*
X153453Y112548D02*X154953D01*
X153453Y114548D02*Y110548D01*
Y112548D02*X155453Y110548D01*
X156653Y111048D02*X157153Y110548D01*
X156653Y112048D02*Y111048D01*
Y112048D02*X157153Y112548D01*
X158153D01*
X158653Y112048D01*
Y111048D01*
X158153Y110548D02*X158653Y111048D01*
X157153Y110548D02*X158153D01*
X156653Y113048D02*X157153Y112548D01*
X156653Y114048D02*Y113048D01*
Y114048D02*X157153Y114548D01*
X158153D01*
X158653Y114048D01*
Y113048D01*
X158153Y112548D02*X158653Y113048D01*
X155303Y32912D02*X156803D01*
X154803Y33412D02*X155303Y32912D01*
X154803Y36412D02*Y33412D01*
Y36412D02*X155303Y36912D01*
X156803D01*
X158003Y32912D02*X160003Y34912D01*
Y36412D02*Y34912D01*
X159503Y36912D02*X160003Y36412D01*
X158503Y36912D02*X159503D01*
X158003Y36412D02*X158503Y36912D01*
X158003Y36412D02*Y35412D01*
X158503Y34912D01*
X160003D01*
X142705Y35867D02*X144205D01*
X142205Y36367D02*X142705Y35867D01*
X142205Y39367D02*Y36367D01*
Y39367D02*X142705Y39867D01*
X144205D01*
X145905Y35867D02*X146905D01*
X146405Y39867D02*Y35867D01*
X145405Y38867D02*X146405Y39867D01*
X148105Y36367D02*X148605Y35867D01*
X148105Y39367D02*Y36367D01*
Y39367D02*X148605Y39867D01*
X149605D01*
X150105Y39367D01*
Y36367D01*
X149605Y35867D02*X150105Y36367D01*
X148605Y35867D02*X149605D01*
X148105Y36867D02*X150105Y38867D01*
X27756Y73605D02*X29256D01*
Y70105D01*
X28756Y69605D02*X29256Y70105D01*
X28256Y69605D02*X28756D01*
X27756Y70105D02*X28256Y69605D01*
X30956D02*X31956D01*
X31456Y73605D02*Y69605D01*
X30456Y72605D02*X31456Y73605D01*
X71615Y68606D02*Y64606D01*
X73615D01*
X75315D02*X76315D01*
X75815Y68606D02*Y64606D01*
X74815Y67606D02*X75815Y68606D01*
X62370Y76743D02*Y73743D01*
Y76743D02*X62870Y77243D01*
X63870D01*
X64370Y76743D01*
Y73743D01*
X63870Y73243D02*X64370Y73743D01*
X62870Y73243D02*X63870D01*
X62370Y73743D02*X62870Y73243D01*
X63370Y74243D02*X64370Y73243D01*
X66070D02*X67070D01*
X66570Y77243D02*Y73243D01*
X65570Y76243D02*X66570Y77243D01*
X37596Y26386D02*Y23266D01*
X38766Y26386D02*X39156Y25996D01*
Y23656D01*
X38766Y23266D02*X39156Y23656D01*
X37206Y23266D02*X38766D01*
X37206Y26386D02*X38766D01*
X40482Y23266D02*X41262D01*
X40872Y26386D02*Y23266D01*
X40092Y25606D02*X40872Y26386D01*
X69457Y5680D02*Y2680D01*
Y5680D02*X69957Y6180D01*
X70957D01*
X71457Y5680D01*
Y2680D01*
X70957Y2180D02*X71457Y2680D01*
X69957Y2180D02*X70957D01*
X69457Y2680D02*X69957Y2180D01*
X70457Y3180D02*X71457Y2180D01*
X72657Y5680D02*X73157Y6180D01*
X74657D01*
X75157Y5680D01*
Y4680D01*
X72657Y2180D02*X75157Y4680D01*
X72657Y2180D02*X75157D01*
M02*
