G04 start of page 10 for group -4015 idx -4015 *
G04 Title: (unknown), toppaste *
G04 Creator: pcb 20110918 *
G04 CreationDate: Thu 16 Aug 2012 16:03:18 GMT UTC *
G04 For: rob *
G04 Format: Gerber/RS-274X *
G04 PCB-Dimensions: 165354 236220 *
G04 PCB-Coordinate-Origin: lower left *
%MOIN*%
%FSLAX25Y25*%
%LNTOPPASTE*%
%ADD120R,0.0340X0.0340*%
%ADD119R,0.0118X0.0118*%
%ADD118R,0.0283X0.0283*%
%ADD117R,0.0200X0.0200*%
%ADD116R,0.0510X0.0510*%
%ADD115C,0.0001*%
G54D115*G36*
X73189Y46377D02*Y26692D01*
X92874D01*
Y46377D01*
X73189D01*
G37*
G36*
X112559D02*Y26692D01*
X132244D01*
Y46377D01*
X112559D01*
G37*
G54D116*X149591Y98187D02*X151591D01*
X149591Y90787D02*X151591D01*
G54D117*X38665Y69507D02*X45165D01*
X38665Y64507D02*X45165D01*
X38665Y59507D02*X45165D01*
X38665Y54507D02*X45165D01*
X59165D02*X65665D01*
X59165Y59507D02*X65665D01*
X59165Y64507D02*X65665D01*
X59165Y69507D02*X65665D01*
G54D116*X149591Y128936D02*X151591D01*
X149591Y121536D02*X151591D01*
G54D118*X153508Y107767D02*Y106799D01*
X147674Y107767D02*Y106799D01*
X115086Y189460D02*Y188492D01*
X109252Y189460D02*Y188492D01*
G54D119*X106537Y197027D02*Y193681D01*
X109096Y197027D02*Y193681D01*
X111655Y197027D02*Y193681D01*
X114214Y197027D02*Y193681D01*
X116773Y197027D02*Y193681D01*
X119332Y197027D02*Y193681D01*
X121891Y197027D02*Y193681D01*
X124450Y197027D02*Y193681D01*
X127009Y197027D02*Y193681D01*
X129568Y197027D02*Y193681D01*
X132127Y197027D02*Y193681D01*
X134686Y197027D02*Y193681D01*
X137245Y197027D02*Y193681D01*
X139804Y197027D02*Y193681D01*
X142363Y197027D02*Y193681D01*
X144922Y197027D02*Y193681D01*
X147481Y197027D02*Y193681D01*
X150040Y197027D02*Y193681D01*
X152599Y197027D02*Y193681D01*
Y226555D02*Y223209D01*
X150040Y226555D02*Y223209D01*
X147481Y226555D02*Y223209D01*
X144922Y226555D02*Y223209D01*
X142363Y226555D02*Y223209D01*
X139804Y226555D02*Y223209D01*
X137245Y226555D02*Y223209D01*
X134686Y226555D02*Y223209D01*
X132127Y226555D02*Y223209D01*
X129568Y226555D02*Y223209D01*
X127009Y226555D02*Y223209D01*
X124450Y226555D02*Y223209D01*
X121891Y226555D02*Y223209D01*
X119332Y226555D02*Y223209D01*
X116773Y226555D02*Y223209D01*
X114214Y226555D02*Y223209D01*
X111655Y226555D02*Y223209D01*
X109096Y226555D02*Y223209D01*
X106537Y226555D02*Y223209D01*
G54D115*G36*
X38583Y45235D02*Y39723D01*
X44095D01*
Y45235D01*
X38583D01*
G37*
G36*
Y37047D02*Y31535D01*
X44095D01*
Y37047D01*
X38583D01*
G37*
G36*
X46457Y47834D02*Y28936D01*
X65355D01*
Y47834D01*
X46457D01*
G37*
G54D117*X59165Y4311D02*X65665D01*
X59165Y9311D02*X65665D01*
X59165Y14311D02*X65665D01*
X59165Y19311D02*X65665D01*
X38665D02*X45165D01*
X38665Y14311D02*X45165D01*
X38665Y9311D02*X45165D01*
X38665Y4311D02*X45165D01*
G54D118*X5422Y232050D02*X6390D01*
X5422Y226216D02*X6390D01*
X147674Y83161D02*Y82193D01*
X153508Y83161D02*Y82193D01*
G54D120*X79133Y132190D02*Y131590D01*
X71333Y132190D02*Y131590D01*
X75233Y123990D02*Y123390D01*
X86380Y203972D02*Y203372D01*
X78580Y203972D02*Y203372D01*
X82480Y195772D02*Y195172D01*
X78580Y178911D02*Y178311D01*
X86380Y178911D02*Y178311D01*
X82480Y187111D02*Y186511D01*
G54D118*X153508Y138279D02*Y137311D01*
X147674Y138279D02*Y137311D01*
M02*
