M48
INCH
T11C0.020
T22C0.060
T32C0.035
T34C0.038
T36C0.030
%
T11
X011417Y017151
X011417Y017651
X001476Y012500
X000393Y010433
X001476Y012972
X002066Y013228
X002362Y011417
X002519Y007519
X002362Y010748
X005748Y010354
X004370Y011378
X003366Y011496
X005019Y005413
X006102Y002460
X003385Y004133
X007263Y011417
X009291Y008110
X007874Y005019
X007440Y009094
X004566Y014763
X004566Y015236
X004566Y015708
X004566Y016181
X007992Y012696
X015039Y011535
X007972Y011574
X007523Y011821
X006909Y012637
X006358Y014468
X006358Y015000
X006358Y015531
X006358Y016063
X006712Y015807
X011338Y015708
X010905Y003110
X014763Y014251
X015629Y008700
X013878Y004665
X013878Y004074
X016220Y003661
X013878Y002696
X013878Y003287
X015551Y000551
X016102Y001023
X016102Y006141
X002795Y017047
X004094Y014763
X004094Y015236
X004094Y015708
X001574Y020118
X001023Y020472
X002283Y018582
X001811Y018700
X002283Y019055
X001378Y019330
X001811Y019173
X001338Y017874
X001220Y015196
X001811Y015255
X002204Y017716
X000629Y017322
X000354Y017775
X002893Y021161
X002992Y020551
X007755Y019881
X007637Y018976
X008700Y018346
X007755Y018346
X008700Y019881
X006161Y021358
X003366Y021102
X009291Y016456
X006358Y016594
X006712Y016338
X005531Y021988
X005846Y021673
X005590Y022913
X009330Y021614
X010236Y023267
X015275Y023070
X014842Y023070
X009645Y021299
X009960Y020984
X010748Y021338
X010315Y021259
X012126Y017204
X015236Y018228
X015236Y018818
X010984Y018228
X015157Y017204
X009527Y019881
X009606Y020669
T36
X014566Y001870
X015566Y001870
X014566Y005511
X015566Y005511
T32
X004074Y013870
X005074Y013370
X004074Y017759
X005074Y017259
X005074Y010370
X004074Y010870
X005074Y012370
X004074Y012870
X004074Y011870
X005074Y011370
X005074Y019259
X004074Y018759
X004074Y019759
X004074Y020759
X005074Y020259
X005074Y018259
X000885Y003838
X002677Y013897
X005216Y001476
X005216Y000688
X005216Y002263
X004015Y016811
T34
X000740Y008110
X001740Y008110
X002740Y008110
X003740Y008110
X004740Y008110
X011893Y016338
X012893Y016338
X013893Y016338
X011893Y012500
X011893Y011220
X012893Y012500
X013893Y012500
X011893Y013779
X012893Y013779
X013893Y013779
X011893Y015059
X012893Y015059
X013893Y015059
X012893Y011220
X013893Y011220
X011893Y009940
X012893Y009940
X013893Y009940
X011893Y008661
X012893Y008661
X013893Y008661
X011893Y007381
X012893Y007381
X013893Y007381
X001732Y022913
X002732Y022913
X003732Y022913
X004732Y022913
T22
X002460Y005314
X002460Y002362
M30
