*
%FSLAX26Y26*%
%MOIN*%
%ADD10C,0.007900*%
%ADD11C,0.010000*%
%ADD12C,0.020000*%
%ADD13C,0.009800*%
%ADD14C,0.021654*%
%ADD15R,0.040016X0.046000*%
%ADD16R,0.034307X0.043992*%
%ADD17R,0.194976X0.194976*%
%ADD18R,0.017811X0.051276*%
%ADD19R,0.043992X0.034307*%
%ADD20R,0.202850X0.202850*%
%ADD21R,0.091000X0.026000*%
%ADD22R,0.061118X0.061118*%
%ADD23R,0.076984X0.056984*%
%ADD24C,0.066000*%
%ADD25C,0.008500*%
%IPPOS*%
%LNci.gbx*%
%LPD*%
G75*
G54D10*
X00574800Y00901580D02*
X00535430Y00862210D01*
X00574800Y00937010D02*
Y00901580D01*
X00598430Y02232280D02*
X00114170D01*
X00094490Y02251960D01*
G54D11*
X01550910Y01310360D02*
X01540910Y01335360D01*
X01550910Y01310360D02*
Y01179360D01*
X01460910D02*
X01550910D01*
X01460910Y01310360D02*
Y01179360D01*
X01470910Y01335360D02*
X01460910Y01310360D01*
G54D12*
X01470910Y01335360D02*
X01540910D01*
G54D11*
X01550910Y01002870D02*
X01540910Y01027870D01*
X01550910Y01002870D02*
Y00871870D01*
X01460910D02*
X01550910D01*
X01460910Y01002870D02*
Y00871870D01*
X01470910Y01027870D02*
X01460910Y01002870D01*
G54D12*
X01470910Y01027870D02*
X01540910D01*
G54D10*
X01498040Y00811690D02*
X01513780D01*
X01498040Y00841850D02*
X01513780D01*
G54D13*
X00716150Y00625190D02*
Y00105510D01*
X01338190Y00625190D02*
X00716150D01*
X01338190Y00105510D02*
Y00625190D01*
X00716150Y00105510D02*
X01338190D01*
G54D11*
X01596690Y00681180D02*
X01636690D01*
X01396690Y00701180D02*
Y00661180D01*
X01376690Y00681180D02*
X01416690D01*
X01371690Y00551180D02*
G03X01371690Y00551180I00135000J00000000D01*
X01596690Y00317000D02*
G01X01636690D01*
X01396690Y00337000D02*
Y00297000D01*
X01376690Y00317000D02*
X01416690D01*
X01371690Y00187000D02*
G03X01371690Y00187000I00135000J00000000D01*
X00024030Y00761020D02*
G01X00524030D01*
Y00861020D02*
Y00761020D01*
X00024030Y00861020D02*
X00524030D01*
X00024030D02*
Y00761020D01*
X00124030Y00861020D02*
Y00761020D01*
X00024030Y00861020D02*
X00124030D01*
X00676650Y00715070D02*
X00546650D01*
X00366650D02*
X00496650D01*
X00676650Y00525070D02*
Y00715070D01*
X00366650Y00525070D02*
X00676650D01*
X00366650Y00715070D02*
Y00525070D01*
X00496650Y00715070D02*
G03X00546650Y00715070I00025000J00000000D01*
X00366650Y00023110D02*
G01X00496650D01*
X00546650D02*
X00676650D01*
X00366650Y00213110D02*
Y00023110D01*
Y00213110D02*
X00676650D01*
Y00023110D01*
X00546650D02*
G03X00496650Y00023110I-00025000J00000000D01*
G54D13*
X00374020Y00490150D02*
G01X00665360D01*
Y00277550D01*
X00374020D02*
X00665360D01*
X00374020Y00490150D02*
Y00277550D01*
G54D11*
X00324800Y00679130D02*
Y00088570D01*
X00009840Y00679130D02*
X00324800D01*
X00009840Y00088570D02*
X00324800D01*
X00760800Y01926720D02*
X00888800D01*
X00760800Y02065720D02*
Y01926720D01*
Y02065720D02*
X00888800D01*
Y01926720D01*
Y01896110D02*
X00760800D01*
X00888800Y01757110D02*
Y01896110D01*
X00760800Y01757110D02*
X00888800D01*
X00760800Y01896110D02*
Y01757110D01*
X00123230Y02341330D02*
X00223230D01*
Y02241330D01*
X00123230Y02341330D02*
Y02241330D01*
Y02341330D02*
X00523230D01*
Y02241330D01*
X00123230D02*
X00523230D01*
G54D10*
X00043980Y02283460D02*
Y02299200D01*
X00074140Y02283460D02*
Y02299200D01*
G54D11*
X00009730Y01580980D02*
X00557480D01*
Y02220980D01*
X00009730D02*
X00557480D01*
X00009730Y00892010D02*
X00557480D01*
Y01532010D01*
X00009730D02*
X00557480D01*
G54D10*
X01498040Y01087910D02*
X01513780D01*
X01498040Y01057750D02*
X01513780D01*
G54D11*
X00688330Y01208900D02*
X00816330D01*
X00688330Y01347900D02*
Y01208900D01*
Y01347900D02*
X00816330D01*
Y01208900D01*
G54D10*
X01498040Y01393030D02*
X01513780D01*
X01498040Y01362870D02*
X01513780D01*
G54D11*
X01047650Y02223230D02*
X01543710D01*
Y01979130D01*
X01047650D02*
X01543710D01*
X01047650Y02223230D02*
Y01979130D01*
X01072450Y01985240D02*
G03X01072450Y01985240I00000000J00006100D01*
X01141730Y01690150D02*
G03X01141730Y01690150I00000000J00050000D01*
G54D10*
X01113820Y01904840D02*
G01X01129560D01*
X01113820Y01874680D02*
X01129560D01*
X00990720Y01979130D02*
X01025720D01*
X01030720Y01984130D01*
Y01994130D02*
Y01984130D01*
Y01994130D02*
X01025720Y01999130D01*
X00990720D02*
X01025720D01*
X00995720Y02011140D02*
X00990720Y02016140D01*
Y02026140D02*
Y02016140D01*
Y02026140D02*
X00995720Y02031140D01*
X01025720D01*
X01030720Y02026140D02*
X01025720Y02031140D01*
X01030720Y02026140D02*
Y02016140D01*
X01025720Y02011140D02*
X01030720Y02016140D01*
X01010720Y02031140D02*
Y02016140D01*
X00705520Y01948690D02*
X00710520Y01953690D01*
X00705520Y01948690D02*
Y01933690D01*
X00710520Y01928690D02*
X00705520Y01933690D01*
X00710520Y01928690D02*
X00720520D01*
X00725520Y01933690D01*
Y01948690D02*
Y01933690D01*
Y01948690D02*
X00730520Y01953690D01*
X00740520D01*
X00745520Y01948690D02*
X00740520Y01953690D01*
X00745520Y01948690D02*
Y01933690D01*
X00740520Y01928690D02*
X00745520Y01933690D01*
X00740520Y01965700D02*
X00710520Y01995700D01*
X00705520Y02012710D02*
X00745520D01*
X00705520Y02027710D02*
X00710520Y02032710D01*
X00740520D01*
X00745520Y02027710D02*
X00740520Y02032710D01*
X00745520Y02027710D02*
Y02007710D01*
X00705520Y02027710D02*
Y02007710D01*
X00740520Y02044720D02*
X00745520Y02049720D01*
X00730520Y02044720D02*
X00740520D01*
X00730520D02*
X00725520Y02049720D01*
Y02059720D02*
Y02049720D01*
Y02059720D02*
X00730520Y02064720D01*
X00740520D01*
X00745520Y02059720D02*
X00740520Y02064720D01*
X00745520Y02059720D02*
Y02049720D01*
X00720520Y02044720D02*
X00725520Y02049720D01*
X00710520Y02044720D02*
X00720520D01*
X00710520D02*
X00705520Y02049720D01*
Y02059720D02*
Y02049720D01*
Y02059720D02*
X00710520Y02064720D01*
X00720520D01*
X00725520Y02059720D02*
X00720520Y02064720D01*
X00705530Y01779390D02*
X00710530Y01784390D01*
X00705530Y01779390D02*
Y01764390D01*
X00710530Y01759390D02*
X00705530Y01764390D01*
X00710530Y01759390D02*
X00720530D01*
X00725530Y01764390D01*
Y01779390D02*
Y01764390D01*
Y01779390D02*
X00730530Y01784390D01*
X00740530D01*
X00745530Y01779390D02*
X00740530Y01784390D01*
X00745530Y01779390D02*
Y01764390D01*
X00740530Y01759390D02*
X00745530Y01764390D01*
X00740530Y01796400D02*
X00710530Y01826400D01*
X00705530Y01843410D02*
X00745530D01*
X00705530Y01858410D02*
X00710530Y01863410D01*
X00740530D01*
X00745530Y01858410D02*
X00740530Y01863410D01*
X00745530Y01858410D02*
Y01838410D01*
X00705530Y01858410D02*
Y01838410D01*
X00745530Y01875420D02*
X00720530Y01900420D01*
X00705530D02*
X00720530D01*
X00705530D02*
Y01875420D01*
X00574650Y01721740D02*
X00579100Y01726190D01*
X00574650Y01721740D02*
Y01708390D01*
X00579100Y01703940D02*
X00574650Y01708390D01*
X00579100Y01703940D02*
X00588000D01*
X00592450Y01708390D01*
Y01721740D02*
Y01708390D01*
Y01721740D02*
X00596900Y01726190D01*
X00605800D01*
X00610250Y01721740D02*
X00605800Y01726190D01*
X00610250Y01721740D02*
Y01708390D01*
X00605800Y01703940D02*
X00610250Y01708390D01*
X00605800Y01736870D02*
X00579100Y01763570D01*
X00574650Y01792060D02*
X00579100Y01796510D01*
X00574650Y01792060D02*
Y01778710D01*
X00579100Y01774260D02*
X00574650Y01778710D01*
X00579100Y01774260D02*
X00588000D01*
X00592450Y01778710D01*
Y01792060D02*
Y01778710D01*
Y01792060D02*
X00596900Y01796510D01*
X00605800D01*
X00610250Y01792060D02*
X00605800Y01796510D01*
X00610250Y01792060D02*
Y01778710D01*
X00605800Y01774260D02*
X00610250Y01778710D01*
X00605800Y01807200D02*
X00579100Y01833900D01*
X00574650Y01857940D02*
Y01844590D01*
Y01857940D02*
X00605800D01*
X00610250Y01853490D02*
X00605800Y01857940D01*
X00610250Y01853490D02*
Y01849040D01*
X00605800Y01844590D02*
X00610250Y01849040D01*
X00579100Y01868630D02*
X00574650Y01873080D01*
Y01886430D02*
Y01873080D01*
Y01886430D02*
X00579100Y01890880D01*
X00588000D01*
X00610250Y01868630D02*
X00588000Y01890880D01*
X00610250D02*
Y01868630D01*
X00694570Y00056800D02*
Y00026800D01*
Y00056800D02*
X00699570Y00061800D01*
X00709570D01*
X00714570Y00056800D01*
Y00026800D01*
X00709570Y00021800D02*
X00714570Y00026800D01*
X00699570Y00021800D02*
X00709570D01*
X00694570Y00026800D02*
X00699570Y00021800D01*
X00704570Y00031800D02*
X00714570Y00021800D01*
X00726580Y00056800D02*
X00731580Y00061800D01*
X00746580D01*
X00751580Y00056800D01*
Y00046800D01*
X00726580Y00021800D02*
X00751580Y00046800D01*
X00726580Y00021800D02*
X00751580D01*
X00375960Y00263860D02*
Y00232660D01*
X00387660Y00263860D02*
X00391560Y00259960D01*
Y00236560D01*
X00387660Y00232660D02*
X00391560Y00236560D01*
X00372060Y00232660D02*
X00387660D01*
X00372060Y00263860D02*
X00387660D01*
X00404820Y00232660D02*
X00412620D01*
X00408720Y00263860D02*
Y00232660D01*
X00400920Y00256060D02*
X00408720Y00263860D01*
X01529530Y01145480D02*
X01549530D01*
X01554530Y01140480D01*
Y01130480D01*
X01549530Y01125480D02*
X01554530Y01130480D01*
X01534530Y01125480D02*
X01549530D01*
X01534530Y01145480D02*
Y01105480D01*
Y01125480D02*
X01554530Y01105480D01*
X01566540Y01110480D02*
X01571540Y01105480D01*
X01566540Y01120480D02*
Y01110480D01*
Y01120480D02*
X01571540Y01125480D01*
X01581540D01*
X01586540Y01120480D01*
Y01110480D01*
X01581540Y01105480D02*
X01586540Y01110480D01*
X01571540Y01105480D02*
X01581540D01*
X01566540Y01130480D02*
X01571540Y01125480D01*
X01566540Y01140480D02*
Y01130480D01*
Y01140480D02*
X01571540Y01145480D01*
X01581540D01*
X01586540Y01140480D01*
Y01130480D01*
X01581540Y01125480D02*
X01586540Y01130480D01*
X01567000Y01184120D02*
X01607000D01*
X01567000Y01199120D02*
X01572000Y01204120D01*
X01602000D01*
X01607000Y01199120D02*
X01602000Y01204120D01*
X01607000Y01199120D02*
Y01179120D01*
X01567000Y01199120D02*
Y01179120D01*
X01572000Y01216130D02*
X01567000Y01221130D01*
Y01236130D02*
Y01221130D01*
Y01236130D02*
X01572000Y01241130D01*
X01582000D01*
X01607000Y01216130D02*
X01582000Y01241130D01*
X01607000D02*
Y01216130D01*
X01566600Y00943960D02*
X01606600D01*
X01566600Y00958960D02*
X01571600Y00963960D01*
X01601600D01*
X01606600Y00958960D02*
X01601600Y00963960D01*
X01606600Y00958960D02*
Y00938960D01*
X01566600Y00958960D02*
Y00938960D01*
X01571600Y00975970D02*
X01566600Y00980970D01*
Y00990970D02*
Y00980970D01*
Y00990970D02*
X01571600Y00995970D01*
X01601600D01*
X01606600Y00990970D02*
X01601600Y00995970D01*
X01606600Y00990970D02*
Y00980970D01*
X01601600Y00975970D02*
X01606600Y00980970D01*
X01586600Y00995970D02*
Y00980970D01*
X01505900Y01446680D02*
X01525900D01*
X01530900Y01441680D01*
Y01431680D01*
X01525900Y01426680D02*
X01530900Y01431680D01*
X01510900Y01426680D02*
X01525900D01*
X01510900Y01446680D02*
Y01406680D01*
Y01426680D02*
X01530900Y01406680D01*
X01542910D02*
X01567910Y01431680D01*
Y01446680D02*
Y01431680D01*
X01542910Y01446680D02*
X01567910D01*
X01427050Y00358670D02*
X01442050D01*
X01422050Y00363670D02*
X01427050Y00358670D01*
X01422050Y00393670D02*
Y00363670D01*
Y00393670D02*
X01427050Y00398670D01*
X01442050D01*
X01459060Y00358670D02*
X01469060D01*
X01464060Y00398670D02*
Y00358670D01*
X01454060Y00388670D02*
X01464060Y00398670D01*
X01481070Y00363670D02*
X01486070Y00358670D01*
X01481070Y00393670D02*
Y00363670D01*
Y00393670D02*
X01486070Y00398670D01*
X01496070D01*
X01501070Y00393670D01*
Y00363670D01*
X01496070Y00358670D02*
X01501070Y00363670D01*
X01486070Y00358670D02*
X01496070D01*
X01481070Y00368670D02*
X01501070Y00388670D01*
X01553030Y00329120D02*
X01568030D01*
X01548030Y00334120D02*
X01553030Y00329120D01*
X01548030Y00364120D02*
Y00334120D01*
Y00364120D02*
X01553030Y00369120D01*
X01568030D01*
X01580040Y00329120D02*
X01600040Y00349120D01*
Y00364120D02*
Y00349120D01*
X01595040Y00369120D02*
X01600040Y00364120D01*
X01585040Y00369120D02*
X01595040D01*
X01580040Y00364120D02*
X01585040Y00369120D01*
X01580040Y00364120D02*
Y00354120D01*
X01585040Y00349120D01*
X01600040D01*
X01480300Y00795120D02*
X01500300D01*
X01505300Y00790120D01*
Y00780120D01*
X01500300Y00775120D02*
X01505300Y00780120D01*
X01485300Y00775120D02*
X01500300D01*
X01485300Y00795120D02*
Y00755120D01*
Y00775120D02*
X01505300Y00755120D01*
X01517310D02*
X01537310Y00775120D01*
Y00790120D02*
Y00775120D01*
X01532310Y00795120D02*
X01537310Y00790120D01*
X01522310Y00795120D02*
X01532310D01*
X01517310Y00790120D02*
X01522310Y00795120D01*
X01517310Y00790120D02*
Y00780120D01*
X01522310Y00775120D01*
X01537310D01*
X01033620Y01714590D02*
X01038620D01*
X01063620Y01739590D01*
X01073620D01*
X01063620Y01714590D02*
X01073620D01*
X01063620D02*
X01038620Y01739590D01*
X01033620D02*
X01038620D01*
X01073620Y01766600D02*
Y01756600D01*
X01033620Y01761600D02*
X01073620D01*
X01043620Y01751600D02*
X01033620Y01761600D01*
X01139220Y01816150D02*
X01154220D01*
X01134220Y01821150D02*
X01139220Y01816150D01*
X01134220Y01851150D02*
Y01821150D01*
Y01851150D02*
X01139220Y01856150D01*
X01154220D01*
X01171230Y01816150D02*
X01181230D01*
X01176230Y01856150D02*
Y01816150D01*
X01166230Y01846150D02*
X01176230Y01856150D01*
X00578900Y00960890D02*
X00582800Y00964790D01*
X00578900Y00960890D02*
Y00949190D01*
X00582800Y00945290D02*
X00578900Y00949190D01*
X00582800Y00945290D02*
X00590600D01*
X00594500Y00949190D01*
Y00960890D02*
Y00949190D01*
Y00960890D02*
X00598400Y00964790D01*
X00606200D01*
X00610100Y00960890D02*
X00606200Y00964790D01*
X00610100Y00960890D02*
Y00949190D01*
X00606200Y00945290D02*
X00610100Y00949190D01*
X00606200Y00974150D02*
X00582800Y00997550D01*
X00578900Y01018620D02*
Y01006920D01*
Y01018620D02*
X00606200D01*
X00610100Y01014720D02*
X00606200Y01018620D01*
X00610100Y01014720D02*
Y01010820D01*
X00606200Y01006920D02*
X00610100Y01010820D01*
X00582800Y01027990D02*
X00578900Y01031890D01*
Y01039690D02*
Y01031890D01*
Y01039690D02*
X00582800Y01043590D01*
X00606200D01*
X00610100Y01039690D02*
X00606200Y01043590D01*
X00610100Y01039690D02*
Y01031890D01*
X00606200Y01027990D02*
X00610100Y01031890D01*
X00594500Y01043590D02*
Y01031890D01*
X00623700Y00767430D02*
Y00737430D01*
Y00767430D02*
X00628700Y00772430D01*
X00638700D01*
X00643700Y00767430D01*
Y00737430D01*
X00638700Y00732430D02*
X00643700Y00737430D01*
X00628700Y00732430D02*
X00638700D01*
X00623700Y00737430D02*
X00628700Y00732430D01*
X00633700Y00742430D02*
X00643700Y00732430D01*
X00660710D02*
X00670710D01*
X00665710Y00772430D02*
Y00732430D01*
X00655710Y00762430D02*
X00665710Y00772430D01*
X00574660Y01091800D02*
X00579110Y01096250D01*
X00574660Y01091800D02*
Y01078450D01*
X00579110Y01074000D02*
X00574660Y01078450D01*
X00579110Y01074000D02*
X00588010D01*
X00592460Y01078450D01*
Y01091800D02*
Y01078450D01*
Y01091800D02*
X00596910Y01096250D01*
X00605810D01*
X00610260Y01091800D02*
X00605810Y01096250D01*
X00610260Y01091800D02*
Y01078450D01*
X00605810Y01074000D02*
X00610260Y01078450D01*
X00605810Y01106930D02*
X00579110Y01133630D01*
X00574660Y01162120D02*
X00579110Y01166570D01*
X00574660Y01162120D02*
Y01148770D01*
X00579110Y01144320D02*
X00574660Y01148770D01*
X00579110Y01144320D02*
X00588010D01*
X00592460Y01148770D01*
Y01162120D02*
Y01148770D01*
Y01162120D02*
X00596910Y01166570D01*
X00605810D01*
X00610260Y01162120D02*
X00605810Y01166570D01*
X00610260Y01162120D02*
Y01148770D01*
X00605810Y01144320D02*
X00610260Y01148770D01*
X00605810Y01177260D02*
X00579110Y01203960D01*
X00574660Y01228000D02*
Y01214650D01*
Y01228000D02*
X00605810D01*
X00610260Y01223550D02*
X00605810Y01228000D01*
X00610260Y01223550D02*
Y01219100D01*
X00605810Y01214650D02*
X00610260Y01219100D01*
Y01252040D02*
Y01243140D01*
X00574660Y01247590D02*
X00610260D01*
X00583560Y01238690D02*
X00574660Y01247590D01*
X00639830Y01201110D02*
X00644280Y01205560D01*
X00639830Y01201110D02*
Y01187760D01*
X00644280Y01183310D02*
X00639830Y01187760D01*
X00644280Y01183310D02*
X00653180D01*
X00657630Y01187760D01*
Y01201110D02*
Y01187760D01*
Y01201110D02*
X00662080Y01205560D01*
X00670980D01*
X00675430Y01201110D02*
X00670980Y01205560D01*
X00675430Y01201110D02*
Y01187760D01*
X00670980Y01183310D02*
X00675430Y01187760D01*
X00670980Y01216240D02*
X00644280Y01242940D01*
X00639830Y01258080D02*
X00675430D01*
X00639830Y01271430D02*
X00644280Y01275880D01*
X00670980D01*
X00675430Y01271430D02*
X00670980Y01275880D01*
X00675430Y01271430D02*
Y01253630D01*
X00639830Y01271430D02*
Y01253630D01*
X00675430Y01286570D02*
X00657630Y01304370D01*
X00644280D02*
X00657630D01*
X00639830Y01299920D02*
X00644280Y01304370D01*
X00639830Y01299920D02*
Y01291020D01*
X00644280Y01286570D02*
X00639830Y01291020D01*
X00644280Y01286570D02*
X00653180D01*
X00657630Y01291020D01*
Y01304370D02*
Y01291020D01*
X00716150Y00686060D02*
Y00646060D01*
X00736150D01*
X00753160D02*
X00763160D01*
X00758160Y00686060D02*
Y00646060D01*
X00748160Y00676060D02*
X00758160Y00686060D01*
X00277560Y00736050D02*
X00292560D01*
Y00701050D01*
X00287560Y00696050D02*
X00292560Y00701050D01*
X00282560Y00696050D02*
X00287560D01*
X00277560Y00701050D02*
X00282560Y00696050D01*
X00309570D02*
X00319570D01*
X00314570Y00736050D02*
Y00696050D01*
X00304570Y00726050D02*
X00314570Y00736050D01*
X00585050Y02307520D02*
Y02292520D01*
Y02307520D02*
X00620050D01*
X00625050Y02302520D02*
X00620050Y02307520D01*
X00625050Y02302520D02*
Y02297520D01*
X00620050Y02292520D02*
X00625050Y02297520D01*
X00585050Y02334530D02*
X00590050Y02339530D01*
X00585050Y02334530D02*
Y02324530D01*
X00590050Y02319530D02*
X00585050Y02324530D01*
X00590050Y02319530D02*
X00620050D01*
X00625050Y02324530D01*
X00605050Y02334530D02*
X00610050Y02339530D01*
X00605050Y02334530D02*
Y02319530D01*
X00625050Y02334530D02*
Y02324530D01*
Y02334530D02*
X00620050Y02339530D01*
X00610050D02*
X00620050D01*
X00616290Y02224710D02*
Y02204710D01*
Y02224710D02*
X00621290Y02229710D01*
X00631290D01*
X00636290Y02224710D02*
X00631290Y02229710D01*
X00636290Y02224710D02*
Y02209710D01*
X00616290D02*
X00656290D01*
X00636290D02*
X00656290Y02229710D01*
X00616290Y02256720D02*
X00621290Y02261720D01*
X00616290Y02256720D02*
Y02246720D01*
X00621290Y02241720D02*
X00616290Y02246720D01*
X00621290Y02241720D02*
X00651290D01*
X00656290Y02246720D01*
X00636290Y02256720D02*
X00641290Y02261720D01*
X00636290Y02256720D02*
Y02241720D01*
X00656290Y02256720D02*
Y02246720D01*
Y02256720D02*
X00651290Y02261720D01*
X00641290D02*
X00651290D01*
%LPC*%
G75*
X00651290Y02261720D02*
G54D14*
X01141700Y01715100D03*
X01141730Y01765150D03*
X00147640Y01250000D03*
X00039370Y01043310D03*
X00147640Y01297240D03*
X00206690Y01322840D03*
X00236220Y01141730D03*
X00251970Y00751960D03*
X00236220Y01074800D03*
X00574800Y01035430D03*
X00437010Y01137800D03*
X00336610Y01149610D03*
X00501970Y00541330D03*
X00610240Y00246060D03*
X00338580Y00413380D03*
X00726380Y01141730D03*
X00929130Y00811020D03*
X00787400Y00501960D03*
X00744090Y00909440D03*
X00456690Y01476380D03*
Y01523620D03*
Y01570870D03*
Y01618110D03*
X00799210Y01269690D03*
X01503940Y01153540D03*
X00797240Y01157480D03*
X00752330Y01182190D03*
X00690940Y01263780D03*
X00635830Y01446850D03*
Y01500000D03*
Y01553150D03*
Y01606300D03*
X00671260Y01580710D03*
X01133860Y01570860D03*
X01090550Y00311020D03*
X01476380Y01425190D03*
X01562990Y00870070D03*
X01387800Y00466520D03*
Y00407470D03*
X01622050Y00366140D03*
X01387800Y00269680D03*
Y00328740D03*
X01555120Y00055110D03*
X01610240Y00102360D03*
Y00614170D03*
X00279530Y01704720D03*
X00409450Y01476380D03*
Y01523620D03*
Y01570870D03*
X00157480Y02011810D03*
X00102360Y02047240D03*
X00228350Y01858270D03*
X00181100Y01870080D03*
X00228350Y01905510D03*
X00137800Y01933070D03*
X00181100Y01917320D03*
X00133860Y01787400D03*
X00122050Y01519690D03*
X00181100Y01525590D03*
X00220470Y01771650D03*
X00062990Y01732280D03*
X00035430Y01777560D03*
X00289370Y02116140D03*
X00299210Y02055120D03*
X00775590Y01988190D03*
X00763780Y01897640D03*
X00870080Y01834650D03*
X00775590D03*
X00870080Y01988190D03*
X00616140Y02135830D03*
X00336610Y02110240D03*
X00929130Y01645660D03*
X00635830Y01659450D03*
X00671260Y01633860D03*
X00553150Y02198820D03*
X00584650Y02167320D03*
X00559060Y02291330D03*
X00933070Y02161410D03*
X01023620Y02326770D03*
X01527560Y02307080D03*
X01484250D03*
X00964570Y02129920D03*
X00996060Y02098420D03*
X01074800Y02133850D03*
X01031500Y02125980D03*
X01212600Y01720470D03*
X01523620Y01822830D03*
Y01881890D03*
X01098430Y01822830D03*
X01515750Y01720470D03*
X00952760Y01988180D03*
X00960630Y02066920D03*
G54D15*
X00785800Y01786110D03*
X00863800Y02036720D03*
X00785800D03*
X00863800Y01786110D03*
G54D16*
X01150860Y01889760D03*
G54D15*
X00713330Y01318900D03*
X00791330D03*
G54D16*
X01476740Y01377950D03*
G54D17*
X00559060Y00383850D03*
G54D18*
X01090960Y02248820D03*
X01065370D03*
G54D19*
X00059060Y02320500D03*
Y02262160D03*
G54D15*
X00752330Y01236900D03*
X00824800Y01868110D03*
Y01954720D03*
G54D20*
X00830325Y00365345D03*
G54D21*
X00419150Y00695070D03*
X00624150D03*
X00419150Y00645070D03*
Y00595070D03*
Y00545070D03*
X00624150D03*
Y00595070D03*
Y00645070D03*
G54D22*
X00413390Y00424790D03*
G54D21*
X00624150Y00043110D03*
X00419150D03*
X00624150Y00093110D03*
Y00143110D03*
Y00193110D03*
X00419150D03*
Y00143110D03*
Y00093110D03*
G54D22*
X00413390Y00342910D03*
G54D16*
X01092520Y01889760D03*
X01535080Y01377950D03*
G54D18*
X01065370Y01953540D03*
X01090960D03*
X01116550D03*
X01142140D03*
X01167730D03*
X01295680D03*
X01321270D03*
X01346860D03*
X01372450D03*
X01398040D03*
X01423630D03*
X01449220D03*
X01474810D03*
X01500400D03*
X01525990D03*
Y02248820D03*
X01500400D03*
X01474810D03*
X01449220D03*
X01423630D03*
X01398040D03*
X01372450D03*
X01346860D03*
X01321270D03*
X01295680D03*
X01270090D03*
X01244500D03*
X01218910D03*
X01193320D03*
X01167730D03*
X01142140D03*
X01116550D03*
X01193320Y01953540D03*
X01218910D03*
X01244500D03*
X01270090D03*
G54D23*
X01505910Y00981870D03*
Y00907870D03*
Y01289360D03*
Y01215360D03*
G54D16*
X01535080Y01072830D03*
X01476740D03*
Y00826770D03*
X01535080D03*
G54D20*
X01224025Y00365345D03*
G54D24*
X00521650Y00226370D03*
Y00068890D03*
X01389370Y00738180D03*
%LPD*%
G75*
X01389370Y00738180D02*
G54D11*
X00870151Y00044551D02*
X00878624D01*
Y00027609D01*
X00870151Y00019140D01*
X00853214D01*
X00844744Y00027609D01*
Y00078428D01*
X00853214Y00086900D01*
X00870151D01*
X00878624Y00078428D01*
X00895563Y00027609D02*
Y00078428D01*
X00904031Y00086900D01*
X00920974D01*
X00929443Y00078428D01*
Y00027609D01*
X00920974Y00019140D01*
X00904031D01*
X00895563Y00027609D01*
X00980262D02*
X00971793Y00019140D01*
X00954854D01*
X00946381Y00027609D01*
Y00078428D01*
X00954854Y00086900D01*
X00971793D01*
X00980262Y00078428D01*
G54D25*
X01241190Y00030053D02*
Y00042324D01*
Y00030053D02*
Y00042324D01*
Y00062053D02*
Y00074324D01*
X01296974Y00030053D02*
Y00042324D01*
Y00030053D02*
Y00042324D01*
Y00062053D02*
Y00074324D01*
X01124970Y00030053D02*
Y00042324D01*
Y00030053D02*
Y00042324D01*
Y00062053D02*
Y00074324D01*
X01180754Y00030053D02*
Y00042324D01*
Y00030053D02*
Y00042324D01*
Y00062053D02*
Y00074324D01*
G54D10*
X00574800Y03499800D02*
X00535430Y03460431D01*
X00574800Y03535231D02*
Y03499800D01*
X00598430Y04830500D02*
X00114170D01*
X00094490Y04850181D01*
G54D11*
X01550910Y03908581D02*
X01540910Y03933581D01*
X01550910Y03908581D02*
Y03777581D01*
X01460910D02*
X01550910D01*
X01460910Y03908581D02*
Y03777581D01*
X01470910Y03933581D02*
X01460910Y03908581D01*
G54D12*
X01470910Y03933581D02*
X01540910D01*
G54D11*
X01550910Y03601090D02*
X01540910Y03626090D01*
X01550910Y03601090D02*
Y03470090D01*
X01460910D02*
X01550910D01*
X01460910Y03601090D02*
Y03470090D01*
X01470910Y03626090D02*
X01460910Y03601090D01*
G54D12*
X01470910Y03626090D02*
X01540910D01*
G54D10*
X01498040Y03409910D02*
X01513780D01*
X01498040Y03440070D02*
X01513780D01*
G54D13*
X00716150Y03223410D02*
Y02703731D01*
X01338190Y03223410D02*
X00716150D01*
X01338190Y02703731D02*
Y03223410D01*
X00716150Y02703731D02*
X01338190D01*
G54D11*
X01596690Y03279400D02*
X01636690D01*
X01396690Y03299400D02*
Y03259400D01*
X01376690Y03279400D02*
X01416690D01*
X01371690Y03149400D02*
G03X01371690Y03149400I00135000J00000000D01*
X01596690Y02915220D02*
G01X01636690D01*
X01396690Y02935220D02*
Y02895220D01*
X01376690Y02915220D02*
X01416690D01*
X01371690Y02785220D02*
G03X01371690Y02785220I00135000J00000000D01*
X00024030Y03359240D02*
G01X00524030D01*
Y03459240D02*
Y03359240D01*
X00024030Y03459240D02*
X00524030D01*
X00024030D02*
Y03359240D01*
X00124030Y03459240D02*
Y03359240D01*
X00024030Y03459240D02*
X00124030D01*
X00676650Y03313290D02*
X00546650D01*
X00366650D02*
X00496650D01*
X00676650Y03123290D02*
Y03313290D01*
X00366650Y03123290D02*
X00676650D01*
X00366650Y03313290D02*
Y03123290D01*
X00496650Y03313290D02*
G03X00546650Y03313290I00025000J00000000D01*
X00366650Y02621331D02*
G01X00496650D01*
X00546650D02*
X00676650D01*
X00366650Y02811331D02*
Y02621331D01*
Y02811331D02*
X00676650D01*
Y02621331D01*
X00546650D02*
G03X00496650Y02621331I-00025000J00000000D01*
G54D13*
X00374020Y03088370D02*
G01X00665360D01*
Y02875770D01*
X00374020D02*
X00665360D01*
X00374020Y03088370D02*
Y02875770D01*
G54D11*
X00324800Y03277350D02*
Y02686790D01*
X00009840Y03277350D02*
X00324800D01*
X00009840Y02686790D02*
X00324800D01*
X00760800Y04524940D02*
X00888800D01*
X00760800Y04663940D02*
Y04524940D01*
Y04663940D02*
X00888800D01*
Y04524940D01*
Y04494331D02*
X00760800D01*
X00888800Y04355331D02*
Y04494331D01*
X00760800Y04355331D02*
X00888800D01*
X00760800Y04494331D02*
Y04355331D01*
X00123230Y04939550D02*
X00223230D01*
Y04839550D01*
X00123230Y04939550D02*
Y04839550D01*
Y04939550D02*
X00523230D01*
Y04839550D01*
X00123230D02*
X00523230D01*
G54D10*
X00043980Y04881681D02*
Y04897420D01*
X00074140Y04881681D02*
Y04897420D01*
G54D11*
X00009730Y04179200D02*
X00557480D01*
Y04819200D01*
X00009730D02*
X00557480D01*
X00009730Y03490231D02*
X00557480D01*
Y04130231D01*
X00009730D02*
X00557480D01*
G54D10*
X01498040Y03686131D02*
X01513780D01*
X01498040Y03655970D02*
X01513780D01*
G54D11*
X00688330Y03807120D02*
X00816330D01*
X00688330Y03946120D02*
Y03807120D01*
Y03946120D02*
X00816330D01*
Y03807120D01*
G54D10*
X01498040Y03991250D02*
X01513780D01*
X01498040Y03961090D02*
X01513780D01*
G54D11*
X01047650Y04821450D02*
X01543710D01*
Y04577350D01*
X01047650D02*
X01543710D01*
X01047650Y04821450D02*
Y04577350D01*
X01072450Y04583460D02*
G03X01072450Y04583460I00000000J00006100D01*
X01141730Y04288370D02*
G03X01141730Y04288370I00000000J00050000D01*
G54D10*
X01113820Y04503060D02*
G01X01129560D01*
X01113820Y04472900D02*
X01129560D01*
X00990720Y04577350D02*
X01025720D01*
X01030720Y04582350D01*
Y04592350D02*
Y04582350D01*
Y04592350D02*
X01025720Y04597350D01*
X00990720D02*
X01025720D01*
X00995720Y04609360D02*
X00990720Y04614360D01*
Y04624360D02*
Y04614360D01*
Y04624360D02*
X00995720Y04629360D01*
X01025720D01*
X01030720Y04624360D02*
X01025720Y04629360D01*
X01030720Y04624360D02*
Y04614360D01*
X01025720Y04609360D02*
X01030720Y04614360D01*
X01010720Y04629360D02*
Y04614360D01*
X00705520Y04546910D02*
X00710520Y04551910D01*
X00705520Y04546910D02*
Y04531910D01*
X00710520Y04526910D02*
X00705520Y04531910D01*
X00710520Y04526910D02*
X00720520D01*
X00725520Y04531910D01*
Y04546910D02*
Y04531910D01*
Y04546910D02*
X00730520Y04551910D01*
X00740520D01*
X00745520Y04546910D02*
X00740520Y04551910D01*
X00745520Y04546910D02*
Y04531910D01*
X00740520Y04526910D02*
X00745520Y04531910D01*
X00740520Y04563920D02*
X00710520Y04593920D01*
X00705520Y04610931D02*
X00745520D01*
X00705520Y04625931D02*
X00710520Y04630931D01*
X00740520D01*
X00745520Y04625931D02*
X00740520Y04630931D01*
X00745520Y04625931D02*
Y04605931D01*
X00705520Y04625931D02*
Y04605931D01*
X00740520Y04642940D02*
X00745520Y04647940D01*
X00730520Y04642940D02*
X00740520D01*
X00730520D02*
X00725520Y04647940D01*
Y04657940D02*
Y04647940D01*
Y04657940D02*
X00730520Y04662940D01*
X00740520D01*
X00745520Y04657940D02*
X00740520Y04662940D01*
X00745520Y04657940D02*
Y04647940D01*
X00720520Y04642940D02*
X00725520Y04647940D01*
X00710520Y04642940D02*
X00720520D01*
X00710520D02*
X00705520Y04647940D01*
Y04657940D02*
Y04647940D01*
Y04657940D02*
X00710520Y04662940D01*
X00720520D01*
X00725520Y04657940D02*
X00720520Y04662940D01*
X00705530Y04377610D02*
X00710530Y04382610D01*
X00705530Y04377610D02*
Y04362610D01*
X00710530Y04357610D02*
X00705530Y04362610D01*
X00710530Y04357610D02*
X00720530D01*
X00725530Y04362610D01*
Y04377610D02*
Y04362610D01*
Y04377610D02*
X00730530Y04382610D01*
X00740530D01*
X00745530Y04377610D02*
X00740530Y04382610D01*
X00745530Y04377610D02*
Y04362610D01*
X00740530Y04357610D02*
X00745530Y04362610D01*
X00740530Y04394620D02*
X00710530Y04424620D01*
X00705530Y04441631D02*
X00745530D01*
X00705530Y04456631D02*
X00710530Y04461631D01*
X00740530D01*
X00745530Y04456631D02*
X00740530Y04461631D01*
X00745530Y04456631D02*
Y04436631D01*
X00705530Y04456631D02*
Y04436631D01*
X00745530Y04473640D02*
X00720530Y04498640D01*
X00705530D02*
X00720530D01*
X00705530D02*
Y04473640D01*
X00574650Y04319960D02*
X00579100Y04324410D01*
X00574650Y04319960D02*
Y04306610D01*
X00579100Y04302160D02*
X00574650Y04306610D01*
X00579100Y04302160D02*
X00588000D01*
X00592450Y04306610D01*
Y04319960D02*
Y04306610D01*
Y04319960D02*
X00596900Y04324410D01*
X00605800D01*
X00610250Y04319960D02*
X00605800Y04324410D01*
X00610250Y04319960D02*
Y04306610D01*
X00605800Y04302160D02*
X00610250Y04306610D01*
X00605800Y04335090D02*
X00579100Y04361790D01*
X00574650Y04390281D02*
X00579100Y04394731D01*
X00574650Y04390281D02*
Y04376931D01*
X00579100Y04372481D02*
X00574650Y04376931D01*
X00579100Y04372481D02*
X00588000D01*
X00592450Y04376931D01*
Y04390281D02*
Y04376931D01*
Y04390281D02*
X00596900Y04394731D01*
X00605800D01*
X00610250Y04390281D02*
X00605800Y04394731D01*
X00610250Y04390281D02*
Y04376931D01*
X00605800Y04372481D02*
X00610250Y04376931D01*
X00605800Y04405420D02*
X00579100Y04432120D01*
X00574650Y04456160D02*
Y04442810D01*
Y04456160D02*
X00605800D01*
X00610250Y04451710D02*
X00605800Y04456160D01*
X00610250Y04451710D02*
Y04447260D01*
X00605800Y04442810D02*
X00610250Y04447260D01*
X00579100Y04466850D02*
X00574650Y04471300D01*
Y04484650D02*
Y04471300D01*
Y04484650D02*
X00579100Y04489100D01*
X00588000D01*
X00610250Y04466850D02*
X00588000Y04489100D01*
X00610250D02*
Y04466850D01*
X00694570Y02655020D02*
Y02625020D01*
Y02655020D02*
X00699570Y02660020D01*
X00709570D01*
X00714570Y02655020D01*
Y02625020D01*
X00709570Y02620020D02*
X00714570Y02625020D01*
X00699570Y02620020D02*
X00709570D01*
X00694570Y02625020D02*
X00699570Y02620020D01*
X00704570Y02630020D02*
X00714570Y02620020D01*
X00726580Y02655020D02*
X00731580Y02660020D01*
X00746580D01*
X00751580Y02655020D01*
Y02645020D01*
X00726580Y02620020D02*
X00751580Y02645020D01*
X00726580Y02620020D02*
X00751580D01*
X00375960Y02862081D02*
Y02830881D01*
X00387660Y02862081D02*
X00391560Y02858181D01*
Y02834781D01*
X00387660Y02830881D02*
X00391560Y02834781D01*
X00372060Y02830881D02*
X00387660D01*
X00372060Y02862081D02*
X00387660D01*
X00404820Y02830881D02*
X00412620D01*
X00408720Y02862081D02*
Y02830881D01*
X00400920Y02854281D02*
X00408720Y02862081D01*
X01529530Y03743700D02*
X01549530D01*
X01554530Y03738700D01*
Y03728700D01*
X01549530Y03723700D02*
X01554530Y03728700D01*
X01534530Y03723700D02*
X01549530D01*
X01534530Y03743700D02*
Y03703700D01*
Y03723700D02*
X01554530Y03703700D01*
X01566540Y03708700D02*
X01571540Y03703700D01*
X01566540Y03718700D02*
Y03708700D01*
Y03718700D02*
X01571540Y03723700D01*
X01581540D01*
X01586540Y03718700D01*
Y03708700D01*
X01581540Y03703700D02*
X01586540Y03708700D01*
X01571540Y03703700D02*
X01581540D01*
X01566540Y03728700D02*
X01571540Y03723700D01*
X01566540Y03738700D02*
Y03728700D01*
Y03738700D02*
X01571540Y03743700D01*
X01581540D01*
X01586540Y03738700D01*
Y03728700D01*
X01581540Y03723700D02*
X01586540Y03728700D01*
X01567000Y03782340D02*
X01607000D01*
X01567000Y03797340D02*
X01572000Y03802340D01*
X01602000D01*
X01607000Y03797340D02*
X01602000Y03802340D01*
X01607000Y03797340D02*
Y03777340D01*
X01567000Y03797340D02*
Y03777340D01*
X01572000Y03814350D02*
X01567000Y03819350D01*
Y03834350D02*
Y03819350D01*
Y03834350D02*
X01572000Y03839350D01*
X01582000D01*
X01607000Y03814350D02*
X01582000Y03839350D01*
X01607000D02*
Y03814350D01*
X01566600Y03542181D02*
X01606600D01*
X01566600Y03557181D02*
X01571600Y03562181D01*
X01601600D01*
X01606600Y03557181D02*
X01601600Y03562181D01*
X01606600Y03557181D02*
Y03537181D01*
X01566600Y03557181D02*
Y03537181D01*
X01571600Y03574190D02*
X01566600Y03579190D01*
Y03589190D02*
Y03579190D01*
Y03589190D02*
X01571600Y03594190D01*
X01601600D01*
X01606600Y03589190D02*
X01601600Y03594190D01*
X01606600Y03589190D02*
Y03579190D01*
X01601600Y03574190D02*
X01606600Y03579190D01*
X01586600Y03594190D02*
Y03579190D01*
X01505900Y04044900D02*
X01525900D01*
X01530900Y04039900D01*
Y04029900D01*
X01525900Y04024900D02*
X01530900Y04029900D01*
X01510900Y04024900D02*
X01525900D01*
X01510900Y04044900D02*
Y04004900D01*
Y04024900D02*
X01530900Y04004900D01*
X01542910D02*
X01567910Y04029900D01*
Y04044900D02*
Y04029900D01*
X01542910Y04044900D02*
X01567910D01*
X01427050Y02956890D02*
X01442050D01*
X01422050Y02961890D02*
X01427050Y02956890D01*
X01422050Y02991890D02*
Y02961890D01*
Y02991890D02*
X01427050Y02996890D01*
X01442050D01*
X01459060Y02956890D02*
X01469060D01*
X01464060Y02996890D02*
Y02956890D01*
X01454060Y02986890D02*
X01464060Y02996890D01*
X01481070Y02961890D02*
X01486070Y02956890D01*
X01481070Y02991890D02*
Y02961890D01*
Y02991890D02*
X01486070Y02996890D01*
X01496070D01*
X01501070Y02991890D01*
Y02961890D01*
X01496070Y02956890D02*
X01501070Y02961890D01*
X01486070Y02956890D02*
X01496070D01*
X01481070Y02966890D02*
X01501070Y02986890D01*
X01553030Y02927340D02*
X01568030D01*
X01548030Y02932340D02*
X01553030Y02927340D01*
X01548030Y02962340D02*
Y02932340D01*
Y02962340D02*
X01553030Y02967340D01*
X01568030D01*
X01580040Y02927340D02*
X01600040Y02947340D01*
Y02962340D02*
Y02947340D01*
X01595040Y02967340D02*
X01600040Y02962340D01*
X01585040Y02967340D02*
X01595040D01*
X01580040Y02962340D02*
X01585040Y02967340D01*
X01580040Y02962340D02*
Y02952340D01*
X01585040Y02947340D01*
X01600040D01*
X01480300Y03393340D02*
X01500300D01*
X01505300Y03388340D01*
Y03378340D01*
X01500300Y03373340D02*
X01505300Y03378340D01*
X01485300Y03373340D02*
X01500300D01*
X01485300Y03393340D02*
Y03353340D01*
Y03373340D02*
X01505300Y03353340D01*
X01517310D02*
X01537310Y03373340D01*
Y03388340D02*
Y03373340D01*
X01532310Y03393340D02*
X01537310Y03388340D01*
X01522310Y03393340D02*
X01532310D01*
X01517310Y03388340D02*
X01522310Y03393340D01*
X01517310Y03388340D02*
Y03378340D01*
X01522310Y03373340D01*
X01537310D01*
X01033620Y04312810D02*
X01038620D01*
X01063620Y04337810D01*
X01073620D01*
X01063620Y04312810D02*
X01073620D01*
X01063620D02*
X01038620Y04337810D01*
X01033620D02*
X01038620D01*
X01073620Y04364820D02*
Y04354820D01*
X01033620Y04359820D02*
X01073620D01*
X01043620Y04349820D02*
X01033620Y04359820D01*
X01139220Y04414370D02*
X01154220D01*
X01134220Y04419370D02*
X01139220Y04414370D01*
X01134220Y04449370D02*
Y04419370D01*
Y04449370D02*
X01139220Y04454370D01*
X01154220D01*
X01171230Y04414370D02*
X01181230D01*
X01176230Y04454370D02*
Y04414370D01*
X01166230Y04444370D02*
X01176230Y04454370D01*
X00578900Y03559110D02*
X00582800Y03563010D01*
X00578900Y03559110D02*
Y03547410D01*
X00582800Y03543510D02*
X00578900Y03547410D01*
X00582800Y03543510D02*
X00590600D01*
X00594500Y03547410D01*
Y03559110D02*
Y03547410D01*
Y03559110D02*
X00598400Y03563010D01*
X00606200D01*
X00610100Y03559110D02*
X00606200Y03563010D01*
X00610100Y03559110D02*
Y03547410D01*
X00606200Y03543510D02*
X00610100Y03547410D01*
X00606200Y03572370D02*
X00582800Y03595770D01*
X00578900Y03616840D02*
Y03605140D01*
Y03616840D02*
X00606200D01*
X00610100Y03612940D02*
X00606200Y03616840D01*
X00610100Y03612940D02*
Y03609040D01*
X00606200Y03605140D02*
X00610100Y03609040D01*
X00582800Y03626210D02*
X00578900Y03630110D01*
Y03637910D02*
Y03630110D01*
Y03637910D02*
X00582800Y03641810D01*
X00606200D01*
X00610100Y03637910D02*
X00606200Y03641810D01*
X00610100Y03637910D02*
Y03630110D01*
X00606200Y03626210D02*
X00610100Y03630110D01*
X00594500Y03641810D02*
Y03630110D01*
X00623700Y03365650D02*
Y03335650D01*
Y03365650D02*
X00628700Y03370650D01*
X00638700D01*
X00643700Y03365650D01*
Y03335650D01*
X00638700Y03330650D02*
X00643700Y03335650D01*
X00628700Y03330650D02*
X00638700D01*
X00623700Y03335650D02*
X00628700Y03330650D01*
X00633700Y03340650D02*
X00643700Y03330650D01*
X00660710D02*
X00670710D01*
X00665710Y03370650D02*
Y03330650D01*
X00655710Y03360650D02*
X00665710Y03370650D01*
X00574660Y03690020D02*
X00579110Y03694470D01*
X00574660Y03690020D02*
Y03676670D01*
X00579110Y03672220D02*
X00574660Y03676670D01*
X00579110Y03672220D02*
X00588010D01*
X00592460Y03676670D01*
Y03690020D02*
Y03676670D01*
Y03690020D02*
X00596910Y03694470D01*
X00605810D01*
X00610260Y03690020D02*
X00605810Y03694470D01*
X00610260Y03690020D02*
Y03676670D01*
X00605810Y03672220D02*
X00610260Y03676670D01*
X00605810Y03705150D02*
X00579110Y03731850D01*
X00574660Y03760340D02*
X00579110Y03764790D01*
X00574660Y03760340D02*
Y03746990D01*
X00579110Y03742540D02*
X00574660Y03746990D01*
X00579110Y03742540D02*
X00588010D01*
X00592460Y03746990D01*
Y03760340D02*
Y03746990D01*
Y03760340D02*
X00596910Y03764790D01*
X00605810D01*
X00610260Y03760340D02*
X00605810Y03764790D01*
X00610260Y03760340D02*
Y03746990D01*
X00605810Y03742540D02*
X00610260Y03746990D01*
X00605810Y03775481D02*
X00579110Y03802181D01*
X00574660Y03826220D02*
Y03812870D01*
Y03826220D02*
X00605810D01*
X00610260Y03821770D02*
X00605810Y03826220D01*
X00610260Y03821770D02*
Y03817320D01*
X00605810Y03812870D02*
X00610260Y03817320D01*
Y03850260D02*
Y03841360D01*
X00574660Y03845810D02*
X00610260D01*
X00583560Y03836910D02*
X00574660Y03845810D01*
X00639830Y03799331D02*
X00644280Y03803781D01*
X00639830Y03799331D02*
Y03785981D01*
X00644280Y03781531D02*
X00639830Y03785981D01*
X00644280Y03781531D02*
X00653180D01*
X00657630Y03785981D01*
Y03799331D02*
Y03785981D01*
Y03799331D02*
X00662080Y03803781D01*
X00670980D01*
X00675430Y03799331D02*
X00670980Y03803781D01*
X00675430Y03799331D02*
Y03785981D01*
X00670980Y03781531D02*
X00675430Y03785981D01*
X00670980Y03814460D02*
X00644280Y03841160D01*
X00639830Y03856300D02*
X00675430D01*
X00639830Y03869650D02*
X00644280Y03874100D01*
X00670980D01*
X00675430Y03869650D02*
X00670980Y03874100D01*
X00675430Y03869650D02*
Y03851850D01*
X00639830Y03869650D02*
Y03851850D01*
X00675430Y03884790D02*
X00657630Y03902590D01*
X00644280D02*
X00657630D01*
X00639830Y03898140D02*
X00644280Y03902590D01*
X00639830Y03898140D02*
Y03889240D01*
X00644280Y03884790D02*
X00639830Y03889240D01*
X00644280Y03884790D02*
X00653180D01*
X00657630Y03889240D01*
Y03902590D02*
Y03889240D01*
X00716150Y03284281D02*
Y03244281D01*
X00736150D01*
X00753160D02*
X00763160D01*
X00758160Y03284281D02*
Y03244281D01*
X00748160Y03274281D02*
X00758160Y03284281D01*
X00277560Y03334270D02*
X00292560D01*
Y03299270D01*
X00287560Y03294270D02*
X00292560Y03299270D01*
X00282560Y03294270D02*
X00287560D01*
X00277560Y03299270D02*
X00282560Y03294270D01*
X00309570D02*
X00319570D01*
X00314570Y03334270D02*
Y03294270D01*
X00304570Y03324270D02*
X00314570Y03334270D01*
X00585050Y04905740D02*
Y04890740D01*
Y04905740D02*
X00620050D01*
X00625050Y04900740D02*
X00620050Y04905740D01*
X00625050Y04900740D02*
Y04895740D01*
X00620050Y04890740D02*
X00625050Y04895740D01*
X00585050Y04932750D02*
X00590050Y04937750D01*
X00585050Y04932750D02*
Y04922750D01*
X00590050Y04917750D02*
X00585050Y04922750D01*
X00590050Y04917750D02*
X00620050D01*
X00625050Y04922750D01*
X00605050Y04932750D02*
X00610050Y04937750D01*
X00605050Y04932750D02*
Y04917750D01*
X00625050Y04932750D02*
Y04922750D01*
Y04932750D02*
X00620050Y04937750D01*
X00610050D02*
X00620050D01*
X00616290Y04822931D02*
Y04802931D01*
Y04822931D02*
X00621290Y04827931D01*
X00631290D01*
X00636290Y04822931D02*
X00631290Y04827931D01*
X00636290Y04822931D02*
Y04807931D01*
X00616290D02*
X00656290D01*
X00636290D02*
X00656290Y04827931D01*
X00616290Y04854940D02*
X00621290Y04859940D01*
X00616290Y04854940D02*
Y04844940D01*
X00621290Y04839940D02*
X00616290Y04844940D01*
X00621290Y04839940D02*
X00651290D01*
X00656290Y04844940D01*
X00636290Y04854940D02*
X00641290Y04859940D01*
X00636290Y04854940D02*
Y04839940D01*
X00656290Y04854940D02*
Y04844940D01*
Y04854940D02*
X00651290Y04859940D01*
X00641290D02*
X00651290D01*
%LPC*%
G75*
X00651290Y04859940D02*
G54D14*
X01141700Y04313320D03*
X01141730Y04363370D03*
X00147640Y03848220D03*
X00039370Y03641531D03*
X00147640Y03895460D03*
X00206690Y03921060D03*
X00236220Y03739950D03*
X00251970Y03350181D03*
X00236220Y03673020D03*
X00574800Y03633650D03*
X00437010Y03736020D03*
X00336610Y03747831D03*
X00501970Y03139550D03*
X00610240Y02844281D03*
X00338580Y03011600D03*
X00726380Y03739950D03*
X00929130Y03409240D03*
X00787400Y03100181D03*
X00744090Y03507660D03*
X00456690Y04074600D03*
Y04121840D03*
Y04169090D03*
Y04216331D03*
X00799210Y03867910D03*
X01503940Y03751760D03*
X00797240Y03755700D03*
X00752330Y03780410D03*
X00690940Y03862000D03*
X00635830Y04045070D03*
Y04098220D03*
Y04151370D03*
Y04204520D03*
X00671260Y04178931D03*
X01133860Y04169081D03*
X01090550Y02909240D03*
X01476380Y04023410D03*
X01562990Y03468290D03*
X01387800Y03064740D03*
Y03005690D03*
X01622050Y02964360D03*
X01387800Y02867900D03*
Y02926960D03*
X01555120Y02653331D03*
X01610240Y02700581D03*
Y03212390D03*
X00279530Y04302940D03*
X00409450Y04074600D03*
Y04121840D03*
Y04169090D03*
X00157480Y04610031D03*
X00102360Y04645460D03*
X00228350Y04456490D03*
X00181100Y04468300D03*
X00228350Y04503731D03*
X00137800Y04531290D03*
X00181100Y04515540D03*
X00133860Y04385620D03*
X00122050Y04117910D03*
X00181100Y04123810D03*
X00220470Y04369870D03*
X00062990Y04330500D03*
X00035430Y04375781D03*
X00289370Y04714360D03*
X00299210Y04653340D03*
X00775590Y04586410D03*
X00763780Y04495860D03*
X00870080Y04432870D03*
X00775590D03*
X00870080Y04586410D03*
X00616140Y04734050D03*
X00336610Y04708460D03*
X00929130Y04243881D03*
X00635830Y04257670D03*
X00671260Y04232081D03*
X00553150Y04797040D03*
X00584650Y04765540D03*
X00559060Y04889550D03*
X00933070Y04759631D03*
X01023620Y04924990D03*
X01527560Y04905300D03*
X01484250D03*
X00964570Y04728140D03*
X00996060Y04696640D03*
X01074800Y04732070D03*
X01031500Y04724200D03*
X01212600Y04318690D03*
X01523620Y04421050D03*
Y04480110D03*
X01098430Y04421050D03*
X01515750Y04318690D03*
X00952760Y04586400D03*
X00960630Y04665140D03*
G54D15*
X00785800Y04384331D03*
X00863800Y04634940D03*
X00785800D03*
X00863800Y04384331D03*
G54D16*
X01150860Y04487980D03*
G54D15*
X00713330Y03917120D03*
X00791330D03*
G54D16*
X01476740Y03976170D03*
G54D17*
X00559060Y02982070D03*
G54D18*
X01090960Y04847040D03*
X01065370D03*
G54D19*
X00059060Y04918720D03*
Y04860381D03*
G54D15*
X00752330Y03835120D03*
X00824800Y04466331D03*
Y04552940D03*
G54D20*
X00830325Y02963565D03*
G54D21*
X00419150Y03293290D03*
X00624150D03*
X00419150Y03243290D03*
Y03193290D03*
Y03143290D03*
X00624150D03*
Y03193290D03*
Y03243290D03*
G54D22*
X00413390Y03023010D03*
G54D21*
X00624150Y02641331D03*
X00419150D03*
X00624150Y02691331D03*
Y02741331D03*
Y02791331D03*
X00419150D03*
Y02741331D03*
Y02691331D03*
G54D22*
X00413390Y02941130D03*
G54D16*
X01092520Y04487980D03*
X01535080Y03976170D03*
G54D18*
X01065370Y04551761D03*
X01090960D03*
X01116550D03*
X01142140D03*
X01167730D03*
X01295680D03*
X01321270D03*
X01346860D03*
X01372450D03*
X01398040D03*
X01423630D03*
X01449220D03*
X01474810D03*
X01500400D03*
X01525990D03*
Y04847040D03*
X01500400D03*
X01474810D03*
X01449220D03*
X01423630D03*
X01398040D03*
X01372450D03*
X01346860D03*
X01321270D03*
X01295680D03*
X01270090D03*
X01244500D03*
X01218910D03*
X01193320D03*
X01167730D03*
X01142140D03*
X01116550D03*
X01193320Y04551761D03*
X01218910D03*
X01244500D03*
X01270090D03*
G54D23*
X01505910Y03580090D03*
Y03506090D03*
Y03887581D03*
Y03813581D03*
G54D16*
X01535080Y03671050D03*
X01476740D03*
Y03424990D03*
X01535080D03*
G54D20*
X01224025Y02963565D03*
G54D24*
X00521650Y02824590D03*
Y02667110D03*
X01389370Y03336400D03*
%LPD*%
G75*
X01389370Y03336400D02*
G54D11*
X00870151Y02642771D02*
X00878624D01*
Y02625830D01*
X00870151Y02617361D01*
X00853214D01*
X00844744Y02625830D01*
Y02676649D01*
X00853214Y02685121D01*
X00870151D01*
X00878624Y02676649D01*
X00895563Y02625830D02*
Y02676649D01*
X00904031Y02685121D01*
X00920974D01*
X00929443Y02676649D01*
Y02625830D01*
X00920974Y02617361D01*
X00904031D01*
X00895563Y02625830D01*
X00980262D02*
X00971793Y02617361D01*
X00954854D01*
X00946381Y02625830D01*
Y02676649D01*
X00954854Y02685121D01*
X00971793D01*
X00980262Y02676649D01*
G54D25*
X01241190Y02628274D02*
Y02640545D01*
Y02628274D02*
Y02640545D01*
Y02660274D02*
Y02672545D01*
X01296974Y02628274D02*
Y02640545D01*
Y02628274D02*
Y02640545D01*
Y02660274D02*
Y02672545D01*
X01124970Y02628274D02*
Y02640545D01*
Y02628274D02*
Y02640545D01*
Y02660274D02*
Y02672545D01*
X01180754Y02628274D02*
Y02640545D01*
Y02628274D02*
Y02640545D01*
Y02660274D02*
Y02672545D01*
G54D10*
X02465020Y00901580D02*
X02425650Y00862210D01*
X02465020Y00937010D02*
Y00901580D01*
X02488650Y02232280D02*
X02004390D01*
X01984710Y02251960D01*
G54D11*
X03441131Y01310360D02*
X03431131Y01335360D01*
X03441131Y01310360D02*
Y01179360D01*
X03351131D02*
X03441131D01*
X03351131Y01310360D02*
Y01179360D01*
X03361131Y01335360D02*
X03351131Y01310360D01*
G54D12*
X03361131Y01335360D02*
X03431131D01*
G54D11*
X03441131Y01002870D02*
X03431131Y01027870D01*
X03441131Y01002870D02*
Y00871870D01*
X03351131D02*
X03441131D01*
X03351131Y01002870D02*
Y00871870D01*
X03361131Y01027870D02*
X03351131Y01002870D01*
G54D12*
X03361131Y01027870D02*
X03431131D01*
G54D10*
X03388260Y00811690D02*
X03404000D01*
X03388260Y00841850D02*
X03404000D01*
G54D13*
X02606370Y00625190D02*
Y00105510D01*
X03228410Y00625190D02*
X02606370D01*
X03228410Y00105510D02*
Y00625190D01*
X02606370Y00105510D02*
X03228410D01*
G54D11*
X03486910Y00681180D02*
X03526910D01*
X03286910Y00701180D02*
Y00661180D01*
X03266910Y00681180D02*
X03306910D01*
X03261910Y00551180D02*
G03X03261910Y00551180I00135000J00000000D01*
X03486910Y00317000D02*
G01X03526910D01*
X03286910Y00337000D02*
Y00297000D01*
X03266910Y00317000D02*
X03306910D01*
X03261910Y00187000D02*
G03X03261910Y00187000I00135000J00000000D01*
X01914250Y00761020D02*
G01X02414250D01*
Y00861020D02*
Y00761020D01*
X01914250Y00861020D02*
X02414250D01*
X01914250D02*
Y00761020D01*
X02014250Y00861020D02*
Y00761020D01*
X01914250Y00861020D02*
X02014250D01*
X02566870Y00715070D02*
X02436870D01*
X02256870D02*
X02386870D01*
X02566870Y00525070D02*
Y00715070D01*
X02256870Y00525070D02*
X02566870D01*
X02256870Y00715070D02*
Y00525070D01*
X02386870Y00715070D02*
G03X02436870Y00715070I00025000J00000000D01*
X02256870Y00023110D02*
G01X02386870D01*
X02436870D02*
X02566870D01*
X02256870Y00213110D02*
Y00023110D01*
Y00213110D02*
X02566870D01*
Y00023110D01*
X02436870D02*
G03X02386870Y00023110I-00025000J00000000D01*
G54D13*
X02264240Y00490150D02*
G01X02555581D01*
Y00277550D01*
X02264240D02*
X02555581D01*
X02264240Y00490150D02*
Y00277550D01*
G54D11*
X02215020Y00679130D02*
Y00088570D01*
X01900060Y00679130D02*
X02215020D01*
X01900060Y00088570D02*
X02215020D01*
X02651020Y01926720D02*
X02779020D01*
X02651020Y02065720D02*
Y01926720D01*
Y02065720D02*
X02779020D01*
Y01926720D01*
Y01896110D02*
X02651020D01*
X02779020Y01757110D02*
Y01896110D01*
X02651020Y01757110D02*
X02779020D01*
X02651020Y01896110D02*
Y01757110D01*
X02013450Y02341330D02*
X02113450D01*
Y02241330D01*
X02013450Y02341330D02*
Y02241330D01*
Y02341330D02*
X02413450D01*
Y02241330D01*
X02013450D02*
X02413450D01*
G54D10*
X01934200Y02283460D02*
Y02299200D01*
X01964360Y02283460D02*
Y02299200D01*
G54D11*
X01899950Y01580980D02*
X02447700D01*
Y02220980D01*
X01899950D02*
X02447700D01*
X01899950Y00892010D02*
X02447700D01*
Y01532010D01*
X01899950D02*
X02447700D01*
G54D10*
X03388260Y01087910D02*
X03404000D01*
X03388260Y01057750D02*
X03404000D01*
G54D11*
X02578550Y01208900D02*
X02706550D01*
X02578550Y01347900D02*
Y01208900D01*
Y01347900D02*
X02706550D01*
Y01208900D01*
G54D10*
X03388260Y01393030D02*
X03404000D01*
X03388260Y01362870D02*
X03404000D01*
G54D11*
X02937870Y02223230D02*
X03433931D01*
Y01979130D01*
X02937870D02*
X03433931D01*
X02937870Y02223230D02*
Y01979130D01*
X02962670Y01985240D02*
G03X02962670Y01985240I00000000J00006100D01*
X03031950Y01690150D02*
G03X03031950Y01690150I00000000J00050000D01*
G54D10*
X03004040Y01904840D02*
G01X03019781D01*
X03004040Y01874680D02*
X03019781D01*
X02880940Y01979130D02*
X02915940D01*
X02920940Y01984130D01*
Y01994130D02*
Y01984130D01*
Y01994130D02*
X02915940Y01999130D01*
X02880940D02*
X02915940D01*
X02885940Y02011140D02*
X02880940Y02016140D01*
Y02026140D02*
Y02016140D01*
Y02026140D02*
X02885940Y02031140D01*
X02915940D01*
X02920940Y02026140D02*
X02915940Y02031140D01*
X02920940Y02026140D02*
Y02016140D01*
X02915940Y02011140D02*
X02920940Y02016140D01*
X02900940Y02031140D02*
Y02016140D01*
X02595740Y01948690D02*
X02600740Y01953690D01*
X02595740Y01948690D02*
Y01933690D01*
X02600740Y01928690D02*
X02595740Y01933690D01*
X02600740Y01928690D02*
X02610740D01*
X02615740Y01933690D01*
Y01948690D02*
Y01933690D01*
Y01948690D02*
X02620740Y01953690D01*
X02630740D01*
X02635740Y01948690D02*
X02630740Y01953690D01*
X02635740Y01948690D02*
Y01933690D01*
X02630740Y01928690D02*
X02635740Y01933690D01*
X02630740Y01965700D02*
X02600740Y01995700D01*
X02595740Y02012710D02*
X02635740D01*
X02595740Y02027710D02*
X02600740Y02032710D01*
X02630740D01*
X02635740Y02027710D02*
X02630740Y02032710D01*
X02635740Y02027710D02*
Y02007710D01*
X02595740Y02027710D02*
Y02007710D01*
X02630740Y02044720D02*
X02635740Y02049720D01*
X02620740Y02044720D02*
X02630740D01*
X02620740D02*
X02615740Y02049720D01*
Y02059720D02*
Y02049720D01*
Y02059720D02*
X02620740Y02064720D01*
X02630740D01*
X02635740Y02059720D02*
X02630740Y02064720D01*
X02635740Y02059720D02*
Y02049720D01*
X02610740Y02044720D02*
X02615740Y02049720D01*
X02600740Y02044720D02*
X02610740D01*
X02600740D02*
X02595740Y02049720D01*
Y02059720D02*
Y02049720D01*
Y02059720D02*
X02600740Y02064720D01*
X02610740D01*
X02615740Y02059720D02*
X02610740Y02064720D01*
X02595750Y01779390D02*
X02600750Y01784390D01*
X02595750Y01779390D02*
Y01764390D01*
X02600750Y01759390D02*
X02595750Y01764390D01*
X02600750Y01759390D02*
X02610750D01*
X02615750Y01764390D01*
Y01779390D02*
Y01764390D01*
Y01779390D02*
X02620750Y01784390D01*
X02630750D01*
X02635750Y01779390D02*
X02630750Y01784390D01*
X02635750Y01779390D02*
Y01764390D01*
X02630750Y01759390D02*
X02635750Y01764390D01*
X02630750Y01796400D02*
X02600750Y01826400D01*
X02595750Y01843410D02*
X02635750D01*
X02595750Y01858410D02*
X02600750Y01863410D01*
X02630750D01*
X02635750Y01858410D02*
X02630750Y01863410D01*
X02635750Y01858410D02*
Y01838410D01*
X02595750Y01858410D02*
Y01838410D01*
X02635750Y01875420D02*
X02610750Y01900420D01*
X02595750D02*
X02610750D01*
X02595750D02*
Y01875420D01*
X02464870Y01721740D02*
X02469320Y01726190D01*
X02464870Y01721740D02*
Y01708390D01*
X02469320Y01703940D02*
X02464870Y01708390D01*
X02469320Y01703940D02*
X02478220D01*
X02482670Y01708390D01*
Y01721740D02*
Y01708390D01*
Y01721740D02*
X02487120Y01726190D01*
X02496020D01*
X02500470Y01721740D02*
X02496020Y01726190D01*
X02500470Y01721740D02*
Y01708390D01*
X02496020Y01703940D02*
X02500470Y01708390D01*
X02496020Y01736870D02*
X02469320Y01763570D01*
X02464870Y01792060D02*
X02469320Y01796510D01*
X02464870Y01792060D02*
Y01778710D01*
X02469320Y01774260D02*
X02464870Y01778710D01*
X02469320Y01774260D02*
X02478220D01*
X02482670Y01778710D01*
Y01792060D02*
Y01778710D01*
Y01792060D02*
X02487120Y01796510D01*
X02496020D01*
X02500470Y01792060D02*
X02496020Y01796510D01*
X02500470Y01792060D02*
Y01778710D01*
X02496020Y01774260D02*
X02500470Y01778710D01*
X02496020Y01807200D02*
X02469320Y01833900D01*
X02464870Y01857940D02*
Y01844590D01*
Y01857940D02*
X02496020D01*
X02500470Y01853490D02*
X02496020Y01857940D01*
X02500470Y01853490D02*
Y01849040D01*
X02496020Y01844590D02*
X02500470Y01849040D01*
X02469320Y01868630D02*
X02464870Y01873080D01*
Y01886430D02*
Y01873080D01*
Y01886430D02*
X02469320Y01890880D01*
X02478220D01*
X02500470Y01868630D02*
X02478220Y01890880D01*
X02500470D02*
Y01868630D01*
X02584790Y00056800D02*
Y00026800D01*
Y00056800D02*
X02589790Y00061800D01*
X02599790D01*
X02604790Y00056800D01*
Y00026800D01*
X02599790Y00021800D02*
X02604790Y00026800D01*
X02589790Y00021800D02*
X02599790D01*
X02584790Y00026800D02*
X02589790Y00021800D01*
X02594790Y00031800D02*
X02604790Y00021800D01*
X02616800Y00056800D02*
X02621800Y00061800D01*
X02636800D01*
X02641800Y00056800D01*
Y00046800D01*
X02616800Y00021800D02*
X02641800Y00046800D01*
X02616800Y00021800D02*
X02641800D01*
X02266181Y00263860D02*
Y00232660D01*
X02277881Y00263860D02*
X02281781Y00259960D01*
Y00236560D01*
X02277881Y00232660D02*
X02281781Y00236560D01*
X02262281Y00232660D02*
X02277881D01*
X02262281Y00263860D02*
X02277881D01*
X02295040Y00232660D02*
X02302840D01*
X02298940Y00263860D02*
Y00232660D01*
X02291140Y00256060D02*
X02298940Y00263860D01*
X03419750Y01145480D02*
X03439750D01*
X03444750Y01140480D01*
Y01130480D01*
X03439750Y01125480D02*
X03444750Y01130480D01*
X03424750Y01125480D02*
X03439750D01*
X03424750Y01145480D02*
Y01105480D01*
Y01125480D02*
X03444750Y01105480D01*
X03456760Y01110480D02*
X03461760Y01105480D01*
X03456760Y01120480D02*
Y01110480D01*
Y01120480D02*
X03461760Y01125480D01*
X03471760D01*
X03476760Y01120480D01*
Y01110480D01*
X03471760Y01105480D02*
X03476760Y01110480D01*
X03461760Y01105480D02*
X03471760D01*
X03456760Y01130480D02*
X03461760Y01125480D01*
X03456760Y01140480D02*
Y01130480D01*
Y01140480D02*
X03461760Y01145480D01*
X03471760D01*
X03476760Y01140480D01*
Y01130480D01*
X03471760Y01125480D02*
X03476760Y01130480D01*
X03457220Y01184120D02*
X03497220D01*
X03457220Y01199120D02*
X03462220Y01204120D01*
X03492220D01*
X03497220Y01199120D02*
X03492220Y01204120D01*
X03497220Y01199120D02*
Y01179120D01*
X03457220Y01199120D02*
Y01179120D01*
X03462220Y01216130D02*
X03457220Y01221130D01*
Y01236130D02*
Y01221130D01*
Y01236130D02*
X03462220Y01241130D01*
X03472220D01*
X03497220Y01216130D02*
X03472220Y01241130D01*
X03497220D02*
Y01216130D01*
X03456820Y00943960D02*
X03496820D01*
X03456820Y00958960D02*
X03461820Y00963960D01*
X03491820D01*
X03496820Y00958960D02*
X03491820Y00963960D01*
X03496820Y00958960D02*
Y00938960D01*
X03456820Y00958960D02*
Y00938960D01*
X03461820Y00975970D02*
X03456820Y00980970D01*
Y00990970D02*
Y00980970D01*
Y00990970D02*
X03461820Y00995970D01*
X03491820D01*
X03496820Y00990970D02*
X03491820Y00995970D01*
X03496820Y00990970D02*
Y00980970D01*
X03491820Y00975970D02*
X03496820Y00980970D01*
X03476820Y00995970D02*
Y00980970D01*
X03396120Y01446680D02*
X03416120D01*
X03421120Y01441680D01*
Y01431680D01*
X03416120Y01426680D02*
X03421120Y01431680D01*
X03401120Y01426680D02*
X03416120D01*
X03401120Y01446680D02*
Y01406680D01*
Y01426680D02*
X03421120Y01406680D01*
X03433131D02*
X03458131Y01431680D01*
Y01446680D02*
Y01431680D01*
X03433131Y01446680D02*
X03458131D01*
X03317270Y00358670D02*
X03332270D01*
X03312270Y00363670D02*
X03317270Y00358670D01*
X03312270Y00393670D02*
Y00363670D01*
Y00393670D02*
X03317270Y00398670D01*
X03332270D01*
X03349281Y00358670D02*
X03359281D01*
X03354281Y00398670D02*
Y00358670D01*
X03344281Y00388670D02*
X03354281Y00398670D01*
X03371290Y00363670D02*
X03376290Y00358670D01*
X03371290Y00393670D02*
Y00363670D01*
Y00393670D02*
X03376290Y00398670D01*
X03386290D01*
X03391290Y00393670D01*
Y00363670D01*
X03386290Y00358670D02*
X03391290Y00363670D01*
X03376290Y00358670D02*
X03386290D01*
X03371290Y00368670D02*
X03391290Y00388670D01*
X03443250Y00329120D02*
X03458250D01*
X03438250Y00334120D02*
X03443250Y00329120D01*
X03438250Y00364120D02*
Y00334120D01*
Y00364120D02*
X03443250Y00369120D01*
X03458250D01*
X03470260Y00329120D02*
X03490260Y00349120D01*
Y00364120D02*
Y00349120D01*
X03485260Y00369120D02*
X03490260Y00364120D01*
X03475260Y00369120D02*
X03485260D01*
X03470260Y00364120D02*
X03475260Y00369120D01*
X03470260Y00364120D02*
Y00354120D01*
X03475260Y00349120D01*
X03490260D01*
X03370520Y00795120D02*
X03390520D01*
X03395520Y00790120D01*
Y00780120D01*
X03390520Y00775120D02*
X03395520Y00780120D01*
X03375520Y00775120D02*
X03390520D01*
X03375520Y00795120D02*
Y00755120D01*
Y00775120D02*
X03395520Y00755120D01*
X03407531D02*
X03427531Y00775120D01*
Y00790120D02*
Y00775120D01*
X03422531Y00795120D02*
X03427531Y00790120D01*
X03412531Y00795120D02*
X03422531D01*
X03407531Y00790120D02*
X03412531Y00795120D01*
X03407531Y00790120D02*
Y00780120D01*
X03412531Y00775120D01*
X03427531D01*
X02923840Y01714590D02*
X02928840D01*
X02953840Y01739590D01*
X02963840D01*
X02953840Y01714590D02*
X02963840D01*
X02953840D02*
X02928840Y01739590D01*
X02923840D02*
X02928840D01*
X02963840Y01766600D02*
Y01756600D01*
X02923840Y01761600D02*
X02963840D01*
X02933840Y01751600D02*
X02923840Y01761600D01*
X03029440Y01816150D02*
X03044440D01*
X03024440Y01821150D02*
X03029440Y01816150D01*
X03024440Y01851150D02*
Y01821150D01*
Y01851150D02*
X03029440Y01856150D01*
X03044440D01*
X03061450Y01816150D02*
X03071450D01*
X03066450Y01856150D02*
Y01816150D01*
X03056450Y01846150D02*
X03066450Y01856150D01*
X02469120Y00960890D02*
X02473020Y00964790D01*
X02469120Y00960890D02*
Y00949190D01*
X02473020Y00945290D02*
X02469120Y00949190D01*
X02473020Y00945290D02*
X02480820D01*
X02484720Y00949190D01*
Y00960890D02*
Y00949190D01*
Y00960890D02*
X02488620Y00964790D01*
X02496420D01*
X02500320Y00960890D02*
X02496420Y00964790D01*
X02500320Y00960890D02*
Y00949190D01*
X02496420Y00945290D02*
X02500320Y00949190D01*
X02496420Y00974150D02*
X02473020Y00997550D01*
X02469120Y01018620D02*
Y01006920D01*
Y01018620D02*
X02496420D01*
X02500320Y01014720D02*
X02496420Y01018620D01*
X02500320Y01014720D02*
Y01010820D01*
X02496420Y01006920D02*
X02500320Y01010820D01*
X02473020Y01027990D02*
X02469120Y01031890D01*
Y01039690D02*
Y01031890D01*
Y01039690D02*
X02473020Y01043590D01*
X02496420D01*
X02500320Y01039690D02*
X02496420Y01043590D01*
X02500320Y01039690D02*
Y01031890D01*
X02496420Y01027990D02*
X02500320Y01031890D01*
X02484720Y01043590D02*
Y01031890D01*
X02513920Y00767430D02*
Y00737430D01*
Y00767430D02*
X02518920Y00772430D01*
X02528920D01*
X02533920Y00767430D01*
Y00737430D01*
X02528920Y00732430D02*
X02533920Y00737430D01*
X02518920Y00732430D02*
X02528920D01*
X02513920Y00737430D02*
X02518920Y00732430D01*
X02523920Y00742430D02*
X02533920Y00732430D01*
X02550931D02*
X02560931D01*
X02555931Y00772430D02*
Y00732430D01*
X02545931Y00762430D02*
X02555931Y00772430D01*
X02464881Y01091800D02*
X02469331Y01096250D01*
X02464881Y01091800D02*
Y01078450D01*
X02469331Y01074000D02*
X02464881Y01078450D01*
X02469331Y01074000D02*
X02478231D01*
X02482681Y01078450D01*
Y01091800D02*
Y01078450D01*
Y01091800D02*
X02487131Y01096250D01*
X02496031D01*
X02500481Y01091800D02*
X02496031Y01096250D01*
X02500481Y01091800D02*
Y01078450D01*
X02496031Y01074000D02*
X02500481Y01078450D01*
X02496031Y01106930D02*
X02469331Y01133630D01*
X02464881Y01162120D02*
X02469331Y01166570D01*
X02464881Y01162120D02*
Y01148770D01*
X02469331Y01144320D02*
X02464881Y01148770D01*
X02469331Y01144320D02*
X02478231D01*
X02482681Y01148770D01*
Y01162120D02*
Y01148770D01*
Y01162120D02*
X02487131Y01166570D01*
X02496031D01*
X02500481Y01162120D02*
X02496031Y01166570D01*
X02500481Y01162120D02*
Y01148770D01*
X02496031Y01144320D02*
X02500481Y01148770D01*
X02496031Y01177260D02*
X02469331Y01203960D01*
X02464881Y01228000D02*
Y01214650D01*
Y01228000D02*
X02496031D01*
X02500481Y01223550D02*
X02496031Y01228000D01*
X02500481Y01223550D02*
Y01219100D01*
X02496031Y01214650D02*
X02500481Y01219100D01*
Y01252040D02*
Y01243140D01*
X02464881Y01247590D02*
X02500481D01*
X02473781Y01238690D02*
X02464881Y01247590D01*
X02530050Y01201110D02*
X02534500Y01205560D01*
X02530050Y01201110D02*
Y01187760D01*
X02534500Y01183310D02*
X02530050Y01187760D01*
X02534500Y01183310D02*
X02543400D01*
X02547850Y01187760D01*
Y01201110D02*
Y01187760D01*
Y01201110D02*
X02552300Y01205560D01*
X02561200D01*
X02565650Y01201110D02*
X02561200Y01205560D01*
X02565650Y01201110D02*
Y01187760D01*
X02561200Y01183310D02*
X02565650Y01187760D01*
X02561200Y01216240D02*
X02534500Y01242940D01*
X02530050Y01258080D02*
X02565650D01*
X02530050Y01271430D02*
X02534500Y01275880D01*
X02561200D01*
X02565650Y01271430D02*
X02561200Y01275880D01*
X02565650Y01271430D02*
Y01253630D01*
X02530050Y01271430D02*
Y01253630D01*
X02565650Y01286570D02*
X02547850Y01304370D01*
X02534500D02*
X02547850D01*
X02530050Y01299920D02*
X02534500Y01304370D01*
X02530050Y01299920D02*
Y01291020D01*
X02534500Y01286570D02*
X02530050Y01291020D01*
X02534500Y01286570D02*
X02543400D01*
X02547850Y01291020D01*
Y01304370D02*
Y01291020D01*
X02606370Y00686060D02*
Y00646060D01*
X02626370D01*
X02643381D02*
X02653381D01*
X02648381Y00686060D02*
Y00646060D01*
X02638381Y00676060D02*
X02648381Y00686060D01*
X02167781Y00736050D02*
X02182781D01*
Y00701050D01*
X02177781Y00696050D02*
X02182781Y00701050D01*
X02172781Y00696050D02*
X02177781D01*
X02167781Y00701050D02*
X02172781Y00696050D01*
X02199790D02*
X02209790D01*
X02204790Y00736050D02*
Y00696050D01*
X02194790Y00726050D02*
X02204790Y00736050D01*
X02475270Y02307520D02*
Y02292520D01*
Y02307520D02*
X02510270D01*
X02515270Y02302520D02*
X02510270Y02307520D01*
X02515270Y02302520D02*
Y02297520D01*
X02510270Y02292520D02*
X02515270Y02297520D01*
X02475270Y02334530D02*
X02480270Y02339530D01*
X02475270Y02334530D02*
Y02324530D01*
X02480270Y02319530D02*
X02475270Y02324530D01*
X02480270Y02319530D02*
X02510270D01*
X02515270Y02324530D01*
X02495270Y02334530D02*
X02500270Y02339530D01*
X02495270Y02334530D02*
Y02319530D01*
X02515270Y02334530D02*
Y02324530D01*
Y02334530D02*
X02510270Y02339530D01*
X02500270D02*
X02510270D01*
X02506510Y02224710D02*
Y02204710D01*
Y02224710D02*
X02511510Y02229710D01*
X02521510D01*
X02526510Y02224710D02*
X02521510Y02229710D01*
X02526510Y02224710D02*
Y02209710D01*
X02506510D02*
X02546510D01*
X02526510D02*
X02546510Y02229710D01*
X02506510Y02256720D02*
X02511510Y02261720D01*
X02506510Y02256720D02*
Y02246720D01*
X02511510Y02241720D02*
X02506510Y02246720D01*
X02511510Y02241720D02*
X02541510D01*
X02546510Y02246720D01*
X02526510Y02256720D02*
X02531510Y02261720D01*
X02526510Y02256720D02*
Y02241720D01*
X02546510Y02256720D02*
Y02246720D01*
Y02256720D02*
X02541510Y02261720D01*
X02531510D02*
X02541510D01*
%LPC*%
G75*
X02541510Y02261720D02*
G54D14*
X03031920Y01715100D03*
X03031950Y01765150D03*
X02037860Y01250000D03*
X01929590Y01043310D03*
X02037860Y01297240D03*
X02096910Y01322840D03*
X02126440Y01141730D03*
X02142190Y00751960D03*
X02126440Y01074800D03*
X02465020Y01035430D03*
X02327231Y01137800D03*
X02226831Y01149610D03*
X02392190Y00541330D03*
X02500460Y00246060D03*
X02228800Y00413380D03*
X02616600Y01141730D03*
X02819350Y00811020D03*
X02677620Y00501960D03*
X02634310Y00909440D03*
X02346910Y01476380D03*
Y01523620D03*
Y01570870D03*
Y01618110D03*
X02689431Y01269690D03*
X03394160Y01153540D03*
X02687460Y01157480D03*
X02642550Y01182190D03*
X02581160Y01263780D03*
X02526050Y01446850D03*
Y01500000D03*
Y01553150D03*
Y01606300D03*
X02561481Y01580710D03*
X03024081Y01570860D03*
X02980770Y00311020D03*
X03366600Y01425190D03*
X03453210Y00870070D03*
X03278020Y00466520D03*
Y00407470D03*
X03512270Y00366140D03*
X03278020Y00269680D03*
Y00328740D03*
X03445340Y00055110D03*
X03500460Y00102360D03*
Y00614170D03*
X02169750Y01704720D03*
X02299670Y01476380D03*
Y01523620D03*
Y01570870D03*
X02047700Y02011810D03*
X01992581Y02047240D03*
X02118570Y01858270D03*
X02071320Y01870080D03*
X02118570Y01905510D03*
X02028020Y01933070D03*
X02071320Y01917320D03*
X02024081Y01787400D03*
X02012270Y01519690D03*
X02071320Y01525590D03*
X02110690Y01771650D03*
X01953210Y01732280D03*
X01925650Y01777560D03*
X02179590Y02116140D03*
X02189431Y02055120D03*
X02665810Y01988190D03*
X02654000Y01897640D03*
X02760300Y01834650D03*
X02665810D03*
X02760300Y01988190D03*
X02506360Y02135830D03*
X02226831Y02110240D03*
X02819350Y01645660D03*
X02526050Y01659450D03*
X02561481Y01633860D03*
X02443370Y02198820D03*
X02474870Y02167320D03*
X02449281Y02291330D03*
X02823290Y02161410D03*
X02913840Y02326770D03*
X03417781Y02307080D03*
X03374470D03*
X02854790Y02129920D03*
X02886281Y02098420D03*
X02965020Y02133850D03*
X02921720Y02125980D03*
X03102820Y01720470D03*
X03413840Y01822830D03*
Y01881890D03*
X02988650Y01822830D03*
X03405970Y01720470D03*
X02842981Y01988180D03*
X02850850Y02066920D03*
G54D15*
X02676020Y01786110D03*
X02754020Y02036720D03*
X02676020D03*
X02754020Y01786110D03*
G54D16*
X03041081Y01889760D03*
G54D15*
X02603550Y01318900D03*
X02681550D03*
G54D16*
X03366960Y01377950D03*
G54D17*
X02449280Y00383850D03*
G54D18*
X02981181Y02248820D03*
X02955590D03*
G54D19*
X01949280Y02320500D03*
Y02262160D03*
G54D15*
X02642550Y01236900D03*
X02715020Y01868110D03*
Y01954720D03*
G54D20*
X02720545Y00365345D03*
G54D21*
X02309370Y00695070D03*
X02514370D03*
X02309370Y00645070D03*
Y00595070D03*
Y00545070D03*
X02514370D03*
Y00595070D03*
Y00645070D03*
G54D22*
X02303610Y00424790D03*
G54D21*
X02514370Y00043110D03*
X02309370D03*
X02514370Y00093110D03*
Y00143110D03*
Y00193110D03*
X02309370D03*
Y00143110D03*
Y00093110D03*
G54D22*
X02303610Y00342910D03*
G54D16*
X02982740Y01889760D03*
X03425300Y01377950D03*
G54D18*
X02955590Y01953540D03*
X02981181D03*
X03006770D03*
X03032360D03*
X03057950D03*
X03185900D03*
X03211490D03*
X03237081D03*
X03262670D03*
X03288260D03*
X03313850D03*
X03339440D03*
X03365031D03*
X03390620D03*
X03416210D03*
Y02248820D03*
X03390620D03*
X03365031D03*
X03339440D03*
X03313850D03*
X03288260D03*
X03262670D03*
X03237081D03*
X03211490D03*
X03185900D03*
X03160310D03*
X03134720D03*
X03109131D03*
X03083540D03*
X03057950D03*
X03032360D03*
X03006770D03*
X03083540Y01953540D03*
X03109131D03*
X03134720D03*
X03160310D03*
G54D23*
X03396131Y00981870D03*
Y00907870D03*
Y01289360D03*
Y01215360D03*
G54D16*
X03425300Y01072830D03*
X03366960D03*
Y00826770D03*
X03425300D03*
G54D20*
X03114245Y00365345D03*
G54D24*
X02411870Y00226370D03*
Y00068890D03*
X03279590Y00738180D03*
%LPD*%
G75*
X03279590Y00738180D02*
G54D11*
X02760372Y00044551D02*
X02768845D01*
Y00027609D01*
X02760372Y00019140D01*
X02743434D01*
X02734965Y00027609D01*
Y00078428D01*
X02743434Y00086900D01*
X02760372D01*
X02768845Y00078428D01*
X02785784Y00027609D02*
Y00078428D01*
X02794252Y00086900D01*
X02811194D01*
X02819664Y00078428D01*
Y00027609D01*
X02811194Y00019140D01*
X02794252D01*
X02785784Y00027609D01*
X02870482D02*
X02862013Y00019140D01*
X02845074D01*
X02836601Y00027609D01*
Y00078428D01*
X02845074Y00086900D01*
X02862013D01*
X02870482Y00078428D01*
G54D25*
X03131411Y00030053D02*
Y00042324D01*
Y00030053D02*
Y00042324D01*
Y00062053D02*
Y00074324D01*
X03187194Y00030053D02*
Y00042324D01*
Y00030053D02*
Y00042324D01*
Y00062053D02*
Y00074324D01*
X03015190Y00030053D02*
Y00042324D01*
Y00030053D02*
Y00042324D01*
Y00062053D02*
Y00074324D01*
X03070974Y00030053D02*
Y00042324D01*
Y00030053D02*
Y00042324D01*
Y00062053D02*
Y00074324D01*
G54D10*
X02465020Y03499800D02*
X02425650Y03460431D01*
X02465020Y03535231D02*
Y03499800D01*
X02488650Y04830500D02*
X02004390D01*
X01984710Y04850181D01*
G54D11*
X03441131Y03908581D02*
X03431131Y03933581D01*
X03441131Y03908581D02*
Y03777581D01*
X03351131D02*
X03441131D01*
X03351131Y03908581D02*
Y03777581D01*
X03361131Y03933581D02*
X03351131Y03908581D01*
G54D12*
X03361131Y03933581D02*
X03431131D01*
G54D11*
X03441131Y03601090D02*
X03431131Y03626090D01*
X03441131Y03601090D02*
Y03470090D01*
X03351131D02*
X03441131D01*
X03351131Y03601090D02*
Y03470090D01*
X03361131Y03626090D02*
X03351131Y03601090D01*
G54D12*
X03361131Y03626090D02*
X03431131D01*
G54D10*
X03388260Y03409910D02*
X03404000D01*
X03388260Y03440070D02*
X03404000D01*
G54D13*
X02606370Y03223410D02*
Y02703731D01*
X03228410Y03223410D02*
X02606370D01*
X03228410Y02703731D02*
Y03223410D01*
X02606370Y02703731D02*
X03228410D01*
G54D11*
X03486910Y03279400D02*
X03526910D01*
X03286910Y03299400D02*
Y03259400D01*
X03266910Y03279400D02*
X03306910D01*
X03261910Y03149400D02*
G03X03261910Y03149400I00135000J00000000D01*
X03486910Y02915220D02*
G01X03526910D01*
X03286910Y02935220D02*
Y02895220D01*
X03266910Y02915220D02*
X03306910D01*
X03261910Y02785220D02*
G03X03261910Y02785220I00135000J00000000D01*
X01914250Y03359240D02*
G01X02414250D01*
Y03459240D02*
Y03359240D01*
X01914250Y03459240D02*
X02414250D01*
X01914250D02*
Y03359240D01*
X02014250Y03459240D02*
Y03359240D01*
X01914250Y03459240D02*
X02014250D01*
X02566870Y03313290D02*
X02436870D01*
X02256870D02*
X02386870D01*
X02566870Y03123290D02*
Y03313290D01*
X02256870Y03123290D02*
X02566870D01*
X02256870Y03313290D02*
Y03123290D01*
X02386870Y03313290D02*
G03X02436870Y03313290I00025000J00000000D01*
X02256870Y02621331D02*
G01X02386870D01*
X02436870D02*
X02566870D01*
X02256870Y02811331D02*
Y02621331D01*
Y02811331D02*
X02566870D01*
Y02621331D01*
X02436870D02*
G03X02386870Y02621331I-00025000J00000000D01*
G54D13*
X02264240Y03088370D02*
G01X02555581D01*
Y02875770D01*
X02264240D02*
X02555581D01*
X02264240Y03088370D02*
Y02875770D01*
G54D11*
X02215020Y03277350D02*
Y02686790D01*
X01900060Y03277350D02*
X02215020D01*
X01900060Y02686790D02*
X02215020D01*
X02651020Y04524940D02*
X02779020D01*
X02651020Y04663940D02*
Y04524940D01*
Y04663940D02*
X02779020D01*
Y04524940D01*
Y04494331D02*
X02651020D01*
X02779020Y04355331D02*
Y04494331D01*
X02651020Y04355331D02*
X02779020D01*
X02651020Y04494331D02*
Y04355331D01*
X02013450Y04939550D02*
X02113450D01*
Y04839550D01*
X02013450Y04939550D02*
Y04839550D01*
Y04939550D02*
X02413450D01*
Y04839550D01*
X02013450D02*
X02413450D01*
G54D10*
X01934200Y04881681D02*
Y04897420D01*
X01964360Y04881681D02*
Y04897420D01*
G54D11*
X01899950Y04179200D02*
X02447700D01*
Y04819200D01*
X01899950D02*
X02447700D01*
X01899950Y03490231D02*
X02447700D01*
Y04130231D01*
X01899950D02*
X02447700D01*
G54D10*
X03388260Y03686131D02*
X03404000D01*
X03388260Y03655970D02*
X03404000D01*
G54D11*
X02578550Y03807120D02*
X02706550D01*
X02578550Y03946120D02*
Y03807120D01*
Y03946120D02*
X02706550D01*
Y03807120D01*
G54D10*
X03388260Y03991250D02*
X03404000D01*
X03388260Y03961090D02*
X03404000D01*
G54D11*
X02937870Y04821450D02*
X03433931D01*
Y04577350D01*
X02937870D02*
X03433931D01*
X02937870Y04821450D02*
Y04577350D01*
X02962670Y04583460D02*
G03X02962670Y04583460I00000000J00006100D01*
X03031950Y04288370D02*
G03X03031950Y04288370I00000000J00050000D01*
G54D10*
X03004040Y04503060D02*
G01X03019781D01*
X03004040Y04472900D02*
X03019781D01*
X02880940Y04577350D02*
X02915940D01*
X02920940Y04582350D01*
Y04592350D02*
Y04582350D01*
Y04592350D02*
X02915940Y04597350D01*
X02880940D02*
X02915940D01*
X02885940Y04609360D02*
X02880940Y04614360D01*
Y04624360D02*
Y04614360D01*
Y04624360D02*
X02885940Y04629360D01*
X02915940D01*
X02920940Y04624360D02*
X02915940Y04629360D01*
X02920940Y04624360D02*
Y04614360D01*
X02915940Y04609360D02*
X02920940Y04614360D01*
X02900940Y04629360D02*
Y04614360D01*
X02595740Y04546910D02*
X02600740Y04551910D01*
X02595740Y04546910D02*
Y04531910D01*
X02600740Y04526910D02*
X02595740Y04531910D01*
X02600740Y04526910D02*
X02610740D01*
X02615740Y04531910D01*
Y04546910D02*
Y04531910D01*
Y04546910D02*
X02620740Y04551910D01*
X02630740D01*
X02635740Y04546910D02*
X02630740Y04551910D01*
X02635740Y04546910D02*
Y04531910D01*
X02630740Y04526910D02*
X02635740Y04531910D01*
X02630740Y04563920D02*
X02600740Y04593920D01*
X02595740Y04610931D02*
X02635740D01*
X02595740Y04625931D02*
X02600740Y04630931D01*
X02630740D01*
X02635740Y04625931D02*
X02630740Y04630931D01*
X02635740Y04625931D02*
Y04605931D01*
X02595740Y04625931D02*
Y04605931D01*
X02630740Y04642940D02*
X02635740Y04647940D01*
X02620740Y04642940D02*
X02630740D01*
X02620740D02*
X02615740Y04647940D01*
Y04657940D02*
Y04647940D01*
Y04657940D02*
X02620740Y04662940D01*
X02630740D01*
X02635740Y04657940D02*
X02630740Y04662940D01*
X02635740Y04657940D02*
Y04647940D01*
X02610740Y04642940D02*
X02615740Y04647940D01*
X02600740Y04642940D02*
X02610740D01*
X02600740D02*
X02595740Y04647940D01*
Y04657940D02*
Y04647940D01*
Y04657940D02*
X02600740Y04662940D01*
X02610740D01*
X02615740Y04657940D02*
X02610740Y04662940D01*
X02595750Y04377610D02*
X02600750Y04382610D01*
X02595750Y04377610D02*
Y04362610D01*
X02600750Y04357610D02*
X02595750Y04362610D01*
X02600750Y04357610D02*
X02610750D01*
X02615750Y04362610D01*
Y04377610D02*
Y04362610D01*
Y04377610D02*
X02620750Y04382610D01*
X02630750D01*
X02635750Y04377610D02*
X02630750Y04382610D01*
X02635750Y04377610D02*
Y04362610D01*
X02630750Y04357610D02*
X02635750Y04362610D01*
X02630750Y04394620D02*
X02600750Y04424620D01*
X02595750Y04441631D02*
X02635750D01*
X02595750Y04456631D02*
X02600750Y04461631D01*
X02630750D01*
X02635750Y04456631D02*
X02630750Y04461631D01*
X02635750Y04456631D02*
Y04436631D01*
X02595750Y04456631D02*
Y04436631D01*
X02635750Y04473640D02*
X02610750Y04498640D01*
X02595750D02*
X02610750D01*
X02595750D02*
Y04473640D01*
X02464870Y04319960D02*
X02469320Y04324410D01*
X02464870Y04319960D02*
Y04306610D01*
X02469320Y04302160D02*
X02464870Y04306610D01*
X02469320Y04302160D02*
X02478220D01*
X02482670Y04306610D01*
Y04319960D02*
Y04306610D01*
Y04319960D02*
X02487120Y04324410D01*
X02496020D01*
X02500470Y04319960D02*
X02496020Y04324410D01*
X02500470Y04319960D02*
Y04306610D01*
X02496020Y04302160D02*
X02500470Y04306610D01*
X02496020Y04335090D02*
X02469320Y04361790D01*
X02464870Y04390281D02*
X02469320Y04394731D01*
X02464870Y04390281D02*
Y04376931D01*
X02469320Y04372481D02*
X02464870Y04376931D01*
X02469320Y04372481D02*
X02478220D01*
X02482670Y04376931D01*
Y04390281D02*
Y04376931D01*
Y04390281D02*
X02487120Y04394731D01*
X02496020D01*
X02500470Y04390281D02*
X02496020Y04394731D01*
X02500470Y04390281D02*
Y04376931D01*
X02496020Y04372481D02*
X02500470Y04376931D01*
X02496020Y04405420D02*
X02469320Y04432120D01*
X02464870Y04456160D02*
Y04442810D01*
Y04456160D02*
X02496020D01*
X02500470Y04451710D02*
X02496020Y04456160D01*
X02500470Y04451710D02*
Y04447260D01*
X02496020Y04442810D02*
X02500470Y04447260D01*
X02469320Y04466850D02*
X02464870Y04471300D01*
Y04484650D02*
Y04471300D01*
Y04484650D02*
X02469320Y04489100D01*
X02478220D01*
X02500470Y04466850D02*
X02478220Y04489100D01*
X02500470D02*
Y04466850D01*
X02584790Y02655020D02*
Y02625020D01*
Y02655020D02*
X02589790Y02660020D01*
X02599790D01*
X02604790Y02655020D01*
Y02625020D01*
X02599790Y02620020D02*
X02604790Y02625020D01*
X02589790Y02620020D02*
X02599790D01*
X02584790Y02625020D02*
X02589790Y02620020D01*
X02594790Y02630020D02*
X02604790Y02620020D01*
X02616800Y02655020D02*
X02621800Y02660020D01*
X02636800D01*
X02641800Y02655020D01*
Y02645020D01*
X02616800Y02620020D02*
X02641800Y02645020D01*
X02616800Y02620020D02*
X02641800D01*
X02266181Y02862081D02*
Y02830881D01*
X02277881Y02862081D02*
X02281781Y02858181D01*
Y02834781D01*
X02277881Y02830881D02*
X02281781Y02834781D01*
X02262281Y02830881D02*
X02277881D01*
X02262281Y02862081D02*
X02277881D01*
X02295040Y02830881D02*
X02302840D01*
X02298940Y02862081D02*
Y02830881D01*
X02291140Y02854281D02*
X02298940Y02862081D01*
X03419750Y03743700D02*
X03439750D01*
X03444750Y03738700D01*
Y03728700D01*
X03439750Y03723700D02*
X03444750Y03728700D01*
X03424750Y03723700D02*
X03439750D01*
X03424750Y03743700D02*
Y03703700D01*
Y03723700D02*
X03444750Y03703700D01*
X03456760Y03708700D02*
X03461760Y03703700D01*
X03456760Y03718700D02*
Y03708700D01*
Y03718700D02*
X03461760Y03723700D01*
X03471760D01*
X03476760Y03718700D01*
Y03708700D01*
X03471760Y03703700D02*
X03476760Y03708700D01*
X03461760Y03703700D02*
X03471760D01*
X03456760Y03728700D02*
X03461760Y03723700D01*
X03456760Y03738700D02*
Y03728700D01*
Y03738700D02*
X03461760Y03743700D01*
X03471760D01*
X03476760Y03738700D01*
Y03728700D01*
X03471760Y03723700D02*
X03476760Y03728700D01*
X03457220Y03782340D02*
X03497220D01*
X03457220Y03797340D02*
X03462220Y03802340D01*
X03492220D01*
X03497220Y03797340D02*
X03492220Y03802340D01*
X03497220Y03797340D02*
Y03777340D01*
X03457220Y03797340D02*
Y03777340D01*
X03462220Y03814350D02*
X03457220Y03819350D01*
Y03834350D02*
Y03819350D01*
Y03834350D02*
X03462220Y03839350D01*
X03472220D01*
X03497220Y03814350D02*
X03472220Y03839350D01*
X03497220D02*
Y03814350D01*
X03456820Y03542181D02*
X03496820D01*
X03456820Y03557181D02*
X03461820Y03562181D01*
X03491820D01*
X03496820Y03557181D02*
X03491820Y03562181D01*
X03496820Y03557181D02*
Y03537181D01*
X03456820Y03557181D02*
Y03537181D01*
X03461820Y03574190D02*
X03456820Y03579190D01*
Y03589190D02*
Y03579190D01*
Y03589190D02*
X03461820Y03594190D01*
X03491820D01*
X03496820Y03589190D02*
X03491820Y03594190D01*
X03496820Y03589190D02*
Y03579190D01*
X03491820Y03574190D02*
X03496820Y03579190D01*
X03476820Y03594190D02*
Y03579190D01*
X03396120Y04044900D02*
X03416120D01*
X03421120Y04039900D01*
Y04029900D01*
X03416120Y04024900D02*
X03421120Y04029900D01*
X03401120Y04024900D02*
X03416120D01*
X03401120Y04044900D02*
Y04004900D01*
Y04024900D02*
X03421120Y04004900D01*
X03433131D02*
X03458131Y04029900D01*
Y04044900D02*
Y04029900D01*
X03433131Y04044900D02*
X03458131D01*
X03317270Y02956890D02*
X03332270D01*
X03312270Y02961890D02*
X03317270Y02956890D01*
X03312270Y02991890D02*
Y02961890D01*
Y02991890D02*
X03317270Y02996890D01*
X03332270D01*
X03349281Y02956890D02*
X03359281D01*
X03354281Y02996890D02*
Y02956890D01*
X03344281Y02986890D02*
X03354281Y02996890D01*
X03371290Y02961890D02*
X03376290Y02956890D01*
X03371290Y02991890D02*
Y02961890D01*
Y02991890D02*
X03376290Y02996890D01*
X03386290D01*
X03391290Y02991890D01*
Y02961890D01*
X03386290Y02956890D02*
X03391290Y02961890D01*
X03376290Y02956890D02*
X03386290D01*
X03371290Y02966890D02*
X03391290Y02986890D01*
X03443250Y02927340D02*
X03458250D01*
X03438250Y02932340D02*
X03443250Y02927340D01*
X03438250Y02962340D02*
Y02932340D01*
Y02962340D02*
X03443250Y02967340D01*
X03458250D01*
X03470260Y02927340D02*
X03490260Y02947340D01*
Y02962340D02*
Y02947340D01*
X03485260Y02967340D02*
X03490260Y02962340D01*
X03475260Y02967340D02*
X03485260D01*
X03470260Y02962340D02*
X03475260Y02967340D01*
X03470260Y02962340D02*
Y02952340D01*
X03475260Y02947340D01*
X03490260D01*
X03370520Y03393340D02*
X03390520D01*
X03395520Y03388340D01*
Y03378340D01*
X03390520Y03373340D02*
X03395520Y03378340D01*
X03375520Y03373340D02*
X03390520D01*
X03375520Y03393340D02*
Y03353340D01*
Y03373340D02*
X03395520Y03353340D01*
X03407531D02*
X03427531Y03373340D01*
Y03388340D02*
Y03373340D01*
X03422531Y03393340D02*
X03427531Y03388340D01*
X03412531Y03393340D02*
X03422531D01*
X03407531Y03388340D02*
X03412531Y03393340D01*
X03407531Y03388340D02*
Y03378340D01*
X03412531Y03373340D01*
X03427531D01*
X02923840Y04312810D02*
X02928840D01*
X02953840Y04337810D01*
X02963840D01*
X02953840Y04312810D02*
X02963840D01*
X02953840D02*
X02928840Y04337810D01*
X02923840D02*
X02928840D01*
X02963840Y04364820D02*
Y04354820D01*
X02923840Y04359820D02*
X02963840D01*
X02933840Y04349820D02*
X02923840Y04359820D01*
X03029440Y04414370D02*
X03044440D01*
X03024440Y04419370D02*
X03029440Y04414370D01*
X03024440Y04449370D02*
Y04419370D01*
Y04449370D02*
X03029440Y04454370D01*
X03044440D01*
X03061450Y04414370D02*
X03071450D01*
X03066450Y04454370D02*
Y04414370D01*
X03056450Y04444370D02*
X03066450Y04454370D01*
X02469120Y03559110D02*
X02473020Y03563010D01*
X02469120Y03559110D02*
Y03547410D01*
X02473020Y03543510D02*
X02469120Y03547410D01*
X02473020Y03543510D02*
X02480820D01*
X02484720Y03547410D01*
Y03559110D02*
Y03547410D01*
Y03559110D02*
X02488620Y03563010D01*
X02496420D01*
X02500320Y03559110D02*
X02496420Y03563010D01*
X02500320Y03559110D02*
Y03547410D01*
X02496420Y03543510D02*
X02500320Y03547410D01*
X02496420Y03572370D02*
X02473020Y03595770D01*
X02469120Y03616840D02*
Y03605140D01*
Y03616840D02*
X02496420D01*
X02500320Y03612940D02*
X02496420Y03616840D01*
X02500320Y03612940D02*
Y03609040D01*
X02496420Y03605140D02*
X02500320Y03609040D01*
X02473020Y03626210D02*
X02469120Y03630110D01*
Y03637910D02*
Y03630110D01*
Y03637910D02*
X02473020Y03641810D01*
X02496420D01*
X02500320Y03637910D02*
X02496420Y03641810D01*
X02500320Y03637910D02*
Y03630110D01*
X02496420Y03626210D02*
X02500320Y03630110D01*
X02484720Y03641810D02*
Y03630110D01*
X02513920Y03365650D02*
Y03335650D01*
Y03365650D02*
X02518920Y03370650D01*
X02528920D01*
X02533920Y03365650D01*
Y03335650D01*
X02528920Y03330650D02*
X02533920Y03335650D01*
X02518920Y03330650D02*
X02528920D01*
X02513920Y03335650D02*
X02518920Y03330650D01*
X02523920Y03340650D02*
X02533920Y03330650D01*
X02550931D02*
X02560931D01*
X02555931Y03370650D02*
Y03330650D01*
X02545931Y03360650D02*
X02555931Y03370650D01*
X02464881Y03690020D02*
X02469331Y03694470D01*
X02464881Y03690020D02*
Y03676670D01*
X02469331Y03672220D02*
X02464881Y03676670D01*
X02469331Y03672220D02*
X02478231D01*
X02482681Y03676670D01*
Y03690020D02*
Y03676670D01*
Y03690020D02*
X02487131Y03694470D01*
X02496031D01*
X02500481Y03690020D02*
X02496031Y03694470D01*
X02500481Y03690020D02*
Y03676670D01*
X02496031Y03672220D02*
X02500481Y03676670D01*
X02496031Y03705150D02*
X02469331Y03731850D01*
X02464881Y03760340D02*
X02469331Y03764790D01*
X02464881Y03760340D02*
Y03746990D01*
X02469331Y03742540D02*
X02464881Y03746990D01*
X02469331Y03742540D02*
X02478231D01*
X02482681Y03746990D01*
Y03760340D02*
Y03746990D01*
Y03760340D02*
X02487131Y03764790D01*
X02496031D01*
X02500481Y03760340D02*
X02496031Y03764790D01*
X02500481Y03760340D02*
Y03746990D01*
X02496031Y03742540D02*
X02500481Y03746990D01*
X02496031Y03775481D02*
X02469331Y03802181D01*
X02464881Y03826220D02*
Y03812870D01*
Y03826220D02*
X02496031D01*
X02500481Y03821770D02*
X02496031Y03826220D01*
X02500481Y03821770D02*
Y03817320D01*
X02496031Y03812870D02*
X02500481Y03817320D01*
Y03850260D02*
Y03841360D01*
X02464881Y03845810D02*
X02500481D01*
X02473781Y03836910D02*
X02464881Y03845810D01*
X02530050Y03799331D02*
X02534500Y03803781D01*
X02530050Y03799331D02*
Y03785981D01*
X02534500Y03781531D02*
X02530050Y03785981D01*
X02534500Y03781531D02*
X02543400D01*
X02547850Y03785981D01*
Y03799331D02*
Y03785981D01*
Y03799331D02*
X02552300Y03803781D01*
X02561200D01*
X02565650Y03799331D02*
X02561200Y03803781D01*
X02565650Y03799331D02*
Y03785981D01*
X02561200Y03781531D02*
X02565650Y03785981D01*
X02561200Y03814460D02*
X02534500Y03841160D01*
X02530050Y03856300D02*
X02565650D01*
X02530050Y03869650D02*
X02534500Y03874100D01*
X02561200D01*
X02565650Y03869650D02*
X02561200Y03874100D01*
X02565650Y03869650D02*
Y03851850D01*
X02530050Y03869650D02*
Y03851850D01*
X02565650Y03884790D02*
X02547850Y03902590D01*
X02534500D02*
X02547850D01*
X02530050Y03898140D02*
X02534500Y03902590D01*
X02530050Y03898140D02*
Y03889240D01*
X02534500Y03884790D02*
X02530050Y03889240D01*
X02534500Y03884790D02*
X02543400D01*
X02547850Y03889240D01*
Y03902590D02*
Y03889240D01*
X02606370Y03284281D02*
Y03244281D01*
X02626370D01*
X02643381D02*
X02653381D01*
X02648381Y03284281D02*
Y03244281D01*
X02638381Y03274281D02*
X02648381Y03284281D01*
X02167781Y03334270D02*
X02182781D01*
Y03299270D01*
X02177781Y03294270D02*
X02182781Y03299270D01*
X02172781Y03294270D02*
X02177781D01*
X02167781Y03299270D02*
X02172781Y03294270D01*
X02199790D02*
X02209790D01*
X02204790Y03334270D02*
Y03294270D01*
X02194790Y03324270D02*
X02204790Y03334270D01*
X02475270Y04905740D02*
Y04890740D01*
Y04905740D02*
X02510270D01*
X02515270Y04900740D02*
X02510270Y04905740D01*
X02515270Y04900740D02*
Y04895740D01*
X02510270Y04890740D02*
X02515270Y04895740D01*
X02475270Y04932750D02*
X02480270Y04937750D01*
X02475270Y04932750D02*
Y04922750D01*
X02480270Y04917750D02*
X02475270Y04922750D01*
X02480270Y04917750D02*
X02510270D01*
X02515270Y04922750D01*
X02495270Y04932750D02*
X02500270Y04937750D01*
X02495270Y04932750D02*
Y04917750D01*
X02515270Y04932750D02*
Y04922750D01*
Y04932750D02*
X02510270Y04937750D01*
X02500270D02*
X02510270D01*
X02506510Y04822931D02*
Y04802931D01*
Y04822931D02*
X02511510Y04827931D01*
X02521510D01*
X02526510Y04822931D02*
X02521510Y04827931D01*
X02526510Y04822931D02*
Y04807931D01*
X02506510D02*
X02546510D01*
X02526510D02*
X02546510Y04827931D01*
X02506510Y04854940D02*
X02511510Y04859940D01*
X02506510Y04854940D02*
Y04844940D01*
X02511510Y04839940D02*
X02506510Y04844940D01*
X02511510Y04839940D02*
X02541510D01*
X02546510Y04844940D01*
X02526510Y04854940D02*
X02531510Y04859940D01*
X02526510Y04854940D02*
Y04839940D01*
X02546510Y04854940D02*
Y04844940D01*
Y04854940D02*
X02541510Y04859940D01*
X02531510D02*
X02541510D01*
%LPC*%
G75*
X02541510Y04859940D02*
G54D14*
X03031920Y04313320D03*
X03031950Y04363370D03*
X02037860Y03848220D03*
X01929590Y03641531D03*
X02037860Y03895460D03*
X02096910Y03921060D03*
X02126440Y03739950D03*
X02142190Y03350181D03*
X02126440Y03673020D03*
X02465020Y03633650D03*
X02327231Y03736020D03*
X02226831Y03747831D03*
X02392190Y03139550D03*
X02500460Y02844281D03*
X02228800Y03011600D03*
X02616600Y03739950D03*
X02819350Y03409240D03*
X02677620Y03100181D03*
X02634310Y03507660D03*
X02346910Y04074600D03*
Y04121840D03*
Y04169090D03*
Y04216331D03*
X02689431Y03867910D03*
X03394160Y03751760D03*
X02687460Y03755700D03*
X02642550Y03780410D03*
X02581160Y03862000D03*
X02526050Y04045070D03*
Y04098220D03*
Y04151370D03*
Y04204520D03*
X02561481Y04178931D03*
X03024081Y04169081D03*
X02980770Y02909240D03*
X03366600Y04023410D03*
X03453210Y03468290D03*
X03278020Y03064740D03*
Y03005690D03*
X03512270Y02964360D03*
X03278020Y02867900D03*
Y02926960D03*
X03445340Y02653331D03*
X03500460Y02700581D03*
Y03212390D03*
X02169750Y04302940D03*
X02299670Y04074600D03*
Y04121840D03*
Y04169090D03*
X02047700Y04610031D03*
X01992581Y04645460D03*
X02118570Y04456490D03*
X02071320Y04468300D03*
X02118570Y04503731D03*
X02028020Y04531290D03*
X02071320Y04515540D03*
X02024081Y04385620D03*
X02012270Y04117910D03*
X02071320Y04123810D03*
X02110690Y04369870D03*
X01953210Y04330500D03*
X01925650Y04375781D03*
X02179590Y04714360D03*
X02189431Y04653340D03*
X02665810Y04586410D03*
X02654000Y04495860D03*
X02760300Y04432870D03*
X02665810D03*
X02760300Y04586410D03*
X02506360Y04734050D03*
X02226831Y04708460D03*
X02819350Y04243881D03*
X02526050Y04257670D03*
X02561481Y04232081D03*
X02443370Y04797040D03*
X02474870Y04765540D03*
X02449281Y04889550D03*
X02823290Y04759631D03*
X02913840Y04924990D03*
X03417781Y04905300D03*
X03374470D03*
X02854790Y04728140D03*
X02886281Y04696640D03*
X02965020Y04732070D03*
X02921720Y04724200D03*
X03102820Y04318690D03*
X03413840Y04421050D03*
Y04480110D03*
X02988650Y04421050D03*
X03405970Y04318690D03*
X02842981Y04586400D03*
X02850850Y04665140D03*
G54D15*
X02676020Y04384331D03*
X02754020Y04634940D03*
X02676020D03*
X02754020Y04384331D03*
G54D16*
X03041081Y04487980D03*
G54D15*
X02603550Y03917120D03*
X02681550D03*
G54D16*
X03366960Y03976170D03*
G54D17*
X02449280Y02982070D03*
G54D18*
X02981181Y04847040D03*
X02955590D03*
G54D19*
X01949280Y04918720D03*
Y04860381D03*
G54D15*
X02642550Y03835120D03*
X02715020Y04466331D03*
Y04552940D03*
G54D20*
X02720545Y02963565D03*
G54D21*
X02309370Y03293290D03*
X02514370D03*
X02309370Y03243290D03*
Y03193290D03*
Y03143290D03*
X02514370D03*
Y03193290D03*
Y03243290D03*
G54D22*
X02303610Y03023010D03*
G54D21*
X02514370Y02641331D03*
X02309370D03*
X02514370Y02691331D03*
Y02741331D03*
Y02791331D03*
X02309370D03*
Y02741331D03*
Y02691331D03*
G54D22*
X02303610Y02941130D03*
G54D16*
X02982740Y04487980D03*
X03425300Y03976170D03*
G54D18*
X02955590Y04551761D03*
X02981181D03*
X03006770D03*
X03032360D03*
X03057950D03*
X03185900D03*
X03211490D03*
X03237081D03*
X03262670D03*
X03288260D03*
X03313850D03*
X03339440D03*
X03365031D03*
X03390620D03*
X03416210D03*
Y04847040D03*
X03390620D03*
X03365031D03*
X03339440D03*
X03313850D03*
X03288260D03*
X03262670D03*
X03237081D03*
X03211490D03*
X03185900D03*
X03160310D03*
X03134720D03*
X03109131D03*
X03083540D03*
X03057950D03*
X03032360D03*
X03006770D03*
X03083540Y04551761D03*
X03109131D03*
X03134720D03*
X03160310D03*
G54D23*
X03396131Y03580090D03*
Y03506090D03*
Y03887581D03*
Y03813581D03*
G54D16*
X03425300Y03671050D03*
X03366960D03*
Y03424990D03*
X03425300D03*
G54D20*
X03114245Y02963565D03*
G54D24*
X02411870Y02824590D03*
Y02667110D03*
X03279590Y03336400D03*
%LPD*%
G75*
X03279590Y03336400D02*
G54D11*
X02760372Y02642771D02*
X02768845D01*
Y02625830D01*
X02760372Y02617361D01*
X02743434D01*
X02734965Y02625830D01*
Y02676649D01*
X02743434Y02685121D01*
X02760372D01*
X02768845Y02676649D01*
X02785784Y02625830D02*
Y02676649D01*
X02794252Y02685121D01*
X02811194D01*
X02819664Y02676649D01*
Y02625830D01*
X02811194Y02617361D01*
X02794252D01*
X02785784Y02625830D01*
X02870482D02*
X02862013Y02617361D01*
X02845074D01*
X02836601Y02625830D01*
Y02676649D01*
X02845074Y02685121D01*
X02862013D01*
X02870482Y02676649D01*
G54D25*
X03131411Y02628274D02*
Y02640545D01*
Y02628274D02*
Y02640545D01*
Y02660274D02*
Y02672545D01*
X03187194Y02628274D02*
Y02640545D01*
Y02628274D02*
Y02640545D01*
Y02660274D02*
Y02672545D01*
X03015190Y02628274D02*
Y02640545D01*
Y02628274D02*
Y02640545D01*
Y02660274D02*
Y02672545D01*
X03070974Y02628274D02*
Y02640545D01*
Y02628274D02*
Y02640545D01*
Y02660274D02*
Y02672545D01*
G54D10*
X04355241Y00901580D02*
X04315871Y00862210D01*
X04355241Y00937010D02*
Y00901580D01*
X04378871Y02232280D02*
X03894611D01*
X03874931Y02251960D01*
G54D11*
X05331351Y01310360D02*
X05321351Y01335360D01*
X05331351Y01310360D02*
Y01179360D01*
X05241351D02*
X05331351D01*
X05241351Y01310360D02*
Y01179360D01*
X05251351Y01335360D02*
X05241351Y01310360D01*
G54D12*
X05251351Y01335360D02*
X05321351D01*
G54D11*
X05331351Y01002870D02*
X05321351Y01027870D01*
X05331351Y01002870D02*
Y00871870D01*
X05241351D02*
X05331351D01*
X05241351Y01002870D02*
Y00871870D01*
X05251351Y01027870D02*
X05241351Y01002870D01*
G54D12*
X05251351Y01027870D02*
X05321351D01*
G54D10*
X05278481Y00811690D02*
X05294221D01*
X05278481Y00841850D02*
X05294221D01*
G54D13*
X04496591Y00625190D02*
Y00105510D01*
X05118631Y00625190D02*
X04496591D01*
X05118631Y00105510D02*
Y00625190D01*
X04496591Y00105510D02*
X05118631D01*
G54D11*
X05377131Y00681180D02*
X05417131D01*
X05177131Y00701180D02*
Y00661180D01*
X05157131Y00681180D02*
X05197131D01*
X05152131Y00551180D02*
G03X05152131Y00551180I00135000J00000000D01*
X05377131Y00317000D02*
G01X05417131D01*
X05177131Y00337000D02*
Y00297000D01*
X05157131Y00317000D02*
X05197131D01*
X05152131Y00187000D02*
G03X05152131Y00187000I00135000J00000000D01*
X03804471Y00761020D02*
G01X04304471D01*
Y00861020D02*
Y00761020D01*
X03804471Y00861020D02*
X04304471D01*
X03804471D02*
Y00761020D01*
X03904471Y00861020D02*
Y00761020D01*
X03804471Y00861020D02*
X03904471D01*
X04457091Y00715070D02*
X04327091D01*
X04147091D02*
X04277091D01*
X04457091Y00525070D02*
Y00715070D01*
X04147091Y00525070D02*
X04457091D01*
X04147091Y00715070D02*
Y00525070D01*
X04277091Y00715070D02*
G03X04327091Y00715070I00025000J00000000D01*
X04147091Y00023110D02*
G01X04277091D01*
X04327091D02*
X04457091D01*
X04147091Y00213110D02*
Y00023110D01*
Y00213110D02*
X04457091D01*
Y00023110D01*
X04327091D02*
G03X04277091Y00023110I-00025000J00000000D01*
G54D13*
X04154461Y00490150D02*
G01X04445801D01*
Y00277550D01*
X04154461D02*
X04445801D01*
X04154461Y00490150D02*
Y00277550D01*
G54D11*
X04105241Y00679130D02*
Y00088570D01*
X03790281Y00679130D02*
X04105241D01*
X03790281Y00088570D02*
X04105241D01*
X04541241Y01926720D02*
X04669241D01*
X04541241Y02065720D02*
Y01926720D01*
Y02065720D02*
X04669241D01*
Y01926720D01*
Y01896110D02*
X04541241D01*
X04669241Y01757110D02*
Y01896110D01*
X04541241Y01757110D02*
X04669241D01*
X04541241Y01896110D02*
Y01757110D01*
X03903671Y02341330D02*
X04003671D01*
Y02241330D01*
X03903671Y02341330D02*
Y02241330D01*
Y02341330D02*
X04303671D01*
Y02241330D01*
X03903671D02*
X04303671D01*
G54D10*
X03824421Y02283460D02*
Y02299200D01*
X03854581Y02283460D02*
Y02299200D01*
G54D11*
X03790171Y01580980D02*
X04337921D01*
Y02220980D01*
X03790171D02*
X04337921D01*
X03790171Y00892010D02*
X04337921D01*
Y01532010D01*
X03790171D02*
X04337921D01*
G54D10*
X05278481Y01087910D02*
X05294221D01*
X05278481Y01057750D02*
X05294221D01*
G54D11*
X04468771Y01208900D02*
X04596771D01*
X04468771Y01347900D02*
Y01208900D01*
Y01347900D02*
X04596771D01*
Y01208900D01*
G54D10*
X05278481Y01393030D02*
X05294221D01*
X05278481Y01362870D02*
X05294221D01*
G54D11*
X04828091Y02223230D02*
X05324151D01*
Y01979130D01*
X04828091D02*
X05324151D01*
X04828091Y02223230D02*
Y01979130D01*
X04852891Y01985240D02*
G03X04852891Y01985240I00000000J00006100D01*
X04922171Y01690150D02*
G03X04922171Y01690150I00000000J00050000D01*
G54D10*
X04894261Y01904840D02*
G01X04910001D01*
X04894261Y01874680D02*
X04910001D01*
X04771161Y01979130D02*
X04806161D01*
X04811161Y01984130D01*
Y01994130D02*
Y01984130D01*
Y01994130D02*
X04806161Y01999130D01*
X04771161D02*
X04806161D01*
X04776161Y02011140D02*
X04771161Y02016140D01*
Y02026140D02*
Y02016140D01*
Y02026140D02*
X04776161Y02031140D01*
X04806161D01*
X04811161Y02026140D02*
X04806161Y02031140D01*
X04811161Y02026140D02*
Y02016140D01*
X04806161Y02011140D02*
X04811161Y02016140D01*
X04791161Y02031140D02*
Y02016140D01*
X04485961Y01948690D02*
X04490961Y01953690D01*
X04485961Y01948690D02*
Y01933690D01*
X04490961Y01928690D02*
X04485961Y01933690D01*
X04490961Y01928690D02*
X04500961D01*
X04505961Y01933690D01*
Y01948690D02*
Y01933690D01*
Y01948690D02*
X04510961Y01953690D01*
X04520961D01*
X04525961Y01948690D02*
X04520961Y01953690D01*
X04525961Y01948690D02*
Y01933690D01*
X04520961Y01928690D02*
X04525961Y01933690D01*
X04520961Y01965700D02*
X04490961Y01995700D01*
X04485961Y02012710D02*
X04525961D01*
X04485961Y02027710D02*
X04490961Y02032710D01*
X04520961D01*
X04525961Y02027710D02*
X04520961Y02032710D01*
X04525961Y02027710D02*
Y02007710D01*
X04485961Y02027710D02*
Y02007710D01*
X04520961Y02044720D02*
X04525961Y02049720D01*
X04510961Y02044720D02*
X04520961D01*
X04510961D02*
X04505961Y02049720D01*
Y02059720D02*
Y02049720D01*
Y02059720D02*
X04510961Y02064720D01*
X04520961D01*
X04525961Y02059720D02*
X04520961Y02064720D01*
X04525961Y02059720D02*
Y02049720D01*
X04500961Y02044720D02*
X04505961Y02049720D01*
X04490961Y02044720D02*
X04500961D01*
X04490961D02*
X04485961Y02049720D01*
Y02059720D02*
Y02049720D01*
Y02059720D02*
X04490961Y02064720D01*
X04500961D01*
X04505961Y02059720D02*
X04500961Y02064720D01*
X04485971Y01779390D02*
X04490971Y01784390D01*
X04485971Y01779390D02*
Y01764390D01*
X04490971Y01759390D02*
X04485971Y01764390D01*
X04490971Y01759390D02*
X04500971D01*
X04505971Y01764390D01*
Y01779390D02*
Y01764390D01*
Y01779390D02*
X04510971Y01784390D01*
X04520971D01*
X04525971Y01779390D02*
X04520971Y01784390D01*
X04525971Y01779390D02*
Y01764390D01*
X04520971Y01759390D02*
X04525971Y01764390D01*
X04520971Y01796400D02*
X04490971Y01826400D01*
X04485971Y01843410D02*
X04525971D01*
X04485971Y01858410D02*
X04490971Y01863410D01*
X04520971D01*
X04525971Y01858410D02*
X04520971Y01863410D01*
X04525971Y01858410D02*
Y01838410D01*
X04485971Y01858410D02*
Y01838410D01*
X04525971Y01875420D02*
X04500971Y01900420D01*
X04485971D02*
X04500971D01*
X04485971D02*
Y01875420D01*
X04355091Y01721740D02*
X04359541Y01726190D01*
X04355091Y01721740D02*
Y01708390D01*
X04359541Y01703940D02*
X04355091Y01708390D01*
X04359541Y01703940D02*
X04368441D01*
X04372891Y01708390D01*
Y01721740D02*
Y01708390D01*
Y01721740D02*
X04377341Y01726190D01*
X04386241D01*
X04390691Y01721740D02*
X04386241Y01726190D01*
X04390691Y01721740D02*
Y01708390D01*
X04386241Y01703940D02*
X04390691Y01708390D01*
X04386241Y01736870D02*
X04359541Y01763570D01*
X04355091Y01792060D02*
X04359541Y01796510D01*
X04355091Y01792060D02*
Y01778710D01*
X04359541Y01774260D02*
X04355091Y01778710D01*
X04359541Y01774260D02*
X04368441D01*
X04372891Y01778710D01*
Y01792060D02*
Y01778710D01*
Y01792060D02*
X04377341Y01796510D01*
X04386241D01*
X04390691Y01792060D02*
X04386241Y01796510D01*
X04390691Y01792060D02*
Y01778710D01*
X04386241Y01774260D02*
X04390691Y01778710D01*
X04386241Y01807200D02*
X04359541Y01833900D01*
X04355091Y01857940D02*
Y01844590D01*
Y01857940D02*
X04386241D01*
X04390691Y01853490D02*
X04386241Y01857940D01*
X04390691Y01853490D02*
Y01849040D01*
X04386241Y01844590D02*
X04390691Y01849040D01*
X04359541Y01868630D02*
X04355091Y01873080D01*
Y01886430D02*
Y01873080D01*
Y01886430D02*
X04359541Y01890880D01*
X04368441D01*
X04390691Y01868630D02*
X04368441Y01890880D01*
X04390691D02*
Y01868630D01*
X04475011Y00056800D02*
Y00026800D01*
Y00056800D02*
X04480011Y00061800D01*
X04490011D01*
X04495011Y00056800D01*
Y00026800D01*
X04490011Y00021800D02*
X04495011Y00026800D01*
X04480011Y00021800D02*
X04490011D01*
X04475011Y00026800D02*
X04480011Y00021800D01*
X04485011Y00031800D02*
X04495011Y00021800D01*
X04507021Y00056800D02*
X04512021Y00061800D01*
X04527021D01*
X04532021Y00056800D01*
Y00046800D01*
X04507021Y00021800D02*
X04532021Y00046800D01*
X04507021Y00021800D02*
X04532021D01*
X04156401Y00263860D02*
Y00232660D01*
X04168101Y00263860D02*
X04172001Y00259960D01*
Y00236560D01*
X04168101Y00232660D02*
X04172001Y00236560D01*
X04152501Y00232660D02*
X04168101D01*
X04152501Y00263860D02*
X04168101D01*
X04185261Y00232660D02*
X04193061D01*
X04189161Y00263860D02*
Y00232660D01*
X04181361Y00256060D02*
X04189161Y00263860D01*
X05309971Y01145480D02*
X05329971D01*
X05334971Y01140480D01*
Y01130480D01*
X05329971Y01125480D02*
X05334971Y01130480D01*
X05314971Y01125480D02*
X05329971D01*
X05314971Y01145480D02*
Y01105480D01*
Y01125480D02*
X05334971Y01105480D01*
X05346981Y01110480D02*
X05351981Y01105480D01*
X05346981Y01120480D02*
Y01110480D01*
Y01120480D02*
X05351981Y01125480D01*
X05361981D01*
X05366981Y01120480D01*
Y01110480D01*
X05361981Y01105480D02*
X05366981Y01110480D01*
X05351981Y01105480D02*
X05361981D01*
X05346981Y01130480D02*
X05351981Y01125480D01*
X05346981Y01140480D02*
Y01130480D01*
Y01140480D02*
X05351981Y01145480D01*
X05361981D01*
X05366981Y01140480D01*
Y01130480D01*
X05361981Y01125480D02*
X05366981Y01130480D01*
X05347441Y01184120D02*
X05387441D01*
X05347441Y01199120D02*
X05352441Y01204120D01*
X05382441D01*
X05387441Y01199120D02*
X05382441Y01204120D01*
X05387441Y01199120D02*
Y01179120D01*
X05347441Y01199120D02*
Y01179120D01*
X05352441Y01216130D02*
X05347441Y01221130D01*
Y01236130D02*
Y01221130D01*
Y01236130D02*
X05352441Y01241130D01*
X05362441D01*
X05387441Y01216130D02*
X05362441Y01241130D01*
X05387441D02*
Y01216130D01*
X05347041Y00943960D02*
X05387041D01*
X05347041Y00958960D02*
X05352041Y00963960D01*
X05382041D01*
X05387041Y00958960D02*
X05382041Y00963960D01*
X05387041Y00958960D02*
Y00938960D01*
X05347041Y00958960D02*
Y00938960D01*
X05352041Y00975970D02*
X05347041Y00980970D01*
Y00990970D02*
Y00980970D01*
Y00990970D02*
X05352041Y00995970D01*
X05382041D01*
X05387041Y00990970D02*
X05382041Y00995970D01*
X05387041Y00990970D02*
Y00980970D01*
X05382041Y00975970D02*
X05387041Y00980970D01*
X05367041Y00995970D02*
Y00980970D01*
X05286341Y01446680D02*
X05306341D01*
X05311341Y01441680D01*
Y01431680D01*
X05306341Y01426680D02*
X05311341Y01431680D01*
X05291341Y01426680D02*
X05306341D01*
X05291341Y01446680D02*
Y01406680D01*
Y01426680D02*
X05311341Y01406680D01*
X05323351D02*
X05348351Y01431680D01*
Y01446680D02*
Y01431680D01*
X05323351Y01446680D02*
X05348351D01*
X05207491Y00358670D02*
X05222491D01*
X05202491Y00363670D02*
X05207491Y00358670D01*
X05202491Y00393670D02*
Y00363670D01*
Y00393670D02*
X05207491Y00398670D01*
X05222491D01*
X05239501Y00358670D02*
X05249501D01*
X05244501Y00398670D02*
Y00358670D01*
X05234501Y00388670D02*
X05244501Y00398670D01*
X05261511Y00363670D02*
X05266511Y00358670D01*
X05261511Y00393670D02*
Y00363670D01*
Y00393670D02*
X05266511Y00398670D01*
X05276511D01*
X05281511Y00393670D01*
Y00363670D01*
X05276511Y00358670D02*
X05281511Y00363670D01*
X05266511Y00358670D02*
X05276511D01*
X05261511Y00368670D02*
X05281511Y00388670D01*
X05333471Y00329120D02*
X05348471D01*
X05328471Y00334120D02*
X05333471Y00329120D01*
X05328471Y00364120D02*
Y00334120D01*
Y00364120D02*
X05333471Y00369120D01*
X05348471D01*
X05360481Y00329120D02*
X05380481Y00349120D01*
Y00364120D02*
Y00349120D01*
X05375481Y00369120D02*
X05380481Y00364120D01*
X05365481Y00369120D02*
X05375481D01*
X05360481Y00364120D02*
X05365481Y00369120D01*
X05360481Y00364120D02*
Y00354120D01*
X05365481Y00349120D01*
X05380481D01*
X05260741Y00795120D02*
X05280741D01*
X05285741Y00790120D01*
Y00780120D01*
X05280741Y00775120D02*
X05285741Y00780120D01*
X05265741Y00775120D02*
X05280741D01*
X05265741Y00795120D02*
Y00755120D01*
Y00775120D02*
X05285741Y00755120D01*
X05297751D02*
X05317751Y00775120D01*
Y00790120D02*
Y00775120D01*
X05312751Y00795120D02*
X05317751Y00790120D01*
X05302751Y00795120D02*
X05312751D01*
X05297751Y00790120D02*
X05302751Y00795120D01*
X05297751Y00790120D02*
Y00780120D01*
X05302751Y00775120D01*
X05317751D01*
X04814061Y01714590D02*
X04819061D01*
X04844061Y01739590D01*
X04854061D01*
X04844061Y01714590D02*
X04854061D01*
X04844061D02*
X04819061Y01739590D01*
X04814061D02*
X04819061D01*
X04854061Y01766600D02*
Y01756600D01*
X04814061Y01761600D02*
X04854061D01*
X04824061Y01751600D02*
X04814061Y01761600D01*
X04919661Y01816150D02*
X04934661D01*
X04914661Y01821150D02*
X04919661Y01816150D01*
X04914661Y01851150D02*
Y01821150D01*
Y01851150D02*
X04919661Y01856150D01*
X04934661D01*
X04951671Y01816150D02*
X04961671D01*
X04956671Y01856150D02*
Y01816150D01*
X04946671Y01846150D02*
X04956671Y01856150D01*
X04359341Y00960890D02*
X04363241Y00964790D01*
X04359341Y00960890D02*
Y00949190D01*
X04363241Y00945290D02*
X04359341Y00949190D01*
X04363241Y00945290D02*
X04371041D01*
X04374941Y00949190D01*
Y00960890D02*
Y00949190D01*
Y00960890D02*
X04378841Y00964790D01*
X04386641D01*
X04390541Y00960890D02*
X04386641Y00964790D01*
X04390541Y00960890D02*
Y00949190D01*
X04386641Y00945290D02*
X04390541Y00949190D01*
X04386641Y00974150D02*
X04363241Y00997550D01*
X04359341Y01018620D02*
Y01006920D01*
Y01018620D02*
X04386641D01*
X04390541Y01014720D02*
X04386641Y01018620D01*
X04390541Y01014720D02*
Y01010820D01*
X04386641Y01006920D02*
X04390541Y01010820D01*
X04363241Y01027990D02*
X04359341Y01031890D01*
Y01039690D02*
Y01031890D01*
Y01039690D02*
X04363241Y01043590D01*
X04386641D01*
X04390541Y01039690D02*
X04386641Y01043590D01*
X04390541Y01039690D02*
Y01031890D01*
X04386641Y01027990D02*
X04390541Y01031890D01*
X04374941Y01043590D02*
Y01031890D01*
X04404141Y00767430D02*
Y00737430D01*
Y00767430D02*
X04409141Y00772430D01*
X04419141D01*
X04424141Y00767430D01*
Y00737430D01*
X04419141Y00732430D02*
X04424141Y00737430D01*
X04409141Y00732430D02*
X04419141D01*
X04404141Y00737430D02*
X04409141Y00732430D01*
X04414141Y00742430D02*
X04424141Y00732430D01*
X04441151D02*
X04451151D01*
X04446151Y00772430D02*
Y00732430D01*
X04436151Y00762430D02*
X04446151Y00772430D01*
X04355101Y01091800D02*
X04359551Y01096250D01*
X04355101Y01091800D02*
Y01078450D01*
X04359551Y01074000D02*
X04355101Y01078450D01*
X04359551Y01074000D02*
X04368451D01*
X04372901Y01078450D01*
Y01091800D02*
Y01078450D01*
Y01091800D02*
X04377351Y01096250D01*
X04386251D01*
X04390701Y01091800D02*
X04386251Y01096250D01*
X04390701Y01091800D02*
Y01078450D01*
X04386251Y01074000D02*
X04390701Y01078450D01*
X04386251Y01106930D02*
X04359551Y01133630D01*
X04355101Y01162120D02*
X04359551Y01166570D01*
X04355101Y01162120D02*
Y01148770D01*
X04359551Y01144320D02*
X04355101Y01148770D01*
X04359551Y01144320D02*
X04368451D01*
X04372901Y01148770D01*
Y01162120D02*
Y01148770D01*
Y01162120D02*
X04377351Y01166570D01*
X04386251D01*
X04390701Y01162120D02*
X04386251Y01166570D01*
X04390701Y01162120D02*
Y01148770D01*
X04386251Y01144320D02*
X04390701Y01148770D01*
X04386251Y01177260D02*
X04359551Y01203960D01*
X04355101Y01228000D02*
Y01214650D01*
Y01228000D02*
X04386251D01*
X04390701Y01223550D02*
X04386251Y01228000D01*
X04390701Y01223550D02*
Y01219100D01*
X04386251Y01214650D02*
X04390701Y01219100D01*
Y01252040D02*
Y01243140D01*
X04355101Y01247590D02*
X04390701D01*
X04364001Y01238690D02*
X04355101Y01247590D01*
X04420271Y01201110D02*
X04424721Y01205560D01*
X04420271Y01201110D02*
Y01187760D01*
X04424721Y01183310D02*
X04420271Y01187760D01*
X04424721Y01183310D02*
X04433621D01*
X04438071Y01187760D01*
Y01201110D02*
Y01187760D01*
Y01201110D02*
X04442521Y01205560D01*
X04451421D01*
X04455871Y01201110D02*
X04451421Y01205560D01*
X04455871Y01201110D02*
Y01187760D01*
X04451421Y01183310D02*
X04455871Y01187760D01*
X04451421Y01216240D02*
X04424721Y01242940D01*
X04420271Y01258080D02*
X04455871D01*
X04420271Y01271430D02*
X04424721Y01275880D01*
X04451421D01*
X04455871Y01271430D02*
X04451421Y01275880D01*
X04455871Y01271430D02*
Y01253630D01*
X04420271Y01271430D02*
Y01253630D01*
X04455871Y01286570D02*
X04438071Y01304370D01*
X04424721D02*
X04438071D01*
X04420271Y01299920D02*
X04424721Y01304370D01*
X04420271Y01299920D02*
Y01291020D01*
X04424721Y01286570D02*
X04420271Y01291020D01*
X04424721Y01286570D02*
X04433621D01*
X04438071Y01291020D01*
Y01304370D02*
Y01291020D01*
X04496591Y00686060D02*
Y00646060D01*
X04516591D01*
X04533601D02*
X04543601D01*
X04538601Y00686060D02*
Y00646060D01*
X04528601Y00676060D02*
X04538601Y00686060D01*
X04058001Y00736050D02*
X04073001D01*
Y00701050D01*
X04068001Y00696050D02*
X04073001Y00701050D01*
X04063001Y00696050D02*
X04068001D01*
X04058001Y00701050D02*
X04063001Y00696050D01*
X04090011D02*
X04100011D01*
X04095011Y00736050D02*
Y00696050D01*
X04085011Y00726050D02*
X04095011Y00736050D01*
X04365491Y02307520D02*
Y02292520D01*
Y02307520D02*
X04400491D01*
X04405491Y02302520D02*
X04400491Y02307520D01*
X04405491Y02302520D02*
Y02297520D01*
X04400491Y02292520D02*
X04405491Y02297520D01*
X04365491Y02334530D02*
X04370491Y02339530D01*
X04365491Y02334530D02*
Y02324530D01*
X04370491Y02319530D02*
X04365491Y02324530D01*
X04370491Y02319530D02*
X04400491D01*
X04405491Y02324530D01*
X04385491Y02334530D02*
X04390491Y02339530D01*
X04385491Y02334530D02*
Y02319530D01*
X04405491Y02334530D02*
Y02324530D01*
Y02334530D02*
X04400491Y02339530D01*
X04390491D02*
X04400491D01*
X04396731Y02224710D02*
Y02204710D01*
Y02224710D02*
X04401731Y02229710D01*
X04411731D01*
X04416731Y02224710D02*
X04411731Y02229710D01*
X04416731Y02224710D02*
Y02209710D01*
X04396731D02*
X04436731D01*
X04416731D02*
X04436731Y02229710D01*
X04396731Y02256720D02*
X04401731Y02261720D01*
X04396731Y02256720D02*
Y02246720D01*
X04401731Y02241720D02*
X04396731Y02246720D01*
X04401731Y02241720D02*
X04431731D01*
X04436731Y02246720D01*
X04416731Y02256720D02*
X04421731Y02261720D01*
X04416731Y02256720D02*
Y02241720D01*
X04436731Y02256720D02*
Y02246720D01*
Y02256720D02*
X04431731Y02261720D01*
X04421731D02*
X04431731D01*
%LPC*%
G75*
X04431731Y02261720D02*
G54D14*
X04922141Y01715100D03*
X04922171Y01765150D03*
X03928081Y01250000D03*
X03819811Y01043310D03*
X03928081Y01297240D03*
X03987131Y01322840D03*
X04016661Y01141730D03*
X04032411Y00751960D03*
X04016661Y01074800D03*
X04355241Y01035430D03*
X04217451Y01137800D03*
X04117051Y01149610D03*
X04282411Y00541330D03*
X04390681Y00246060D03*
X04119021Y00413380D03*
X04506821Y01141730D03*
X04709571Y00811020D03*
X04567841Y00501960D03*
X04524531Y00909440D03*
X04237131Y01476380D03*
Y01523620D03*
Y01570870D03*
Y01618110D03*
X04579651Y01269690D03*
X05284381Y01153540D03*
X04577681Y01157480D03*
X04532771Y01182190D03*
X04471381Y01263780D03*
X04416271Y01446850D03*
Y01500000D03*
Y01553150D03*
Y01606300D03*
X04451701Y01580710D03*
X04914301Y01570860D03*
X04870991Y00311020D03*
X05256821Y01425190D03*
X05343431Y00870070D03*
X05168241Y00466520D03*
Y00407470D03*
X05402491Y00366140D03*
X05168241Y00269680D03*
Y00328740D03*
X05335561Y00055110D03*
X05390681Y00102360D03*
Y00614170D03*
X04059971Y01704720D03*
X04189891Y01476380D03*
Y01523620D03*
Y01570870D03*
X03937921Y02011810D03*
X03882801Y02047240D03*
X04008791Y01858270D03*
X03961541Y01870080D03*
X04008791Y01905510D03*
X03918241Y01933070D03*
X03961541Y01917320D03*
X03914301Y01787400D03*
X03902491Y01519690D03*
X03961541Y01525590D03*
X04000911Y01771650D03*
X03843431Y01732280D03*
X03815871Y01777560D03*
X04069811Y02116140D03*
X04079651Y02055120D03*
X04556031Y01988190D03*
X04544221Y01897640D03*
X04650521Y01834650D03*
X04556031D03*
X04650521Y01988190D03*
X04396581Y02135830D03*
X04117051Y02110240D03*
X04709571Y01645660D03*
X04416271Y01659450D03*
X04451701Y01633860D03*
X04333591Y02198820D03*
X04365091Y02167320D03*
X04339501Y02291330D03*
X04713511Y02161410D03*
X04804061Y02326770D03*
X05308001Y02307080D03*
X05264691D03*
X04745011Y02129920D03*
X04776501Y02098420D03*
X04855241Y02133850D03*
X04811941Y02125980D03*
X04993041Y01720470D03*
X05304061Y01822830D03*
Y01881890D03*
X04878871Y01822830D03*
X05296191Y01720470D03*
X04733201Y01988180D03*
X04741071Y02066920D03*
G54D15*
X04566241Y01786110D03*
X04644241Y02036720D03*
X04566241D03*
X04644241Y01786110D03*
G54D16*
X04931301Y01889760D03*
G54D15*
X04493771Y01318900D03*
X04571771D03*
G54D16*
X05257181Y01377950D03*
G54D17*
X04339501Y00383850D03*
G54D18*
X04871401Y02248820D03*
X04845811D03*
G54D19*
X03839501Y02320500D03*
Y02262160D03*
G54D15*
X04532771Y01236900D03*
X04605241Y01868110D03*
Y01954720D03*
G54D20*
X04610766Y00365345D03*
G54D21*
X04199591Y00695070D03*
X04404591D03*
X04199591Y00645070D03*
Y00595070D03*
Y00545070D03*
X04404591D03*
Y00595070D03*
Y00645070D03*
G54D22*
X04193831Y00424790D03*
G54D21*
X04404591Y00043110D03*
X04199591D03*
X04404591Y00093110D03*
Y00143110D03*
Y00193110D03*
X04199591D03*
Y00143110D03*
Y00093110D03*
G54D22*
X04193831Y00342910D03*
G54D16*
X04872961Y01889760D03*
X05315521Y01377950D03*
G54D18*
X04845811Y01953540D03*
X04871401D03*
X04896991D03*
X04922581D03*
X04948171D03*
X05076121D03*
X05101711D03*
X05127301D03*
X05152891D03*
X05178481D03*
X05204071D03*
X05229661D03*
X05255251D03*
X05280841D03*
X05306431D03*
Y02248820D03*
X05280841D03*
X05255251D03*
X05229661D03*
X05204071D03*
X05178481D03*
X05152891D03*
X05127301D03*
X05101711D03*
X05076121D03*
X05050531D03*
X05024941D03*
X04999351D03*
X04973761D03*
X04948171D03*
X04922581D03*
X04896991D03*
X04973761Y01953540D03*
X04999351D03*
X05024941D03*
X05050531D03*
G54D23*
X05286351Y00981870D03*
Y00907870D03*
Y01289360D03*
Y01215360D03*
G54D16*
X05315521Y01072830D03*
X05257181D03*
Y00826770D03*
X05315521D03*
G54D20*
X05004466Y00365345D03*
G54D24*
X04302091Y00226370D03*
Y00068890D03*
X05169811Y00738180D03*
%LPD*%
G75*
X05169811Y00738180D02*
G54D11*
X04650592Y00044551D02*
X04659065D01*
Y00027609D01*
X04650592Y00019140D01*
X04633655D01*
X04625185Y00027609D01*
Y00078428D01*
X04633655Y00086900D01*
X04650592D01*
X04659065Y00078428D01*
X04676004Y00027609D02*
Y00078428D01*
X04684472Y00086900D01*
X04701415D01*
X04709884Y00078428D01*
Y00027609D01*
X04701415Y00019140D01*
X04684472D01*
X04676004Y00027609D01*
X04760703D02*
X04752234Y00019140D01*
X04735295D01*
X04726822Y00027609D01*
Y00078428D01*
X04735295Y00086900D01*
X04752234D01*
X04760703Y00078428D01*
G54D25*
X05021631Y00030053D02*
Y00042324D01*
Y00030053D02*
Y00042324D01*
Y00062053D02*
Y00074324D01*
X05077415Y00030053D02*
Y00042324D01*
Y00030053D02*
Y00042324D01*
Y00062053D02*
Y00074324D01*
X04905411Y00030053D02*
Y00042324D01*
Y00030053D02*
Y00042324D01*
Y00062053D02*
Y00074324D01*
X04961195Y00030053D02*
Y00042324D01*
Y00030053D02*
Y00042324D01*
Y00062053D02*
Y00074324D01*
G54D10*
X04355241Y03499800D02*
X04315871Y03460431D01*
X04355241Y03535231D02*
Y03499800D01*
X04378871Y04830500D02*
X03894611D01*
X03874931Y04850181D01*
G54D11*
X05331351Y03908581D02*
X05321351Y03933581D01*
X05331351Y03908581D02*
Y03777581D01*
X05241351D02*
X05331351D01*
X05241351Y03908581D02*
Y03777581D01*
X05251351Y03933581D02*
X05241351Y03908581D01*
G54D12*
X05251351Y03933581D02*
X05321351D01*
G54D11*
X05331351Y03601090D02*
X05321351Y03626090D01*
X05331351Y03601090D02*
Y03470090D01*
X05241351D02*
X05331351D01*
X05241351Y03601090D02*
Y03470090D01*
X05251351Y03626090D02*
X05241351Y03601090D01*
G54D12*
X05251351Y03626090D02*
X05321351D01*
G54D10*
X05278481Y03409910D02*
X05294221D01*
X05278481Y03440070D02*
X05294221D01*
G54D13*
X04496591Y03223410D02*
Y02703731D01*
X05118631Y03223410D02*
X04496591D01*
X05118631Y02703731D02*
Y03223410D01*
X04496591Y02703731D02*
X05118631D01*
G54D11*
X05377131Y03279400D02*
X05417131D01*
X05177131Y03299400D02*
Y03259400D01*
X05157131Y03279400D02*
X05197131D01*
X05152131Y03149400D02*
G03X05152131Y03149400I00135000J00000000D01*
X05377131Y02915220D02*
G01X05417131D01*
X05177131Y02935220D02*
Y02895220D01*
X05157131Y02915220D02*
X05197131D01*
X05152131Y02785220D02*
G03X05152131Y02785220I00135000J00000000D01*
X03804471Y03359240D02*
G01X04304471D01*
Y03459240D02*
Y03359240D01*
X03804471Y03459240D02*
X04304471D01*
X03804471D02*
Y03359240D01*
X03904471Y03459240D02*
Y03359240D01*
X03804471Y03459240D02*
X03904471D01*
X04457091Y03313290D02*
X04327091D01*
X04147091D02*
X04277091D01*
X04457091Y03123290D02*
Y03313290D01*
X04147091Y03123290D02*
X04457091D01*
X04147091Y03313290D02*
Y03123290D01*
X04277091Y03313290D02*
G03X04327091Y03313290I00025000J00000000D01*
X04147091Y02621331D02*
G01X04277091D01*
X04327091D02*
X04457091D01*
X04147091Y02811331D02*
Y02621331D01*
Y02811331D02*
X04457091D01*
Y02621331D01*
X04327091D02*
G03X04277091Y02621331I-00025000J00000000D01*
G54D13*
X04154461Y03088370D02*
G01X04445801D01*
Y02875770D01*
X04154461D02*
X04445801D01*
X04154461Y03088370D02*
Y02875770D01*
G54D11*
X04105241Y03277350D02*
Y02686790D01*
X03790281Y03277350D02*
X04105241D01*
X03790281Y02686790D02*
X04105241D01*
X04541241Y04524940D02*
X04669241D01*
X04541241Y04663940D02*
Y04524940D01*
Y04663940D02*
X04669241D01*
Y04524940D01*
Y04494331D02*
X04541241D01*
X04669241Y04355331D02*
Y04494331D01*
X04541241Y04355331D02*
X04669241D01*
X04541241Y04494331D02*
Y04355331D01*
X03903671Y04939550D02*
X04003671D01*
Y04839550D01*
X03903671Y04939550D02*
Y04839550D01*
Y04939550D02*
X04303671D01*
Y04839550D01*
X03903671D02*
X04303671D01*
G54D10*
X03824421Y04881681D02*
Y04897420D01*
X03854581Y04881681D02*
Y04897420D01*
G54D11*
X03790171Y04179200D02*
X04337921D01*
Y04819200D01*
X03790171D02*
X04337921D01*
X03790171Y03490231D02*
X04337921D01*
Y04130231D01*
X03790171D02*
X04337921D01*
G54D10*
X05278481Y03686131D02*
X05294221D01*
X05278481Y03655970D02*
X05294221D01*
G54D11*
X04468771Y03807120D02*
X04596771D01*
X04468771Y03946120D02*
Y03807120D01*
Y03946120D02*
X04596771D01*
Y03807120D01*
G54D10*
X05278481Y03991250D02*
X05294221D01*
X05278481Y03961090D02*
X05294221D01*
G54D11*
X04828091Y04821450D02*
X05324151D01*
Y04577350D01*
X04828091D02*
X05324151D01*
X04828091Y04821450D02*
Y04577350D01*
X04852891Y04583460D02*
G03X04852891Y04583460I00000000J00006100D01*
X04922171Y04288370D02*
G03X04922171Y04288370I00000000J00050000D01*
G54D10*
X04894261Y04503060D02*
G01X04910001D01*
X04894261Y04472900D02*
X04910001D01*
X04771161Y04577350D02*
X04806161D01*
X04811161Y04582350D01*
Y04592350D02*
Y04582350D01*
Y04592350D02*
X04806161Y04597350D01*
X04771161D02*
X04806161D01*
X04776161Y04609360D02*
X04771161Y04614360D01*
Y04624360D02*
Y04614360D01*
Y04624360D02*
X04776161Y04629360D01*
X04806161D01*
X04811161Y04624360D02*
X04806161Y04629360D01*
X04811161Y04624360D02*
Y04614360D01*
X04806161Y04609360D02*
X04811161Y04614360D01*
X04791161Y04629360D02*
Y04614360D01*
X04485961Y04546910D02*
X04490961Y04551910D01*
X04485961Y04546910D02*
Y04531910D01*
X04490961Y04526910D02*
X04485961Y04531910D01*
X04490961Y04526910D02*
X04500961D01*
X04505961Y04531910D01*
Y04546910D02*
Y04531910D01*
Y04546910D02*
X04510961Y04551910D01*
X04520961D01*
X04525961Y04546910D02*
X04520961Y04551910D01*
X04525961Y04546910D02*
Y04531910D01*
X04520961Y04526910D02*
X04525961Y04531910D01*
X04520961Y04563920D02*
X04490961Y04593920D01*
X04485961Y04610931D02*
X04525961D01*
X04485961Y04625931D02*
X04490961Y04630931D01*
X04520961D01*
X04525961Y04625931D02*
X04520961Y04630931D01*
X04525961Y04625931D02*
Y04605931D01*
X04485961Y04625931D02*
Y04605931D01*
X04520961Y04642940D02*
X04525961Y04647940D01*
X04510961Y04642940D02*
X04520961D01*
X04510961D02*
X04505961Y04647940D01*
Y04657940D02*
Y04647940D01*
Y04657940D02*
X04510961Y04662940D01*
X04520961D01*
X04525961Y04657940D02*
X04520961Y04662940D01*
X04525961Y04657940D02*
Y04647940D01*
X04500961Y04642940D02*
X04505961Y04647940D01*
X04490961Y04642940D02*
X04500961D01*
X04490961D02*
X04485961Y04647940D01*
Y04657940D02*
Y04647940D01*
Y04657940D02*
X04490961Y04662940D01*
X04500961D01*
X04505961Y04657940D02*
X04500961Y04662940D01*
X04485971Y04377610D02*
X04490971Y04382610D01*
X04485971Y04377610D02*
Y04362610D01*
X04490971Y04357610D02*
X04485971Y04362610D01*
X04490971Y04357610D02*
X04500971D01*
X04505971Y04362610D01*
Y04377610D02*
Y04362610D01*
Y04377610D02*
X04510971Y04382610D01*
X04520971D01*
X04525971Y04377610D02*
X04520971Y04382610D01*
X04525971Y04377610D02*
Y04362610D01*
X04520971Y04357610D02*
X04525971Y04362610D01*
X04520971Y04394620D02*
X04490971Y04424620D01*
X04485971Y04441631D02*
X04525971D01*
X04485971Y04456631D02*
X04490971Y04461631D01*
X04520971D01*
X04525971Y04456631D02*
X04520971Y04461631D01*
X04525971Y04456631D02*
Y04436631D01*
X04485971Y04456631D02*
Y04436631D01*
X04525971Y04473640D02*
X04500971Y04498640D01*
X04485971D02*
X04500971D01*
X04485971D02*
Y04473640D01*
X04355091Y04319960D02*
X04359541Y04324410D01*
X04355091Y04319960D02*
Y04306610D01*
X04359541Y04302160D02*
X04355091Y04306610D01*
X04359541Y04302160D02*
X04368441D01*
X04372891Y04306610D01*
Y04319960D02*
Y04306610D01*
Y04319960D02*
X04377341Y04324410D01*
X04386241D01*
X04390691Y04319960D02*
X04386241Y04324410D01*
X04390691Y04319960D02*
Y04306610D01*
X04386241Y04302160D02*
X04390691Y04306610D01*
X04386241Y04335090D02*
X04359541Y04361790D01*
X04355091Y04390281D02*
X04359541Y04394731D01*
X04355091Y04390281D02*
Y04376931D01*
X04359541Y04372481D02*
X04355091Y04376931D01*
X04359541Y04372481D02*
X04368441D01*
X04372891Y04376931D01*
Y04390281D02*
Y04376931D01*
Y04390281D02*
X04377341Y04394731D01*
X04386241D01*
X04390691Y04390281D02*
X04386241Y04394731D01*
X04390691Y04390281D02*
Y04376931D01*
X04386241Y04372481D02*
X04390691Y04376931D01*
X04386241Y04405420D02*
X04359541Y04432120D01*
X04355091Y04456160D02*
Y04442810D01*
Y04456160D02*
X04386241D01*
X04390691Y04451710D02*
X04386241Y04456160D01*
X04390691Y04451710D02*
Y04447260D01*
X04386241Y04442810D02*
X04390691Y04447260D01*
X04359541Y04466850D02*
X04355091Y04471300D01*
Y04484650D02*
Y04471300D01*
Y04484650D02*
X04359541Y04489100D01*
X04368441D01*
X04390691Y04466850D02*
X04368441Y04489100D01*
X04390691D02*
Y04466850D01*
X04475011Y02655020D02*
Y02625020D01*
Y02655020D02*
X04480011Y02660020D01*
X04490011D01*
X04495011Y02655020D01*
Y02625020D01*
X04490011Y02620020D02*
X04495011Y02625020D01*
X04480011Y02620020D02*
X04490011D01*
X04475011Y02625020D02*
X04480011Y02620020D01*
X04485011Y02630020D02*
X04495011Y02620020D01*
X04507021Y02655020D02*
X04512021Y02660020D01*
X04527021D01*
X04532021Y02655020D01*
Y02645020D01*
X04507021Y02620020D02*
X04532021Y02645020D01*
X04507021Y02620020D02*
X04532021D01*
X04156401Y02862081D02*
Y02830881D01*
X04168101Y02862081D02*
X04172001Y02858181D01*
Y02834781D01*
X04168101Y02830881D02*
X04172001Y02834781D01*
X04152501Y02830881D02*
X04168101D01*
X04152501Y02862081D02*
X04168101D01*
X04185261Y02830881D02*
X04193061D01*
X04189161Y02862081D02*
Y02830881D01*
X04181361Y02854281D02*
X04189161Y02862081D01*
X05309971Y03743700D02*
X05329971D01*
X05334971Y03738700D01*
Y03728700D01*
X05329971Y03723700D02*
X05334971Y03728700D01*
X05314971Y03723700D02*
X05329971D01*
X05314971Y03743700D02*
Y03703700D01*
Y03723700D02*
X05334971Y03703700D01*
X05346981Y03708700D02*
X05351981Y03703700D01*
X05346981Y03718700D02*
Y03708700D01*
Y03718700D02*
X05351981Y03723700D01*
X05361981D01*
X05366981Y03718700D01*
Y03708700D01*
X05361981Y03703700D02*
X05366981Y03708700D01*
X05351981Y03703700D02*
X05361981D01*
X05346981Y03728700D02*
X05351981Y03723700D01*
X05346981Y03738700D02*
Y03728700D01*
Y03738700D02*
X05351981Y03743700D01*
X05361981D01*
X05366981Y03738700D01*
Y03728700D01*
X05361981Y03723700D02*
X05366981Y03728700D01*
X05347441Y03782340D02*
X05387441D01*
X05347441Y03797340D02*
X05352441Y03802340D01*
X05382441D01*
X05387441Y03797340D02*
X05382441Y03802340D01*
X05387441Y03797340D02*
Y03777340D01*
X05347441Y03797340D02*
Y03777340D01*
X05352441Y03814350D02*
X05347441Y03819350D01*
Y03834350D02*
Y03819350D01*
Y03834350D02*
X05352441Y03839350D01*
X05362441D01*
X05387441Y03814350D02*
X05362441Y03839350D01*
X05387441D02*
Y03814350D01*
X05347041Y03542181D02*
X05387041D01*
X05347041Y03557181D02*
X05352041Y03562181D01*
X05382041D01*
X05387041Y03557181D02*
X05382041Y03562181D01*
X05387041Y03557181D02*
Y03537181D01*
X05347041Y03557181D02*
Y03537181D01*
X05352041Y03574190D02*
X05347041Y03579190D01*
Y03589190D02*
Y03579190D01*
Y03589190D02*
X05352041Y03594190D01*
X05382041D01*
X05387041Y03589190D02*
X05382041Y03594190D01*
X05387041Y03589190D02*
Y03579190D01*
X05382041Y03574190D02*
X05387041Y03579190D01*
X05367041Y03594190D02*
Y03579190D01*
X05286341Y04044900D02*
X05306341D01*
X05311341Y04039900D01*
Y04029900D01*
X05306341Y04024900D02*
X05311341Y04029900D01*
X05291341Y04024900D02*
X05306341D01*
X05291341Y04044900D02*
Y04004900D01*
Y04024900D02*
X05311341Y04004900D01*
X05323351D02*
X05348351Y04029900D01*
Y04044900D02*
Y04029900D01*
X05323351Y04044900D02*
X05348351D01*
X05207491Y02956890D02*
X05222491D01*
X05202491Y02961890D02*
X05207491Y02956890D01*
X05202491Y02991890D02*
Y02961890D01*
Y02991890D02*
X05207491Y02996890D01*
X05222491D01*
X05239501Y02956890D02*
X05249501D01*
X05244501Y02996890D02*
Y02956890D01*
X05234501Y02986890D02*
X05244501Y02996890D01*
X05261511Y02961890D02*
X05266511Y02956890D01*
X05261511Y02991890D02*
Y02961890D01*
Y02991890D02*
X05266511Y02996890D01*
X05276511D01*
X05281511Y02991890D01*
Y02961890D01*
X05276511Y02956890D02*
X05281511Y02961890D01*
X05266511Y02956890D02*
X05276511D01*
X05261511Y02966890D02*
X05281511Y02986890D01*
X05333471Y02927340D02*
X05348471D01*
X05328471Y02932340D02*
X05333471Y02927340D01*
X05328471Y02962340D02*
Y02932340D01*
Y02962340D02*
X05333471Y02967340D01*
X05348471D01*
X05360481Y02927340D02*
X05380481Y02947340D01*
Y02962340D02*
Y02947340D01*
X05375481Y02967340D02*
X05380481Y02962340D01*
X05365481Y02967340D02*
X05375481D01*
X05360481Y02962340D02*
X05365481Y02967340D01*
X05360481Y02962340D02*
Y02952340D01*
X05365481Y02947340D01*
X05380481D01*
X05260741Y03393340D02*
X05280741D01*
X05285741Y03388340D01*
Y03378340D01*
X05280741Y03373340D02*
X05285741Y03378340D01*
X05265741Y03373340D02*
X05280741D01*
X05265741Y03393340D02*
Y03353340D01*
Y03373340D02*
X05285741Y03353340D01*
X05297751D02*
X05317751Y03373340D01*
Y03388340D02*
Y03373340D01*
X05312751Y03393340D02*
X05317751Y03388340D01*
X05302751Y03393340D02*
X05312751D01*
X05297751Y03388340D02*
X05302751Y03393340D01*
X05297751Y03388340D02*
Y03378340D01*
X05302751Y03373340D01*
X05317751D01*
X04814061Y04312810D02*
X04819061D01*
X04844061Y04337810D01*
X04854061D01*
X04844061Y04312810D02*
X04854061D01*
X04844061D02*
X04819061Y04337810D01*
X04814061D02*
X04819061D01*
X04854061Y04364820D02*
Y04354820D01*
X04814061Y04359820D02*
X04854061D01*
X04824061Y04349820D02*
X04814061Y04359820D01*
X04919661Y04414370D02*
X04934661D01*
X04914661Y04419370D02*
X04919661Y04414370D01*
X04914661Y04449370D02*
Y04419370D01*
Y04449370D02*
X04919661Y04454370D01*
X04934661D01*
X04951671Y04414370D02*
X04961671D01*
X04956671Y04454370D02*
Y04414370D01*
X04946671Y04444370D02*
X04956671Y04454370D01*
X04359341Y03559110D02*
X04363241Y03563010D01*
X04359341Y03559110D02*
Y03547410D01*
X04363241Y03543510D02*
X04359341Y03547410D01*
X04363241Y03543510D02*
X04371041D01*
X04374941Y03547410D01*
Y03559110D02*
Y03547410D01*
Y03559110D02*
X04378841Y03563010D01*
X04386641D01*
X04390541Y03559110D02*
X04386641Y03563010D01*
X04390541Y03559110D02*
Y03547410D01*
X04386641Y03543510D02*
X04390541Y03547410D01*
X04386641Y03572370D02*
X04363241Y03595770D01*
X04359341Y03616840D02*
Y03605140D01*
Y03616840D02*
X04386641D01*
X04390541Y03612940D02*
X04386641Y03616840D01*
X04390541Y03612940D02*
Y03609040D01*
X04386641Y03605140D02*
X04390541Y03609040D01*
X04363241Y03626210D02*
X04359341Y03630110D01*
Y03637910D02*
Y03630110D01*
Y03637910D02*
X04363241Y03641810D01*
X04386641D01*
X04390541Y03637910D02*
X04386641Y03641810D01*
X04390541Y03637910D02*
Y03630110D01*
X04386641Y03626210D02*
X04390541Y03630110D01*
X04374941Y03641810D02*
Y03630110D01*
X04404141Y03365650D02*
Y03335650D01*
Y03365650D02*
X04409141Y03370650D01*
X04419141D01*
X04424141Y03365650D01*
Y03335650D01*
X04419141Y03330650D02*
X04424141Y03335650D01*
X04409141Y03330650D02*
X04419141D01*
X04404141Y03335650D02*
X04409141Y03330650D01*
X04414141Y03340650D02*
X04424141Y03330650D01*
X04441151D02*
X04451151D01*
X04446151Y03370650D02*
Y03330650D01*
X04436151Y03360650D02*
X04446151Y03370650D01*
X04355101Y03690020D02*
X04359551Y03694470D01*
X04355101Y03690020D02*
Y03676670D01*
X04359551Y03672220D02*
X04355101Y03676670D01*
X04359551Y03672220D02*
X04368451D01*
X04372901Y03676670D01*
Y03690020D02*
Y03676670D01*
Y03690020D02*
X04377351Y03694470D01*
X04386251D01*
X04390701Y03690020D02*
X04386251Y03694470D01*
X04390701Y03690020D02*
Y03676670D01*
X04386251Y03672220D02*
X04390701Y03676670D01*
X04386251Y03705150D02*
X04359551Y03731850D01*
X04355101Y03760340D02*
X04359551Y03764790D01*
X04355101Y03760340D02*
Y03746990D01*
X04359551Y03742540D02*
X04355101Y03746990D01*
X04359551Y03742540D02*
X04368451D01*
X04372901Y03746990D01*
Y03760340D02*
Y03746990D01*
Y03760340D02*
X04377351Y03764790D01*
X04386251D01*
X04390701Y03760340D02*
X04386251Y03764790D01*
X04390701Y03760340D02*
Y03746990D01*
X04386251Y03742540D02*
X04390701Y03746990D01*
X04386251Y03775481D02*
X04359551Y03802181D01*
X04355101Y03826220D02*
Y03812870D01*
Y03826220D02*
X04386251D01*
X04390701Y03821770D02*
X04386251Y03826220D01*
X04390701Y03821770D02*
Y03817320D01*
X04386251Y03812870D02*
X04390701Y03817320D01*
Y03850260D02*
Y03841360D01*
X04355101Y03845810D02*
X04390701D01*
X04364001Y03836910D02*
X04355101Y03845810D01*
X04420271Y03799331D02*
X04424721Y03803781D01*
X04420271Y03799331D02*
Y03785981D01*
X04424721Y03781531D02*
X04420271Y03785981D01*
X04424721Y03781531D02*
X04433621D01*
X04438071Y03785981D01*
Y03799331D02*
Y03785981D01*
Y03799331D02*
X04442521Y03803781D01*
X04451421D01*
X04455871Y03799331D02*
X04451421Y03803781D01*
X04455871Y03799331D02*
Y03785981D01*
X04451421Y03781531D02*
X04455871Y03785981D01*
X04451421Y03814460D02*
X04424721Y03841160D01*
X04420271Y03856300D02*
X04455871D01*
X04420271Y03869650D02*
X04424721Y03874100D01*
X04451421D01*
X04455871Y03869650D02*
X04451421Y03874100D01*
X04455871Y03869650D02*
Y03851850D01*
X04420271Y03869650D02*
Y03851850D01*
X04455871Y03884790D02*
X04438071Y03902590D01*
X04424721D02*
X04438071D01*
X04420271Y03898140D02*
X04424721Y03902590D01*
X04420271Y03898140D02*
Y03889240D01*
X04424721Y03884790D02*
X04420271Y03889240D01*
X04424721Y03884790D02*
X04433621D01*
X04438071Y03889240D01*
Y03902590D02*
Y03889240D01*
X04496591Y03284281D02*
Y03244281D01*
X04516591D01*
X04533601D02*
X04543601D01*
X04538601Y03284281D02*
Y03244281D01*
X04528601Y03274281D02*
X04538601Y03284281D01*
X04058001Y03334270D02*
X04073001D01*
Y03299270D01*
X04068001Y03294270D02*
X04073001Y03299270D01*
X04063001Y03294270D02*
X04068001D01*
X04058001Y03299270D02*
X04063001Y03294270D01*
X04090011D02*
X04100011D01*
X04095011Y03334270D02*
Y03294270D01*
X04085011Y03324270D02*
X04095011Y03334270D01*
X04365491Y04905740D02*
Y04890740D01*
Y04905740D02*
X04400491D01*
X04405491Y04900740D02*
X04400491Y04905740D01*
X04405491Y04900740D02*
Y04895740D01*
X04400491Y04890740D02*
X04405491Y04895740D01*
X04365491Y04932750D02*
X04370491Y04937750D01*
X04365491Y04932750D02*
Y04922750D01*
X04370491Y04917750D02*
X04365491Y04922750D01*
X04370491Y04917750D02*
X04400491D01*
X04405491Y04922750D01*
X04385491Y04932750D02*
X04390491Y04937750D01*
X04385491Y04932750D02*
Y04917750D01*
X04405491Y04932750D02*
Y04922750D01*
Y04932750D02*
X04400491Y04937750D01*
X04390491D02*
X04400491D01*
X04396731Y04822931D02*
Y04802931D01*
Y04822931D02*
X04401731Y04827931D01*
X04411731D01*
X04416731Y04822931D02*
X04411731Y04827931D01*
X04416731Y04822931D02*
Y04807931D01*
X04396731D02*
X04436731D01*
X04416731D02*
X04436731Y04827931D01*
X04396731Y04854940D02*
X04401731Y04859940D01*
X04396731Y04854940D02*
Y04844940D01*
X04401731Y04839940D02*
X04396731Y04844940D01*
X04401731Y04839940D02*
X04431731D01*
X04436731Y04844940D01*
X04416731Y04854940D02*
X04421731Y04859940D01*
X04416731Y04854940D02*
Y04839940D01*
X04436731Y04854940D02*
Y04844940D01*
Y04854940D02*
X04431731Y04859940D01*
X04421731D02*
X04431731D01*
%LPC*%
G75*
X04431731Y04859940D02*
G54D14*
X04922141Y04313320D03*
X04922171Y04363370D03*
X03928081Y03848220D03*
X03819811Y03641531D03*
X03928081Y03895460D03*
X03987131Y03921060D03*
X04016661Y03739950D03*
X04032411Y03350181D03*
X04016661Y03673020D03*
X04355241Y03633650D03*
X04217451Y03736020D03*
X04117051Y03747831D03*
X04282411Y03139550D03*
X04390681Y02844281D03*
X04119021Y03011600D03*
X04506821Y03739950D03*
X04709571Y03409240D03*
X04567841Y03100181D03*
X04524531Y03507660D03*
X04237131Y04074600D03*
Y04121840D03*
Y04169090D03*
Y04216331D03*
X04579651Y03867910D03*
X05284381Y03751760D03*
X04577681Y03755700D03*
X04532771Y03780410D03*
X04471381Y03862000D03*
X04416271Y04045070D03*
Y04098220D03*
Y04151370D03*
Y04204520D03*
X04451701Y04178931D03*
X04914301Y04169081D03*
X04870991Y02909240D03*
X05256821Y04023410D03*
X05343431Y03468290D03*
X05168241Y03064740D03*
Y03005690D03*
X05402491Y02964360D03*
X05168241Y02867900D03*
Y02926960D03*
X05335561Y02653331D03*
X05390681Y02700581D03*
Y03212390D03*
X04059971Y04302940D03*
X04189891Y04074600D03*
Y04121840D03*
Y04169090D03*
X03937921Y04610031D03*
X03882801Y04645460D03*
X04008791Y04456490D03*
X03961541Y04468300D03*
X04008791Y04503731D03*
X03918241Y04531290D03*
X03961541Y04515540D03*
X03914301Y04385620D03*
X03902491Y04117910D03*
X03961541Y04123810D03*
X04000911Y04369870D03*
X03843431Y04330500D03*
X03815871Y04375781D03*
X04069811Y04714360D03*
X04079651Y04653340D03*
X04556031Y04586410D03*
X04544221Y04495860D03*
X04650521Y04432870D03*
X04556031D03*
X04650521Y04586410D03*
X04396581Y04734050D03*
X04117051Y04708460D03*
X04709571Y04243881D03*
X04416271Y04257670D03*
X04451701Y04232081D03*
X04333591Y04797040D03*
X04365091Y04765540D03*
X04339501Y04889550D03*
X04713511Y04759631D03*
X04804061Y04924990D03*
X05308001Y04905300D03*
X05264691D03*
X04745011Y04728140D03*
X04776501Y04696640D03*
X04855241Y04732070D03*
X04811941Y04724200D03*
X04993041Y04318690D03*
X05304061Y04421050D03*
Y04480110D03*
X04878871Y04421050D03*
X05296191Y04318690D03*
X04733201Y04586400D03*
X04741071Y04665140D03*
G54D15*
X04566241Y04384331D03*
X04644241Y04634940D03*
X04566241D03*
X04644241Y04384331D03*
G54D16*
X04931301Y04487980D03*
G54D15*
X04493771Y03917120D03*
X04571771D03*
G54D16*
X05257181Y03976170D03*
G54D17*
X04339501Y02982070D03*
G54D18*
X04871401Y04847040D03*
X04845811D03*
G54D19*
X03839501Y04918720D03*
Y04860381D03*
G54D15*
X04532771Y03835120D03*
X04605241Y04466331D03*
Y04552940D03*
G54D20*
X04610766Y02963565D03*
G54D21*
X04199591Y03293290D03*
X04404591D03*
X04199591Y03243290D03*
Y03193290D03*
Y03143290D03*
X04404591D03*
Y03193290D03*
Y03243290D03*
G54D22*
X04193831Y03023010D03*
G54D21*
X04404591Y02641331D03*
X04199591D03*
X04404591Y02691331D03*
Y02741331D03*
Y02791331D03*
X04199591D03*
Y02741331D03*
Y02691331D03*
G54D22*
X04193831Y02941130D03*
G54D16*
X04872961Y04487980D03*
X05315521Y03976170D03*
G54D18*
X04845811Y04551761D03*
X04871401D03*
X04896991D03*
X04922581D03*
X04948171D03*
X05076121D03*
X05101711D03*
X05127301D03*
X05152891D03*
X05178481D03*
X05204071D03*
X05229661D03*
X05255251D03*
X05280841D03*
X05306431D03*
Y04847040D03*
X05280841D03*
X05255251D03*
X05229661D03*
X05204071D03*
X05178481D03*
X05152891D03*
X05127301D03*
X05101711D03*
X05076121D03*
X05050531D03*
X05024941D03*
X04999351D03*
X04973761D03*
X04948171D03*
X04922581D03*
X04896991D03*
X04973761Y04551761D03*
X04999351D03*
X05024941D03*
X05050531D03*
G54D23*
X05286351Y03580090D03*
Y03506090D03*
Y03887581D03*
Y03813581D03*
G54D16*
X05315521Y03671050D03*
X05257181D03*
Y03424990D03*
X05315521D03*
G54D20*
X05004466Y02963565D03*
G54D24*
X04302091Y02824590D03*
Y02667110D03*
X05169811Y03336400D03*
%LPD*%
G75*
X05169811Y03336400D02*
G54D11*
X04650592Y02642771D02*
X04659065D01*
Y02625830D01*
X04650592Y02617361D01*
X04633655D01*
X04625185Y02625830D01*
Y02676649D01*
X04633655Y02685121D01*
X04650592D01*
X04659065Y02676649D01*
X04676004Y02625830D02*
Y02676649D01*
X04684472Y02685121D01*
X04701415D01*
X04709884Y02676649D01*
Y02625830D01*
X04701415Y02617361D01*
X04684472D01*
X04676004Y02625830D01*
X04760703D02*
X04752234Y02617361D01*
X04735295D01*
X04726822Y02625830D01*
Y02676649D01*
X04735295Y02685121D01*
X04752234D01*
X04760703Y02676649D01*
G54D25*
X05021631Y02628274D02*
Y02640545D01*
Y02628274D02*
Y02640545D01*
Y02660274D02*
Y02672545D01*
X05077415Y02628274D02*
Y02640545D01*
Y02628274D02*
Y02640545D01*
Y02660274D02*
Y02672545D01*
X04905411Y02628274D02*
Y02640545D01*
Y02628274D02*
Y02640545D01*
Y02660274D02*
Y02672545D01*
X04961195Y02628274D02*
Y02640545D01*
Y02628274D02*
Y02640545D01*
Y02660274D02*
Y02672545D01*
M02*
