*
%FSLAX26Y26*%
%MOIN*%
%ADD10R,0.028300X0.028300*%
%ADD11R,0.034000X0.034000*%
%ADD12R,0.020000X0.020000*%
%ADD13R,0.011800X0.011800*%
%ADD14R,0.051000X0.051000*%
%ADD15C,0.039370*%
%IPPOS*%
%LNcp.gbx*%
%LPD*%
G75*
G54D10*
X01535080Y01382790D02*
Y01373110D01*
X01476740Y01382790D02*
Y01373110D01*
G54D11*
X00785800Y01789110D02*
Y01783110D01*
X00863800Y01789110D02*
Y01783110D01*
X00824800Y01871110D02*
Y01865110D01*
X00863800Y02039720D02*
Y02033720D01*
X00785800Y02039720D02*
Y02033720D01*
X00824800Y01957720D02*
Y01951720D01*
X00791330Y01321900D02*
Y01315900D01*
X00713330Y01321900D02*
Y01315900D01*
X00752330Y01239900D02*
Y01233900D01*
G54D10*
X01476740Y00831610D02*
Y00821930D01*
X01535080Y00831610D02*
Y00821930D01*
X00054220Y02320500D02*
X00063900D01*
X00054220Y02262160D02*
X00063900D01*
G54D12*
X00591650Y00043110D02*
X00656650D01*
X00591650Y00093110D02*
X00656650D01*
X00591650Y00143110D02*
X00656650D01*
X00591650Y00193110D02*
X00656650D01*
X00386650D02*
X00451650D01*
X00386650Y00143110D02*
X00451650D01*
X00386650Y00093110D02*
X00451650D01*
X00386650Y00043110D02*
X00451650D01*
G36*
X00385830Y00452350D02*
X00440950D01*
Y00397230D01*
X00385830D01*
Y00452350D01*
G37*
G36*
Y00370470D02*
X00440950D01*
Y00315350D01*
X00385830D01*
Y00370470D01*
G37*
G36*
X00464570Y00478340D02*
X00653550D01*
Y00289360D01*
X00464570D01*
Y00478340D01*
G37*
G54D13*
X01065370Y01970270D02*
Y01936810D01*
X01090960Y01970270D02*
Y01936810D01*
X01116550Y01970270D02*
Y01936810D01*
X01142140Y01970270D02*
Y01936810D01*
X01167730Y01970270D02*
Y01936810D01*
X01193320Y01970270D02*
Y01936810D01*
X01218910Y01970270D02*
Y01936810D01*
X01244500Y01970270D02*
Y01936810D01*
X01270090Y01970270D02*
Y01936810D01*
X01295680Y01970270D02*
Y01936810D01*
X01321270Y01970270D02*
Y01936810D01*
X01346860Y01970270D02*
Y01936810D01*
X01372450Y01970270D02*
Y01936810D01*
X01398040Y01970270D02*
Y01936810D01*
X01423630Y01970270D02*
Y01936810D01*
X01449220Y01970270D02*
Y01936810D01*
X01474810Y01970270D02*
Y01936810D01*
X01500400Y01970270D02*
Y01936810D01*
X01525990Y01970270D02*
Y01936810D01*
Y02265550D02*
Y02232090D01*
X01500400Y02265550D02*
Y02232090D01*
X01474810Y02265550D02*
Y02232090D01*
X01449220Y02265550D02*
Y02232090D01*
X01423630Y02265550D02*
Y02232090D01*
X01398040Y02265550D02*
Y02232090D01*
X01372450Y02265550D02*
Y02232090D01*
X01346860Y02265550D02*
Y02232090D01*
X01321270Y02265550D02*
Y02232090D01*
X01295680Y02265550D02*
Y02232090D01*
X01270090Y02265550D02*
Y02232090D01*
X01244500Y02265550D02*
Y02232090D01*
X01218910Y02265550D02*
Y02232090D01*
X01193320Y02265550D02*
Y02232090D01*
X01167730Y02265550D02*
Y02232090D01*
X01142140Y02265550D02*
Y02232090D01*
X01116550Y02265550D02*
Y02232090D01*
X01090960Y02265550D02*
Y02232090D01*
X01065370Y02265550D02*
Y02232090D01*
G54D10*
X01150860Y01894600D02*
Y01884920D01*
X01092520Y01894600D02*
Y01884920D01*
X01535080Y01077670D02*
Y01067990D01*
X01476740Y01077670D02*
Y01067990D01*
G54D14*
X01495910Y01289360D02*
X01515910D01*
X01495910Y01215360D02*
X01515910D01*
G54D12*
X00386650Y00695070D02*
X00451650D01*
X00386650Y00645070D02*
X00451650D01*
X00386650Y00595070D02*
X00451650D01*
X00386650Y00545070D02*
X00451650D01*
X00591650D02*
X00656650D01*
X00591650Y00595070D02*
X00656650D01*
X00591650Y00645070D02*
X00656650D01*
X00591650Y00695070D02*
X00656650D01*
G54D14*
X01495910Y00981870D02*
X01515910D01*
X01495910Y00907870D02*
X01515910D01*
G36*
X00731900Y00463770D02*
X00928750D01*
Y00266920D01*
X00731900D01*
Y00463770D01*
G37*
G36*
X01125600D02*
X01322450D01*
Y00266920D01*
X01125600D01*
Y00463770D01*
G37*
G54D10*
X01535080Y03981010D02*
Y03971331D01*
X01476740Y03981010D02*
Y03971331D01*
G54D11*
X00785800Y04387331D02*
Y04381331D01*
X00863800Y04387331D02*
Y04381331D01*
X00824800Y04469331D02*
Y04463331D01*
X00863800Y04637940D02*
Y04631940D01*
X00785800Y04637940D02*
Y04631940D01*
X00824800Y04555940D02*
Y04549940D01*
X00791330Y03920120D02*
Y03914120D01*
X00713330Y03920120D02*
Y03914120D01*
X00752330Y03838120D02*
Y03832120D01*
G54D10*
X01476740Y03429831D02*
Y03420150D01*
X01535080Y03429831D02*
Y03420150D01*
X00054220Y04918720D02*
X00063900D01*
X00054220Y04860381D02*
X00063900D01*
G54D12*
X00591650Y02641331D02*
X00656650D01*
X00591650Y02691331D02*
X00656650D01*
X00591650Y02741331D02*
X00656650D01*
X00591650Y02791331D02*
X00656650D01*
X00386650D02*
X00451650D01*
X00386650Y02741331D02*
X00451650D01*
X00386650Y02691331D02*
X00451650D01*
X00386650Y02641331D02*
X00451650D01*
G36*
X00385830Y03050570D02*
X00440950D01*
Y02995450D01*
X00385830D01*
Y03050570D01*
G37*
G36*
Y02968690D02*
X00440950D01*
Y02913570D01*
X00385830D01*
Y02968690D01*
G37*
G36*
X00464570Y03076560D02*
X00653550D01*
Y02887581D01*
X00464570D01*
Y03076560D01*
G37*
G54D13*
X01065370Y04568490D02*
Y04535031D01*
X01090960Y04568490D02*
Y04535031D01*
X01116550Y04568490D02*
Y04535031D01*
X01142140Y04568490D02*
Y04535031D01*
X01167730Y04568490D02*
Y04535031D01*
X01193320Y04568490D02*
Y04535031D01*
X01218910Y04568490D02*
Y04535031D01*
X01244500Y04568490D02*
Y04535031D01*
X01270090Y04568490D02*
Y04535031D01*
X01295680Y04568490D02*
Y04535031D01*
X01321270Y04568490D02*
Y04535031D01*
X01346860Y04568490D02*
Y04535031D01*
X01372450Y04568490D02*
Y04535031D01*
X01398040Y04568490D02*
Y04535031D01*
X01423630Y04568490D02*
Y04535031D01*
X01449220Y04568490D02*
Y04535031D01*
X01474810Y04568490D02*
Y04535031D01*
X01500400Y04568490D02*
Y04535031D01*
X01525990Y04568490D02*
Y04535031D01*
Y04863770D02*
Y04830310D01*
X01500400Y04863770D02*
Y04830310D01*
X01474810Y04863770D02*
Y04830310D01*
X01449220Y04863770D02*
Y04830310D01*
X01423630Y04863770D02*
Y04830310D01*
X01398040Y04863770D02*
Y04830310D01*
X01372450Y04863770D02*
Y04830310D01*
X01346860Y04863770D02*
Y04830310D01*
X01321270Y04863770D02*
Y04830310D01*
X01295680Y04863770D02*
Y04830310D01*
X01270090Y04863770D02*
Y04830310D01*
X01244500Y04863770D02*
Y04830310D01*
X01218910Y04863770D02*
Y04830310D01*
X01193320Y04863770D02*
Y04830310D01*
X01167730Y04863770D02*
Y04830310D01*
X01142140Y04863770D02*
Y04830310D01*
X01116550Y04863770D02*
Y04830310D01*
X01090960Y04863770D02*
Y04830310D01*
X01065370Y04863770D02*
Y04830310D01*
G54D10*
X01150860Y04492820D02*
Y04483140D01*
X01092520Y04492820D02*
Y04483140D01*
X01535080Y03675890D02*
Y03666210D01*
X01476740Y03675890D02*
Y03666210D01*
G54D14*
X01495910Y03887581D02*
X01515910D01*
X01495910Y03813581D02*
X01515910D01*
G54D12*
X00386650Y03293290D02*
X00451650D01*
X00386650Y03243290D02*
X00451650D01*
X00386650Y03193290D02*
X00451650D01*
X00386650Y03143290D02*
X00451650D01*
X00591650D02*
X00656650D01*
X00591650Y03193290D02*
X00656650D01*
X00591650Y03243290D02*
X00656650D01*
X00591650Y03293290D02*
X00656650D01*
G54D14*
X01495910Y03580090D02*
X01515910D01*
X01495910Y03506090D02*
X01515910D01*
G36*
X00731900Y03061990D02*
X00928750D01*
Y02865140D01*
X00731900D01*
Y03061990D01*
G37*
G36*
X01125600D02*
X01322450D01*
Y02865140D01*
X01125600D01*
Y03061990D01*
G37*
G54D10*
X03425300Y01382790D02*
Y01373110D01*
X03366960Y01382790D02*
Y01373110D01*
G54D11*
X02676020Y01789110D02*
Y01783110D01*
X02754020Y01789110D02*
Y01783110D01*
X02715020Y01871110D02*
Y01865110D01*
X02754020Y02039720D02*
Y02033720D01*
X02676020Y02039720D02*
Y02033720D01*
X02715020Y01957720D02*
Y01951720D01*
X02681550Y01321900D02*
Y01315900D01*
X02603550Y01321900D02*
Y01315900D01*
X02642550Y01239900D02*
Y01233900D01*
G54D10*
X03366960Y00831610D02*
Y00821930D01*
X03425300Y00831610D02*
Y00821930D01*
X01944440Y02320500D02*
X01954120D01*
X01944440Y02262160D02*
X01954120D01*
G54D12*
X02481870Y00043110D02*
X02546870D01*
X02481870Y00093110D02*
X02546870D01*
X02481870Y00143110D02*
X02546870D01*
X02481870Y00193110D02*
X02546870D01*
X02276870D02*
X02341870D01*
X02276870Y00143110D02*
X02341870D01*
X02276870Y00093110D02*
X02341870D01*
X02276870Y00043110D02*
X02341870D01*
G36*
X02276050Y00452350D02*
X02331170D01*
Y00397230D01*
X02276050D01*
Y00452350D01*
G37*
G36*
Y00370470D02*
X02331170D01*
Y00315350D01*
X02276050D01*
Y00370470D01*
G37*
G36*
X02354790Y00478340D02*
X02543770D01*
Y00289360D01*
X02354790D01*
Y00478340D01*
G37*
G54D13*
X02955590Y01970270D02*
Y01936810D01*
X02981181Y01970270D02*
Y01936810D01*
X03006770Y01970270D02*
Y01936810D01*
X03032360Y01970270D02*
Y01936810D01*
X03057950Y01970270D02*
Y01936810D01*
X03083540Y01970270D02*
Y01936810D01*
X03109131Y01970270D02*
Y01936810D01*
X03134720Y01970270D02*
Y01936810D01*
X03160310Y01970270D02*
Y01936810D01*
X03185900Y01970270D02*
Y01936810D01*
X03211490Y01970270D02*
Y01936810D01*
X03237081Y01970270D02*
Y01936810D01*
X03262670Y01970270D02*
Y01936810D01*
X03288260Y01970270D02*
Y01936810D01*
X03313850Y01970270D02*
Y01936810D01*
X03339440Y01970270D02*
Y01936810D01*
X03365031Y01970270D02*
Y01936810D01*
X03390620Y01970270D02*
Y01936810D01*
X03416210Y01970270D02*
Y01936810D01*
Y02265550D02*
Y02232090D01*
X03390620Y02265550D02*
Y02232090D01*
X03365031Y02265550D02*
Y02232090D01*
X03339440Y02265550D02*
Y02232090D01*
X03313850Y02265550D02*
Y02232090D01*
X03288260Y02265550D02*
Y02232090D01*
X03262670Y02265550D02*
Y02232090D01*
X03237081Y02265550D02*
Y02232090D01*
X03211490Y02265550D02*
Y02232090D01*
X03185900Y02265550D02*
Y02232090D01*
X03160310Y02265550D02*
Y02232090D01*
X03134720Y02265550D02*
Y02232090D01*
X03109131Y02265550D02*
Y02232090D01*
X03083540Y02265550D02*
Y02232090D01*
X03057950Y02265550D02*
Y02232090D01*
X03032360Y02265550D02*
Y02232090D01*
X03006770Y02265550D02*
Y02232090D01*
X02981181Y02265550D02*
Y02232090D01*
X02955590Y02265550D02*
Y02232090D01*
G54D10*
X03041081Y01894600D02*
Y01884920D01*
X02982740Y01894600D02*
Y01884920D01*
X03425300Y01077670D02*
Y01067990D01*
X03366960Y01077670D02*
Y01067990D01*
G54D14*
X03386131Y01289360D02*
X03406131D01*
X03386131Y01215360D02*
X03406131D01*
G54D12*
X02276870Y00695070D02*
X02341870D01*
X02276870Y00645070D02*
X02341870D01*
X02276870Y00595070D02*
X02341870D01*
X02276870Y00545070D02*
X02341870D01*
X02481870D02*
X02546870D01*
X02481870Y00595070D02*
X02546870D01*
X02481870Y00645070D02*
X02546870D01*
X02481870Y00695070D02*
X02546870D01*
G54D14*
X03386131Y00981870D02*
X03406131D01*
X03386131Y00907870D02*
X03406131D01*
G36*
X02622120Y00463770D02*
X02818970D01*
Y00266920D01*
X02622120D01*
Y00463770D01*
G37*
G36*
X03015820D02*
X03212670D01*
Y00266920D01*
X03015820D01*
Y00463770D01*
G37*
G54D10*
X03425300Y03981010D02*
Y03971331D01*
X03366960Y03981010D02*
Y03971331D01*
G54D11*
X02676020Y04387331D02*
Y04381331D01*
X02754020Y04387331D02*
Y04381331D01*
X02715020Y04469331D02*
Y04463331D01*
X02754020Y04637940D02*
Y04631940D01*
X02676020Y04637940D02*
Y04631940D01*
X02715020Y04555940D02*
Y04549940D01*
X02681550Y03920120D02*
Y03914120D01*
X02603550Y03920120D02*
Y03914120D01*
X02642550Y03838120D02*
Y03832120D01*
G54D10*
X03366960Y03429831D02*
Y03420150D01*
X03425300Y03429831D02*
Y03420150D01*
X01944440Y04918720D02*
X01954120D01*
X01944440Y04860381D02*
X01954120D01*
G54D12*
X02481870Y02641331D02*
X02546870D01*
X02481870Y02691331D02*
X02546870D01*
X02481870Y02741331D02*
X02546870D01*
X02481870Y02791331D02*
X02546870D01*
X02276870D02*
X02341870D01*
X02276870Y02741331D02*
X02341870D01*
X02276870Y02691331D02*
X02341870D01*
X02276870Y02641331D02*
X02341870D01*
G36*
X02276050Y03050570D02*
X02331170D01*
Y02995450D01*
X02276050D01*
Y03050570D01*
G37*
G36*
Y02968690D02*
X02331170D01*
Y02913570D01*
X02276050D01*
Y02968690D01*
G37*
G36*
X02354790Y03076560D02*
X02543770D01*
Y02887581D01*
X02354790D01*
Y03076560D01*
G37*
G54D13*
X02955590Y04568490D02*
Y04535031D01*
X02981181Y04568490D02*
Y04535031D01*
X03006770Y04568490D02*
Y04535031D01*
X03032360Y04568490D02*
Y04535031D01*
X03057950Y04568490D02*
Y04535031D01*
X03083540Y04568490D02*
Y04535031D01*
X03109131Y04568490D02*
Y04535031D01*
X03134720Y04568490D02*
Y04535031D01*
X03160310Y04568490D02*
Y04535031D01*
X03185900Y04568490D02*
Y04535031D01*
X03211490Y04568490D02*
Y04535031D01*
X03237081Y04568490D02*
Y04535031D01*
X03262670Y04568490D02*
Y04535031D01*
X03288260Y04568490D02*
Y04535031D01*
X03313850Y04568490D02*
Y04535031D01*
X03339440Y04568490D02*
Y04535031D01*
X03365031Y04568490D02*
Y04535031D01*
X03390620Y04568490D02*
Y04535031D01*
X03416210Y04568490D02*
Y04535031D01*
Y04863770D02*
Y04830310D01*
X03390620Y04863770D02*
Y04830310D01*
X03365031Y04863770D02*
Y04830310D01*
X03339440Y04863770D02*
Y04830310D01*
X03313850Y04863770D02*
Y04830310D01*
X03288260Y04863770D02*
Y04830310D01*
X03262670Y04863770D02*
Y04830310D01*
X03237081Y04863770D02*
Y04830310D01*
X03211490Y04863770D02*
Y04830310D01*
X03185900Y04863770D02*
Y04830310D01*
X03160310Y04863770D02*
Y04830310D01*
X03134720Y04863770D02*
Y04830310D01*
X03109131Y04863770D02*
Y04830310D01*
X03083540Y04863770D02*
Y04830310D01*
X03057950Y04863770D02*
Y04830310D01*
X03032360Y04863770D02*
Y04830310D01*
X03006770Y04863770D02*
Y04830310D01*
X02981181Y04863770D02*
Y04830310D01*
X02955590Y04863770D02*
Y04830310D01*
G54D10*
X03041081Y04492820D02*
Y04483140D01*
X02982740Y04492820D02*
Y04483140D01*
X03425300Y03675890D02*
Y03666210D01*
X03366960Y03675890D02*
Y03666210D01*
G54D14*
X03386131Y03887581D02*
X03406131D01*
X03386131Y03813581D02*
X03406131D01*
G54D12*
X02276870Y03293290D02*
X02341870D01*
X02276870Y03243290D02*
X02341870D01*
X02276870Y03193290D02*
X02341870D01*
X02276870Y03143290D02*
X02341870D01*
X02481870D02*
X02546870D01*
X02481870Y03193290D02*
X02546870D01*
X02481870Y03243290D02*
X02546870D01*
X02481870Y03293290D02*
X02546870D01*
G54D14*
X03386131Y03580090D02*
X03406131D01*
X03386131Y03506090D02*
X03406131D01*
G36*
X02622120Y03061990D02*
X02818970D01*
Y02865140D01*
X02622120D01*
Y03061990D01*
G37*
G36*
X03015820D02*
X03212670D01*
Y02865140D01*
X03015820D01*
Y03061990D01*
G37*
G54D10*
X05315521Y01382790D02*
Y01373110D01*
X05257181Y01382790D02*
Y01373110D01*
G54D11*
X04566241Y01789110D02*
Y01783110D01*
X04644241Y01789110D02*
Y01783110D01*
X04605241Y01871110D02*
Y01865110D01*
X04644241Y02039720D02*
Y02033720D01*
X04566241Y02039720D02*
Y02033720D01*
X04605241Y01957720D02*
Y01951720D01*
X04571771Y01321900D02*
Y01315900D01*
X04493771Y01321900D02*
Y01315900D01*
X04532771Y01239900D02*
Y01233900D01*
G54D10*
X05257181Y00831610D02*
Y00821930D01*
X05315521Y00831610D02*
Y00821930D01*
X03834661Y02320500D02*
X03844341D01*
X03834661Y02262160D02*
X03844341D01*
G54D12*
X04372091Y00043110D02*
X04437091D01*
X04372091Y00093110D02*
X04437091D01*
X04372091Y00143110D02*
X04437091D01*
X04372091Y00193110D02*
X04437091D01*
X04167091D02*
X04232091D01*
X04167091Y00143110D02*
X04232091D01*
X04167091Y00093110D02*
X04232091D01*
X04167091Y00043110D02*
X04232091D01*
G36*
X04166271Y00452350D02*
X04221391D01*
Y00397230D01*
X04166271D01*
Y00452350D01*
G37*
G36*
Y00370470D02*
X04221391D01*
Y00315350D01*
X04166271D01*
Y00370470D01*
G37*
G36*
X04245011Y00478340D02*
X04433991D01*
Y00289360D01*
X04245011D01*
Y00478340D01*
G37*
G54D13*
X04845811Y01970270D02*
Y01936810D01*
X04871401Y01970270D02*
Y01936810D01*
X04896991Y01970270D02*
Y01936810D01*
X04922581Y01970270D02*
Y01936810D01*
X04948171Y01970270D02*
Y01936810D01*
X04973761Y01970270D02*
Y01936810D01*
X04999351Y01970270D02*
Y01936810D01*
X05024941Y01970270D02*
Y01936810D01*
X05050531Y01970270D02*
Y01936810D01*
X05076121Y01970270D02*
Y01936810D01*
X05101711Y01970270D02*
Y01936810D01*
X05127301Y01970270D02*
Y01936810D01*
X05152891Y01970270D02*
Y01936810D01*
X05178481Y01970270D02*
Y01936810D01*
X05204071Y01970270D02*
Y01936810D01*
X05229661Y01970270D02*
Y01936810D01*
X05255251Y01970270D02*
Y01936810D01*
X05280841Y01970270D02*
Y01936810D01*
X05306431Y01970270D02*
Y01936810D01*
Y02265550D02*
Y02232090D01*
X05280841Y02265550D02*
Y02232090D01*
X05255251Y02265550D02*
Y02232090D01*
X05229661Y02265550D02*
Y02232090D01*
X05204071Y02265550D02*
Y02232090D01*
X05178481Y02265550D02*
Y02232090D01*
X05152891Y02265550D02*
Y02232090D01*
X05127301Y02265550D02*
Y02232090D01*
X05101711Y02265550D02*
Y02232090D01*
X05076121Y02265550D02*
Y02232090D01*
X05050531Y02265550D02*
Y02232090D01*
X05024941Y02265550D02*
Y02232090D01*
X04999351Y02265550D02*
Y02232090D01*
X04973761Y02265550D02*
Y02232090D01*
X04948171Y02265550D02*
Y02232090D01*
X04922581Y02265550D02*
Y02232090D01*
X04896991Y02265550D02*
Y02232090D01*
X04871401Y02265550D02*
Y02232090D01*
X04845811Y02265550D02*
Y02232090D01*
G54D10*
X04931301Y01894600D02*
Y01884920D01*
X04872961Y01894600D02*
Y01884920D01*
X05315521Y01077670D02*
Y01067990D01*
X05257181Y01077670D02*
Y01067990D01*
G54D14*
X05276351Y01289360D02*
X05296351D01*
X05276351Y01215360D02*
X05296351D01*
G54D12*
X04167091Y00695070D02*
X04232091D01*
X04167091Y00645070D02*
X04232091D01*
X04167091Y00595070D02*
X04232091D01*
X04167091Y00545070D02*
X04232091D01*
X04372091D02*
X04437091D01*
X04372091Y00595070D02*
X04437091D01*
X04372091Y00645070D02*
X04437091D01*
X04372091Y00695070D02*
X04437091D01*
G54D14*
X05276351Y00981870D02*
X05296351D01*
X05276351Y00907870D02*
X05296351D01*
G36*
X04512341Y00463770D02*
X04709191D01*
Y00266920D01*
X04512341D01*
Y00463770D01*
G37*
G36*
X04906041D02*
X05102891D01*
Y00266920D01*
X04906041D01*
Y00463770D01*
G37*
G54D10*
X05315521Y03981010D02*
Y03971331D01*
X05257181Y03981010D02*
Y03971331D01*
G54D11*
X04566241Y04387331D02*
Y04381331D01*
X04644241Y04387331D02*
Y04381331D01*
X04605241Y04469331D02*
Y04463331D01*
X04644241Y04637940D02*
Y04631940D01*
X04566241Y04637940D02*
Y04631940D01*
X04605241Y04555940D02*
Y04549940D01*
X04571771Y03920120D02*
Y03914120D01*
X04493771Y03920120D02*
Y03914120D01*
X04532771Y03838120D02*
Y03832120D01*
G54D10*
X05257181Y03429831D02*
Y03420150D01*
X05315521Y03429831D02*
Y03420150D01*
X03834661Y04918720D02*
X03844341D01*
X03834661Y04860381D02*
X03844341D01*
G54D12*
X04372091Y02641331D02*
X04437091D01*
X04372091Y02691331D02*
X04437091D01*
X04372091Y02741331D02*
X04437091D01*
X04372091Y02791331D02*
X04437091D01*
X04167091D02*
X04232091D01*
X04167091Y02741331D02*
X04232091D01*
X04167091Y02691331D02*
X04232091D01*
X04167091Y02641331D02*
X04232091D01*
G36*
X04166271Y03050570D02*
X04221391D01*
Y02995450D01*
X04166271D01*
Y03050570D01*
G37*
G36*
Y02968690D02*
X04221391D01*
Y02913570D01*
X04166271D01*
Y02968690D01*
G37*
G36*
X04245011Y03076560D02*
X04433991D01*
Y02887581D01*
X04245011D01*
Y03076560D01*
G37*
G54D13*
X04845811Y04568490D02*
Y04535031D01*
X04871401Y04568490D02*
Y04535031D01*
X04896991Y04568490D02*
Y04535031D01*
X04922581Y04568490D02*
Y04535031D01*
X04948171Y04568490D02*
Y04535031D01*
X04973761Y04568490D02*
Y04535031D01*
X04999351Y04568490D02*
Y04535031D01*
X05024941Y04568490D02*
Y04535031D01*
X05050531Y04568490D02*
Y04535031D01*
X05076121Y04568490D02*
Y04535031D01*
X05101711Y04568490D02*
Y04535031D01*
X05127301Y04568490D02*
Y04535031D01*
X05152891Y04568490D02*
Y04535031D01*
X05178481Y04568490D02*
Y04535031D01*
X05204071Y04568490D02*
Y04535031D01*
X05229661Y04568490D02*
Y04535031D01*
X05255251Y04568490D02*
Y04535031D01*
X05280841Y04568490D02*
Y04535031D01*
X05306431Y04568490D02*
Y04535031D01*
Y04863770D02*
Y04830310D01*
X05280841Y04863770D02*
Y04830310D01*
X05255251Y04863770D02*
Y04830310D01*
X05229661Y04863770D02*
Y04830310D01*
X05204071Y04863770D02*
Y04830310D01*
X05178481Y04863770D02*
Y04830310D01*
X05152891Y04863770D02*
Y04830310D01*
X05127301Y04863770D02*
Y04830310D01*
X05101711Y04863770D02*
Y04830310D01*
X05076121Y04863770D02*
Y04830310D01*
X05050531Y04863770D02*
Y04830310D01*
X05024941Y04863770D02*
Y04830310D01*
X04999351Y04863770D02*
Y04830310D01*
X04973761Y04863770D02*
Y04830310D01*
X04948171Y04863770D02*
Y04830310D01*
X04922581Y04863770D02*
Y04830310D01*
X04896991Y04863770D02*
Y04830310D01*
X04871401Y04863770D02*
Y04830310D01*
X04845811Y04863770D02*
Y04830310D01*
G54D10*
X04931301Y04492820D02*
Y04483140D01*
X04872961Y04492820D02*
Y04483140D01*
X05315521Y03675890D02*
Y03666210D01*
X05257181Y03675890D02*
Y03666210D01*
G54D14*
X05276351Y03887581D02*
X05296351D01*
X05276351Y03813581D02*
X05296351D01*
G54D12*
X04167091Y03293290D02*
X04232091D01*
X04167091Y03243290D02*
X04232091D01*
X04167091Y03193290D02*
X04232091D01*
X04167091Y03143290D02*
X04232091D01*
X04372091D02*
X04437091D01*
X04372091Y03193290D02*
X04437091D01*
X04372091Y03243290D02*
X04437091D01*
X04372091Y03293290D02*
X04437091D01*
G54D14*
X05276351Y03580090D02*
X05296351D01*
X05276351Y03506090D02*
X05296351D01*
G36*
X04512341Y03061990D02*
X04709191D01*
Y02865140D01*
X04512341D01*
Y03061990D01*
G37*
G36*
X04906041D02*
X05102891D01*
Y02865140D01*
X04906041D01*
Y03061990D01*
G37*
G54D15*
X00000000Y05196441D03*
X05670661Y04566520D03*
X04647039Y-00236220D03*
M02*
