*
%FSLAX26Y26*%
%MOIN*%
%ADD10R,0.064000X0.064000*%
%ADD11C,0.070000*%
%ADD12C,0.128000*%
%ADD13C,0.136000*%
%ADD14R,0.039276X0.039276*%
%ADD15C,0.045300*%
%ADD16R,0.015811X0.049276*%
%ADD17R,0.047874X0.038189*%
%ADD18R,0.038016X0.044000*%
%ADD19R,0.206693X0.206693*%
%ADD20R,0.089000X0.024000*%
%ADD21R,0.198819X0.198819*%
%ADD22R,0.064961X0.064961*%
%ADD23R,0.038189X0.047874*%
%ADD24R,0.074984X0.054984*%
%ADD25C,0.133921*%
%ADD26C,0.017654*%
%ADD27C,0.037339*%
%ADD28C,0.137795*%
%ADD29C,0.124016*%
%IPPOS*%
%LNcr.gbx*%
%LPD*%
G75*
G54D10*
X00407480Y01387010D03*
G54D11*
X00507480Y01337010D03*
G54D12*
X00157480Y01437010D03*
G54D11*
X00407480Y01775980D03*
G54D12*
X00157480Y01675980D03*
G54D11*
X00507480Y01725980D03*
Y01037010D03*
X00407480Y01087010D03*
X00507480Y01237010D03*
X00407480Y01287010D03*
Y01187010D03*
X00507480Y01137010D03*
G54D13*
X00246060Y00531490D03*
Y00236210D03*
G54D12*
X00157480Y00987010D03*
G54D10*
X00074030Y00811020D03*
G54D11*
X00174030D03*
X00274030D03*
X00374030D03*
X00474030D03*
G54D10*
X01189370Y01633850D03*
G54D11*
X01289370D03*
X01389370D03*
G54D14*
X01141730Y01715150D03*
G54D10*
X01189370Y01250000D03*
Y01122040D03*
G54D11*
X01289370Y01250000D03*
X01389370D03*
G54D10*
X01189370Y01377950D03*
G54D11*
X01289370D03*
X01389370D03*
G54D15*
X01141730Y01765150D03*
G54D10*
X01189370Y01505900D03*
G54D11*
X01289370D03*
X01389370D03*
G54D10*
X01456690Y00187000D03*
G54D11*
X01556690D03*
G54D10*
X01456690Y00551180D03*
G54D11*
X01556690D03*
X01289370Y01122040D03*
X01389370D03*
G54D10*
X01189370Y00994090D03*
G54D11*
X01289370D03*
X01389370D03*
G54D10*
X01189370Y00866140D03*
G54D11*
X01289370D03*
X01389370D03*
G54D10*
X01189370Y00738180D03*
G54D11*
X01289370D03*
X01389370D03*
X00507480Y01925980D03*
X00407480Y01875980D03*
G54D10*
X00173230Y02291330D03*
G54D11*
X00273230D03*
X00373230D03*
X00473230D03*
X00407480Y01975980D03*
G54D10*
Y02075980D03*
G54D11*
X00507480Y02025980D03*
Y01825980D03*
G54D12*
X00157480Y02125980D03*
G54D16*
X01090960Y02248820D03*
X01065370D03*
G54D17*
X00059060Y02320500D03*
Y02262160D03*
G54D18*
X00791330Y01318900D03*
X00752330Y01236900D03*
X00713330Y01318900D03*
X00785800Y01786110D03*
X00863800D03*
X00824800Y01868110D03*
X00863800Y02036720D03*
X00785800D03*
X00824800Y01954720D03*
G54D19*
X00830325Y00365345D03*
G54D20*
X00419150Y00695070D03*
X00624150D03*
X00419150Y00645070D03*
Y00595070D03*
Y00545070D03*
X00624150D03*
Y00595070D03*
Y00645070D03*
G54D21*
X00559060Y00383850D03*
G54D22*
X00413390Y00424790D03*
G54D20*
X00624150Y00043110D03*
X00419150D03*
X00624150Y00093110D03*
Y00143110D03*
Y00193110D03*
X00419150D03*
Y00143110D03*
Y00093110D03*
G54D22*
X00413390Y00342910D03*
G54D23*
X01150860Y01889760D03*
X01092520D03*
X01535080Y01377950D03*
X01476740D03*
G54D16*
X01065370Y01953540D03*
X01090960D03*
X01116550D03*
X01142140D03*
X01167730D03*
X01295680D03*
X01321270D03*
X01346860D03*
X01372450D03*
X01398040D03*
X01423630D03*
X01449220D03*
X01474810D03*
X01500400D03*
X01525990D03*
Y02248820D03*
X01500400D03*
X01474810D03*
X01449220D03*
X01423630D03*
X01398040D03*
X01372450D03*
X01346860D03*
X01321270D03*
X01295680D03*
X01270090D03*
X01244500D03*
X01218910D03*
X01193320D03*
X01167730D03*
X01142140D03*
X01116550D03*
X01193320Y01953540D03*
X01218910D03*
X01244500D03*
X01270090D03*
G54D24*
X01505910Y00981870D03*
Y00907870D03*
Y01289360D03*
Y01215360D03*
G54D23*
X01535080Y01072830D03*
X01476740D03*
Y00826770D03*
X01535080D03*
G54D19*
X01224025Y00365345D03*
G54D25*
X00157400Y01437000D03*
Y01675900D03*
Y00987000D03*
Y02125900D03*
G54D26*
X01141700Y01715100D03*
X01141730Y01765150D03*
X00147640Y01250000D03*
X00039370Y01043310D03*
X00147640Y01297240D03*
X00206690Y01322840D03*
X00236220Y01141730D03*
X00251970Y00751960D03*
X00236220Y01074800D03*
X00574800Y01035430D03*
X00437010Y01137800D03*
X00336610Y01149610D03*
X00501970Y00541330D03*
X00610240Y00246060D03*
X00338580Y00413380D03*
X00726380Y01141730D03*
X00929130Y00811020D03*
X00787400Y00501960D03*
X00744090Y00909440D03*
X00456690Y01476380D03*
Y01523620D03*
Y01570870D03*
Y01618110D03*
X00799210Y01269690D03*
X01503940Y01153540D03*
X00797240Y01157480D03*
X00752330Y01182190D03*
X00690940Y01263780D03*
X00635830Y01446850D03*
Y01500000D03*
Y01553150D03*
Y01606300D03*
X00671260Y01580710D03*
X01133860Y01570860D03*
X01090550Y00311020D03*
X01476380Y01425190D03*
X01562990Y00870070D03*
X01387800Y00466520D03*
Y00407470D03*
X01622050Y00366140D03*
X01387800Y00269680D03*
Y00328740D03*
X01555120Y00055110D03*
X01610240Y00102360D03*
Y00614170D03*
X00279530Y01704720D03*
X00409450Y01476380D03*
Y01523620D03*
Y01570870D03*
X00157480Y02011810D03*
X00102360Y02047240D03*
X00228350Y01858270D03*
X00181100Y01870080D03*
X00228350Y01905510D03*
X00137800Y01933070D03*
X00181100Y01917320D03*
X00133860Y01787400D03*
X00122050Y01519690D03*
X00181100Y01525590D03*
X00220470Y01771650D03*
X00062990Y01732280D03*
X00035430Y01777560D03*
X00289370Y02116140D03*
X00299210Y02055120D03*
X00775590Y01988190D03*
X00763780Y01897640D03*
X00870080Y01834650D03*
X00775590D03*
X00870080Y01988190D03*
X00616140Y02135830D03*
X00336610Y02110240D03*
X00929130Y01645660D03*
X00635830Y01659450D03*
X00671260Y01633860D03*
X00553150Y02198820D03*
X00584650Y02167320D03*
X00559060Y02291330D03*
X00933070Y02161410D03*
X01023620Y02326770D03*
X01527560Y02307080D03*
X01484250D03*
X00964570Y02129920D03*
X00996060Y02098420D03*
X01074800Y02133850D03*
X01031500Y02125980D03*
X01212600Y01720470D03*
X01523620Y01822830D03*
Y01881890D03*
X01098430Y01822830D03*
X01515750Y01720470D03*
X00952760Y01988180D03*
X00960630Y02066920D03*
G54D27*
X00407400Y01387000D03*
X00507480Y01337010D03*
X00407480Y01775980D03*
X00507480Y01725980D03*
Y01037010D03*
X00407480Y01087010D03*
X00507480Y01237010D03*
X00407480Y01287010D03*
Y01187010D03*
X00507480Y01137010D03*
Y01925980D03*
X00407480Y01875980D03*
Y01975980D03*
X00407400Y02075900D03*
X00507480Y02025980D03*
Y01825980D03*
X00088580Y00383850D03*
X00267720Y01389760D03*
X00521650Y00147630D03*
Y00068890D03*
Y00226370D03*
X00401570Y01681100D03*
G54D10*
X00407480Y03985231D03*
G54D11*
X00507480Y03935231D03*
G54D12*
X00157480Y04035231D03*
G54D11*
X00407480Y04374200D03*
G54D12*
X00157480Y04274200D03*
G54D11*
X00507480Y04324200D03*
Y03635231D03*
X00407480Y03685231D03*
X00507480Y03835231D03*
X00407480Y03885231D03*
Y03785231D03*
X00507480Y03735231D03*
G54D13*
X00246060Y03129710D03*
Y02834431D03*
G54D12*
X00157480Y03585231D03*
G54D10*
X00074030Y03409240D03*
G54D11*
X00174030D03*
X00274030D03*
X00374030D03*
X00474030D03*
G54D10*
X01189370Y04232070D03*
G54D11*
X01289370D03*
X01389370D03*
G54D14*
X01141730Y04313370D03*
G54D10*
X01189370Y03848220D03*
Y03720260D03*
G54D11*
X01289370Y03848220D03*
X01389370D03*
G54D10*
X01189370Y03976170D03*
G54D11*
X01289370D03*
X01389370D03*
G54D15*
X01141730Y04363370D03*
G54D10*
X01189370Y04104120D03*
G54D11*
X01289370D03*
X01389370D03*
G54D10*
X01456690Y02785220D03*
G54D11*
X01556690D03*
G54D10*
X01456690Y03149400D03*
G54D11*
X01556690D03*
X01289370Y03720260D03*
X01389370D03*
G54D10*
X01189370Y03592310D03*
G54D11*
X01289370D03*
X01389370D03*
G54D10*
X01189370Y03464360D03*
G54D11*
X01289370D03*
X01389370D03*
G54D10*
X01189370Y03336400D03*
G54D11*
X01289370D03*
X01389370D03*
X00507480Y04524200D03*
X00407480Y04474200D03*
G54D10*
X00173230Y04889550D03*
G54D11*
X00273230D03*
X00373230D03*
X00473230D03*
X00407480Y04574200D03*
G54D10*
Y04674200D03*
G54D11*
X00507480Y04624200D03*
Y04424200D03*
G54D12*
X00157480Y04724200D03*
G54D16*
X01090960Y04847040D03*
X01065370D03*
G54D17*
X00059060Y04918720D03*
Y04860381D03*
G54D18*
X00791330Y03917120D03*
X00752330Y03835120D03*
X00713330Y03917120D03*
X00785800Y04384331D03*
X00863800D03*
X00824800Y04466331D03*
X00863800Y04634940D03*
X00785800D03*
X00824800Y04552940D03*
G54D19*
X00830325Y02963565D03*
G54D20*
X00419150Y03293290D03*
X00624150D03*
X00419150Y03243290D03*
Y03193290D03*
Y03143290D03*
X00624150D03*
Y03193290D03*
Y03243290D03*
G54D21*
X00559060Y02982070D03*
G54D22*
X00413390Y03023010D03*
G54D20*
X00624150Y02641331D03*
X00419150D03*
X00624150Y02691331D03*
Y02741331D03*
Y02791331D03*
X00419150D03*
Y02741331D03*
Y02691331D03*
G54D22*
X00413390Y02941130D03*
G54D23*
X01150860Y04487980D03*
X01092520D03*
X01535080Y03976170D03*
X01476740D03*
G54D16*
X01065370Y04551761D03*
X01090960D03*
X01116550D03*
X01142140D03*
X01167730D03*
X01295680D03*
X01321270D03*
X01346860D03*
X01372450D03*
X01398040D03*
X01423630D03*
X01449220D03*
X01474810D03*
X01500400D03*
X01525990D03*
Y04847040D03*
X01500400D03*
X01474810D03*
X01449220D03*
X01423630D03*
X01398040D03*
X01372450D03*
X01346860D03*
X01321270D03*
X01295680D03*
X01270090D03*
X01244500D03*
X01218910D03*
X01193320D03*
X01167730D03*
X01142140D03*
X01116550D03*
X01193320Y04551761D03*
X01218910D03*
X01244500D03*
X01270090D03*
G54D24*
X01505910Y03580090D03*
Y03506090D03*
Y03887581D03*
Y03813581D03*
G54D23*
X01535080Y03671050D03*
X01476740D03*
Y03424990D03*
X01535080D03*
G54D19*
X01224025Y02963565D03*
G54D25*
X00157400Y04035220D03*
Y04274120D03*
Y03585220D03*
Y04724120D03*
G54D26*
X01141700Y04313320D03*
X01141730Y04363370D03*
X00147640Y03848220D03*
X00039370Y03641531D03*
X00147640Y03895460D03*
X00206690Y03921060D03*
X00236220Y03739950D03*
X00251970Y03350181D03*
X00236220Y03673020D03*
X00574800Y03633650D03*
X00437010Y03736020D03*
X00336610Y03747831D03*
X00501970Y03139550D03*
X00610240Y02844281D03*
X00338580Y03011600D03*
X00726380Y03739950D03*
X00929130Y03409240D03*
X00787400Y03100181D03*
X00744090Y03507660D03*
X00456690Y04074600D03*
Y04121840D03*
Y04169090D03*
Y04216331D03*
X00799210Y03867910D03*
X01503940Y03751760D03*
X00797240Y03755700D03*
X00752330Y03780410D03*
X00690940Y03862000D03*
X00635830Y04045070D03*
Y04098220D03*
Y04151370D03*
Y04204520D03*
X00671260Y04178931D03*
X01133860Y04169081D03*
X01090550Y02909240D03*
X01476380Y04023410D03*
X01562990Y03468290D03*
X01387800Y03064740D03*
Y03005690D03*
X01622050Y02964360D03*
X01387800Y02867900D03*
Y02926960D03*
X01555120Y02653331D03*
X01610240Y02700581D03*
Y03212390D03*
X00279530Y04302940D03*
X00409450Y04074600D03*
Y04121840D03*
Y04169090D03*
X00157480Y04610031D03*
X00102360Y04645460D03*
X00228350Y04456490D03*
X00181100Y04468300D03*
X00228350Y04503731D03*
X00137800Y04531290D03*
X00181100Y04515540D03*
X00133860Y04385620D03*
X00122050Y04117910D03*
X00181100Y04123810D03*
X00220470Y04369870D03*
X00062990Y04330500D03*
X00035430Y04375781D03*
X00289370Y04714360D03*
X00299210Y04653340D03*
X00775590Y04586410D03*
X00763780Y04495860D03*
X00870080Y04432870D03*
X00775590D03*
X00870080Y04586410D03*
X00616140Y04734050D03*
X00336610Y04708460D03*
X00929130Y04243881D03*
X00635830Y04257670D03*
X00671260Y04232081D03*
X00553150Y04797040D03*
X00584650Y04765540D03*
X00559060Y04889550D03*
X00933070Y04759631D03*
X01023620Y04924990D03*
X01527560Y04905300D03*
X01484250D03*
X00964570Y04728140D03*
X00996060Y04696640D03*
X01074800Y04732070D03*
X01031500Y04724200D03*
X01212600Y04318690D03*
X01523620Y04421050D03*
Y04480110D03*
X01098430Y04421050D03*
X01515750Y04318690D03*
X00952760Y04586400D03*
X00960630Y04665140D03*
G54D27*
X00407400Y03985220D03*
X00507480Y03935231D03*
X00407480Y04374200D03*
X00507480Y04324200D03*
Y03635231D03*
X00407480Y03685231D03*
X00507480Y03835231D03*
X00407480Y03885231D03*
Y03785231D03*
X00507480Y03735231D03*
Y04524200D03*
X00407480Y04474200D03*
Y04574200D03*
X00407400Y04674120D03*
X00507480Y04624200D03*
Y04424200D03*
X00088580Y02982070D03*
X00267720Y03987981D03*
X00521650Y02745850D03*
Y02667110D03*
Y02824590D03*
X00401570Y04279320D03*
G54D10*
X02297700Y01387010D03*
G54D11*
X02397700Y01337010D03*
G54D12*
X02047700Y01437010D03*
G54D11*
X02297700Y01775980D03*
G54D12*
X02047700Y01675980D03*
G54D11*
X02397700Y01725980D03*
Y01037010D03*
X02297700Y01087010D03*
X02397700Y01237010D03*
X02297700Y01287010D03*
Y01187010D03*
X02397700Y01137010D03*
G54D13*
X02136281Y00531490D03*
Y00236210D03*
G54D12*
X02047700Y00987010D03*
G54D10*
X01964250Y00811020D03*
G54D11*
X02064250D03*
X02164250D03*
X02264250D03*
X02364250D03*
G54D10*
X03079590Y01633850D03*
G54D11*
X03179590D03*
X03279590D03*
G54D14*
X03031950Y01715150D03*
G54D10*
X03079590Y01250000D03*
Y01122040D03*
G54D11*
X03179590Y01250000D03*
X03279590D03*
G54D10*
X03079590Y01377950D03*
G54D11*
X03179590D03*
X03279590D03*
G54D15*
X03031950Y01765150D03*
G54D10*
X03079590Y01505900D03*
G54D11*
X03179590D03*
X03279590D03*
G54D10*
X03346910Y00187000D03*
G54D11*
X03446910D03*
G54D10*
X03346910Y00551180D03*
G54D11*
X03446910D03*
X03179590Y01122040D03*
X03279590D03*
G54D10*
X03079590Y00994090D03*
G54D11*
X03179590D03*
X03279590D03*
G54D10*
X03079590Y00866140D03*
G54D11*
X03179590D03*
X03279590D03*
G54D10*
X03079590Y00738180D03*
G54D11*
X03179590D03*
X03279590D03*
X02397700Y01925980D03*
X02297700Y01875980D03*
G54D10*
X02063450Y02291330D03*
G54D11*
X02163450D03*
X02263450D03*
X02363450D03*
X02297700Y01975980D03*
G54D10*
Y02075980D03*
G54D11*
X02397700Y02025980D03*
Y01825980D03*
G54D12*
X02047700Y02125980D03*
G54D16*
X02981181Y02248820D03*
X02955590D03*
G54D17*
X01949280Y02320500D03*
Y02262160D03*
G54D18*
X02681550Y01318900D03*
X02642550Y01236900D03*
X02603550Y01318900D03*
X02676020Y01786110D03*
X02754020D03*
X02715020Y01868110D03*
X02754020Y02036720D03*
X02676020D03*
X02715020Y01954720D03*
G54D19*
X02720545Y00365345D03*
G54D20*
X02309370Y00695070D03*
X02514370D03*
X02309370Y00645070D03*
Y00595070D03*
Y00545070D03*
X02514370D03*
Y00595070D03*
Y00645070D03*
G54D21*
X02449280Y00383850D03*
G54D22*
X02303610Y00424790D03*
G54D20*
X02514370Y00043110D03*
X02309370D03*
X02514370Y00093110D03*
Y00143110D03*
Y00193110D03*
X02309370D03*
Y00143110D03*
Y00093110D03*
G54D22*
X02303610Y00342910D03*
G54D23*
X03041081Y01889760D03*
X02982740D03*
X03425300Y01377950D03*
X03366960D03*
G54D16*
X02955590Y01953540D03*
X02981181D03*
X03006770D03*
X03032360D03*
X03057950D03*
X03185900D03*
X03211490D03*
X03237081D03*
X03262670D03*
X03288260D03*
X03313850D03*
X03339440D03*
X03365031D03*
X03390620D03*
X03416210D03*
Y02248820D03*
X03390620D03*
X03365031D03*
X03339440D03*
X03313850D03*
X03288260D03*
X03262670D03*
X03237081D03*
X03211490D03*
X03185900D03*
X03160310D03*
X03134720D03*
X03109131D03*
X03083540D03*
X03057950D03*
X03032360D03*
X03006770D03*
X03083540Y01953540D03*
X03109131D03*
X03134720D03*
X03160310D03*
G54D24*
X03396131Y00981870D03*
Y00907870D03*
Y01289360D03*
Y01215360D03*
G54D23*
X03425300Y01072830D03*
X03366960D03*
Y00826770D03*
X03425300D03*
G54D19*
X03114245Y00365345D03*
G54D25*
X02047620Y01437000D03*
Y01675900D03*
Y00987000D03*
Y02125900D03*
G54D26*
X03031920Y01715100D03*
X03031950Y01765150D03*
X02037860Y01250000D03*
X01929590Y01043310D03*
X02037860Y01297240D03*
X02096910Y01322840D03*
X02126440Y01141730D03*
X02142190Y00751960D03*
X02126440Y01074800D03*
X02465020Y01035430D03*
X02327231Y01137800D03*
X02226831Y01149610D03*
X02392190Y00541330D03*
X02500460Y00246060D03*
X02228800Y00413380D03*
X02616600Y01141730D03*
X02819350Y00811020D03*
X02677620Y00501960D03*
X02634310Y00909440D03*
X02346910Y01476380D03*
Y01523620D03*
Y01570870D03*
Y01618110D03*
X02689431Y01269690D03*
X03394160Y01153540D03*
X02687460Y01157480D03*
X02642550Y01182190D03*
X02581160Y01263780D03*
X02526050Y01446850D03*
Y01500000D03*
Y01553150D03*
Y01606300D03*
X02561481Y01580710D03*
X03024081Y01570860D03*
X02980770Y00311020D03*
X03366600Y01425190D03*
X03453210Y00870070D03*
X03278020Y00466520D03*
Y00407470D03*
X03512270Y00366140D03*
X03278020Y00269680D03*
Y00328740D03*
X03445340Y00055110D03*
X03500460Y00102360D03*
Y00614170D03*
X02169750Y01704720D03*
X02299670Y01476380D03*
Y01523620D03*
Y01570870D03*
X02047700Y02011810D03*
X01992581Y02047240D03*
X02118570Y01858270D03*
X02071320Y01870080D03*
X02118570Y01905510D03*
X02028020Y01933070D03*
X02071320Y01917320D03*
X02024081Y01787400D03*
X02012270Y01519690D03*
X02071320Y01525590D03*
X02110690Y01771650D03*
X01953210Y01732280D03*
X01925650Y01777560D03*
X02179590Y02116140D03*
X02189431Y02055120D03*
X02665810Y01988190D03*
X02654000Y01897640D03*
X02760300Y01834650D03*
X02665810D03*
X02760300Y01988190D03*
X02506360Y02135830D03*
X02226831Y02110240D03*
X02819350Y01645660D03*
X02526050Y01659450D03*
X02561481Y01633860D03*
X02443370Y02198820D03*
X02474870Y02167320D03*
X02449281Y02291330D03*
X02823290Y02161410D03*
X02913840Y02326770D03*
X03417781Y02307080D03*
X03374470D03*
X02854790Y02129920D03*
X02886281Y02098420D03*
X02965020Y02133850D03*
X02921720Y02125980D03*
X03102820Y01720470D03*
X03413840Y01822830D03*
Y01881890D03*
X02988650Y01822830D03*
X03405970Y01720470D03*
X02842981Y01988180D03*
X02850850Y02066920D03*
G54D27*
X02297620Y01387000D03*
X02397700Y01337010D03*
X02297700Y01775980D03*
X02397700Y01725980D03*
Y01037010D03*
X02297700Y01087010D03*
X02397700Y01237010D03*
X02297700Y01287010D03*
Y01187010D03*
X02397700Y01137010D03*
Y01925980D03*
X02297700Y01875980D03*
Y01975980D03*
X02297620Y02075900D03*
X02397700Y02025980D03*
Y01825980D03*
X01978800Y00383850D03*
X02157940Y01389760D03*
X02411870Y00147630D03*
Y00068890D03*
Y00226370D03*
X02291790Y01681100D03*
G54D10*
X02297700Y03985231D03*
G54D11*
X02397700Y03935231D03*
G54D12*
X02047700Y04035231D03*
G54D11*
X02297700Y04374200D03*
G54D12*
X02047700Y04274200D03*
G54D11*
X02397700Y04324200D03*
Y03635231D03*
X02297700Y03685231D03*
X02397700Y03835231D03*
X02297700Y03885231D03*
Y03785231D03*
X02397700Y03735231D03*
G54D13*
X02136281Y03129710D03*
Y02834431D03*
G54D12*
X02047700Y03585231D03*
G54D10*
X01964250Y03409240D03*
G54D11*
X02064250D03*
X02164250D03*
X02264250D03*
X02364250D03*
G54D10*
X03079590Y04232070D03*
G54D11*
X03179590D03*
X03279590D03*
G54D14*
X03031950Y04313370D03*
G54D10*
X03079590Y03848220D03*
Y03720260D03*
G54D11*
X03179590Y03848220D03*
X03279590D03*
G54D10*
X03079590Y03976170D03*
G54D11*
X03179590D03*
X03279590D03*
G54D15*
X03031950Y04363370D03*
G54D10*
X03079590Y04104120D03*
G54D11*
X03179590D03*
X03279590D03*
G54D10*
X03346910Y02785220D03*
G54D11*
X03446910D03*
G54D10*
X03346910Y03149400D03*
G54D11*
X03446910D03*
X03179590Y03720260D03*
X03279590D03*
G54D10*
X03079590Y03592310D03*
G54D11*
X03179590D03*
X03279590D03*
G54D10*
X03079590Y03464360D03*
G54D11*
X03179590D03*
X03279590D03*
G54D10*
X03079590Y03336400D03*
G54D11*
X03179590D03*
X03279590D03*
X02397700Y04524200D03*
X02297700Y04474200D03*
G54D10*
X02063450Y04889550D03*
G54D11*
X02163450D03*
X02263450D03*
X02363450D03*
X02297700Y04574200D03*
G54D10*
Y04674200D03*
G54D11*
X02397700Y04624200D03*
Y04424200D03*
G54D12*
X02047700Y04724200D03*
G54D16*
X02981181Y04847040D03*
X02955590D03*
G54D17*
X01949280Y04918720D03*
Y04860381D03*
G54D18*
X02681550Y03917120D03*
X02642550Y03835120D03*
X02603550Y03917120D03*
X02676020Y04384331D03*
X02754020D03*
X02715020Y04466331D03*
X02754020Y04634940D03*
X02676020D03*
X02715020Y04552940D03*
G54D19*
X02720545Y02963565D03*
G54D20*
X02309370Y03293290D03*
X02514370D03*
X02309370Y03243290D03*
Y03193290D03*
Y03143290D03*
X02514370D03*
Y03193290D03*
Y03243290D03*
G54D21*
X02449280Y02982070D03*
G54D22*
X02303610Y03023010D03*
G54D20*
X02514370Y02641331D03*
X02309370D03*
X02514370Y02691331D03*
Y02741331D03*
Y02791331D03*
X02309370D03*
Y02741331D03*
Y02691331D03*
G54D22*
X02303610Y02941130D03*
G54D23*
X03041081Y04487980D03*
X02982740D03*
X03425300Y03976170D03*
X03366960D03*
G54D16*
X02955590Y04551761D03*
X02981181D03*
X03006770D03*
X03032360D03*
X03057950D03*
X03185900D03*
X03211490D03*
X03237081D03*
X03262670D03*
X03288260D03*
X03313850D03*
X03339440D03*
X03365031D03*
X03390620D03*
X03416210D03*
Y04847040D03*
X03390620D03*
X03365031D03*
X03339440D03*
X03313850D03*
X03288260D03*
X03262670D03*
X03237081D03*
X03211490D03*
X03185900D03*
X03160310D03*
X03134720D03*
X03109131D03*
X03083540D03*
X03057950D03*
X03032360D03*
X03006770D03*
X03083540Y04551761D03*
X03109131D03*
X03134720D03*
X03160310D03*
G54D24*
X03396131Y03580090D03*
Y03506090D03*
Y03887581D03*
Y03813581D03*
G54D23*
X03425300Y03671050D03*
X03366960D03*
Y03424990D03*
X03425300D03*
G54D19*
X03114245Y02963565D03*
G54D25*
X02047620Y04035220D03*
Y04274120D03*
Y03585220D03*
Y04724120D03*
G54D26*
X03031920Y04313320D03*
X03031950Y04363370D03*
X02037860Y03848220D03*
X01929590Y03641531D03*
X02037860Y03895460D03*
X02096910Y03921060D03*
X02126440Y03739950D03*
X02142190Y03350181D03*
X02126440Y03673020D03*
X02465020Y03633650D03*
X02327231Y03736020D03*
X02226831Y03747831D03*
X02392190Y03139550D03*
X02500460Y02844281D03*
X02228800Y03011600D03*
X02616600Y03739950D03*
X02819350Y03409240D03*
X02677620Y03100181D03*
X02634310Y03507660D03*
X02346910Y04074600D03*
Y04121840D03*
Y04169090D03*
Y04216331D03*
X02689431Y03867910D03*
X03394160Y03751760D03*
X02687460Y03755700D03*
X02642550Y03780410D03*
X02581160Y03862000D03*
X02526050Y04045070D03*
Y04098220D03*
Y04151370D03*
Y04204520D03*
X02561481Y04178931D03*
X03024081Y04169081D03*
X02980770Y02909240D03*
X03366600Y04023410D03*
X03453210Y03468290D03*
X03278020Y03064740D03*
Y03005690D03*
X03512270Y02964360D03*
X03278020Y02867900D03*
Y02926960D03*
X03445340Y02653331D03*
X03500460Y02700581D03*
Y03212390D03*
X02169750Y04302940D03*
X02299670Y04074600D03*
Y04121840D03*
Y04169090D03*
X02047700Y04610031D03*
X01992581Y04645460D03*
X02118570Y04456490D03*
X02071320Y04468300D03*
X02118570Y04503731D03*
X02028020Y04531290D03*
X02071320Y04515540D03*
X02024081Y04385620D03*
X02012270Y04117910D03*
X02071320Y04123810D03*
X02110690Y04369870D03*
X01953210Y04330500D03*
X01925650Y04375781D03*
X02179590Y04714360D03*
X02189431Y04653340D03*
X02665810Y04586410D03*
X02654000Y04495860D03*
X02760300Y04432870D03*
X02665810D03*
X02760300Y04586410D03*
X02506360Y04734050D03*
X02226831Y04708460D03*
X02819350Y04243881D03*
X02526050Y04257670D03*
X02561481Y04232081D03*
X02443370Y04797040D03*
X02474870Y04765540D03*
X02449281Y04889550D03*
X02823290Y04759631D03*
X02913840Y04924990D03*
X03417781Y04905300D03*
X03374470D03*
X02854790Y04728140D03*
X02886281Y04696640D03*
X02965020Y04732070D03*
X02921720Y04724200D03*
X03102820Y04318690D03*
X03413840Y04421050D03*
Y04480110D03*
X02988650Y04421050D03*
X03405970Y04318690D03*
X02842981Y04586400D03*
X02850850Y04665140D03*
G54D27*
X02297620Y03985220D03*
X02397700Y03935231D03*
X02297700Y04374200D03*
X02397700Y04324200D03*
Y03635231D03*
X02297700Y03685231D03*
X02397700Y03835231D03*
X02297700Y03885231D03*
Y03785231D03*
X02397700Y03735231D03*
Y04524200D03*
X02297700Y04474200D03*
Y04574200D03*
X02297620Y04674120D03*
X02397700Y04624200D03*
Y04424200D03*
X01978800Y02982070D03*
X02157940Y03987981D03*
X02411870Y02745850D03*
Y02667110D03*
Y02824590D03*
X02291790Y04279320D03*
G54D10*
X04187921Y01387010D03*
G54D11*
X04287921Y01337010D03*
G54D12*
X03937921Y01437010D03*
G54D11*
X04187921Y01775980D03*
G54D12*
X03937921Y01675980D03*
G54D11*
X04287921Y01725980D03*
Y01037010D03*
X04187921Y01087010D03*
X04287921Y01237010D03*
X04187921Y01287010D03*
Y01187010D03*
X04287921Y01137010D03*
G54D13*
X04026501Y00531490D03*
Y00236210D03*
G54D12*
X03937921Y00987010D03*
G54D10*
X03854471Y00811020D03*
G54D11*
X03954471D03*
X04054471D03*
X04154471D03*
X04254471D03*
G54D10*
X04969811Y01633850D03*
G54D11*
X05069811D03*
X05169811D03*
G54D14*
X04922171Y01715150D03*
G54D10*
X04969811Y01250000D03*
Y01122040D03*
G54D11*
X05069811Y01250000D03*
X05169811D03*
G54D10*
X04969811Y01377950D03*
G54D11*
X05069811D03*
X05169811D03*
G54D15*
X04922171Y01765150D03*
G54D10*
X04969811Y01505900D03*
G54D11*
X05069811D03*
X05169811D03*
G54D10*
X05237131Y00187000D03*
G54D11*
X05337131D03*
G54D10*
X05237131Y00551180D03*
G54D11*
X05337131D03*
X05069811Y01122040D03*
X05169811D03*
G54D10*
X04969811Y00994090D03*
G54D11*
X05069811D03*
X05169811D03*
G54D10*
X04969811Y00866140D03*
G54D11*
X05069811D03*
X05169811D03*
G54D10*
X04969811Y00738180D03*
G54D11*
X05069811D03*
X05169811D03*
X04287921Y01925980D03*
X04187921Y01875980D03*
G54D10*
X03953671Y02291330D03*
G54D11*
X04053671D03*
X04153671D03*
X04253671D03*
X04187921Y01975980D03*
G54D10*
Y02075980D03*
G54D11*
X04287921Y02025980D03*
Y01825980D03*
G54D12*
X03937921Y02125980D03*
G54D16*
X04871401Y02248820D03*
X04845811D03*
G54D17*
X03839501Y02320500D03*
Y02262160D03*
G54D18*
X04571771Y01318900D03*
X04532771Y01236900D03*
X04493771Y01318900D03*
X04566241Y01786110D03*
X04644241D03*
X04605241Y01868110D03*
X04644241Y02036720D03*
X04566241D03*
X04605241Y01954720D03*
G54D19*
X04610766Y00365345D03*
G54D20*
X04199591Y00695070D03*
X04404591D03*
X04199591Y00645070D03*
Y00595070D03*
Y00545070D03*
X04404591D03*
Y00595070D03*
Y00645070D03*
G54D21*
X04339501Y00383850D03*
G54D22*
X04193831Y00424790D03*
G54D20*
X04404591Y00043110D03*
X04199591D03*
X04404591Y00093110D03*
Y00143110D03*
Y00193110D03*
X04199591D03*
Y00143110D03*
Y00093110D03*
G54D22*
X04193831Y00342910D03*
G54D23*
X04931301Y01889760D03*
X04872961D03*
X05315521Y01377950D03*
X05257181D03*
G54D16*
X04845811Y01953540D03*
X04871401D03*
X04896991D03*
X04922581D03*
X04948171D03*
X05076121D03*
X05101711D03*
X05127301D03*
X05152891D03*
X05178481D03*
X05204071D03*
X05229661D03*
X05255251D03*
X05280841D03*
X05306431D03*
Y02248820D03*
X05280841D03*
X05255251D03*
X05229661D03*
X05204071D03*
X05178481D03*
X05152891D03*
X05127301D03*
X05101711D03*
X05076121D03*
X05050531D03*
X05024941D03*
X04999351D03*
X04973761D03*
X04948171D03*
X04922581D03*
X04896991D03*
X04973761Y01953540D03*
X04999351D03*
X05024941D03*
X05050531D03*
G54D24*
X05286351Y00981870D03*
Y00907870D03*
Y01289360D03*
Y01215360D03*
G54D23*
X05315521Y01072830D03*
X05257181D03*
Y00826770D03*
X05315521D03*
G54D19*
X05004466Y00365345D03*
G54D25*
X03937841Y01437000D03*
Y01675900D03*
Y00987000D03*
Y02125900D03*
G54D26*
X04922141Y01715100D03*
X04922171Y01765150D03*
X03928081Y01250000D03*
X03819811Y01043310D03*
X03928081Y01297240D03*
X03987131Y01322840D03*
X04016661Y01141730D03*
X04032411Y00751960D03*
X04016661Y01074800D03*
X04355241Y01035430D03*
X04217451Y01137800D03*
X04117051Y01149610D03*
X04282411Y00541330D03*
X04390681Y00246060D03*
X04119021Y00413380D03*
X04506821Y01141730D03*
X04709571Y00811020D03*
X04567841Y00501960D03*
X04524531Y00909440D03*
X04237131Y01476380D03*
Y01523620D03*
Y01570870D03*
Y01618110D03*
X04579651Y01269690D03*
X05284381Y01153540D03*
X04577681Y01157480D03*
X04532771Y01182190D03*
X04471381Y01263780D03*
X04416271Y01446850D03*
Y01500000D03*
Y01553150D03*
Y01606300D03*
X04451701Y01580710D03*
X04914301Y01570860D03*
X04870991Y00311020D03*
X05256821Y01425190D03*
X05343431Y00870070D03*
X05168241Y00466520D03*
Y00407470D03*
X05402491Y00366140D03*
X05168241Y00269680D03*
Y00328740D03*
X05335561Y00055110D03*
X05390681Y00102360D03*
Y00614170D03*
X04059971Y01704720D03*
X04189891Y01476380D03*
Y01523620D03*
Y01570870D03*
X03937921Y02011810D03*
X03882801Y02047240D03*
X04008791Y01858270D03*
X03961541Y01870080D03*
X04008791Y01905510D03*
X03918241Y01933070D03*
X03961541Y01917320D03*
X03914301Y01787400D03*
X03902491Y01519690D03*
X03961541Y01525590D03*
X04000911Y01771650D03*
X03843431Y01732280D03*
X03815871Y01777560D03*
X04069811Y02116140D03*
X04079651Y02055120D03*
X04556031Y01988190D03*
X04544221Y01897640D03*
X04650521Y01834650D03*
X04556031D03*
X04650521Y01988190D03*
X04396581Y02135830D03*
X04117051Y02110240D03*
X04709571Y01645660D03*
X04416271Y01659450D03*
X04451701Y01633860D03*
X04333591Y02198820D03*
X04365091Y02167320D03*
X04339501Y02291330D03*
X04713511Y02161410D03*
X04804061Y02326770D03*
X05308001Y02307080D03*
X05264691D03*
X04745011Y02129920D03*
X04776501Y02098420D03*
X04855241Y02133850D03*
X04811941Y02125980D03*
X04993041Y01720470D03*
X05304061Y01822830D03*
Y01881890D03*
X04878871Y01822830D03*
X05296191Y01720470D03*
X04733201Y01988180D03*
X04741071Y02066920D03*
G54D27*
X04187841Y01387000D03*
X04287921Y01337010D03*
X04187921Y01775980D03*
X04287921Y01725980D03*
Y01037010D03*
X04187921Y01087010D03*
X04287921Y01237010D03*
X04187921Y01287010D03*
Y01187010D03*
X04287921Y01137010D03*
Y01925980D03*
X04187921Y01875980D03*
Y01975980D03*
X04187841Y02075900D03*
X04287921Y02025980D03*
Y01825980D03*
X03869021Y00383850D03*
X04048161Y01389760D03*
X04302091Y00147630D03*
Y00068890D03*
Y00226370D03*
X04182011Y01681100D03*
G54D10*
X04187921Y03985231D03*
G54D11*
X04287921Y03935231D03*
G54D12*
X03937921Y04035231D03*
G54D11*
X04187921Y04374200D03*
G54D12*
X03937921Y04274200D03*
G54D11*
X04287921Y04324200D03*
Y03635231D03*
X04187921Y03685231D03*
X04287921Y03835231D03*
X04187921Y03885231D03*
Y03785231D03*
X04287921Y03735231D03*
G54D13*
X04026501Y03129710D03*
Y02834431D03*
G54D12*
X03937921Y03585231D03*
G54D10*
X03854471Y03409240D03*
G54D11*
X03954471D03*
X04054471D03*
X04154471D03*
X04254471D03*
G54D10*
X04969811Y04232070D03*
G54D11*
X05069811D03*
X05169811D03*
G54D14*
X04922171Y04313370D03*
G54D10*
X04969811Y03848220D03*
Y03720260D03*
G54D11*
X05069811Y03848220D03*
X05169811D03*
G54D10*
X04969811Y03976170D03*
G54D11*
X05069811D03*
X05169811D03*
G54D15*
X04922171Y04363370D03*
G54D10*
X04969811Y04104120D03*
G54D11*
X05069811D03*
X05169811D03*
G54D10*
X05237131Y02785220D03*
G54D11*
X05337131D03*
G54D10*
X05237131Y03149400D03*
G54D11*
X05337131D03*
X05069811Y03720260D03*
X05169811D03*
G54D10*
X04969811Y03592310D03*
G54D11*
X05069811D03*
X05169811D03*
G54D10*
X04969811Y03464360D03*
G54D11*
X05069811D03*
X05169811D03*
G54D10*
X04969811Y03336400D03*
G54D11*
X05069811D03*
X05169811D03*
X04287921Y04524200D03*
X04187921Y04474200D03*
G54D10*
X03953671Y04889550D03*
G54D11*
X04053671D03*
X04153671D03*
X04253671D03*
X04187921Y04574200D03*
G54D10*
Y04674200D03*
G54D11*
X04287921Y04624200D03*
Y04424200D03*
G54D12*
X03937921Y04724200D03*
G54D16*
X04871401Y04847040D03*
X04845811D03*
G54D17*
X03839501Y04918720D03*
Y04860381D03*
G54D18*
X04571771Y03917120D03*
X04532771Y03835120D03*
X04493771Y03917120D03*
X04566241Y04384331D03*
X04644241D03*
X04605241Y04466331D03*
X04644241Y04634940D03*
X04566241D03*
X04605241Y04552940D03*
G54D19*
X04610766Y02963565D03*
G54D20*
X04199591Y03293290D03*
X04404591D03*
X04199591Y03243290D03*
Y03193290D03*
Y03143290D03*
X04404591D03*
Y03193290D03*
Y03243290D03*
G54D21*
X04339501Y02982070D03*
G54D22*
X04193831Y03023010D03*
G54D20*
X04404591Y02641331D03*
X04199591D03*
X04404591Y02691331D03*
Y02741331D03*
Y02791331D03*
X04199591D03*
Y02741331D03*
Y02691331D03*
G54D22*
X04193831Y02941130D03*
G54D23*
X04931301Y04487980D03*
X04872961D03*
X05315521Y03976170D03*
X05257181D03*
G54D16*
X04845811Y04551761D03*
X04871401D03*
X04896991D03*
X04922581D03*
X04948171D03*
X05076121D03*
X05101711D03*
X05127301D03*
X05152891D03*
X05178481D03*
X05204071D03*
X05229661D03*
X05255251D03*
X05280841D03*
X05306431D03*
Y04847040D03*
X05280841D03*
X05255251D03*
X05229661D03*
X05204071D03*
X05178481D03*
X05152891D03*
X05127301D03*
X05101711D03*
X05076121D03*
X05050531D03*
X05024941D03*
X04999351D03*
X04973761D03*
X04948171D03*
X04922581D03*
X04896991D03*
X04973761Y04551761D03*
X04999351D03*
X05024941D03*
X05050531D03*
G54D24*
X05286351Y03580090D03*
Y03506090D03*
Y03887581D03*
Y03813581D03*
G54D23*
X05315521Y03671050D03*
X05257181D03*
Y03424990D03*
X05315521D03*
G54D19*
X05004466Y02963565D03*
G54D25*
X03937841Y04035220D03*
Y04274120D03*
Y03585220D03*
Y04724120D03*
G54D26*
X04922141Y04313320D03*
X04922171Y04363370D03*
X03928081Y03848220D03*
X03819811Y03641531D03*
X03928081Y03895460D03*
X03987131Y03921060D03*
X04016661Y03739950D03*
X04032411Y03350181D03*
X04016661Y03673020D03*
X04355241Y03633650D03*
X04217451Y03736020D03*
X04117051Y03747831D03*
X04282411Y03139550D03*
X04390681Y02844281D03*
X04119021Y03011600D03*
X04506821Y03739950D03*
X04709571Y03409240D03*
X04567841Y03100181D03*
X04524531Y03507660D03*
X04237131Y04074600D03*
Y04121840D03*
Y04169090D03*
Y04216331D03*
X04579651Y03867910D03*
X05284381Y03751760D03*
X04577681Y03755700D03*
X04532771Y03780410D03*
X04471381Y03862000D03*
X04416271Y04045070D03*
Y04098220D03*
Y04151370D03*
Y04204520D03*
X04451701Y04178931D03*
X04914301Y04169081D03*
X04870991Y02909240D03*
X05256821Y04023410D03*
X05343431Y03468290D03*
X05168241Y03064740D03*
Y03005690D03*
X05402491Y02964360D03*
X05168241Y02867900D03*
Y02926960D03*
X05335561Y02653331D03*
X05390681Y02700581D03*
Y03212390D03*
X04059971Y04302940D03*
X04189891Y04074600D03*
Y04121840D03*
Y04169090D03*
X03937921Y04610031D03*
X03882801Y04645460D03*
X04008791Y04456490D03*
X03961541Y04468300D03*
X04008791Y04503731D03*
X03918241Y04531290D03*
X03961541Y04515540D03*
X03914301Y04385620D03*
X03902491Y04117910D03*
X03961541Y04123810D03*
X04000911Y04369870D03*
X03843431Y04330500D03*
X03815871Y04375781D03*
X04069811Y04714360D03*
X04079651Y04653340D03*
X04556031Y04586410D03*
X04544221Y04495860D03*
X04650521Y04432870D03*
X04556031D03*
X04650521Y04586410D03*
X04396581Y04734050D03*
X04117051Y04708460D03*
X04709571Y04243881D03*
X04416271Y04257670D03*
X04451701Y04232081D03*
X04333591Y04797040D03*
X04365091Y04765540D03*
X04339501Y04889550D03*
X04713511Y04759631D03*
X04804061Y04924990D03*
X05308001Y04905300D03*
X05264691D03*
X04745011Y04728140D03*
X04776501Y04696640D03*
X04855241Y04732070D03*
X04811941Y04724200D03*
X04993041Y04318690D03*
X05304061Y04421050D03*
Y04480110D03*
X04878871Y04421050D03*
X05296191Y04318690D03*
X04733201Y04586400D03*
X04741071Y04665140D03*
G54D27*
X04187841Y03985220D03*
X04287921Y03935231D03*
X04187921Y04374200D03*
X04287921Y04324200D03*
Y03635231D03*
X04187921Y03685231D03*
X04287921Y03835231D03*
X04187921Y03885231D03*
Y03785231D03*
X04287921Y03735231D03*
Y04524200D03*
X04187921Y04474200D03*
Y04574200D03*
X04187841Y04674120D03*
X04287921Y04624200D03*
Y04424200D03*
X03869021Y02982070D03*
X04048161Y03987981D03*
X04302091Y02745850D03*
Y02667110D03*
Y02824590D03*
X04182011Y04279320D03*
G54D28*
X00000000Y05196441D03*
X05670661Y04566520D03*
X04647039Y-00236220D03*
G54D29*
X-00236220Y05196441D03*
X05670661D03*
Y-00236220D03*
M02*
