*
%FSLAX26Y26*%
%MOIN*%
%ADD10C,0.010000*%
%IPPOS*%
%LNpro.gbx*%
%LPD*%
G75*
G54D10*
X00000000Y02362000D02*
X01654000D01*
X00000000D02*
Y00000000D01*
X01654000Y02362000D02*
Y00000000D01*
X00000000D02*
X01654000D01*
X00000000Y04960220D02*
X01654000D01*
X00000000D02*
Y02598220D01*
X01654000Y04960220D02*
Y02598220D01*
X00000000D02*
X01654000D01*
X01890220Y02362000D02*
X03544220D01*
X01890220D02*
Y00000000D01*
X03544220Y02362000D02*
Y00000000D01*
X01890220D02*
X03544220D01*
X01890220Y04960220D02*
X03544220D01*
X01890220D02*
Y02598220D01*
X03544220Y04960220D02*
Y02598220D01*
X01890220D02*
X03544220D01*
X03780441Y02362000D02*
X05434441D01*
X03780441D02*
Y00000000D01*
X05434441Y02362000D02*
Y00000000D01*
X03780441D02*
X05434441D01*
X03780441Y04960220D02*
X05434441D01*
X03780441D02*
Y02598220D01*
X05434441Y04960220D02*
Y02598220D01*
X03780441D02*
X05434441D01*
X-00393701Y05353921D02*
Y-00393701D01*
X05828142Y05353921D02*
Y-00393701D01*
X-00393701D02*
X05828142D01*
X-00393701Y05353921D02*
X05828142D01*
M02*
